<svg width="1416" height="388" viewBox="0 0 1416 388" fill="none" xmlns="http://www.w3.org/2000/svg">
<path d="M293 96.4686C303 90.6951 303 76.2614 293 70.4879L251.75 46.6722C241.75 40.8987 229.25 48.1156 229.25 59.6626L229.25 107.294C229.25 118.841 241.75 126.058 251.75 120.284L293 96.4686Z" fill="#2B5FFC"/>
<path d="M379 96.4686C389 90.6951 389 76.2614 379 70.4879L337.75 46.6722C327.75 40.8987 315.25 48.1156 315.25 59.6626L315.25 107.294C315.25 118.841 327.75 126.058 337.75 120.284L379 96.4686Z" fill="#2B5FFC"/>
<path d="M166 291.488C156 297.261 156 311.695 166 317.469L207.25 341.284C217.25 347.058 229.75 339.841 229.75 328.294L229.75 280.663C229.75 269.116 217.25 261.899 207.25 267.672L166 291.488Z" fill="#2B5FFC"/>
<path d="M252 291.488C242 297.261 242 311.695 252 317.469L293.25 341.284C303.25 347.058 315.75 339.841 315.75 328.294L315.75 280.663C315.75 269.116 303.25 261.899 293.25 267.672L252 291.488Z" fill="#2B5FFC"/>
<path d="M293 150.469C303 144.695 303 130.261 293 124.488L251.75 100.672C241.75 94.8987 229.25 102.116 229.25 113.663L229.25 161.294C229.25 172.841 241.75 180.058 251.75 174.284L293 150.469Z" fill="#FF5E09"/>
<path d="M379 150.469C389 144.695 389 130.261 379 124.488L337.75 100.672C327.75 94.8987 315.25 102.116 315.25 113.663L315.25 161.294C315.25 172.841 327.75 180.058 337.75 174.284L379 150.469Z" fill="#FF5E09"/>
<path d="M166 237.488C156 243.261 156 257.695 166 263.469L207.25 287.284C217.25 293.058 229.75 285.841 229.75 274.294L229.75 226.663C229.75 215.116 217.25 207.899 207.25 213.672L166 237.488Z" fill="#FF5E09"/>
<path d="M252 237.488C242 243.261 242 257.695 252 263.469L293.25 287.284C303.25 293.058 315.75 285.841 315.75 274.294L315.75 226.663C315.75 215.116 303.25 207.899 293.25 213.672L252 237.488Z" fill="#FF5E09"/>
<path d="M293 208.469C303 202.695 303 188.261 293 182.488L251.75 158.672C241.75 152.899 229.25 160.116 229.25 171.663L229.25 219.294C229.25 230.841 241.75 238.058 251.75 232.284L293 208.469Z" fill="#9A41FF"/>
<path d="M379 208.469C389 202.695 389 188.261 379 182.488L337.75 158.672C327.75 152.899 315.25 160.116 315.25 171.663L315.25 219.294C315.25 230.841 327.75 238.058 337.75 232.284L379 208.469Z" fill="#9A41FF"/>
<path d="M166 179.488C156 185.261 156 199.695 166 205.469L207.25 229.284C217.25 235.058 229.75 227.841 229.75 216.294L229.75 168.663C229.75 157.116 217.25 149.899 207.25 155.672L166 179.488Z" fill="#9A41FF"/>
<path d="M252 179.488C242 185.261 242 199.695 252 205.469L293.25 229.284C303.25 235.058 315.75 227.841 315.75 216.294L315.75 168.663C315.75 157.116 303.25 149.899 293.25 155.672L252 179.488Z" fill="#9A41FF"/>
<path d="M293 262.469C303 256.695 303 242.261 293 236.488L251.75 212.672C241.75 206.899 229.25 214.116 229.25 225.663L229.25 273.294C229.25 284.841 241.75 292.058 251.75 286.284L293 262.469Z" fill="#FFDA01"/>
<path d="M379 262.469C389 256.695 389 242.261 379 236.488L337.75 212.672C327.75 206.899 315.25 214.116 315.25 225.663L315.25 273.294C315.25 284.841 327.75 292.058 337.75 286.284L379 262.469Z" fill="#FFDA01"/>
<path d="M166 125.488C156 131.261 156 145.695 166 151.469L207.25 175.284C217.25 181.058 229.75 173.841 229.75 162.294L229.75 114.663C229.75 103.116 217.25 95.8987 207.25 101.672L166 125.488Z" fill="#FFDA01"/>
<path d="M252 125.488C242 131.261 242 145.695 252 151.469L293.25 175.284C303.25 181.058 315.75 173.841 315.75 162.294L315.75 114.663C315.75 103.116 303.25 95.8987 293.25 101.672L252 125.488Z" fill="#FFDA01"/>
<path d="M293 317.469C303 311.695 303 297.261 293 291.488L251.75 267.672C241.75 261.899 229.25 269.116 229.25 280.663L229.25 328.294C229.25 339.841 241.75 347.058 251.75 341.284L293 317.469Z" fill="#00C14F"/>
<path d="M379 317.469C389 311.695 389 297.261 379 291.488L337.75 267.672C327.75 261.899 315.25 269.116 315.25 280.663L315.25 328.294C315.25 339.841 327.75 347.058 337.75 341.284L379 317.469Z" fill="#00C14F"/>
<path d="M166 70.4879C156 76.2614 156 90.6951 166 96.4686L207.25 120.284C217.25 126.058 229.75 118.841 229.75 107.294L229.75 59.6625C229.75 48.1155 217.25 40.8987 207.25 46.6722L166 70.4879Z" fill="#00C14F"/>
<path d="M252 70.4879C242 76.2614 242 90.6951 252 96.4686L293.25 120.284C303.25 126.058 315.75 118.841 315.75 107.294L315.75 59.6625C315.75 48.1155 303.25 40.8987 293.25 46.6722L252 70.4879Z" fill="#00C14F"/>
<path d="M476.791 133.109C484.49 119.783 503.725 119.783 511.425 133.109L529.258 163.972C536.962 177.306 527.34 193.978 511.941 193.978H476.275C460.876 193.978 451.253 177.306 458.958 163.972L476.791 133.109Z" fill="#FF5E09"/>
<path d="M476.791 216.628C484.49 229.953 503.725 229.953 511.425 216.628L529.258 185.764C536.962 172.431 527.34 155.758 511.941 155.758H476.275C460.876 155.758 451.253 172.431 458.958 185.764L476.791 216.628Z" fill="#FF5E09"/>
<path d="M563.555 133.109C571.255 119.783 590.49 119.783 598.19 133.109L616.023 163.972C623.727 177.306 614.105 193.978 598.706 193.978H563.039C547.64 193.978 538.018 177.306 545.722 163.972L563.555 133.109Z" fill="#FFDA01"/>
<path d="M563.555 216.628C571.255 229.953 590.49 229.953 598.19 216.628L616.023 185.764C623.727 172.431 614.105 155.758 598.706 155.758H563.039C547.64 155.758 538.018 172.431 545.722 185.764L563.555 216.628Z" fill="#FFDA01"/>
<path d="M649.682 133.109C657.382 119.783 676.617 119.783 684.317 133.109L702.15 163.972C709.854 177.306 700.232 193.978 684.833 193.978H649.166C633.767 193.978 624.145 177.306 631.849 163.972L649.682 133.109Z" fill="#2B5FFC"/>
<path d="M649.683 216.628C657.383 229.953 676.618 229.953 684.318 216.628L702.151 185.764C709.855 172.431 700.233 155.758 684.834 155.758H649.167C633.768 155.758 624.146 172.431 631.85 185.764L649.683 216.628Z" fill="#2B5FFC"/>
<path d="M736.448 133.109C744.148 119.783 763.383 119.783 771.082 133.109L788.916 163.972C796.62 177.306 786.997 193.978 771.598 193.978H735.932C720.533 193.978 710.911 177.306 718.615 163.972L736.448 133.109Z" fill="#00C14F"/>
<path d="M736.448 216.628C744.148 229.953 763.383 229.953 771.082 216.628L788.916 185.764C796.62 172.431 786.997 155.758 771.598 155.758H735.932C720.533 155.758 710.911 172.431 718.615 185.764L736.448 216.628Z" fill="#00C14F"/>
<path d="M822.575 133.109C830.275 119.783 849.51 119.783 857.209 133.109L875.042 163.972C882.747 177.306 873.124 193.978 857.725 193.978H822.059C806.66 193.978 797.038 177.306 804.742 163.972L822.575 133.109Z" fill="#9A41FF"/>
<path d="M822.575 216.628C830.275 229.953 849.51 229.953 857.209 216.628L875.042 185.764C882.747 172.431 873.124 155.758 857.725 155.758H822.059C806.66 155.758 797.038 172.431 804.742 185.764L822.575 216.628Z" fill="#9A41FF"/>
<ellipse cx="536.534" cy="70.3082" rx="32.8559" ry="32.8299" fill="#2B5FFC"/>
<ellipse cx="536.534" cy="279.428" rx="32.8559" ry="32.8299" fill="#2B5FFC"/>
<ellipse cx="708.788" cy="70.3082" rx="32.8559" ry="32.8299" fill="#FF5E09"/>
<ellipse cx="708.788" cy="279.428" rx="32.8559" ry="32.8299" fill="#FF5E09"/>
<ellipse cx="622.661" cy="70.3082" rx="32.8559" ry="32.8299" fill="#9A41FF"/>
<ellipse cx="622.661" cy="279.428" rx="32.8559" ry="32.8299" fill="#9A41FF"/>
<ellipse cx="794.914" cy="70.3082" rx="32.8559" ry="32.8299" fill="#FFDA01"/>
<ellipse cx="794.914" cy="279.428" rx="32.8559" ry="32.8299" fill="#FFDA01"/>
<ellipse cx="1151.27" cy="192.786" rx="62.1379" ry="62.2242" fill="#2B5FFC"/>
<rect width="118.123" height="118.123" rx="40" transform="matrix(0.706616 0.707597 -0.706616 0.707597 1015.97 0.478271)" fill="#00C14F"/>
<rect width="118.123" height="118.123" rx="40" transform="matrix(0.706616 0.707597 -0.706616 0.707597 1152.5 0.478271)" fill="#FF5E09"/>
<rect width="118.123" height="118.123" rx="40" transform="matrix(0.706616 0.707597 -0.706616 0.707597 1015.97 172.055)" fill="#FF5E09"/>
<path d="M1184.74 202.71C1171.42 210.41 1171.42 229.638 1184.74 237.339L1213.06 253.714C1226.4 261.423 1243.07 251.801 1243.07 236.4L1243.07 203.648C1243.07 188.247 1226.4 178.625 1213.06 186.334L1184.74 202.71Z" fill="#9A41FF"/>
<path d="M1044.65 185.211C1057.97 177.511 1057.97 158.283 1044.65 150.582L1016.32 134.206C1002.99 126.498 986.314 136.12 986.314 151.521L986.314 184.273C986.314 199.674 1002.99 209.296 1016.32 201.587L1044.65 185.211Z" fill="#9A41FF"/>
<rect width="118.123" height="118.123" rx="40" transform="matrix(0.706616 0.707597 -0.706616 0.707597 1152.5 220.311)" fill="#00C14F"/>
</svg>
