<svg width="1200" height="328" viewBox="0 0 1200 328" fill="none" xmlns="http://www.w3.org/2000/svg">
<circle cx="74.3698" cy="64.3197" r="64.3197" fill="#FF5E09"/>
<circle cx="218.084" cy="64.3197" r="64.3197" fill="#FF5E09"/>
<circle cx="218.084" cy="208.034" r="64.3197" fill="#FF5E09"/>
<path d="M138.689 208.034C138.689 243.557 109.893 272.354 74.3698 272.354C38.847 272.354 10.05 243.557 10.05 208.034C10.05 172.511 38.847 143.714 74.3698 143.714C109.893 143.714 138.689 172.511 138.689 208.034Z" fill="#FF5E09"/>
<circle cx="491.696" cy="48.9629" r="48.9629" fill="#2B5FFC"/>
<circle cx="600.503" cy="48.9629" r="48.9629" fill="#2B5FFC"/>
<circle cx="600.503" cy="157.769" r="48.9629" fill="#2B5FFC"/>
<circle cx="709.309" cy="48.9629" r="48.9629" fill="#2B5FFC"/>
<path d="M595.504 220.573C597.542 215.537 604.672 215.537 606.71 220.573L611.178 231.609C612.445 234.738 616.03 236.223 619.139 234.906L630.102 230.262C635.104 228.143 640.145 233.184 638.026 238.186L633.381 249.149C632.064 252.258 633.549 255.843 636.679 257.11L647.715 261.577C652.75 263.616 652.75 270.745 647.715 272.784L636.679 277.251C633.549 278.518 632.064 282.103 633.381 285.212L638.026 296.175C640.145 301.177 635.104 306.218 630.102 304.099L619.139 299.455C616.03 298.138 612.445 299.623 611.178 302.752L606.71 313.788C604.672 318.824 597.542 318.824 595.504 313.788L591.036 302.752C589.769 299.623 586.184 298.138 583.075 299.455L572.112 304.099C567.11 306.218 562.069 301.177 564.188 296.175L568.833 285.212C570.15 282.103 568.665 278.518 565.535 277.251L554.499 272.784C549.464 270.745 549.464 263.616 554.499 261.577L565.535 257.11C568.665 255.843 570.15 252.258 568.833 249.149L564.188 238.186C562.069 233.184 567.11 228.143 572.112 230.262L583.075 234.906C586.184 236.223 589.769 234.738 591.036 231.609L595.504 220.573Z" fill="#FFDA01"/>
<path d="M485.489 111.766C487.527 106.731 494.656 106.731 496.695 111.766L501.162 122.802C502.429 125.932 506.015 127.417 509.124 126.1L520.086 121.455C525.088 119.336 530.129 124.377 528.01 129.379L523.366 140.342C522.049 143.451 523.534 147.036 526.663 148.303L537.699 152.771C542.735 154.809 542.735 161.938 537.699 163.977L526.663 168.445C523.534 169.712 522.049 173.297 523.366 176.406L528.01 187.369C530.129 192.37 525.088 197.412 520.086 195.292L509.124 190.648C506.015 189.331 502.429 190.816 501.162 193.946L496.695 204.982C494.656 210.017 487.527 210.017 485.489 204.982L481.021 193.946C479.754 190.816 476.169 189.331 473.06 190.648L462.097 195.292C457.095 197.412 452.054 192.37 454.173 187.369L458.817 176.406C460.135 173.297 458.65 169.712 455.52 168.445L444.484 163.977C439.449 161.938 439.449 154.809 444.484 152.771L455.52 148.303C458.65 147.036 460.135 143.451 458.817 140.342L454.173 129.379C452.054 124.377 457.095 119.336 462.097 121.455L473.06 126.1C476.169 127.417 479.754 125.932 481.021 122.802L485.489 111.766Z" fill="#9A41FF"/>
<path d="M704.311 111.766C706.349 106.731 713.478 106.731 715.517 111.766L719.984 122.802C721.251 125.932 724.837 127.417 727.946 126.1L738.908 121.455C743.91 119.336 748.951 124.377 746.832 129.379L742.188 140.342C740.871 143.451 742.356 147.036 745.485 148.303L756.521 152.771C761.557 154.809 761.557 161.938 756.521 163.977L745.485 168.445C742.356 169.712 740.871 173.297 742.188 176.406L746.832 187.369C748.951 192.37 743.91 197.412 738.908 195.292L727.946 190.648C724.837 189.331 721.251 190.816 719.984 193.946L715.517 204.982C713.478 210.017 706.349 210.017 704.311 204.982L699.843 193.946C698.576 190.816 694.991 189.331 691.882 190.648L680.919 195.292C675.917 197.412 670.876 192.37 672.995 187.369L677.639 176.406C678.957 173.297 677.472 169.712 674.342 168.445L663.306 163.977C658.271 161.938 658.271 154.809 663.306 152.771L674.342 148.303C677.472 147.036 678.957 143.451 677.639 140.342L672.995 129.379C670.876 124.377 675.917 119.336 680.919 121.455L691.882 126.1C694.991 127.417 698.576 125.932 699.843 122.802L704.311 111.766Z" fill="#9A41FF"/>
<rect x="1059.3" width="198.979" height="198.979" rx="25.1249" transform="rotate(45 1059.3 0)" fill="#FF5E09"/>
</svg>
