<svg width="339" height="326" viewBox="0 0 339 326" fill="none" xmlns="http://www.w3.org/2000/svg">
<circle cx="61.2345" cy="48.7196" r="48.7196" fill="#2B5FFC"/>
<circle cx="169.5" cy="48.7196" r="48.7196" fill="#2B5FFC"/>
<circle cx="169.5" cy="156.985" r="48.7196" fill="#2B5FFC"/>
<circle cx="277.766" cy="48.7196" r="48.7196" fill="#2B5FFC"/>
<path d="M164.526 219.476C166.555 214.466 173.649 214.466 175.677 219.476L180.122 230.457C181.383 233.572 184.95 235.049 188.044 233.739L198.952 229.117C203.929 227.009 208.945 232.025 206.837 237.002L202.215 247.91C200.905 251.004 202.383 254.571 205.497 255.832L216.478 260.277C221.488 262.306 221.488 269.399 216.478 271.428L205.497 275.873C202.383 277.134 200.905 280.701 202.215 283.795L206.837 294.703C208.945 299.68 203.929 304.696 198.952 302.588L188.044 297.966C184.95 296.656 181.383 298.133 180.122 301.247L175.677 312.228C173.649 317.239 166.555 317.239 164.526 312.229L160.081 301.247C158.82 298.133 155.253 296.656 152.159 297.966L141.251 302.588C136.274 304.696 131.258 299.68 133.367 294.703L137.988 283.795C139.298 280.701 137.821 277.134 134.707 275.873L123.726 271.428C118.715 269.399 118.715 262.306 123.726 260.277L134.707 255.832C137.821 254.571 139.298 251.004 137.988 247.91L133.367 237.002C131.258 232.025 136.274 227.009 141.251 229.117L152.159 233.739C155.253 235.049 158.82 233.572 160.081 230.457L164.526 219.476Z" fill="#FFDA01"/>
<path d="M55.0577 111.211C57.0861 106.2 64.1798 106.2 66.2082 111.211L70.6537 122.192C71.9144 125.306 75.4817 126.784 78.5752 125.473L89.4835 120.852C94.4606 118.743 99.4766 123.759 97.3681 128.736L92.7467 139.645C91.4362 142.738 92.9138 146.305 96.0279 147.566L107.009 152.012C112.019 154.04 112.019 161.134 107.009 163.162L96.0279 167.608C92.9138 168.868 91.4362 172.436 92.7467 175.529L97.3681 186.437C99.4766 191.414 94.4606 196.43 89.4835 194.322L78.5752 189.701C75.4817 188.39 71.9144 189.868 70.6537 192.982L66.2082 203.963C64.1798 208.973 57.0861 208.973 55.0577 203.963L50.6122 192.982C49.3515 189.868 45.7842 188.39 42.6907 189.701L31.7824 194.322C26.8053 196.43 21.7893 191.414 23.8978 186.437L28.5192 175.529C29.8297 172.436 28.3521 168.868 25.238 167.608L14.2569 163.162C9.24661 161.134 9.24661 154.04 14.2569 152.012L25.238 147.566C28.3521 146.305 29.8297 142.738 28.5192 139.645L23.8978 128.736C21.7893 123.759 26.8053 118.743 31.7824 120.852L42.6907 125.473C45.7842 126.784 49.3515 125.306 50.6122 122.192L55.0577 111.211Z" fill="#9A41FF"/>
<path d="M272.792 111.211C274.82 106.2 281.914 106.2 283.943 111.211L288.388 122.192C289.649 125.306 293.216 126.784 296.31 125.473L307.218 120.852C312.195 118.743 317.211 123.759 315.102 128.736L310.481 139.645C309.171 142.738 310.648 146.305 313.762 147.566L324.743 152.012C329.754 154.04 329.754 161.134 324.743 163.162L313.762 167.608C310.648 168.868 309.171 172.436 310.481 175.529L315.102 186.437C317.211 191.414 312.195 196.43 307.218 194.322L296.31 189.701C293.216 188.39 289.649 189.868 288.388 192.982L283.943 203.963C281.914 208.973 274.82 208.973 272.792 203.963L268.347 192.982C267.086 189.868 263.519 188.39 260.425 189.701L249.517 194.322C244.54 196.43 239.524 191.414 241.632 186.437L246.254 175.529C247.564 172.436 246.086 168.868 242.972 167.608L231.991 163.162C226.981 161.134 226.981 154.04 231.991 152.012L242.972 147.566C246.086 146.305 247.564 142.738 246.254 139.645L241.632 128.736C239.524 123.759 244.54 118.743 249.517 120.852L260.425 125.473C263.519 126.784 267.086 125.306 268.347 122.192L272.792 111.211Z" fill="#9A41FF"/>
</svg>
