<svg width="342" height="388" viewBox="0 0 342 388" fill="none" xmlns="http://www.w3.org/2000/svg">
<path d="M90.8684 206.137L151.723 266.992C154.207 269.476 155.397 272.374 155.294 275.686C155.19 278.998 153.897 281.896 151.413 284.379C148.929 286.656 146.031 287.846 142.719 287.95C139.407 288.053 136.51 286.863 134.026 284.379L52.0579 202.412C50.816 201.17 49.9363 199.824 49.4188 198.375C48.9013 196.926 48.6426 195.374 48.6426 193.718C48.6426 192.062 48.9013 190.51 49.4188 189.061C49.9363 187.612 50.816 186.266 52.0579 185.025L134.026 103.057C136.303 100.78 139.149 99.6415 142.564 99.6415C145.979 99.6415 148.929 100.78 151.413 103.057C153.897 105.541 155.139 108.49 155.139 111.906C155.139 115.321 153.897 118.271 151.413 120.754L90.8684 181.299H229.655C233.173 181.299 236.123 182.489 238.503 184.869C240.884 187.25 242.074 190.199 242.074 193.718C242.074 197.237 240.884 200.187 238.503 202.567C236.123 204.947 233.173 206.137 229.655 206.137H90.8684Z" fill="#141414"/>
</svg>
