<svg width="188" height="188" viewBox="0 0 188 188" fill="none" xmlns="http://www.w3.org/2000/svg">
<path d="M63.92 84.13L84.13 63.685L70.97 50.29L60.63 60.63L47.47 47.47L57.575 37.13L47 26.555L26.555 47L63.92 84.13ZM141 161.445L161.445 141L150.87 130.425L140.53 140.53L127.37 127.37L137.475 117.03L124.08 103.87L103.87 124.08L141 161.445ZM49.6429 178.307C49.4554 178.495 49.201 178.6 48.9358 178.6H10.4C9.84772 178.6 9.4 178.152 9.4 177.6V139.064C9.4 138.799 9.50536 138.545 9.69289 138.357L50.525 97.525L0.707106 47.7071C0.316582 47.3166 0.316583 46.6834 0.707107 46.2929L46.2929 0.707106C46.6834 0.316582 47.3166 0.316582 47.7071 0.707107L97.76 50.76L133.245 15.04C135.125 13.16 137.24 11.75 139.59 10.81C141.94 9.87 144.368 9.4 146.875 9.4C149.382 9.4 151.81 9.87 154.16 10.81C156.51 11.75 158.625 13.16 160.505 15.04L172.96 27.73C174.84 29.61 176.25 31.725 177.19 34.075C178.13 36.425 178.6 38.8533 178.6 41.36C178.6 43.8667 178.13 46.2558 177.19 48.5275C176.25 50.7992 174.84 52.875 172.96 54.755L137.475 90.475L187.293 140.293C187.683 140.683 187.683 141.317 187.293 141.707L141.707 187.293C141.317 187.683 140.683 187.683 140.293 187.293L90.475 137.475L49.6429 178.307ZM28.2 159.8H41.36L133.48 67.915L120.085 54.52L28.2 146.64V159.8Z" fill="#141414"/>
</svg>
