<svg width="500" height="175" viewBox="0 0 500 175" fill="none" xmlns="http://www.w3.org/2000/svg">
<circle cx="87.3538" cy="87.6463" r="87.3538" fill="#9A41FF"/>
<ellipse cx="58.6828" cy="86.5745" rx="25.7238" ry="54.6631" fill="#080808"/>
<ellipse cx="120.849" cy="86.5745" rx="25.7238" ry="54.6631" fill="#080808"/>
<path d="M63.2383 88.4502L32.4903 104.694L32.4903 72.2062L63.2383 88.4502Z" fill="#9A41FF"/>
<path d="M125.404 88.4502L94.6558 104.694L94.6558 72.2062L125.404 88.4502Z" fill="#9A41FF"/>
<circle cx="195.784" cy="87.6463" r="87.3538" fill="#FF5E09"/>
<ellipse cx="167.113" cy="86.5745" rx="25.7238" ry="54.6631" fill="#080808"/>
<ellipse cx="229.279" cy="86.5745" rx="25.7238" ry="54.6631" fill="#080808"/>
<path d="M171.669 88.4502L140.921 104.694L140.921 72.2062L171.669 88.4502Z" fill="#FF5E09"/>
<path d="M233.834 88.4502L203.086 104.694L203.086 72.2062L233.834 88.4502Z" fill="#FF5E09"/>
<circle cx="304.216" cy="87.6463" r="87.3538" fill="#00C14F"/>
<ellipse cx="275.545" cy="86.5745" rx="25.7238" ry="54.6631" fill="#080808"/>
<ellipse cx="337.711" cy="86.5745" rx="25.7238" ry="54.6631" fill="#080808"/>
<path d="M280.1 88.4502L249.352 104.694L249.352 72.2062L280.1 88.4502Z" fill="#00C14F"/>
<path d="M342.266 88.4502L311.518 104.694L311.518 72.2062L342.266 88.4502Z" fill="#00C14F"/>
<circle cx="412.646" cy="87.6463" r="87.3538" fill="#FFDA01"/>
<ellipse cx="383.975" cy="86.5745" rx="25.7238" ry="54.6631" fill="#080808"/>
<ellipse cx="446.141" cy="86.5745" rx="25.7238" ry="54.6631" fill="#080808"/>
<path d="M388.531 88.4502L357.783 104.694L357.783 72.2062L388.531 88.4502Z" fill="#FFDA01"/>
<path d="M450.696 88.4502L419.948 104.694L419.948 72.2062L450.696 88.4502Z" fill="#FFDA01"/>
</svg>
