<svg width="971" height="263" viewBox="0 0 971 263" fill="none" xmlns="http://www.w3.org/2000/svg">
<path d="M85.4646 187.857C82.8033 187.857 80.5725 186.957 78.7722 185.157C76.9719 183.356 76.0718 181.126 76.0718 178.464C76.0718 175.803 76.9719 173.572 78.7722 171.772C80.5725 169.972 82.8033 169.071 85.4646 169.071H235.75C238.412 169.071 240.642 169.972 242.443 171.772C244.243 173.572 245.143 175.803 245.143 178.464C245.143 181.126 244.243 183.356 242.443 185.157C240.642 186.957 238.412 187.857 235.75 187.857H85.4646ZM85.4646 140.893C82.8033 140.893 80.5725 139.993 78.7722 138.192C76.9719 136.392 76.0718 134.161 76.0718 131.5C76.0718 128.839 76.9719 126.608 78.7722 124.808C80.5725 123.007 82.8033 122.107 85.4646 122.107H235.75C238.412 122.107 240.642 123.007 242.443 124.808C244.243 126.608 245.143 128.839 245.143 131.5C245.143 134.161 244.243 136.392 242.443 138.192C240.642 139.993 238.412 140.893 235.75 140.893H85.4646ZM85.4646 93.9285C82.8033 93.9285 80.5725 93.0284 78.7722 91.2281C76.9719 89.4278 76.0718 87.197 76.0718 84.5357C76.0718 81.8744 76.9719 79.6436 78.7722 77.8433C80.5725 76.043 82.8033 75.1428 85.4646 75.1428H235.75C238.412 75.1428 240.642 76.043 242.443 77.8433C244.243 79.6436 245.143 81.8744 245.143 84.5357C245.143 87.197 244.243 89.4278 242.443 91.2281C240.642 93.0284 238.412 93.9285 235.75 93.9285H85.4646Z" fill="#141414"/>
<path d="M410.822 187.857C408.16 187.857 405.929 186.957 404.129 185.157C402.329 183.356 401.429 181.126 401.429 178.464C401.429 175.803 402.329 173.572 404.129 171.772C405.929 169.972 408.16 169.071 410.822 169.071H561.107C563.769 169.071 565.999 169.972 567.8 171.772C569.6 173.572 570.5 175.803 570.5 178.464C570.5 181.126 569.6 183.356 567.8 185.157C565.999 186.957 563.769 187.857 561.107 187.857H410.822ZM410.822 140.893C408.16 140.893 405.929 139.993 404.129 138.192C402.329 136.392 401.429 134.161 401.429 131.5C401.429 128.839 402.329 126.608 404.129 124.808C405.929 123.007 408.16 122.107 410.822 122.107H561.107C563.769 122.107 565.999 123.007 567.8 124.808C569.6 126.608 570.5 128.839 570.5 131.5C570.5 134.161 569.6 136.392 567.8 138.192C565.999 139.993 563.769 140.893 561.107 140.893H410.822ZM410.822 93.9285C408.16 93.9285 405.929 93.0284 404.129 91.2281C402.329 89.4278 401.429 87.197 401.429 84.5357C401.429 81.8744 402.329 79.6436 404.129 77.8433C405.929 76.043 408.16 75.1428 410.822 75.1428H561.107C563.769 75.1428 565.999 76.043 567.8 77.8433C569.6 79.6436 570.5 81.8744 570.5 84.5357C570.5 87.197 569.6 89.4278 567.8 91.2281C565.999 93.0284 563.769 93.9285 561.107 93.9285H410.822Z" fill="#2B5FFC"/>
<path d="M736.179 187.857C733.518 187.857 731.287 186.957 729.487 185.157C727.686 183.356 726.786 181.126 726.786 178.464C726.786 175.803 727.686 173.572 729.487 171.772C731.287 169.972 733.518 169.071 736.179 169.071H886.465C889.126 169.071 891.357 169.972 893.157 171.772C894.957 173.572 895.858 175.803 895.858 178.464C895.858 181.126 894.957 183.356 893.157 185.157C891.357 186.957 889.126 187.857 886.465 187.857H736.179ZM736.179 140.893C733.518 140.893 731.287 139.993 729.487 138.192C727.686 136.392 726.786 134.161 726.786 131.5C726.786 128.839 727.686 126.608 729.487 124.808C731.287 123.007 733.518 122.107 736.179 122.107H886.465C889.126 122.107 891.357 123.007 893.157 124.808C894.957 126.608 895.858 128.839 895.858 131.5C895.858 134.161 894.957 136.392 893.157 138.192C891.357 139.993 889.126 140.893 886.465 140.893H736.179ZM736.179 93.9285C733.518 93.9285 731.287 93.0284 729.487 91.2281C727.686 89.4278 726.786 87.197 726.786 84.5357C726.786 81.8744 727.686 79.6436 729.487 77.8433C731.287 76.043 733.518 75.1428 736.179 75.1428H886.465C889.126 75.1428 891.357 76.043 893.157 77.8433C894.957 79.6436 895.858 81.8744 895.858 84.5357C895.858 87.197 894.957 89.4278 893.157 91.2281C891.357 93.0284 889.126 93.9285 886.465 93.9285H736.179Z" fill="#18348B"/>
</svg>
