<svg width="1416" height="380" viewBox="0 0 1416 380" fill="none" xmlns="http://www.w3.org/2000/svg">
<rect y="40.6476" width="429.519" height="125.331" rx="62.6653" fill="#FF5E09"/>
<path d="M128.35 104.716C128.35 108.495 127.661 111.654 126.284 114.194C124.907 116.718 122.911 118.623 120.295 119.908C117.694 121.178 114.534 121.813 110.817 121.813H101.706V88.2619H111.826C115.238 88.2619 118.176 88.8891 120.639 90.1437C123.102 91.3829 124.999 93.2265 126.33 95.6743C127.676 98.1069 128.35 101.121 128.35 104.716ZM124.242 104.854C124.242 101.84 123.737 99.3538 122.727 97.3955C121.733 95.4372 120.264 93.9838 118.321 93.0352C116.393 92.0714 114.03 91.5894 111.23 91.5894H105.607V118.462H110.358C114.978 118.462 118.443 117.323 120.754 115.043C123.079 112.763 124.242 109.367 124.242 104.854ZM144.919 96.2021C147.06 96.2021 148.896 96.6764 150.426 97.625C151.956 98.5735 153.127 99.9045 153.937 101.618C154.748 103.316 155.154 105.305 155.154 107.585V109.948H137.781C137.827 112.901 138.562 115.15 139.985 116.695C141.407 118.241 143.412 119.013 145.997 119.013C147.588 119.013 148.996 118.868 150.22 118.577C151.444 118.286 152.713 117.858 154.029 117.292V120.643C152.759 121.209 151.497 121.622 150.243 121.882C149.003 122.142 147.535 122.272 145.836 122.272C143.419 122.272 141.308 121.782 139.503 120.803C137.713 119.809 136.32 118.355 135.326 116.443C134.332 114.531 133.834 112.19 133.834 109.421C133.834 106.713 134.286 104.372 135.188 102.398C136.106 100.409 137.391 98.8795 139.044 97.8086C140.711 96.7376 142.67 96.2021 144.919 96.2021ZM144.873 99.3232C142.838 99.3232 141.216 99.9887 140.008 101.32C138.799 102.651 138.08 104.51 137.85 106.896H151.161C151.145 105.397 150.908 104.081 150.449 102.949C150.006 101.802 149.325 100.914 148.407 100.287C147.489 99.6445 146.311 99.3232 144.873 99.3232ZM177.896 114.928C177.896 116.535 177.49 117.889 176.68 118.99C175.884 120.076 174.737 120.895 173.237 121.446C171.753 121.997 169.979 122.272 167.913 122.272C166.154 122.272 164.631 122.134 163.346 121.859C162.061 121.583 160.937 121.193 159.973 120.688V117.177C160.998 117.682 162.222 118.141 163.645 118.554C165.068 118.967 166.521 119.174 168.005 119.174C170.177 119.174 171.753 118.822 172.732 118.118C173.712 117.414 174.201 116.458 174.201 115.25C174.201 114.561 174.002 113.957 173.604 113.437C173.222 112.901 172.572 112.389 171.654 111.899C170.736 111.394 169.466 110.843 167.844 110.247C166.238 109.635 164.846 109.03 163.668 108.434C162.505 107.822 161.602 107.08 160.96 106.208C160.332 105.336 160.019 104.204 160.019 102.811C160.019 100.685 160.876 99.0554 162.589 97.9233C164.318 96.7759 166.582 96.2021 169.382 96.2021C170.897 96.2021 172.312 96.3551 173.627 96.6611C174.958 96.9518 176.198 97.3496 177.345 97.8545L176.06 100.907C175.02 100.463 173.91 100.088 172.732 99.7821C171.554 99.4762 170.353 99.3232 169.129 99.3232C167.37 99.3232 166.016 99.6139 165.068 100.195C164.134 100.777 163.668 101.572 163.668 102.582C163.668 103.362 163.882 104.005 164.31 104.51C164.754 105.014 165.458 105.489 166.421 105.932C167.385 106.376 168.655 106.896 170.231 107.493C171.807 108.074 173.168 108.679 174.316 109.306C175.463 109.918 176.343 110.667 176.955 111.555C177.582 112.427 177.896 113.551 177.896 114.928ZM187.833 96.6611V121.813H184.023V96.6611H187.833ZM185.974 87.2521C186.601 87.2521 187.137 87.4587 187.58 87.8718C188.039 88.2695 188.269 88.8968 188.269 89.7535C188.269 90.595 188.039 91.2223 187.58 91.6353C187.137 92.0484 186.601 92.255 185.974 92.255C185.316 92.255 184.765 92.0484 184.322 91.6353C183.893 91.2223 183.679 90.595 183.679 89.7535C183.679 88.8968 183.893 88.2695 184.322 87.8718C184.765 87.4587 185.316 87.2521 185.974 87.2521ZM202.933 133.104C199.628 133.104 197.081 132.484 195.291 131.245C193.501 130.021 192.606 128.3 192.606 126.081C192.606 124.506 193.103 123.159 194.098 122.042C195.107 120.926 196.5 120.184 198.274 119.816C197.616 119.51 197.05 119.051 196.576 118.439C196.117 117.827 195.888 117.124 195.888 116.328C195.888 115.41 196.14 114.607 196.645 113.919C197.165 113.215 197.953 112.542 199.009 111.899C197.693 111.364 196.622 110.461 195.796 109.191C194.985 107.906 194.58 106.414 194.58 104.716C194.58 102.911 194.954 101.373 195.704 100.103C196.454 98.8183 197.54 97.8392 198.963 97.166C200.386 96.4928 202.107 96.1562 204.126 96.1562C204.57 96.1562 205.014 96.1792 205.457 96.2251C205.916 96.2557 206.352 96.3092 206.765 96.3857C207.178 96.4469 207.538 96.5234 207.844 96.6152H216.473V99.0707L211.837 99.6445C212.296 100.241 212.678 100.96 212.984 101.802C213.29 102.643 213.443 103.576 213.443 104.601C213.443 107.11 212.594 109.107 210.896 110.591C209.198 112.06 206.865 112.794 203.897 112.794C203.193 112.794 202.474 112.733 201.74 112.61C200.99 113.024 200.416 113.483 200.018 113.987C199.636 114.492 199.445 115.074 199.445 115.732C199.445 116.221 199.59 116.611 199.881 116.902C200.187 117.193 200.623 117.407 201.189 117.544C201.755 117.667 202.436 117.728 203.231 117.728H207.66C210.399 117.728 212.495 118.302 213.948 119.449C215.417 120.597 216.151 122.272 216.151 124.475C216.151 127.259 215.019 129.394 212.755 130.878C210.491 132.362 207.217 133.104 202.933 133.104ZM203.048 130.12C205.128 130.12 206.85 129.906 208.211 129.478C209.588 129.065 210.613 128.46 211.286 127.665C211.975 126.885 212.319 125.951 212.319 124.865C212.319 123.855 212.089 123.09 211.631 122.57C211.172 122.065 210.498 121.729 209.611 121.56C208.724 121.377 207.637 121.285 206.352 121.285H201.992C200.86 121.285 199.873 121.461 199.032 121.813C198.19 122.165 197.54 122.685 197.081 123.373C196.637 124.062 196.415 124.919 196.415 125.944C196.415 127.305 196.989 128.338 198.137 129.042C199.284 129.761 200.921 130.12 203.048 130.12ZM204.034 110.017C205.855 110.017 207.224 109.558 208.142 108.64C209.06 107.722 209.519 106.384 209.519 104.624C209.519 102.743 209.053 101.335 208.119 100.402C207.186 99.4532 205.809 98.9789 203.989 98.9789C202.244 98.9789 200.898 99.4685 199.95 100.448C199.016 101.412 198.55 102.827 198.55 104.693C198.55 106.407 199.024 107.722 199.973 108.64C200.921 109.558 202.275 110.017 204.034 110.017ZM233.34 96.2021C236.323 96.2021 238.58 96.9365 240.11 98.4052C241.64 99.8586 242.405 102.199 242.405 105.428V121.813H238.641V105.68C238.641 103.584 238.159 102.016 237.195 100.975C236.247 99.9351 234.786 99.415 232.812 99.415C230.028 99.415 228.069 100.203 226.937 101.779C225.805 103.354 225.239 105.642 225.239 108.64V121.813H221.43V96.6611H224.505L225.078 100.287H225.285C225.82 99.3997 226.501 98.6577 227.327 98.061C228.154 97.449 229.079 96.99 230.104 96.6841C231.129 96.3628 232.208 96.2021 233.34 96.2021Z" fill="#141414"/>
<path d="M296.653 100.434L302.547 94.4712L298.709 90.5645L295.693 93.5802L291.855 89.742L294.802 86.7262L291.718 83.6419L285.755 89.6049L296.653 100.434ZM319.134 122.984L325.097 117.021L322.013 113.937L318.997 116.884L315.159 113.046L318.106 110.03L314.199 106.192L308.305 112.086L319.134 122.984ZM293.55 126.84C292.816 127.575 291.82 127.987 290.781 127.987H284.668C282.505 127.987 280.751 126.234 280.751 124.071V117.958C280.751 116.919 281.164 115.923 281.899 115.188L292.746 104.341L280.779 92.3743C279.25 90.8448 279.25 88.365 280.779 86.8355L288.948 78.6663C290.478 77.1368 292.958 77.1368 294.487 78.6663L306.522 90.7015L316.872 80.2834C317.42 79.7351 318.037 79.3239 318.723 79.0497C319.408 78.7755 320.116 78.6385 320.847 78.6385C321.578 78.6385 322.287 78.7755 322.972 79.0497C323.658 79.3239 324.274 79.7351 324.823 80.2834L328.455 83.9846C329.004 84.5329 329.415 85.1498 329.689 85.8352C329.963 86.5206 330.1 87.2288 330.1 87.9599C330.1 88.691 329.963 89.3878 329.689 90.0504C329.415 90.713 329.004 91.3184 328.455 91.8667L318.106 102.285L330.072 114.252C331.602 115.781 331.602 118.261 330.072 119.79L321.903 127.96C320.374 129.489 317.894 129.489 316.364 127.96L304.398 115.993L293.55 126.84ZM286.235 122.504H290.073L316.941 95.705L313.034 91.7982L286.235 118.666V122.504Z" fill="#141414"/>
<rect x="492.184" y="40.6476" width="429.519" height="125.331" rx="62.6653" fill="#00C14F"/>
<path d="M637.791 88.2619V109.971C637.791 112.343 637.309 114.454 636.345 116.305C635.397 118.156 633.959 119.617 632.031 120.688C630.103 121.744 627.686 122.272 624.779 122.272C620.633 122.272 617.474 121.147 615.301 118.898C613.144 116.649 612.066 113.643 612.066 109.88V88.2619H615.99V109.994C615.99 112.84 616.739 115.035 618.239 116.581C619.753 118.126 622.01 118.898 625.009 118.898C627.059 118.898 628.734 118.531 630.034 117.797C631.35 117.047 632.322 116.007 632.949 114.676C633.591 113.33 633.913 111.777 633.913 110.017V88.2619H637.791ZM646.695 121.813V88.2619H650.596V121.813H646.695ZM671.962 88.2619L659.478 121.813H655.714L668.221 88.2619H671.962ZM702.461 88.2619V109.971C702.461 112.343 701.979 114.454 701.015 116.305C700.066 118.156 698.628 119.617 696.7 120.688C694.773 121.744 692.356 122.272 689.449 122.272C685.303 122.272 682.143 121.147 679.971 118.898C677.814 116.649 676.735 113.643 676.735 109.88V88.2619H680.659V109.994C680.659 112.84 681.409 115.035 682.908 116.581C684.423 118.126 686.68 118.898 689.678 118.898C691.728 118.898 693.404 118.531 694.704 117.797C696.02 117.047 696.991 116.007 697.618 114.676C698.261 113.33 698.582 111.777 698.582 110.017V88.2619H702.461ZM711.365 121.813V88.2619H715.266V121.813H711.365Z" fill="#141414"/>
<path d="M804.812 130.729H767.115C766.661 130.729 766.225 130.548 765.904 130.227C765.582 129.906 765.402 129.47 765.402 129.015V99.8859C765.402 99.4314 765.582 98.9956 765.904 98.6743C766.225 98.3529 766.661 98.1724 767.115 98.1724H804.812C805.267 98.1724 805.703 98.3529 806.024 98.6743C806.345 98.9956 806.526 99.4314 806.526 99.8859V129.015C806.526 129.47 806.345 129.906 806.024 130.227C805.703 130.548 805.267 130.729 804.812 130.729ZM768.829 127.302H803.099V101.599H768.829V127.302Z" fill="#141414"/>
<path d="M767.115 117.021H758.548C756.73 117.021 754.987 116.299 753.701 115.013C752.416 113.728 751.694 111.985 751.694 110.167V82.7509C751.694 80.9331 752.416 79.1897 753.701 77.9043C754.987 76.619 756.73 75.8969 758.548 75.8969H775.683C777.501 75.8969 779.244 76.619 780.529 77.9043C781.815 79.1897 782.537 80.9331 782.537 82.7509V93.0319C782.537 93.4864 782.356 93.9222 782.035 94.2435C781.714 94.5649 781.278 94.7454 780.823 94.7454C780.369 94.7454 779.933 94.5649 779.612 94.2435C779.29 93.9222 779.11 93.4864 779.11 93.0319V82.7509C779.11 81.842 778.749 80.9703 778.106 80.3276C777.463 79.6849 776.592 79.3239 775.683 79.3239H758.548C757.639 79.3239 756.767 79.6849 756.125 80.3276C755.482 80.9703 755.121 81.842 755.121 82.7509V110.167C755.121 111.076 755.482 111.948 756.125 112.59C756.767 113.233 757.639 113.594 758.548 113.594H767.115C767.57 113.594 768.006 113.774 768.327 114.096C768.648 114.417 768.829 114.853 768.829 115.307C768.829 115.762 768.648 116.198 768.327 116.519C768.006 116.84 767.57 117.021 767.115 117.021Z" fill="#141414"/>
<path d="M763.688 94.7454C762.325 94.7454 761.018 94.2038 760.053 93.2398C759.089 92.2757 758.548 90.9682 758.548 89.6049V84.4644C758.548 84.0099 758.728 83.5741 759.05 83.2527C759.371 82.9314 759.807 82.7509 760.261 82.7509C760.716 82.7509 761.152 82.9314 761.473 83.2527C761.794 83.5741 761.975 84.0099 761.975 84.4644V89.6049C761.975 90.0593 762.155 90.4952 762.477 90.8165C762.798 91.1379 763.234 91.3184 763.688 91.3184C764.143 91.3184 764.579 91.1379 764.9 90.8165C765.221 90.4952 765.402 90.0593 765.402 89.6049V84.4644C765.402 84.0099 765.582 83.5741 765.904 83.2527C766.225 82.9314 766.661 82.7509 767.115 82.7509C767.57 82.7509 768.006 82.9314 768.327 83.2527C768.648 83.5741 768.829 84.0099 768.829 84.4644V89.6049C768.829 90.9682 768.287 92.2757 767.323 93.2398C766.359 94.2038 765.052 94.7454 763.688 94.7454Z" fill="#141414"/>
<path d="M777.396 117.021C776.033 117.021 774.726 116.479 773.761 115.515C772.797 114.551 772.256 113.244 772.256 111.88V106.74C772.256 106.285 772.436 105.85 772.758 105.528C773.079 105.207 773.515 105.026 773.969 105.026C774.424 105.026 774.86 105.207 775.181 105.528C775.502 105.85 775.683 106.285 775.683 106.74V111.88C775.683 112.335 775.863 112.771 776.185 113.092C776.506 113.413 776.942 113.594 777.396 113.594C777.851 113.594 778.287 113.413 778.608 113.092C778.929 112.771 779.11 112.335 779.11 111.88V106.74C779.11 106.285 779.29 105.85 779.612 105.528C779.933 105.207 780.369 105.026 780.823 105.026C781.278 105.026 781.714 105.207 782.035 105.528C782.356 105.85 782.537 106.285 782.537 106.74V111.88C782.537 113.244 781.995 114.551 781.031 115.515C780.067 116.479 778.76 117.021 777.396 117.021Z" fill="#141414"/>
<path d="M773.969 94.7454C773.515 94.7454 773.079 94.5649 772.758 94.2435C772.436 93.9222 772.256 93.4863 772.256 93.0319V84.4644C772.256 84.0099 772.436 83.5741 772.758 83.2527C773.079 82.9314 773.515 82.7509 773.969 82.7509C774.424 82.7509 774.86 82.9314 775.181 83.2527C775.502 83.5741 775.683 84.0099 775.683 84.4644V93.0319C775.683 93.4863 775.502 93.9222 775.181 94.2435C774.86 94.5649 774.424 94.7454 773.969 94.7454Z" fill="#141414"/>
<path d="M792.817 117.021C792.56 117.02 792.306 116.961 792.075 116.848C791.843 116.735 791.64 116.572 791.481 116.37L784.627 107.802C784.389 107.445 784.294 107.011 784.361 106.587C784.428 106.163 784.652 105.779 784.988 105.512C785.324 105.245 785.748 105.114 786.176 105.145C786.604 105.175 787.005 105.365 787.3 105.678L794.154 114.245C794.353 114.497 794.477 114.8 794.513 115.119C794.548 115.439 794.493 115.761 794.353 116.051C794.214 116.34 793.996 116.585 793.725 116.756C793.453 116.928 793.139 117.019 792.817 117.021Z" fill="#141414"/>
<path d="M785.963 117.021C785.642 117.02 785.328 116.928 785.056 116.756C784.785 116.585 784.567 116.34 784.427 116.051C784.288 115.761 784.233 115.439 784.268 115.119C784.303 114.8 784.428 114.497 784.627 114.245L791.481 105.678C791.612 105.48 791.783 105.312 791.983 105.184C792.183 105.056 792.407 104.97 792.641 104.934C792.876 104.897 793.115 104.909 793.345 104.969C793.574 105.03 793.788 105.137 793.974 105.285C794.16 105.432 794.313 105.617 794.424 105.827C794.534 106.037 794.6 106.267 794.617 106.504C794.634 106.741 794.602 106.978 794.522 107.202C794.442 107.425 794.317 107.63 794.154 107.802L787.3 116.37C787.14 116.572 786.937 116.735 786.706 116.848C786.475 116.961 786.221 117.02 785.963 117.021Z" fill="#141414"/>
<path d="M777.396 123.875H773.969C773.515 123.875 773.079 123.694 772.758 123.373C772.436 123.052 772.256 122.616 772.256 122.161C772.256 121.707 772.436 121.271 772.758 120.95C773.079 120.628 773.515 120.448 773.969 120.448H777.396C777.851 120.448 778.287 120.628 778.608 120.95C778.929 121.271 779.11 121.707 779.11 122.161C779.11 122.616 778.929 123.052 778.608 123.373C778.287 123.694 777.851 123.875 777.396 123.875Z" fill="#141414"/>
<path d="M797.958 123.875H784.25C783.796 123.875 783.36 123.694 783.038 123.373C782.717 123.052 782.537 122.616 782.537 122.161C782.537 121.707 782.717 121.271 783.038 120.95C783.36 120.628 783.796 120.448 784.25 120.448H797.958C798.413 120.448 798.848 120.628 799.17 120.95C799.491 121.271 799.672 121.707 799.672 122.161C799.672 122.616 799.491 123.052 799.17 123.373C798.848 123.694 798.413 123.875 797.958 123.875Z" fill="#141414"/>
<rect x="984.368" y="40.6476" width="429.519" height="125.331" rx="62.6653" fill="#FFDA01"/>
<path d="M1064.55 121.813L1053.28 92.1173H1053.1C1053.16 92.7445 1053.21 93.5095 1053.26 94.4121C1053.3 95.3148 1053.34 96.3016 1053.37 97.3725C1053.4 98.4282 1053.42 99.5068 1053.42 100.608V121.813H1049.79V88.2619H1055.58L1066.2 116.168H1066.36L1077.15 88.2619H1082.88V121.813H1079.03V100.333C1079.03 99.3385 1079.04 98.344 1079.07 97.3496C1079.11 96.3398 1079.14 95.3913 1079.19 94.5039C1079.24 93.6013 1079.28 92.821 1079.33 92.1632H1079.14L1067.74 121.813H1064.55ZM1100.9 96.248C1103.9 96.248 1106.12 96.9212 1107.58 98.2675C1109.03 99.6139 1109.76 101.763 1109.76 104.716V121.813H1106.98L1106.25 118.095H1106.06C1105.36 119.013 1104.62 119.786 1103.86 120.413C1103.09 121.025 1102.21 121.492 1101.2 121.813C1100.2 122.119 1098.98 122.272 1097.53 122.272C1096 122.272 1094.63 122.004 1093.44 121.469C1092.26 120.933 1091.33 120.122 1090.64 119.036C1089.97 117.95 1089.63 116.573 1089.63 114.905C1089.63 112.396 1090.63 110.469 1092.61 109.122C1094.6 107.776 1097.63 107.042 1101.7 106.919L1106.04 106.736V105.198C1106.04 103.026 1105.57 101.503 1104.64 100.631C1103.71 99.7592 1102.39 99.3232 1100.69 99.3232C1099.38 99.3232 1098.12 99.5144 1096.93 99.8969C1095.74 100.279 1094.6 100.731 1093.53 101.251L1092.36 98.3593C1093.49 97.778 1094.79 97.2807 1096.26 96.8677C1097.73 96.4546 1099.28 96.248 1100.9 96.248ZM1105.99 109.421L1102.16 109.581C1099.02 109.704 1096.81 110.216 1095.53 111.119C1094.24 112.021 1093.6 113.299 1093.6 114.951C1093.6 116.389 1094.04 117.453 1094.91 118.141C1095.78 118.83 1096.94 119.174 1098.37 119.174C1100.61 119.174 1102.44 118.554 1103.86 117.315C1105.28 116.076 1105.99 114.217 1105.99 111.738V109.421ZM1129.03 96.2021C1129.54 96.2021 1130.07 96.2327 1130.62 96.2939C1131.17 96.3398 1131.66 96.4087 1132.09 96.5005L1131.6 100.035C1131.19 99.9275 1130.73 99.8433 1130.23 99.7821C1129.72 99.7209 1129.25 99.6903 1128.8 99.6903C1127.8 99.6903 1126.84 99.8969 1125.94 100.31C1125.05 100.708 1124.27 101.289 1123.6 102.054C1122.92 102.804 1122.39 103.714 1122.01 104.785C1121.63 105.841 1121.44 107.019 1121.44 108.319V121.813H1117.61V96.6611H1120.77L1121.19 101.297H1121.35C1121.87 100.364 1122.49 99.5144 1123.23 98.7495C1123.96 97.9692 1124.81 97.3496 1125.78 96.8906C1126.75 96.4316 1127.84 96.2021 1129.03 96.2021ZM1140.62 86.1047V104.647C1140.62 105.259 1140.6 106.009 1140.55 106.896C1140.51 107.768 1140.47 108.541 1140.44 109.214H1140.6C1140.92 108.816 1141.39 108.227 1142 107.447C1142.63 106.667 1143.16 106.039 1143.58 105.565L1151.94 96.6611H1156.41L1146.29 107.401L1157.15 121.813H1152.56L1143.68 109.903L1140.62 112.702V121.813H1136.84V86.1047H1140.62ZM1171.21 96.2021C1173.36 96.2021 1175.19 96.6764 1176.72 97.625C1178.25 98.5735 1179.42 99.9045 1180.23 101.618C1181.04 103.316 1181.45 105.305 1181.45 107.585V109.948H1164.08C1164.12 112.901 1164.86 115.15 1166.28 116.695C1167.7 118.241 1169.71 119.013 1172.29 119.013C1173.88 119.013 1175.29 118.868 1176.52 118.577C1177.74 118.286 1179.01 117.858 1180.32 117.292V120.643C1179.05 121.209 1177.79 121.622 1176.54 121.882C1175.3 122.142 1173.83 122.272 1172.13 122.272C1169.71 122.272 1167.6 121.782 1165.8 120.803C1164.01 119.809 1162.62 118.355 1161.62 116.443C1160.63 114.531 1160.13 112.19 1160.13 109.421C1160.13 106.713 1160.58 104.372 1161.48 102.398C1162.4 100.409 1163.69 98.8795 1165.34 97.8086C1167.01 96.7376 1168.97 96.2021 1171.21 96.2021ZM1171.17 99.3232C1169.13 99.3232 1167.51 99.9887 1166.3 101.32C1165.09 102.651 1164.38 104.51 1164.15 106.896H1177.46C1177.44 105.397 1177.2 104.081 1176.74 102.949C1176.3 101.802 1175.62 100.914 1174.7 100.287C1173.78 99.6445 1172.61 99.3232 1171.17 99.3232ZM1196.04 119.151C1196.67 119.151 1197.31 119.097 1197.97 118.99C1198.63 118.883 1199.17 118.753 1199.58 118.6V121.56C1199.13 121.759 1198.52 121.928 1197.72 122.065C1196.94 122.203 1196.17 122.272 1195.42 122.272C1194.09 122.272 1192.89 122.042 1191.8 121.583C1190.71 121.109 1189.84 120.314 1189.18 119.197C1188.54 118.08 1188.22 116.535 1188.22 114.561V99.6445H1184.64V97.7856L1188.24 96.2939L1189.76 90.8321H1192.05V96.6611H1199.42V99.6445H1192.05V114.446C1192.05 116.022 1192.41 117.2 1193.13 117.98C1193.86 118.761 1194.84 119.151 1196.04 119.151ZM1208.48 96.6611V121.813H1204.67V96.6611H1208.48ZM1206.62 87.2521C1207.25 87.2521 1207.79 87.4587 1208.23 87.8718C1208.69 88.2695 1208.92 88.8968 1208.92 89.7535C1208.92 90.595 1208.69 91.2223 1208.23 91.6353C1207.79 92.0484 1207.25 92.255 1206.62 92.255C1205.97 92.255 1205.42 92.0484 1204.97 91.6353C1204.54 91.2223 1204.33 90.595 1204.33 89.7535C1204.33 88.8968 1204.54 88.2695 1204.97 87.8718C1205.42 87.4587 1205.97 87.2521 1206.62 87.2521ZM1228.47 96.2021C1231.45 96.2021 1233.71 96.9365 1235.24 98.4052C1236.77 99.8586 1237.54 102.199 1237.54 105.428V121.813H1233.77V105.68C1233.77 103.584 1233.29 102.016 1232.33 100.975C1231.38 99.9351 1229.92 99.415 1227.94 99.415C1225.16 99.415 1223.2 100.203 1222.07 101.779C1220.94 103.354 1220.37 105.642 1220.37 108.64V121.813H1216.56V96.6611H1219.64L1220.21 100.287H1220.42C1220.95 99.3997 1221.63 98.6577 1222.46 98.061C1223.28 97.449 1224.21 96.99 1225.24 96.6841C1226.26 96.3628 1227.34 96.2021 1228.47 96.2021ZM1252.41 133.104C1249.1 133.104 1246.55 132.484 1244.76 131.245C1242.97 130.021 1242.08 128.3 1242.08 126.081C1242.08 124.506 1242.58 123.159 1243.57 122.042C1244.58 120.926 1245.97 120.184 1247.75 119.816C1247.09 119.51 1246.52 119.051 1246.05 118.439C1245.59 117.827 1245.36 117.124 1245.36 116.328C1245.36 115.41 1245.61 114.607 1246.12 113.919C1246.64 113.215 1247.43 112.542 1248.48 111.899C1247.17 111.364 1246.1 110.461 1245.27 109.191C1244.46 107.906 1244.05 106.414 1244.05 104.716C1244.05 102.911 1244.43 101.373 1245.18 100.103C1245.93 98.8183 1247.01 97.8392 1248.44 97.166C1249.86 96.4928 1251.58 96.1562 1253.6 96.1562C1254.04 96.1562 1254.49 96.1792 1254.93 96.2251C1255.39 96.2557 1255.83 96.3092 1256.24 96.3857C1256.65 96.4469 1257.01 96.5234 1257.32 96.6152H1265.95V99.0707L1261.31 99.6445C1261.77 100.241 1262.15 100.96 1262.46 101.802C1262.76 102.643 1262.92 103.576 1262.92 104.601C1262.92 107.11 1262.07 109.107 1260.37 110.591C1258.67 112.06 1256.34 112.794 1253.37 112.794C1252.67 112.794 1251.95 112.733 1251.21 112.61C1250.46 113.024 1249.89 113.483 1249.49 113.987C1249.11 114.492 1248.92 115.074 1248.92 115.732C1248.92 116.221 1249.06 116.611 1249.35 116.902C1249.66 117.193 1250.1 117.407 1250.66 117.544C1251.23 117.667 1251.91 117.728 1252.7 117.728H1257.13C1259.87 117.728 1261.97 118.302 1263.42 119.449C1264.89 120.597 1265.63 122.272 1265.63 124.475C1265.63 127.259 1264.49 129.394 1262.23 130.878C1259.96 132.362 1256.69 133.104 1252.41 133.104ZM1252.52 130.12C1254.6 130.12 1256.32 129.906 1257.68 129.478C1259.06 129.065 1260.09 128.46 1260.76 127.665C1261.45 126.885 1261.79 125.951 1261.79 124.865C1261.79 123.855 1261.56 123.09 1261.1 122.57C1260.65 122.065 1259.97 121.729 1259.08 121.56C1258.2 121.377 1257.11 121.285 1255.83 121.285H1251.47C1250.33 121.285 1249.35 121.461 1248.51 121.813C1247.66 122.165 1247.01 122.685 1246.55 123.373C1246.11 124.062 1245.89 124.919 1245.89 125.944C1245.89 127.305 1246.46 128.338 1247.61 129.042C1248.76 129.761 1250.39 130.12 1252.52 130.12ZM1253.51 110.017C1255.33 110.017 1256.7 109.558 1257.62 108.64C1258.53 107.722 1258.99 106.384 1258.99 104.624C1258.99 102.743 1258.53 101.335 1257.59 100.402C1256.66 99.4532 1255.28 98.9789 1253.46 98.9789C1251.72 98.9789 1250.37 99.4685 1249.42 100.448C1248.49 101.412 1248.02 102.827 1248.02 104.693C1248.02 106.407 1248.5 107.722 1249.45 108.64C1250.39 109.558 1251.75 110.017 1253.51 110.017Z" fill="#141414"/>
<path d="M1323.13 114.7C1323.71 116.647 1322.17 118.583 1320.23 117.983C1317.69 117.198 1315.44 115.785 1313.49 113.744C1310.55 110.668 1309.08 106.968 1309.08 102.644C1309.08 98.1864 1310.64 94.3971 1313.76 91.2766C1316.88 88.1561 1320.67 86.5958 1325.13 86.5958C1329.45 86.5958 1333.15 88.0669 1336.23 91.0091C1338.27 92.9609 1339.68 95.207 1340.46 97.7474C1341.06 99.6886 1339.13 101.233 1337.18 100.653C1336.18 100.354 1335.44 99.5295 1335.04 98.5572C1334.36 96.8666 1333.28 95.4316 1331.81 94.2523C1329.9 92.7143 1327.67 91.9453 1325.13 91.9453C1322.18 91.9453 1319.66 92.9929 1317.57 95.0881C1315.47 97.1833 1314.43 99.702 1314.43 102.644C1314.43 105.185 1315.2 107.414 1316.73 109.331C1317.91 110.801 1319.35 111.878 1321.04 112.561C1322.01 112.954 1322.84 113.694 1323.13 114.7ZM1327.18 128.098C1327.37 128.723 1326.98 129.392 1326.33 129.392H1325.13C1321.43 129.392 1317.95 128.69 1314.69 127.285C1311.44 125.881 1308.61 123.975 1306.2 121.568C1303.79 119.161 1301.89 116.33 1300.48 113.076C1299.08 109.821 1298.38 106.344 1298.38 102.644C1298.38 98.9442 1299.08 95.467 1300.48 92.2128C1301.89 88.9585 1303.79 86.1277 1306.2 83.7205C1308.61 81.3132 1311.44 79.4074 1314.69 78.0032C1317.95 76.599 1321.43 75.8969 1325.13 75.8969C1328.83 75.8969 1332.3 76.599 1335.56 78.0032C1338.81 79.4074 1341.64 81.3132 1344.05 83.7205C1346.46 86.1277 1348.36 88.9585 1349.77 92.2128C1351.17 95.467 1351.87 98.9442 1351.87 102.644V103.848C1351.87 104.502 1351.2 104.887 1350.58 104.695L1347.29 103.683C1346.83 103.542 1346.52 103.121 1346.52 102.644C1346.52 96.6707 1344.45 91.6109 1340.3 87.4651C1336.16 83.3193 1331.1 81.2463 1325.13 81.2463C1319.15 81.2463 1314.09 83.3193 1309.95 87.4651C1305.8 91.6109 1303.73 96.6707 1303.73 102.644C1303.73 108.618 1305.8 113.678 1309.95 117.823C1314.09 121.969 1319.15 124.042 1325.13 124.042C1325.6 124.042 1326.02 124.353 1326.16 124.809L1327.18 128.098ZM1350.57 128.088C1349.11 129.546 1346.74 129.546 1345.29 128.088L1336.49 119.295C1335.46 122.408 1331.04 122.346 1330.09 119.204L1327.22 109.611C1326.32 106.624 1329.1 103.838 1332.09 104.734L1341.69 107.612C1344.83 108.555 1344.89 112.981 1341.78 114.012L1350.57 122.805C1352.03 124.264 1352.03 126.629 1350.57 128.088Z" fill="#141414"/>
<rect y="213.978" width="675.611" height="125.331" rx="62.6653" fill="#2B5FFC"/>
<path d="M202.538 295.144H198.637V261.593H217.317V265.035H202.538V277.335H216.422V280.755H202.538V295.144ZM233.771 269.533C234.276 269.533 234.804 269.563 235.355 269.625C235.906 269.671 236.395 269.739 236.823 269.831L236.342 273.365C235.928 273.258 235.47 273.174 234.965 273.113C234.46 273.052 233.986 273.021 233.542 273.021C232.532 273.021 231.576 273.228 230.673 273.641C229.786 274.038 229.006 274.62 228.332 275.385C227.659 276.134 227.131 277.045 226.749 278.116C226.367 279.171 226.175 280.349 226.175 281.65V295.144H222.343V269.992H225.51L225.923 274.627H226.083C226.604 273.694 227.231 272.845 227.965 272.08C228.7 271.3 229.549 270.68 230.513 270.221C231.492 269.762 232.578 269.533 233.771 269.533ZM263.26 282.522C263.26 284.587 262.993 286.431 262.457 288.052C261.922 289.674 261.149 291.043 260.139 292.16C259.13 293.277 257.906 294.134 256.468 294.731C255.045 295.312 253.431 295.603 251.625 295.603C249.943 295.603 248.397 295.312 246.99 294.731C245.598 294.134 244.389 293.277 243.364 292.16C242.354 291.043 241.566 289.674 241 288.052C240.449 286.431 240.174 284.587 240.174 282.522C240.174 279.768 240.641 277.427 241.574 275.5C242.507 273.557 243.838 272.08 245.567 271.07C247.311 270.045 249.384 269.533 251.786 269.533C254.081 269.533 256.085 270.045 257.799 271.07C259.527 272.095 260.866 273.579 261.815 275.522C262.779 277.45 263.26 279.783 263.26 282.522ZM244.121 282.522C244.121 284.541 244.389 286.293 244.924 287.777C245.46 289.261 246.286 290.409 247.403 291.219C248.52 292.03 249.958 292.436 251.717 292.436C253.461 292.436 254.892 292.03 256.009 291.219C257.141 290.409 257.975 289.261 258.51 287.777C259.046 286.293 259.313 284.541 259.313 282.522C259.313 280.518 259.046 278.789 258.51 277.335C257.975 275.867 257.148 274.735 256.032 273.939C254.915 273.143 253.469 272.746 251.694 272.746C249.078 272.746 247.158 273.61 245.934 275.339C244.726 277.068 244.121 279.462 244.121 282.522ZM281.757 269.533C284.74 269.533 286.997 270.267 288.527 271.736C290.057 273.189 290.822 275.53 290.822 278.758V295.144H287.058V279.011C287.058 276.915 286.576 275.347 285.612 274.306C284.664 273.266 283.203 272.746 281.229 272.746C278.445 272.746 276.487 273.534 275.354 275.109C274.222 276.685 273.656 278.972 273.656 281.971V295.144H269.847V269.992H272.922L273.496 273.618H273.702C274.238 272.73 274.918 271.988 275.745 271.392C276.571 270.78 277.496 270.321 278.521 270.015C279.546 269.693 280.625 269.533 281.757 269.533ZM306.794 292.482C307.421 292.482 308.064 292.428 308.722 292.321C309.38 292.214 309.915 292.084 310.328 291.931V294.891C309.885 295.09 309.265 295.258 308.469 295.396C307.689 295.534 306.924 295.603 306.175 295.603C304.844 295.603 303.635 295.373 302.549 294.914C301.462 294.44 300.59 293.644 299.933 292.527C299.29 291.411 298.969 289.865 298.969 287.892V272.975H295.389V271.116L298.992 269.625L300.506 264.163H302.801V269.992H310.168V272.975H302.801V287.777C302.801 289.353 303.161 290.531 303.88 291.311C304.614 292.091 305.586 292.482 306.794 292.482ZM325.107 269.533C327.249 269.533 329.085 270.007 330.615 270.956C332.145 271.904 333.315 273.235 334.126 274.949C334.937 276.647 335.342 278.636 335.342 280.915V283.279H317.97C318.016 286.232 318.75 288.481 320.173 290.026C321.596 291.571 323.6 292.344 326.186 292.344C327.777 292.344 329.184 292.199 330.408 291.908C331.632 291.617 332.902 291.189 334.218 290.623V293.973C332.948 294.539 331.686 294.952 330.431 295.212C329.192 295.473 327.723 295.603 326.025 295.603C323.608 295.603 321.497 295.113 319.691 294.134C317.901 293.139 316.509 291.686 315.515 289.774C314.52 287.861 314.023 285.52 314.023 282.751C314.023 280.043 314.474 277.703 315.377 275.729C316.295 273.74 317.58 272.21 319.232 271.139C320.9 270.068 322.858 269.533 325.107 269.533ZM325.061 272.654C323.027 272.654 321.405 273.319 320.196 274.65C318.988 275.981 318.269 277.84 318.039 280.227H331.349C331.334 278.728 331.097 277.412 330.638 276.28C330.194 275.132 329.513 274.245 328.595 273.618C327.678 272.975 326.499 272.654 325.061 272.654ZM353.724 269.533C356.708 269.533 358.964 270.267 360.494 271.736C362.024 273.189 362.789 275.53 362.789 278.758V295.144H359.025V279.011C359.025 276.915 358.544 275.347 357.58 274.306C356.631 273.266 355.17 272.746 353.197 272.746C350.412 272.746 348.454 273.534 347.322 275.109C346.189 276.685 345.623 278.972 345.623 281.971V295.144H341.814V269.992H344.889L345.463 273.618H345.669C346.205 272.73 346.886 271.988 347.712 271.392C348.538 270.78 349.464 270.321 350.489 270.015C351.514 269.693 352.592 269.533 353.724 269.533ZM379.588 295.603C376.405 295.603 373.881 294.516 372.014 292.344C370.163 290.171 369.238 286.943 369.238 282.66C369.238 278.33 370.186 275.063 372.083 272.86C373.98 270.642 376.505 269.533 379.656 269.533C380.987 269.533 382.15 269.709 383.145 270.061C384.139 270.413 384.996 270.887 385.715 271.483C386.434 272.065 387.038 272.73 387.528 273.48H387.803C387.742 273.006 387.681 272.356 387.62 271.529C387.558 270.703 387.528 270.03 387.528 269.51V259.435H391.337V295.144H388.262L387.688 291.564H387.528C387.054 292.313 386.449 292.994 385.715 293.606C384.996 294.218 384.131 294.708 383.122 295.075C382.127 295.427 380.949 295.603 379.588 295.603ZM380.184 292.436C382.877 292.436 384.782 291.671 385.898 290.141C387.015 288.611 387.574 286.339 387.574 283.325V282.637C387.574 279.439 387.038 276.984 385.967 275.27C384.912 273.557 382.984 272.7 380.184 272.7C377.843 272.7 376.092 273.602 374.929 275.408C373.766 277.198 373.185 279.646 373.185 282.751C373.185 285.842 373.759 288.228 374.906 289.911C376.069 291.594 377.828 292.436 380.184 292.436Z" fill="white"/>
<path d="M444.99 285.44C446.186 286.635 448.127 286.627 449.312 285.42C450.482 284.229 450.474 282.317 449.293 281.137L444.8 276.644L449.293 272.151C450.474 270.97 450.482 269.058 449.312 267.867C448.127 266.661 446.186 266.652 444.99 267.848L438.964 273.874C437.434 275.404 437.434 277.884 438.964 279.413L444.99 285.44ZM459.631 285.42C460.816 286.627 462.758 286.635 463.953 285.44L469.98 279.413C471.509 277.884 471.509 275.404 469.98 273.874L463.953 267.848C462.758 266.652 460.816 266.661 459.631 267.867C458.461 269.058 458.47 270.97 459.65 272.151L464.144 276.644L459.65 281.137C458.47 282.317 458.461 284.229 459.631 285.42ZM433.148 304.06C431.473 304.06 430.038 303.463 428.845 302.27C427.652 301.077 427.056 299.643 427.056 297.967V255.32C427.056 253.645 427.652 252.21 428.845 251.017C430.038 249.824 431.473 249.228 433.148 249.228H475.795C477.471 249.228 478.905 249.824 480.098 251.017C481.291 252.21 481.888 253.645 481.888 255.32V297.967C481.888 299.643 481.291 301.077 480.098 302.27C478.905 303.463 477.471 304.06 475.795 304.06H433.148ZM433.148 297.967H475.795V255.32H433.148V297.967Z" fill="white"/>
<rect x="740.389" y="213.978" width="675.611" height="125.331" rx="62.6653" fill="#9A41FF"/>
<path d="M945.842 261.593H955.343C959.534 261.593 962.686 262.22 964.797 263.474C966.909 264.729 967.964 266.863 967.964 269.877C967.964 271.177 967.712 272.348 967.207 273.388C966.717 274.413 965.998 275.262 965.05 275.936C964.101 276.609 962.931 277.075 961.539 277.335V277.565C963.007 277.794 964.308 278.215 965.44 278.827C966.572 279.439 967.459 280.296 968.102 281.397C968.745 282.499 969.066 283.899 969.066 285.597C969.066 287.662 968.584 289.406 967.62 290.829C966.672 292.252 965.325 293.331 963.581 294.065C961.837 294.784 959.772 295.144 957.385 295.144H945.842V261.593ZM949.743 275.981H956.169C959.091 275.981 961.11 275.5 962.227 274.536C963.359 273.572 963.925 272.164 963.925 270.313C963.925 268.401 963.252 267.024 961.906 266.182C960.575 265.341 958.448 264.92 955.526 264.92H949.743V275.981ZM949.743 279.263V291.816H956.719C959.703 291.816 961.814 291.235 963.053 290.072C964.293 288.894 964.912 287.31 964.912 285.322C964.912 284.052 964.629 282.965 964.063 282.063C963.512 281.16 962.61 280.472 961.355 279.997C960.116 279.508 958.456 279.263 956.375 279.263H949.743ZM985.061 269.579C988.06 269.579 990.286 270.252 991.739 271.598C993.193 272.945 993.919 275.094 993.919 278.047V295.144H991.143L990.408 291.426H990.225C989.521 292.344 988.786 293.116 988.022 293.744C987.257 294.356 986.369 294.822 985.359 295.144C984.365 295.45 983.141 295.603 981.688 295.603C980.158 295.603 978.796 295.335 977.603 294.799C976.425 294.264 975.491 293.453 974.803 292.367C974.13 291.281 973.793 289.904 973.793 288.236C973.793 285.727 974.788 283.799 976.777 282.453C978.766 281.107 981.795 280.372 985.864 280.25L990.202 280.066V278.529C990.202 276.356 989.735 274.834 988.802 273.962C987.869 273.09 986.553 272.654 984.855 272.654C983.539 272.654 982.284 272.845 981.091 273.228C979.898 273.61 978.766 274.061 977.695 274.582L976.524 271.69C977.656 271.109 978.957 270.611 980.425 270.198C981.894 269.785 983.439 269.579 985.061 269.579ZM990.156 282.751L986.323 282.912C983.187 283.034 980.976 283.547 979.691 284.45C978.406 285.352 977.763 286.63 977.763 288.282C977.763 289.72 978.199 290.783 979.071 291.472C979.944 292.16 981.099 292.505 982.537 292.505C984.77 292.505 986.599 291.885 988.022 290.646C989.444 289.406 990.156 287.548 990.156 285.069V282.751ZM1011.84 295.603C1009.58 295.603 1007.58 295.136 1005.85 294.203C1004.12 293.269 1002.78 291.847 1001.81 289.934C1000.85 288.022 1000.37 285.612 1000.37 282.705C1000.37 279.661 1000.87 277.175 1001.88 275.247C1002.91 273.304 1004.32 271.866 1006.11 270.933C1007.9 269.999 1009.93 269.533 1012.21 269.533C1013.46 269.533 1014.67 269.663 1015.84 269.923C1017.01 270.168 1017.98 270.481 1018.73 270.864L1017.58 274.054C1016.81 273.748 1015.93 273.472 1014.92 273.228C1013.92 272.983 1012.99 272.86 1012.12 272.86C1010.37 272.86 1008.92 273.235 1007.76 273.985C1006.61 274.735 1005.75 275.836 1005.16 277.29C1004.6 278.743 1004.32 280.533 1004.32 282.66C1004.32 284.694 1004.59 286.431 1005.14 287.869C1005.71 289.307 1006.54 290.409 1007.64 291.173C1008.76 291.923 1010.15 292.298 1011.82 292.298C1013.15 292.298 1014.35 292.16 1015.42 291.885C1016.49 291.594 1017.46 291.258 1018.34 290.875V294.272C1017.5 294.7 1016.55 295.029 1015.51 295.258C1014.49 295.488 1013.27 295.603 1011.84 295.603ZM1028.09 259.435V277.978C1028.09 278.59 1028.07 279.34 1028.02 280.227C1027.98 281.099 1027.94 281.872 1027.91 282.545H1028.07C1028.39 282.147 1028.85 281.558 1029.47 280.778C1030.09 279.997 1030.62 279.37 1031.05 278.896L1039.4 269.992H1043.88L1033.76 280.732L1044.61 295.144H1040.02L1031.14 283.233L1028.09 286.033V295.144H1024.3V259.435H1028.09ZM1058.68 269.533C1060.82 269.533 1062.66 270.007 1064.19 270.956C1065.72 271.904 1066.89 273.235 1067.7 274.949C1068.51 276.647 1068.92 278.636 1068.92 280.915V283.279H1051.54C1051.59 286.232 1052.32 288.481 1053.75 290.026C1055.17 291.571 1057.17 292.344 1059.76 292.344C1061.35 292.344 1062.76 292.199 1063.98 291.908C1065.21 291.617 1066.48 291.189 1067.79 290.623V293.973C1066.52 294.539 1065.26 294.952 1064 295.212C1062.77 295.473 1061.3 295.603 1059.6 295.603C1057.18 295.603 1055.07 295.113 1053.26 294.134C1051.47 293.139 1050.08 291.686 1049.09 289.774C1048.09 287.861 1047.6 285.52 1047.6 282.751C1047.6 280.043 1048.05 277.703 1048.95 275.729C1049.87 273.74 1051.15 272.21 1052.81 271.139C1054.47 270.068 1056.43 269.533 1058.68 269.533ZM1058.63 272.654C1056.6 272.654 1054.98 273.319 1053.77 274.65C1052.56 275.981 1051.84 277.84 1051.61 280.227H1064.92C1064.91 278.728 1064.67 277.412 1064.21 276.28C1063.77 275.132 1063.09 274.245 1062.17 273.618C1061.25 272.975 1060.07 272.654 1058.63 272.654ZM1087.3 269.533C1090.28 269.533 1092.54 270.267 1094.07 271.736C1095.6 273.189 1096.36 275.53 1096.36 278.758V295.144H1092.6V279.011C1092.6 276.915 1092.12 275.347 1091.15 274.306C1090.2 273.266 1088.74 272.746 1086.77 272.746C1083.99 272.746 1082.03 273.534 1080.9 275.109C1079.76 276.685 1079.2 278.972 1079.2 281.971V295.144H1075.39V269.992H1078.46L1079.04 273.618H1079.24C1079.78 272.73 1080.46 271.988 1081.29 271.392C1082.11 270.78 1083.04 270.321 1084.06 270.015C1085.09 269.693 1086.17 269.533 1087.3 269.533ZM1113.16 295.603C1109.98 295.603 1107.45 294.516 1105.59 292.344C1103.74 290.171 1102.81 286.943 1102.81 282.66C1102.81 278.33 1103.76 275.063 1105.66 272.86C1107.55 270.642 1110.08 269.533 1113.23 269.533C1114.56 269.533 1115.72 269.709 1116.72 270.061C1117.71 270.413 1118.57 270.887 1119.29 271.483C1120.01 272.065 1120.61 272.73 1121.1 273.48H1121.38C1121.32 273.006 1121.25 272.356 1121.19 271.529C1121.13 270.703 1121.1 270.03 1121.1 269.51V259.435H1124.91V295.144H1121.84L1121.26 291.564H1121.1C1120.63 292.313 1120.02 292.994 1119.29 293.606C1118.57 294.218 1117.7 294.708 1116.7 295.075C1115.7 295.427 1114.52 295.603 1113.16 295.603ZM1113.76 292.436C1116.45 292.436 1118.36 291.671 1119.47 290.141C1120.59 288.611 1121.15 286.339 1121.15 283.325V282.637C1121.15 279.439 1120.61 276.984 1119.54 275.27C1118.49 273.557 1116.56 272.7 1113.76 272.7C1111.42 272.7 1109.67 273.602 1108.5 275.408C1107.34 277.198 1106.76 279.646 1106.76 282.751C1106.76 285.842 1107.33 288.228 1108.48 289.911C1109.64 291.594 1111.4 292.436 1113.76 292.436Z" fill="white"/>
<path d="M1165.93 298.576C1164.42 298.576 1163.13 298.04 1162.06 296.966C1160.98 295.892 1160.44 294.601 1160.44 293.093V260.194C1160.44 258.686 1160.98 257.395 1162.06 256.321C1163.13 255.248 1164.42 254.711 1165.93 254.711H1209.79C1211.3 254.711 1212.59 255.248 1213.67 256.321C1214.74 257.395 1215.28 258.686 1215.28 260.194V293.093C1215.28 294.601 1214.74 295.892 1213.67 296.966C1212.59 298.04 1211.3 298.576 1209.79 298.576H1165.93ZM1165.93 293.093H1209.79V265.677H1165.93V293.093ZM1177.45 288.428C1176.38 289.49 1174.66 289.49 1173.6 288.428C1172.54 287.369 1172.54 285.654 1173.59 284.59L1178.75 279.385L1173.57 274.211C1172.49 273.134 1172.5 271.387 1173.59 270.321C1174.66 269.268 1176.38 269.275 1177.44 270.338L1183.72 276.616C1185.25 278.145 1185.25 280.625 1183.72 282.155L1177.45 288.428ZM1190.6 290.352C1189.09 290.352 1187.86 289.124 1187.86 287.61C1187.86 286.096 1189.09 284.868 1190.6 284.868H1201.57C1203.08 284.868 1204.31 286.096 1204.31 287.61C1204.31 289.124 1203.08 290.352 1201.57 290.352H1190.6Z" fill="white"/>
</svg>
