<svg width="440" height="440" viewBox="0 0 440 440" fill="none" xmlns="http://www.w3.org/2000/svg">
<rect width="440" height="440" rx="8" fill="#EAEFFF"/>
<rect x="212" y="198" width="16" height="16" rx="2" fill="#2B5FFC"/>
<rect x="214.073" y="201.5" width="11.8537" height="2.41463" rx="1.20732" fill="white"/>
<rect x="214.073" y="204.792" width="5.70732" height="2.41463" rx="1.20732" fill="white"/>
<rect x="220.22" y="204.792" width="5.70732" height="2.41463" rx="1.20732" fill="white"/>
<rect x="214.073" y="208.085" width="11.8537" height="2.41463" rx="1.20732" fill="white"/>
<path d="M187.617 238H186.352V229.906C186.352 229.599 186.352 229.336 186.352 229.117C186.357 228.893 186.362 228.69 186.367 228.508C186.378 228.32 186.391 228.13 186.406 227.938C186.245 228.104 186.094 228.247 185.953 228.367C185.812 228.482 185.638 228.625 185.43 228.797L184.125 229.844L183.445 228.961L186.539 226.578H187.617V238ZM192.062 233.117C192.062 232.43 192.109 231.758 192.203 231.102C192.302 230.445 192.466 229.836 192.695 229.273C192.924 228.706 193.237 228.208 193.633 227.781C194.029 227.354 194.521 227.021 195.109 226.781C195.703 226.536 196.414 226.414 197.242 226.414C197.477 226.414 197.729 226.427 198 226.453C198.271 226.474 198.495 226.51 198.672 226.562V227.68C198.479 227.612 198.258 227.562 198.008 227.531C197.763 227.5 197.516 227.484 197.266 227.484C196.297 227.484 195.534 227.695 194.977 228.117C194.424 228.539 194.026 229.112 193.781 229.836C193.536 230.555 193.396 231.365 193.359 232.266H193.445C193.607 232.005 193.812 231.771 194.062 231.562C194.312 231.349 194.615 231.18 194.969 231.055C195.328 230.93 195.745 230.867 196.219 230.867C196.885 230.867 197.466 231.003 197.961 231.273C198.461 231.544 198.846 231.938 199.117 232.453C199.393 232.969 199.531 233.594 199.531 234.328C199.531 235.115 199.385 235.794 199.094 236.367C198.802 236.94 198.385 237.383 197.844 237.695C197.307 238.003 196.667 238.156 195.922 238.156C195.365 238.156 194.852 238.049 194.383 237.836C193.914 237.622 193.505 237.305 193.156 236.883C192.812 236.461 192.544 235.938 192.352 235.312C192.159 234.682 192.062 233.951 192.062 233.117ZM195.906 237.062C196.615 237.062 197.182 236.836 197.609 236.383C198.036 235.93 198.25 235.245 198.25 234.328C198.25 233.578 198.06 232.984 197.68 232.547C197.299 232.109 196.727 231.891 195.961 231.891C195.44 231.891 194.987 232 194.602 232.219C194.216 232.432 193.917 232.703 193.703 233.031C193.49 233.359 193.383 233.693 193.383 234.031C193.383 234.375 193.432 234.724 193.531 235.078C193.635 235.432 193.792 235.76 194 236.062C194.208 236.365 194.471 236.607 194.789 236.789C195.107 236.971 195.479 237.062 195.906 237.062ZM207.875 233.617L204.914 229.438H206.398L208.656 232.734L210.906 229.438H212.375L209.414 233.617L212.539 238H211.055L208.656 234.508L206.242 238H204.773L207.875 233.617ZM222.617 238H221.352V229.906C221.352 229.599 221.352 229.336 221.352 229.117C221.357 228.893 221.362 228.69 221.367 228.508C221.378 228.32 221.391 228.13 221.406 227.938C221.245 228.104 221.094 228.247 220.953 228.367C220.812 228.482 220.638 228.625 220.43 228.797L219.125 229.844L218.445 228.961L221.539 226.578H222.617V238ZM227.062 233.117C227.062 232.43 227.109 231.758 227.203 231.102C227.302 230.445 227.466 229.836 227.695 229.273C227.924 228.706 228.237 228.208 228.633 227.781C229.029 227.354 229.521 227.021 230.109 226.781C230.703 226.536 231.414 226.414 232.242 226.414C232.477 226.414 232.729 226.427 233 226.453C233.271 226.474 233.495 226.51 233.672 226.562V227.68C233.479 227.612 233.258 227.562 233.008 227.531C232.763 227.5 232.516 227.484 232.266 227.484C231.297 227.484 230.534 227.695 229.977 228.117C229.424 228.539 229.026 229.112 228.781 229.836C228.536 230.555 228.396 231.365 228.359 232.266H228.445C228.607 232.005 228.812 231.771 229.062 231.562C229.312 231.349 229.615 231.18 229.969 231.055C230.328 230.93 230.745 230.867 231.219 230.867C231.885 230.867 232.466 231.003 232.961 231.273C233.461 231.544 233.846 231.938 234.117 232.453C234.393 232.969 234.531 233.594 234.531 234.328C234.531 235.115 234.385 235.794 234.094 236.367C233.802 236.94 233.385 237.383 232.844 237.695C232.307 238.003 231.667 238.156 230.922 238.156C230.365 238.156 229.852 238.049 229.383 237.836C228.914 237.622 228.505 237.305 228.156 236.883C227.812 236.461 227.544 235.938 227.352 235.312C227.159 234.682 227.062 233.951 227.062 233.117ZM230.906 237.062C231.615 237.062 232.182 236.836 232.609 236.383C233.036 235.93 233.25 235.245 233.25 234.328C233.25 233.578 233.06 232.984 232.68 232.547C232.299 232.109 231.727 231.891 230.961 231.891C230.44 231.891 229.987 232 229.602 232.219C229.216 232.432 228.917 232.703 228.703 233.031C228.49 233.359 228.383 233.693 228.383 234.031C228.383 234.375 228.432 234.724 228.531 235.078C228.635 235.432 228.792 235.76 229 236.062C229.208 236.365 229.471 236.607 229.789 236.789C230.107 236.971 230.479 237.062 230.906 237.062ZM244.859 229.281C245.927 229.281 246.779 229.648 247.414 230.383C248.049 231.117 248.367 232.221 248.367 233.695C248.367 234.669 248.221 235.487 247.93 236.148C247.638 236.81 247.227 237.31 246.695 237.648C246.169 237.987 245.547 238.156 244.828 238.156C244.375 238.156 243.977 238.096 243.633 237.977C243.289 237.857 242.995 237.695 242.75 237.492C242.505 237.289 242.302 237.068 242.141 236.828H242.047C242.062 237.031 242.081 237.276 242.102 237.562C242.128 237.849 242.141 238.099 242.141 238.312V241.828H240.836V229.438H241.906L242.078 230.703H242.141C242.307 230.443 242.51 230.206 242.75 229.992C242.99 229.773 243.281 229.602 243.625 229.477C243.974 229.346 244.385 229.281 244.859 229.281ZM244.633 230.375C244.039 230.375 243.56 230.49 243.195 230.719C242.836 230.948 242.573 231.292 242.406 231.75C242.24 232.203 242.151 232.773 242.141 233.461V233.711C242.141 234.435 242.219 235.047 242.375 235.547C242.536 236.047 242.799 236.427 243.164 236.688C243.534 236.948 244.029 237.078 244.648 237.078C245.18 237.078 245.622 236.935 245.977 236.648C246.331 236.362 246.594 235.964 246.766 235.453C246.943 234.938 247.031 234.346 247.031 233.68C247.031 232.669 246.833 231.867 246.438 231.273C246.047 230.674 245.445 230.375 244.633 230.375ZM252.672 233.617L249.711 229.438H251.195L253.453 232.734L255.703 229.438H257.172L254.211 233.617L257.336 238H255.852L253.453 234.508L251.039 238H249.57L252.672 233.617Z" fill="#141414"/>
</svg>
