<svg width="440" height="440" viewBox="0 0 440 440" fill="none" xmlns="http://www.w3.org/2000/svg">
<rect width="440" height="440" rx="8" fill="#EAEFFF"/>
<rect x="204" y="190" width="32" height="32" rx="2" fill="#2B5FFC"/>
<rect x="208.146" y="197" width="23.7073" height="4.82927" rx="2.41463" fill="white"/>
<rect x="208.146" y="203.585" width="11.4146" height="4.82927" rx="2.41463" fill="white"/>
<rect x="220.439" y="203.585" width="11.4146" height="4.82927" rx="2.41463" fill="white"/>
<rect x="208.146" y="210.171" width="23.7073" height="4.82927" rx="2.41463" fill="white"/>
<path d="M189.852 237.242C189.852 237.753 189.753 238.195 189.555 238.57C189.357 238.945 189.081 239.253 188.727 239.492C188.372 239.727 187.956 239.891 187.477 239.984V240.047C188.383 240.161 189.062 240.453 189.516 240.922C189.974 241.391 190.203 242.005 190.203 242.766C190.203 243.427 190.047 244.013 189.734 244.523C189.427 245.034 188.953 245.435 188.312 245.727C187.677 246.013 186.862 246.156 185.867 246.156C185.263 246.156 184.703 246.107 184.188 246.008C183.677 245.914 183.188 245.755 182.719 245.531V244.312C183.193 244.547 183.708 244.732 184.266 244.867C184.823 244.997 185.362 245.062 185.883 245.062C186.924 245.062 187.677 244.857 188.141 244.445C188.604 244.029 188.836 243.461 188.836 242.742C188.836 242.247 188.706 241.849 188.445 241.547C188.19 241.24 187.82 241.016 187.336 240.875C186.857 240.729 186.279 240.656 185.602 240.656H184.461V239.547H185.609C186.229 239.547 186.755 239.456 187.188 239.273C187.62 239.091 187.948 238.836 188.172 238.508C188.401 238.174 188.516 237.781 188.516 237.328C188.516 236.75 188.323 236.305 187.938 235.992C187.552 235.674 187.029 235.516 186.367 235.516C185.961 235.516 185.591 235.557 185.258 235.641C184.924 235.724 184.612 235.839 184.32 235.984C184.029 236.13 183.737 236.299 183.445 236.492L182.789 235.602C183.206 235.279 183.714 235 184.312 234.766C184.911 234.531 185.591 234.414 186.352 234.414C187.518 234.414 188.393 234.68 188.977 235.211C189.56 235.742 189.852 236.419 189.852 237.242ZM199.43 246H191.945V244.914L195 241.812C195.568 241.24 196.044 240.729 196.43 240.281C196.82 239.833 197.117 239.393 197.32 238.961C197.523 238.523 197.625 238.044 197.625 237.523C197.625 236.878 197.432 236.385 197.047 236.047C196.667 235.703 196.164 235.531 195.539 235.531C194.992 235.531 194.508 235.625 194.086 235.812C193.664 236 193.232 236.266 192.789 236.609L192.094 235.734C192.396 235.479 192.724 235.253 193.078 235.055C193.438 234.857 193.82 234.701 194.227 234.586C194.638 234.471 195.076 234.414 195.539 234.414C196.242 234.414 196.849 234.536 197.359 234.781C197.87 235.026 198.263 235.375 198.539 235.828C198.82 236.281 198.961 236.82 198.961 237.445C198.961 238.049 198.841 238.612 198.602 239.133C198.362 239.648 198.026 240.161 197.594 240.672C197.161 241.177 196.656 241.714 196.078 242.281L193.594 244.758V244.812H199.43V246ZM207.875 241.617L204.914 237.438H206.398L208.656 240.734L210.906 237.438H212.375L209.414 241.617L212.539 246H211.055L208.656 242.508L206.242 246H204.773L207.875 241.617ZM224.852 237.242C224.852 237.753 224.753 238.195 224.555 238.57C224.357 238.945 224.081 239.253 223.727 239.492C223.372 239.727 222.956 239.891 222.477 239.984V240.047C223.383 240.161 224.062 240.453 224.516 240.922C224.974 241.391 225.203 242.005 225.203 242.766C225.203 243.427 225.047 244.013 224.734 244.523C224.427 245.034 223.953 245.435 223.312 245.727C222.677 246.013 221.862 246.156 220.867 246.156C220.263 246.156 219.703 246.107 219.188 246.008C218.677 245.914 218.188 245.755 217.719 245.531V244.312C218.193 244.547 218.708 244.732 219.266 244.867C219.823 244.997 220.362 245.062 220.883 245.062C221.924 245.062 222.677 244.857 223.141 244.445C223.604 244.029 223.836 243.461 223.836 242.742C223.836 242.247 223.706 241.849 223.445 241.547C223.19 241.24 222.82 241.016 222.336 240.875C221.857 240.729 221.279 240.656 220.602 240.656H219.461V239.547H220.609C221.229 239.547 221.755 239.456 222.188 239.273C222.62 239.091 222.948 238.836 223.172 238.508C223.401 238.174 223.516 237.781 223.516 237.328C223.516 236.75 223.323 236.305 222.938 235.992C222.552 235.674 222.029 235.516 221.367 235.516C220.961 235.516 220.591 235.557 220.258 235.641C219.924 235.724 219.612 235.839 219.32 235.984C219.029 236.13 218.737 236.299 218.445 236.492L217.789 235.602C218.206 235.279 218.714 235 219.312 234.766C219.911 234.531 220.591 234.414 221.352 234.414C222.518 234.414 223.393 234.68 223.977 235.211C224.56 235.742 224.852 236.419 224.852 237.242ZM234.43 246H226.945V244.914L230 241.812C230.568 241.24 231.044 240.729 231.43 240.281C231.82 239.833 232.117 239.393 232.32 238.961C232.523 238.523 232.625 238.044 232.625 237.523C232.625 236.878 232.432 236.385 232.047 236.047C231.667 235.703 231.164 235.531 230.539 235.531C229.992 235.531 229.508 235.625 229.086 235.812C228.664 236 228.232 236.266 227.789 236.609L227.094 235.734C227.396 235.479 227.724 235.253 228.078 235.055C228.438 234.857 228.82 234.701 229.227 234.586C229.638 234.471 230.076 234.414 230.539 234.414C231.242 234.414 231.849 234.536 232.359 234.781C232.87 235.026 233.263 235.375 233.539 235.828C233.82 236.281 233.961 236.82 233.961 237.445C233.961 238.049 233.841 238.612 233.602 239.133C233.362 239.648 233.026 240.161 232.594 240.672C232.161 241.177 231.656 241.714 231.078 242.281L228.594 244.758V244.812H234.43V246ZM244.859 237.281C245.927 237.281 246.779 237.648 247.414 238.383C248.049 239.117 248.367 240.221 248.367 241.695C248.367 242.669 248.221 243.487 247.93 244.148C247.638 244.81 247.227 245.31 246.695 245.648C246.169 245.987 245.547 246.156 244.828 246.156C244.375 246.156 243.977 246.096 243.633 245.977C243.289 245.857 242.995 245.695 242.75 245.492C242.505 245.289 242.302 245.068 242.141 244.828H242.047C242.062 245.031 242.081 245.276 242.102 245.562C242.128 245.849 242.141 246.099 242.141 246.312V249.828H240.836V237.438H241.906L242.078 238.703H242.141C242.307 238.443 242.51 238.206 242.75 237.992C242.99 237.773 243.281 237.602 243.625 237.477C243.974 237.346 244.385 237.281 244.859 237.281ZM244.633 238.375C244.039 238.375 243.56 238.49 243.195 238.719C242.836 238.948 242.573 239.292 242.406 239.75C242.24 240.203 242.151 240.773 242.141 241.461V241.711C242.141 242.435 242.219 243.047 242.375 243.547C242.536 244.047 242.799 244.427 243.164 244.688C243.534 244.948 244.029 245.078 244.648 245.078C245.18 245.078 245.622 244.935 245.977 244.648C246.331 244.362 246.594 243.964 246.766 243.453C246.943 242.938 247.031 242.346 247.031 241.68C247.031 240.669 246.833 239.867 246.438 239.273C246.047 238.674 245.445 238.375 244.633 238.375ZM252.672 241.617L249.711 237.438H251.195L253.453 240.734L255.703 237.438H257.172L254.211 241.617L257.336 246H255.852L253.453 242.508L251.039 246H249.57L252.672 241.617Z" fill="#141414"/>
</svg>
