<svg width="440" height="440" viewBox="0 0 440 440" fill="none" xmlns="http://www.w3.org/2000/svg">
<rect width="440" height="440" rx="8" fill="#EAEFFF"/>
<rect x="196" y="182" width="48" height="48" rx="2" fill="#2B5FFC"/>
<rect x="202.219" y="192.5" width="35.561" height="7.2439" rx="3.62195" fill="white"/>
<rect x="202.219" y="202.378" width="17.122" height="7.2439" rx="3.62195" fill="white"/>
<rect x="220.658" y="202.378" width="17.122" height="7.2439" rx="3.62195" fill="white"/>
<rect x="202.219" y="212.256" width="35.561" height="7.2439" rx="3.62195" fill="white"/>
<path d="M190.844 251.352H189.133V254H187.867V251.352H182.344V250.258L187.781 242.516H189.133V250.18H190.844V251.352ZM187.867 250.18V246.445C187.867 246.159 187.87 245.901 187.875 245.672C187.88 245.438 187.888 245.221 187.898 245.023C187.909 244.82 187.917 244.628 187.922 244.445C187.932 244.263 187.94 244.083 187.945 243.906H187.883C187.784 244.115 187.669 244.336 187.539 244.57C187.414 244.799 187.286 245.005 187.156 245.188L183.633 250.18H187.867ZM195.719 242.414C196.38 242.414 196.966 242.518 197.477 242.727C197.987 242.935 198.385 243.242 198.672 243.648C198.964 244.049 199.109 244.544 199.109 245.133C199.109 245.596 199.008 246.003 198.805 246.352C198.607 246.695 198.339 246.997 198 247.258C197.661 247.513 197.286 247.742 196.875 247.945C197.365 248.169 197.805 248.422 198.195 248.703C198.591 248.984 198.904 249.315 199.133 249.695C199.362 250.076 199.477 250.526 199.477 251.047C199.477 251.688 199.32 252.242 199.008 252.711C198.701 253.174 198.268 253.531 197.711 253.781C197.154 254.031 196.5 254.156 195.75 254.156C194.943 254.156 194.255 254.036 193.688 253.797C193.125 253.552 192.695 253.203 192.398 252.75C192.107 252.292 191.961 251.742 191.961 251.102C191.961 250.576 192.073 250.12 192.297 249.734C192.521 249.344 192.818 249.008 193.188 248.727C193.557 248.445 193.961 248.208 194.398 248.016C194.018 247.807 193.669 247.57 193.352 247.305C193.039 247.039 192.789 246.729 192.602 246.375C192.419 246.016 192.328 245.599 192.328 245.125C192.328 244.547 192.474 244.057 192.766 243.656C193.062 243.25 193.466 242.943 193.977 242.734C194.492 242.521 195.073 242.414 195.719 242.414ZM193.234 251.109C193.234 251.693 193.44 252.174 193.852 252.555C194.263 252.93 194.885 253.117 195.719 253.117C196.51 253.117 197.122 252.93 197.555 252.555C197.987 252.174 198.203 251.677 198.203 251.062C198.203 250.682 198.104 250.349 197.906 250.062C197.708 249.771 197.427 249.51 197.062 249.281C196.698 249.052 196.268 248.844 195.773 248.656L195.492 248.555C195.013 248.753 194.604 248.974 194.266 249.219C193.932 249.458 193.677 249.732 193.5 250.039C193.323 250.346 193.234 250.703 193.234 251.109ZM195.703 243.477C195.089 243.477 194.586 243.625 194.195 243.922C193.805 244.214 193.609 244.635 193.609 245.188C193.609 245.583 193.703 245.919 193.891 246.195C194.083 246.466 194.344 246.701 194.672 246.898C195 247.091 195.367 247.271 195.773 247.438C196.169 247.271 196.521 247.089 196.828 246.891C197.135 246.688 197.378 246.448 197.555 246.172C197.732 245.896 197.82 245.565 197.82 245.18C197.82 244.628 197.625 244.206 197.234 243.914C196.849 243.622 196.339 243.477 195.703 243.477ZM207.875 249.617L204.914 245.438H206.398L208.656 248.734L210.906 245.438H212.375L209.414 249.617L212.539 254H211.055L208.656 250.508L206.242 254H204.773L207.875 249.617ZM225.844 251.352H224.133V254H222.867V251.352H217.344V250.258L222.781 242.516H224.133V250.18H225.844V251.352ZM222.867 250.18V246.445C222.867 246.159 222.87 245.901 222.875 245.672C222.88 245.438 222.888 245.221 222.898 245.023C222.909 244.82 222.917 244.628 222.922 244.445C222.932 244.263 222.94 244.083 222.945 243.906H222.883C222.784 244.115 222.669 244.336 222.539 244.57C222.414 244.799 222.286 245.005 222.156 245.188L218.633 250.18H222.867ZM230.719 242.414C231.38 242.414 231.966 242.518 232.477 242.727C232.987 242.935 233.385 243.242 233.672 243.648C233.964 244.049 234.109 244.544 234.109 245.133C234.109 245.596 234.008 246.003 233.805 246.352C233.607 246.695 233.339 246.997 233 247.258C232.661 247.513 232.286 247.742 231.875 247.945C232.365 248.169 232.805 248.422 233.195 248.703C233.591 248.984 233.904 249.315 234.133 249.695C234.362 250.076 234.477 250.526 234.477 251.047C234.477 251.688 234.32 252.242 234.008 252.711C233.701 253.174 233.268 253.531 232.711 253.781C232.154 254.031 231.5 254.156 230.75 254.156C229.943 254.156 229.255 254.036 228.688 253.797C228.125 253.552 227.695 253.203 227.398 252.75C227.107 252.292 226.961 251.742 226.961 251.102C226.961 250.576 227.073 250.12 227.297 249.734C227.521 249.344 227.818 249.008 228.188 248.727C228.557 248.445 228.961 248.208 229.398 248.016C229.018 247.807 228.669 247.57 228.352 247.305C228.039 247.039 227.789 246.729 227.602 246.375C227.419 246.016 227.328 245.599 227.328 245.125C227.328 244.547 227.474 244.057 227.766 243.656C228.062 243.25 228.466 242.943 228.977 242.734C229.492 242.521 230.073 242.414 230.719 242.414ZM228.234 251.109C228.234 251.693 228.44 252.174 228.852 252.555C229.263 252.93 229.885 253.117 230.719 253.117C231.51 253.117 232.122 252.93 232.555 252.555C232.987 252.174 233.203 251.677 233.203 251.062C233.203 250.682 233.104 250.349 232.906 250.062C232.708 249.771 232.427 249.51 232.062 249.281C231.698 249.052 231.268 248.844 230.773 248.656L230.492 248.555C230.013 248.753 229.604 248.974 229.266 249.219C228.932 249.458 228.677 249.732 228.5 250.039C228.323 250.346 228.234 250.703 228.234 251.109ZM230.703 243.477C230.089 243.477 229.586 243.625 229.195 243.922C228.805 244.214 228.609 244.635 228.609 245.188C228.609 245.583 228.703 245.919 228.891 246.195C229.083 246.466 229.344 246.701 229.672 246.898C230 247.091 230.367 247.271 230.773 247.438C231.169 247.271 231.521 247.089 231.828 246.891C232.135 246.688 232.378 246.448 232.555 246.172C232.732 245.896 232.82 245.565 232.82 245.18C232.82 244.628 232.625 244.206 232.234 243.914C231.849 243.622 231.339 243.477 230.703 243.477ZM244.859 245.281C245.927 245.281 246.779 245.648 247.414 246.383C248.049 247.117 248.367 248.221 248.367 249.695C248.367 250.669 248.221 251.487 247.93 252.148C247.638 252.81 247.227 253.31 246.695 253.648C246.169 253.987 245.547 254.156 244.828 254.156C244.375 254.156 243.977 254.096 243.633 253.977C243.289 253.857 242.995 253.695 242.75 253.492C242.505 253.289 242.302 253.068 242.141 252.828H242.047C242.062 253.031 242.081 253.276 242.102 253.562C242.128 253.849 242.141 254.099 242.141 254.312V257.828H240.836V245.438H241.906L242.078 246.703H242.141C242.307 246.443 242.51 246.206 242.75 245.992C242.99 245.773 243.281 245.602 243.625 245.477C243.974 245.346 244.385 245.281 244.859 245.281ZM244.633 246.375C244.039 246.375 243.56 246.49 243.195 246.719C242.836 246.948 242.573 247.292 242.406 247.75C242.24 248.203 242.151 248.773 242.141 249.461V249.711C242.141 250.435 242.219 251.047 242.375 251.547C242.536 252.047 242.799 252.427 243.164 252.688C243.534 252.948 244.029 253.078 244.648 253.078C245.18 253.078 245.622 252.935 245.977 252.648C246.331 252.362 246.594 251.964 246.766 251.453C246.943 250.938 247.031 250.346 247.031 249.68C247.031 248.669 246.833 247.867 246.438 247.273C246.047 246.674 245.445 246.375 244.633 246.375ZM252.672 249.617L249.711 245.438H251.195L253.453 248.734L255.703 245.438H257.172L254.211 249.617L257.336 254H255.852L253.453 250.508L251.039 254H249.57L252.672 249.617Z" fill="#141414"/>
</svg>
