<svg width="684" height="440" viewBox="0 0 684 440" fill="none" xmlns="http://www.w3.org/2000/svg">
<rect x="0.5" y="0.5" width="333" height="211" rx="7.5" fill="white"/>
<rect x="0.5" y="0.5" width="333" height="211" rx="7.5" stroke="#141414"/>
<rect x="82.5039" y="41.8452" width="168.992" height="34.4243" rx="17.2122" fill="#141414"/>
<rect x="82.5039" y="88.7876" width="81.3666" height="34.4243" rx="17.2122" fill="#141414"/>
<rect x="170.13" y="88.7876" width="81.3666" height="34.4243" rx="17.2122" fill="#141414"/>
<rect x="82.5039" y="135.73" width="168.992" height="34.4243" rx="17.2122" fill="#141414"/>
<rect y="228" width="334" height="212" rx="8" fill="#141414"/>
<rect x="82.5039" y="269.845" width="168.992" height="34.4243" rx="17.2122" fill="white"/>
<rect x="82.5039" y="316.788" width="81.3666" height="34.4243" rx="17.2122" fill="white"/>
<rect x="170.13" y="316.788" width="81.3666" height="34.4243" rx="17.2122" fill="white"/>
<rect x="82.5039" y="363.73" width="168.992" height="34.4243" rx="17.2122" fill="white"/>
<rect x="350" width="334" height="212" rx="8" fill="#EAEFFF"/>
<rect x="432.504" y="41.8452" width="168.992" height="34.4243" rx="17.2122" fill="#2B5FFC"/>
<rect x="432.504" y="88.7876" width="81.3666" height="34.4243" rx="17.2122" fill="#2B5FFC"/>
<rect x="520.13" y="88.7876" width="81.3666" height="34.4243" rx="17.2122" fill="#2B5FFC"/>
<rect x="432.504" y="135.73" width="168.992" height="34.4243" rx="17.2122" fill="#2B5FFC"/>
<rect x="350.5" y="228.5" width="333" height="211" rx="7.5" fill="white"/>
<rect x="350.5" y="228.5" width="333" height="211" rx="7.5" stroke="#141414"/>
<rect x="432.504" y="269.845" width="168.992" height="34.4243" rx="17.2122" fill="#434343"/>
<rect x="432.504" y="316.788" width="81.3666" height="34.4243" rx="17.2122" fill="#B6B6B6"/>
<rect x="520.13" y="316.788" width="81.3666" height="34.4243" rx="17.2122" fill="#939393"/>
<rect x="432.504" y="363.73" width="168.992" height="34.4243" rx="17.2122" fill="#626262"/>
</svg>
