<svg width="690" height="367" viewBox="0 0 690 367" fill="none" xmlns="http://www.w3.org/2000/svg">
<rect y="0.0678711" width="690" height="366.035" rx="8" fill="#EAEFFF"/>
<rect x="124.996" y="0.0678711" width="440.504" height="366.035" rx="5.06326" fill="#BDCDFE"/>
<rect x="189.036" y="64.147" width="313.218" height="63.8038" rx="31.9019" fill="#2B5FFC"/>
<rect x="189.036" y="151.152" width="150.809" height="63.8038" rx="31.9019" fill="#FFDA01"/>
<rect x="351.445" y="151.152" width="150.809" height="63.8038" rx="31.9019" fill="#FF5E09"/>
<rect x="189.036" y="238.157" width="313.218" height="63.8038" rx="31.9019" fill="#00C14F"/>
<path d="M124.5 302.068H189.5V366.068H129.549C126.76 366.068 124.5 363.807 124.5 361.019V302.068Z" fill="#9DB5FE"/>
<path d="M502.5 302.068H565.5V361.019C565.5 363.807 563.24 366.068 560.451 366.068H502.5V302.068Z" fill="#9DB5FE"/>
<path d="M502.5 0.0678711H560.451C563.24 0.0678711 565.5 2.32828 565.5 5.11663V64.0679H502.5V0.0678711Z" fill="#9DB5FE"/>
<path d="M124.5 5.11663C124.5 2.32828 126.76 0.0678711 129.549 0.0678711H189.5V64.0679H124.5V5.11663Z" fill="#9DB5FE"/>
<line x1="189.249" y1="0.728516" x2="189.249" y2="366.102" stroke="#7194FD"/>
<line x1="502.547" y1="0.728516" x2="502.547" y2="366.102" stroke="#7194FD"/>
<line x1="124.996" y1="63.8252" x2="565.5" y2="63.5673" stroke="#7194FD"/>
<line x1="124.996" y1="301.892" x2="565.5" y2="301.567" stroke="#7194FD"/>
<line x1="219.815" y1="238.521" x2="158.838" y2="238.521" stroke="#626262" stroke-dasharray="1.26 1.26"/>
<path d="M159.568 237.667C159.373 237.472 159.057 237.472 158.861 237.667L155.679 240.849C155.484 241.044 155.484 241.361 155.679 241.556C155.875 241.751 156.191 241.751 156.386 241.556L159.215 238.728L162.043 241.556C162.239 241.751 162.555 241.751 162.75 241.556C162.946 241.361 162.946 241.044 162.75 240.849L159.568 237.667ZM158.861 301.826C159.057 302.022 159.373 302.022 159.568 301.826L162.75 298.644C162.946 298.449 162.946 298.133 162.75 297.937C162.555 297.742 162.239 297.742 162.043 297.937L159.215 300.766L156.386 297.937C156.191 297.742 155.875 297.742 155.679 297.937C155.484 298.133 155.484 298.449 155.679 298.644L158.861 301.826ZM158.715 238.021L158.715 238.655L159.715 238.655L159.715 238.021L158.715 238.021ZM158.715 239.924L158.715 241.193L159.715 241.193L159.715 239.924L158.715 239.924ZM158.715 242.462L158.715 243.731L159.715 243.731L159.715 242.462L158.715 242.462ZM158.715 245L158.715 246.269L159.715 246.269L159.715 245L158.715 245ZM158.715 247.538L158.715 248.807L159.715 248.807L159.715 247.538L158.715 247.538ZM158.715 250.076L158.715 251.346L159.715 251.346L159.715 250.076L158.715 250.076ZM158.715 252.615L158.715 253.884L159.715 253.884L159.715 252.615L158.715 252.615ZM158.715 255.153L158.715 256.422L159.715 256.422L159.715 255.153L158.715 255.153ZM158.715 257.691L158.715 258.96L159.715 258.96L159.715 257.691L158.715 257.691ZM158.715 260.229L158.715 261.498L159.715 261.498L159.715 260.229L158.715 260.229ZM158.715 262.767L158.715 264.036L159.715 264.036L159.715 262.767L158.715 262.767ZM158.715 265.305L158.715 266.574L159.715 266.574L159.715 265.305L158.715 265.305ZM158.715 267.843L158.715 269.112L159.715 269.112L159.715 267.843L158.715 267.843ZM158.715 270.381L158.715 271.65L159.715 271.65L159.715 270.381L158.715 270.381ZM158.715 272.919L158.715 274.188L159.715 274.188L159.715 272.919L158.715 272.919ZM158.715 275.457L158.715 276.726L159.715 276.726L159.715 275.457L158.715 275.457ZM158.715 277.996L158.715 279.265L159.715 279.265L159.715 277.996L158.715 277.996ZM158.715 280.534L158.715 281.803L159.715 281.803L159.715 280.534L158.715 280.534ZM158.715 283.072L158.715 284.341L159.715 284.341L159.715 283.072L158.715 283.072ZM158.715 285.61L158.715 286.879L159.715 286.879L159.715 285.61L158.715 285.61ZM158.715 288.148L158.715 289.417L159.715 289.417L159.715 288.148L158.715 288.148ZM158.715 290.686L158.715 291.955L159.715 291.955L159.715 290.686L158.715 290.686ZM158.715 293.224L158.715 294.493L159.715 294.493L159.715 293.224L158.715 293.224ZM158.715 295.762L158.715 297.031L159.715 297.031L159.715 295.762L158.715 295.762ZM158.715 298.3L158.715 299.569L159.715 299.569L159.715 298.3L158.715 298.3ZM158.715 300.838L158.715 301.473L159.715 301.473L159.715 300.838L158.715 300.838Z" fill="#626262"/>
<line x1="219.815" y1="301.973" x2="158.838" y2="301.973" stroke="#626262" stroke-dasharray="1.26 1.26"/>
<path d="M140.251 270.133L141.957 267.497L140.251 264.872H141.18L142.503 266.972L143.846 264.872H144.765L143.058 267.497L144.765 270.133H143.846L142.503 267.982L141.19 270.133H140.251Z" fill="#141414"/>
</svg>
