<svg width="440" height="440" viewBox="0 0 440 440" fill="none" xmlns="http://www.w3.org/2000/svg">
<rect width="440" height="440" rx="8" fill="#EAEFFF"/>
<path d="M162.378 109.447C167.564 113.846 170.156 120.255 170.156 128.703V167.185H147.987V133.189C147.987 126.314 144.055 123.051 138.636 123.051C132.46 123.051 128.178 127.1 128.178 133.975V167.185H106.126V133.189C106.126 126.78 101.96 123.051 96.4542 123.051C90.5988 123.051 86.3165 126.867 86.3165 133.975V167.185H64.2641V104.582H85.8796V113.263C89.3753 106.621 97.3573 102.688 105.339 102.805C113.321 102.921 118.944 106.301 122.119 112.71C127.071 106.068 135.403 102.805 143.967 102.805C151.163 102.805 157.368 105.048 162.437 109.447H162.378Z" fill="#141414"/>
<path d="M212.572 168.962C202.317 168.962 194.102 165.816 187.693 159.407C181.401 152.998 178.226 145.22 178.226 135.898C178.226 126.576 181.372 118.798 187.693 112.36C194.102 105.951 202.317 102.805 212.572 102.805C222.826 102.805 231.041 105.951 237.45 112.36C243.859 118.769 247.005 126.547 247.005 135.898C247.005 145.249 243.859 152.998 237.45 159.407C231.041 165.816 222.826 168.962 212.572 168.962ZM224.952 135.781C224.952 128.906 219.65 123.517 212.572 123.517C205.493 123.517 200.307 128.906 200.307 135.781C200.307 142.977 205.697 148.279 212.572 148.279C219.447 148.279 224.952 142.977 224.952 135.781Z" fill="#141414"/>
<path d="M243.421 244.499L252.656 229.293C259.735 234.129 266.26 236.605 272.116 236.605C275.815 236.605 277.738 235.585 277.738 233.692C277.738 232.789 276.835 232.002 274.912 231.332C273.106 230.662 261.862 227.399 259.385 226.147C251.17 222.651 247.121 216.796 247.121 208.697C247.121 202.609 249.597 197.656 254.55 193.957C259.502 190.228 266.027 188.334 274.242 188.334C283.127 188.334 291.226 190.927 298.451 196.112L289.449 210.853C283.943 207.59 278.758 205.901 274.038 205.901C270.776 205.901 269.086 206.804 269.086 208.493C269.086 210.183 271.009 211.406 274.942 212.309C280.447 213.562 285.283 215.223 289.565 217.378C297.227 221.311 300.14 226.147 300.14 233.371C300.14 239.664 297.664 244.849 292.712 248.782C287.759 252.714 281.001 254.637 272.349 254.637C261.425 254.637 251.753 251.258 243.421 244.499Z" fill="#141414"/>
<path d="M354.033 190.228H374.862V252.802H354.033V248.403C348.964 252.336 343.109 254.375 336.467 254.375C327.582 254.375 320.27 251.229 314.531 244.907C308.792 238.498 305.966 230.604 305.966 221.282C305.966 211.96 308.879 204.182 314.618 197.977C320.357 191.801 327.669 188.626 336.467 188.626C343.342 188.626 349.197 190.665 354.033 194.801V190.199V190.228ZM349.867 230.546C352.343 227.953 353.567 224.923 353.567 221.427C353.567 217.932 352.343 215.019 349.867 212.542C347.391 210.066 344.361 208.814 340.749 208.814C333.553 208.814 328.019 214.552 328.019 221.427C328.019 224.923 329.242 227.953 331.718 230.546C334.194 233.022 337.224 234.245 340.72 234.245C344.215 234.245 347.362 233.022 349.838 230.546H349.867Z" fill="#141414"/>
<path d="M163.747 336.962H141.578V274.388H163.747V336.962Z" fill="#141414"/>
<path d="M181.284 329.184C175.108 323.008 172.05 315.114 172.05 305.559C172.05 296.004 175.079 288.109 181.284 282.05C187.46 275.874 195.588 272.815 205.609 272.815C218.776 272.815 230.254 278.991 235.76 291.488L218.194 300.606C215.28 295.771 211.202 293.294 206.162 293.294C198.967 293.294 193.898 298.48 193.898 305.559C193.898 312.638 198.967 318.056 206.046 318.056C211.348 318.056 216.067 315.143 217.99 310.744L235.672 321.202C230.166 331.893 219.009 338.302 205.405 338.302C195.617 338.302 187.518 335.273 181.313 329.184H181.284Z" fill="#141414"/>
<path d="M345.468 101.465H290.469C272.16 101.465 257.317 116.307 257.317 134.616C257.317 152.925 272.16 167.768 290.469 167.768H345.468C363.777 167.768 378.62 152.925 378.62 134.616C378.62 116.307 363.777 101.465 345.468 101.465Z" fill="#2B5FFC"/>
<path d="M345.468 272.232H281.933C263.624 272.232 248.782 287.075 248.782 305.384C248.782 323.693 263.624 338.535 281.933 338.535H345.468C363.777 338.535 378.62 323.693 378.62 305.384C378.62 287.075 363.777 272.232 345.468 272.232Z" fill="#00C14F"/>
<path d="M94.2985 272.232H94.2694C76.1052 272.232 61.3802 286.957 61.3802 305.122V305.646C61.3802 323.81 76.1052 338.535 94.2694 338.535H94.2985C112.463 338.535 127.188 323.81 127.188 305.646V305.122C127.188 286.957 112.463 272.232 94.2985 272.232Z" fill="#FF5E09"/>
<path d="M199.958 186.79H94.5316C76.2226 186.79 61.3802 201.633 61.3802 219.942C61.3802 238.251 76.2226 253.093 94.5316 253.093H199.958C218.267 253.093 233.109 238.251 233.109 219.942C233.109 201.633 218.267 186.79 199.958 186.79Z" fill="#FFDA01"/>
</svg>
