<svg width="440" height="440" viewBox="0 0 440 440" fill="none" xmlns="http://www.w3.org/2000/svg">
<rect x="0.5" y="0.5" width="439" height="439" rx="7.5" fill="white"/>
<rect x="0.5" y="0.5" width="439" height="439" rx="7.5" stroke="#141414"/>
<rect x="53.5" y="200" width="54" height="11" rx="5.5" fill="#434343"/>
<rect x="53.5" y="215" width="26" height="11" rx="5.5" fill="#B6B6B6"/>
<rect x="81.5" y="215" width="26" height="11" rx="5.5" fill="#939393"/>
<rect x="53.5" y="230" width="54" height="11" rx="5.5" fill="#626262"/>
<path d="M185.831 202.903C189.128 205.706 190.776 209.806 190.776 215.23V239.858H176.687V218.111C176.687 213.725 174.189 211.623 170.763 211.623C166.822 211.623 164.118 214.218 164.118 218.604V239.858H150.106V218.111C150.106 214.01 147.454 211.623 143.951 211.623C140.242 211.623 137.512 214.062 137.512 218.604V239.858H123.5V199.789H137.228V205.343C139.443 201.086 144.517 198.569 149.591 198.647C154.665 198.725 158.246 200.879 160.255 204.979C163.397 200.723 168.677 198.647 174.112 198.647C178.696 198.647 182.611 200.074 185.831 202.903Z" fill="#141414"/>
<path d="M217.743 241C211.227 241 206.024 238.976 201.954 234.875C197.962 230.775 195.953 225.792 195.953 219.823C195.953 213.855 197.962 208.872 201.954 204.772C206.024 200.671 211.253 198.647 217.743 198.647C224.234 198.647 229.462 200.671 233.532 204.772C237.602 208.872 239.611 213.855 239.611 219.823C239.611 225.792 237.602 230.775 233.532 234.875C229.462 238.976 224.234 241 217.743 241ZM225.599 219.746C225.599 215.36 222.251 211.882 217.743 211.882C213.236 211.882 209.939 215.334 209.939 219.746C209.939 224.365 213.365 227.739 217.743 227.739C222.122 227.739 225.599 224.365 225.599 219.746Z" fill="#141414"/>
<path d="M242.057 234.512L247.93 224.78C252.437 227.868 256.584 229.452 260.293 229.452C262.663 229.452 263.873 228.803 263.873 227.583C263.873 227.012 263.307 226.493 262.096 226.078C260.963 225.637 253.802 223.561 252.231 222.756C247.003 220.524 244.427 216.787 244.427 211.597C244.427 207.704 245.998 204.538 249.14 202.15C252.283 199.763 256.43 198.543 261.658 198.543C267.299 198.543 272.45 200.204 277.035 203.526L271.317 212.972C267.814 210.896 264.517 209.806 261.529 209.806C259.469 209.806 258.387 210.377 258.387 211.467C258.387 212.557 259.598 213.336 262.096 213.907C265.599 214.711 268.664 215.775 271.394 217.15C276.262 219.668 278.117 222.782 278.117 227.375C278.117 231.398 276.545 234.72 273.403 237.237C270.261 239.754 265.959 240.974 260.473 240.974C253.545 240.974 247.389 238.82 242.109 234.486L242.057 234.512Z" fill="#141414"/>
<path d="M319.404 216.502V239.832H306.964V236.458C304.027 239.261 300.241 240.714 295.528 240.714C286.667 240.714 281.877 235.317 281.877 228.05C281.877 218.396 290.66 215.23 300.396 215.022C302.456 215.022 304.465 215.022 306.397 214.945C305.908 212.142 303.692 210.766 299.881 210.766C295.734 210.766 291.51 211.778 287.286 213.725L283.139 203.292C289.423 200.334 295.296 198.829 300.73 198.829C313.171 198.829 319.378 204.746 319.378 216.554L319.404 216.502ZM306.474 224.365C305.83 224.365 304.697 224.365 303.177 224.443C301.683 224.443 300.756 224.443 300.318 224.521C296.738 224.676 294.961 225.663 294.961 227.557C294.961 229.296 296.172 230.152 298.541 230.152C302.25 230.152 305.908 227.842 306.474 224.391V224.365Z" fill="#141414"/>
<path d="M340.731 239.858H326.642V199.789H340.731V239.832V239.858Z" fill="#141414"/>
<path d="M351.883 234.875C347.943 230.905 346.011 225.87 346.011 219.746C346.011 213.621 347.943 208.587 351.883 204.694C355.824 200.723 360.95 198.777 367.337 198.777C375.708 198.777 382.997 202.747 386.5 210.741L375.347 216.58C373.493 213.491 370.917 211.908 367.698 211.908C363.113 211.908 359.894 215.23 359.894 219.772C359.894 224.313 363.113 227.765 367.621 227.765C370.969 227.765 373.982 225.896 375.193 223.093L386.423 229.789C382.92 236.64 375.837 240.741 367.183 240.741C360.975 240.741 355.824 238.794 351.883 234.901V234.875Z" fill="#141414"/>
</svg>
