<svg width="678" height="367" viewBox="0 0 678 367" fill="none" xmlns="http://www.w3.org/2000/svg">
<rect y="0.0678711" width="678" height="366.035" rx="8" fill="#EAEFFF"/>
<rect x="14.5" y="86.605" width="649" height="193" rx="7.56725" fill="#BDCDFE"/>
<rect x="77.5386" y="151.661" width="84.4865" height="17.2102" rx="8.60511" fill="#2B5FFC"/>
<rect x="77.5386" y="175.13" width="40.6787" height="17.2102" rx="8.60511" fill="#FFDA01"/>
<rect x="121.346" y="175.13" width="40.6787" height="17.2102" rx="8.60511" fill="#FF5E09"/>
<rect x="77.5386" y="198.598" width="84.4865" height="17.2102" rx="8.60511" fill="#00C14F"/>
<path d="M284.579 156.204C289.737 160.589 292.316 167.004 292.316 175.49V214.022H270.273V179.997C270.273 173.135 266.364 169.846 261.005 169.846C254.839 169.846 250.608 173.906 250.608 180.768V214.022H228.686V179.997C228.686 173.582 224.535 169.846 219.055 169.846C213.252 169.846 208.98 173.663 208.98 180.768V214.022H187.058V151.331H208.537V160.02C212.002 153.361 219.941 149.423 227.88 149.545C235.818 149.667 241.42 153.037 244.563 159.452C249.479 152.793 257.74 149.545 266.243 149.545C273.416 149.545 279.542 151.778 284.579 156.204Z" fill="#141414"/>
<path d="M334.508 215.808C324.312 215.808 316.172 212.641 309.805 206.226C303.559 199.811 300.416 192.015 300.416 182.676C300.416 173.338 303.559 165.542 309.805 159.127C316.172 152.711 324.353 149.544 334.508 149.544C344.663 149.544 352.843 152.711 359.21 159.127C365.577 165.542 368.721 173.338 368.721 182.676C368.721 192.015 365.577 199.811 359.21 206.226C352.843 212.641 344.663 215.808 334.508 215.808ZM346.799 182.555C346.799 175.693 341.56 170.252 334.508 170.252C327.456 170.252 322.298 175.652 322.298 182.555C322.298 189.782 327.657 195.06 334.508 195.06C341.358 195.06 346.799 189.782 346.799 182.555Z" fill="#141414"/>
<path d="M372.549 205.658L381.737 190.432C388.789 195.264 395.277 197.74 401.08 197.74C404.787 197.74 406.681 196.725 406.681 194.817C406.681 193.924 405.795 193.112 403.901 192.462C402.127 191.772 390.925 188.524 388.467 187.265C380.286 183.773 376.256 177.926 376.256 169.806C376.256 163.715 378.714 158.762 383.631 155.026C388.547 151.291 395.035 149.382 403.216 149.382C412.041 149.382 420.1 151.981 427.273 157.178L418.327 171.958C412.847 168.709 407.689 167.004 403.014 167.004C399.79 167.004 398.098 167.897 398.098 169.603C398.098 171.308 399.992 172.526 403.901 173.419C409.381 174.678 414.176 176.343 418.448 178.495C426.064 182.433 428.966 187.305 428.966 194.492C428.966 200.786 426.508 205.983 421.591 209.921C416.675 213.86 409.945 215.768 401.362 215.768C390.522 215.768 380.891 212.398 372.63 205.617L372.549 205.658Z" fill="#141414"/>
<path d="M493.563 177.48V213.982H474.099V208.703C469.505 213.088 463.581 215.362 456.207 215.362C442.344 215.362 434.849 206.917 434.849 195.548C434.849 180.444 448.59 175.49 463.823 175.165C467.047 175.165 470.19 175.165 473.212 175.044C472.447 170.658 468.981 168.506 463.017 168.506C456.529 168.506 449.92 170.09 443.311 173.135L436.823 156.813C446.656 152.184 455.844 149.829 464.347 149.829C483.811 149.829 493.522 159.087 493.522 177.561L493.563 177.48ZM473.333 189.782C472.326 189.782 470.553 189.782 468.175 189.904C465.838 189.904 464.387 189.904 463.702 190.026C458.101 190.27 455.32 191.813 455.32 194.777C455.32 197.497 457.214 198.837 460.921 198.837C466.724 198.837 472.447 195.223 473.333 189.823V189.782Z" fill="#141414"/>
<path d="M526.929 214.022H504.887V151.331H526.929V213.981V214.022Z" fill="#141414"/>
<path d="M544.379 206.226C538.213 200.014 535.191 192.137 535.191 182.555C535.191 172.972 538.213 165.095 544.379 159.005C550.544 152.793 558.563 149.748 568.557 149.748C581.654 149.748 593.058 155.96 598.539 168.465L581.09 177.601C578.188 172.769 574.159 170.293 569.121 170.293C561.948 170.293 556.911 175.49 556.911 182.595C556.911 189.701 561.948 195.101 569 195.101C574.239 195.101 578.954 192.178 580.848 187.792L598.418 198.268C592.937 208.987 581.855 215.402 568.315 215.402C558.604 215.402 550.544 212.357 544.379 206.267V206.226Z" fill="#141414"/>
<path d="M14.5386 216.074H77.991V279.527H19.5874C16.799 279.527 14.5386 277.266 14.5386 274.478V216.074Z" fill="#9DB5FE"/>
<path d="M600.5 215.469H663.5V274.42C663.5 277.209 661.24 279.469 658.451 279.469H600.5V215.469Z" fill="#9DB5FE"/>
<path d="M600.5 86.5371H658.451C661.24 86.5371 663.5 88.7975 663.5 91.5859V150.537H600.5V86.5371Z" fill="#9DB5FE"/>
<path d="M14.5386 91.7895C14.5386 89.0011 16.799 86.7407 19.5874 86.7407H77.991V150.193H14.5386V91.7895Z" fill="#9DB5FE"/>
<line x1="77.5296" y1="86.8086" x2="77.5296" y2="279.633" stroke="#7194FD"/>
<line x1="600.039" y1="86.8086" x2="600.039" y2="279.633" stroke="#7194FD"/>
<line x1="14.5" y1="150.309" x2="663.5" y2="150.309" stroke="#7194FD"/>
<line x1="14.4996" y1="215.642" x2="663.5" y2="215.172" stroke="#7194FD"/>
<line x1="106.833" y1="152.229" x2="45.8566" y2="152.229" stroke="#626262" stroke-dasharray="1.26 1.26"/>
<path d="M46.5866 151.375C46.3913 151.18 46.0748 151.18 45.8795 151.375L42.6975 154.557C42.5023 154.752 42.5023 155.069 42.6975 155.264C42.8928 155.459 43.2094 155.459 43.4046 155.264L46.233 152.436L49.0615 155.264C49.2567 155.459 49.5733 155.459 49.7686 155.264C49.9638 155.069 49.9638 154.752 49.7686 154.557L46.5866 151.375ZM45.8795 215.534C46.0748 215.73 46.3913 215.73 46.5866 215.534L49.7686 212.352C49.9638 212.157 49.9638 211.841 49.7686 211.645C49.5733 211.45 49.2567 211.45 49.0615 211.645L46.233 214.474L43.4046 211.645C43.2094 211.45 42.8928 211.45 42.6975 211.645C42.5022 211.841 42.5022 212.157 42.6975 212.352L45.8795 215.534ZM45.733 151.729L45.733 152.363L46.733 152.363L46.733 151.729L45.733 151.729ZM45.733 153.632L45.733 154.901L46.733 154.901L46.733 153.632L45.733 153.632ZM45.733 156.17L45.733 157.439L46.733 157.439L46.733 156.17L45.733 156.17ZM45.733 158.708L45.733 159.977L46.733 159.977L46.733 158.708L45.733 158.708ZM45.733 161.246L45.733 162.515L46.733 162.515L46.733 161.246L45.733 161.246ZM45.733 163.784L45.733 165.054L46.733 165.054L46.733 163.784L45.733 163.784ZM45.733 166.323L45.733 167.592L46.733 167.592L46.733 166.323L45.733 166.323ZM45.733 168.861L45.733 170.13L46.733 170.13L46.733 168.861L45.733 168.861ZM45.733 171.399L45.733 172.668L46.733 172.668L46.733 171.399L45.733 171.399ZM45.733 173.937L45.733 175.206L46.733 175.206L46.733 173.937L45.733 173.937ZM45.733 176.475L45.733 177.744L46.733 177.744L46.733 176.475L45.733 176.475ZM45.733 179.013L45.733 180.282L46.733 180.282L46.733 179.013L45.733 179.013ZM45.733 181.551L45.733 182.82L46.733 182.82L46.733 181.551L45.733 181.551ZM45.733 184.089L45.733 185.358L46.733 185.358L46.733 184.089L45.733 184.089ZM45.733 186.627L45.733 187.896L46.733 187.896L46.733 186.627L45.733 186.627ZM45.733 189.165L45.733 190.434L46.733 190.434L46.733 189.165L45.733 189.165ZM45.733 191.704L45.733 192.973L46.733 192.973L46.733 191.704L45.733 191.704ZM45.733 194.242L45.733 195.511L46.733 195.511L46.733 194.242L45.733 194.242ZM45.733 196.78L45.733 198.049L46.733 198.049L46.733 196.78L45.733 196.78ZM45.733 199.318L45.733 200.587L46.733 200.587L46.733 199.318L45.733 199.318ZM45.733 201.856L45.733 203.125L46.733 203.125L46.733 201.856L45.733 201.856ZM45.733 204.394L45.733 205.663L46.733 205.663L46.733 204.394L45.733 204.394ZM45.733 206.932L45.733 208.201L46.733 208.201L46.733 206.932L45.733 206.932ZM45.733 209.47L45.733 210.739L46.733 210.739L46.733 209.47L45.733 209.47ZM45.733 212.008L45.733 213.277L46.733 213.277L46.733 212.008L45.733 212.008ZM45.733 214.546L45.733 215.181L46.733 215.181L46.733 214.546L45.733 214.546Z" fill="#626262"/>
<line x1="106.833" y1="215.681" x2="45.8566" y2="215.681" stroke="#626262" stroke-dasharray="1.26 1.26"/>
<path d="M27.269 183.841L28.9755 181.205L27.269 178.58H28.198L29.5208 180.68L30.8637 178.58H31.7826L30.0761 181.205L31.7826 183.841H30.8637L29.5208 181.69L28.2081 183.841H27.269Z" fill="#141414"/>
</svg>
