<svg width="684" height="460" viewBox="0 0 684 460" fill="none" xmlns="http://www.w3.org/2000/svg">
<rect width="684" height="460" rx="8" fill="#EAEFFF"/>
<rect x="126" y="52.5" width="431.669" height="354.757" rx="5.04875" fill="#BDCDFE"/>
<path d="M286.673 123.654C291.676 127.898 294.178 134.082 294.178 142.233V179.364H272.788V146.562C272.788 139.928 268.993 136.78 263.765 136.78C257.806 136.78 253.674 140.687 253.674 147.321V179.364H232.396V146.562C232.396 140.378 228.377 136.78 223.064 136.78C217.414 136.78 213.283 140.462 213.283 147.321V179.364H192.005V118.96H212.861V127.336C216.234 120.927 223.936 117.133 231.637 117.245C239.339 117.358 244.764 120.618 247.828 126.802C252.606 120.393 260.645 117.245 268.909 117.245C275.851 117.245 281.838 119.409 286.729 123.654H286.673Z" fill="#141414"/>
<path d="M335.103 181.079C325.209 181.079 317.283 178.043 311.099 171.859C305.028 165.675 301.964 158.171 301.964 149.176C301.964 140.181 305 132.677 311.099 126.465C317.283 120.281 325.209 117.245 335.103 117.245C344.998 117.245 352.924 120.281 359.108 126.465C365.292 132.648 368.327 140.153 368.327 149.176C368.327 158.199 365.292 165.675 359.108 171.859C352.924 178.043 344.998 181.079 335.103 181.079ZM347.049 149.064C347.049 142.43 341.934 137.23 335.103 137.23C328.273 137.23 323.27 142.43 323.27 149.064C323.27 156.006 328.47 161.122 335.103 161.122C341.737 161.122 347.049 156.006 347.049 149.064Z" fill="#141414"/>
<path d="M364.87 253.963L373.78 239.291C380.611 243.957 386.907 246.346 392.557 246.346C396.126 246.346 397.981 245.362 397.981 243.535C397.981 242.664 397.11 241.905 395.255 241.258C393.512 240.612 382.662 237.464 380.273 236.255C372.347 232.882 368.44 227.232 368.44 219.418C368.44 213.544 370.829 208.765 375.607 205.195C380.386 201.598 386.682 199.771 394.608 199.771C403.181 199.771 410.995 202.272 417.966 207.275L409.281 221.498C403.968 218.35 398.965 216.72 394.412 216.72C391.264 216.72 389.633 217.591 389.633 219.221C389.633 220.852 391.488 222.032 395.283 222.904C400.595 224.112 405.261 225.714 409.393 227.794C416.786 231.589 419.597 236.255 419.597 243.226C419.597 249.297 417.207 254.3 412.429 258.095C407.651 261.89 401.129 263.745 392.781 263.745C382.241 263.745 372.909 260.484 364.87 253.963Z" fill="#141414"/>
<path d="M471.596 201.598H491.694V261.974H471.596V257.73C466.706 261.524 461.056 263.492 454.647 263.492C446.074 263.492 439.019 260.456 433.482 254.357C427.945 248.173 425.218 240.556 425.218 231.561C425.218 222.566 428.029 215.062 433.566 209.074C439.103 203.116 446.159 200.052 454.647 200.052C461.281 200.052 466.931 202.019 471.596 206.011V201.57V201.598ZM467.577 240.499C469.966 237.998 471.147 235.075 471.147 231.702C471.147 228.329 469.966 225.518 467.577 223.129C465.188 220.739 462.265 219.531 458.779 219.531C451.836 219.531 446.496 225.068 446.496 231.702C446.496 235.075 447.676 237.998 450.066 240.499C452.455 242.889 455.378 244.069 458.751 244.069C462.124 244.069 465.16 242.889 467.549 240.499H467.577Z" fill="#141414"/>
<path d="M287.994 343.179H266.604V282.802H287.994V343.179Z" fill="#141414"/>
<path d="M304.915 335.673C298.956 329.715 296.005 322.097 296.005 312.878C296.005 303.658 298.928 296.041 304.915 290.194C310.874 284.236 318.716 281.284 328.385 281.284C341.09 281.284 352.165 287.243 357.477 299.302L340.528 308.099C337.717 303.433 333.782 301.044 328.919 301.044C321.977 301.044 317.086 306.047 317.086 312.878C317.086 319.708 321.977 324.936 328.807 324.936C333.923 324.936 338.476 322.125 340.331 317.881L357.393 327.972C352.08 338.288 341.315 344.471 328.189 344.471C318.744 344.471 310.93 341.548 304.943 335.673H304.915Z" fill="#141414"/>
<path d="M463.333 115.952H410.265C392.599 115.952 378.278 130.273 378.278 147.939C378.278 165.605 392.599 179.926 410.265 179.926H463.333C480.999 179.926 495.32 165.605 495.32 147.939C495.32 130.273 480.999 115.952 463.333 115.952Z" fill="#2B5FFC"/>
<path d="M463.333 280.722H402.029C384.363 280.722 370.042 295.043 370.042 312.709C370.042 330.375 384.363 344.696 402.029 344.696H463.333C480.999 344.696 495.32 330.375 495.32 312.709C495.32 295.043 480.999 280.722 463.333 280.722Z" fill="#00C14F"/>
<path d="M220.984 280.722H220.956C203.43 280.722 189.222 294.93 189.222 312.456V312.962C189.222 330.489 203.43 344.696 220.956 344.696H220.984C238.51 344.696 252.718 330.489 252.718 312.962V312.456C252.718 294.93 238.51 280.722 220.984 280.722Z" fill="#FF5E09"/>
<path d="M322.933 198.281H221.209C203.543 198.281 189.222 212.602 189.222 230.268C189.222 247.934 203.543 262.255 221.209 262.255H322.933C340.599 262.255 354.92 247.934 354.92 230.268C354.92 212.602 340.599 198.281 322.933 198.281Z" fill="#FFDA01"/>
<path d="M126 344.175H189.452V407.5H131.049C128.26 407.5 126 405.239 126 402.451V344.175Z" fill="#9DB5FE"/>
<path d="M494.216 344.175H557.669V402.451C557.669 405.239 555.408 407.5 552.62 407.5H494.216V344.175Z" fill="#9DB5FE"/>
<path d="M495 52.5H552.951C555.74 52.5 558 54.7604 558 57.5488V115.5H495V52.5Z" fill="#9DB5FE"/>
<path d="M126 57.5488C126 54.7604 128.26 52.5 131.049 52.5H189V114.5H126V57.5488Z" fill="#9DB5FE"/>
<line x1="188.991" y1="52.5" x2="188.991" y2="407.257" stroke="#7194FD"/>
<line x1="494.716" y1="52.5" x2="494.716" y2="407.257" stroke="#7194FD"/>
<line x1="126" y1="115" x2="558" y2="115" stroke="#7194FD"/>
<line x1="126" y1="344" x2="558" y2="344" stroke="#7194FD"/>
<line x1="218.294" y1="280.852" x2="157.318" y2="280.852" stroke="#626262" stroke-dasharray="1.26 1.26"/>
<path d="M158.048 279.998C157.853 279.803 157.536 279.803 157.341 279.998L154.159 283.18C153.964 283.376 153.964 283.692 154.159 283.888C154.354 284.083 154.671 284.083 154.866 283.888L157.694 281.059L160.523 283.888C160.718 284.083 161.035 284.083 161.23 283.888C161.425 283.692 161.425 283.376 161.23 283.18L158.048 279.998ZM157.341 343.853C157.536 344.048 157.853 344.048 158.048 343.853L161.23 340.671C161.425 340.476 161.425 340.159 161.23 339.964C161.035 339.769 160.718 339.769 160.523 339.964L157.694 342.792L154.866 339.964C154.671 339.769 154.354 339.769 154.159 339.964C153.964 340.159 153.964 340.476 154.159 340.671L157.341 343.853ZM157.194 280.352L157.194 280.984L158.194 280.984L158.194 280.352L157.194 280.352ZM157.194 282.246L157.194 283.509L158.194 283.509L158.194 282.246L157.194 282.246ZM157.194 284.772L157.194 286.035L158.194 286.035L158.194 284.772L157.194 284.772ZM157.194 287.298L157.194 288.561L158.194 288.561L158.194 287.298L157.194 287.298ZM157.194 289.824L157.194 291.087L158.194 291.087L158.194 289.824L157.194 289.824ZM157.194 292.35L157.194 293.613L158.194 293.613L158.194 292.35L157.194 292.35ZM157.194 294.876L157.194 296.139L158.194 296.139L158.194 294.876L157.194 294.876ZM157.194 297.402L157.194 298.665L158.194 298.665L158.194 297.402L157.194 297.402ZM157.194 299.928L157.194 301.191L158.194 301.191L158.194 299.928L157.194 299.928ZM157.194 302.454L157.194 303.717L158.194 303.717L158.194 302.454L157.194 302.454ZM157.194 304.98L157.194 306.243L158.194 306.243L158.194 304.98L157.194 304.98ZM157.194 307.505L157.194 308.768L158.194 308.768L158.194 307.505L157.194 307.505ZM157.194 310.031L157.194 311.294L158.194 311.294L158.194 310.031L157.194 310.031ZM157.194 312.557L157.194 313.82L158.194 313.82L158.194 312.557L157.194 312.557ZM157.194 315.083L157.194 316.346L158.194 316.346L158.194 315.083L157.194 315.083ZM157.194 317.609L157.194 318.872L158.194 318.872L158.194 317.609L157.194 317.609ZM157.194 320.135L157.194 321.398L158.194 321.398L158.194 320.135L157.194 320.135ZM157.194 322.661L157.194 323.924L158.194 323.924L158.194 322.661L157.194 322.661ZM157.194 325.187L157.194 326.45L158.194 326.45L158.194 325.187L157.194 325.187ZM157.194 327.713L157.194 328.976L158.194 328.976L158.194 327.713L157.194 327.713ZM157.194 330.239L157.194 331.502L158.194 331.502L158.194 330.239L157.194 330.239ZM157.194 332.765L157.194 334.027L158.194 334.027L158.194 332.765L157.194 332.765ZM157.194 335.29L157.194 336.553L158.194 336.553L158.194 335.29L157.194 335.29ZM157.194 337.816L157.194 339.079L158.194 339.079L158.194 337.816L157.194 337.816ZM157.194 340.342L157.194 341.605L158.194 341.605L158.194 340.342L157.194 340.342ZM157.194 342.868L157.194 343.5L158.194 343.5L158.194 342.868L157.194 342.868Z" fill="#626262"/>
<line x1="218.294" y1="344" x2="157.318" y2="344" stroke="#626262" stroke-dasharray="1.26 1.26"/>
<path d="M138.73 312.358L140.437 309.722L138.73 307.097H139.659L140.982 309.197L142.325 307.097H143.244L141.538 309.722L143.244 312.358H142.325L140.982 310.207L139.67 312.358H138.73Z" fill="#141414"/>
</svg>
