<svg width="684" height="461" viewBox="0 0 684 461" fill="none" xmlns="http://www.w3.org/2000/svg">
<rect width="684" height="460.068" rx="8" fill="#EAEFFF"/>
<rect x="122.443" width="439.242" height="460.068" rx="5.04875" fill="#BDCDFE"/>
<rect x="186.183" y="62.8477" width="313.22" height="63.8041" rx="31.9021" fill="#2B5FFC"/>
<rect x="186.183" y="150.746" width="150.81" height="63.8041" rx="31.9021" fill="#FFDA01"/>
<rect x="348.594" y="150.746" width="150.81" height="63.8041" rx="31.9021" fill="#FF5E09"/>
<rect x="186.183" y="238.644" width="313.22" height="63.8041" rx="31.9021" fill="#00C14F"/>
<path d="M260.162 351.45C264.075 354.752 266.032 359.582 266.032 365.971V394.982H249.31V369.364C249.31 364.198 246.345 361.722 242.279 361.722C237.602 361.722 234.392 364.779 234.392 369.945V394.982H217.762V369.364C217.762 364.534 214.613 361.722 210.456 361.722C206.054 361.722 202.813 364.595 202.813 369.945V394.982H186.183V347.782H202.477V354.324C205.106 349.31 211.128 346.345 217.151 346.437C223.173 346.528 227.422 349.066 229.806 353.896C233.536 348.882 239.803 346.437 246.253 346.437C251.694 346.437 256.341 348.118 260.162 351.45Z" fill="#141414"/>
<path d="M298.038 396.327C290.304 396.327 284.129 393.942 279.299 389.112C274.561 384.282 272.176 378.413 272.176 371.382C272.176 364.35 274.561 358.481 279.299 353.651C284.129 348.821 290.335 346.437 298.038 346.437C305.742 346.437 311.948 348.821 316.778 353.651C321.608 358.481 323.992 364.35 323.992 371.382C323.992 378.413 321.608 384.282 316.778 389.112C311.948 393.942 305.742 396.327 298.038 396.327ZM307.362 371.29C307.362 366.124 303.388 362.027 298.038 362.027C292.689 362.027 288.776 366.093 288.776 371.29C288.776 376.731 292.841 380.705 298.038 380.705C303.235 380.705 307.362 376.731 307.362 371.29Z" fill="#141414"/>
<path d="M326.896 388.684L333.866 377.221C339.216 380.858 344.138 382.723 348.54 382.723C351.352 382.723 352.789 381.959 352.789 380.522C352.789 379.85 352.117 379.238 350.68 378.749C349.335 378.229 340.836 375.784 338.971 374.836C332.766 372.207 329.709 367.805 329.709 361.691C329.709 357.106 331.574 353.376 335.303 350.564C339.033 347.751 343.954 346.314 350.16 346.314C356.855 346.314 362.969 348.271 368.41 352.184L361.624 363.311C357.466 360.866 353.553 359.582 350.007 359.582C347.562 359.582 346.278 360.254 346.278 361.538C346.278 362.822 347.714 363.739 350.68 364.412C354.837 365.359 358.475 366.613 361.715 368.233C367.493 371.198 369.694 374.867 369.694 380.278C369.694 385.016 367.829 388.929 364.1 391.894C360.37 394.859 355.265 396.296 348.754 396.296C340.531 396.296 333.224 393.759 326.958 388.654L326.896 388.684Z" fill="#141414"/>
<path d="M418.698 367.469V394.951H403.932V390.977C400.447 394.279 395.954 395.991 390.359 395.991C379.843 395.991 374.157 389.632 374.157 381.073C374.157 369.701 384.582 365.971 396.137 365.726C398.583 365.726 400.967 365.726 403.26 365.635C402.679 362.333 400.05 360.713 395.526 360.713C390.604 360.713 385.59 361.905 380.577 364.198L375.655 351.909C383.114 348.424 390.084 346.651 396.534 346.651C411.3 346.651 418.667 353.621 418.667 367.53L418.698 367.469ZM403.352 376.732C402.587 376.732 401.242 376.732 399.439 376.823C397.666 376.823 396.565 376.823 396.045 376.915C391.796 377.098 389.687 378.26 389.687 380.492C389.687 382.54 391.124 383.549 393.936 383.549C398.338 383.549 402.679 380.828 403.352 376.762V376.732Z" fill="#141414"/>
<path d="M444.01 394.982H427.288V347.782H444.01V394.951V394.982Z" fill="#141414"/>
<path d="M457.246 389.112C452.569 384.435 450.276 378.504 450.276 371.29C450.276 364.075 452.569 358.145 457.246 353.559C461.923 348.882 468.007 346.589 475.588 346.589C485.523 346.589 494.175 351.267 498.332 360.682L485.095 367.56C482.894 363.922 479.837 362.058 476.016 362.058C470.575 362.058 466.754 365.971 466.754 371.32C466.754 376.67 470.575 380.736 475.924 380.736C479.899 380.736 483.475 378.535 484.912 375.233L498.24 383.12C494.083 391.191 485.676 396.021 475.405 396.021C468.037 396.021 461.923 393.728 457.246 389.143V389.112Z" fill="#141414"/>
<path d="M122.316 396H186.316V460H127.364C124.576 460 122.316 457.74 122.316 454.951V396Z" fill="#9DB5FE"/>
<path d="M499.252 396H561.252V454.951C561.252 457.74 558.992 460 556.203 460H499.252V396Z" fill="#9DB5FE"/>
<path d="M499.252 0H556.203C558.992 0 561.252 2.2604 561.252 5.04875V63H499.252V0Z" fill="#9DB5FE"/>
<path d="M122.316 5.04876C122.316 2.26041 124.576 0 127.364 0H185.768V63.4524H122.316V5.04876Z" fill="#9DB5FE"/>
<line x1="186.065" y1="2.18557e-08" x2="186.065" y2="460.068" stroke="#7194FD"/>
<line x1="499.363" y1="2.18557e-08" x2="499.363" y2="460.068" stroke="#7194FD"/>
<line x1="122.443" y1="63.0967" x2="561.684" y2="63.0967" stroke="#7194FD"/>
<line x1="122.443" y1="395.683" x2="561.684" y2="395.683" stroke="#7194FD"/>
<line x1="217.261" y1="238.685" x2="156.285" y2="238.685" stroke="#626262" stroke-dasharray="1.26 1.26"/>
<path d="M157.015 237.832C156.82 237.636 156.503 237.636 156.308 237.832L153.126 241.013C152.931 241.209 152.931 241.525 153.126 241.721C153.321 241.916 153.638 241.916 153.833 241.721L156.662 238.892L159.49 241.721C159.685 241.916 160.002 241.916 160.197 241.721C160.392 241.525 160.392 241.209 160.197 241.013L157.015 237.832ZM156.308 301.991C156.503 302.186 156.82 302.186 157.015 301.991L160.197 298.809C160.392 298.614 160.392 298.297 160.197 298.102C160.002 297.907 159.685 297.907 159.49 298.102L156.662 300.93L153.833 298.102C153.638 297.907 153.321 297.907 153.126 298.102C152.931 298.297 152.931 298.614 153.126 298.809L156.308 301.991ZM156.162 238.185L156.162 238.82L157.162 238.82L157.162 238.185L156.162 238.185ZM156.162 240.089L156.162 241.358L157.162 241.358L157.162 240.089L156.162 240.089ZM156.162 242.627L156.162 243.896L157.162 243.896L157.162 242.627L156.162 242.627ZM156.162 245.165L156.162 246.434L157.162 246.434L157.162 245.165L156.162 245.165ZM156.162 247.703L156.162 248.972L157.162 248.972L157.162 247.703L156.162 247.703ZM156.162 250.241L156.162 251.51L157.162 251.51L157.162 250.241L156.162 250.241ZM156.162 252.779L156.162 254.048L157.162 254.048L157.162 252.779L156.162 252.779ZM156.162 255.317L156.162 256.586L157.162 256.586L157.162 255.317L156.162 255.317ZM156.162 257.855L156.162 259.124L157.162 259.124L157.162 257.855L156.162 257.855ZM156.162 260.393L156.162 261.662L157.162 261.662L157.162 260.393L156.162 260.393ZM156.162 262.931L156.162 264.201L157.162 264.201L157.162 262.931L156.162 262.931ZM156.162 265.47L156.162 266.739L157.162 266.739L157.162 265.47L156.162 265.47ZM156.162 268.008L156.162 269.277L157.162 269.277L157.162 268.008L156.162 268.008ZM156.162 270.546L156.162 271.815L157.162 271.815L157.162 270.546L156.162 270.546ZM156.162 273.084L156.162 274.353L157.162 274.353L157.162 273.084L156.162 273.084ZM156.162 275.622L156.162 276.891L157.162 276.891L157.162 275.622L156.162 275.622ZM156.162 278.16L156.162 279.429L157.162 279.429L157.162 278.16L156.162 278.16ZM156.162 280.698L156.162 281.967L157.162 281.967L157.162 280.698L156.162 280.698ZM156.162 283.236L156.162 284.505L157.162 284.505L157.162 283.236L156.162 283.236ZM156.162 285.774L156.162 287.043L157.162 287.043L157.162 285.774L156.162 285.774ZM156.162 288.312L156.162 289.581L157.162 289.581L157.162 288.312L156.162 288.312ZM156.162 290.851L156.162 292.12L157.162 292.12L157.162 290.851L156.162 290.851ZM156.162 293.389L156.162 294.658L157.162 294.658L157.162 293.389L156.162 293.389ZM156.162 295.927L156.162 297.196L157.162 297.196L157.162 295.927L156.162 295.927ZM156.162 298.465L156.162 299.734L157.162 299.734L157.162 298.465L156.162 298.465ZM156.162 301.003L156.162 301.637L157.162 301.637L157.162 301.003L156.162 301.003Z" fill="#626262"/>
<line x1="217.261" y1="302.137" x2="156.285" y2="302.137" stroke="#626262" stroke-dasharray="1.26 1.26"/>
<path d="M137.698 270.297L139.404 267.661L137.698 265.036H138.627L139.949 267.136L141.292 265.036H142.211L140.505 267.661L142.211 270.297H141.292L139.949 268.146L138.637 270.297H137.698Z" fill="#141414"/>
</svg>
