<svg width="1416" height="401" viewBox="0 0 1416 401" fill="none" xmlns="http://www.w3.org/2000/svg">
<path d="M610.65 13.9635C619.411 21.3952 623.791 32.2228 623.791 46.4955V111.51H586.337V54.0748C586.337 42.4597 579.693 36.9475 570.539 36.9475C560.105 36.9475 552.87 43.7886 552.87 55.4036V111.51H515.614V54.0748C515.614 43.2472 508.576 36.9475 499.274 36.9475C489.381 36.9475 482.147 43.3948 482.147 55.4036V111.51H444.89V5.74442H481.408V20.4109C487.314 9.18956 500.8 2.54537 514.285 2.74223C527.77 2.9391 537.269 8.64818 542.633 19.4758C551 8.25445 565.076 2.74223 579.546 2.74223C591.702 2.74223 602.185 6.53188 610.749 13.9635H610.65Z" fill="#141414"/>
<path d="M695.45 114.512C678.126 114.512 664.247 109.197 653.419 98.3694C642.788 87.5418 637.424 74.4011 637.424 58.6519C637.424 42.9027 642.739 29.762 653.419 18.8852C664.247 8.0576 678.126 2.74225 695.45 2.74225C712.774 2.74225 726.653 8.0576 737.481 18.8852C748.308 29.7128 753.624 42.8535 753.624 58.6519C753.624 74.4503 748.308 87.5418 737.481 98.3694C726.653 109.197 712.774 114.512 695.45 114.512ZM716.367 58.455C716.367 46.84 707.409 37.735 695.45 37.735C683.49 37.735 674.73 46.84 674.73 58.455C674.73 70.6115 683.835 79.5688 695.45 79.5688C707.065 79.5688 716.367 70.6115 716.367 58.455Z" fill="#141414"/>
<path d="M747.57 242.13L763.171 216.439C775.131 224.609 786.155 228.792 796.048 228.792C802.298 228.792 805.546 227.07 805.546 223.871C805.546 222.345 804.021 221.016 800.772 219.884C797.721 218.752 778.724 213.24 774.54 211.124C760.661 205.218 753.82 195.325 753.82 181.643C753.82 171.357 758.004 162.99 766.37 156.74C774.737 150.44 785.762 147.241 799.641 147.241C814.652 147.241 828.334 151.621 840.539 160.382L825.331 185.285C816.03 179.773 807.269 176.919 799.296 176.919C793.784 176.919 790.929 178.444 790.929 181.299C790.929 184.153 794.178 186.22 800.822 187.746C810.124 189.862 818.293 192.668 825.528 196.31C838.472 202.954 843.394 211.124 843.394 223.329C843.394 233.96 839.21 242.721 830.844 249.365C822.477 256.009 811.059 259.257 796.441 259.257C777.985 259.257 761.646 253.548 747.57 242.13Z" fill="#141414"/>
<path d="M934.444 150.44H969.633V256.157H934.444V248.725C925.88 255.369 915.987 258.814 904.766 258.814C889.755 258.814 877.402 253.499 867.706 242.819C858.011 231.991 853.237 218.654 853.237 202.905C853.237 187.155 858.158 174.015 867.854 163.532C877.55 153.098 889.903 147.733 904.766 147.733C916.381 147.733 926.274 151.178 934.444 158.167V150.391V150.44ZM927.406 218.555C931.589 214.175 933.656 209.057 933.656 203.151C933.656 197.245 931.589 192.323 927.406 188.14C923.222 183.956 918.104 181.84 912.001 181.84C899.845 181.84 890.493 191.536 890.493 203.151C890.493 209.057 892.561 214.175 896.744 218.555C900.927 222.739 906.046 224.806 911.952 224.806C917.858 224.806 923.173 222.739 927.356 218.555H927.406Z" fill="#141414"/>
<path d="M612.963 398.342H575.509V292.626H612.963V398.342Z" fill="#141414"/>
<path d="M642.591 385.202C632.157 374.768 626.989 361.43 626.989 345.287C626.989 329.144 632.108 315.807 642.591 305.57C653.025 295.136 666.756 289.968 683.687 289.968C705.932 289.968 725.323 300.402 734.625 321.516L704.948 336.92C700.026 328.751 693.136 324.567 684.622 324.567C672.465 324.567 663.902 333.328 663.902 345.287C663.902 357.247 672.465 366.401 684.425 366.401C693.382 366.401 701.355 361.479 704.603 354.048L734.478 371.716C725.176 389.779 706.326 400.606 683.342 400.606C666.805 400.606 653.123 395.488 642.64 385.202H642.591Z" fill="#141414"/>
<path d="M919.974 0.478271H827.054C796.122 0.478271 771.046 25.5539 771.046 56.4864C771.046 87.4188 796.122 112.494 827.054 112.494H919.974C950.907 112.494 975.982 87.4188 975.982 56.4864C975.982 25.5539 950.907 0.478271 919.974 0.478271Z" fill="#2B5FFC"/>
<path d="M919.974 288.984H812.634C781.701 288.984 756.625 314.059 756.625 344.992C756.625 375.924 781.701 401 812.634 401H919.974C950.907 401 975.982 375.924 975.982 344.992C975.982 314.059 950.907 288.984 919.974 288.984Z" fill="#00C14F"/>
<path d="M495.632 288.984H495.583C464.895 288.984 440.018 313.861 440.018 344.549V345.435C440.018 376.123 464.895 401 495.583 401H495.632C526.32 401 551.197 376.123 551.197 345.435V344.549C551.197 313.861 526.32 288.984 495.632 288.984Z" fill="#FF5E09"/>
<path d="M674.139 144.633H496.026C465.093 144.633 440.018 169.708 440.018 200.641C440.018 231.573 465.093 256.649 496.026 256.649H674.139C705.072 256.649 730.147 231.573 730.147 200.641C730.147 169.708 705.072 144.633 674.139 144.633Z" fill="#FFDA01"/>
</svg>
