<svg width="440" height="440" viewBox="0 0 440 440" fill="none" xmlns="http://www.w3.org/2000/svg">
<rect x="0.5" y="0.5" width="439" height="439" rx="7.5" fill="white"/>
<rect x="0.5" y="0.5" width="439" height="439" rx="7.5" stroke="#141414"/>
<rect x="129" y="122.855" width="182" height="37.0741" rx="18.537" fill="#141414"/>
<rect x="129" y="173.929" width="87.6296" height="37.0741" rx="18.537" fill="#141414"/>
<rect x="223.37" y="173.929" width="87.6296" height="37.0741" rx="18.537" fill="#141414"/>
<rect x="129" y="225.003" width="182" height="37.0741" rx="18.537" fill="#141414"/>
<path d="M171.986 290.551C174.26 292.469 175.397 295.275 175.397 298.988V315.845H165.68V300.96C165.68 297.958 163.957 296.519 161.595 296.519C158.877 296.519 157.012 298.295 157.012 301.297V315.845H147.349V300.96C147.349 298.153 145.52 296.519 143.104 296.519C140.546 296.519 138.663 298.189 138.663 301.297V315.845H129V288.419H138.468V292.22C139.995 289.307 143.495 287.584 146.994 287.637C150.493 287.691 152.962 289.165 154.348 291.972C156.515 289.058 160.156 287.637 163.904 287.637C167.066 287.637 169.766 288.614 171.986 290.551Z" fill="#141414"/>
<path d="M193.995 316.627C189.501 316.627 185.912 315.241 183.106 312.435C180.353 309.628 178.967 306.217 178.967 302.132C178.967 298.047 180.353 294.636 183.106 291.83C185.912 289.023 189.518 287.637 193.995 287.637C198.471 287.637 202.077 289.023 204.883 291.83C207.69 294.636 209.075 298.047 209.075 302.132C209.075 306.217 207.69 309.628 204.883 312.435C202.077 315.241 198.471 316.627 193.995 316.627ZM199.412 302.079C199.412 299.077 197.103 296.697 193.995 296.697C190.886 296.697 188.612 299.059 188.612 302.079C188.612 305.241 190.975 307.55 193.995 307.55C197.014 307.55 199.412 305.241 199.412 302.079Z" fill="#141414"/>
<path d="M210.763 312.186L214.813 305.525C217.921 307.639 220.781 308.722 223.339 308.722C224.973 308.722 225.808 308.278 225.808 307.443C225.808 307.052 225.417 306.697 224.582 306.413C223.801 306.111 218.863 304.69 217.779 304.139C214.173 302.612 212.397 300.054 212.397 296.501C212.397 293.837 213.481 291.67 215.648 290.035C217.815 288.401 220.675 287.566 224.28 287.566C228.171 287.566 231.723 288.703 234.885 290.977L230.942 297.443C228.526 296.022 226.252 295.276 224.192 295.276C222.771 295.276 222.025 295.666 222.025 296.412C222.025 297.158 222.859 297.691 224.582 298.082C226.998 298.633 229.112 299.361 230.995 300.302C234.352 302.025 235.631 304.157 235.631 307.301C235.631 310.054 234.547 312.328 232.38 314.051C230.213 315.774 227.247 316.609 223.463 316.609C218.685 316.609 214.44 315.135 210.798 312.168L210.763 312.186Z" fill="#141414"/>
<path d="M264.105 299.858V315.827H255.525V313.518C253.501 315.436 250.889 316.431 247.639 316.431C241.528 316.431 238.224 312.736 238.224 307.763C238.224 301.155 244.282 298.988 250.996 298.846C252.417 298.846 253.802 298.846 255.135 298.793C254.797 296.874 253.27 295.933 250.641 295.933C247.781 295.933 244.868 296.625 241.955 297.958L239.095 290.817C243.429 288.792 247.479 287.762 251.227 287.762C259.806 287.762 264.087 291.812 264.087 299.894L264.105 299.858ZM255.188 305.24C254.744 305.24 253.962 305.24 252.914 305.294C251.884 305.294 251.245 305.294 250.943 305.347C248.474 305.454 247.248 306.129 247.248 307.425C247.248 308.615 248.083 309.202 249.717 309.202C252.275 309.202 254.797 307.621 255.188 305.258V305.24Z" fill="#141414"/>
<path d="M278.813 315.845H269.096V288.419H278.813V315.827V315.845Z" fill="#141414"/>
<path d="M286.504 312.435C283.786 309.717 282.454 306.271 282.454 302.079C282.454 297.887 283.786 294.441 286.504 291.776C289.222 289.059 292.757 287.726 297.162 287.726C302.935 287.726 307.962 290.444 310.377 295.915L302.686 299.912C301.407 297.798 299.631 296.714 297.41 296.714C294.249 296.714 292.028 298.988 292.028 302.097C292.028 305.205 294.249 307.568 297.357 307.568C299.666 307.568 301.745 306.289 302.58 304.37L310.324 308.953C307.908 313.642 303.024 316.449 297.055 316.449C292.774 316.449 289.222 315.117 286.504 312.452V312.435Z" fill="#141414"/>
</svg>
