<svg width="1416" height="515" viewBox="0 0 1416 515" fill="none" xmlns="http://www.w3.org/2000/svg">
<path d="M358.283 86.0544C358.283 95.9568 357.082 104.98 354.68 113.125C352.336 121.211 348.645 128.183 343.605 134.043C338.566 139.902 332.092 144.414 324.182 147.578C316.271 150.683 306.809 152.236 295.793 152.236C285.012 152.236 275.666 150.683 267.756 147.578C259.904 144.414 253.43 139.931 248.332 134.131C243.234 128.271 239.455 121.269 236.994 113.125C234.533 104.98 233.303 95.8982 233.303 85.8787C233.303 72.5193 235.5 60.9177 239.895 51.074C244.348 41.1716 251.203 33.5251 260.461 28.1345C269.719 22.6853 281.555 19.9607 295.969 19.9607C310.617 19.9607 322.512 22.6853 331.652 28.1345C340.852 33.5837 347.59 41.2595 351.867 51.1619C356.145 61.0642 358.283 72.6951 358.283 86.0544ZM269.865 86.0544C269.865 93.7888 270.744 100.439 272.502 106.006C274.26 111.572 277.043 115.849 280.852 118.838C284.66 121.826 289.641 123.32 295.793 123.32C302.18 123.32 307.248 121.826 310.998 118.838C314.807 115.849 317.531 111.572 319.172 106.006C320.871 100.439 321.721 93.7888 321.721 86.0544C321.721 74.4529 319.787 65.283 315.92 58.5447C312.053 51.8064 305.402 48.4373 295.969 48.4373C289.699 48.4373 284.631 49.9607 280.764 53.0076C276.955 56.0544 274.172 60.3904 272.414 66.0154C270.715 71.6404 269.865 78.3201 269.865 86.0544ZM440.285 49.1404C451.301 49.1404 459.943 53.5642 466.213 62.4119C472.482 71.2009 475.617 83.8865 475.617 100.469C475.617 111.777 474.035 121.299 470.871 129.033C467.707 136.709 463.371 142.51 457.863 146.435C452.414 150.302 446.203 152.236 439.23 152.236C434.543 152.236 430.559 151.65 427.277 150.478C424.055 149.306 421.359 147.842 419.191 146.084C417.082 144.326 415.295 142.539 413.83 140.722H412.775C413.068 143.008 413.303 145.469 413.479 148.105C413.713 150.742 413.83 153.818 413.83 157.334V193.72H379.465V50.8982H407.414L412.248 63.5544H413.83C415.471 60.9763 417.463 58.6033 419.807 56.4353C422.15 54.2087 424.992 52.4509 428.332 51.1619C431.73 49.8142 435.715 49.1404 440.285 49.1404ZM427.365 76.1228C424.025 76.1228 421.389 76.9138 419.455 78.4958C417.521 80.0779 416.115 82.4802 415.236 85.7029C414.416 88.8669 413.947 92.822 413.83 97.5681V100.293C413.83 105.566 414.24 110.019 415.061 113.652C415.881 117.226 417.287 119.951 419.279 121.826C421.271 123.642 424.025 124.551 427.541 124.551C430.412 124.551 432.814 123.73 434.748 122.09C436.682 120.449 438.146 117.842 439.143 114.267C440.139 110.693 440.637 105.976 440.637 100.117C440.637 91.3865 439.494 85.2048 437.209 81.572C434.982 77.9392 431.701 76.1228 427.365 76.1228ZM540.129 49.1404C549.797 49.1404 558.146 50.8396 565.178 54.238C572.209 57.5779 577.629 62.6169 581.438 69.3552C585.246 76.0935 587.15 84.531 587.15 94.6677V109.961H525.715C526.008 115.176 527.941 119.453 531.516 122.793C535.148 126.133 540.48 127.802 547.512 127.802C553.723 127.802 559.406 127.187 564.562 125.957C569.777 124.726 575.139 122.822 580.646 120.244V144.941C575.842 147.461 570.598 149.306 564.914 150.478C559.23 151.65 552.053 152.236 543.381 152.236C533.361 152.236 524.396 150.449 516.486 146.875C508.576 143.301 502.336 137.763 497.766 130.263C493.254 122.763 490.998 113.125 490.998 101.347C490.998 89.3943 493.049 79.5798 497.15 71.9041C501.252 64.1697 506.994 58.4568 514.377 54.7654C521.76 51.0154 530.344 49.1404 540.129 49.1404ZM541.359 72.5193C537.316 72.5193 533.918 73.8083 531.164 76.3865C528.469 78.906 526.887 82.8904 526.418 88.3396H555.949C555.891 85.4099 555.305 82.7439 554.191 80.3416C553.078 77.9392 551.438 76.0349 549.27 74.6287C547.16 73.2224 544.523 72.5193 541.359 72.5193ZM668.889 49.1404C679.143 49.1404 687.521 52.0408 694.025 57.8416C700.529 63.6423 703.781 72.9294 703.781 85.7029V150.478H669.416V96.1619C669.416 89.5408 668.449 84.5603 666.516 81.2205C664.641 77.822 661.594 76.1228 657.375 76.1228C650.871 76.1228 646.506 78.7888 644.279 84.1208C642.053 89.3943 640.939 96.9822 640.939 106.885V150.478H606.574V50.8982H632.502L637.16 64.0818H638.479C640.588 60.9177 643.107 58.2224 646.037 55.9958C648.967 53.7693 652.336 52.0701 656.145 50.8982C659.953 49.7263 664.201 49.1404 668.889 49.1404ZM859.963 111.455C859.963 118.427 858.205 125.049 854.689 131.318C851.174 137.529 845.695 142.568 838.254 146.435C830.871 150.302 821.32 152.236 809.602 152.236C803.742 152.236 798.586 151.972 794.133 151.445C789.738 150.918 785.637 150.068 781.828 148.896C778.02 147.666 774.064 146.084 769.963 144.15V113.213C776.936 116.728 783.967 119.424 791.057 121.299C798.146 123.115 804.562 124.023 810.305 124.023C813.762 124.023 816.574 123.613 818.742 122.793C820.969 121.972 822.609 120.859 823.664 119.453C824.719 117.988 825.246 116.318 825.246 114.443C825.246 112.217 824.455 110.342 822.873 108.818C821.35 107.236 818.889 105.595 815.49 103.896C812.092 102.197 807.609 100.088 802.043 97.5681C797.297 95.3416 792.99 93.0564 789.123 90.7126C785.314 88.3689 782.033 85.7029 779.279 82.7146C776.584 79.6677 774.504 76.1228 773.039 72.0798C771.574 68.0369 770.842 63.2615 770.842 57.7537C770.842 49.4919 772.863 42.5779 776.906 37.0115C781.008 31.3865 786.691 27.1677 793.957 24.3552C801.281 21.5427 809.719 20.1365 819.27 20.1365C827.648 20.1365 835.178 21.074 841.857 22.949C848.596 24.824 854.631 26.9626 859.963 29.365L849.328 56.1716C843.82 53.6521 838.4 51.6599 833.068 50.1951C827.736 48.6716 822.785 47.9099 818.215 47.9099C815.227 47.9099 812.766 48.2908 810.832 49.0525C808.957 49.7556 807.551 50.7224 806.613 51.9529C805.734 53.1833 805.295 54.5896 805.295 56.1716C805.295 58.1638 806.057 59.9509 807.58 61.533C809.162 63.115 811.77 64.8435 815.402 66.7185C819.094 68.5349 824.104 70.908 830.432 73.8376C836.701 76.6501 842.033 79.697 846.428 82.9783C850.822 86.2009 854.162 90.0974 856.447 94.6677C858.791 99.1794 859.963 104.775 859.963 111.455ZM926.408 49.1404C939.006 49.1404 948.85 52.2751 955.939 58.5447C963.029 64.7556 966.574 73.6326 966.574 85.1755V150.478H942.756L936.164 137.295H935.461C932.648 140.81 929.748 143.681 926.76 145.908C923.83 148.076 920.461 149.658 916.652 150.654C912.844 151.709 908.186 152.236 902.678 152.236C896.936 152.236 891.779 151.064 887.209 148.72C882.639 146.377 879.035 142.832 876.398 138.086C873.762 133.34 872.443 127.334 872.443 120.068C872.443 109.404 876.135 101.494 883.518 96.3376C890.9 91.1814 901.594 88.281 915.598 87.6365L932.209 87.1091V85.7029C932.209 81.2498 931.096 78.0857 928.869 76.2107C926.701 74.3357 923.771 73.3982 920.08 73.3982C916.154 73.3982 911.76 74.1013 906.896 75.5076C902.092 76.8552 897.258 78.613 892.395 80.781L882.463 58.1052C888.205 55.1755 894.709 52.949 901.975 51.4255C909.24 49.9021 917.385 49.1404 926.408 49.1404ZM932.385 106.006L924.475 106.357C918.146 106.592 913.693 107.705 911.115 109.697C908.596 111.631 907.336 114.414 907.336 118.047C907.336 121.445 908.244 123.965 910.061 125.605C911.877 127.187 914.279 127.978 917.268 127.978C921.428 127.978 924.973 126.66 927.902 124.023C930.891 121.386 932.385 117.959 932.385 113.74V106.006ZM1052.27 49.1404C1062.52 49.1404 1070.9 52.0408 1077.4 57.8416C1083.91 63.6423 1087.16 72.9294 1087.16 85.7029V150.478H1052.79V96.1619C1052.79 89.5408 1051.83 84.5603 1049.89 81.2205C1048.02 77.822 1044.97 76.1228 1040.75 76.1228C1034.25 76.1228 1029.88 78.7888 1027.66 84.1208C1025.43 89.3943 1024.32 96.9822 1024.32 106.885V150.478H989.953V50.8982H1015.88L1020.54 64.0818H1021.86C1023.97 60.9177 1026.49 58.2224 1029.42 55.9958C1032.35 53.7693 1035.71 52.0701 1039.52 50.8982C1043.33 49.7263 1047.58 49.1404 1052.27 49.1404ZM1184.54 119.892C1184.54 126.22 1183.14 131.816 1180.32 136.679C1177.51 141.543 1173 145.351 1166.79 148.105C1160.64 150.859 1152.52 152.236 1142.44 152.236C1135.35 152.236 1129 151.855 1123.37 151.094C1117.8 150.332 1112.15 148.867 1106.41 146.699V119.189C1112.68 122.06 1119.06 124.14 1125.57 125.429C1132.07 126.66 1137.2 127.275 1140.95 127.275C1144.82 127.275 1147.63 126.865 1149.39 126.045C1151.2 125.166 1152.11 123.877 1152.11 122.177C1152.11 120.713 1151.5 119.482 1150.27 118.486C1149.09 117.431 1146.96 116.23 1143.85 114.883C1140.8 113.535 1136.5 111.719 1130.93 109.433C1125.42 107.148 1120.82 104.658 1117.13 101.963C1113.5 99.2673 1110.77 96.0447 1108.96 92.2947C1107.14 88.5447 1106.23 83.9451 1106.23 78.4958C1106.23 68.7693 1109.98 61.4451 1117.48 56.5232C1124.98 51.6013 1134.91 49.1404 1147.28 49.1404C1153.84 49.1404 1160.02 49.8728 1165.82 51.3376C1171.62 52.7439 1177.63 54.824 1183.84 57.5779L1174.44 79.7263C1169.51 77.4998 1164.53 75.7126 1159.49 74.365C1154.46 73.0173 1150.44 72.3435 1147.45 72.3435C1144.76 72.3435 1142.68 72.6951 1141.21 73.3982C1139.75 74.1013 1139.02 75.1267 1139.02 76.4744C1139.02 77.7048 1139.51 78.7888 1140.51 79.7263C1141.56 80.6638 1143.53 81.7478 1146.4 82.9783C1149.27 84.2087 1153.46 85.9373 1158.97 88.1638C1164.77 90.5076 1169.54 93.0271 1173.29 95.7224C1177.1 98.3591 1179.91 101.582 1181.73 105.39C1183.61 109.199 1184.54 114.033 1184.54 119.892Z" fill="#141414"/>
<path d="M416.569 293.792C416.569 302.044 415.568 309.563 413.566 316.35C411.613 323.089 408.537 328.899 404.338 333.782C400.139 338.665 394.743 342.425 388.151 345.061C381.56 347.649 373.674 348.943 364.494 348.943C355.51 348.943 347.722 347.649 341.13 345.061C334.587 342.425 329.191 338.689 324.943 333.855C320.695 328.972 317.546 323.137 315.495 316.35C313.444 309.563 312.419 301.995 312.419 293.645C312.419 282.512 314.25 272.844 317.912 264.641C321.623 256.389 327.336 250.017 335.051 245.525C342.766 240.984 352.629 238.714 364.641 238.714C376.848 238.714 386.76 240.984 394.377 245.525C402.043 250.066 407.658 256.463 411.223 264.715C414.787 272.967 416.569 282.659 416.569 293.792ZM342.888 293.792C342.888 300.237 343.62 305.779 345.085 310.418C346.55 315.056 348.869 318.621 352.043 321.111C355.217 323.601 359.367 324.846 364.494 324.846C369.816 324.846 374.04 323.601 377.165 321.111C380.339 318.621 382.609 315.056 383.977 310.418C385.393 305.779 386.101 300.237 386.101 293.792C386.101 284.124 384.489 276.482 381.267 270.867C378.044 265.252 372.502 262.444 364.641 262.444C359.416 262.444 355.192 263.714 351.97 266.253C348.796 268.792 346.477 272.405 345.012 277.093C343.596 281.78 342.888 287.346 342.888 293.792ZM484.904 263.03C494.084 263.03 501.286 266.717 506.511 274.09C511.735 281.414 514.348 291.985 514.348 305.803C514.348 315.227 513.029 323.162 510.393 329.607C507.756 336.004 504.143 340.838 499.553 344.109C495.012 347.332 489.836 348.943 484.025 348.943C480.119 348.943 476.799 348.455 474.064 347.478C471.379 346.502 469.133 345.281 467.326 343.816C465.568 342.351 464.079 340.862 462.858 339.348H461.979C462.224 341.253 462.419 343.303 462.565 345.501C462.761 347.698 462.858 350.261 462.858 353.191V383.513H434.221V264.495H457.512L461.54 275.042H462.858C464.226 272.893 465.886 270.916 467.839 269.109C469.792 267.254 472.16 265.789 474.943 264.715C477.775 263.592 481.096 263.03 484.904 263.03ZM474.138 285.515C471.354 285.515 469.157 286.175 467.546 287.493C465.935 288.811 464.763 290.813 464.03 293.499C463.347 296.135 462.956 299.431 462.858 303.386V305.657C462.858 310.052 463.2 313.762 463.884 316.79C464.567 319.768 465.739 322.039 467.399 323.601C469.06 325.115 471.354 325.872 474.284 325.872C476.677 325.872 478.679 325.188 480.29 323.821C481.901 322.454 483.122 320.281 483.952 317.302C484.782 314.324 485.197 310.393 485.197 305.51C485.197 298.235 484.245 293.084 482.341 290.056C480.485 287.029 477.751 285.515 474.138 285.515ZM568.107 263.03C576.164 263.03 583.122 264.446 588.981 267.278C594.841 270.061 599.357 274.26 602.531 279.876C605.705 285.491 607.292 292.522 607.292 300.969V313.714H556.096C556.34 318.059 557.951 321.624 560.93 324.407C563.957 327.19 568.4 328.582 574.26 328.582C579.436 328.582 584.172 328.069 588.469 327.044C592.814 326.018 597.282 324.431 601.872 322.283V342.864C597.868 344.964 593.498 346.502 588.762 347.478C584.025 348.455 578.044 348.943 570.817 348.943C562.468 348.943 554.997 347.454 548.405 344.475C541.813 341.497 536.613 336.883 532.805 330.633C529.045 324.383 527.165 316.35 527.165 306.536C527.165 296.575 528.874 288.396 532.292 282C535.71 275.554 540.495 270.794 546.647 267.718C552.8 264.593 559.953 263.03 568.107 263.03ZM569.133 282.512C565.764 282.512 562.932 283.587 560.637 285.735C558.391 287.835 557.072 291.155 556.682 295.696H581.291C581.242 293.255 580.754 291.033 579.826 289.031C578.898 287.029 577.531 285.442 575.725 284.27C573.967 283.098 571.77 282.512 569.133 282.512ZM675.407 263.03C683.952 263.03 690.935 265.447 696.354 270.281C701.774 275.115 704.484 282.854 704.484 293.499V347.478H675.847V302.215C675.847 296.697 675.041 292.547 673.43 289.763C671.867 286.931 669.328 285.515 665.812 285.515C660.393 285.515 656.755 287.737 654.899 292.18C653.044 296.575 652.116 302.898 652.116 311.15V347.478H623.479V264.495H645.085L648.967 275.481H650.065C651.823 272.844 653.923 270.598 656.364 268.743C658.806 266.887 661.613 265.471 664.787 264.495C667.961 263.518 671.501 263.03 675.407 263.03ZM834.636 314.959C834.636 320.769 833.171 326.287 830.241 331.511C827.312 336.687 822.746 340.886 816.545 344.109C810.393 347.332 802.434 348.943 792.668 348.943C787.785 348.943 783.488 348.723 779.777 348.284C776.115 347.844 772.697 347.136 769.523 346.16C766.35 345.135 763.054 343.816 759.636 342.205V316.424C765.446 319.353 771.306 321.599 777.214 323.162C783.122 324.676 788.469 325.432 793.254 325.432C796.135 325.432 798.479 325.091 800.285 324.407C802.141 323.723 803.508 322.796 804.387 321.624C805.266 320.403 805.705 319.011 805.705 317.449C805.705 315.594 805.046 314.031 803.728 312.761C802.458 311.443 800.407 310.076 797.575 308.66C794.743 307.244 791.008 305.486 786.369 303.386C782.414 301.531 778.825 299.627 775.603 297.674C772.429 295.72 769.694 293.499 767.399 291.009C765.153 288.469 763.42 285.515 762.199 282.146C760.979 278.777 760.368 274.798 760.368 270.208C760.368 263.323 762.053 257.561 765.422 252.923C768.84 248.235 773.576 244.719 779.631 242.376C785.734 240.032 792.766 238.86 800.725 238.86C807.707 238.86 813.981 239.641 819.548 241.204C825.163 242.766 830.192 244.549 834.636 246.551L825.773 268.889C821.184 266.79 816.667 265.13 812.224 263.909C807.78 262.639 803.654 262.005 799.846 262.005C797.355 262.005 795.305 262.322 793.693 262.957C792.131 263.543 790.959 264.348 790.178 265.374C789.445 266.399 789.079 267.571 789.079 268.889C789.079 270.55 789.714 272.039 790.983 273.357C792.302 274.676 794.475 276.116 797.502 277.678C800.578 279.192 804.753 281.17 810.026 283.611C815.251 285.955 819.694 288.494 823.356 291.228C827.019 293.914 829.802 297.161 831.706 300.969C833.659 304.729 834.636 309.392 834.636 314.959ZM890.007 263.03C900.505 263.03 908.708 265.642 914.616 270.867C920.524 276.043 923.479 283.44 923.479 293.059V347.478H903.63L898.137 336.492H897.551C895.207 339.422 892.79 341.814 890.3 343.67C887.858 345.476 885.051 346.795 881.877 347.625C878.703 348.504 874.821 348.943 870.231 348.943C865.446 348.943 861.149 347.967 857.341 346.013C853.532 344.06 850.529 341.106 848.332 337.151C846.135 333.196 845.036 328.191 845.036 322.136C845.036 313.25 848.112 306.658 854.265 302.361C860.417 298.064 869.328 295.647 880.998 295.11L894.841 294.671V293.499C894.841 289.788 893.913 287.151 892.058 285.589C890.251 284.026 887.81 283.245 884.733 283.245C881.462 283.245 877.8 283.831 873.747 285.003C869.743 286.126 865.715 287.591 861.662 289.397L853.386 270.501C858.171 268.059 863.591 266.204 869.646 264.934C875.7 263.665 882.487 263.03 890.007 263.03ZM894.987 310.418L888.396 310.711C883.122 310.906 879.411 311.834 877.263 313.494C875.163 315.105 874.113 317.425 874.113 320.452C874.113 323.284 874.87 325.384 876.384 326.751C877.897 328.069 879.899 328.728 882.39 328.728C885.856 328.728 888.811 327.63 891.252 325.432C893.742 323.235 894.987 320.379 894.987 316.863V310.418ZM994.89 263.03C1003.43 263.03 1010.42 265.447 1015.84 270.281C1021.26 275.115 1023.97 282.854 1023.97 293.499V347.478H995.329V302.215C995.329 296.697 994.523 292.547 992.912 289.763C991.35 286.931 988.811 285.515 985.295 285.515C979.875 285.515 976.237 287.737 974.382 292.18C972.526 296.575 971.599 302.898 971.599 311.15V347.478H942.961V264.495H964.567L968.449 275.481H969.548C971.306 272.844 973.405 270.598 975.847 268.743C978.288 266.887 981.096 265.471 984.27 264.495C987.443 263.518 990.983 263.03 994.89 263.03ZM1105.12 321.99C1105.12 327.263 1103.95 331.927 1101.6 335.979C1099.26 340.032 1095.5 343.206 1090.32 345.501C1085.2 347.796 1078.43 348.943 1070.04 348.943C1064.13 348.943 1058.83 348.626 1054.14 347.991C1049.5 347.356 1044.79 346.135 1040.01 344.329V321.404C1045.23 323.797 1050.55 325.53 1055.97 326.604C1061.39 327.63 1065.67 328.142 1068.79 328.142C1072.01 328.142 1074.36 327.801 1075.82 327.117C1077.34 326.385 1078.09 325.31 1078.09 323.894C1078.09 322.674 1077.58 321.648 1076.55 320.818C1075.58 319.939 1073.8 318.938 1071.21 317.815C1068.67 316.692 1065.08 315.178 1060.44 313.274C1055.85 311.37 1052.02 309.295 1048.94 307.049C1045.92 304.802 1043.64 302.117 1042.13 298.992C1040.62 295.867 1039.86 292.034 1039.86 287.493C1039.86 279.387 1042.99 273.284 1049.24 269.182C1055.49 265.081 1063.76 263.03 1074.06 263.03C1079.53 263.03 1084.68 263.64 1089.52 264.861C1094.35 266.033 1099.36 267.766 1104.53 270.061L1096.7 288.518C1092.59 286.663 1088.44 285.174 1084.25 284.051C1080.05 282.927 1076.7 282.366 1074.21 282.366C1071.96 282.366 1070.23 282.659 1069.01 283.245C1067.79 283.831 1067.18 284.685 1067.18 285.808C1067.18 286.834 1067.59 287.737 1068.42 288.518C1069.3 289.3 1070.94 290.203 1073.33 291.228C1075.72 292.254 1079.22 293.694 1083.81 295.55C1088.64 297.503 1092.62 299.602 1095.74 301.848C1098.92 304.046 1101.26 306.731 1102.78 309.905C1104.34 313.079 1105.12 317.107 1105.12 321.99Z" fill="#434343"/>
<mask id="path-3-outside-1_1229_13097" maskUnits="userSpaceOnUse" x="440" y="409.478" width="538" height="106" fill="black">
<rect fill="white" x="440" y="409.478" width="538" height="106"/>
<path d="M513.713 450.687C513.713 456.189 513.046 461.202 511.711 465.726C510.409 470.219 508.358 474.092 505.559 477.347C502.759 480.603 499.162 483.109 494.768 484.867C490.373 486.592 485.116 487.455 478.996 487.455C473.007 487.455 467.814 486.592 463.42 484.867C459.058 483.109 455.461 480.619 452.629 477.396C449.797 474.141 447.697 470.251 446.33 465.726C444.963 461.202 444.279 456.156 444.279 450.59C444.279 443.168 445.5 436.722 447.941 431.254C450.415 425.752 454.224 421.504 459.367 418.51C464.51 415.482 471.086 413.969 479.094 413.969C487.232 413.969 493.84 415.482 498.918 418.51C504.029 421.537 507.772 425.801 510.148 431.302C512.525 436.804 513.713 443.265 513.713 450.687ZM464.592 450.687C464.592 454.984 465.08 458.679 466.057 461.771C467.033 464.864 468.579 467.24 470.695 468.9C472.811 470.56 475.578 471.39 478.996 471.39C482.544 471.39 485.36 470.56 487.443 468.9C489.559 467.24 491.073 464.864 491.984 461.771C492.928 458.679 493.4 454.984 493.4 450.687C493.4 444.242 492.326 439.148 490.178 435.404C488.029 431.661 484.335 429.789 479.094 429.789C475.611 429.789 472.795 430.635 470.646 432.328C468.531 434.021 466.984 436.429 466.008 439.554C465.064 442.679 464.592 446.39 464.592 450.687ZM559.27 430.179C565.389 430.179 570.191 432.637 573.674 437.552C577.157 442.435 578.898 449.483 578.898 458.695C578.898 464.978 578.02 470.267 576.262 474.564C574.504 478.829 572.095 482.051 569.035 484.232C566.008 486.381 562.557 487.455 558.684 487.455C556.079 487.455 553.866 487.129 552.043 486.478C550.253 485.827 548.755 485.013 547.551 484.037C546.379 483.06 545.386 482.067 544.572 481.058H543.986C544.149 482.328 544.279 483.695 544.377 485.16C544.507 486.625 544.572 488.334 544.572 490.287V510.502H525.48V431.156H541.008L543.693 438.187H544.572C545.484 436.755 546.59 435.437 547.893 434.232C549.195 432.995 550.773 432.019 552.629 431.302C554.517 430.554 556.73 430.179 559.27 430.179ZM552.092 445.17C550.236 445.17 548.771 445.609 547.697 446.488C546.623 447.367 545.842 448.702 545.354 450.492C544.898 452.25 544.637 454.447 544.572 457.084V458.597C544.572 461.527 544.8 464.001 545.256 466.019C545.712 468.005 546.493 469.519 547.6 470.56C548.706 471.569 550.236 472.074 552.189 472.074C553.785 472.074 555.119 471.618 556.193 470.707C557.268 469.795 558.081 468.347 558.635 466.361C559.188 464.375 559.465 461.755 559.465 458.5C559.465 453.649 558.83 450.215 557.561 448.197C556.324 446.179 554.501 445.17 552.092 445.17ZM614.738 430.179C620.109 430.179 624.748 431.123 628.654 433.011C632.561 434.867 635.572 437.666 637.688 441.41C639.803 445.153 640.861 449.841 640.861 455.472V463.969H606.73C606.893 466.866 607.967 469.242 609.953 471.097C611.971 472.953 614.934 473.881 618.84 473.881C622.29 473.881 625.448 473.539 628.312 472.855C631.21 472.172 634.188 471.114 637.248 469.681V483.402C634.579 484.802 631.665 485.827 628.508 486.478C625.35 487.129 621.363 487.455 616.545 487.455C610.979 487.455 605.998 486.462 601.604 484.476C597.209 482.491 593.742 479.414 591.203 475.248C588.697 471.081 587.443 465.726 587.443 459.183C587.443 452.543 588.583 447.09 590.861 442.826C593.14 438.529 596.33 435.355 600.432 433.304C604.533 431.221 609.302 430.179 614.738 430.179ZM615.422 443.168C613.176 443.168 611.288 443.884 609.758 445.316C608.26 446.716 607.382 448.929 607.121 451.957H623.527C623.495 450.329 623.169 448.848 622.551 447.513C621.932 446.179 621.021 445.121 619.816 444.34C618.645 443.558 617.18 443.168 615.422 443.168ZM686.271 430.179C691.968 430.179 696.623 431.791 700.236 435.013C703.85 438.236 705.656 443.396 705.656 450.492V486.478H686.564V456.302C686.564 452.624 686.027 449.857 684.953 448.002C683.911 446.114 682.219 445.17 679.875 445.17C676.262 445.17 673.837 446.651 672.6 449.613C671.363 452.543 670.744 456.758 670.744 462.26V486.478H651.652V431.156H666.057L668.645 438.48H669.377C670.549 436.722 671.949 435.225 673.576 433.988C675.204 432.751 677.076 431.807 679.191 431.156C681.307 430.505 683.667 430.179 686.271 430.179ZM792.424 464.799C792.424 468.672 791.447 472.351 789.494 475.834C787.541 479.284 784.497 482.084 780.363 484.232C776.262 486.381 770.956 487.455 764.445 487.455C761.19 487.455 758.326 487.308 755.852 487.015C753.41 486.722 751.132 486.25 749.016 485.599C746.9 484.916 744.702 484.037 742.424 482.963V465.775C746.298 467.728 750.204 469.226 754.143 470.267C758.081 471.276 761.646 471.781 764.836 471.781C766.757 471.781 768.319 471.553 769.523 471.097C770.76 470.642 771.672 470.023 772.258 469.242C772.844 468.428 773.137 467.5 773.137 466.459C773.137 465.222 772.697 464.18 771.818 463.334C770.972 462.455 769.605 461.543 767.717 460.599C765.829 459.655 763.339 458.483 760.246 457.084C757.609 455.847 755.217 454.577 753.068 453.275C750.952 451.973 749.13 450.492 747.6 448.832C746.102 447.139 744.947 445.17 744.133 442.924C743.319 440.677 742.912 438.024 742.912 434.965C742.912 430.375 744.035 426.534 746.281 423.441C748.56 420.316 751.717 417.972 755.754 416.41C759.823 414.847 764.51 414.066 769.816 414.066C774.471 414.066 778.654 414.587 782.365 415.629C786.109 416.67 789.462 417.858 792.424 419.193L786.516 434.086C783.456 432.686 780.445 431.579 777.482 430.765C774.52 429.919 771.77 429.496 769.23 429.496C767.57 429.496 766.203 429.707 765.129 430.131C764.087 430.521 763.306 431.058 762.785 431.742C762.297 432.426 762.053 433.207 762.053 434.086C762.053 435.192 762.476 436.185 763.322 437.064C764.201 437.943 765.65 438.903 767.668 439.945C769.719 440.954 772.502 442.273 776.018 443.9C779.501 445.463 782.463 447.155 784.904 448.978C787.346 450.769 789.201 452.933 790.471 455.472C791.773 457.979 792.424 461.088 792.424 464.799ZM829.338 430.179C836.337 430.179 841.805 431.921 845.744 435.404C849.683 438.855 851.652 443.786 851.652 450.199V486.478H838.42L834.758 479.154H834.367C832.805 481.107 831.193 482.702 829.533 483.939C827.906 485.144 826.034 486.023 823.918 486.576C821.802 487.162 819.214 487.455 816.154 487.455C812.964 487.455 810.1 486.804 807.561 485.502C805.021 484.2 803.02 482.23 801.555 479.594C800.09 476.957 799.357 473.62 799.357 469.584C799.357 463.659 801.408 459.265 805.51 456.4C809.611 453.536 815.552 451.924 823.332 451.566L832.561 451.273V450.492C832.561 448.018 831.942 446.26 830.705 445.219C829.501 444.177 827.873 443.656 825.822 443.656C823.641 443.656 821.2 444.047 818.498 444.828C815.829 445.577 813.143 446.553 810.441 447.758L804.924 435.16C808.114 433.532 811.727 432.295 815.764 431.449C819.8 430.603 824.325 430.179 829.338 430.179ZM832.658 461.771L828.264 461.967C824.748 462.097 822.274 462.715 820.842 463.822C819.442 464.896 818.742 466.442 818.742 468.461C818.742 470.349 819.247 471.748 820.256 472.66C821.265 473.539 822.6 473.978 824.26 473.978C826.571 473.978 828.54 473.246 830.168 471.781C831.828 470.316 832.658 468.412 832.658 466.068V461.771ZM899.26 430.179C904.956 430.179 909.611 431.791 913.225 435.013C916.838 438.236 918.645 443.396 918.645 450.492V486.478H899.553V456.302C899.553 452.624 899.016 449.857 897.941 448.002C896.9 446.114 895.207 445.17 892.863 445.17C889.25 445.17 886.825 446.651 885.588 449.613C884.351 452.543 883.732 456.758 883.732 462.26V486.478H864.641V431.156H879.045L881.633 438.48H882.365C883.537 436.722 884.937 435.225 886.564 433.988C888.192 432.751 890.064 431.807 892.18 431.156C894.296 430.505 896.656 430.179 899.26 430.179ZM972.746 469.486C972.746 473.002 971.965 476.11 970.402 478.812C968.84 481.514 966.333 483.63 962.883 485.16C959.465 486.69 954.956 487.455 949.357 487.455C945.419 487.455 941.887 487.243 938.762 486.82C935.669 486.397 932.528 485.583 929.338 484.379V469.095C932.821 470.691 936.369 471.846 939.982 472.562C943.596 473.246 946.444 473.588 948.527 473.588C950.676 473.588 952.238 473.36 953.215 472.904C954.224 472.416 954.729 471.7 954.729 470.756C954.729 469.942 954.387 469.258 953.703 468.705C953.052 468.119 951.864 467.452 950.139 466.703C948.446 465.954 946.053 464.945 942.961 463.676C939.901 462.406 937.346 461.023 935.295 459.525C933.277 458.028 931.763 456.237 930.754 454.154C929.745 452.071 929.24 449.515 929.24 446.488C929.24 441.084 931.324 437.015 935.49 434.281C939.657 431.547 945.174 430.179 952.043 430.179C955.689 430.179 959.123 430.586 962.346 431.4C965.568 432.181 968.905 433.337 972.355 434.867L967.131 447.172C964.396 445.935 961.63 444.942 958.83 444.193C956.031 443.444 953.801 443.07 952.141 443.07C950.643 443.07 949.488 443.265 948.674 443.656C947.86 444.047 947.453 444.616 947.453 445.365C947.453 446.049 947.73 446.651 948.283 447.172C948.869 447.692 949.96 448.295 951.555 448.978C953.15 449.662 955.477 450.622 958.537 451.859C961.76 453.161 964.413 454.561 966.496 456.058C968.612 457.523 970.174 459.314 971.184 461.429C972.225 463.545 972.746 466.231 972.746 469.486Z"/>
</mask>
<path d="M511.711 465.726L507.874 464.595L507.872 464.604L507.869 464.613L511.711 465.726ZM505.559 477.347L508.591 479.956L505.559 477.347ZM494.768 484.867L496.229 488.59L496.241 488.586L496.253 488.581L494.768 484.867ZM463.42 484.867L461.925 488.577L461.941 488.584L461.958 488.59L463.42 484.867ZM452.629 477.396L449.611 480.022L449.618 480.029L449.624 480.037L452.629 477.396ZM447.941 431.254L444.293 429.613L444.289 429.623L447.941 431.254ZM459.367 418.51L461.38 421.966L461.388 421.961L461.396 421.957L459.367 418.51ZM498.918 418.51L496.87 421.945L496.879 421.951L498.918 418.51ZM510.148 431.302L506.476 432.889L510.148 431.302ZM466.057 461.771L462.242 462.976L466.057 461.771ZM470.695 468.9L468.226 472.047L470.695 468.9ZM487.443 468.9L484.974 465.753L484.962 465.763L484.951 465.772L487.443 468.9ZM491.984 461.771L488.159 460.603L488.153 460.622L488.148 460.64L491.984 461.771ZM490.178 435.404L486.708 437.395L490.178 435.404ZM470.646 432.328L468.171 429.186L468.159 429.195L468.148 429.204L470.646 432.328ZM466.008 439.554L462.19 438.361L462.184 438.38L462.179 438.398L466.008 439.554ZM509.713 450.687C509.713 455.867 509.084 460.492 507.874 464.595L515.548 466.858C517.007 461.911 517.713 456.51 517.713 450.687H509.713ZM507.869 464.613C506.712 468.604 504.919 471.956 502.526 474.739L508.591 479.956C511.797 476.228 514.106 471.833 515.553 466.84L507.869 464.613ZM502.526 474.739C500.187 477.458 497.142 479.609 493.282 481.153L496.253 488.581C501.183 486.609 505.331 483.747 508.591 479.956L502.526 474.739ZM493.306 481.144C489.492 482.641 484.757 483.455 478.996 483.455V491.455C485.475 491.455 491.254 490.544 496.229 488.59L493.306 481.144ZM478.996 483.455C473.378 483.455 468.704 482.644 464.882 481.144L461.958 488.59C466.925 490.54 472.635 491.455 478.996 491.455V483.455ZM464.915 481.157C461.076 479.61 458.014 477.465 455.634 474.756L449.624 480.037C452.908 483.773 457.04 486.608 461.925 488.577L464.915 481.157ZM455.647 474.771C453.22 471.982 451.378 468.605 450.159 464.569L442.501 466.883C444.016 471.897 446.374 476.301 449.611 480.022L455.647 474.771ZM450.159 464.569C448.923 460.479 448.279 455.832 448.279 450.59H440.279C440.279 456.48 441.002 461.924 442.501 466.883L450.159 464.569ZM448.279 450.59C448.279 443.599 449.43 437.733 451.594 432.884L444.289 429.623C441.57 435.712 440.279 442.737 440.279 450.59H448.279ZM451.59 432.894C453.726 428.143 456.968 424.535 461.38 421.966L457.354 415.053C451.48 418.474 447.105 423.362 444.293 429.613L451.59 432.894ZM461.396 421.957C465.749 419.395 471.564 417.969 479.094 417.969V409.969C470.608 409.969 463.272 411.57 457.338 415.062L461.396 421.957ZM479.094 417.969C486.771 417.969 492.602 419.401 496.87 421.945L500.966 415.074C495.078 411.563 487.693 409.969 479.094 409.969V417.969ZM496.879 421.951C501.256 424.544 504.432 428.155 506.476 432.889L513.82 429.716C511.112 423.447 506.801 418.53 500.957 415.068L496.879 421.951ZM506.476 432.889C508.591 437.785 509.713 443.685 509.713 450.687H517.713C517.713 442.846 516.458 435.823 513.82 429.716L506.476 432.889ZM460.592 450.687C460.592 455.268 461.11 459.391 462.242 462.976L469.871 460.567C469.05 457.967 468.592 454.7 468.592 450.687H460.592ZM462.242 462.976C463.411 466.676 465.356 469.795 468.226 472.047L473.164 465.753C471.803 464.685 470.656 463.052 469.871 460.567L462.242 462.976ZM468.226 472.047C471.218 474.395 474.929 475.39 478.996 475.39V467.39C476.227 467.39 474.404 466.726 473.164 465.753L468.226 472.047ZM478.996 475.39C483.149 475.39 486.94 474.416 489.936 472.028L484.951 465.772C483.78 466.705 481.939 467.39 478.996 467.39V475.39ZM489.913 472.047C492.804 469.778 494.722 466.63 495.821 462.902L488.148 460.64C487.423 463.097 486.314 464.702 484.974 465.753L489.913 472.047ZM495.81 462.939C496.9 459.367 497.4 455.258 497.4 450.687H489.4C489.4 454.71 488.956 457.99 488.159 460.603L495.81 462.939ZM497.4 450.687C497.4 443.863 496.274 437.99 493.647 433.413L486.708 437.395C488.379 440.305 489.4 444.621 489.4 450.687H497.4ZM493.647 433.413C490.622 428.142 485.406 425.789 479.094 425.789V433.789C483.263 433.789 485.437 435.179 486.708 437.395L493.647 433.413ZM479.094 425.789C474.962 425.789 471.198 426.801 468.171 429.186L473.122 435.47C474.391 434.47 476.26 433.789 479.094 433.789V425.789ZM468.148 429.204C465.29 431.49 463.354 434.636 462.19 438.361L469.826 440.748C470.615 438.222 471.771 436.551 473.145 435.451L468.148 429.204ZM462.179 438.398C461.092 441.995 460.592 446.115 460.592 450.687H468.592C468.592 446.666 469.036 443.364 469.837 440.711L462.179 438.398ZM573.674 437.552L570.41 439.865L570.417 439.875L573.674 437.552ZM576.262 474.564L579.96 476.089L579.964 476.079L576.262 474.564ZM569.035 484.232L571.35 487.494L571.357 487.489L569.035 484.232ZM552.043 486.478L550.676 490.237L550.687 490.241L550.698 490.245L552.043 486.478ZM547.551 484.037L544.99 487.11L545.011 487.127L545.032 487.144L547.551 484.037ZM544.572 481.058L547.686 478.547L546.485 477.058H544.572V481.058ZM543.986 481.058V477.058H539.441L540.019 481.567L543.986 481.058ZM544.377 485.16L540.386 485.426L540.389 485.47L540.393 485.514L544.377 485.16ZM544.572 510.502V514.502H548.572V510.502H544.572ZM525.48 510.502H521.48V514.502H525.48V510.502ZM525.48 431.156V427.156H521.48V431.156H525.48ZM541.008 431.156L544.745 429.729L543.762 427.156H541.008V431.156ZM543.693 438.187L539.957 439.614L540.939 442.187H543.693V438.187ZM544.572 438.187V442.187H546.768L547.947 440.335L544.572 438.187ZM547.893 434.232L550.609 437.169L550.628 437.151L550.648 437.132L547.893 434.232ZM552.629 431.302L554.069 435.034L554.086 435.028L554.103 435.021L552.629 431.302ZM545.354 450.492L541.494 449.439L541.488 449.464L541.482 449.488L545.354 450.492ZM544.572 457.084L540.573 456.985L540.572 457.034V457.084H544.572ZM545.256 466.019L541.354 466.9L541.357 466.914L545.256 466.019ZM547.6 470.56L544.858 473.473L544.881 473.495L544.905 473.516L547.6 470.56ZM556.193 470.707L558.781 473.757L556.193 470.707ZM557.561 448.197L554.15 450.287L554.162 450.307L554.175 450.327L557.561 448.197ZM559.27 434.179C564.117 434.179 567.691 436.028 570.41 439.865L576.938 435.24C572.69 429.246 566.662 426.179 559.27 426.179V434.179ZM570.417 439.875C573.221 443.805 574.898 449.898 574.898 458.695H582.898C582.898 449.068 581.093 441.066 576.93 435.23L570.417 439.875ZM574.898 458.695C574.898 464.631 574.065 469.371 572.56 473.05L579.964 476.079C581.975 471.164 582.898 465.325 582.898 458.695H574.898ZM572.564 473.04C571.027 476.767 569.035 479.32 566.714 480.975L571.357 487.489C575.155 484.782 577.981 480.89 579.96 476.089L572.564 473.04ZM566.72 480.97C564.4 482.617 561.766 483.455 558.684 483.455V491.455C563.348 491.455 567.616 490.144 571.35 487.494L566.72 480.97ZM558.684 483.455C556.39 483.455 554.659 483.165 553.388 482.711L550.698 490.245C553.073 491.093 555.769 491.455 558.684 491.455V483.455ZM553.41 482.719C551.945 482.186 550.861 481.571 550.07 480.93L545.032 487.144C546.65 488.456 548.56 489.468 550.676 490.237L553.41 482.719ZM550.112 480.964C549.108 480.127 548.308 479.319 547.686 478.547L541.459 483.569C542.464 484.816 543.65 485.993 544.99 487.11L550.112 480.964ZM544.572 477.058H543.986V485.058H544.572V477.058ZM540.019 481.567C540.17 482.745 540.293 484.031 540.386 485.426L548.368 484.894C548.266 483.359 548.128 481.91 547.954 480.55L540.019 481.567ZM540.393 485.514C540.51 486.83 540.572 488.416 540.572 490.287H548.572C548.572 488.251 548.505 486.419 548.361 484.806L540.393 485.514ZM540.572 490.287V510.502H548.572V490.287H540.572ZM544.572 506.502H525.48V514.502H544.572V506.502ZM529.48 510.502V431.156H521.48V510.502H529.48ZM525.48 435.156H541.008V427.156H525.48V435.156ZM537.271 432.583L539.957 439.614L547.43 436.76L544.745 429.729L537.271 432.583ZM543.693 442.187H544.572V434.187H543.693V442.187ZM547.947 440.335C548.666 439.205 549.548 438.15 550.609 437.169L545.176 431.296C543.633 432.723 542.302 434.305 541.198 436.04L547.947 440.335ZM550.648 437.132C551.531 436.293 552.65 435.582 554.069 435.034L551.189 427.571C548.897 428.455 546.858 429.698 545.138 431.332L550.648 437.132ZM554.103 435.021C555.421 434.498 557.114 434.179 559.27 434.179V426.179C556.347 426.179 553.613 426.609 551.154 427.584L554.103 435.021ZM552.092 441.17C549.625 441.17 547.162 441.758 545.164 443.392L550.23 449.584C550.381 449.461 550.848 449.17 552.092 449.17V441.17ZM545.164 443.392C543.261 444.949 542.129 447.113 541.494 449.439L549.213 451.544C549.555 450.29 549.985 449.785 550.23 449.584L545.164 443.392ZM541.482 449.488C540.923 451.642 540.643 454.167 540.573 456.985L548.571 457.182C548.632 454.727 548.872 452.858 549.226 451.496L541.482 449.488ZM540.572 457.084V458.597H548.572V457.084H540.572ZM540.572 458.597C540.572 461.712 540.812 464.501 541.354 466.9L549.158 465.138C548.788 463.501 548.572 461.343 548.572 458.597H540.572ZM541.357 466.914C541.931 469.415 543.008 471.732 544.858 473.473L550.341 467.647C549.978 467.305 549.492 466.595 549.154 465.125L541.357 466.914ZM544.905 473.516C546.95 475.381 549.551 476.074 552.189 476.074V468.074C550.922 468.074 550.463 467.758 550.295 467.604L544.905 473.516ZM552.189 476.074C554.599 476.074 556.889 475.363 558.781 473.757L553.605 467.657C553.35 467.874 552.97 468.074 552.189 468.074V476.074ZM558.781 473.757C560.687 472.14 561.814 469.852 562.488 467.435L554.782 465.287C554.349 466.841 553.848 467.451 553.605 467.657L558.781 473.757ZM562.488 467.435C563.178 464.958 563.465 461.934 563.465 458.5H555.465C555.465 461.576 555.198 463.792 554.782 465.287L562.488 467.435ZM563.465 458.5C563.465 453.531 562.857 449.105 560.946 446.067L554.175 450.327C554.803 451.326 555.465 453.768 555.465 458.5H563.465ZM560.971 446.107C558.991 442.877 555.862 441.17 552.092 441.17V449.17C553.139 449.17 553.656 449.481 554.15 450.287L560.971 446.107ZM628.654 433.011L626.914 436.613L626.926 436.619L626.938 436.625L628.654 433.011ZM640.861 463.969V467.969H644.861V463.969H640.861ZM606.73 463.969V459.969H602.499L602.737 464.193L606.73 463.969ZM609.953 471.097L607.222 474.02L607.234 474.031L607.246 474.042L609.953 471.097ZM628.312 472.855L627.394 468.962L627.384 468.964L628.312 472.855ZM637.248 469.681H641.248V463.393L635.552 466.059L637.248 469.681ZM637.248 483.402L639.106 486.945L641.248 485.821V483.402H637.248ZM591.203 475.248L587.776 477.31L587.781 477.32L587.787 477.329L591.203 475.248ZM590.861 442.826L594.389 444.711L594.395 444.7L590.861 442.826ZM600.432 433.304L602.221 436.882L602.232 436.876L602.243 436.871L600.432 433.304ZM609.758 445.316L612.489 448.238L612.492 448.236L609.758 445.316ZM607.121 451.957L603.136 451.614L602.762 455.957H607.121V451.957ZM623.527 451.957V455.957H627.608L627.527 451.877L623.527 451.957ZM619.816 444.34L617.598 447.668L617.619 447.682L617.64 447.695L619.816 444.34ZM614.738 434.179C619.647 434.179 623.664 435.042 626.914 436.613L630.395 429.41C625.832 427.205 620.572 426.179 614.738 426.179V434.179ZM626.938 436.625C630.105 438.129 632.497 440.356 634.205 443.378L641.17 439.442C638.646 434.977 635.016 431.605 630.371 429.398L626.938 436.625ZM634.205 443.378C635.893 446.363 636.861 450.323 636.861 455.472H644.861C644.861 449.359 643.714 443.944 641.17 439.442L634.205 443.378ZM636.861 455.472V463.969H644.861V455.472H636.861ZM640.861 459.969H606.73V467.969H640.861V459.969ZM602.737 464.193C602.953 468.042 604.43 471.411 607.222 474.02L612.684 468.175C611.505 467.073 610.833 465.689 610.724 463.744L602.737 464.193ZM607.246 474.042C610.264 476.817 614.355 477.881 618.84 477.881V469.881C615.512 469.881 613.678 469.089 612.66 468.153L607.246 474.042ZM618.84 477.881C622.551 477.881 626.026 477.513 629.241 476.746L627.384 468.964C624.87 469.564 622.03 469.881 618.84 469.881V477.881ZM629.231 476.748C632.429 475.994 635.668 474.838 638.944 473.304L635.552 466.059C632.709 467.39 629.99 468.349 627.394 468.962L629.231 476.748ZM633.248 469.681V483.402H641.248V469.681H633.248ZM635.39 479.86C633.074 481.074 630.517 481.98 627.7 482.561L629.316 490.396C632.813 489.675 636.083 488.529 639.106 486.945L635.39 479.86ZM627.7 482.561C624.904 483.137 621.21 483.455 616.545 483.455V491.455C621.515 491.455 625.797 491.121 629.316 490.396L627.7 482.561ZM616.545 483.455C611.459 483.455 607.054 482.55 603.251 480.831L599.956 488.121C604.943 490.374 610.498 491.455 616.545 491.455V483.455ZM603.251 480.831C599.599 479.181 596.744 476.654 594.619 473.166L587.787 477.329C590.74 482.175 594.819 485.8 599.956 488.121L603.251 480.831ZM594.631 473.186C592.607 469.821 591.443 465.243 591.443 459.183H583.443C583.443 466.21 584.786 472.341 587.776 477.31L594.631 473.186ZM591.443 459.183C591.443 452.967 592.515 448.219 594.389 444.711L587.333 440.941C584.651 445.961 583.443 452.119 583.443 459.183H591.443ZM594.395 444.7C596.309 441.091 598.91 438.537 602.221 436.882L598.643 429.727C593.75 432.173 589.971 435.967 587.327 440.952L594.395 444.7ZM602.243 436.871C605.69 435.12 609.818 434.179 614.738 434.179V426.179C608.786 426.179 603.376 427.322 598.62 429.738L602.243 436.871ZM615.422 439.168C612.24 439.168 609.352 440.217 607.024 442.396L612.492 448.236C613.224 447.55 614.111 447.168 615.422 447.168V439.168ZM607.026 442.394C604.526 444.731 603.441 448.066 603.136 451.614L611.106 452.3C611.322 449.793 611.995 448.701 612.489 448.238L607.026 442.394ZM607.121 455.957H623.527V447.957H607.121V455.957ZM627.527 451.877C627.484 449.755 627.055 447.72 626.18 445.832L618.922 449.195C619.283 449.976 619.505 450.904 619.528 452.037L627.527 451.877ZM626.18 445.832C625.253 443.831 623.846 442.186 621.993 440.984L617.64 447.695C618.196 448.056 618.612 448.527 618.922 449.195L626.18 445.832ZM622.035 441.011C620.06 439.695 617.773 439.168 615.422 439.168V447.168C616.586 447.168 617.229 447.422 617.598 447.668L622.035 441.011ZM705.656 486.478V490.478H709.656V486.478H705.656ZM686.564 486.478H682.564V490.478H686.564V486.478ZM684.953 448.002L681.451 449.934L681.471 449.97L681.491 450.006L684.953 448.002ZM672.6 449.613L676.285 451.169L676.288 451.162L676.291 451.154L672.6 449.613ZM670.744 486.478V490.478H674.744V486.478H670.744ZM651.652 486.478H647.652V490.478H651.652V486.478ZM651.652 431.156V427.156H647.652V431.156H651.652ZM666.057 431.156L669.828 429.823L668.886 427.156H666.057V431.156ZM668.645 438.48L664.873 439.813L665.815 442.48H668.645V438.48ZM669.377 438.48V442.48H671.518L672.705 440.699L669.377 438.48ZM686.271 434.179C691.17 434.179 694.82 435.542 697.574 437.999L702.899 432.028C698.426 428.039 692.766 426.179 686.271 426.179V434.179ZM697.574 437.999C700.003 440.165 701.656 443.997 701.656 450.492H709.656C709.656 442.795 707.696 436.307 702.899 432.028L697.574 437.999ZM701.656 450.492V486.478H709.656V450.492H701.656ZM705.656 482.478H686.564V490.478H705.656V482.478ZM690.564 486.478V456.302H682.564V486.478H690.564ZM690.564 456.302C690.564 452.362 690.011 448.755 688.415 445.998L681.491 450.006C682.043 450.959 682.564 452.887 682.564 456.302H690.564ZM688.455 446.069C686.638 442.775 683.52 441.17 679.875 441.17V449.17C680.917 449.17 681.185 449.452 681.451 449.934L688.455 446.069ZM679.875 441.17C677.53 441.17 675.251 441.652 673.261 442.867C671.238 444.103 669.808 445.918 668.909 448.072L676.291 451.154C676.628 450.346 677.029 449.94 677.431 449.694C677.866 449.428 678.607 449.17 679.875 449.17V441.17ZM668.915 448.057C667.371 451.714 666.744 456.557 666.744 462.26H674.744C674.744 456.959 675.355 453.371 676.285 451.169L668.915 448.057ZM666.744 462.26V486.478H674.744V462.26H666.744ZM670.744 482.478H651.652V490.478H670.744V482.478ZM655.652 486.478V431.156H647.652V486.478H655.652ZM651.652 435.156H666.057V427.156H651.652V435.156ZM662.285 432.489L664.873 439.813L672.416 437.148L669.828 429.823L662.285 432.489ZM668.645 442.48H669.377V434.48H668.645V442.48ZM672.705 440.699C673.639 439.299 674.735 438.131 675.997 437.173L671.156 430.803C669.162 432.319 667.459 434.146 666.049 436.261L672.705 440.699ZM675.997 437.173C677.22 436.243 678.664 435.504 680.368 434.979L678.015 427.333C675.488 428.111 673.187 429.26 671.156 430.803L675.997 437.173ZM680.368 434.979C682.042 434.464 683.998 434.179 686.271 434.179V426.179C683.337 426.179 680.572 426.546 678.015 427.333L680.368 434.979ZM789.494 475.834L792.975 477.804L792.979 477.797L792.983 477.79L789.494 475.834ZM780.363 484.232L778.519 480.683L778.507 480.689L780.363 484.232ZM755.852 487.015L755.375 490.987L755.381 490.988L755.852 487.015ZM749.016 485.599L747.786 489.406L747.813 489.414L747.839 489.422L749.016 485.599ZM742.424 482.963H738.424V485.499L740.718 486.581L742.424 482.963ZM742.424 465.775L744.225 462.203L738.424 459.279V465.775H742.424ZM754.143 470.267L753.12 474.134L753.135 474.138L753.15 474.142L754.143 470.267ZM769.523 471.097L768.141 467.344L768.124 467.35L768.108 467.356L769.523 471.097ZM772.258 469.242L775.458 471.642L775.481 471.611L775.504 471.579L772.258 469.242ZM771.818 463.334L768.937 466.108L768.989 466.163L769.044 466.215L771.818 463.334ZM767.717 460.599L765.928 464.177L767.717 460.599ZM760.246 457.084L758.547 460.705L758.572 460.717L758.597 460.728L760.246 457.084ZM753.068 453.275L750.972 456.682L750.984 456.689L750.995 456.696L753.068 453.275ZM747.6 448.832L744.604 451.482L744.631 451.513L744.658 451.543L747.6 448.832ZM746.281 423.441L743.049 421.084L743.045 421.09L746.281 423.441ZM755.754 416.41L754.32 412.676L754.31 412.68L755.754 416.41ZM782.365 415.629L781.284 419.48L781.293 419.482L782.365 415.629ZM792.424 419.193L796.142 420.668L797.551 417.116L794.067 415.546L792.424 419.193ZM786.516 434.086L784.852 437.723L788.681 439.475L790.234 435.561L786.516 434.086ZM777.482 430.765L776.384 434.611L776.403 434.617L776.423 434.622L777.482 430.765ZM765.129 430.131L766.533 433.876L766.564 433.864L766.595 433.852L765.129 430.131ZM762.785 431.742L759.603 429.318L759.566 429.367L759.53 429.417L762.785 431.742ZM763.322 437.064L760.441 439.839L760.467 439.866L760.494 439.893L763.322 437.064ZM767.668 439.945L765.833 443.5L765.867 443.517L765.902 443.534L767.668 439.945ZM776.018 443.9L774.337 447.53L774.359 447.54L774.38 447.55L776.018 443.9ZM784.904 448.978L782.511 452.183L782.525 452.194L782.539 452.204L784.904 448.978ZM790.471 455.472L786.893 457.261L786.907 457.289L786.921 457.316L790.471 455.472ZM788.424 464.799C788.424 467.965 787.634 470.973 786.005 473.877L792.983 477.79C795.26 473.729 796.424 469.379 796.424 464.799H788.424ZM786.013 473.863C784.504 476.529 782.089 478.828 778.519 480.683L782.208 487.782C786.906 485.34 790.578 482.039 792.975 477.804L786.013 473.863ZM778.507 480.689C775.163 482.44 770.556 483.455 764.445 483.455V491.455C771.355 491.455 777.36 490.321 782.219 487.776L778.507 480.689ZM764.445 483.455C761.303 483.455 758.601 483.313 756.322 483.043L755.381 490.988C758.05 491.304 761.078 491.455 764.445 491.455V483.455ZM756.328 483.044C754.098 482.776 752.056 482.35 750.192 481.776L747.839 489.422C750.207 490.151 752.722 490.669 755.375 490.987L756.328 483.044ZM750.245 481.793C748.312 481.168 746.274 480.355 744.13 479.345L740.718 486.581C743.131 487.718 745.488 488.663 747.786 489.406L750.245 481.793ZM746.424 482.963V465.775H738.424V482.963H746.424ZM740.623 469.347C744.729 471.417 748.895 473.017 753.12 474.134L755.165 466.4C751.512 465.434 747.866 464.039 744.225 462.203L740.623 469.347ZM753.15 474.142C757.329 475.213 761.234 475.781 764.836 475.781V467.781C762.058 467.781 758.834 467.34 755.135 466.392L753.15 474.142ZM764.836 475.781C767.025 475.781 769.117 475.528 770.939 474.839L768.108 467.356C767.521 467.579 766.488 467.781 764.836 467.781V475.781ZM770.906 474.851C772.62 474.219 774.274 473.221 775.458 471.642L769.058 466.842C769.07 466.825 768.9 467.064 768.141 467.344L770.906 474.851ZM775.504 471.579C776.6 470.057 777.137 468.305 777.137 466.459H769.137C769.137 466.696 769.088 466.799 769.012 466.905L775.504 471.579ZM777.137 466.459C777.137 464.152 776.267 462.064 774.593 460.452L769.044 466.215C769.087 466.257 769.108 466.284 769.116 466.295C769.123 466.305 769.123 466.308 769.122 466.305C769.12 466.302 769.123 466.307 769.127 466.325C769.13 466.344 769.137 466.387 769.137 466.459H777.137ZM774.7 460.559C773.388 459.197 771.549 458.043 769.506 457.022L765.928 464.177C767.661 465.044 768.556 465.712 768.937 466.108L774.7 460.559ZM769.506 457.022C767.553 456.045 765.01 454.85 761.896 453.44L758.597 460.728C761.667 462.117 764.105 463.266 765.928 464.177L769.506 457.022ZM761.945 453.462C759.417 452.276 757.152 451.073 755.142 449.854L750.995 456.696C753.282 458.082 755.802 459.417 758.547 460.705L761.945 453.462ZM755.165 449.869C753.33 448.739 751.799 447.486 750.541 446.121L744.658 451.543C746.46 453.498 748.575 455.207 750.972 456.682L755.165 449.869ZM750.596 446.181C749.451 444.887 748.546 443.361 747.894 441.561L740.372 444.286C741.348 446.978 742.754 449.391 744.604 451.482L750.596 446.181ZM747.894 441.561C747.275 439.855 746.912 437.684 746.912 434.965H738.912C738.912 438.365 739.363 441.5 740.372 444.286L747.894 441.561ZM746.912 434.965C746.912 431.045 747.861 428.073 749.518 425.792L743.045 421.09C740.209 424.995 738.912 429.704 738.912 434.965H746.912ZM749.513 425.798C751.287 423.365 753.789 421.46 757.198 420.14L754.31 412.68C749.646 414.485 745.832 417.268 743.049 421.084L749.513 425.798ZM757.188 420.144C760.712 418.791 764.897 418.066 769.816 418.066V410.066C764.124 410.066 758.934 410.904 754.32 412.676L757.188 420.144ZM769.816 418.066C774.179 418.066 777.989 418.555 781.284 419.48L783.446 411.778C779.32 410.619 774.764 410.066 769.816 410.066V418.066ZM781.293 419.482C784.878 420.48 788.035 421.603 790.781 422.84L794.067 415.546C790.888 414.114 787.34 412.861 783.438 411.775L781.293 419.482ZM788.706 417.718L782.798 432.611L790.234 435.561L796.142 420.668L788.706 417.718ZM788.18 430.448C784.943 428.968 781.73 427.784 778.542 426.908L776.423 434.622C779.16 435.374 781.969 436.404 784.852 437.723L788.18 430.448ZM778.581 426.919C775.335 425.992 772.21 425.496 769.23 425.496V433.496C771.329 433.496 773.705 433.846 776.384 434.611L778.581 426.919ZM769.23 425.496C767.27 425.496 765.361 425.74 763.663 426.409L766.595 433.852C767.046 433.675 767.87 433.496 769.23 433.496V425.496ZM763.724 426.385C762.182 426.964 760.697 427.883 759.603 429.318L765.967 434.166C765.915 434.234 765.992 434.079 766.533 433.876L763.724 426.385ZM759.53 429.417C758.534 430.812 758.053 432.414 758.053 434.086H766.053C766.053 434.052 766.055 434.033 766.056 434.027C766.057 434.021 766.057 434.024 766.054 434.034C766.052 434.038 766.051 434.043 766.049 434.048C766.047 434.053 766.044 434.058 766.042 434.062C766.038 434.07 766.036 434.072 766.04 434.067L759.53 429.417ZM758.053 434.086C758.053 436.337 758.957 438.298 760.441 439.839L766.204 434.29C766.138 434.221 766.099 434.17 766.077 434.138C766.056 434.107 766.05 434.092 766.05 434.092C766.05 434.091 766.05 434.093 766.051 434.096C766.052 434.099 766.053 434.102 766.053 434.104C766.055 434.11 766.053 434.106 766.053 434.086H758.053ZM760.494 439.893C761.813 441.212 763.699 442.398 765.833 443.5L769.503 436.391C767.601 435.409 766.589 434.675 766.151 434.236L760.494 439.893ZM765.902 443.534C767.994 444.563 770.81 445.897 774.337 447.53L777.698 440.27C774.194 438.648 771.444 437.345 769.434 436.356L765.902 443.534ZM774.38 447.55C777.66 449.021 780.355 450.573 782.511 452.183L787.297 445.773C784.571 443.737 781.341 441.904 777.655 440.251L774.38 447.55ZM782.539 452.204C784.503 453.644 785.926 455.328 786.893 457.261L794.048 453.684C792.476 450.539 790.189 447.893 787.27 445.753L782.539 452.204ZM786.921 457.316C787.849 459.103 788.424 461.535 788.424 464.799H796.424C796.424 460.64 795.696 456.855 794.02 453.628L786.921 457.316ZM845.744 435.404L843.094 438.401L843.101 438.407L843.108 438.413L845.744 435.404ZM851.652 486.478V490.478H855.652V486.478H851.652ZM838.42 486.478L834.842 488.267L835.948 490.478H838.42V486.478ZM834.758 479.154L838.336 477.365L837.23 475.154H834.758V479.154ZM834.367 479.154V475.154H832.445L831.244 476.655L834.367 479.154ZM829.533 483.939L831.913 487.155L831.923 487.147L829.533 483.939ZM823.918 486.576L822.906 482.706L822.878 482.713L822.85 482.721L823.918 486.576ZM805.51 456.4L803.219 453.121L805.51 456.4ZM823.332 451.566L823.205 447.568L823.177 447.569L823.148 447.57L823.332 451.566ZM832.561 451.273L832.687 455.271L836.561 455.148V451.273H832.561ZM830.705 445.219L828.088 448.244L828.108 448.261L828.129 448.278L830.705 445.219ZM818.498 444.828L819.578 448.679L819.594 448.675L819.609 448.67L818.498 444.828ZM810.441 447.758L806.777 449.362L808.393 453.05L812.07 451.411L810.441 447.758ZM804.924 435.16L803.106 431.597L799.747 433.311L801.26 436.765L804.924 435.16ZM815.764 431.449L814.943 427.534L815.764 431.449ZM832.658 461.771H836.658V457.59L832.481 457.775L832.658 461.771ZM828.264 461.967L828.412 465.964L828.427 465.963L828.441 465.963L828.264 461.967ZM820.842 463.822L823.277 466.995L823.288 466.987L820.842 463.822ZM820.256 472.66L817.575 475.628L817.602 475.653L817.629 475.676L820.256 472.66ZM830.168 471.781L827.521 468.782L827.507 468.795L827.492 468.808L830.168 471.781ZM829.338 434.179C835.689 434.179 840.1 435.753 843.094 438.401L848.394 432.408C843.511 428.089 836.985 426.179 829.338 426.179V434.179ZM843.108 438.413C845.989 440.936 847.652 444.657 847.652 450.199H855.652C855.652 442.915 853.377 436.773 848.38 432.395L843.108 438.413ZM847.652 450.199V486.478H855.652V450.199H847.652ZM851.652 482.478H838.42V490.478H851.652V482.478ZM841.998 484.689L838.336 477.365L831.18 480.943L834.842 488.267L841.998 484.689ZM834.758 475.154H834.367V483.154H834.758V475.154ZM831.244 476.655C829.852 478.395 828.48 479.736 827.143 480.732L831.923 487.147C833.907 485.669 835.758 483.819 837.491 481.653L831.244 476.655ZM827.154 480.724C825.968 481.601 824.568 482.271 822.906 482.706L824.93 490.446C827.499 489.774 829.843 488.686 831.913 487.155L827.154 480.724ZM822.85 482.721C821.189 483.181 818.984 483.455 816.154 483.455V491.455C819.445 491.455 822.416 491.143 824.985 490.431L822.85 482.721ZM816.154 483.455C813.523 483.455 811.296 482.922 809.386 481.942L805.735 489.061C808.903 490.685 812.405 491.455 816.154 491.455V483.455ZM809.386 481.942C807.593 481.023 806.155 479.637 805.051 477.651L798.058 481.536C799.885 484.824 802.45 487.376 805.735 489.061L809.386 481.942ZM805.051 477.651C804.01 475.776 803.357 473.162 803.357 469.584H795.357C795.357 474.079 796.17 478.138 798.058 481.536L805.051 477.651ZM803.357 469.584C803.357 464.691 804.977 461.651 807.8 459.68L803.219 453.121C797.839 456.879 795.357 462.628 795.357 469.584H803.357ZM807.8 459.68C811.026 457.426 816.105 455.903 823.516 455.562L823.148 447.57C814.999 447.945 808.197 449.645 803.219 453.121L807.8 459.68ZM823.459 455.564L832.687 455.271L832.434 447.275L823.205 447.568L823.459 455.564ZM836.561 451.273V450.492H828.561V451.273H836.561ZM836.561 450.492C836.561 447.468 835.812 444.29 833.282 442.159L828.129 448.278C828.135 448.284 828.153 448.3 828.183 448.344C828.214 448.391 828.266 448.484 828.323 448.646C828.442 448.984 828.561 449.568 828.561 450.492H836.561ZM833.322 442.193C831.202 440.359 828.551 439.656 825.822 439.656V447.656C827.195 447.656 827.8 447.994 828.088 448.244L833.322 442.193ZM825.822 439.656C823.175 439.656 820.351 440.128 817.387 440.985L819.609 448.67C822.048 447.965 824.108 447.656 825.822 447.656V439.656ZM817.418 440.977C814.549 441.781 811.681 442.826 808.813 444.104L812.07 451.411C814.606 450.281 817.108 449.372 819.578 448.679L817.418 440.977ZM814.105 446.153L808.588 433.555L801.26 436.765L806.777 449.362L814.105 446.153ZM806.742 438.723C809.573 437.278 812.843 436.148 816.585 435.364L814.943 427.534C810.611 428.442 806.655 429.786 803.106 431.597L806.742 438.723ZM816.585 435.364C820.301 434.585 824.544 434.179 829.338 434.179V426.179C824.106 426.179 819.3 426.621 814.943 427.534L816.585 435.364ZM832.481 457.775L828.086 457.97L828.441 465.963L832.836 465.767L832.481 457.775ZM828.116 457.969C824.43 458.106 820.87 458.745 818.396 460.657L823.288 466.987C823.679 466.685 825.066 466.088 828.412 465.964L828.116 457.969ZM818.406 460.649C815.87 462.596 814.742 465.402 814.742 468.461H822.742C822.742 467.483 823.015 467.197 823.277 466.995L818.406 460.649ZM814.742 468.461C814.742 471.025 815.439 473.699 817.575 475.628L822.937 469.691C822.965 469.717 822.935 469.711 822.884 469.57C822.824 469.404 822.742 469.061 822.742 468.461H814.742ZM817.629 475.676C819.529 477.332 821.875 477.978 824.26 477.978V469.978C823.324 469.978 823.001 469.746 822.883 469.644L817.629 475.676ZM824.26 477.978C827.499 477.978 830.438 476.919 832.844 474.754L827.492 468.808C826.642 469.573 825.643 469.978 824.26 469.978V477.978ZM832.814 474.78C835.391 472.507 836.658 469.483 836.658 466.068H828.658C828.658 467.34 828.266 468.125 827.521 468.782L832.814 474.78ZM836.658 466.068V461.771H828.658V466.068H836.658ZM918.645 486.478V490.478H922.645V486.478H918.645ZM899.553 486.478H895.553V490.478H899.553V486.478ZM897.941 448.002L894.439 449.934L894.459 449.97L894.48 450.006L897.941 448.002ZM885.588 449.613L889.273 451.169L889.276 451.162L889.279 451.154L885.588 449.613ZM883.732 486.478V490.478H887.732V486.478H883.732ZM864.641 486.478H860.641V490.478H864.641V486.478ZM864.641 431.156V427.156H860.641V431.156H864.641ZM879.045 431.156L882.816 429.823L881.874 427.156H879.045V431.156ZM881.633 438.48L877.861 439.813L878.804 442.48H881.633V438.48ZM882.365 438.48V442.48H884.506L885.693 440.699L882.365 438.48ZM899.26 434.179C904.158 434.179 907.808 435.542 910.562 437.999L915.887 432.028C911.415 428.039 905.755 426.179 899.26 426.179V434.179ZM910.562 437.999C912.991 440.165 914.645 443.997 914.645 450.492H922.645C922.645 442.795 920.684 436.307 915.887 432.028L910.562 437.999ZM914.645 450.492V486.478H922.645V450.492H914.645ZM918.645 482.478H899.553V490.478H918.645V482.478ZM903.553 486.478V456.302H895.553V486.478H903.553ZM903.553 456.302C903.553 452.362 903 448.755 901.403 445.998L894.48 450.006C895.032 450.959 895.553 452.887 895.553 456.302H903.553ZM901.444 446.069C899.626 442.775 896.508 441.17 892.863 441.17V449.17C893.906 449.17 894.173 449.452 894.439 449.934L901.444 446.069ZM892.863 441.17C890.518 441.17 888.239 441.652 886.25 442.867C884.226 444.103 882.796 445.918 881.897 448.072L889.279 451.154C889.617 450.346 890.018 449.94 890.419 449.694C890.855 449.428 891.595 449.17 892.863 449.17V441.17ZM881.903 448.057C880.359 451.714 879.732 456.557 879.732 462.26H887.732C887.732 456.959 888.343 453.371 889.273 451.169L881.903 448.057ZM879.732 462.26V486.478H887.732V462.26H879.732ZM883.732 482.478H864.641V490.478H883.732V482.478ZM868.641 486.478V431.156H860.641V486.478H868.641ZM864.641 435.156H879.045V427.156H864.641V435.156ZM875.273 432.489L877.861 439.813L885.404 437.148L882.816 429.823L875.273 432.489ZM881.633 442.48H882.365V434.48H881.633V442.48ZM885.693 440.699C886.627 439.299 887.723 438.131 888.985 437.173L884.144 430.803C882.151 432.319 880.447 434.146 879.037 436.261L885.693 440.699ZM888.985 437.173C890.209 436.243 891.652 435.504 893.356 434.979L891.003 427.333C888.476 428.111 886.176 429.26 884.144 430.803L888.985 437.173ZM893.356 434.979C895.031 434.464 896.986 434.179 899.26 434.179V426.179C896.325 426.179 893.561 426.546 891.003 427.333L893.356 434.979ZM962.883 485.16L961.261 481.503L961.249 481.509L962.883 485.16ZM938.762 486.82L938.219 490.783L938.225 490.784L938.762 486.82ZM929.338 484.379H925.338V487.144L927.925 488.121L929.338 484.379ZM929.338 469.095L931.003 465.459L925.338 462.864V469.095H929.338ZM939.982 472.562L939.205 476.486L939.222 476.489L939.239 476.493L939.982 472.562ZM953.215 472.904L954.906 476.529L954.932 476.517L954.957 476.505L953.215 472.904ZM953.703 468.705L951.027 471.678L951.105 471.748L951.186 471.814L953.703 468.705ZM950.139 466.703L948.521 470.361L948.533 470.367L948.546 470.372L950.139 466.703ZM942.961 463.676L941.428 467.37L941.435 467.373L941.442 467.376L942.961 463.676ZM935.295 459.525L932.912 462.738L932.924 462.747L932.936 462.756L935.295 459.525ZM930.754 454.154L934.354 452.41L930.754 454.154ZM962.346 431.4L961.366 435.278L961.385 435.283L961.403 435.288L962.346 431.4ZM972.355 434.867L976.037 436.43L977.576 432.806L973.977 431.21L972.355 434.867ZM967.131 447.172L965.482 450.816L969.213 452.504L970.813 448.735L967.131 447.172ZM958.83 444.193L957.797 448.057L958.83 444.193ZM948.283 447.172L945.542 450.084L945.583 450.123L945.626 450.161L948.283 447.172ZM958.537 451.859L957.038 455.568L957.039 455.568L958.537 451.859ZM966.496 456.058L964.162 459.306L964.19 459.327L964.219 459.347L966.496 456.058ZM971.184 461.429L967.573 463.151L967.584 463.174L967.595 463.196L971.184 461.429ZM968.746 469.486C968.746 472.389 968.107 474.791 966.94 476.81L973.865 480.815C975.822 477.43 976.746 473.614 976.746 469.486H968.746ZM966.94 476.81C965.883 478.637 964.104 480.243 961.261 481.503L964.504 488.817C968.562 487.017 971.797 484.391 973.865 480.815L966.94 476.81ZM961.249 481.509C958.535 482.724 954.647 483.455 949.357 483.455V491.455C955.266 491.455 960.395 490.656 964.517 488.811L961.249 481.509ZM949.357 483.455C945.556 483.455 942.208 483.25 939.298 482.856L938.225 490.784C941.565 491.236 945.281 491.455 949.357 491.455V483.455ZM939.304 482.857C936.535 482.478 933.685 481.745 930.751 480.636L927.925 488.121C931.37 489.422 934.803 490.316 938.219 490.783L939.304 482.857ZM933.338 484.379V469.095H925.338V484.379H933.338ZM927.672 472.732C931.428 474.452 935.273 475.707 939.205 476.486L940.76 468.639C937.465 467.985 934.214 466.929 931.003 465.459L927.672 472.732ZM939.239 476.493C942.942 477.193 946.075 477.588 948.527 477.588V469.588C946.813 469.588 944.25 469.299 940.726 468.632L939.239 476.493ZM948.527 477.588C950.793 477.588 953.097 477.373 954.906 476.529L951.523 469.279C951.529 469.277 951.473 469.303 951.333 469.341C951.194 469.378 950.998 469.42 950.733 469.459C950.197 469.537 949.472 469.588 948.527 469.588V477.588ZM954.957 476.505C955.906 476.046 956.882 475.352 957.62 474.305C958.385 473.219 958.729 471.985 958.729 470.756H950.729C950.729 470.47 950.82 470.066 951.08 469.697C951.313 469.366 951.533 469.274 951.473 469.303L954.957 476.505ZM958.729 470.756C958.729 468.628 957.755 466.839 956.22 465.596L951.186 471.814C951.151 471.785 951.015 471.662 950.894 471.421C950.77 471.172 950.729 470.928 950.729 470.756H958.729ZM956.379 465.732C955.212 464.681 953.505 463.803 951.731 463.034L948.546 470.372C949.327 470.711 949.925 471.005 950.365 471.252C950.583 471.375 950.745 471.476 950.862 471.556C950.981 471.637 951.028 471.679 951.027 471.678L956.379 465.732ZM951.757 463.045C950.015 462.274 947.584 461.249 944.48 459.975L941.442 467.376C944.523 468.641 946.877 469.634 948.521 470.361L951.757 463.045ZM944.494 459.981C941.643 458.798 939.385 457.559 937.654 456.295L932.936 462.756C935.307 464.487 938.159 466.014 941.428 467.37L944.494 459.981ZM937.678 456.313C936.133 455.166 935.058 453.864 934.354 452.41L927.154 455.898C928.468 458.61 930.421 460.889 932.912 462.738L937.678 456.313ZM934.354 452.41C933.676 451.011 933.24 449.09 933.24 446.488H925.24C925.24 449.941 925.813 453.13 927.154 455.898L934.354 452.41ZM933.24 446.488C933.24 442.297 934.753 439.549 937.685 437.625L933.296 430.937C927.894 434.482 925.24 439.872 925.24 446.488H933.24ZM937.685 437.625C940.996 435.452 945.669 434.179 952.043 434.179V426.179C944.68 426.179 938.318 427.641 933.296 430.937L937.685 437.625ZM952.043 434.179C955.39 434.179 958.493 434.553 961.366 435.278L963.325 427.522C959.753 426.62 955.987 426.179 952.043 426.179V434.179ZM961.403 435.288C964.364 436.005 967.473 437.078 970.734 438.524L973.977 431.21C970.337 429.596 966.773 428.358 963.288 427.513L961.403 435.288ZM968.674 433.304L963.449 445.608L970.813 448.735L976.037 436.43L968.674 433.304ZM968.78 443.527C965.853 442.204 962.881 441.136 959.864 440.329L957.797 448.057C960.378 448.748 962.94 449.666 965.482 450.816L968.78 443.527ZM959.864 440.329C956.937 439.546 954.315 439.07 952.141 439.07V447.07C953.286 447.07 955.124 447.342 957.797 448.057L959.864 440.329ZM952.141 439.07C950.39 439.07 948.54 439.283 946.943 440.05L950.405 447.262C950.391 447.269 950.505 447.213 950.818 447.161C951.124 447.109 951.557 447.07 952.141 447.07V439.07ZM946.943 440.05C946.1 440.455 945.196 441.081 944.503 442.051C943.781 443.063 943.453 444.218 943.453 445.365H951.453C951.453 445.763 951.329 446.259 951.013 446.701C950.727 447.101 950.434 447.248 950.405 447.262L946.943 440.05ZM943.453 445.365C943.453 447.281 944.284 448.901 945.542 450.084L951.025 444.259C951.068 444.3 951.19 444.429 951.295 444.659C951.405 444.899 951.453 445.149 951.453 445.365H943.453ZM945.626 450.161C946.733 451.146 948.35 451.957 949.979 452.655L953.13 445.302C952.411 444.994 951.868 444.73 951.474 444.512C951.056 444.281 950.922 444.165 950.941 444.182L945.626 450.161ZM949.979 452.655C951.613 453.355 953.971 454.328 957.038 455.568L960.036 448.151C956.984 446.917 954.687 445.969 953.13 445.302L949.979 452.655ZM957.039 455.568C960.062 456.789 962.411 458.048 964.162 459.306L968.831 452.81C966.415 451.074 963.457 449.533 960.036 448.15L957.039 455.568ZM964.219 459.347C965.819 460.455 966.893 461.725 967.573 463.151L974.794 459.708C973.456 456.902 971.405 454.592 968.773 452.77L964.219 459.347ZM967.595 463.196C968.283 464.594 968.746 466.624 968.746 469.486H976.746C976.746 465.838 976.167 462.496 974.772 459.663L967.595 463.196Z" fill="#141414" mask="url(#path-3-outside-1_1229_13097)"/>
</svg>
