<svg width="362" height="108" viewBox="0 0 362 108" fill="none" xmlns="http://www.w3.org/2000/svg">
<path d="M134.271 39V30.4336H135.268V38.1094H139.07V39H134.271ZM142.797 32.4727C143.562 32.4727 144.131 32.6445 144.502 32.9883C144.873 33.332 145.059 33.8809 145.059 34.6348V39H144.35L144.162 38.0508H144.115C143.936 38.2852 143.748 38.4824 143.553 38.6426C143.357 38.7988 143.131 38.918 142.873 39C142.619 39.0781 142.307 39.1172 141.936 39.1172C141.545 39.1172 141.197 39.0488 140.893 38.9121C140.592 38.7754 140.354 38.5684 140.178 38.291C140.006 38.0137 139.92 37.6621 139.92 37.2363C139.92 36.5957 140.174 36.1035 140.682 35.7598C141.189 35.416 141.963 35.2285 143.002 35.1973L144.109 35.1504V34.7578C144.109 34.2031 143.99 33.8145 143.752 33.5918C143.514 33.3691 143.178 33.2578 142.744 33.2578C142.408 33.2578 142.088 33.3066 141.783 33.4043C141.479 33.502 141.189 33.6172 140.916 33.75L140.617 33.0117C140.906 32.8633 141.238 32.7363 141.613 32.6309C141.988 32.5254 142.383 32.4727 142.797 32.4727ZM144.098 35.8359L143.119 35.877C142.318 35.9082 141.754 36.0391 141.426 36.2695C141.098 36.5 140.934 36.8262 140.934 37.248C140.934 37.6152 141.045 37.8867 141.268 38.0625C141.49 38.2383 141.785 38.3262 142.152 38.3262C142.723 38.3262 143.189 38.168 143.553 37.8516C143.916 37.5352 144.098 37.0605 144.098 36.4277V35.8359ZM148.035 29.8828V32.1621C148.035 32.4238 148.027 32.6777 148.012 32.9238C148 33.1699 147.99 33.3613 147.982 33.498H148.035C148.211 33.209 148.465 32.9648 148.797 32.7656C149.129 32.5664 149.553 32.4668 150.068 32.4668C150.873 32.4668 151.514 32.7461 151.99 33.3047C152.471 33.8594 152.711 34.6855 152.711 35.7832C152.711 36.5059 152.602 37.1152 152.383 37.6113C152.164 38.1074 151.855 38.4824 151.457 38.7363C151.059 38.9902 150.588 39.1172 150.045 39.1172C149.537 39.1172 149.119 39.0234 148.791 38.8359C148.467 38.6445 148.217 38.4121 148.041 38.1387H147.965L147.766 39H147.062V29.8828H148.035ZM149.91 33.2812C149.445 33.2812 149.076 33.373 148.803 33.5566C148.529 33.7363 148.332 34.0098 148.211 34.377C148.094 34.7402 148.035 35.2012 148.035 35.7598V35.8125C148.035 36.6211 148.17 37.2402 148.439 37.6699C148.709 38.0957 149.199 38.3086 149.91 38.3086C150.508 38.3086 150.955 38.0898 151.252 37.6523C151.553 37.2148 151.703 36.5898 151.703 35.7773C151.703 34.9492 151.555 34.3262 151.258 33.9082C150.965 33.4902 150.516 33.2812 149.91 33.2812ZM156.883 32.4609C157.43 32.4609 157.898 32.582 158.289 32.8242C158.68 33.0664 158.979 33.4062 159.186 33.8438C159.393 34.2773 159.496 34.7852 159.496 35.3672V35.9707H155.061C155.072 36.7246 155.26 37.2988 155.623 37.6934C155.986 38.0879 156.498 38.2852 157.158 38.2852C157.564 38.2852 157.924 38.248 158.236 38.1738C158.549 38.0996 158.873 37.9902 159.209 37.8457V38.7012C158.885 38.8457 158.562 38.9512 158.242 39.0176C157.926 39.084 157.551 39.1172 157.117 39.1172C156.5 39.1172 155.961 38.9922 155.5 38.7422C155.043 38.4883 154.688 38.1172 154.434 37.6289C154.18 37.1406 154.053 36.543 154.053 35.8359C154.053 35.1445 154.168 34.5469 154.398 34.043C154.633 33.5352 154.961 33.1445 155.383 32.8711C155.809 32.5977 156.309 32.4609 156.883 32.4609ZM156.871 33.2578C156.352 33.2578 155.938 33.4277 155.629 33.7676C155.32 34.1074 155.137 34.582 155.078 35.1914H158.477C158.473 34.8086 158.412 34.4727 158.295 34.1836C158.182 33.8906 158.008 33.6641 157.773 33.5039C157.539 33.3398 157.238 33.2578 156.871 33.2578ZM162.127 39H161.148V29.8828H162.127V39ZM173.928 30.4336V35.9766C173.928 36.582 173.805 37.1211 173.559 37.5938C173.316 38.0664 172.949 38.4395 172.457 38.7129C171.965 38.9824 171.348 39.1172 170.605 39.1172C169.547 39.1172 168.74 38.8301 168.186 38.2559C167.635 37.6816 167.359 36.9141 167.359 35.9531V30.4336H168.361V35.9824C168.361 36.709 168.553 37.2695 168.936 37.6641C169.322 38.0586 169.898 38.2559 170.664 38.2559C171.188 38.2559 171.615 38.1621 171.947 37.9746C172.283 37.7832 172.531 37.5176 172.691 37.1777C172.855 36.834 172.938 36.4375 172.938 35.9883V30.4336H173.928ZM179.096 32.4609C179.857 32.4609 180.434 32.6484 180.824 33.0234C181.215 33.3945 181.41 33.9922 181.41 34.8164V39H180.449V34.8809C180.449 34.3457 180.326 33.9453 180.08 33.6797C179.838 33.4141 179.465 33.2812 178.961 33.2812C178.25 33.2812 177.75 33.4824 177.461 33.8848C177.172 34.2871 177.027 34.8711 177.027 35.6367V39H176.055V32.5781H176.84L176.986 33.5039H177.039C177.176 33.2773 177.35 33.0879 177.561 32.9355C177.771 32.7793 178.008 32.6621 178.27 32.584C178.531 32.502 178.807 32.4609 179.096 32.4609ZM185.699 39.1172C184.887 39.1172 184.242 38.8398 183.766 38.2852C183.293 37.7305 183.057 36.9062 183.057 35.8125C183.057 34.707 183.299 33.873 183.783 33.3105C184.268 32.7441 184.912 32.4609 185.717 32.4609C186.057 32.4609 186.354 32.5059 186.607 32.5957C186.861 32.6855 187.08 32.8066 187.264 32.959C187.447 33.1074 187.602 33.2773 187.727 33.4688H187.797C187.781 33.3477 187.766 33.1816 187.75 32.9707C187.734 32.7598 187.727 32.5879 187.727 32.4551V29.8828H188.699V39H187.914L187.768 38.0859H187.727C187.605 38.2773 187.451 38.4512 187.264 38.6074C187.08 38.7637 186.859 38.8887 186.602 38.9824C186.348 39.0723 186.047 39.1172 185.699 39.1172ZM185.852 38.3086C186.539 38.3086 187.025 38.1133 187.311 37.7227C187.596 37.332 187.738 36.752 187.738 35.9824V35.8066C187.738 34.9902 187.602 34.3633 187.328 33.9258C187.059 33.4883 186.566 33.2695 185.852 33.2695C185.254 33.2695 184.807 33.5 184.51 33.9609C184.213 34.418 184.064 35.043 184.064 35.8359C184.064 36.625 184.211 37.2344 184.504 37.6641C184.801 38.0938 185.25 38.3086 185.852 38.3086ZM193.234 32.4609C193.781 32.4609 194.25 32.582 194.641 32.8242C195.031 33.0664 195.33 33.4062 195.537 33.8438C195.744 34.2773 195.848 34.7852 195.848 35.3672V35.9707H191.412C191.424 36.7246 191.611 37.2988 191.975 37.6934C192.338 38.0879 192.85 38.2852 193.51 38.2852C193.916 38.2852 194.275 38.248 194.588 38.1738C194.9 38.0996 195.225 37.9902 195.561 37.8457V38.7012C195.236 38.8457 194.914 38.9512 194.594 39.0176C194.277 39.084 193.902 39.1172 193.469 39.1172C192.852 39.1172 192.312 38.9922 191.852 38.7422C191.395 38.4883 191.039 38.1172 190.785 37.6289C190.531 37.1406 190.404 36.543 190.404 35.8359C190.404 35.1445 190.52 34.5469 190.75 34.043C190.984 33.5352 191.312 33.1445 191.734 32.8711C192.16 32.5977 192.66 32.4609 193.234 32.4609ZM193.223 33.2578C192.703 33.2578 192.289 33.4277 191.98 33.7676C191.672 34.1074 191.488 34.582 191.43 35.1914H194.828C194.824 34.8086 194.764 34.4727 194.646 34.1836C194.533 33.8906 194.359 33.6641 194.125 33.5039C193.891 33.3398 193.59 33.2578 193.223 33.2578ZM200.418 32.4609C200.547 32.4609 200.682 32.4688 200.822 32.4844C200.963 32.4961 201.088 32.5137 201.197 32.5371L201.074 33.4395C200.969 33.4121 200.852 33.3906 200.723 33.375C200.594 33.3594 200.473 33.3516 200.359 33.3516C200.102 33.3516 199.857 33.4043 199.627 33.5098C199.4 33.6113 199.201 33.7598 199.029 33.9551C198.857 34.1465 198.723 34.3789 198.625 34.6523C198.527 34.9219 198.479 35.2227 198.479 35.5547V39H197.5V32.5781H198.309L198.414 33.7617H198.455C198.588 33.5234 198.748 33.3066 198.936 33.1113C199.123 32.9121 199.34 32.7539 199.586 32.6367C199.836 32.5195 200.113 32.4609 200.418 32.4609ZM203.389 39H202.41V29.8828H203.389V39ZM206.418 32.5781V39H205.445V32.5781H206.418ZM205.943 30.1758C206.104 30.1758 206.24 30.2285 206.354 30.334C206.471 30.4355 206.529 30.5957 206.529 30.8145C206.529 31.0293 206.471 31.1895 206.354 31.2949C206.24 31.4004 206.104 31.4531 205.943 31.4531C205.775 31.4531 205.635 31.4004 205.521 31.2949C205.412 31.1895 205.357 31.0293 205.357 30.8145C205.357 30.5957 205.412 30.4355 205.521 30.334C205.635 30.2285 205.775 30.1758 205.943 30.1758ZM211.521 32.4609C212.283 32.4609 212.859 32.6484 213.25 33.0234C213.641 33.3945 213.836 33.9922 213.836 34.8164V39H212.875V34.8809C212.875 34.3457 212.752 33.9453 212.506 33.6797C212.264 33.4141 211.891 33.2812 211.387 33.2812C210.676 33.2812 210.176 33.4824 209.887 33.8848C209.598 34.2871 209.453 34.8711 209.453 35.6367V39H208.48V32.5781H209.266L209.412 33.5039H209.465C209.602 33.2773 209.775 33.0879 209.986 32.9355C210.197 32.7793 210.434 32.6621 210.695 32.584C210.957 32.502 211.232 32.4609 211.521 32.4609ZM218.312 32.4609C218.859 32.4609 219.328 32.582 219.719 32.8242C220.109 33.0664 220.408 33.4062 220.615 33.8438C220.822 34.2773 220.926 34.7852 220.926 35.3672V35.9707H216.49C216.502 36.7246 216.689 37.2988 217.053 37.6934C217.416 38.0879 217.928 38.2852 218.588 38.2852C218.994 38.2852 219.354 38.248 219.666 38.1738C219.979 38.0996 220.303 37.9902 220.639 37.8457V38.7012C220.314 38.8457 219.992 38.9512 219.672 39.0176C219.355 39.084 218.98 39.1172 218.547 39.1172C217.93 39.1172 217.391 38.9922 216.93 38.7422C216.473 38.4883 216.117 38.1172 215.863 37.6289C215.609 37.1406 215.482 36.543 215.482 35.8359C215.482 35.1445 215.598 34.5469 215.828 34.043C216.062 33.5352 216.391 33.1445 216.812 32.8711C217.238 32.5977 217.738 32.4609 218.312 32.4609ZM218.301 33.2578C217.781 33.2578 217.367 33.4277 217.059 33.7676C216.75 34.1074 216.566 34.582 216.508 35.1914H219.906C219.902 34.8086 219.842 34.4727 219.725 34.1836C219.611 33.8906 219.438 33.6641 219.203 33.5039C218.969 33.3398 218.668 33.2578 218.301 33.2578ZM224.863 39.1172C224.051 39.1172 223.406 38.8398 222.93 38.2852C222.457 37.7305 222.221 36.9062 222.221 35.8125C222.221 34.707 222.463 33.873 222.947 33.3105C223.432 32.7441 224.076 32.4609 224.881 32.4609C225.221 32.4609 225.518 32.5059 225.771 32.5957C226.025 32.6855 226.244 32.8066 226.428 32.959C226.611 33.1074 226.766 33.2773 226.891 33.4688H226.961C226.945 33.3477 226.93 33.1816 226.914 32.9707C226.898 32.7598 226.891 32.5879 226.891 32.4551V29.8828H227.863V39H227.078L226.932 38.0859H226.891C226.77 38.2773 226.615 38.4512 226.428 38.6074C226.244 38.7637 226.023 38.8887 225.766 38.9824C225.512 39.0723 225.211 39.1172 224.863 39.1172ZM225.016 38.3086C225.703 38.3086 226.189 38.1133 226.475 37.7227C226.76 37.332 226.902 36.752 226.902 35.9824V35.8066C226.902 34.9902 226.766 34.3633 226.492 33.9258C226.223 33.4883 225.73 33.2695 225.016 33.2695C224.418 33.2695 223.971 33.5 223.674 33.9609C223.377 34.418 223.229 35.043 223.229 35.8359C223.229 36.625 223.375 37.2344 223.668 37.6641C223.965 38.0938 224.414 38.3086 225.016 38.3086Z" fill="#2B5FFC"/>
<path d="M133.1 39.7324H228.895V40.0254H133.1V39.7324Z" fill="#2B5FFC"/>
<path d="M134.271 79V70.4336H135.268V78.1094H139.07V79H134.271ZM142.797 72.4727C143.562 72.4727 144.131 72.6445 144.502 72.9883C144.873 73.332 145.059 73.8809 145.059 74.6348V79H144.35L144.162 78.0508H144.115C143.936 78.2852 143.748 78.4824 143.553 78.6426C143.357 78.7988 143.131 78.918 142.873 79C142.619 79.0781 142.307 79.1172 141.936 79.1172C141.545 79.1172 141.197 79.0488 140.893 78.9121C140.592 78.7754 140.354 78.5684 140.178 78.291C140.006 78.0137 139.92 77.6621 139.92 77.2363C139.92 76.5957 140.174 76.1035 140.682 75.7598C141.189 75.416 141.963 75.2285 143.002 75.1973L144.109 75.1504V74.7578C144.109 74.2031 143.99 73.8145 143.752 73.5918C143.514 73.3691 143.178 73.2578 142.744 73.2578C142.408 73.2578 142.088 73.3066 141.783 73.4043C141.479 73.502 141.189 73.6172 140.916 73.75L140.617 73.0117C140.906 72.8633 141.238 72.7363 141.613 72.6309C141.988 72.5254 142.383 72.4727 142.797 72.4727ZM144.098 75.8359L143.119 75.877C142.318 75.9082 141.754 76.0391 141.426 76.2695C141.098 76.5 140.934 76.8262 140.934 77.248C140.934 77.6152 141.045 77.8867 141.268 78.0625C141.49 78.2383 141.785 78.3262 142.152 78.3262C142.723 78.3262 143.189 78.168 143.553 77.8516C143.916 77.5352 144.098 77.0605 144.098 76.4277V75.8359ZM148.035 69.8828V72.1621C148.035 72.4238 148.027 72.6777 148.012 72.9238C148 73.1699 147.99 73.3613 147.982 73.498H148.035C148.211 73.209 148.465 72.9648 148.797 72.7656C149.129 72.5664 149.553 72.4668 150.068 72.4668C150.873 72.4668 151.514 72.7461 151.99 73.3047C152.471 73.8594 152.711 74.6855 152.711 75.7832C152.711 76.5059 152.602 77.1152 152.383 77.6113C152.164 78.1074 151.855 78.4824 151.457 78.7363C151.059 78.9902 150.588 79.1172 150.045 79.1172C149.537 79.1172 149.119 79.0234 148.791 78.8359C148.467 78.6445 148.217 78.4121 148.041 78.1387H147.965L147.766 79H147.062V69.8828H148.035ZM149.91 73.2812C149.445 73.2812 149.076 73.373 148.803 73.5566C148.529 73.7363 148.332 74.0098 148.211 74.377C148.094 74.7402 148.035 75.2012 148.035 75.7598V75.8125C148.035 76.6211 148.17 77.2402 148.439 77.6699C148.709 78.0957 149.199 78.3086 149.91 78.3086C150.508 78.3086 150.955 78.0898 151.252 77.6523C151.553 77.2148 151.703 76.5898 151.703 75.7773C151.703 74.9492 151.555 74.3262 151.258 73.9082C150.965 73.4902 150.516 73.2812 149.91 73.2812ZM156.883 72.4609C157.43 72.4609 157.898 72.582 158.289 72.8242C158.68 73.0664 158.979 73.4062 159.186 73.8438C159.393 74.2773 159.496 74.7852 159.496 75.3672V75.9707H155.061C155.072 76.7246 155.26 77.2988 155.623 77.6934C155.986 78.0879 156.498 78.2852 157.158 78.2852C157.564 78.2852 157.924 78.248 158.236 78.1738C158.549 78.0996 158.873 77.9902 159.209 77.8457V78.7012C158.885 78.8457 158.562 78.9512 158.242 79.0176C157.926 79.084 157.551 79.1172 157.117 79.1172C156.5 79.1172 155.961 78.9922 155.5 78.7422C155.043 78.4883 154.688 78.1172 154.434 77.6289C154.18 77.1406 154.053 76.543 154.053 75.8359C154.053 75.1445 154.168 74.5469 154.398 74.043C154.633 73.5352 154.961 73.1445 155.383 72.8711C155.809 72.5977 156.309 72.4609 156.883 72.4609ZM156.871 73.2578C156.352 73.2578 155.938 73.4277 155.629 73.7676C155.32 74.1074 155.137 74.582 155.078 75.1914H158.477C158.473 74.8086 158.412 74.4727 158.295 74.1836C158.182 73.8906 158.008 73.6641 157.773 73.5039C157.539 73.3398 157.238 73.2578 156.871 73.2578ZM162.127 79H161.148V69.8828H162.127V79ZM173.928 70.4336V75.9766C173.928 76.582 173.805 77.1211 173.559 77.5938C173.316 78.0664 172.949 78.4395 172.457 78.7129C171.965 78.9824 171.348 79.1172 170.605 79.1172C169.547 79.1172 168.74 78.8301 168.186 78.2559C167.635 77.6816 167.359 76.9141 167.359 75.9531V70.4336H168.361V75.9824C168.361 76.709 168.553 77.2695 168.936 77.6641C169.322 78.0586 169.898 78.2559 170.664 78.2559C171.188 78.2559 171.615 78.1621 171.947 77.9746C172.283 77.7832 172.531 77.5176 172.691 77.1777C172.855 76.834 172.938 76.4375 172.938 75.9883V70.4336H173.928ZM179.096 72.4609C179.857 72.4609 180.434 72.6484 180.824 73.0234C181.215 73.3945 181.41 73.9922 181.41 74.8164V79H180.449V74.8809C180.449 74.3457 180.326 73.9453 180.08 73.6797C179.838 73.4141 179.465 73.2812 178.961 73.2812C178.25 73.2812 177.75 73.4824 177.461 73.8848C177.172 74.2871 177.027 74.8711 177.027 75.6367V79H176.055V72.5781H176.84L176.986 73.5039H177.039C177.176 73.2773 177.35 73.0879 177.561 72.9355C177.771 72.7793 178.008 72.6621 178.27 72.584C178.531 72.502 178.807 72.4609 179.096 72.4609ZM185.699 79.1172C184.887 79.1172 184.242 78.8398 183.766 78.2852C183.293 77.7305 183.057 76.9062 183.057 75.8125C183.057 74.707 183.299 73.873 183.783 73.3105C184.268 72.7441 184.912 72.4609 185.717 72.4609C186.057 72.4609 186.354 72.5059 186.607 72.5957C186.861 72.6855 187.08 72.8066 187.264 72.959C187.447 73.1074 187.602 73.2773 187.727 73.4688H187.797C187.781 73.3477 187.766 73.1816 187.75 72.9707C187.734 72.7598 187.727 72.5879 187.727 72.4551V69.8828H188.699V79H187.914L187.768 78.0859H187.727C187.605 78.2773 187.451 78.4512 187.264 78.6074C187.08 78.7637 186.859 78.8887 186.602 78.9824C186.348 79.0723 186.047 79.1172 185.699 79.1172ZM185.852 78.3086C186.539 78.3086 187.025 78.1133 187.311 77.7227C187.596 77.332 187.738 76.752 187.738 75.9824V75.8066C187.738 74.9902 187.602 74.3633 187.328 73.9258C187.059 73.4883 186.566 73.2695 185.852 73.2695C185.254 73.2695 184.807 73.5 184.51 73.9609C184.213 74.418 184.064 75.043 184.064 75.8359C184.064 76.625 184.211 77.2344 184.504 77.6641C184.801 78.0938 185.25 78.3086 185.852 78.3086ZM193.234 72.4609C193.781 72.4609 194.25 72.582 194.641 72.8242C195.031 73.0664 195.33 73.4062 195.537 73.8438C195.744 74.2773 195.848 74.7852 195.848 75.3672V75.9707H191.412C191.424 76.7246 191.611 77.2988 191.975 77.6934C192.338 78.0879 192.85 78.2852 193.51 78.2852C193.916 78.2852 194.275 78.248 194.588 78.1738C194.9 78.0996 195.225 77.9902 195.561 77.8457V78.7012C195.236 78.8457 194.914 78.9512 194.594 79.0176C194.277 79.084 193.902 79.1172 193.469 79.1172C192.852 79.1172 192.312 78.9922 191.852 78.7422C191.395 78.4883 191.039 78.1172 190.785 77.6289C190.531 77.1406 190.404 76.543 190.404 75.8359C190.404 75.1445 190.52 74.5469 190.75 74.043C190.984 73.5352 191.312 73.1445 191.734 72.8711C192.16 72.5977 192.66 72.4609 193.234 72.4609ZM193.223 73.2578C192.703 73.2578 192.289 73.4277 191.98 73.7676C191.672 74.1074 191.488 74.582 191.43 75.1914H194.828C194.824 74.8086 194.764 74.4727 194.646 74.1836C194.533 73.8906 194.359 73.6641 194.125 73.5039C193.891 73.3398 193.59 73.2578 193.223 73.2578ZM200.418 72.4609C200.547 72.4609 200.682 72.4688 200.822 72.4844C200.963 72.4961 201.088 72.5137 201.197 72.5371L201.074 73.4395C200.969 73.4121 200.852 73.3906 200.723 73.375C200.594 73.3594 200.473 73.3516 200.359 73.3516C200.102 73.3516 199.857 73.4043 199.627 73.5098C199.4 73.6113 199.201 73.7598 199.029 73.9551C198.857 74.1465 198.723 74.3789 198.625 74.6523C198.527 74.9219 198.479 75.2227 198.479 75.5547V79H197.5V72.5781H198.309L198.414 73.7617H198.455C198.588 73.5234 198.748 73.3066 198.936 73.1113C199.123 72.9121 199.34 72.7539 199.586 72.6367C199.836 72.5195 200.113 72.4609 200.418 72.4609ZM203.389 79H202.41V69.8828H203.389V79ZM206.418 72.5781V79H205.445V72.5781H206.418ZM205.943 70.1758C206.104 70.1758 206.24 70.2285 206.354 70.334C206.471 70.4355 206.529 70.5957 206.529 70.8145C206.529 71.0293 206.471 71.1895 206.354 71.2949C206.24 71.4004 206.104 71.4531 205.943 71.4531C205.775 71.4531 205.635 71.4004 205.521 71.2949C205.412 71.1895 205.357 71.0293 205.357 70.8145C205.357 70.5957 205.412 70.4355 205.521 70.334C205.635 70.2285 205.775 70.1758 205.943 70.1758ZM211.521 72.4609C212.283 72.4609 212.859 72.6484 213.25 73.0234C213.641 73.3945 213.836 73.9922 213.836 74.8164V79H212.875V74.8809C212.875 74.3457 212.752 73.9453 212.506 73.6797C212.264 73.4141 211.891 73.2812 211.387 73.2812C210.676 73.2812 210.176 73.4824 209.887 73.8848C209.598 74.2871 209.453 74.8711 209.453 75.6367V79H208.48V72.5781H209.266L209.412 73.5039H209.465C209.602 73.2773 209.775 73.0879 209.986 72.9355C210.197 72.7793 210.434 72.6621 210.695 72.584C210.957 72.502 211.232 72.4609 211.521 72.4609ZM218.312 72.4609C218.859 72.4609 219.328 72.582 219.719 72.8242C220.109 73.0664 220.408 73.4062 220.615 73.8438C220.822 74.2773 220.926 74.7852 220.926 75.3672V75.9707H216.49C216.502 76.7246 216.689 77.2988 217.053 77.6934C217.416 78.0879 217.928 78.2852 218.588 78.2852C218.994 78.2852 219.354 78.248 219.666 78.1738C219.979 78.0996 220.303 77.9902 220.639 77.8457V78.7012C220.314 78.8457 219.992 78.9512 219.672 79.0176C219.355 79.084 218.98 79.1172 218.547 79.1172C217.93 79.1172 217.391 78.9922 216.93 78.7422C216.473 78.4883 216.117 78.1172 215.863 77.6289C215.609 77.1406 215.482 76.543 215.482 75.8359C215.482 75.1445 215.598 74.5469 215.828 74.043C216.062 73.5352 216.391 73.1445 216.812 72.8711C217.238 72.5977 217.738 72.4609 218.312 72.4609ZM218.301 73.2578C217.781 73.2578 217.367 73.4277 217.059 73.7676C216.75 74.1074 216.566 74.582 216.508 75.1914H219.906C219.902 74.8086 219.842 74.4727 219.725 74.1836C219.611 73.8906 219.438 73.6641 219.203 73.5039C218.969 73.3398 218.668 73.2578 218.301 73.2578ZM224.863 79.1172C224.051 79.1172 223.406 78.8398 222.93 78.2852C222.457 77.7305 222.221 76.9062 222.221 75.8125C222.221 74.707 222.463 73.873 222.947 73.3105C223.432 72.7441 224.076 72.4609 224.881 72.4609C225.221 72.4609 225.518 72.5059 225.771 72.5957C226.025 72.6855 226.244 72.8066 226.428 72.959C226.611 73.1074 226.766 73.2773 226.891 73.4688H226.961C226.945 73.3477 226.93 73.1816 226.914 72.9707C226.898 72.7598 226.891 72.5879 226.891 72.4551V69.8828H227.863V79H227.078L226.932 78.0859H226.891C226.77 78.2773 226.615 78.4512 226.428 78.6074C226.244 78.7637 226.023 78.8887 225.766 78.9824C225.512 79.0723 225.211 79.1172 224.863 79.1172ZM225.016 78.3086C225.703 78.3086 226.189 78.1133 226.475 77.7227C226.76 77.332 226.902 76.752 226.902 75.9824V75.8066C226.902 74.9902 226.766 74.3633 226.492 73.9258C226.223 73.4883 225.73 73.2695 225.016 73.2695C224.418 73.2695 223.971 73.5 223.674 73.9609C223.377 74.418 223.229 75.043 223.229 75.8359C223.229 76.625 223.375 77.2344 223.668 77.6641C223.965 78.0938 224.414 78.3086 225.016 78.3086Z" fill="#2B5FFC"/>
<path d="M133.1 79.7324H228.895V80.0254H133.1V79.7324Z" fill="#2B5FFC"/>
</svg>
