<svg width="362" height="108" viewBox="0 0 362 108" fill="none" xmlns="http://www.w3.org/2000/svg">
<path d="M148.744 30.4336C149.447 30.4336 150.027 30.5215 150.484 30.6973C150.945 30.8691 151.289 31.1328 151.516 31.4883C151.742 31.8438 151.855 32.2969 151.855 32.8477C151.855 33.3008 151.773 33.6797 151.609 33.9844C151.445 34.2852 151.23 34.5293 150.965 34.7168C150.699 34.9043 150.416 35.0488 150.115 35.1504L152.465 39H151.305L149.207 35.4258H147.426V39H146.43V30.4336H148.744ZM148.686 31.2949H147.426V34.582H148.785C149.484 34.582 149.998 34.4395 150.326 34.1543C150.658 33.8691 150.824 33.4492 150.824 32.8945C150.824 32.3125 150.648 31.9004 150.297 31.6582C149.949 31.416 149.412 31.2949 148.686 31.2949ZM156.162 32.4609C156.709 32.4609 157.178 32.582 157.568 32.8242C157.959 33.0664 158.258 33.4062 158.465 33.8438C158.672 34.2773 158.775 34.7852 158.775 35.3672V35.9707H154.34C154.352 36.7246 154.539 37.2988 154.902 37.6934C155.266 38.0879 155.777 38.2852 156.438 38.2852C156.844 38.2852 157.203 38.248 157.516 38.1738C157.828 38.0996 158.152 37.9902 158.488 37.8457V38.7012C158.164 38.8457 157.842 38.9512 157.521 39.0176C157.205 39.084 156.83 39.1172 156.396 39.1172C155.779 39.1172 155.24 38.9922 154.779 38.7422C154.322 38.4883 153.967 38.1172 153.713 37.6289C153.459 37.1406 153.332 36.543 153.332 35.8359C153.332 35.1445 153.447 34.5469 153.678 34.043C153.912 33.5352 154.24 33.1445 154.662 32.8711C155.088 32.5977 155.588 32.4609 156.162 32.4609ZM156.15 33.2578C155.631 33.2578 155.217 33.4277 154.908 33.7676C154.6 34.1074 154.416 34.582 154.357 35.1914H157.756C157.752 34.8086 157.691 34.4727 157.574 34.1836C157.461 33.8906 157.287 33.6641 157.053 33.5039C156.818 33.3398 156.518 33.2578 156.15 33.2578ZM164.582 37.2422C164.582 37.6523 164.479 37.998 164.271 38.2793C164.068 38.5566 163.775 38.7656 163.393 38.9062C163.014 39.0469 162.561 39.1172 162.033 39.1172C161.584 39.1172 161.195 39.082 160.867 39.0117C160.539 38.9414 160.252 38.8418 160.006 38.7129V37.8164C160.268 37.9453 160.58 38.0625 160.943 38.168C161.307 38.2734 161.678 38.3262 162.057 38.3262C162.611 38.3262 163.014 38.2363 163.264 38.0566C163.514 37.877 163.639 37.6328 163.639 37.3242C163.639 37.1484 163.588 36.9941 163.486 36.8613C163.389 36.7246 163.223 36.5938 162.988 36.4688C162.754 36.3398 162.43 36.1992 162.016 36.0469C161.605 35.8906 161.25 35.7363 160.949 35.584C160.652 35.4277 160.422 35.2383 160.258 35.0156C160.098 34.793 160.018 34.5039 160.018 34.1484C160.018 33.6055 160.236 33.1895 160.674 32.9004C161.115 32.6074 161.693 32.4609 162.408 32.4609C162.795 32.4609 163.156 32.5 163.492 32.5781C163.832 32.6523 164.148 32.7539 164.441 32.8828L164.113 33.6621C163.848 33.5488 163.564 33.4531 163.264 33.375C162.963 33.2969 162.656 33.2578 162.344 33.2578C161.895 33.2578 161.549 33.332 161.307 33.4805C161.068 33.6289 160.949 33.832 160.949 34.0898C160.949 34.2891 161.004 34.4531 161.113 34.582C161.227 34.7109 161.406 34.832 161.652 34.9453C161.898 35.0586 162.223 35.1914 162.625 35.3438C163.027 35.4922 163.375 35.6465 163.668 35.8066C163.961 35.9629 164.186 36.1543 164.342 36.3809C164.502 36.6035 164.582 36.8906 164.582 37.2422ZM168.619 32.4609C169.166 32.4609 169.635 32.582 170.025 32.8242C170.416 33.0664 170.715 33.4062 170.922 33.8438C171.129 34.2773 171.232 34.7852 171.232 35.3672V35.9707H166.797C166.809 36.7246 166.996 37.2988 167.359 37.6934C167.723 38.0879 168.234 38.2852 168.895 38.2852C169.301 38.2852 169.66 38.248 169.973 38.1738C170.285 38.0996 170.609 37.9902 170.945 37.8457V38.7012C170.621 38.8457 170.299 38.9512 169.979 39.0176C169.662 39.084 169.287 39.1172 168.854 39.1172C168.236 39.1172 167.697 38.9922 167.236 38.7422C166.779 38.4883 166.424 38.1172 166.17 37.6289C165.916 37.1406 165.789 36.543 165.789 35.8359C165.789 35.1445 165.904 34.5469 166.135 34.043C166.369 33.5352 166.697 33.1445 167.119 32.8711C167.545 32.5977 168.045 32.4609 168.619 32.4609ZM168.607 33.2578C168.088 33.2578 167.674 33.4277 167.365 33.7676C167.057 34.1074 166.873 34.582 166.814 35.1914H170.213C170.209 34.8086 170.148 34.4727 170.031 34.1836C169.918 33.8906 169.744 33.6641 169.51 33.5039C169.275 33.3398 168.975 33.2578 168.607 33.2578ZM175.926 32.4609C176.688 32.4609 177.264 32.6484 177.654 33.0234C178.045 33.3945 178.24 33.9922 178.24 34.8164V39H177.279V34.8809C177.279 34.3457 177.156 33.9453 176.91 33.6797C176.668 33.4141 176.295 33.2812 175.791 33.2812C175.08 33.2812 174.58 33.4824 174.291 33.8848C174.002 34.2871 173.857 34.8711 173.857 35.6367V39H172.885V32.5781H173.67L173.816 33.5039H173.869C174.006 33.2773 174.18 33.0879 174.391 32.9355C174.602 32.7793 174.838 32.6621 175.1 32.584C175.361 32.502 175.637 32.4609 175.926 32.4609ZM182.529 39.1172C181.717 39.1172 181.072 38.8398 180.596 38.2852C180.123 37.7305 179.887 36.9062 179.887 35.8125C179.887 34.707 180.129 33.873 180.613 33.3105C181.098 32.7441 181.742 32.4609 182.547 32.4609C182.887 32.4609 183.184 32.5059 183.438 32.5957C183.691 32.6855 183.91 32.8066 184.094 32.959C184.277 33.1074 184.432 33.2773 184.557 33.4688H184.627C184.611 33.3477 184.596 33.1816 184.58 32.9707C184.564 32.7598 184.557 32.5879 184.557 32.4551V29.8828H185.529V39H184.744L184.598 38.0859H184.557C184.436 38.2773 184.281 38.4512 184.094 38.6074C183.91 38.7637 183.689 38.8887 183.432 38.9824C183.178 39.0723 182.877 39.1172 182.529 39.1172ZM182.682 38.3086C183.369 38.3086 183.855 38.1133 184.141 37.7227C184.426 37.332 184.568 36.752 184.568 35.9824V35.8066C184.568 34.9902 184.432 34.3633 184.158 33.9258C183.889 33.4883 183.396 33.2695 182.682 33.2695C182.084 33.2695 181.637 33.5 181.34 33.9609C181.043 34.418 180.895 35.043 180.895 35.8359C180.895 36.625 181.041 37.2344 181.334 37.6641C181.631 38.0938 182.08 38.3086 182.682 38.3086ZM193.281 39.1172C192.703 39.1172 192.193 38.998 191.752 38.7598C191.311 38.5215 190.967 38.1582 190.721 37.6699C190.475 37.1816 190.352 36.5664 190.352 35.8242C190.352 35.0469 190.48 34.4121 190.738 33.9199C191 33.4238 191.359 33.0566 191.816 32.8184C192.273 32.5801 192.793 32.4609 193.375 32.4609C193.695 32.4609 194.004 32.4941 194.301 32.5605C194.602 32.623 194.848 32.7031 195.039 32.8008L194.746 33.6152C194.551 33.5371 194.324 33.4668 194.066 33.4043C193.812 33.3418 193.574 33.3105 193.352 33.3105C192.906 33.3105 192.535 33.4062 192.238 33.5977C191.945 33.7891 191.725 34.0703 191.576 34.4414C191.432 34.8125 191.359 35.2695 191.359 35.8125C191.359 36.332 191.43 36.7754 191.57 37.1426C191.715 37.5098 191.928 37.791 192.209 37.9863C192.494 38.1777 192.85 38.2734 193.275 38.2734C193.615 38.2734 193.922 38.2383 194.195 38.168C194.469 38.0938 194.717 38.0078 194.939 37.9102V38.7773C194.725 38.8867 194.484 38.9707 194.219 39.0293C193.957 39.0879 193.645 39.1172 193.281 39.1172ZM202 35.7773C202 36.3047 201.932 36.7754 201.795 37.1895C201.658 37.6035 201.461 37.9531 201.203 38.2383C200.945 38.5234 200.633 38.7422 200.266 38.8945C199.902 39.043 199.49 39.1172 199.029 39.1172C198.6 39.1172 198.205 39.043 197.846 38.8945C197.49 38.7422 197.182 38.5234 196.92 38.2383C196.662 37.9531 196.461 37.6035 196.316 37.1895C196.176 36.7754 196.105 36.3047 196.105 35.7773C196.105 35.0742 196.225 34.4766 196.463 33.9844C196.701 33.4883 197.041 33.1113 197.482 32.8535C197.928 32.5918 198.457 32.4609 199.07 32.4609C199.656 32.4609 200.168 32.5918 200.605 32.8535C201.047 33.1152 201.389 33.4941 201.631 33.9902C201.877 34.4824 202 35.0781 202 35.7773ZM197.113 35.7773C197.113 36.293 197.182 36.7402 197.318 37.1191C197.455 37.498 197.666 37.791 197.951 37.998C198.236 38.2051 198.604 38.3086 199.053 38.3086C199.498 38.3086 199.863 38.2051 200.148 37.998C200.438 37.791 200.65 37.498 200.787 37.1191C200.924 36.7402 200.992 36.293 200.992 35.7773C200.992 35.2656 200.924 34.8242 200.787 34.4531C200.65 34.0781 200.439 33.7891 200.154 33.5859C199.869 33.3828 199.5 33.2812 199.047 33.2812C198.379 33.2812 197.889 33.502 197.576 33.9434C197.268 34.3848 197.113 34.9961 197.113 35.7773ZM205.967 39.1172C205.154 39.1172 204.51 38.8398 204.033 38.2852C203.561 37.7305 203.324 36.9062 203.324 35.8125C203.324 34.707 203.566 33.873 204.051 33.3105C204.535 32.7441 205.18 32.4609 205.984 32.4609C206.324 32.4609 206.621 32.5059 206.875 32.5957C207.129 32.6855 207.348 32.8066 207.531 32.959C207.715 33.1074 207.869 33.2773 207.994 33.4688H208.064C208.049 33.3477 208.033 33.1816 208.018 32.9707C208.002 32.7598 207.994 32.5879 207.994 32.4551V29.8828H208.967V39H208.182L208.035 38.0859H207.994C207.873 38.2773 207.719 38.4512 207.531 38.6074C207.348 38.7637 207.127 38.8887 206.869 38.9824C206.615 39.0723 206.314 39.1172 205.967 39.1172ZM206.119 38.3086C206.807 38.3086 207.293 38.1133 207.578 37.7227C207.863 37.332 208.006 36.752 208.006 35.9824V35.8066C208.006 34.9902 207.869 34.3633 207.596 33.9258C207.326 33.4883 206.834 33.2695 206.119 33.2695C205.521 33.2695 205.074 33.5 204.777 33.9609C204.48 34.418 204.332 35.043 204.332 35.8359C204.332 36.625 204.479 37.2344 204.771 37.6641C205.068 38.0938 205.518 38.3086 206.119 38.3086ZM213.502 32.4609C214.049 32.4609 214.518 32.582 214.908 32.8242C215.299 33.0664 215.598 33.4062 215.805 33.8438C216.012 34.2773 216.115 34.7852 216.115 35.3672V35.9707H211.68C211.691 36.7246 211.879 37.2988 212.242 37.6934C212.605 38.0879 213.117 38.2852 213.777 38.2852C214.184 38.2852 214.543 38.248 214.855 38.1738C215.168 38.0996 215.492 37.9902 215.828 37.8457V38.7012C215.504 38.8457 215.182 38.9512 214.861 39.0176C214.545 39.084 214.17 39.1172 213.736 39.1172C213.119 39.1172 212.58 38.9922 212.119 38.7422C211.662 38.4883 211.307 38.1172 211.053 37.6289C210.799 37.1406 210.672 36.543 210.672 35.8359C210.672 35.1445 210.787 34.5469 211.018 34.043C211.252 33.5352 211.58 33.1445 212.002 32.8711C212.428 32.5977 212.928 32.4609 213.502 32.4609ZM213.49 33.2578C212.971 33.2578 212.557 33.4277 212.248 33.7676C211.939 34.1074 211.756 34.582 211.697 35.1914H215.096C215.092 34.8086 215.031 34.4727 214.914 34.1836C214.801 33.8906 214.627 33.6641 214.393 33.5039C214.158 33.3398 213.857 33.2578 213.49 33.2578Z" fill="#2B5FFC"/>
<path d="M145.258 39.7324H216.742V40.0254H145.258V39.7324Z" fill="#2B5FFC"/>
<path d="M147.883 71.1895C147.41 71.1895 146.984 71.2715 146.605 71.4355C146.23 71.5957 145.91 71.8301 145.645 72.1387C145.383 72.4434 145.182 72.8125 145.041 73.2461C144.9 73.6797 144.83 74.168 144.83 74.7109C144.83 75.4297 144.941 76.0547 145.164 76.5859C145.391 77.1133 145.727 77.5215 146.172 77.8105C146.621 78.0996 147.182 78.2441 147.854 78.2441C148.236 78.2441 148.596 78.2129 148.932 78.1504C149.271 78.084 149.602 78.002 149.922 77.9043V78.7715C149.609 78.8887 149.281 78.9746 148.938 79.0293C148.594 79.0879 148.186 79.1172 147.713 79.1172C146.842 79.1172 146.113 78.9375 145.527 78.5781C144.945 78.2148 144.508 77.7031 144.215 77.043C143.926 76.3828 143.781 75.6035 143.781 74.7051C143.781 74.0566 143.871 73.4648 144.051 72.9297C144.234 72.3906 144.5 71.9258 144.848 71.5352C145.199 71.1445 145.629 70.8438 146.137 70.6328C146.648 70.418 147.234 70.3105 147.895 70.3105C148.328 70.3105 148.746 70.3535 149.148 70.4395C149.551 70.5254 149.914 70.6484 150.238 70.8086L149.84 71.6523C149.566 71.5273 149.266 71.4199 148.938 71.3301C148.613 71.2363 148.262 71.1895 147.883 71.1895ZM152.605 69.8828V72.6074C152.605 72.7637 152.602 72.9219 152.594 73.082C152.586 73.2383 152.572 73.3828 152.553 73.5156H152.617C152.75 73.2891 152.918 73.0996 153.121 72.9473C153.328 72.791 153.562 72.6738 153.824 72.5957C154.086 72.5137 154.363 72.4727 154.656 72.4727C155.172 72.4727 155.602 72.5547 155.945 72.7188C156.293 72.8828 156.553 73.1367 156.725 73.4805C156.9 73.8242 156.988 74.2695 156.988 74.8164V79H156.027V74.8809C156.027 74.3457 155.904 73.9453 155.658 73.6797C155.416 73.4141 155.043 73.2812 154.539 73.2812C154.062 73.2812 153.682 73.373 153.396 73.5566C153.115 73.7363 152.912 74.002 152.787 74.3535C152.666 74.7051 152.605 75.1348 152.605 75.6426V79H151.633V69.8828H152.605ZM161.395 72.4727C162.16 72.4727 162.729 72.6445 163.1 72.9883C163.471 73.332 163.656 73.8809 163.656 74.6348V79H162.947L162.76 78.0508H162.713C162.533 78.2852 162.346 78.4824 162.15 78.6426C161.955 78.7988 161.729 78.918 161.471 79C161.217 79.0781 160.904 79.1172 160.533 79.1172C160.143 79.1172 159.795 79.0488 159.49 78.9121C159.189 78.7754 158.951 78.5684 158.775 78.291C158.604 78.0137 158.518 77.6621 158.518 77.2363C158.518 76.5957 158.771 76.1035 159.279 75.7598C159.787 75.416 160.561 75.2285 161.6 75.1973L162.707 75.1504V74.7578C162.707 74.2031 162.588 73.8145 162.35 73.5918C162.111 73.3691 161.775 73.2578 161.342 73.2578C161.006 73.2578 160.686 73.3066 160.381 73.4043C160.076 73.502 159.787 73.6172 159.514 73.75L159.215 73.0117C159.504 72.8633 159.836 72.7363 160.211 72.6309C160.586 72.5254 160.98 72.4727 161.395 72.4727ZM162.695 75.8359L161.717 75.877C160.916 75.9082 160.352 76.0391 160.023 76.2695C159.695 76.5 159.531 76.8262 159.531 77.248C159.531 77.6152 159.643 77.8867 159.865 78.0625C160.088 78.2383 160.383 78.3262 160.75 78.3262C161.32 78.3262 161.787 78.168 162.15 77.8516C162.514 77.5352 162.695 77.0605 162.695 76.4277V75.8359ZM168.701 72.4609C169.463 72.4609 170.039 72.6484 170.43 73.0234C170.82 73.3945 171.016 73.9922 171.016 74.8164V79H170.055V74.8809C170.055 74.3457 169.932 73.9453 169.686 73.6797C169.443 73.4141 169.07 73.2812 168.566 73.2812C167.855 73.2812 167.355 73.4824 167.066 73.8848C166.777 74.2871 166.633 74.8711 166.633 75.6367V79H165.66V72.5781H166.445L166.592 73.5039H166.645C166.781 73.2773 166.955 73.0879 167.166 72.9355C167.377 72.7793 167.613 72.6621 167.875 72.584C168.137 72.502 168.412 72.4609 168.701 72.4609ZM174.812 81.8828C173.969 81.8828 173.318 81.7246 172.861 81.4082C172.404 81.0957 172.176 80.6562 172.176 80.0898C172.176 79.6875 172.303 79.3438 172.557 79.0586C172.814 78.7734 173.17 78.584 173.623 78.4902C173.455 78.4121 173.311 78.2949 173.189 78.1387C173.072 77.9824 173.014 77.8027 173.014 77.5996C173.014 77.3652 173.078 77.1602 173.207 76.9844C173.34 76.8047 173.541 76.6328 173.811 76.4688C173.475 76.332 173.201 76.1016 172.99 75.7773C172.783 75.4492 172.68 75.0684 172.68 74.6348C172.68 74.1738 172.775 73.7812 172.967 73.457C173.158 73.1289 173.436 72.8789 173.799 72.707C174.162 72.5352 174.602 72.4492 175.117 72.4492C175.23 72.4492 175.344 72.4551 175.457 72.4668C175.574 72.4746 175.686 72.4883 175.791 72.5078C175.896 72.5234 175.988 72.543 176.066 72.5664H178.27V73.1934L177.086 73.3398C177.203 73.4922 177.301 73.6758 177.379 73.8906C177.457 74.1055 177.496 74.3438 177.496 74.6055C177.496 75.2461 177.279 75.7559 176.846 76.1348C176.412 76.5098 175.816 76.6973 175.059 76.6973C174.879 76.6973 174.695 76.6816 174.508 76.6504C174.316 76.7559 174.17 76.873 174.068 77.002C173.971 77.1309 173.922 77.2793 173.922 77.4473C173.922 77.5723 173.959 77.6719 174.033 77.7461C174.111 77.8203 174.223 77.875 174.367 77.9102C174.512 77.9414 174.686 77.957 174.889 77.957H176.02C176.719 77.957 177.254 78.1035 177.625 78.3965C178 78.6895 178.188 79.1172 178.188 79.6797C178.188 80.3906 177.898 80.9355 177.32 81.3145C176.742 81.6934 175.906 81.8828 174.812 81.8828ZM174.842 81.1211C175.373 81.1211 175.812 81.0664 176.16 80.957C176.512 80.8516 176.773 80.6973 176.945 80.4941C177.121 80.2949 177.209 80.0566 177.209 79.7793C177.209 79.5215 177.15 79.3262 177.033 79.1934C176.916 79.0645 176.744 78.9785 176.518 78.9355C176.291 78.8887 176.014 78.8652 175.686 78.8652H174.572C174.283 78.8652 174.031 78.9102 173.816 79C173.602 79.0898 173.436 79.2227 173.318 79.3984C173.205 79.5742 173.148 79.793 173.148 80.0547C173.148 80.4023 173.295 80.666 173.588 80.8457C173.881 81.0293 174.299 81.1211 174.842 81.1211ZM175.094 75.9883C175.559 75.9883 175.908 75.8711 176.143 75.6367C176.377 75.4023 176.494 75.0605 176.494 74.6113C176.494 74.1309 176.375 73.7715 176.137 73.5332C175.898 73.291 175.547 73.1699 175.082 73.1699C174.637 73.1699 174.293 73.2949 174.051 73.5449C173.812 73.791 173.693 74.1523 173.693 74.6289C173.693 75.0664 173.814 75.4023 174.057 75.6367C174.299 75.8711 174.645 75.9883 175.094 75.9883ZM182.008 72.4609C182.555 72.4609 183.023 72.582 183.414 72.8242C183.805 73.0664 184.104 73.4062 184.311 73.8438C184.518 74.2773 184.621 74.7852 184.621 75.3672V75.9707H180.186C180.197 76.7246 180.385 77.2988 180.748 77.6934C181.111 78.0879 181.623 78.2852 182.283 78.2852C182.689 78.2852 183.049 78.248 183.361 78.1738C183.674 78.0996 183.998 77.9902 184.334 77.8457V78.7012C184.01 78.8457 183.688 78.9512 183.367 79.0176C183.051 79.084 182.676 79.1172 182.242 79.1172C181.625 79.1172 181.086 78.9922 180.625 78.7422C180.168 78.4883 179.812 78.1172 179.559 77.6289C179.305 77.1406 179.178 76.543 179.178 75.8359C179.178 75.1445 179.293 74.5469 179.523 74.043C179.758 73.5352 180.086 73.1445 180.508 72.8711C180.934 72.5977 181.434 72.4609 182.008 72.4609ZM181.996 73.2578C181.477 73.2578 181.062 73.4277 180.754 73.7676C180.445 74.1074 180.262 74.582 180.203 75.1914H183.602C183.598 74.8086 183.537 74.4727 183.42 74.1836C183.307 73.8906 183.133 73.6641 182.898 73.5039C182.664 73.3398 182.363 73.2578 181.996 73.2578ZM191.863 72.4609C192.41 72.4609 192.879 72.582 193.27 72.8242C193.66 73.0664 193.959 73.4062 194.166 73.8438C194.373 74.2773 194.477 74.7852 194.477 75.3672V75.9707H190.041C190.053 76.7246 190.24 77.2988 190.604 77.6934C190.967 78.0879 191.479 78.2852 192.139 78.2852C192.545 78.2852 192.904 78.248 193.217 78.1738C193.529 78.0996 193.854 77.9902 194.189 77.8457V78.7012C193.865 78.8457 193.543 78.9512 193.223 79.0176C192.906 79.084 192.531 79.1172 192.098 79.1172C191.48 79.1172 190.941 78.9922 190.48 78.7422C190.023 78.4883 189.668 78.1172 189.414 77.6289C189.16 77.1406 189.033 76.543 189.033 75.8359C189.033 75.1445 189.148 74.5469 189.379 74.043C189.613 73.5352 189.941 73.1445 190.363 72.8711C190.789 72.5977 191.289 72.4609 191.863 72.4609ZM191.852 73.2578C191.332 73.2578 190.918 73.4277 190.609 73.7676C190.301 74.1074 190.117 74.582 190.059 75.1914H193.457C193.453 74.8086 193.393 74.4727 193.275 74.1836C193.162 73.8906 192.988 73.6641 192.754 73.5039C192.52 73.3398 192.219 73.2578 191.852 73.2578ZM203.102 72.4609C203.809 72.4609 204.342 72.6465 204.701 73.0176C205.061 73.3848 205.24 73.9766 205.24 74.793V79H204.279V74.8398C204.279 74.3203 204.166 73.9316 203.939 73.6738C203.717 73.4121 203.385 73.2812 202.943 73.2812C202.322 73.2812 201.871 73.4609 201.59 73.8203C201.309 74.1797 201.168 74.709 201.168 75.4082V79H200.201V74.8398C200.201 74.4922 200.15 74.2031 200.049 73.9727C199.951 73.7422 199.803 73.5703 199.604 73.457C199.408 73.3398 199.16 73.2812 198.859 73.2812C198.434 73.2812 198.092 73.3691 197.834 73.5449C197.576 73.7207 197.389 73.9824 197.271 74.3301C197.158 74.6738 197.102 75.0977 197.102 75.6016V79H196.129V72.5781H196.914L197.061 73.4863H197.113C197.242 73.2637 197.404 73.0762 197.6 72.9238C197.795 72.7715 198.014 72.6562 198.256 72.5781C198.498 72.5 198.756 72.4609 199.029 72.4609C199.518 72.4609 199.926 72.5527 200.254 72.7363C200.586 72.916 200.826 73.1914 200.975 73.5625H201.027C201.238 73.1914 201.527 72.916 201.895 72.7363C202.262 72.5527 202.664 72.4609 203.102 72.4609ZM209.641 72.4727C210.406 72.4727 210.975 72.6445 211.346 72.9883C211.717 73.332 211.902 73.8809 211.902 74.6348V79H211.193L211.006 78.0508H210.959C210.779 78.2852 210.592 78.4824 210.396 78.6426C210.201 78.7988 209.975 78.918 209.717 79C209.463 79.0781 209.15 79.1172 208.779 79.1172C208.389 79.1172 208.041 79.0488 207.736 78.9121C207.436 78.7754 207.197 78.5684 207.021 78.291C206.85 78.0137 206.764 77.6621 206.764 77.2363C206.764 76.5957 207.018 76.1035 207.525 75.7598C208.033 75.416 208.807 75.2285 209.846 75.1973L210.953 75.1504V74.7578C210.953 74.2031 210.834 73.8145 210.596 73.5918C210.357 73.3691 210.021 73.2578 209.588 73.2578C209.252 73.2578 208.932 73.3066 208.627 73.4043C208.322 73.502 208.033 73.6172 207.76 73.75L207.461 73.0117C207.75 72.8633 208.082 72.7363 208.457 72.6309C208.832 72.5254 209.227 72.4727 209.641 72.4727ZM210.941 75.8359L209.963 75.877C209.162 75.9082 208.598 76.0391 208.27 76.2695C207.941 76.5 207.777 76.8262 207.777 77.248C207.777 77.6152 207.889 77.8867 208.111 78.0625C208.334 78.2383 208.629 78.3262 208.996 78.3262C209.566 78.3262 210.033 78.168 210.396 77.8516C210.76 77.5352 210.941 77.0605 210.941 76.4277V75.8359ZM214.879 72.5781V79H213.906V72.5781H214.879ZM214.404 70.1758C214.564 70.1758 214.701 70.2285 214.814 70.334C214.932 70.4355 214.99 70.5957 214.99 70.8145C214.99 71.0293 214.932 71.1895 214.814 71.2949C214.701 71.4004 214.564 71.4531 214.404 71.4531C214.236 71.4531 214.096 71.4004 213.982 71.2949C213.873 71.1895 213.818 71.0293 213.818 70.8145C213.818 70.5957 213.873 70.4355 213.982 70.334C214.096 70.2285 214.236 70.1758 214.404 70.1758ZM217.92 79H216.941V69.8828H217.92V79Z" fill="#2B5FFC"/>
<path d="M143.049 79.7324H171.887V80.0254H143.049V79.7324ZM178.48 79.7324H218.945V80.0254H178.48V79.7324Z" fill="#2B5FFC"/>
</svg>
