<svg width="436" height="174" viewBox="0 0 436 174" fill="none" xmlns="http://www.w3.org/2000/svg">
<path d="M81.9688 39V21.8672H84.7812V36.6094H92.0586V39H81.9688ZM99.9102 25.7812C101.066 25.7812 102.059 26.0195 102.887 26.4961C103.715 26.9727 104.352 27.6484 104.797 28.5234C105.242 29.3984 105.465 30.4453 105.465 31.6641V33.1406H96.8047C96.8359 34.3984 97.1719 35.3672 97.8125 36.0469C98.4609 36.7266 99.3672 37.0664 100.531 37.0664C101.359 37.0664 102.102 36.9883 102.758 36.832C103.422 36.668 104.105 36.4297 104.809 36.1172V38.3555C104.16 38.6602 103.5 38.8828 102.828 39.0234C102.156 39.1641 101.352 39.2344 100.414 39.2344C99.1406 39.2344 98.0195 38.9883 97.0508 38.4961C96.0898 37.9961 95.3359 37.2539 94.7891 36.2695C94.25 35.2852 93.9805 34.0625 93.9805 32.6016C93.9805 31.1484 94.2266 29.9141 94.7188 28.8984C95.2109 27.8828 95.9023 27.1094 96.793 26.5781C97.6836 26.0469 98.7227 25.7812 99.9102 25.7812ZM99.9102 27.8555C99.043 27.8555 98.3398 28.1367 97.8008 28.6992C97.2695 29.2617 96.957 30.0859 96.8633 31.1719H102.77C102.762 30.5234 102.652 29.9492 102.441 29.4492C102.238 28.9492 101.926 28.5586 101.504 28.2773C101.09 27.9961 100.559 27.8555 99.9102 27.8555ZM113.398 37.0078C113.758 37.0078 114.113 36.9766 114.465 36.9141C114.816 36.8438 115.137 36.7617 115.426 36.668V38.7539C115.121 38.8867 114.727 39 114.242 39.0938C113.758 39.1875 113.254 39.2344 112.73 39.2344C111.996 39.2344 111.336 39.1133 110.75 38.8711C110.164 38.6211 109.699 38.1953 109.355 37.5938C109.012 36.9922 108.84 36.1602 108.84 35.0977V28.125H107.07V26.8945L108.969 25.9219L109.871 23.1445H111.605V26.0273H115.32V28.125H111.605V35.0625C111.605 35.7188 111.77 36.207 112.098 36.5273C112.426 36.8477 112.859 37.0078 113.398 37.0078ZM120.266 21.8672L120.441 22.125C120.301 22.6953 120.117 23.3047 119.891 23.9531C119.672 24.6016 119.434 25.25 119.176 25.8984C118.918 26.5469 118.656 27.1602 118.391 27.7383H116.398C116.508 27.2773 116.621 26.793 116.738 26.2852C116.855 25.7695 116.969 25.2539 117.078 24.7383C117.188 24.2148 117.285 23.7109 117.371 23.2266C117.457 22.7344 117.531 22.2812 117.594 21.8672H120.266ZM131.422 35.2969C131.422 36.1484 131.215 36.8672 130.801 37.4531C130.387 38.0391 129.781 38.4844 128.984 38.7891C128.195 39.0859 127.227 39.2344 126.078 39.2344C125.172 39.2344 124.391 39.168 123.734 39.0352C123.086 38.9102 122.473 38.7148 121.895 38.4492V36.0703C122.512 36.3594 123.203 36.6094 123.969 36.8203C124.742 37.0312 125.473 37.1367 126.16 37.1367C127.066 37.1367 127.719 36.9961 128.117 36.7148C128.516 36.4258 128.715 36.043 128.715 35.5664C128.715 35.2852 128.633 35.0352 128.469 34.8164C128.312 34.5898 128.016 34.3594 127.578 34.125C127.148 33.8828 126.516 33.5938 125.68 33.2578C124.859 32.9297 124.168 32.6016 123.605 32.2734C123.043 31.9453 122.617 31.5508 122.328 31.0898C122.039 30.6211 121.895 30.0234 121.895 29.2969C121.895 28.1484 122.348 27.2773 123.254 26.6836C124.168 26.082 125.375 25.7812 126.875 25.7812C127.672 25.7812 128.422 25.8633 129.125 26.0273C129.836 26.1836 130.531 26.4141 131.211 26.7188L130.344 28.793C129.758 28.5352 129.168 28.3242 128.574 28.1602C127.988 27.9883 127.391 27.9023 126.781 27.9023C126.07 27.9023 125.527 28.0117 125.152 28.2305C124.785 28.4492 124.602 28.7617 124.602 29.168C124.602 29.4727 124.691 29.7305 124.871 29.9414C125.051 30.1523 125.359 30.3633 125.797 30.5742C126.242 30.7852 126.859 31.0469 127.648 31.3594C128.422 31.6562 129.09 31.9688 129.652 32.2969C130.223 32.6172 130.66 33.0117 130.965 33.4805C131.27 33.9492 131.422 34.5547 131.422 35.2969ZM155.293 25.7812C156.746 25.7812 157.84 26.1562 158.574 26.9062C159.316 27.6562 159.688 28.8594 159.688 30.5156V39H156.934V31.0078C156.934 30.0234 156.742 29.2812 156.359 28.7812C155.977 28.2812 155.395 28.0312 154.613 28.0312C153.52 28.0312 152.73 28.3828 152.246 29.0859C151.77 29.7812 151.531 30.793 151.531 32.1211V39H148.777V31.0078C148.777 30.3516 148.691 29.8047 148.52 29.3672C148.355 28.9219 148.102 28.5898 147.758 28.3711C147.414 28.1445 146.98 28.0312 146.457 28.0312C145.699 28.0312 145.094 28.2031 144.641 28.5469C144.195 28.8906 143.875 29.3984 143.68 30.0703C143.484 30.7344 143.387 31.5508 143.387 32.5195V39H140.633V26.0273H142.777L143.164 27.7734H143.316C143.582 27.3203 143.91 26.9492 144.301 26.6602C144.699 26.3633 145.141 26.1445 145.625 26.0039C146.109 25.8555 146.613 25.7812 147.137 25.7812C148.105 25.7812 148.922 25.9531 149.586 26.2969C150.25 26.6328 150.746 27.1484 151.074 27.8438H151.285C151.691 27.1406 152.258 26.6211 152.984 26.2852C153.711 25.9492 154.48 25.7812 155.293 25.7812ZM168.617 25.7812C170.258 25.7812 171.496 26.1445 172.332 26.8711C173.176 27.5977 173.598 28.7305 173.598 30.2695V39H171.641L171.113 37.1602H171.02C170.652 37.6289 170.273 38.0156 169.883 38.3203C169.492 38.625 169.039 38.8516 168.523 39C168.016 39.1562 167.395 39.2344 166.66 39.2344C165.887 39.2344 165.195 39.0938 164.586 38.8125C163.977 38.5234 163.496 38.0859 163.145 37.5C162.793 36.9141 162.617 36.1719 162.617 35.2734C162.617 33.9375 163.113 32.9336 164.105 32.2617C165.105 31.5898 166.613 31.2188 168.629 31.1484L170.879 31.0664V30.3867C170.879 29.4883 170.668 28.8477 170.246 28.4648C169.832 28.082 169.246 27.8906 168.488 27.8906C167.84 27.8906 167.211 27.9844 166.602 28.1719C165.992 28.3594 165.398 28.5898 164.82 28.8633L163.93 26.918C164.562 26.582 165.281 26.3086 166.086 26.0977C166.898 25.8867 167.742 25.7812 168.617 25.7812ZM170.867 32.8008L169.191 32.8594C167.816 32.9062 166.852 33.1406 166.297 33.5625C165.742 33.9844 165.465 34.5625 165.465 35.2969C165.465 35.9375 165.656 36.4062 166.039 36.7031C166.422 36.9922 166.926 37.1367 167.551 37.1367C168.504 37.1367 169.293 36.8672 169.918 36.3281C170.551 35.7812 170.867 34.9805 170.867 33.9258V32.8008ZM180.207 20.7656V29.5781C180.207 29.9766 180.191 30.4141 180.16 30.8906C180.129 31.3594 180.098 31.8008 180.066 32.2148H180.125C180.328 31.9414 180.57 31.6211 180.852 31.2539C181.141 30.8867 181.414 30.5664 181.672 30.293L185.633 26.0273H188.797L183.605 31.6055L189.137 39H185.902L181.754 33.3047L180.207 34.6289V39H177.453V20.7656H180.207ZM196.379 25.7812C197.535 25.7812 198.527 26.0195 199.355 26.4961C200.184 26.9727 200.82 27.6484 201.266 28.5234C201.711 29.3984 201.934 30.4453 201.934 31.6641V33.1406H193.273C193.305 34.3984 193.641 35.3672 194.281 36.0469C194.93 36.7266 195.836 37.0664 197 37.0664C197.828 37.0664 198.57 36.9883 199.227 36.832C199.891 36.668 200.574 36.4297 201.277 36.1172V38.3555C200.629 38.6602 199.969 38.8828 199.297 39.0234C198.625 39.1641 197.82 39.2344 196.883 39.2344C195.609 39.2344 194.488 38.9883 193.52 38.4961C192.559 37.9961 191.805 37.2539 191.258 36.2695C190.719 35.2852 190.449 34.0625 190.449 32.6016C190.449 31.1484 190.695 29.9141 191.188 28.8984C191.68 27.8828 192.371 27.1094 193.262 26.5781C194.152 26.0469 195.191 25.7812 196.379 25.7812ZM196.379 27.8555C195.512 27.8555 194.809 28.1367 194.27 28.6992C193.738 29.2617 193.426 30.0859 193.332 31.1719H199.238C199.23 30.5234 199.121 29.9492 198.91 29.4492C198.707 28.9492 198.395 28.5586 197.973 28.2773C197.559 27.9961 197.027 27.8555 196.379 27.8555ZM209.316 26.0273H212.316L214.977 33.4336C215.094 33.7695 215.199 34.1016 215.293 34.4297C215.395 34.75 215.48 35.0664 215.551 35.3789C215.629 35.6914 215.691 36.0039 215.738 36.3164H215.809C215.887 35.9102 215.996 35.457 216.137 34.957C216.285 34.4492 216.449 33.9414 216.629 33.4336L219.184 26.0273H222.148L216.582 40.7812C216.262 41.625 215.867 42.3438 215.398 42.9375C214.938 43.5391 214.391 43.9922 213.758 44.2969C213.125 44.6094 212.402 44.7656 211.59 44.7656C211.199 44.7656 210.859 44.7422 210.57 44.6953C210.281 44.6562 210.035 44.6133 209.832 44.5664V42.3633C209.996 42.4023 210.203 42.4375 210.453 42.4688C210.703 42.5 210.961 42.5156 211.227 42.5156C211.719 42.5156 212.145 42.418 212.504 42.2227C212.863 42.0273 213.168 41.75 213.418 41.3906C213.668 41.0391 213.875 40.6367 214.039 40.1836L214.496 38.9648L209.316 26.0273ZM235.602 32.4844C235.602 33.5625 235.461 34.5195 235.18 35.3555C234.898 36.1914 234.488 36.8984 233.949 37.4766C233.41 38.0469 232.762 38.4844 232.004 38.7891C231.246 39.0859 230.391 39.2344 229.438 39.2344C228.547 39.2344 227.73 39.0859 226.988 38.7891C226.246 38.4844 225.602 38.0469 225.055 37.4766C224.516 36.8984 224.098 36.1914 223.801 35.3555C223.504 34.5195 223.355 33.5625 223.355 32.4844C223.355 31.0547 223.602 29.8438 224.094 28.8516C224.594 27.8516 225.305 27.0898 226.227 26.5664C227.148 26.043 228.246 25.7812 229.52 25.7812C230.715 25.7812 231.77 26.043 232.684 26.5664C233.598 27.0898 234.312 27.8516 234.828 28.8516C235.344 29.8516 235.602 31.0625 235.602 32.4844ZM226.191 32.4844C226.191 33.4297 226.305 34.2383 226.531 34.9102C226.766 35.582 227.125 36.0977 227.609 36.457C228.094 36.8086 228.719 36.9844 229.484 36.9844C230.25 36.9844 230.875 36.8086 231.359 36.457C231.844 36.0977 232.199 35.582 232.426 34.9102C232.652 34.2383 232.766 33.4297 232.766 32.4844C232.766 31.5391 232.652 30.7383 232.426 30.082C232.199 29.418 231.844 28.9141 231.359 28.5703C230.875 28.2188 230.246 28.043 229.473 28.043C228.332 28.043 227.5 28.4258 226.977 29.1914C226.453 29.957 226.191 31.0547 226.191 32.4844ZM250.074 26.0273V39H247.906L247.531 37.2539H247.379C247.105 37.6992 246.758 38.0703 246.336 38.3672C245.914 38.6562 245.445 38.8711 244.93 39.0117C244.414 39.1602 243.871 39.2344 243.301 39.2344C242.324 39.2344 241.488 39.0703 240.793 38.7422C240.105 38.4062 239.578 37.8906 239.211 37.1953C238.844 36.5 238.66 35.6016 238.66 34.5V26.0273H241.426V33.9844C241.426 34.9922 241.629 35.7461 242.035 36.2461C242.449 36.7461 243.09 36.9961 243.957 36.9961C244.793 36.9961 245.457 36.8242 245.949 36.4805C246.441 36.1367 246.789 35.6289 246.992 34.957C247.203 34.2852 247.309 33.4609 247.309 32.4844V26.0273H250.074ZM260.598 25.7812C260.816 25.7812 261.055 25.793 261.312 25.8164C261.57 25.8398 261.793 25.8711 261.98 25.9102L261.723 28.4883C261.559 28.4414 261.355 28.4062 261.113 28.3828C260.879 28.3594 260.668 28.3477 260.48 28.3477C259.988 28.3477 259.52 28.4297 259.074 28.5938C258.629 28.75 258.234 28.9922 257.891 29.3203C257.547 29.6406 257.277 30.043 257.082 30.5273C256.887 31.0117 256.789 31.5742 256.789 32.2148V39H254.023V26.0273H256.18L256.555 28.3125H256.684C256.941 27.8516 257.262 27.4297 257.645 27.0469C258.027 26.6641 258.465 26.3594 258.957 26.1328C259.457 25.8984 260.004 25.7812 260.598 25.7812ZM278.293 39L273.359 24.6914H273.254C273.277 25.0117 273.305 25.4492 273.336 26.0039C273.367 26.5586 273.395 27.1523 273.418 27.7852C273.441 28.418 273.453 29.0234 273.453 29.6016V39H270.898V21.8672H274.848L279.594 35.543H279.664L284.574 21.8672H288.512V39H285.828V29.4609C285.828 28.9375 285.836 28.3711 285.852 27.7617C285.875 27.1523 285.898 26.5742 285.922 26.0273C285.953 25.4805 285.977 25.043 285.992 24.7148H285.898L280.777 39H278.293ZM304.227 32.4844C304.227 33.5625 304.086 34.5195 303.805 35.3555C303.523 36.1914 303.113 36.8984 302.574 37.4766C302.035 38.0469 301.387 38.4844 300.629 38.7891C299.871 39.0859 299.016 39.2344 298.062 39.2344C297.172 39.2344 296.355 39.0859 295.613 38.7891C294.871 38.4844 294.227 38.0469 293.68 37.4766C293.141 36.8984 292.723 36.1914 292.426 35.3555C292.129 34.5195 291.98 33.5625 291.98 32.4844C291.98 31.0547 292.227 29.8438 292.719 28.8516C293.219 27.8516 293.93 27.0898 294.852 26.5664C295.773 26.043 296.871 25.7812 298.145 25.7812C299.34 25.7812 300.395 26.043 301.309 26.5664C302.223 27.0898 302.938 27.8516 303.453 28.8516C303.969 29.8516 304.227 31.0625 304.227 32.4844ZM294.816 32.4844C294.816 33.4297 294.93 34.2383 295.156 34.9102C295.391 35.582 295.75 36.0977 296.234 36.457C296.719 36.8086 297.344 36.9844 298.109 36.9844C298.875 36.9844 299.5 36.8086 299.984 36.457C300.469 36.0977 300.824 35.582 301.051 34.9102C301.277 34.2383 301.391 33.4297 301.391 32.4844C301.391 31.5391 301.277 30.7383 301.051 30.082C300.824 29.418 300.469 28.9141 299.984 28.5703C299.5 28.2188 298.871 28.043 298.098 28.043C296.957 28.043 296.125 28.4258 295.602 29.1914C295.078 29.957 294.816 31.0547 294.816 32.4844ZM316.109 35.2969C316.109 36.1484 315.902 36.8672 315.488 37.4531C315.074 38.0391 314.469 38.4844 313.672 38.7891C312.883 39.0859 311.914 39.2344 310.766 39.2344C309.859 39.2344 309.078 39.168 308.422 39.0352C307.773 38.9102 307.16 38.7148 306.582 38.4492V36.0703C307.199 36.3594 307.891 36.6094 308.656 36.8203C309.43 37.0312 310.16 37.1367 310.848 37.1367C311.754 37.1367 312.406 36.9961 312.805 36.7148C313.203 36.4258 313.402 36.043 313.402 35.5664C313.402 35.2852 313.32 35.0352 313.156 34.8164C313 34.5898 312.703 34.3594 312.266 34.125C311.836 33.8828 311.203 33.5938 310.367 33.2578C309.547 32.9297 308.855 32.6016 308.293 32.2734C307.73 31.9453 307.305 31.5508 307.016 31.0898C306.727 30.6211 306.582 30.0234 306.582 29.2969C306.582 28.1484 307.035 27.2773 307.941 26.6836C308.855 26.082 310.062 25.7812 311.562 25.7812C312.359 25.7812 313.109 25.8633 313.812 26.0273C314.523 26.1836 315.219 26.4141 315.898 26.7188L315.031 28.793C314.445 28.5352 313.855 28.3242 313.262 28.1602C312.676 27.9883 312.078 27.9023 311.469 27.9023C310.758 27.9023 310.215 28.0117 309.84 28.2305C309.473 28.4492 309.289 28.7617 309.289 29.168C309.289 29.4727 309.379 29.7305 309.559 29.9414C309.738 30.1523 310.047 30.3633 310.484 30.5742C310.93 30.7852 311.547 31.0469 312.336 31.3594C313.109 31.6562 313.777 31.9688 314.34 32.2969C314.91 32.6172 315.348 33.0117 315.652 33.4805C315.957 33.9492 316.109 34.5547 316.109 35.2969ZM324.172 25.7812C325.812 25.7812 327.051 26.1445 327.887 26.8711C328.73 27.5977 329.152 28.7305 329.152 30.2695V39H327.195L326.668 37.1602H326.574C326.207 37.6289 325.828 38.0156 325.438 38.3203C325.047 38.625 324.594 38.8516 324.078 39C323.57 39.1562 322.949 39.2344 322.215 39.2344C321.441 39.2344 320.75 39.0938 320.141 38.8125C319.531 38.5234 319.051 38.0859 318.699 37.5C318.348 36.9141 318.172 36.1719 318.172 35.2734C318.172 33.9375 318.668 32.9336 319.66 32.2617C320.66 31.5898 322.168 31.2188 324.184 31.1484L326.434 31.0664V30.3867C326.434 29.4883 326.223 28.8477 325.801 28.4648C325.387 28.082 324.801 27.8906 324.043 27.8906C323.395 27.8906 322.766 27.9844 322.156 28.1719C321.547 28.3594 320.953 28.5898 320.375 28.8633L319.484 26.918C320.117 26.582 320.836 26.3086 321.641 26.0977C322.453 25.8867 323.297 25.7812 324.172 25.7812ZM326.422 32.8008L324.746 32.8594C323.371 32.9062 322.406 33.1406 321.852 33.5625C321.297 33.9844 321.02 34.5625 321.02 35.2969C321.02 35.9375 321.211 36.4062 321.594 36.7031C321.977 36.9922 322.48 37.1367 323.105 37.1367C324.059 37.1367 324.848 36.8672 325.473 36.3281C326.105 35.7812 326.422 34.9805 326.422 33.9258V32.8008ZM335.762 26.0273V39H333.008V26.0273H335.762ZM334.402 21.0586C334.824 21.0586 335.188 21.1719 335.492 21.3984C335.805 21.625 335.961 22.0156 335.961 22.5703C335.961 23.1172 335.805 23.5078 335.492 23.7422C335.188 23.9688 334.824 24.082 334.402 24.082C333.965 24.082 333.594 23.9688 333.289 23.7422C332.992 23.5078 332.844 23.1172 332.844 22.5703C332.844 22.0156 332.992 21.625 333.289 21.3984C333.594 21.1719 333.965 21.0586 334.402 21.0586ZM344.938 39.2344C343.711 39.2344 342.648 38.9961 341.75 38.5195C340.852 38.043 340.16 37.3125 339.676 36.3281C339.191 35.3438 338.949 34.0938 338.949 32.5781C338.949 31 339.215 29.7109 339.746 28.7109C340.277 27.7109 341.012 26.9727 341.949 26.4961C342.895 26.0195 343.977 25.7812 345.195 25.7812C345.969 25.7812 346.668 25.8594 347.293 26.0156C347.926 26.1641 348.461 26.3477 348.898 26.5664L348.078 28.7695C347.602 28.5742 347.113 28.4102 346.613 28.2773C346.113 28.1445 345.633 28.0781 345.172 28.0781C344.414 28.0781 343.781 28.2461 343.273 28.582C342.773 28.918 342.398 29.418 342.148 30.082C341.906 30.7461 341.785 31.5703 341.785 32.5547C341.785 33.5078 341.91 34.3125 342.16 34.9688C342.41 35.6172 342.781 36.1094 343.273 36.4453C343.766 36.7734 344.371 36.9375 345.09 36.9375C345.801 36.9375 346.438 36.8516 347 36.6797C347.562 36.5078 348.094 36.2852 348.594 36.0117V38.4023C348.102 38.6836 347.574 38.8906 347.012 39.0234C346.449 39.1641 345.758 39.2344 344.938 39.2344ZM354.02 33.7734H351.945L351.383 21.8672H354.582L354.02 33.7734ZM351.242 37.5469C351.242 36.9062 351.406 36.457 351.734 36.1992C352.07 35.9336 352.48 35.8008 352.965 35.8008C353.441 35.8008 353.848 35.9336 354.184 36.1992C354.52 36.457 354.688 36.9062 354.688 37.5469C354.688 38.1719 354.52 38.625 354.184 38.9062C353.848 39.1797 353.441 39.3164 352.965 39.3164C352.48 39.3164 352.07 39.1797 351.734 38.9062C351.406 38.625 351.242 38.1719 351.242 37.5469Z" fill="#141414"/>
<path d="M75.9141 76V64.5781H77.2422V74.8125H82.3125V76H75.9141ZM87.375 67.2812C88.1042 67.2812 88.7292 67.4427 89.25 67.7656C89.7708 68.0885 90.1693 68.5417 90.4453 69.125C90.7214 69.7031 90.8594 70.3802 90.8594 71.1562V71.9609H84.9453C84.9609 72.9661 85.2109 73.7318 85.6953 74.2578C86.1797 74.7839 86.862 75.0469 87.7422 75.0469C88.2839 75.0469 88.763 74.9974 89.1797 74.8984C89.5964 74.7995 90.0286 74.6536 90.4766 74.4609V75.6016C90.0443 75.7943 89.6146 75.9349 89.1875 76.0234C88.7656 76.112 88.2656 76.1562 87.6875 76.1562C86.8646 76.1562 86.1458 75.9896 85.5312 75.6562C84.9219 75.3177 84.4479 74.8229 84.1094 74.1719C83.7708 73.5208 83.6016 72.724 83.6016 71.7812C83.6016 70.8594 83.7552 70.0625 84.0625 69.3906C84.375 68.7135 84.8125 68.1927 85.375 67.8281C85.9427 67.4635 86.6094 67.2812 87.375 67.2812ZM87.3594 68.3438C86.6667 68.3438 86.1146 68.5703 85.7031 69.0234C85.2917 69.4766 85.0469 70.1094 84.9688 70.9219H89.5C89.4948 70.4115 89.4141 69.9635 89.2578 69.5781C89.1068 69.1875 88.875 68.8854 88.5625 68.6719C88.25 68.4531 87.849 68.3438 87.3594 68.3438ZM95.8281 75.0938C96.0417 75.0938 96.2604 75.0755 96.4844 75.0391C96.7083 75.0026 96.8906 74.9583 97.0312 74.9062V75.9141C96.8802 75.9818 96.6693 76.0391 96.3984 76.0859C96.1328 76.1328 95.8724 76.1562 95.6172 76.1562C95.1641 76.1562 94.7526 76.0781 94.3828 75.9219C94.013 75.7604 93.7161 75.4896 93.4922 75.1094C93.2734 74.7292 93.1641 74.2031 93.1641 73.5312V68.4531H91.9453V67.8203L93.1719 67.3125L93.6875 65.4531H94.4688V67.4375H96.9766V68.4531H94.4688V73.4922C94.4688 74.0286 94.5911 74.4297 94.8359 74.6953C95.0859 74.9609 95.4167 75.0938 95.8281 75.0938ZM99.7891 64.5781L99.9062 64.75C99.8125 65.1302 99.6927 65.5391 99.5469 65.9766C99.401 66.4089 99.2422 66.8411 99.0703 67.2734C98.8984 67.7057 98.7266 68.112 98.5547 68.4922H97.6016C97.6797 68.1953 97.7578 67.8776 97.8359 67.5391C97.9193 67.2005 97.9974 66.8568 98.0703 66.5078C98.1432 66.1589 98.2083 65.8203 98.2656 65.4922C98.3281 65.1641 98.3802 64.8594 98.4219 64.5781H99.7891ZM107.023 73.6562C107.023 74.2031 106.885 74.6641 106.609 75.0391C106.339 75.4089 105.948 75.6875 105.438 75.875C104.932 76.0625 104.328 76.1562 103.625 76.1562C103.026 76.1562 102.508 76.1094 102.07 76.0156C101.633 75.9219 101.25 75.7891 100.922 75.6172V74.4219C101.271 74.5938 101.688 74.75 102.172 74.8906C102.656 75.0312 103.151 75.1016 103.656 75.1016C104.396 75.1016 104.932 74.9818 105.266 74.7422C105.599 74.5026 105.766 74.1771 105.766 73.7656C105.766 73.5312 105.698 73.3255 105.562 73.1484C105.432 72.9661 105.211 72.7917 104.898 72.625C104.586 72.4531 104.154 72.2656 103.602 72.0625C103.055 71.8542 102.581 71.6484 102.18 71.4453C101.784 71.237 101.477 70.9844 101.258 70.6875C101.044 70.3906 100.938 70.0052 100.938 69.5312C100.938 68.8073 101.229 68.2526 101.812 67.8672C102.401 67.4766 103.172 67.2812 104.125 67.2812C104.641 67.2812 105.122 67.3333 105.57 67.4375C106.023 67.5365 106.445 67.6719 106.836 67.8438L106.398 68.8828C106.044 68.7318 105.667 68.6042 105.266 68.5C104.865 68.3958 104.456 68.3438 104.039 68.3438C103.44 68.3438 102.979 68.4427 102.656 68.6406C102.339 68.8385 102.18 69.1094 102.18 69.4531C102.18 69.7188 102.253 69.9375 102.398 70.1094C102.549 70.2812 102.789 70.4427 103.117 70.5938C103.445 70.7448 103.878 70.9219 104.414 71.125C104.951 71.3229 105.414 71.5286 105.805 71.7422C106.195 71.9505 106.495 72.2057 106.703 72.5078C106.917 72.8047 107.023 73.1875 107.023 73.6562ZM118.805 73.6562C118.805 74.2031 118.667 74.6641 118.391 75.0391C118.12 75.4089 117.729 75.6875 117.219 75.875C116.714 76.0625 116.109 76.1562 115.406 76.1562C114.807 76.1562 114.289 76.1094 113.852 76.0156C113.414 75.9219 113.031 75.7891 112.703 75.6172V74.4219C113.052 74.5938 113.469 74.75 113.953 74.8906C114.438 75.0312 114.932 75.1016 115.438 75.1016C116.177 75.1016 116.714 74.9818 117.047 74.7422C117.38 74.5026 117.547 74.1771 117.547 73.7656C117.547 73.5312 117.479 73.3255 117.344 73.1484C117.214 72.9661 116.992 72.7917 116.68 72.625C116.367 72.4531 115.935 72.2656 115.383 72.0625C114.836 71.8542 114.362 71.6484 113.961 71.4453C113.565 71.237 113.258 70.9844 113.039 70.6875C112.826 70.3906 112.719 70.0052 112.719 69.5312C112.719 68.8073 113.01 68.2526 113.594 67.8672C114.182 67.4766 114.953 67.2812 115.906 67.2812C116.422 67.2812 116.904 67.3333 117.352 67.4375C117.805 67.5365 118.227 67.6719 118.617 67.8438L118.18 68.8828C117.826 68.7318 117.448 68.6042 117.047 68.5C116.646 68.3958 116.237 68.3438 115.82 68.3438C115.221 68.3438 114.76 68.4427 114.438 68.6406C114.12 68.8385 113.961 69.1094 113.961 69.4531C113.961 69.7188 114.034 69.9375 114.18 70.1094C114.331 70.2812 114.57 70.4427 114.898 70.5938C115.227 70.7448 115.659 70.9219 116.195 71.125C116.732 71.3229 117.195 71.5286 117.586 71.7422C117.977 71.9505 118.276 72.2057 118.484 72.5078C118.698 72.8047 118.805 73.1875 118.805 73.6562ZM122.188 63.8438V67.4766C122.188 67.6849 122.182 67.8958 122.172 68.1094C122.161 68.3177 122.143 68.5104 122.117 68.6875H122.203C122.38 68.3854 122.604 68.1328 122.875 67.9297C123.151 67.7214 123.464 67.5651 123.812 67.4609C124.161 67.3516 124.531 67.2969 124.922 67.2969C125.609 67.2969 126.182 67.4062 126.641 67.625C127.104 67.8438 127.451 68.1823 127.68 68.6406C127.914 69.099 128.031 69.6927 128.031 70.4219V76H126.75V70.5078C126.75 69.7943 126.586 69.2604 126.258 68.9062C125.935 68.5521 125.438 68.375 124.766 68.375C124.13 68.375 123.622 68.4974 123.242 68.7422C122.867 68.9818 122.596 69.3359 122.43 69.8047C122.268 70.2734 122.188 70.8464 122.188 71.5234V76H120.891V63.8438H122.188ZM138.086 71.7031C138.086 72.4062 137.995 73.0339 137.812 73.5859C137.63 74.138 137.367 74.6042 137.023 74.9844C136.68 75.3646 136.263 75.6562 135.773 75.8594C135.289 76.0573 134.74 76.1562 134.125 76.1562C133.552 76.1562 133.026 76.0573 132.547 75.8594C132.073 75.6562 131.661 75.3646 131.312 74.9844C130.969 74.6042 130.701 74.138 130.508 73.5859C130.32 73.0339 130.227 72.4062 130.227 71.7031C130.227 70.7656 130.385 69.9688 130.703 69.3125C131.021 68.651 131.474 68.1484 132.062 67.8047C132.656 67.4557 133.362 67.2812 134.18 67.2812C134.961 67.2812 135.643 67.4557 136.227 67.8047C136.815 68.1536 137.271 68.6589 137.594 69.3203C137.922 69.9766 138.086 70.7708 138.086 71.7031ZM131.57 71.7031C131.57 72.3906 131.661 72.987 131.844 73.4922C132.026 73.9974 132.307 74.388 132.688 74.6641C133.068 74.9401 133.557 75.0781 134.156 75.0781C134.75 75.0781 135.237 74.9401 135.617 74.6641C136.003 74.388 136.286 73.9974 136.469 73.4922C136.651 72.987 136.742 72.3906 136.742 71.7031C136.742 71.0208 136.651 70.4323 136.469 69.9375C136.286 69.4375 136.005 69.0521 135.625 68.7812C135.245 68.5104 134.753 68.375 134.148 68.375C133.258 68.375 132.604 68.6693 132.188 69.2578C131.776 69.8464 131.57 70.6615 131.57 71.7031ZM147.297 75.9844L145.773 71C145.706 70.7865 145.641 70.5781 145.578 70.375C145.521 70.1667 145.466 69.9688 145.414 69.7812C145.367 69.5885 145.323 69.4115 145.281 69.25C145.245 69.0833 145.214 68.9401 145.188 68.8203H145.133C145.112 68.9401 145.083 69.0833 145.047 69.25C145.01 69.4115 144.966 69.5885 144.914 69.7812C144.867 69.974 144.815 70.1771 144.758 70.3906C144.701 70.599 144.635 70.8099 144.562 71.0234L142.969 75.9844H141.508L139.148 67.4219H140.492L141.727 72.1484C141.81 72.4609 141.888 72.7708 141.961 73.0781C142.039 73.3802 142.104 73.6667 142.156 73.9375C142.214 74.2031 142.255 74.4349 142.281 74.6328H142.344C142.375 74.5026 142.409 74.3464 142.445 74.1641C142.487 73.9818 142.531 73.7891 142.578 73.5859C142.63 73.3776 142.685 73.1719 142.742 72.9688C142.799 72.7604 142.857 72.5651 142.914 72.3828L144.492 67.4219H145.891L147.414 72.375C147.492 72.625 147.568 72.8854 147.641 73.1562C147.719 73.4271 147.789 73.6901 147.852 73.9453C147.914 74.1953 147.958 74.4193 147.984 74.6172H148.047C148.068 74.4401 148.107 74.2214 148.164 73.9609C148.221 73.7005 148.286 73.4141 148.359 73.1016C148.438 72.7891 148.518 72.4714 148.602 72.1484L149.852 67.4219H151.172L148.805 75.9844H147.297ZM159.656 75.0938C159.87 75.0938 160.089 75.0755 160.312 75.0391C160.536 75.0026 160.719 74.9583 160.859 74.9062V75.9141C160.708 75.9818 160.497 76.0391 160.227 76.0859C159.961 76.1328 159.701 76.1562 159.445 76.1562C158.992 76.1562 158.581 76.0781 158.211 75.9219C157.841 75.7604 157.544 75.4896 157.32 75.1094C157.102 74.7292 156.992 74.2031 156.992 73.5312V68.4531H155.773V67.8203L157 67.3125L157.516 65.4531H158.297V67.4375H160.805V68.4531H158.297V73.4922C158.297 74.0286 158.419 74.4297 158.664 74.6953C158.914 74.9609 159.245 75.0938 159.656 75.0938ZM163.891 63.8438V67.4766C163.891 67.6849 163.885 67.8958 163.875 68.1094C163.865 68.3177 163.846 68.5104 163.82 68.6875H163.906C164.083 68.3854 164.307 68.1328 164.578 67.9297C164.854 67.7214 165.167 67.5651 165.516 67.4609C165.865 67.3516 166.234 67.2969 166.625 67.2969C167.312 67.2969 167.885 67.4062 168.344 67.625C168.807 67.8438 169.154 68.1823 169.383 68.6406C169.617 69.099 169.734 69.6927 169.734 70.4219V76H168.453V70.5078C168.453 69.7943 168.289 69.2604 167.961 68.9062C167.638 68.5521 167.141 68.375 166.469 68.375C165.833 68.375 165.326 68.4974 164.945 68.7422C164.57 68.9818 164.299 69.3359 164.133 69.8047C163.971 70.2734 163.891 70.8464 163.891 71.5234V76H162.594V63.8438H163.891ZM175.703 67.2812C176.432 67.2812 177.057 67.4427 177.578 67.7656C178.099 68.0885 178.497 68.5417 178.773 69.125C179.049 69.7031 179.188 70.3802 179.188 71.1562V71.9609H173.273C173.289 72.9661 173.539 73.7318 174.023 74.2578C174.508 74.7839 175.19 75.0469 176.07 75.0469C176.612 75.0469 177.091 74.9974 177.508 74.8984C177.924 74.7995 178.357 74.6536 178.805 74.4609V75.6016C178.372 75.7943 177.943 75.9349 177.516 76.0234C177.094 76.112 176.594 76.1562 176.016 76.1562C175.193 76.1562 174.474 75.9896 173.859 75.6562C173.25 75.3177 172.776 74.8229 172.438 74.1719C172.099 73.5208 171.93 72.724 171.93 71.7812C171.93 70.8594 172.083 70.0625 172.391 69.3906C172.703 68.7135 173.141 68.1927 173.703 67.8281C174.271 67.4635 174.938 67.2812 175.703 67.2812ZM175.688 68.3438C174.995 68.3438 174.443 68.5703 174.031 69.0234C173.62 69.4766 173.375 70.1094 173.297 70.9219H177.828C177.823 70.4115 177.742 69.9635 177.586 69.5781C177.435 69.1875 177.203 68.8854 176.891 68.6719C176.578 68.4531 176.177 68.3438 175.688 68.3438ZM192.516 75.9844L190.992 71C190.924 70.7865 190.859 70.5781 190.797 70.375C190.74 70.1667 190.685 69.9688 190.633 69.7812C190.586 69.5885 190.542 69.4115 190.5 69.25C190.464 69.0833 190.432 68.9401 190.406 68.8203H190.352C190.331 68.9401 190.302 69.0833 190.266 69.25C190.229 69.4115 190.185 69.5885 190.133 69.7812C190.086 69.974 190.034 70.1771 189.977 70.3906C189.919 70.599 189.854 70.8099 189.781 71.0234L188.188 75.9844H186.727L184.367 67.4219H185.711L186.945 72.1484C187.029 72.4609 187.107 72.7708 187.18 73.0781C187.258 73.3802 187.323 73.6667 187.375 73.9375C187.432 74.2031 187.474 74.4349 187.5 74.6328H187.562C187.594 74.5026 187.628 74.3464 187.664 74.1641C187.706 73.9818 187.75 73.7891 187.797 73.5859C187.849 73.3776 187.904 73.1719 187.961 72.9688C188.018 72.7604 188.076 72.5651 188.133 72.3828L189.711 67.4219H191.109L192.633 72.375C192.711 72.625 192.786 72.8854 192.859 73.1562C192.938 73.4271 193.008 73.6901 193.07 73.9453C193.133 74.1953 193.177 74.4193 193.203 74.6172H193.266C193.286 74.4401 193.326 74.2214 193.383 73.9609C193.44 73.7005 193.505 73.4141 193.578 73.1016C193.656 72.7891 193.737 72.4714 193.82 72.1484L195.07 67.4219H196.391L194.023 75.9844H192.516ZM205.336 71.7031C205.336 72.4062 205.245 73.0339 205.062 73.5859C204.88 74.138 204.617 74.6042 204.273 74.9844C203.93 75.3646 203.513 75.6562 203.023 75.8594C202.539 76.0573 201.99 76.1562 201.375 76.1562C200.802 76.1562 200.276 76.0573 199.797 75.8594C199.323 75.6562 198.911 75.3646 198.562 74.9844C198.219 74.6042 197.951 74.138 197.758 73.5859C197.57 73.0339 197.477 72.4062 197.477 71.7031C197.477 70.7656 197.635 69.9688 197.953 69.3125C198.271 68.651 198.724 68.1484 199.312 67.8047C199.906 67.4557 200.612 67.2812 201.43 67.2812C202.211 67.2812 202.893 67.4557 203.477 67.8047C204.065 68.1536 204.521 68.6589 204.844 69.3203C205.172 69.9766 205.336 70.7708 205.336 71.7031ZM198.82 71.7031C198.82 72.3906 198.911 72.987 199.094 73.4922C199.276 73.9974 199.557 74.388 199.938 74.6641C200.318 74.9401 200.807 75.0781 201.406 75.0781C202 75.0781 202.487 74.9401 202.867 74.6641C203.253 74.388 203.536 73.9974 203.719 73.4922C203.901 72.987 203.992 72.3906 203.992 71.7031C203.992 71.0208 203.901 70.4323 203.719 69.9375C203.536 69.4375 203.255 69.0521 202.875 68.7812C202.495 68.5104 202.003 68.375 201.398 68.375C200.508 68.375 199.854 68.6693 199.438 69.2578C199.026 69.8464 198.82 70.6615 198.82 71.7031ZM211.469 67.2812C211.641 67.2812 211.82 67.2917 212.008 67.3125C212.195 67.3281 212.362 67.3516 212.508 67.3828L212.344 68.5859C212.203 68.5495 212.047 68.5208 211.875 68.5C211.703 68.4792 211.542 68.4688 211.391 68.4688C211.047 68.4688 210.721 68.5391 210.414 68.6797C210.112 68.8151 209.846 69.013 209.617 69.2734C209.388 69.5286 209.208 69.8385 209.078 70.2031C208.948 70.5625 208.883 70.9635 208.883 71.4062V76H207.578V67.4375H208.656L208.797 69.0156H208.852C209.029 68.6979 209.242 68.4089 209.492 68.1484C209.742 67.8828 210.031 67.6719 210.359 67.5156C210.693 67.3594 211.062 67.2812 211.469 67.2812ZM215.43 76H214.125V63.8438H215.43V76ZM221.219 76.1562C220.135 76.1562 219.276 75.7865 218.641 75.0469C218.01 74.3073 217.695 73.2083 217.695 71.75C217.695 70.276 218.018 69.1641 218.664 68.4141C219.31 67.6589 220.169 67.2812 221.242 67.2812C221.695 67.2812 222.091 67.3411 222.43 67.4609C222.768 67.5807 223.06 67.7422 223.305 67.9453C223.549 68.1432 223.755 68.3698 223.922 68.625H224.016C223.995 68.4635 223.974 68.2422 223.953 67.9609C223.932 67.6797 223.922 67.4505 223.922 67.2734V63.8438H225.219V76H224.172L223.977 74.7812H223.922C223.76 75.0365 223.555 75.2682 223.305 75.4766C223.06 75.6849 222.766 75.8516 222.422 75.9766C222.083 76.0964 221.682 76.1562 221.219 76.1562ZM221.422 75.0781C222.339 75.0781 222.987 74.8177 223.367 74.2969C223.747 73.776 223.938 73.0026 223.938 71.9766V71.7422C223.938 70.6536 223.755 69.8177 223.391 69.2344C223.031 68.651 222.375 68.3594 221.422 68.3594C220.625 68.3594 220.029 68.6667 219.633 69.2812C219.237 69.8906 219.039 70.724 219.039 71.7812C219.039 72.8333 219.234 73.6458 219.625 74.2188C220.021 74.7917 220.62 75.0781 221.422 75.0781ZM239.094 75.9844L237.57 71C237.503 70.7865 237.438 70.5781 237.375 70.375C237.318 70.1667 237.263 69.9688 237.211 69.7812C237.164 69.5885 237.12 69.4115 237.078 69.25C237.042 69.0833 237.01 68.9401 236.984 68.8203H236.93C236.909 68.9401 236.88 69.0833 236.844 69.25C236.807 69.4115 236.763 69.5885 236.711 69.7812C236.664 69.974 236.612 70.1771 236.555 70.3906C236.497 70.599 236.432 70.8099 236.359 71.0234L234.766 75.9844H233.305L230.945 67.4219H232.289L233.523 72.1484C233.607 72.4609 233.685 72.7708 233.758 73.0781C233.836 73.3802 233.901 73.6667 233.953 73.9375C234.01 74.2031 234.052 74.4349 234.078 74.6328H234.141C234.172 74.5026 234.206 74.3464 234.242 74.1641C234.284 73.9818 234.328 73.7891 234.375 73.5859C234.427 73.3776 234.482 73.1719 234.539 72.9688C234.596 72.7604 234.654 72.5651 234.711 72.3828L236.289 67.4219H237.688L239.211 72.375C239.289 72.625 239.365 72.8854 239.438 73.1562C239.516 73.4271 239.586 73.6901 239.648 73.9453C239.711 74.1953 239.755 74.4193 239.781 74.6172H239.844C239.865 74.4401 239.904 74.2214 239.961 73.9609C240.018 73.7005 240.083 73.4141 240.156 73.1016C240.234 72.7891 240.315 72.4714 240.398 72.1484L241.648 67.4219H242.969L240.602 75.9844H239.094ZM245.828 63.8438V67.4766C245.828 67.6849 245.823 67.8958 245.812 68.1094C245.802 68.3177 245.784 68.5104 245.758 68.6875H245.844C246.021 68.3854 246.245 68.1328 246.516 67.9297C246.792 67.7214 247.104 67.5651 247.453 67.4609C247.802 67.3516 248.172 67.2969 248.562 67.2969C249.25 67.2969 249.823 67.4062 250.281 67.625C250.745 67.8438 251.091 68.1823 251.32 68.6406C251.555 69.099 251.672 69.6927 251.672 70.4219V76H250.391V70.5078C250.391 69.7943 250.227 69.2604 249.898 68.9062C249.576 68.5521 249.078 68.375 248.406 68.375C247.771 68.375 247.263 68.4974 246.883 68.7422C246.508 68.9818 246.237 69.3359 246.07 69.8047C245.909 70.2734 245.828 70.8464 245.828 71.5234V76H244.531V63.8438H245.828ZM257.547 67.2969C258.568 67.2969 259.326 67.526 259.82 67.9844C260.315 68.4427 260.562 69.1745 260.562 70.1797V76H259.617L259.367 74.7344H259.305C259.065 75.0469 258.815 75.3099 258.555 75.5234C258.294 75.7318 257.992 75.8906 257.648 76C257.31 76.1042 256.893 76.1562 256.398 76.1562C255.878 76.1562 255.414 76.0651 255.008 75.8828C254.607 75.7005 254.289 75.4245 254.055 75.0547C253.826 74.6849 253.711 74.2161 253.711 73.6484C253.711 72.7943 254.049 72.138 254.727 71.6797C255.404 71.2214 256.435 70.9714 257.82 70.9297L259.297 70.8672V70.3438C259.297 69.6042 259.138 69.0859 258.82 68.7891C258.503 68.4922 258.055 68.3438 257.477 68.3438C257.029 68.3438 256.602 68.4089 256.195 68.5391C255.789 68.6693 255.404 68.8229 255.039 69L254.641 68.0156C255.026 67.8177 255.469 67.6484 255.969 67.5078C256.469 67.3672 256.995 67.2969 257.547 67.2969ZM259.281 71.7812L257.977 71.8359C256.909 71.8776 256.156 72.0521 255.719 72.3594C255.281 72.6667 255.062 73.1016 255.062 73.6641C255.062 74.1536 255.211 74.5156 255.508 74.75C255.805 74.9844 256.198 75.1016 256.688 75.1016C257.448 75.1016 258.07 74.8906 258.555 74.4688C259.039 74.0469 259.281 73.4141 259.281 72.5703V71.7812ZM266 75.0938C266.214 75.0938 266.432 75.0755 266.656 75.0391C266.88 75.0026 267.062 74.9583 267.203 74.9062V75.9141C267.052 75.9818 266.841 76.0391 266.57 76.0859C266.305 76.1328 266.044 76.1562 265.789 76.1562C265.336 76.1562 264.924 76.0781 264.555 75.9219C264.185 75.7604 263.888 75.4896 263.664 75.1094C263.445 74.7292 263.336 74.2031 263.336 73.5312V68.4531H262.117V67.8203L263.344 67.3125L263.859 65.4531H264.641V67.4375H267.148V68.4531H264.641V73.4922C264.641 74.0286 264.763 74.4297 265.008 74.6953C265.258 74.9609 265.589 75.0938 266 75.0938ZM271.742 67.4375H273.133L275.023 72.4062C275.133 72.6979 275.234 72.9792 275.328 73.25C275.422 73.5156 275.505 73.7708 275.578 74.0156C275.651 74.2604 275.708 74.4974 275.75 74.7266H275.805C275.878 74.4661 275.982 74.125 276.117 73.7031C276.253 73.276 276.398 72.8411 276.555 72.3984L278.344 67.4375H279.742L276.016 77.2578C275.818 77.7839 275.586 78.2422 275.32 78.6328C275.06 79.0234 274.742 79.3229 274.367 79.5312C273.992 79.7448 273.539 79.8516 273.008 79.8516C272.763 79.8516 272.547 79.8359 272.359 79.8047C272.172 79.7786 272.01 79.7474 271.875 79.7109V78.6719C271.99 78.6979 272.128 78.7214 272.289 78.7422C272.456 78.763 272.628 78.7734 272.805 78.7734C273.128 78.7734 273.406 78.7109 273.641 78.5859C273.88 78.4661 274.086 78.2891 274.258 78.0547C274.43 77.8203 274.578 77.5417 274.703 77.2188L275.172 76.0156L271.742 67.4375ZM288.492 71.7031C288.492 72.4062 288.401 73.0339 288.219 73.5859C288.036 74.138 287.773 74.6042 287.43 74.9844C287.086 75.3646 286.669 75.6562 286.18 75.8594C285.695 76.0573 285.146 76.1562 284.531 76.1562C283.958 76.1562 283.432 76.0573 282.953 75.8594C282.479 75.6562 282.068 75.3646 281.719 74.9844C281.375 74.6042 281.107 74.138 280.914 73.5859C280.727 73.0339 280.633 72.4062 280.633 71.7031C280.633 70.7656 280.792 69.9688 281.109 69.3125C281.427 68.651 281.88 68.1484 282.469 67.8047C283.062 67.4557 283.768 67.2812 284.586 67.2812C285.367 67.2812 286.049 67.4557 286.633 67.8047C287.221 68.1536 287.677 68.6589 288 69.3203C288.328 69.9766 288.492 70.7708 288.492 71.7031ZM281.977 71.7031C281.977 72.3906 282.068 72.987 282.25 73.4922C282.432 73.9974 282.714 74.388 283.094 74.6641C283.474 74.9401 283.964 75.0781 284.562 75.0781C285.156 75.0781 285.643 74.9401 286.023 74.6641C286.409 74.388 286.693 73.9974 286.875 73.4922C287.057 72.987 287.148 72.3906 287.148 71.7031C287.148 71.0208 287.057 70.4323 286.875 69.9375C286.693 69.4375 286.411 69.0521 286.031 68.7812C285.651 68.5104 285.159 68.375 284.555 68.375C283.664 68.375 283.01 68.6693 282.594 69.2578C282.182 69.8464 281.977 70.6615 281.977 71.7031ZM297.805 67.4375V76H296.742L296.555 74.7969H296.484C296.307 75.0938 296.078 75.3438 295.797 75.5469C295.516 75.75 295.198 75.901 294.844 76C294.495 76.1042 294.122 76.1562 293.727 76.1562C293.049 76.1562 292.482 76.0469 292.023 75.8281C291.565 75.6094 291.219 75.2708 290.984 74.8125C290.755 74.3542 290.641 73.7656 290.641 73.0469V67.4375H291.953V72.9531C291.953 73.6667 292.115 74.2005 292.438 74.5547C292.76 74.9036 293.253 75.0781 293.914 75.0781C294.549 75.0781 295.055 74.9583 295.43 74.7188C295.81 74.4792 296.083 74.1276 296.25 73.6641C296.417 73.1953 296.5 72.6224 296.5 71.9453V67.4375H297.805ZM308.133 76.1562C307.362 76.1562 306.682 75.9974 306.094 75.6797C305.505 75.362 305.047 74.8776 304.719 74.2266C304.391 73.5755 304.227 72.7552 304.227 71.7656C304.227 70.7292 304.398 69.8828 304.742 69.2266C305.091 68.5651 305.57 68.0755 306.18 67.7578C306.789 67.4401 307.482 67.2812 308.258 67.2812C308.685 67.2812 309.096 67.3255 309.492 67.4141C309.893 67.4974 310.221 67.6042 310.477 67.7344L310.086 68.8203C309.826 68.7161 309.523 68.6224 309.18 68.5391C308.841 68.4557 308.523 68.4141 308.227 68.4141C307.633 68.4141 307.138 68.5417 306.742 68.7969C306.352 69.0521 306.057 69.4271 305.859 69.9219C305.667 70.4167 305.57 71.026 305.57 71.75C305.57 72.4427 305.664 73.0339 305.852 73.5234C306.044 74.013 306.328 74.388 306.703 74.6484C307.083 74.9036 307.557 75.0312 308.125 75.0312C308.578 75.0312 308.987 74.9844 309.352 74.8906C309.716 74.7917 310.047 74.6771 310.344 74.5469V75.7031C310.057 75.849 309.737 75.9609 309.383 76.0391C309.034 76.1172 308.617 76.1562 308.133 76.1562ZM315.578 67.2969C316.599 67.2969 317.357 67.526 317.852 67.9844C318.346 68.4427 318.594 69.1745 318.594 70.1797V76H317.648L317.398 74.7344H317.336C317.096 75.0469 316.846 75.3099 316.586 75.5234C316.326 75.7318 316.023 75.8906 315.68 76C315.341 76.1042 314.924 76.1562 314.43 76.1562C313.909 76.1562 313.445 76.0651 313.039 75.8828C312.638 75.7005 312.32 75.4245 312.086 75.0547C311.857 74.6849 311.742 74.2161 311.742 73.6484C311.742 72.7943 312.081 72.138 312.758 71.6797C313.435 71.2214 314.466 70.9714 315.852 70.9297L317.328 70.8672V70.3438C317.328 69.6042 317.169 69.0859 316.852 68.7891C316.534 68.4922 316.086 68.3438 315.508 68.3438C315.06 68.3438 314.633 68.4089 314.227 68.5391C313.82 68.6693 313.435 68.8229 313.07 69L312.672 68.0156C313.057 67.8177 313.5 67.6484 314 67.5078C314.5 67.3672 315.026 67.2969 315.578 67.2969ZM317.312 71.7812L316.008 71.8359C314.94 71.8776 314.188 72.0521 313.75 72.3594C313.312 72.6667 313.094 73.1016 313.094 73.6641C313.094 74.1536 313.242 74.5156 313.539 74.75C313.836 74.9844 314.229 75.1016 314.719 75.1016C315.479 75.1016 316.102 74.8906 316.586 74.4688C317.07 74.0469 317.312 73.4141 317.312 72.5703V71.7812ZM325.32 67.2812C326.336 67.2812 327.104 67.5312 327.625 68.0312C328.146 68.526 328.406 69.3229 328.406 70.4219V76H327.125V70.5078C327.125 69.7943 326.961 69.2604 326.633 68.9062C326.31 68.5521 325.812 68.375 325.141 68.375C324.193 68.375 323.526 68.6432 323.141 69.1797C322.755 69.7161 322.562 70.4948 322.562 71.5156V76H321.266V67.4375H322.312L322.508 68.6719H322.578C322.76 68.3698 322.992 68.1172 323.273 67.9141C323.555 67.7057 323.87 67.5495 324.219 67.4453C324.568 67.3359 324.935 67.2812 325.32 67.2812ZM338.281 76.1562C337.198 76.1562 336.339 75.7865 335.703 75.0469C335.073 74.3073 334.758 73.2083 334.758 71.75C334.758 70.276 335.081 69.1641 335.727 68.4141C336.372 67.6589 337.232 67.2812 338.305 67.2812C338.758 67.2812 339.154 67.3411 339.492 67.4609C339.831 67.5807 340.122 67.7422 340.367 67.9453C340.612 68.1432 340.818 68.3698 340.984 68.625H341.078C341.057 68.4635 341.036 68.2422 341.016 67.9609C340.995 67.6797 340.984 67.4505 340.984 67.2734V63.8438H342.281V76H341.234L341.039 74.7812H340.984C340.823 75.0365 340.617 75.2682 340.367 75.4766C340.122 75.6849 339.828 75.8516 339.484 75.9766C339.146 76.0964 338.745 76.1562 338.281 76.1562ZM338.484 75.0781C339.401 75.0781 340.049 74.8177 340.43 74.2969C340.81 73.776 341 73.0026 341 71.9766V71.7422C341 70.6536 340.818 69.8177 340.453 69.2344C340.094 68.651 339.438 68.3594 338.484 68.3594C337.688 68.3594 337.091 68.6667 336.695 69.2812C336.299 69.8906 336.102 70.724 336.102 71.7812C336.102 72.8333 336.297 73.6458 336.688 74.2188C337.083 74.7917 337.682 75.0781 338.484 75.0781ZM352.414 71.7031C352.414 72.4062 352.323 73.0339 352.141 73.5859C351.958 74.138 351.695 74.6042 351.352 74.9844C351.008 75.3646 350.591 75.6562 350.102 75.8594C349.617 76.0573 349.068 76.1562 348.453 76.1562C347.88 76.1562 347.354 76.0573 346.875 75.8594C346.401 75.6562 345.99 75.3646 345.641 74.9844C345.297 74.6042 345.029 74.138 344.836 73.5859C344.648 73.0339 344.555 72.4062 344.555 71.7031C344.555 70.7656 344.714 69.9688 345.031 69.3125C345.349 68.651 345.802 68.1484 346.391 67.8047C346.984 67.4557 347.69 67.2812 348.508 67.2812C349.289 67.2812 349.971 67.4557 350.555 67.8047C351.143 68.1536 351.599 68.6589 351.922 69.3203C352.25 69.9766 352.414 70.7708 352.414 71.7031ZM345.898 71.7031C345.898 72.3906 345.99 72.987 346.172 73.4922C346.354 73.9974 346.635 74.388 347.016 74.6641C347.396 74.9401 347.885 75.0781 348.484 75.0781C349.078 75.0781 349.565 74.9401 349.945 74.6641C350.331 74.388 350.615 73.9974 350.797 73.4922C350.979 72.987 351.07 72.3906 351.07 71.7031C351.07 71.0208 350.979 70.4323 350.797 69.9375C350.615 69.4375 350.333 69.0521 349.953 68.7812C349.573 68.5104 349.081 68.375 348.477 68.375C347.586 68.375 346.932 68.6693 346.516 69.2578C346.104 69.8464 345.898 70.6615 345.898 71.7031ZM356.008 74.1406L356.117 74.3203C356.023 74.6953 355.904 75.1016 355.758 75.5391C355.612 75.9714 355.453 76.4036 355.281 76.8359C355.115 77.2734 354.948 77.6823 354.781 78.0625H353.797C353.906 77.651 354.013 77.2135 354.117 76.75C354.221 76.2917 354.318 75.8359 354.406 75.3828C354.5 74.9297 354.573 74.5156 354.625 74.1406H356.008ZM354.43 68.2578C354.43 67.8828 354.518 67.6198 354.695 67.4688C354.872 67.3125 355.089 67.2344 355.344 67.2344C355.62 67.2344 355.846 67.3125 356.023 67.4688C356.201 67.6198 356.289 67.8828 356.289 68.2578C356.289 68.612 356.201 68.8698 356.023 69.0312C355.846 69.1927 355.62 69.2734 355.344 69.2734C355.089 69.2734 354.872 69.1927 354.695 69.0312C354.518 68.8698 354.43 68.612 354.43 68.2578ZM97.3203 96H96.0156V83.8438H97.3203V96ZM103.359 87.2812C104.089 87.2812 104.714 87.4427 105.234 87.7656C105.755 88.0885 106.154 88.5417 106.43 89.125C106.706 89.7031 106.844 90.3802 106.844 91.1562V91.9609H100.93C100.945 92.9661 101.195 93.7318 101.68 94.2578C102.164 94.7839 102.846 95.0469 103.727 95.0469C104.268 95.0469 104.747 94.9974 105.164 94.8984C105.581 94.7995 106.013 94.6536 106.461 94.4609V95.6016C106.029 95.7943 105.599 95.9349 105.172 96.0234C104.75 96.112 104.25 96.1562 103.672 96.1562C102.849 96.1562 102.13 95.9896 101.516 95.6562C100.906 95.3177 100.432 94.8229 100.094 94.1719C99.7552 93.5208 99.5859 92.724 99.5859 91.7812C99.5859 90.8594 99.7396 90.0625 100.047 89.3906C100.359 88.7135 100.797 88.1927 101.359 87.8281C101.927 87.4635 102.594 87.2812 103.359 87.2812ZM103.344 88.3438C102.651 88.3438 102.099 88.5703 101.688 89.0234C101.276 89.4766 101.031 90.1094 100.953 90.9219H105.484C105.479 90.4115 105.398 89.9635 105.242 89.5781C105.091 89.1875 104.859 88.8854 104.547 88.6719C104.234 88.4531 103.833 88.3438 103.344 88.3438ZM111.812 95.0938C112.026 95.0938 112.245 95.0755 112.469 95.0391C112.693 95.0026 112.875 94.9583 113.016 94.9062V95.9141C112.865 95.9818 112.654 96.0391 112.383 96.0859C112.117 96.1328 111.857 96.1562 111.602 96.1562C111.148 96.1562 110.737 96.0781 110.367 95.9219C109.997 95.7604 109.701 95.4896 109.477 95.1094C109.258 94.7292 109.148 94.2031 109.148 93.5312V88.4531H107.93V87.8203L109.156 87.3125L109.672 85.4531H110.453V87.4375H112.961V88.4531H110.453V93.4922C110.453 94.0286 110.576 94.4297 110.82 94.6953C111.07 94.9609 111.401 95.0938 111.812 95.0938ZM115.773 84.5781L115.891 84.75C115.797 85.1302 115.677 85.5391 115.531 85.9766C115.385 86.4089 115.227 86.8411 115.055 87.2734C114.883 87.7057 114.711 88.112 114.539 88.4922H113.586C113.664 88.1953 113.742 87.8776 113.82 87.5391C113.904 87.2005 113.982 86.8568 114.055 86.5078C114.128 86.1589 114.193 85.8203 114.25 85.4922C114.312 85.1641 114.365 84.8594 114.406 84.5781H115.773ZM123.008 93.6562C123.008 94.2031 122.87 94.6641 122.594 95.0391C122.323 95.4089 121.932 95.6875 121.422 95.875C120.917 96.0625 120.312 96.1562 119.609 96.1562C119.01 96.1562 118.492 96.1094 118.055 96.0156C117.617 95.9219 117.234 95.7891 116.906 95.6172V94.4219C117.255 94.5938 117.672 94.75 118.156 94.8906C118.641 95.0312 119.135 95.1016 119.641 95.1016C120.38 95.1016 120.917 94.9818 121.25 94.7422C121.583 94.5026 121.75 94.1771 121.75 93.7656C121.75 93.5312 121.682 93.3255 121.547 93.1484C121.417 92.9661 121.195 92.7917 120.883 92.625C120.57 92.4531 120.138 92.2656 119.586 92.0625C119.039 91.8542 118.565 91.6484 118.164 91.4453C117.768 91.237 117.461 90.9844 117.242 90.6875C117.029 90.3906 116.922 90.0052 116.922 89.5312C116.922 88.8073 117.214 88.2526 117.797 87.8672C118.385 87.4766 119.156 87.2812 120.109 87.2812C120.625 87.2812 121.107 87.3333 121.555 87.4375C122.008 87.5365 122.43 87.6719 122.82 87.8438L122.383 88.8828C122.029 88.7318 121.651 88.6042 121.25 88.5C120.849 88.3958 120.44 88.3438 120.023 88.3438C119.424 88.3438 118.964 88.4427 118.641 88.6406C118.323 88.8385 118.164 89.1094 118.164 89.4531C118.164 89.7188 118.237 89.9375 118.383 90.1094C118.534 90.2812 118.773 90.4427 119.102 90.5938C119.43 90.7448 119.862 90.9219 120.398 91.125C120.935 91.3229 121.398 91.5286 121.789 91.7422C122.18 91.9505 122.479 92.2057 122.688 92.5078C122.901 92.8047 123.008 93.1875 123.008 93.6562ZM134.789 93.6562C134.789 94.2031 134.651 94.6641 134.375 95.0391C134.104 95.4089 133.714 95.6875 133.203 95.875C132.698 96.0625 132.094 96.1562 131.391 96.1562C130.792 96.1562 130.273 96.1094 129.836 96.0156C129.398 95.9219 129.016 95.7891 128.688 95.6172V94.4219C129.036 94.5938 129.453 94.75 129.938 94.8906C130.422 95.0312 130.917 95.1016 131.422 95.1016C132.161 95.1016 132.698 94.9818 133.031 94.7422C133.365 94.5026 133.531 94.1771 133.531 93.7656C133.531 93.5312 133.464 93.3255 133.328 93.1484C133.198 92.9661 132.977 92.7917 132.664 92.625C132.352 92.4531 131.919 92.2656 131.367 92.0625C130.82 91.8542 130.346 91.6484 129.945 91.4453C129.549 91.237 129.242 90.9844 129.023 90.6875C128.81 90.3906 128.703 90.0052 128.703 89.5312C128.703 88.8073 128.995 88.2526 129.578 87.8672C130.167 87.4766 130.938 87.2812 131.891 87.2812C132.406 87.2812 132.888 87.3333 133.336 87.4375C133.789 87.5365 134.211 87.6719 134.602 87.8438L134.164 88.8828C133.81 88.7318 133.432 88.6042 133.031 88.5C132.63 88.3958 132.221 88.3438 131.805 88.3438C131.206 88.3438 130.745 88.4427 130.422 88.6406C130.104 88.8385 129.945 89.1094 129.945 89.4531C129.945 89.7188 130.018 89.9375 130.164 90.1094C130.315 90.2812 130.555 90.4427 130.883 90.5938C131.211 90.7448 131.643 90.9219 132.18 91.125C132.716 91.3229 133.18 91.5286 133.57 91.7422C133.961 91.9505 134.26 92.2057 134.469 92.5078C134.682 92.8047 134.789 93.1875 134.789 93.6562ZM138.172 83.8438V87.4766C138.172 87.6849 138.167 87.8958 138.156 88.1094C138.146 88.3177 138.128 88.5104 138.102 88.6875H138.188C138.365 88.3854 138.589 88.1328 138.859 87.9297C139.135 87.7214 139.448 87.5651 139.797 87.4609C140.146 87.3516 140.516 87.2969 140.906 87.2969C141.594 87.2969 142.167 87.4062 142.625 87.625C143.089 87.8438 143.435 88.1823 143.664 88.6406C143.898 89.099 144.016 89.6927 144.016 90.4219V96H142.734V90.5078C142.734 89.7943 142.57 89.2604 142.242 88.9062C141.919 88.5521 141.422 88.375 140.75 88.375C140.115 88.375 139.607 88.4974 139.227 88.7422C138.852 88.9818 138.581 89.3359 138.414 89.8047C138.253 90.2734 138.172 90.8464 138.172 91.5234V96H136.875V83.8438H138.172ZM154.07 91.7031C154.07 92.4062 153.979 93.0339 153.797 93.5859C153.615 94.138 153.352 94.6042 153.008 94.9844C152.664 95.3646 152.247 95.6562 151.758 95.8594C151.273 96.0573 150.724 96.1562 150.109 96.1562C149.536 96.1562 149.01 96.0573 148.531 95.8594C148.057 95.6562 147.646 95.3646 147.297 94.9844C146.953 94.6042 146.685 94.138 146.492 93.5859C146.305 93.0339 146.211 92.4062 146.211 91.7031C146.211 90.7656 146.37 89.9688 146.688 89.3125C147.005 88.651 147.458 88.1484 148.047 87.8047C148.641 87.4557 149.346 87.2812 150.164 87.2812C150.945 87.2812 151.628 87.4557 152.211 87.8047C152.799 88.1536 153.255 88.6589 153.578 89.3203C153.906 89.9766 154.07 90.7708 154.07 91.7031ZM147.555 91.7031C147.555 92.3906 147.646 92.987 147.828 93.4922C148.01 93.9974 148.292 94.388 148.672 94.6641C149.052 94.9401 149.542 95.0781 150.141 95.0781C150.734 95.0781 151.221 94.9401 151.602 94.6641C151.987 94.388 152.271 93.9974 152.453 93.4922C152.635 92.987 152.727 92.3906 152.727 91.7031C152.727 91.0208 152.635 90.4323 152.453 89.9375C152.271 89.4375 151.99 89.0521 151.609 88.7812C151.229 88.5104 150.737 88.375 150.133 88.375C149.242 88.375 148.589 88.6693 148.172 89.2578C147.76 89.8464 147.555 90.6615 147.555 91.7031ZM163.281 95.9844L161.758 91C161.69 90.7865 161.625 90.5781 161.562 90.375C161.505 90.1667 161.451 89.9688 161.398 89.7812C161.352 89.5885 161.307 89.4115 161.266 89.25C161.229 89.0833 161.198 88.9401 161.172 88.8203H161.117C161.096 88.9401 161.068 89.0833 161.031 89.25C160.995 89.4115 160.951 89.5885 160.898 89.7812C160.852 89.974 160.799 90.1771 160.742 90.3906C160.685 90.599 160.62 90.8099 160.547 91.0234L158.953 95.9844H157.492L155.133 87.4219H156.477L157.711 92.1484C157.794 92.4609 157.872 92.7708 157.945 93.0781C158.023 93.3802 158.089 93.6667 158.141 93.9375C158.198 94.2031 158.24 94.4349 158.266 94.6328H158.328C158.359 94.5026 158.393 94.3464 158.43 94.1641C158.471 93.9818 158.516 93.7891 158.562 93.5859C158.615 93.3776 158.669 93.1719 158.727 92.9688C158.784 92.7604 158.841 92.5651 158.898 92.3828L160.477 87.4219H161.875L163.398 92.375C163.477 92.625 163.552 92.8854 163.625 93.1562C163.703 93.4271 163.773 93.6901 163.836 93.9453C163.898 94.1953 163.943 94.4193 163.969 94.6172H164.031C164.052 94.4401 164.091 94.2214 164.148 93.9609C164.206 93.7005 164.271 93.4141 164.344 93.1016C164.422 92.7891 164.503 92.4714 164.586 92.1484L165.836 87.4219H167.156L164.789 95.9844H163.281ZM175.641 95.0938C175.854 95.0938 176.073 95.0755 176.297 95.0391C176.521 95.0026 176.703 94.9583 176.844 94.9062V95.9141C176.693 95.9818 176.482 96.0391 176.211 96.0859C175.945 96.1328 175.685 96.1562 175.43 96.1562C174.977 96.1562 174.565 96.0781 174.195 95.9219C173.826 95.7604 173.529 95.4896 173.305 95.1094C173.086 94.7292 172.977 94.2031 172.977 93.5312V88.4531H171.758V87.8203L172.984 87.3125L173.5 85.4531H174.281V87.4375H176.789V88.4531H174.281V93.4922C174.281 94.0286 174.404 94.4297 174.648 94.6953C174.898 94.9609 175.229 95.0938 175.641 95.0938ZM179.875 83.8438V87.4766C179.875 87.6849 179.87 87.8958 179.859 88.1094C179.849 88.3177 179.831 88.5104 179.805 88.6875H179.891C180.068 88.3854 180.292 88.1328 180.562 87.9297C180.839 87.7214 181.151 87.5651 181.5 87.4609C181.849 87.3516 182.219 87.2969 182.609 87.2969C183.297 87.2969 183.87 87.4062 184.328 87.625C184.792 87.8438 185.138 88.1823 185.367 88.6406C185.602 89.099 185.719 89.6927 185.719 90.4219V96H184.438V90.5078C184.438 89.7943 184.273 89.2604 183.945 88.9062C183.622 88.5521 183.125 88.375 182.453 88.375C181.818 88.375 181.31 88.4974 180.93 88.7422C180.555 88.9818 180.284 89.3359 180.117 89.8047C179.956 90.2734 179.875 90.8464 179.875 91.5234V96H178.578V83.8438H179.875ZM191.688 87.2812C192.417 87.2812 193.042 87.4427 193.562 87.7656C194.083 88.0885 194.482 88.5417 194.758 89.125C195.034 89.7031 195.172 90.3802 195.172 91.1562V91.9609H189.258C189.273 92.9661 189.523 93.7318 190.008 94.2578C190.492 94.7839 191.174 95.0469 192.055 95.0469C192.596 95.0469 193.076 94.9974 193.492 94.8984C193.909 94.7995 194.341 94.6536 194.789 94.4609V95.6016C194.357 95.7943 193.927 95.9349 193.5 96.0234C193.078 96.112 192.578 96.1562 192 96.1562C191.177 96.1562 190.458 95.9896 189.844 95.6562C189.234 95.3177 188.76 94.8229 188.422 94.1719C188.083 93.5208 187.914 92.724 187.914 91.7812C187.914 90.8594 188.068 90.0625 188.375 89.3906C188.688 88.7135 189.125 88.1927 189.688 87.8281C190.255 87.4635 190.922 87.2812 191.688 87.2812ZM191.672 88.3438C190.979 88.3438 190.427 88.5703 190.016 89.0234C189.604 89.4766 189.359 90.1094 189.281 90.9219H193.812C193.807 90.4115 193.727 89.9635 193.57 89.5781C193.419 89.1875 193.188 88.8854 192.875 88.6719C192.562 88.4531 192.161 88.3438 191.672 88.3438ZM208.5 95.9844L206.977 91C206.909 90.7865 206.844 90.5781 206.781 90.375C206.724 90.1667 206.669 89.9688 206.617 89.7812C206.57 89.5885 206.526 89.4115 206.484 89.25C206.448 89.0833 206.417 88.9401 206.391 88.8203H206.336C206.315 88.9401 206.286 89.0833 206.25 89.25C206.214 89.4115 206.169 89.5885 206.117 89.7812C206.07 89.974 206.018 90.1771 205.961 90.3906C205.904 90.599 205.839 90.8099 205.766 91.0234L204.172 95.9844H202.711L200.352 87.4219H201.695L202.93 92.1484C203.013 92.4609 203.091 92.7708 203.164 93.0781C203.242 93.3802 203.307 93.6667 203.359 93.9375C203.417 94.2031 203.458 94.4349 203.484 94.6328H203.547C203.578 94.5026 203.612 94.3464 203.648 94.1641C203.69 93.9818 203.734 93.7891 203.781 93.5859C203.833 93.3776 203.888 93.1719 203.945 92.9688C204.003 92.7604 204.06 92.5651 204.117 92.3828L205.695 87.4219H207.094L208.617 92.375C208.695 92.625 208.771 92.8854 208.844 93.1562C208.922 93.4271 208.992 93.6901 209.055 93.9453C209.117 94.1953 209.161 94.4193 209.188 94.6172H209.25C209.271 94.4401 209.31 94.2214 209.367 93.9609C209.424 93.7005 209.49 93.4141 209.562 93.1016C209.641 92.7891 209.721 92.4714 209.805 92.1484L211.055 87.4219H212.375L210.008 95.9844H208.5ZM221.32 91.7031C221.32 92.4062 221.229 93.0339 221.047 93.5859C220.865 94.138 220.602 94.6042 220.258 94.9844C219.914 95.3646 219.497 95.6562 219.008 95.8594C218.523 96.0573 217.974 96.1562 217.359 96.1562C216.786 96.1562 216.26 96.0573 215.781 95.8594C215.307 95.6562 214.896 95.3646 214.547 94.9844C214.203 94.6042 213.935 94.138 213.742 93.5859C213.555 93.0339 213.461 92.4062 213.461 91.7031C213.461 90.7656 213.62 89.9688 213.938 89.3125C214.255 88.651 214.708 88.1484 215.297 87.8047C215.891 87.4557 216.596 87.2812 217.414 87.2812C218.195 87.2812 218.878 87.4557 219.461 87.8047C220.049 88.1536 220.505 88.6589 220.828 89.3203C221.156 89.9766 221.32 90.7708 221.32 91.7031ZM214.805 91.7031C214.805 92.3906 214.896 92.987 215.078 93.4922C215.26 93.9974 215.542 94.388 215.922 94.6641C216.302 94.9401 216.792 95.0781 217.391 95.0781C217.984 95.0781 218.471 94.9401 218.852 94.6641C219.237 94.388 219.521 93.9974 219.703 93.4922C219.885 92.987 219.977 92.3906 219.977 91.7031C219.977 91.0208 219.885 90.4323 219.703 89.9375C219.521 89.4375 219.24 89.0521 218.859 88.7812C218.479 88.5104 217.987 88.375 217.383 88.375C216.492 88.375 215.839 88.6693 215.422 89.2578C215.01 89.8464 214.805 90.6615 214.805 91.7031ZM227.453 87.2812C227.625 87.2812 227.805 87.2917 227.992 87.3125C228.18 87.3281 228.346 87.3516 228.492 87.3828L228.328 88.5859C228.188 88.5495 228.031 88.5208 227.859 88.5C227.688 88.4792 227.526 88.4688 227.375 88.4688C227.031 88.4688 226.706 88.5391 226.398 88.6797C226.096 88.8151 225.831 89.013 225.602 89.2734C225.372 89.5286 225.193 89.8385 225.062 90.2031C224.932 90.5625 224.867 90.9635 224.867 91.4062V96H223.562V87.4375H224.641L224.781 89.0156H224.836C225.013 88.6979 225.227 88.4089 225.477 88.1484C225.727 87.8828 226.016 87.6719 226.344 87.5156C226.677 87.3594 227.047 87.2812 227.453 87.2812ZM231.414 96H230.109V83.8438H231.414V96ZM237.203 96.1562C236.12 96.1562 235.26 95.7865 234.625 95.0469C233.995 94.3073 233.68 93.2083 233.68 91.75C233.68 90.276 234.003 89.1641 234.648 88.4141C235.294 87.6589 236.154 87.2812 237.227 87.2812C237.68 87.2812 238.076 87.3411 238.414 87.4609C238.753 87.5807 239.044 87.7422 239.289 87.9453C239.534 88.1432 239.74 88.3698 239.906 88.625H240C239.979 88.4635 239.958 88.2422 239.938 87.9609C239.917 87.6797 239.906 87.4505 239.906 87.2734V83.8438H241.203V96H240.156L239.961 94.7812H239.906C239.745 95.0365 239.539 95.2682 239.289 95.4766C239.044 95.6849 238.75 95.8516 238.406 95.9766C238.068 96.0964 237.667 96.1562 237.203 96.1562ZM237.406 95.0781C238.323 95.0781 238.971 94.8177 239.352 94.2969C239.732 93.776 239.922 93.0026 239.922 91.9766V91.7422C239.922 90.6536 239.74 89.8177 239.375 89.2344C239.016 88.651 238.359 88.3594 237.406 88.3594C236.609 88.3594 236.013 88.6667 235.617 89.2812C235.221 89.8906 235.023 90.724 235.023 91.7812C235.023 92.8333 235.219 93.6458 235.609 94.2188C236.005 94.7917 236.604 95.0781 237.406 95.0781ZM246.758 87.4375H248.148L250.039 92.4062C250.148 92.6979 250.25 92.9792 250.344 93.25C250.438 93.5156 250.521 93.7708 250.594 94.0156C250.667 94.2604 250.724 94.4974 250.766 94.7266H250.82C250.893 94.4661 250.997 94.125 251.133 93.7031C251.268 93.276 251.414 92.8411 251.57 92.3984L253.359 87.4375H254.758L251.031 97.2578C250.833 97.7839 250.602 98.2422 250.336 98.6328C250.076 99.0234 249.758 99.3229 249.383 99.5312C249.008 99.7448 248.555 99.8516 248.023 99.8516C247.779 99.8516 247.562 99.8359 247.375 99.8047C247.188 99.7786 247.026 99.7474 246.891 99.7109V98.6719C247.005 98.6979 247.143 98.7214 247.305 98.7422C247.471 98.763 247.643 98.7734 247.82 98.7734C248.143 98.7734 248.422 98.7109 248.656 98.5859C248.896 98.4661 249.102 98.2891 249.273 98.0547C249.445 97.8203 249.594 97.5417 249.719 97.2188L250.188 96.0156L246.758 87.4375ZM263.508 91.7031C263.508 92.4062 263.417 93.0339 263.234 93.5859C263.052 94.138 262.789 94.6042 262.445 94.9844C262.102 95.3646 261.685 95.6562 261.195 95.8594C260.711 96.0573 260.161 96.1562 259.547 96.1562C258.974 96.1562 258.448 96.0573 257.969 95.8594C257.495 95.6562 257.083 95.3646 256.734 94.9844C256.391 94.6042 256.122 94.138 255.93 93.5859C255.742 93.0339 255.648 92.4062 255.648 91.7031C255.648 90.7656 255.807 89.9688 256.125 89.3125C256.443 88.651 256.896 88.1484 257.484 87.8047C258.078 87.4557 258.784 87.2812 259.602 87.2812C260.383 87.2812 261.065 87.4557 261.648 87.8047C262.237 88.1536 262.693 88.6589 263.016 89.3203C263.344 89.9766 263.508 90.7708 263.508 91.7031ZM256.992 91.7031C256.992 92.3906 257.083 92.987 257.266 93.4922C257.448 93.9974 257.729 94.388 258.109 94.6641C258.49 94.9401 258.979 95.0781 259.578 95.0781C260.172 95.0781 260.659 94.9401 261.039 94.6641C261.424 94.388 261.708 93.9974 261.891 93.4922C262.073 92.987 262.164 92.3906 262.164 91.7031C262.164 91.0208 262.073 90.4323 261.891 89.9375C261.708 89.4375 261.427 89.0521 261.047 88.7812C260.667 88.5104 260.174 88.375 259.57 88.375C258.68 88.375 258.026 88.6693 257.609 89.2578C257.198 89.8464 256.992 90.6615 256.992 91.7031ZM272.82 87.4375V96H271.758L271.57 94.7969H271.5C271.323 95.0938 271.094 95.3438 270.812 95.5469C270.531 95.75 270.214 95.901 269.859 96C269.51 96.1042 269.138 96.1562 268.742 96.1562C268.065 96.1562 267.497 96.0469 267.039 95.8281C266.581 95.6094 266.234 95.2708 266 94.8125C265.771 94.3542 265.656 93.7656 265.656 93.0469V87.4375H266.969V92.9531C266.969 93.6667 267.13 94.2005 267.453 94.5547C267.776 94.9036 268.268 95.0781 268.93 95.0781C269.565 95.0781 270.07 94.9583 270.445 94.7188C270.826 94.4792 271.099 94.1276 271.266 93.6641C271.432 93.1953 271.516 92.6224 271.516 91.9453V87.4375H272.82ZM279.453 87.2812C279.625 87.2812 279.805 87.2917 279.992 87.3125C280.18 87.3281 280.346 87.3516 280.492 87.3828L280.328 88.5859C280.188 88.5495 280.031 88.5208 279.859 88.5C279.688 88.4792 279.526 88.4688 279.375 88.4688C279.031 88.4688 278.706 88.5391 278.398 88.6797C278.096 88.8151 277.831 89.013 277.602 89.2734C277.372 89.5286 277.193 89.8385 277.062 90.2031C276.932 90.5625 276.867 90.9635 276.867 91.4062V96H275.562V87.4375H276.641L276.781 89.0156H276.836C277.013 88.6979 277.227 88.4089 277.477 88.1484C277.727 87.8828 278.016 87.6719 278.344 87.5156C278.677 87.3594 279.047 87.2812 279.453 87.2812ZM291.484 96L287.648 85.8906H287.586C287.607 86.1042 287.625 86.3646 287.641 86.6719C287.656 86.9792 287.669 87.3151 287.68 87.6797C287.69 88.0391 287.695 88.4062 287.695 88.7812V96H286.461V84.5781H288.43L292.047 94.0781H292.102L295.773 84.5781H297.727V96H296.414V88.6875C296.414 88.349 296.419 88.0104 296.43 87.6719C296.44 87.3281 296.453 87.0052 296.469 86.7031C296.484 86.3958 296.5 86.1302 296.516 85.9062H296.453L292.57 96H291.484ZM308.039 91.7031C308.039 92.4062 307.948 93.0339 307.766 93.5859C307.583 94.138 307.32 94.6042 306.977 94.9844C306.633 95.3646 306.216 95.6562 305.727 95.8594C305.242 96.0573 304.693 96.1562 304.078 96.1562C303.505 96.1562 302.979 96.0573 302.5 95.8594C302.026 95.6562 301.615 95.3646 301.266 94.9844C300.922 94.6042 300.654 94.138 300.461 93.5859C300.273 93.0339 300.18 92.4062 300.18 91.7031C300.18 90.7656 300.339 89.9688 300.656 89.3125C300.974 88.651 301.427 88.1484 302.016 87.8047C302.609 87.4557 303.315 87.2812 304.133 87.2812C304.914 87.2812 305.596 87.4557 306.18 87.8047C306.768 88.1536 307.224 88.6589 307.547 89.3203C307.875 89.9766 308.039 90.7708 308.039 91.7031ZM301.523 91.7031C301.523 92.3906 301.615 92.987 301.797 93.4922C301.979 93.9974 302.26 94.388 302.641 94.6641C303.021 94.9401 303.51 95.0781 304.109 95.0781C304.703 95.0781 305.19 94.9401 305.57 94.6641C305.956 94.388 306.24 93.9974 306.422 93.4922C306.604 92.987 306.695 92.3906 306.695 91.7031C306.695 91.0208 306.604 90.4323 306.422 89.9375C306.24 89.4375 305.958 89.0521 305.578 88.7812C305.198 88.5104 304.706 88.375 304.102 88.375C303.211 88.375 302.557 88.6693 302.141 89.2578C301.729 89.8464 301.523 90.6615 301.523 91.7031ZM315.82 93.6562C315.82 94.2031 315.682 94.6641 315.406 95.0391C315.135 95.4089 314.745 95.6875 314.234 95.875C313.729 96.0625 313.125 96.1562 312.422 96.1562C311.823 96.1562 311.305 96.1094 310.867 96.0156C310.43 95.9219 310.047 95.7891 309.719 95.6172V94.4219C310.068 94.5938 310.484 94.75 310.969 94.8906C311.453 95.0312 311.948 95.1016 312.453 95.1016C313.193 95.1016 313.729 94.9818 314.062 94.7422C314.396 94.5026 314.562 94.1771 314.562 93.7656C314.562 93.5312 314.495 93.3255 314.359 93.1484C314.229 92.9661 314.008 92.7917 313.695 92.625C313.383 92.4531 312.951 92.2656 312.398 92.0625C311.852 91.8542 311.378 91.6484 310.977 91.4453C310.581 91.237 310.273 90.9844 310.055 90.6875C309.841 90.3906 309.734 90.0052 309.734 89.5312C309.734 88.8073 310.026 88.2526 310.609 87.8672C311.198 87.4766 311.969 87.2812 312.922 87.2812C313.438 87.2812 313.919 87.3333 314.367 87.4375C314.82 87.5365 315.242 87.6719 315.633 87.8438L315.195 88.8828C314.841 88.7318 314.464 88.6042 314.062 88.5C313.661 88.3958 313.253 88.3438 312.836 88.3438C312.237 88.3438 311.776 88.4427 311.453 88.6406C311.135 88.8385 310.977 89.1094 310.977 89.4531C310.977 89.7188 311.049 89.9375 311.195 90.1094C311.346 90.2812 311.586 90.4427 311.914 90.5938C312.242 90.7448 312.674 90.9219 313.211 91.125C313.747 91.3229 314.211 91.5286 314.602 91.7422C314.992 91.9505 315.292 92.2057 315.5 92.5078C315.714 92.8047 315.82 93.1875 315.82 93.6562ZM321.109 87.2969C322.13 87.2969 322.888 87.526 323.383 87.9844C323.878 88.4427 324.125 89.1745 324.125 90.1797V96H323.18L322.93 94.7344H322.867C322.628 95.0469 322.378 95.3099 322.117 95.5234C321.857 95.7318 321.555 95.8906 321.211 96C320.872 96.1042 320.456 96.1562 319.961 96.1562C319.44 96.1562 318.977 96.0651 318.57 95.8828C318.169 95.7005 317.852 95.4245 317.617 95.0547C317.388 94.6849 317.273 94.2161 317.273 93.6484C317.273 92.7943 317.612 92.138 318.289 91.6797C318.966 91.2214 319.997 90.9714 321.383 90.9297L322.859 90.8672V90.3438C322.859 89.6042 322.701 89.0859 322.383 88.7891C322.065 88.4922 321.617 88.3438 321.039 88.3438C320.591 88.3438 320.164 88.4089 319.758 88.5391C319.352 88.6693 318.966 88.8229 318.602 89L318.203 88.0156C318.589 87.8177 319.031 87.6484 319.531 87.5078C320.031 87.3672 320.557 87.2969 321.109 87.2969ZM322.844 91.7812L321.539 91.8359C320.471 91.8776 319.719 92.0521 319.281 92.3594C318.844 92.6667 318.625 93.1016 318.625 93.6641C318.625 94.1536 318.773 94.5156 319.07 94.75C319.367 94.9844 319.76 95.1016 320.25 95.1016C321.01 95.1016 321.633 94.8906 322.117 94.4688C322.602 94.0469 322.844 93.4141 322.844 92.5703V91.7812ZM328.094 87.4375V96H326.797V87.4375H328.094ZM327.461 84.2344C327.674 84.2344 327.857 84.3047 328.008 84.4453C328.164 84.5807 328.242 84.7943 328.242 85.0859C328.242 85.3724 328.164 85.5859 328.008 85.7266C327.857 85.8672 327.674 85.9375 327.461 85.9375C327.237 85.9375 327.049 85.8672 326.898 85.7266C326.753 85.5859 326.68 85.3724 326.68 85.0859C326.68 84.7943 326.753 84.5807 326.898 84.4453C327.049 84.3047 327.237 84.2344 327.461 84.2344ZM334.273 96.1562C333.503 96.1562 332.823 95.9974 332.234 95.6797C331.646 95.362 331.188 94.8776 330.859 94.2266C330.531 93.5755 330.367 92.7552 330.367 91.7656C330.367 90.7292 330.539 89.8828 330.883 89.2266C331.232 88.5651 331.711 88.0755 332.32 87.7578C332.93 87.4401 333.622 87.2812 334.398 87.2812C334.826 87.2812 335.237 87.3255 335.633 87.4141C336.034 87.4974 336.362 87.6042 336.617 87.7344L336.227 88.8203C335.966 88.7161 335.664 88.6224 335.32 88.5391C334.982 88.4557 334.664 88.4141 334.367 88.4141C333.773 88.4141 333.279 88.5417 332.883 88.7969C332.492 89.0521 332.198 89.4271 332 89.9219C331.807 90.4167 331.711 91.026 331.711 91.75C331.711 92.4427 331.805 93.0339 331.992 93.5234C332.185 94.013 332.469 94.388 332.844 94.6484C333.224 94.9036 333.698 95.0312 334.266 95.0312C334.719 95.0312 335.128 94.9844 335.492 94.8906C335.857 94.7917 336.188 94.6771 336.484 94.5469V95.7031C336.198 95.849 335.878 95.9609 335.523 96.0391C335.174 96.1172 334.758 96.1562 334.273 96.1562ZM338.32 95.1875C338.32 94.8229 338.409 94.5651 338.586 94.4141C338.763 94.2578 338.979 94.1797 339.234 94.1797C339.5 94.1797 339.724 94.2578 339.906 94.4141C340.089 94.5651 340.18 94.8229 340.18 95.1875C340.18 95.5469 340.089 95.8099 339.906 95.9766C339.724 96.138 339.5 96.2188 339.234 96.2188C338.979 96.2188 338.763 96.138 338.586 95.9766C338.409 95.8099 338.32 95.5469 338.32 95.1875Z" fill="#434343"/>
<rect x="37.5" y="126" width="361" height="48" rx="24" fill="#2B5FFC"/>
<path d="M187.156 156V144.578H189.578V154H194.211V156H187.156ZM199.617 147.102C200.424 147.102 201.12 147.258 201.703 147.57C202.286 147.878 202.737 148.326 203.055 148.914C203.372 149.503 203.531 150.221 203.531 151.07V152.227H197.898C197.924 152.898 198.125 153.427 198.5 153.812C198.88 154.193 199.406 154.383 200.078 154.383C200.635 154.383 201.146 154.326 201.609 154.211C202.073 154.096 202.549 153.924 203.039 153.695V155.539C202.607 155.753 202.154 155.909 201.68 156.008C201.211 156.107 200.641 156.156 199.969 156.156C199.094 156.156 198.318 155.995 197.641 155.672C196.969 155.349 196.44 154.857 196.055 154.195C195.674 153.534 195.484 152.701 195.484 151.695C195.484 150.674 195.656 149.826 196 149.148C196.349 148.466 196.833 147.956 197.453 147.617C198.073 147.273 198.794 147.102 199.617 147.102ZM199.633 148.797C199.169 148.797 198.784 148.945 198.477 149.242C198.174 149.539 198 150.005 197.953 150.641H201.297C201.292 150.286 201.227 149.971 201.102 149.695C200.982 149.419 200.799 149.201 200.555 149.039C200.315 148.878 200.008 148.797 199.633 148.797ZM209.148 154.258C209.409 154.258 209.661 154.232 209.906 154.18C210.156 154.128 210.404 154.062 210.648 153.984V155.758C210.393 155.872 210.076 155.966 209.695 156.039C209.32 156.117 208.909 156.156 208.461 156.156C207.94 156.156 207.471 156.073 207.055 155.906C206.643 155.734 206.318 155.44 206.078 155.023C205.844 154.602 205.727 154.016 205.727 153.266V149.055H204.586V148.047L205.898 147.25L206.586 145.406H208.109V147.266H210.555V149.055H208.109V153.266C208.109 153.599 208.203 153.849 208.391 154.016C208.583 154.177 208.836 154.258 209.148 154.258ZM214.344 144.578L214.453 144.75C214.359 145.13 214.237 145.536 214.086 145.969C213.94 146.396 213.779 146.826 213.602 147.258C213.43 147.69 213.255 148.102 213.078 148.492H211.367C211.44 148.18 211.513 147.852 211.586 147.508C211.664 147.164 211.737 146.82 211.805 146.477C211.878 146.133 211.943 145.799 212 145.477C212.057 145.154 212.107 144.854 212.148 144.578H214.344ZM221.984 153.406C221.984 154 221.844 154.503 221.562 154.914C221.286 155.32 220.872 155.63 220.32 155.844C219.768 156.052 219.081 156.156 218.258 156.156C217.648 156.156 217.125 156.117 216.688 156.039C216.255 155.961 215.818 155.831 215.375 155.648V153.68C215.849 153.893 216.357 154.07 216.898 154.211C217.445 154.346 217.924 154.414 218.336 154.414C218.799 154.414 219.13 154.346 219.328 154.211C219.531 154.07 219.633 153.888 219.633 153.664C219.633 153.518 219.591 153.388 219.508 153.273C219.43 153.154 219.258 153.021 218.992 152.875C218.727 152.724 218.31 152.529 217.742 152.289C217.195 152.06 216.745 151.828 216.391 151.594C216.042 151.359 215.781 151.083 215.609 150.766C215.443 150.443 215.359 150.034 215.359 149.539C215.359 148.732 215.672 148.125 216.297 147.719C216.927 147.307 217.768 147.102 218.82 147.102C219.362 147.102 219.878 147.156 220.367 147.266C220.862 147.375 221.37 147.549 221.891 147.789L221.172 149.508C220.74 149.32 220.331 149.167 219.945 149.047C219.565 148.927 219.177 148.867 218.781 148.867C218.432 148.867 218.169 148.914 217.992 149.008C217.815 149.102 217.727 149.245 217.727 149.438C217.727 149.578 217.771 149.703 217.859 149.812C217.953 149.922 218.13 150.044 218.391 150.18C218.656 150.31 219.044 150.479 219.555 150.688C220.049 150.891 220.479 151.104 220.844 151.328C221.208 151.547 221.49 151.82 221.688 152.148C221.885 152.471 221.984 152.891 221.984 153.406ZM230.555 159.844C229.336 159.844 228.404 159.63 227.758 159.203C227.117 158.781 226.797 158.188 226.797 157.422C226.797 156.896 226.961 156.456 227.289 156.102C227.617 155.747 228.099 155.495 228.734 155.344C228.49 155.24 228.276 155.07 228.094 154.836C227.911 154.596 227.82 154.344 227.82 154.078C227.82 153.745 227.917 153.469 228.109 153.25C228.302 153.026 228.581 152.807 228.945 152.594C228.487 152.396 228.122 152.078 227.852 151.641C227.586 151.203 227.453 150.688 227.453 150.094C227.453 149.458 227.591 148.919 227.867 148.477C228.148 148.029 228.555 147.688 229.086 147.453C229.622 147.219 230.273 147.102 231.039 147.102C231.201 147.102 231.388 147.112 231.602 147.133C231.815 147.154 232.01 147.177 232.188 147.203C232.37 147.229 232.492 147.25 232.555 147.266H235.602V148.477L234.234 148.828C234.359 149.021 234.453 149.227 234.516 149.445C234.578 149.664 234.609 149.896 234.609 150.141C234.609 151.078 234.281 151.81 233.625 152.336C232.974 152.857 232.068 153.117 230.906 153.117C230.63 153.102 230.37 153.081 230.125 153.055C230.005 153.148 229.914 153.247 229.852 153.352C229.789 153.456 229.758 153.565 229.758 153.68C229.758 153.794 229.805 153.891 229.898 153.969C229.997 154.042 230.143 154.099 230.336 154.141C230.534 154.177 230.779 154.195 231.07 154.195H232.555C233.513 154.195 234.242 154.401 234.742 154.812C235.247 155.224 235.5 155.828 235.5 156.625C235.5 157.646 235.073 158.438 234.219 159C233.37 159.562 232.148 159.844 230.555 159.844ZM230.656 158.289C231.224 158.289 231.711 158.234 232.117 158.125C232.529 158.021 232.844 157.87 233.062 157.672C233.281 157.479 233.391 157.247 233.391 156.977C233.391 156.758 233.326 156.583 233.195 156.453C233.07 156.328 232.878 156.24 232.617 156.188C232.362 156.135 232.034 156.109 231.633 156.109H230.398C230.107 156.109 229.844 156.156 229.609 156.25C229.38 156.344 229.198 156.474 229.062 156.641C228.927 156.812 228.859 157.01 228.859 157.234C228.859 157.562 229.016 157.82 229.328 158.008C229.646 158.195 230.089 158.289 230.656 158.289ZM231.039 151.664C231.487 151.664 231.815 151.526 232.023 151.25C232.232 150.974 232.336 150.599 232.336 150.125C232.336 149.599 232.227 149.206 232.008 148.945C231.794 148.68 231.471 148.547 231.039 148.547C230.602 148.547 230.273 148.68 230.055 148.945C229.836 149.206 229.727 149.599 229.727 150.125C229.727 150.599 229.833 150.974 230.047 151.25C230.266 151.526 230.596 151.664 231.039 151.664ZM244.984 151.617C244.984 152.346 244.885 152.992 244.688 153.555C244.495 154.117 244.211 154.594 243.836 154.984C243.466 155.37 243.018 155.661 242.492 155.859C241.971 156.057 241.383 156.156 240.727 156.156C240.112 156.156 239.547 156.057 239.031 155.859C238.521 155.661 238.076 155.37 237.695 154.984C237.32 154.594 237.029 154.117 236.82 153.555C236.617 152.992 236.516 152.346 236.516 151.617C236.516 150.648 236.688 149.828 237.031 149.156C237.375 148.484 237.865 147.974 238.5 147.625C239.135 147.276 239.893 147.102 240.773 147.102C241.591 147.102 242.315 147.276 242.945 147.625C243.581 147.974 244.078 148.484 244.438 149.156C244.802 149.828 244.984 150.648 244.984 151.617ZM238.945 151.617C238.945 152.19 239.008 152.672 239.133 153.062C239.258 153.453 239.453 153.747 239.719 153.945C239.984 154.143 240.331 154.242 240.758 154.242C241.18 154.242 241.521 154.143 241.781 153.945C242.047 153.747 242.24 153.453 242.359 153.062C242.484 152.672 242.547 152.19 242.547 151.617C242.547 151.039 242.484 150.56 242.359 150.18C242.24 149.794 242.047 149.505 241.781 149.312C241.516 149.12 241.169 149.023 240.742 149.023C240.112 149.023 239.654 149.24 239.367 149.672C239.086 150.104 238.945 150.753 238.945 151.617ZM248.953 152.211H247.047L246.648 144.578H249.352L248.953 152.211ZM246.617 154.883C246.617 154.393 246.75 154.049 247.016 153.852C247.286 153.654 247.612 153.555 247.992 153.555C248.362 153.555 248.68 153.654 248.945 153.852C249.216 154.049 249.352 154.393 249.352 154.883C249.352 155.352 249.216 155.69 248.945 155.898C248.68 156.107 248.362 156.211 247.992 156.211C247.612 156.211 247.286 156.107 247.016 155.898C246.75 155.69 246.617 155.352 246.617 154.883Z" fill="white"/>
</svg>
