<svg width="436" height="174" viewBox="0 0 436 174" fill="none" xmlns="http://www.w3.org/2000/svg">
<path d="M175.766 39H172.965V31.2656H165.066V39H162.254V21.8672H165.066V28.875H172.965V21.8672H175.766V39ZM185.188 25.7812C186.344 25.7812 187.336 26.0195 188.164 26.4961C188.992 26.9727 189.629 27.6484 190.074 28.5234C190.52 29.3984 190.742 30.4453 190.742 31.6641V33.1406H182.082C182.113 34.3984 182.449 35.3672 183.09 36.0469C183.738 36.7266 184.645 37.0664 185.809 37.0664C186.637 37.0664 187.379 36.9883 188.035 36.832C188.699 36.668 189.383 36.4297 190.086 36.1172V38.3555C189.438 38.6602 188.777 38.8828 188.105 39.0234C187.434 39.1641 186.629 39.2344 185.691 39.2344C184.418 39.2344 183.297 38.9883 182.328 38.4961C181.367 37.9961 180.613 37.2539 180.066 36.2695C179.527 35.2852 179.258 34.0625 179.258 32.6016C179.258 31.1484 179.504 29.9141 179.996 28.8984C180.488 27.8828 181.18 27.1094 182.07 26.5781C182.961 26.0469 184 25.7812 185.188 25.7812ZM185.188 27.8555C184.32 27.8555 183.617 28.1367 183.078 28.6992C182.547 29.2617 182.234 30.0859 182.141 31.1719H188.047C188.039 30.5234 187.93 29.9492 187.719 29.4492C187.516 28.9492 187.203 28.5586 186.781 28.2773C186.367 27.9961 185.836 27.8555 185.188 27.8555ZM198.934 25.7812C200.574 25.7812 201.812 26.1445 202.648 26.8711C203.492 27.5977 203.914 28.7305 203.914 30.2695V39H201.957L201.43 37.1602H201.336C200.969 37.6289 200.59 38.0156 200.199 38.3203C199.809 38.625 199.355 38.8516 198.84 39C198.332 39.1562 197.711 39.2344 196.977 39.2344C196.203 39.2344 195.512 39.0938 194.902 38.8125C194.293 38.5234 193.812 38.0859 193.461 37.5C193.109 36.9141 192.934 36.1719 192.934 35.2734C192.934 33.9375 193.43 32.9336 194.422 32.2617C195.422 31.5898 196.93 31.2188 198.945 31.1484L201.195 31.0664V30.3867C201.195 29.4883 200.984 28.8477 200.562 28.4648C200.148 28.082 199.562 27.8906 198.805 27.8906C198.156 27.8906 197.527 27.9844 196.918 28.1719C196.309 28.3594 195.715 28.5898 195.137 28.8633L194.246 26.918C194.879 26.582 195.598 26.3086 196.402 26.0977C197.215 25.8867 198.059 25.7812 198.934 25.7812ZM201.184 32.8008L199.508 32.8594C198.133 32.9062 197.168 33.1406 196.613 33.5625C196.059 33.9844 195.781 34.5625 195.781 35.2969C195.781 35.9375 195.973 36.4062 196.355 36.7031C196.738 36.9922 197.242 37.1367 197.867 37.1367C198.82 37.1367 199.609 36.8672 200.234 36.3281C200.867 35.7812 201.184 34.9805 201.184 33.9258V32.8008ZM212.129 39.2344C210.582 39.2344 209.34 38.6719 208.402 37.5469C207.473 36.4141 207.008 34.7461 207.008 32.543C207.008 30.3164 207.48 28.6328 208.426 27.4922C209.379 26.3516 210.633 25.7812 212.188 25.7812C212.844 25.7812 213.418 25.8711 213.91 26.0508C214.402 26.2227 214.824 26.457 215.176 26.7539C215.535 27.0508 215.84 27.3828 216.09 27.75H216.219C216.18 27.5078 216.133 27.1602 216.078 26.707C216.031 26.2461 216.008 25.8203 216.008 25.4297V20.7656H218.773V39H216.617L216.125 37.2305H216.008C215.773 37.6055 215.477 37.9453 215.117 38.25C214.766 38.5469 214.344 38.7852 213.852 38.9648C213.367 39.1445 212.793 39.2344 212.129 39.2344ZM212.902 36.9961C214.082 36.9961 214.914 36.6562 215.398 35.9766C215.883 35.2969 216.133 34.2773 216.148 32.918V32.5547C216.148 31.1016 215.914 29.9883 215.445 29.2148C214.977 28.4336 214.121 28.043 212.879 28.043C211.887 28.043 211.129 28.4453 210.605 29.25C210.09 30.0469 209.832 31.1602 209.832 32.5898C209.832 34.0195 210.09 35.1133 210.605 35.8711C211.129 36.6211 211.895 36.9961 212.902 36.9961ZM225.477 26.0273V39H222.723V26.0273H225.477ZM224.117 21.0586C224.539 21.0586 224.902 21.1719 225.207 21.3984C225.52 21.625 225.676 22.0156 225.676 22.5703C225.676 23.1172 225.52 23.5078 225.207 23.7422C224.902 23.9688 224.539 24.082 224.117 24.082C223.68 24.082 223.309 23.9688 223.004 23.7422C222.707 23.5078 222.559 23.1172 222.559 22.5703C222.559 22.0156 222.707 21.625 223.004 21.3984C223.309 21.1719 223.68 21.0586 224.117 21.0586ZM236.188 25.7812C237.648 25.7812 238.785 26.1602 239.598 26.918C240.418 27.668 240.828 28.875 240.828 30.5391V39H238.074V31.0547C238.074 30.0469 237.867 29.293 237.453 28.793C237.039 28.2852 236.398 28.0312 235.531 28.0312C234.273 28.0312 233.398 28.418 232.906 29.1914C232.422 29.9648 232.18 31.0859 232.18 32.5547V39H229.426V26.0273H231.57L231.957 27.7852H232.109C232.391 27.332 232.738 26.9609 233.152 26.6719C233.574 26.375 234.043 26.1523 234.559 26.0039C235.082 25.8555 235.625 25.7812 236.188 25.7812ZM248.387 44.7656C246.629 44.7656 245.281 44.4492 244.344 43.8164C243.406 43.1836 242.938 42.2969 242.938 41.1562C242.938 40.3594 243.188 39.6836 243.688 39.1289C244.188 38.582 244.902 38.2031 245.832 37.9922C245.48 37.8359 245.176 37.5938 244.918 37.2656C244.668 36.9297 244.543 36.5586 244.543 36.1523C244.543 35.668 244.68 35.2539 244.953 34.9102C245.227 34.5664 245.637 34.2344 246.184 33.9141C245.504 33.625 244.957 33.1562 244.543 32.5078C244.137 31.8516 243.934 31.082 243.934 30.1992C243.934 29.2617 244.133 28.4648 244.531 27.8086C244.93 27.1445 245.512 26.6406 246.277 26.2969C247.043 25.9453 247.969 25.7695 249.055 25.7695C249.289 25.7695 249.543 25.7852 249.816 25.8164C250.098 25.8398 250.355 25.8711 250.59 25.9102C250.832 25.9414 251.016 25.9766 251.141 26.0156H255.629V27.5508L253.426 27.9609C253.637 28.2578 253.805 28.5977 253.93 28.9805C254.055 29.3555 254.117 29.7656 254.117 30.2109C254.117 31.5547 253.652 32.6133 252.723 33.3867C251.801 34.1523 250.527 34.5352 248.902 34.5352C248.512 34.5195 248.133 34.4883 247.766 34.4414C247.484 34.6133 247.27 34.8047 247.121 35.0156C246.973 35.2188 246.898 35.4492 246.898 35.707C246.898 35.918 246.973 36.0898 247.121 36.2227C247.27 36.3477 247.488 36.4414 247.777 36.5039C248.074 36.5664 248.434 36.5977 248.855 36.5977H251.094C252.516 36.5977 253.602 36.8984 254.352 37.5C255.102 38.1016 255.477 38.9844 255.477 40.1484C255.477 41.625 254.867 42.7617 253.648 43.5586C252.43 44.3633 250.676 44.7656 248.387 44.7656ZM248.492 42.832C249.453 42.832 250.262 42.7383 250.918 42.5508C251.574 42.3633 252.07 42.0938 252.406 41.7422C252.742 41.3984 252.91 40.9883 252.91 40.5117C252.91 40.0898 252.805 39.7656 252.594 39.5391C252.383 39.3125 252.066 39.1562 251.645 39.0703C251.223 38.9844 250.699 38.9414 250.074 38.9414H248.035C247.527 38.9414 247.078 39.0195 246.688 39.1758C246.297 39.3398 245.992 39.5742 245.773 39.8789C245.562 40.1836 245.457 40.5508 245.457 40.9805C245.457 41.5742 245.719 42.0312 246.242 42.3516C246.773 42.6719 247.523 42.832 248.492 42.832ZM249.031 32.7305C249.836 32.7305 250.434 32.5117 250.824 32.0742C251.215 31.6289 251.41 31.0039 251.41 30.1992C251.41 29.3242 251.207 28.668 250.801 28.2305C250.402 27.793 249.809 27.5742 249.02 27.5742C248.246 27.5742 247.656 27.7969 247.25 28.2422C246.852 28.6875 246.652 29.3477 246.652 30.2227C246.652 31.0117 246.852 31.6289 247.25 32.0742C247.656 32.5117 248.25 32.7305 249.031 32.7305ZM274.941 39H263.34V36.9258L267.781 32.4258C268.641 31.5508 269.348 30.7969 269.902 30.1641C270.457 29.5234 270.867 28.918 271.133 28.3477C271.406 27.7773 271.543 27.1562 271.543 26.4844C271.543 25.6562 271.305 25.0312 270.828 24.6094C270.352 24.1797 269.723 23.9648 268.941 23.9648C268.199 23.9648 267.512 24.1133 266.879 24.4102C266.254 24.6992 265.605 25.1133 264.934 25.6523L263.422 23.8359C263.898 23.4297 264.406 23.0586 264.945 22.7227C265.492 22.3867 266.102 22.1211 266.773 21.9258C267.445 21.7227 268.211 21.6211 269.07 21.6211C270.156 21.6211 271.094 21.8164 271.883 22.207C272.672 22.5898 273.277 23.125 273.699 23.8125C274.129 24.5 274.344 25.3008 274.344 26.2148C274.344 27.1367 274.16 27.9883 273.793 28.7695C273.426 29.5508 272.902 30.3242 272.223 31.0898C271.543 31.8477 270.734 32.6719 269.797 33.5625L266.832 36.457V36.5859H274.941V39Z" fill="#141414"/>
<path d="M152.156 64.5781H155.391C156.818 64.5781 157.891 64.7917 158.609 65.2188C159.328 65.6458 159.688 66.3724 159.688 67.3984C159.688 67.8411 159.602 68.2396 159.43 68.5938C159.263 68.9427 159.018 69.2318 158.695 69.4609C158.372 69.6901 157.974 69.849 157.5 69.9375V70.0156C158 70.0938 158.443 70.237 158.828 70.4453C159.214 70.6536 159.516 70.9453 159.734 71.3203C159.953 71.6953 160.062 72.1719 160.062 72.75C160.062 73.4531 159.898 74.0469 159.57 74.5312C159.247 75.0156 158.789 75.3828 158.195 75.6328C157.602 75.8776 156.898 76 156.086 76H152.156V64.5781ZM153.484 69.4766H155.672C156.667 69.4766 157.354 69.3125 157.734 68.9844C158.12 68.6562 158.312 68.1771 158.312 67.5469C158.312 66.8958 158.083 66.4271 157.625 66.1406C157.172 65.8542 156.448 65.7109 155.453 65.7109H153.484V69.4766ZM153.484 70.5938V74.8672H155.859C156.875 74.8672 157.594 74.6693 158.016 74.2734C158.438 73.8724 158.648 73.3333 158.648 72.6562C158.648 72.224 158.552 71.8542 158.359 71.5469C158.172 71.2396 157.865 71.0052 157.438 70.8438C157.016 70.6771 156.451 70.5938 155.742 70.5938H153.484ZM169.688 71.7031C169.688 72.4062 169.596 73.0339 169.414 73.5859C169.232 74.138 168.969 74.6042 168.625 74.9844C168.281 75.3646 167.865 75.6562 167.375 75.8594C166.891 76.0573 166.341 76.1562 165.727 76.1562C165.154 76.1562 164.628 76.0573 164.148 75.8594C163.674 75.6562 163.263 75.3646 162.914 74.9844C162.57 74.6042 162.302 74.138 162.109 73.5859C161.922 73.0339 161.828 72.4062 161.828 71.7031C161.828 70.7656 161.987 69.9688 162.305 69.3125C162.622 68.651 163.076 68.1484 163.664 67.8047C164.258 67.4557 164.964 67.2812 165.781 67.2812C166.562 67.2812 167.245 67.4557 167.828 67.8047C168.417 68.1536 168.872 68.6589 169.195 69.3203C169.523 69.9766 169.688 70.7708 169.688 71.7031ZM163.172 71.7031C163.172 72.3906 163.263 72.987 163.445 73.4922C163.628 73.9974 163.909 74.388 164.289 74.6641C164.669 74.9401 165.159 75.0781 165.758 75.0781C166.352 75.0781 166.839 74.9401 167.219 74.6641C167.604 74.388 167.888 73.9974 168.07 73.4922C168.253 72.987 168.344 72.3906 168.344 71.7031C168.344 71.0208 168.253 70.4323 168.07 69.9375C167.888 69.4375 167.607 69.0521 167.227 68.7812C166.846 68.5104 166.354 68.375 165.75 68.375C164.859 68.375 164.206 68.6693 163.789 69.2578C163.378 69.8464 163.172 70.6615 163.172 71.7031ZM174.977 76.1562C173.893 76.1562 173.034 75.7865 172.398 75.0469C171.768 74.3073 171.453 73.2083 171.453 71.75C171.453 70.276 171.776 69.1641 172.422 68.4141C173.068 67.6589 173.927 67.2812 175 67.2812C175.453 67.2812 175.849 67.3411 176.188 67.4609C176.526 67.5807 176.818 67.7422 177.062 67.9453C177.307 68.1432 177.513 68.3698 177.68 68.625H177.773C177.753 68.4635 177.732 68.2422 177.711 67.9609C177.69 67.6797 177.68 67.4505 177.68 67.2734V63.8438H178.977V76H177.93L177.734 74.7812H177.68C177.518 75.0365 177.312 75.2682 177.062 75.4766C176.818 75.6849 176.523 75.8516 176.18 75.9766C175.841 76.0964 175.44 76.1562 174.977 76.1562ZM175.18 75.0781C176.096 75.0781 176.745 74.8177 177.125 74.2969C177.505 73.776 177.695 73.0026 177.695 71.9766V71.7422C177.695 70.6536 177.513 69.8177 177.148 69.2344C176.789 68.651 176.133 68.3594 175.18 68.3594C174.383 68.3594 173.786 68.6667 173.391 69.2812C172.995 69.8906 172.797 70.724 172.797 71.7812C172.797 72.8333 172.992 73.6458 173.383 74.2188C173.779 74.7917 174.378 75.0781 175.18 75.0781ZM180.375 67.4375H181.766L183.656 72.4062C183.766 72.6979 183.867 72.9792 183.961 73.25C184.055 73.5156 184.138 73.7708 184.211 74.0156C184.284 74.2604 184.341 74.4974 184.383 74.7266H184.438C184.51 74.4661 184.615 74.125 184.75 73.7031C184.885 73.276 185.031 72.8411 185.188 72.3984L186.977 67.4375H188.375L184.648 77.2578C184.451 77.7839 184.219 78.2422 183.953 78.6328C183.693 79.0234 183.375 79.3229 183 79.5312C182.625 79.7448 182.172 79.8516 181.641 79.8516C181.396 79.8516 181.18 79.8359 180.992 79.8047C180.805 79.7786 180.643 79.7474 180.508 79.7109V78.6719C180.622 78.6979 180.76 78.7214 180.922 78.7422C181.089 78.763 181.26 78.7734 181.438 78.7734C181.76 78.7734 182.039 78.7109 182.273 78.5859C182.513 78.4661 182.719 78.2891 182.891 78.0547C183.062 77.8203 183.211 77.5417 183.336 77.2188L183.805 76.0156L180.375 67.4375ZM197.602 76H196.266V65.75H192.672V64.5781H201.18V65.75H197.602V76ZM206.008 67.2812C206.737 67.2812 207.362 67.4427 207.883 67.7656C208.404 68.0885 208.802 68.5417 209.078 69.125C209.354 69.7031 209.492 70.3802 209.492 71.1562V71.9609H203.578C203.594 72.9661 203.844 73.7318 204.328 74.2578C204.812 74.7839 205.495 75.0469 206.375 75.0469C206.917 75.0469 207.396 74.9974 207.812 74.8984C208.229 74.7995 208.661 74.6536 209.109 74.4609V75.6016C208.677 75.7943 208.247 75.9349 207.82 76.0234C207.398 76.112 206.898 76.1562 206.32 76.1562C205.497 76.1562 204.779 75.9896 204.164 75.6562C203.555 75.3177 203.081 74.8229 202.742 74.1719C202.404 73.5208 202.234 72.724 202.234 71.7812C202.234 70.8594 202.388 70.0625 202.695 69.3906C203.008 68.7135 203.445 68.1927 204.008 67.8281C204.576 67.4635 205.242 67.2812 206.008 67.2812ZM205.992 68.3438C205.299 68.3438 204.747 68.5703 204.336 69.0234C203.924 69.4766 203.68 70.1094 203.602 70.9219H208.133C208.128 70.4115 208.047 69.9635 207.891 69.5781C207.74 69.1875 207.508 68.8854 207.195 68.6719C206.883 68.4531 206.482 68.3438 205.992 68.3438ZM213.734 71.6172L210.773 67.4375H212.258L214.516 70.7344L216.766 67.4375H218.234L215.273 71.6172L218.398 76H216.914L214.516 72.5078L212.102 76H210.633L213.734 71.6172ZM222.836 75.0938C223.049 75.0938 223.268 75.0755 223.492 75.0391C223.716 75.0026 223.898 74.9583 224.039 74.9062V75.9141C223.888 75.9818 223.677 76.0391 223.406 76.0859C223.141 76.1328 222.88 76.1562 222.625 76.1562C222.172 76.1562 221.76 76.0781 221.391 75.9219C221.021 75.7604 220.724 75.4896 220.5 75.1094C220.281 74.7292 220.172 74.2031 220.172 73.5312V68.4531H218.953V67.8203L220.18 67.3125L220.695 65.4531H221.477V67.4375H223.984V68.4531H221.477V73.4922C221.477 74.0286 221.599 74.4297 221.844 74.6953C222.094 74.9609 222.424 75.0938 222.836 75.0938ZM233.211 64.5781C234.148 64.5781 234.922 64.6953 235.531 64.9297C236.146 65.1589 236.604 65.5104 236.906 65.9844C237.208 66.4583 237.359 67.0625 237.359 67.7969C237.359 68.401 237.25 68.9062 237.031 69.3125C236.812 69.7135 236.526 70.0391 236.172 70.2891C235.818 70.5391 235.44 70.7318 235.039 70.8672L238.172 76H236.625L233.828 71.2344H231.453V76H230.125V64.5781H233.211ZM233.133 65.7266H231.453V70.1094H233.266C234.198 70.1094 234.883 69.9193 235.32 69.5391C235.763 69.1589 235.984 68.599 235.984 67.8594C235.984 67.0833 235.75 66.5339 235.281 66.2109C234.818 65.888 234.102 65.7266 233.133 65.7266ZM243.102 67.2812C243.831 67.2812 244.456 67.4427 244.977 67.7656C245.497 68.0885 245.896 68.5417 246.172 69.125C246.448 69.7031 246.586 70.3802 246.586 71.1562V71.9609H240.672C240.688 72.9661 240.938 73.7318 241.422 74.2578C241.906 74.7839 242.589 75.0469 243.469 75.0469C244.01 75.0469 244.49 74.9974 244.906 74.8984C245.323 74.7995 245.755 74.6536 246.203 74.4609V75.6016C245.771 75.7943 245.341 75.9349 244.914 76.0234C244.492 76.112 243.992 76.1562 243.414 76.1562C242.591 76.1562 241.872 75.9896 241.258 75.6562C240.648 75.3177 240.174 74.8229 239.836 74.1719C239.497 73.5208 239.328 72.724 239.328 71.7812C239.328 70.8594 239.482 70.0625 239.789 69.3906C240.102 68.7135 240.539 68.1927 241.102 67.8281C241.669 67.4635 242.336 67.2812 243.102 67.2812ZM243.086 68.3438C242.393 68.3438 241.841 68.5703 241.43 69.0234C241.018 69.4766 240.773 70.1094 240.695 70.9219H245.227C245.221 70.4115 245.141 69.9635 244.984 69.5781C244.833 69.1875 244.602 68.8854 244.289 68.6719C243.977 68.4531 243.576 68.3438 243.086 68.3438ZM251.18 79.8438C250.055 79.8438 249.188 79.6328 248.578 79.2109C247.969 78.7943 247.664 78.2083 247.664 77.4531C247.664 76.9167 247.833 76.4583 248.172 76.0781C248.516 75.6979 248.99 75.4453 249.594 75.3203C249.37 75.2161 249.177 75.0599 249.016 74.8516C248.859 74.6432 248.781 74.4036 248.781 74.1328C248.781 73.8203 248.867 73.5469 249.039 73.3125C249.216 73.0729 249.484 72.8438 249.844 72.625C249.396 72.4427 249.031 72.1354 248.75 71.7031C248.474 71.2656 248.336 70.7578 248.336 70.1797C248.336 69.5651 248.464 69.0417 248.719 68.6094C248.974 68.1719 249.344 67.8385 249.828 67.6094C250.312 67.3802 250.898 67.2656 251.586 67.2656C251.737 67.2656 251.888 67.2734 252.039 67.2891C252.195 67.2995 252.344 67.3177 252.484 67.3438C252.625 67.3646 252.747 67.3906 252.852 67.4219H255.789V68.2578L254.211 68.4531C254.367 68.6562 254.497 68.901 254.602 69.1875C254.706 69.474 254.758 69.7917 254.758 70.1406C254.758 70.9948 254.469 71.6745 253.891 72.1797C253.312 72.6797 252.518 72.9297 251.508 72.9297C251.268 72.9297 251.023 72.9089 250.773 72.8672C250.518 73.0078 250.323 73.1641 250.188 73.3359C250.057 73.5078 249.992 73.7057 249.992 73.9297C249.992 74.0964 250.042 74.2292 250.141 74.3281C250.245 74.4271 250.393 74.5 250.586 74.5469C250.779 74.5885 251.01 74.6094 251.281 74.6094H252.789C253.721 74.6094 254.435 74.8047 254.93 75.1953C255.43 75.5859 255.68 76.1562 255.68 76.9062C255.68 77.8542 255.294 78.5807 254.523 79.0859C253.753 79.5911 252.638 79.8438 251.18 79.8438ZM251.219 78.8281C251.927 78.8281 252.513 78.7552 252.977 78.6094C253.445 78.4688 253.794 78.263 254.023 77.9922C254.258 77.7266 254.375 77.4089 254.375 77.0391C254.375 76.6953 254.297 76.4349 254.141 76.2578C253.984 76.0859 253.755 75.9714 253.453 75.9141C253.151 75.8516 252.781 75.8203 252.344 75.8203H250.859C250.474 75.8203 250.138 75.8802 249.852 76C249.565 76.1198 249.344 76.2969 249.188 76.5312C249.036 76.7656 248.961 77.0573 248.961 77.4062C248.961 77.8698 249.156 78.2214 249.547 78.4609C249.938 78.7057 250.495 78.8281 251.219 78.8281ZM251.555 71.9844C252.174 71.9844 252.641 71.8281 252.953 71.5156C253.266 71.2031 253.422 70.7474 253.422 70.1484C253.422 69.5078 253.263 69.0286 252.945 68.7109C252.628 68.388 252.159 68.2266 251.539 68.2266C250.945 68.2266 250.487 68.3932 250.164 68.7266C249.846 69.0547 249.688 69.5365 249.688 70.1719C249.688 70.7552 249.849 71.2031 250.172 71.5156C250.495 71.8281 250.956 71.9844 251.555 71.9844ZM264.547 67.4375V76H263.484L263.297 74.7969H263.227C263.049 75.0938 262.82 75.3438 262.539 75.5469C262.258 75.75 261.94 75.901 261.586 76C261.237 76.1042 260.865 76.1562 260.469 76.1562C259.792 76.1562 259.224 76.0469 258.766 75.8281C258.307 75.6094 257.961 75.2708 257.727 74.8125C257.497 74.3542 257.383 73.7656 257.383 73.0469V67.4375H258.695V72.9531C258.695 73.6667 258.857 74.2005 259.18 74.5547C259.503 74.9036 259.995 75.0781 260.656 75.0781C261.292 75.0781 261.797 74.9583 262.172 74.7188C262.552 74.4792 262.826 74.1276 262.992 73.6641C263.159 73.1953 263.242 72.6224 263.242 71.9453V67.4375H264.547ZM268.594 76H267.289V63.8438H268.594V76ZM274.539 67.2969C275.56 67.2969 276.318 67.526 276.812 67.9844C277.307 68.4427 277.555 69.1745 277.555 70.1797V76H276.609L276.359 74.7344H276.297C276.057 75.0469 275.807 75.3099 275.547 75.5234C275.286 75.7318 274.984 75.8906 274.641 76C274.302 76.1042 273.885 76.1562 273.391 76.1562C272.87 76.1562 272.406 76.0651 272 75.8828C271.599 75.7005 271.281 75.4245 271.047 75.0547C270.818 74.6849 270.703 74.2161 270.703 73.6484C270.703 72.7943 271.042 72.138 271.719 71.6797C272.396 71.2214 273.427 70.9714 274.812 70.9297L276.289 70.8672V70.3438C276.289 69.6042 276.13 69.0859 275.812 68.7891C275.495 68.4922 275.047 68.3438 274.469 68.3438C274.021 68.3438 273.594 68.4089 273.188 68.5391C272.781 68.6693 272.396 68.8229 272.031 69L271.633 68.0156C272.018 67.8177 272.461 67.6484 272.961 67.5078C273.461 67.3672 273.987 67.2969 274.539 67.2969ZM276.273 71.7812L274.969 71.8359C273.901 71.8776 273.148 72.0521 272.711 72.3594C272.273 72.6667 272.055 73.1016 272.055 73.6641C272.055 74.1536 272.203 74.5156 272.5 74.75C272.797 74.9844 273.19 75.1016 273.68 75.1016C274.44 75.1016 275.062 74.8906 275.547 74.4688C276.031 74.0469 276.273 73.4141 276.273 72.5703V71.7812ZM284.117 67.2812C284.289 67.2812 284.469 67.2917 284.656 67.3125C284.844 67.3281 285.01 67.3516 285.156 67.3828L284.992 68.5859C284.852 68.5495 284.695 68.5208 284.523 68.5C284.352 68.4792 284.19 68.4688 284.039 68.4688C283.695 68.4688 283.37 68.5391 283.062 68.6797C282.76 68.8151 282.495 69.013 282.266 69.2734C282.036 69.5286 281.857 69.8385 281.727 70.2031C281.596 70.5625 281.531 70.9635 281.531 71.4062V76H280.227V67.4375H281.305L281.445 69.0156H281.5C281.677 68.6979 281.891 68.4089 282.141 68.1484C282.391 67.8828 282.68 67.6719 283.008 67.5156C283.341 67.3594 283.711 67.2812 284.117 67.2812Z" fill="#434343"/>
<rect x="37.5" y="106" width="361" height="48" rx="24" fill="#2B5FFC"/>
<path d="M160.039 124.578H163.594C165.115 124.578 166.266 124.792 167.047 125.219C167.828 125.646 168.219 126.396 168.219 127.469C168.219 127.901 168.148 128.292 168.008 128.641C167.872 128.99 167.674 129.276 167.414 129.5C167.154 129.724 166.836 129.87 166.461 129.938V130.016C166.841 130.094 167.185 130.229 167.492 130.422C167.799 130.609 168.044 130.885 168.227 131.25C168.414 131.609 168.508 132.089 168.508 132.688C168.508 133.38 168.339 133.974 168 134.469C167.661 134.964 167.177 135.344 166.547 135.609C165.922 135.87 165.177 136 164.312 136H160.039V124.578ZM162.461 129.102H163.867C164.57 129.102 165.057 128.992 165.328 128.773C165.599 128.549 165.734 128.221 165.734 127.789C165.734 127.352 165.573 127.039 165.25 126.852C164.932 126.659 164.427 126.562 163.734 126.562H162.461V129.102ZM162.461 131.023V134H164.039C164.768 134 165.276 133.859 165.562 133.578C165.849 133.297 165.992 132.919 165.992 132.445C165.992 132.164 165.93 131.917 165.805 131.703C165.68 131.49 165.469 131.323 165.172 131.203C164.88 131.083 164.477 131.023 163.961 131.023H162.461ZM178.539 131.617C178.539 132.346 178.44 132.992 178.242 133.555C178.049 134.117 177.766 134.594 177.391 134.984C177.021 135.37 176.573 135.661 176.047 135.859C175.526 136.057 174.938 136.156 174.281 136.156C173.667 136.156 173.102 136.057 172.586 135.859C172.076 135.661 171.63 135.37 171.25 134.984C170.875 134.594 170.583 134.117 170.375 133.555C170.172 132.992 170.07 132.346 170.07 131.617C170.07 130.648 170.242 129.828 170.586 129.156C170.93 128.484 171.419 127.974 172.055 127.625C172.69 127.276 173.448 127.102 174.328 127.102C175.146 127.102 175.87 127.276 176.5 127.625C177.135 127.974 177.633 128.484 177.992 129.156C178.357 129.828 178.539 130.648 178.539 131.617ZM172.5 131.617C172.5 132.19 172.562 132.672 172.688 133.062C172.812 133.453 173.008 133.747 173.273 133.945C173.539 134.143 173.885 134.242 174.312 134.242C174.734 134.242 175.076 134.143 175.336 133.945C175.602 133.747 175.794 133.453 175.914 133.062C176.039 132.672 176.102 132.19 176.102 131.617C176.102 131.039 176.039 130.56 175.914 130.18C175.794 129.794 175.602 129.505 175.336 129.312C175.07 129.12 174.724 129.023 174.297 129.023C173.667 129.023 173.208 129.24 172.922 129.672C172.641 130.104 172.5 130.753 172.5 131.617ZM183.273 136.156C182.299 136.156 181.505 135.776 180.891 135.016C180.281 134.25 179.977 133.128 179.977 131.648C179.977 130.154 180.286 129.023 180.906 128.258C181.526 127.487 182.336 127.102 183.336 127.102C183.753 127.102 184.12 127.159 184.438 127.273C184.755 127.388 185.029 127.542 185.258 127.734C185.492 127.927 185.69 128.143 185.852 128.383H185.93C185.898 128.216 185.859 127.971 185.812 127.648C185.771 127.32 185.75 126.984 185.75 126.641V123.844H188.141V136H186.312L185.852 134.867H185.75C185.599 135.107 185.409 135.326 185.18 135.523C184.956 135.716 184.688 135.87 184.375 135.984C184.062 136.099 183.695 136.156 183.273 136.156ZM184.109 134.258C184.76 134.258 185.219 134.065 185.484 133.68C185.755 133.289 185.898 132.703 185.914 131.922V131.664C185.914 130.815 185.784 130.167 185.523 129.719C185.263 129.266 184.779 129.039 184.07 129.039C183.544 129.039 183.133 129.266 182.836 129.719C182.539 130.172 182.391 130.826 182.391 131.68C182.391 132.534 182.539 133.177 182.836 133.609C183.138 134.042 183.562 134.258 184.109 134.258ZM189.383 127.266H191.992L193.641 132.18C193.693 132.336 193.737 132.495 193.773 132.656C193.81 132.818 193.841 132.984 193.867 133.156C193.893 133.328 193.914 133.508 193.93 133.695H193.977C194.008 133.414 194.049 133.151 194.102 132.906C194.159 132.661 194.229 132.419 194.312 132.18L195.93 127.266H198.484L194.789 137.117C194.565 137.721 194.273 138.224 193.914 138.625C193.555 139.031 193.141 139.336 192.672 139.539C192.208 139.742 191.698 139.844 191.141 139.844C190.87 139.844 190.635 139.828 190.438 139.797C190.24 139.771 190.07 139.742 189.93 139.711V137.82C190.039 137.846 190.177 137.87 190.344 137.891C190.51 137.911 190.685 137.922 190.867 137.922C191.201 137.922 191.487 137.852 191.727 137.711C191.966 137.57 192.167 137.38 192.328 137.141C192.49 136.906 192.617 136.648 192.711 136.367L192.852 135.938L189.383 127.266ZM208.492 136H206.07V126.594H202.969V124.578H211.594V126.594H208.492V136ZM216.766 127.102C217.573 127.102 218.268 127.258 218.852 127.57C219.435 127.878 219.885 128.326 220.203 128.914C220.521 129.503 220.68 130.221 220.68 131.07V132.227H215.047C215.073 132.898 215.273 133.427 215.648 133.812C216.029 134.193 216.555 134.383 217.227 134.383C217.784 134.383 218.294 134.326 218.758 134.211C219.221 134.096 219.698 133.924 220.188 133.695V135.539C219.755 135.753 219.302 135.909 218.828 136.008C218.359 136.107 217.789 136.156 217.117 136.156C216.242 136.156 215.466 135.995 214.789 135.672C214.117 135.349 213.589 134.857 213.203 134.195C212.823 133.534 212.633 132.701 212.633 131.695C212.633 130.674 212.805 129.826 213.148 129.148C213.497 128.466 213.982 127.956 214.602 127.617C215.221 127.273 215.943 127.102 216.766 127.102ZM216.781 128.797C216.318 128.797 215.932 128.945 215.625 129.242C215.323 129.539 215.148 130.005 215.102 130.641H218.445C218.44 130.286 218.375 129.971 218.25 129.695C218.13 129.419 217.948 129.201 217.703 129.039C217.464 128.878 217.156 128.797 216.781 128.797ZM224.406 131.539L221.594 127.266H224.297L225.992 130.047L227.703 127.266H230.406L227.562 131.539L230.539 136H227.828L225.992 133.008L224.148 136H221.445L224.406 131.539ZM235.547 134.258C235.807 134.258 236.06 134.232 236.305 134.18C236.555 134.128 236.802 134.062 237.047 133.984V135.758C236.792 135.872 236.474 135.966 236.094 136.039C235.719 136.117 235.307 136.156 234.859 136.156C234.339 136.156 233.87 136.073 233.453 135.906C233.042 135.734 232.716 135.44 232.477 135.023C232.242 134.602 232.125 134.016 232.125 133.266V129.055H230.984V128.047L232.297 127.25L232.984 125.406H234.508V127.266H236.953V129.055H234.508V133.266C234.508 133.599 234.602 133.849 234.789 134.016C234.982 134.177 235.234 134.258 235.547 134.258ZM243.164 124.578H246.719C248.24 124.578 249.391 124.792 250.172 125.219C250.953 125.646 251.344 126.396 251.344 127.469C251.344 127.901 251.273 128.292 251.133 128.641C250.997 128.99 250.799 129.276 250.539 129.5C250.279 129.724 249.961 129.87 249.586 129.938V130.016C249.966 130.094 250.31 130.229 250.617 130.422C250.924 130.609 251.169 130.885 251.352 131.25C251.539 131.609 251.633 132.089 251.633 132.688C251.633 133.38 251.464 133.974 251.125 134.469C250.786 134.964 250.302 135.344 249.672 135.609C249.047 135.87 248.302 136 247.438 136H243.164V124.578ZM245.586 129.102H246.992C247.695 129.102 248.182 128.992 248.453 128.773C248.724 128.549 248.859 128.221 248.859 127.789C248.859 127.352 248.698 127.039 248.375 126.852C248.057 126.659 247.552 126.562 246.859 126.562H245.586V129.102ZM245.586 131.023V134H247.164C247.893 134 248.401 133.859 248.688 133.578C248.974 133.297 249.117 132.919 249.117 132.445C249.117 132.164 249.055 131.917 248.93 131.703C248.805 131.49 248.594 131.323 248.297 131.203C248.005 131.083 247.602 131.023 247.086 131.023H245.586ZM261.664 131.617C261.664 132.346 261.565 132.992 261.367 133.555C261.174 134.117 260.891 134.594 260.516 134.984C260.146 135.37 259.698 135.661 259.172 135.859C258.651 136.057 258.062 136.156 257.406 136.156C256.792 136.156 256.227 136.057 255.711 135.859C255.201 135.661 254.755 135.37 254.375 134.984C254 134.594 253.708 134.117 253.5 133.555C253.297 132.992 253.195 132.346 253.195 131.617C253.195 130.648 253.367 129.828 253.711 129.156C254.055 128.484 254.544 127.974 255.18 127.625C255.815 127.276 256.573 127.102 257.453 127.102C258.271 127.102 258.995 127.276 259.625 127.625C260.26 127.974 260.758 128.484 261.117 129.156C261.482 129.828 261.664 130.648 261.664 131.617ZM255.625 131.617C255.625 132.19 255.688 132.672 255.812 133.062C255.938 133.453 256.133 133.747 256.398 133.945C256.664 134.143 257.01 134.242 257.438 134.242C257.859 134.242 258.201 134.143 258.461 133.945C258.727 133.747 258.919 133.453 259.039 133.062C259.164 132.672 259.227 132.19 259.227 131.617C259.227 131.039 259.164 130.56 259.039 130.18C258.919 129.794 258.727 129.505 258.461 129.312C258.195 129.12 257.849 129.023 257.422 129.023C256.792 129.023 256.333 129.24 256.047 129.672C255.766 130.104 255.625 130.753 255.625 131.617ZM266.016 136H263.633V123.844H266.016V136ZM271.289 136.156C270.315 136.156 269.521 135.776 268.906 135.016C268.297 134.25 267.992 133.128 267.992 131.648C267.992 130.154 268.302 129.023 268.922 128.258C269.542 127.487 270.352 127.102 271.352 127.102C271.768 127.102 272.135 127.159 272.453 127.273C272.771 127.388 273.044 127.542 273.273 127.734C273.508 127.927 273.706 128.143 273.867 128.383H273.945C273.914 128.216 273.875 127.971 273.828 127.648C273.786 127.32 273.766 126.984 273.766 126.641V123.844H276.156V136H274.328L273.867 134.867H273.766C273.615 135.107 273.424 135.326 273.195 135.523C272.971 135.716 272.703 135.87 272.391 135.984C272.078 136.099 271.711 136.156 271.289 136.156ZM272.125 134.258C272.776 134.258 273.234 134.065 273.5 133.68C273.771 133.289 273.914 132.703 273.93 131.922V131.664C273.93 130.815 273.799 130.167 273.539 129.719C273.279 129.266 272.794 129.039 272.086 129.039C271.56 129.039 271.148 129.266 270.852 129.719C270.555 130.172 270.406 130.826 270.406 131.68C270.406 132.534 270.555 133.177 270.852 133.609C271.154 134.042 271.578 134.258 272.125 134.258Z" fill="white"/>
</svg>
