<svg width="370" height="120" viewBox="0 0 370 120" fill="none" xmlns="http://www.w3.org/2000/svg">
<g filter="url(#filter0_d_1412_9890)">
<rect x="4.5" width="361" height="112" rx="8" fill="#EAEFFF" shape-rendering="crispEdges"/>
<path d="M21.9375 20.5781H25.4922C27.013 20.5781 28.1641 20.7917 28.9453 21.2188C29.7266 21.6458 30.1172 22.3958 30.1172 23.4688C30.1172 23.901 30.0469 24.2917 29.9062 24.6406C29.7708 24.9896 29.5729 25.276 29.3125 25.5C29.0521 25.724 28.7344 25.8698 28.3594 25.9375V26.0156C28.7396 26.0938 29.0833 26.2292 29.3906 26.4219C29.6979 26.6094 29.9427 26.8854 30.125 27.25C30.3125 27.6094 30.4062 28.0885 30.4062 28.6875C30.4062 29.3802 30.237 29.974 29.8984 30.4688C29.5599 30.9635 29.0755 31.3438 28.4453 31.6094C27.8203 31.8698 27.0755 32 26.2109 32H21.9375V20.5781ZM24.3594 25.1016H25.7656C26.4688 25.1016 26.9557 24.9922 27.2266 24.7734C27.4974 24.5495 27.6328 24.2214 27.6328 23.7891C27.6328 23.3516 27.4714 23.0391 27.1484 22.8516C26.8307 22.6589 26.3255 22.5625 25.6328 22.5625H24.3594V25.1016ZM24.3594 27.0234V30H25.9375C26.6667 30 27.1745 29.8594 27.4609 29.5781C27.7474 29.2969 27.8906 28.9193 27.8906 28.4453C27.8906 28.1641 27.8281 27.9167 27.7031 27.7031C27.5781 27.4896 27.3672 27.3229 27.0703 27.2031C26.7786 27.0833 26.375 27.0234 25.8594 27.0234H24.3594ZM40.4375 27.6172C40.4375 28.3464 40.3385 28.9922 40.1406 29.5547C39.9479 30.1172 39.6641 30.5938 39.2891 30.9844C38.9193 31.3698 38.4714 31.6615 37.9453 31.8594C37.4245 32.0573 36.8359 32.1562 36.1797 32.1562C35.5651 32.1562 35 32.0573 34.4844 31.8594C33.974 31.6615 33.5286 31.3698 33.1484 30.9844C32.7734 30.5938 32.4818 30.1172 32.2734 29.5547C32.0703 28.9922 31.9688 28.3464 31.9688 27.6172C31.9688 26.6484 32.1406 25.8281 32.4844 25.1562C32.8281 24.4844 33.3177 23.974 33.9531 23.625C34.5885 23.276 35.3464 23.1016 36.2266 23.1016C37.0443 23.1016 37.7682 23.276 38.3984 23.625C39.0339 23.974 39.5312 24.4844 39.8906 25.1562C40.2552 25.8281 40.4375 26.6484 40.4375 27.6172ZM34.3984 27.6172C34.3984 28.1901 34.4609 28.6719 34.5859 29.0625C34.7109 29.4531 34.9062 29.7474 35.1719 29.9453C35.4375 30.1432 35.7839 30.2422 36.2109 30.2422C36.6328 30.2422 36.974 30.1432 37.2344 29.9453C37.5 29.7474 37.6927 29.4531 37.8125 29.0625C37.9375 28.6719 38 28.1901 38 27.6172C38 27.0391 37.9375 26.5599 37.8125 26.1797C37.6927 25.7943 37.5 25.5052 37.2344 25.3125C36.9688 25.1198 36.6224 25.0234 36.1953 25.0234C35.5651 25.0234 35.1068 25.2396 34.8203 25.6719C34.5391 26.1042 34.3984 26.7526 34.3984 27.6172ZM45.1719 32.1562C44.1979 32.1562 43.4036 31.776 42.7891 31.0156C42.1797 30.25 41.875 29.1276 41.875 27.6484C41.875 26.1536 42.1849 25.0234 42.8047 24.2578C43.4245 23.487 44.2344 23.1016 45.2344 23.1016C45.651 23.1016 46.0182 23.1589 46.3359 23.2734C46.6536 23.388 46.9271 23.5417 47.1562 23.7344C47.3906 23.9271 47.5885 24.1432 47.75 24.3828H47.8281C47.7969 24.2161 47.7578 23.9714 47.7109 23.6484C47.6693 23.3203 47.6484 22.9844 47.6484 22.6406V19.8438H50.0391V32H48.2109L47.75 30.8672H47.6484C47.4974 31.1068 47.3073 31.3255 47.0781 31.5234C46.8542 31.7161 46.5859 31.8698 46.2734 31.9844C45.9609 32.099 45.5938 32.1562 45.1719 32.1562ZM46.0078 30.2578C46.6589 30.2578 47.1172 30.0651 47.3828 29.6797C47.6536 29.2891 47.7969 28.7031 47.8125 27.9219V27.6641C47.8125 26.8151 47.6823 26.1667 47.4219 25.7188C47.1615 25.2656 46.6771 25.0391 45.9688 25.0391C45.4427 25.0391 45.0312 25.2656 44.7344 25.7188C44.4375 26.1719 44.2891 26.8255 44.2891 27.6797C44.2891 28.5339 44.4375 29.1771 44.7344 29.6094C45.0365 30.0417 45.4609 30.2578 46.0078 30.2578ZM51.2812 23.2656H53.8906L55.5391 28.1797C55.5911 28.3359 55.6354 28.4948 55.6719 28.6562C55.7083 28.8177 55.7396 28.9844 55.7656 29.1562C55.7917 29.3281 55.8125 29.5078 55.8281 29.6953H55.875C55.9062 29.4141 55.9479 29.151 56 28.9062C56.0573 28.6615 56.1276 28.4193 56.2109 28.1797L57.8281 23.2656H60.3828L56.6875 33.1172C56.4635 33.7214 56.1719 34.224 55.8125 34.625C55.4531 35.0312 55.0391 35.3359 54.5703 35.5391C54.1068 35.7422 53.5964 35.8438 53.0391 35.8438C52.7682 35.8438 52.5339 35.8281 52.3359 35.7969C52.138 35.7708 51.9688 35.7422 51.8281 35.7109V33.8203C51.9375 33.8464 52.0755 33.8698 52.2422 33.8906C52.4089 33.9115 52.5833 33.9219 52.7656 33.9219C53.099 33.9219 53.3854 33.8516 53.625 33.7109C53.8646 33.5703 54.0651 33.3802 54.2266 33.1406C54.388 32.9062 54.5156 32.6484 54.6094 32.3672L54.75 31.9375L51.2812 23.2656ZM70.3906 32H67.9688V22.5938H64.8672V20.5781H73.4922V22.5938H70.3906V32ZM78.6641 23.1016C79.4714 23.1016 80.1667 23.2578 80.75 23.5703C81.3333 23.8776 81.7839 24.3255 82.1016 24.9141C82.4193 25.5026 82.5781 26.2214 82.5781 27.0703V28.2266H76.9453C76.9714 28.8984 77.1719 29.4271 77.5469 29.8125C77.9271 30.1927 78.4531 30.3828 79.125 30.3828C79.6823 30.3828 80.1927 30.3255 80.6562 30.2109C81.1198 30.0964 81.5964 29.9245 82.0859 29.6953V31.5391C81.6536 31.7526 81.2005 31.9089 80.7266 32.0078C80.2578 32.1068 79.6875 32.1562 79.0156 32.1562C78.1406 32.1562 77.3646 31.9948 76.6875 31.6719C76.0156 31.349 75.487 30.8568 75.1016 30.1953C74.7214 29.5339 74.5312 28.7005 74.5312 27.6953C74.5312 26.6745 74.7031 25.8255 75.0469 25.1484C75.3958 24.4661 75.8802 23.9557 76.5 23.6172C77.1198 23.2734 77.8411 23.1016 78.6641 23.1016ZM78.6797 24.7969C78.2161 24.7969 77.8307 24.9453 77.5234 25.2422C77.2214 25.5391 77.0469 26.0052 77 26.6406H80.3438C80.3385 26.2865 80.2734 25.9714 80.1484 25.6953C80.0286 25.4193 79.8464 25.2005 79.6016 25.0391C79.362 24.8776 79.0547 24.7969 78.6797 24.7969ZM86.3047 27.5391L83.4922 23.2656H86.1953L87.8906 26.0469L89.6016 23.2656H92.3047L89.4609 27.5391L92.4375 32H89.7266L87.8906 29.0078L86.0469 32H83.3438L86.3047 27.5391ZM97.4453 30.2578C97.7057 30.2578 97.9583 30.2318 98.2031 30.1797C98.4531 30.1276 98.7005 30.0625 98.9453 29.9844V31.7578C98.6901 31.8724 98.3724 31.9661 97.9922 32.0391C97.6172 32.1172 97.2057 32.1562 96.7578 32.1562C96.237 32.1562 95.7682 32.0729 95.3516 31.9062C94.9401 31.7344 94.6146 31.4401 94.375 31.0234C94.1406 30.6016 94.0234 30.0156 94.0234 29.2656V25.0547H92.8828V24.0469L94.1953 23.25L94.8828 21.4062H96.4062V23.2656H98.8516V25.0547H96.4062V29.2656C96.4062 29.599 96.5 29.849 96.6875 30.0156C96.8802 30.1771 97.1328 30.2578 97.4453 30.2578ZM105.062 20.5781H108.617C110.138 20.5781 111.289 20.7917 112.07 21.2188C112.852 21.6458 113.242 22.3958 113.242 23.4688C113.242 23.901 113.172 24.2917 113.031 24.6406C112.896 24.9896 112.698 25.276 112.438 25.5C112.177 25.724 111.859 25.8698 111.484 25.9375V26.0156C111.865 26.0938 112.208 26.2292 112.516 26.4219C112.823 26.6094 113.068 26.8854 113.25 27.25C113.438 27.6094 113.531 28.0885 113.531 28.6875C113.531 29.3802 113.362 29.974 113.023 30.4688C112.685 30.9635 112.201 31.3438 111.57 31.6094C110.945 31.8698 110.201 32 109.336 32H105.062V20.5781ZM107.484 25.1016H108.891C109.594 25.1016 110.081 24.9922 110.352 24.7734C110.622 24.5495 110.758 24.2214 110.758 23.7891C110.758 23.3516 110.596 23.0391 110.273 22.8516C109.956 22.6589 109.451 22.5625 108.758 22.5625H107.484V25.1016ZM107.484 27.0234V30H109.062C109.792 30 110.299 29.8594 110.586 29.5781C110.872 29.2969 111.016 28.9193 111.016 28.4453C111.016 28.1641 110.953 27.9167 110.828 27.7031C110.703 27.4896 110.492 27.3229 110.195 27.2031C109.904 27.0833 109.5 27.0234 108.984 27.0234H107.484ZM123.562 27.6172C123.562 28.3464 123.464 28.9922 123.266 29.5547C123.073 30.1172 122.789 30.5938 122.414 30.9844C122.044 31.3698 121.596 31.6615 121.07 31.8594C120.549 32.0573 119.961 32.1562 119.305 32.1562C118.69 32.1562 118.125 32.0573 117.609 31.8594C117.099 31.6615 116.654 31.3698 116.273 30.9844C115.898 30.5938 115.607 30.1172 115.398 29.5547C115.195 28.9922 115.094 28.3464 115.094 27.6172C115.094 26.6484 115.266 25.8281 115.609 25.1562C115.953 24.4844 116.443 23.974 117.078 23.625C117.714 23.276 118.471 23.1016 119.352 23.1016C120.169 23.1016 120.893 23.276 121.523 23.625C122.159 23.974 122.656 24.4844 123.016 25.1562C123.38 25.8281 123.562 26.6484 123.562 27.6172ZM117.523 27.6172C117.523 28.1901 117.586 28.6719 117.711 29.0625C117.836 29.4531 118.031 29.7474 118.297 29.9453C118.562 30.1432 118.909 30.2422 119.336 30.2422C119.758 30.2422 120.099 30.1432 120.359 29.9453C120.625 29.7474 120.818 29.4531 120.938 29.0625C121.062 28.6719 121.125 28.1901 121.125 27.6172C121.125 27.0391 121.062 26.5599 120.938 26.1797C120.818 25.7943 120.625 25.5052 120.359 25.3125C120.094 25.1198 119.747 25.0234 119.32 25.0234C118.69 25.0234 118.232 25.2396 117.945 25.6719C117.664 26.1042 117.523 26.7526 117.523 27.6172ZM127.914 32H125.531V19.8438H127.914V32ZM133.188 32.1562C132.214 32.1562 131.419 31.776 130.805 31.0156C130.195 30.25 129.891 29.1276 129.891 27.6484C129.891 26.1536 130.201 25.0234 130.82 24.2578C131.44 23.487 132.25 23.1016 133.25 23.1016C133.667 23.1016 134.034 23.1589 134.352 23.2734C134.669 23.388 134.943 23.5417 135.172 23.7344C135.406 23.9271 135.604 24.1432 135.766 24.3828H135.844C135.812 24.2161 135.773 23.9714 135.727 23.6484C135.685 23.3203 135.664 22.9844 135.664 22.6406V19.8438H138.055V32H136.227L135.766 30.8672H135.664C135.513 31.1068 135.323 31.3255 135.094 31.5234C134.87 31.7161 134.602 31.8698 134.289 31.9844C133.977 32.099 133.609 32.1562 133.188 32.1562ZM134.023 30.2578C134.674 30.2578 135.133 30.0651 135.398 29.6797C135.669 29.2891 135.812 28.7031 135.828 27.9219V27.6641C135.828 26.8151 135.698 26.1667 135.438 25.7188C135.177 25.2656 134.693 25.0391 133.984 25.0391C133.458 25.0391 133.047 25.2656 132.75 25.7188C132.453 26.1719 132.305 26.8255 132.305 27.6797C132.305 28.5339 132.453 29.1771 132.75 29.6094C133.052 30.0417 133.477 30.2578 134.023 30.2578Z" fill="#141414"/>
<path d="M21.7 67V55.8H25.636C26.4253 55.8 27.076 55.928 27.588 56.184C28.1107 56.4293 28.5 56.7707 28.756 57.208C29.012 57.6347 29.14 58.1147 29.14 58.648C29.14 59.224 29.012 59.704 28.756 60.088C28.5107 60.472 28.1853 60.7653 27.78 60.968C27.3853 61.1707 26.964 61.2933 26.516 61.336L26.74 61.176C27.22 61.1867 27.6627 61.3147 28.068 61.56C28.4733 61.8053 28.7933 62.136 29.028 62.552C29.2733 62.968 29.396 63.432 29.396 63.944C29.396 64.5093 29.2573 65.0267 28.98 65.496C28.7027 65.9547 28.292 66.3227 27.748 66.6C27.2147 66.8667 26.5533 67 25.764 67H21.7ZM23.044 65.88H25.62C26.3773 65.88 26.964 65.704 27.38 65.352C27.8067 64.9893 28.02 64.488 28.02 63.848C28.02 63.2187 27.8013 62.7173 27.364 62.344C26.9373 61.96 26.3453 61.768 25.588 61.768H23.044V65.88ZM23.044 60.696H25.54C26.2653 60.696 26.8147 60.5253 27.188 60.184C27.572 59.8427 27.764 59.3787 27.764 58.792C27.764 58.2267 27.572 57.7733 27.188 57.432C26.8147 57.0907 26.2493 56.92 25.492 56.92H23.044V60.696ZM34.8606 67.192C34.114 67.192 33.442 67.0213 32.8446 66.68C32.2473 66.328 31.7726 65.8373 31.4206 65.208C31.0793 64.5787 30.9086 63.8373 30.9086 62.984C30.9086 62.1307 31.0846 61.3893 31.4366 60.76C31.7886 60.1307 32.2633 59.6453 32.8606 59.304C33.4686 58.952 34.146 58.776 34.8926 58.776C35.65 58.776 36.3273 58.952 36.9246 59.304C37.522 59.6453 37.9913 60.1307 38.3326 60.76C38.674 61.3893 38.8446 62.1307 38.8446 62.984C38.8446 63.8373 38.6686 64.5787 38.3166 65.208C37.9753 65.8373 37.5006 66.328 36.8926 66.68C36.2953 67.0213 35.618 67.192 34.8606 67.192ZM34.8606 66.04C35.33 66.04 35.762 65.928 36.1566 65.704C36.5513 65.4693 36.866 65.128 37.1006 64.68C37.346 64.2213 37.4686 63.656 37.4686 62.984C37.4686 62.3013 37.3513 61.736 37.1166 61.288C36.882 60.84 36.5673 60.504 36.1726 60.28C35.778 60.0453 35.3513 59.928 34.8926 59.928C34.4446 59.928 34.018 60.0453 33.6126 60.28C33.218 60.504 32.898 60.84 32.6526 61.288C32.4073 61.736 32.2846 62.3013 32.2846 62.984C32.2846 63.656 32.4073 64.2213 32.6526 64.68C32.898 65.128 33.2126 65.4693 33.5966 65.704C33.9913 65.928 34.4126 66.04 34.8606 66.04ZM44.313 67.192C43.5343 67.192 42.8463 67.0107 42.249 66.648C41.6623 66.2747 41.2037 65.7733 40.873 65.144C40.553 64.504 40.393 63.7787 40.393 62.968C40.393 62.1573 40.553 61.4373 40.873 60.808C41.2037 60.1787 41.6623 59.6827 42.249 59.32C42.8463 58.9573 43.5397 58.776 44.329 58.776C44.9797 58.776 45.5557 58.9093 46.057 59.176C46.5583 59.4427 46.9423 59.816 47.209 60.296V55.48H48.553V67H47.337L47.209 65.688C47.0383 65.944 46.8197 66.1893 46.553 66.424C46.297 66.648 45.9823 66.8347 45.609 66.984C45.2357 67.1227 44.8037 67.192 44.313 67.192ZM44.457 66.024C44.9903 66.024 45.4597 65.9013 45.865 65.656C46.281 65.4 46.601 65.0427 46.825 64.584C47.049 64.1253 47.161 63.592 47.161 62.984C47.161 62.376 47.049 61.8427 46.825 61.384C46.601 60.9253 46.281 60.5733 45.865 60.328C45.4597 60.072 44.9903 59.944 44.457 59.944C43.945 59.944 43.481 60.072 43.065 60.328C42.6597 60.5733 42.3397 60.9253 42.105 61.384C41.881 61.8427 41.769 62.376 41.769 62.984C41.769 63.592 41.881 64.1253 42.105 64.584C42.3397 65.0427 42.6597 65.4 43.065 65.656C43.481 65.9013 43.945 66.024 44.457 66.024ZM51.6403 70.52L53.6083 66.104H53.1443L49.9923 58.968H51.4483L54.0723 65.096L56.8403 58.968H58.2323L53.0483 70.52H51.6403ZM66.6049 67V56.904H63.2609V55.8H71.2929V56.904H67.9489V67H66.6049ZM74.9841 67.192C74.2375 67.192 73.5708 67.016 72.9841 66.664C72.3975 66.312 71.9335 65.8213 71.5921 65.192C71.2615 64.5627 71.0961 63.8267 71.0961 62.984C71.0961 62.1307 71.2615 61.3947 71.5921 60.776C71.9228 60.1467 72.3815 59.656 72.9681 59.304C73.5655 58.952 74.2481 58.776 75.0161 58.776C75.8055 58.776 76.4775 58.952 77.0321 59.304C77.5868 59.656 78.0081 60.1147 78.2961 60.68C78.5948 61.2453 78.7441 61.8693 78.7441 62.552C78.7441 62.6587 78.7441 62.7707 78.7441 62.888C78.7441 63.0053 78.7388 63.1387 78.7281 63.288H72.1041V62.248H77.4161C77.3841 61.512 77.1388 60.9413 76.6801 60.536C76.2321 60.12 75.6668 59.912 74.9841 59.912C74.5361 59.912 74.1148 60.0187 73.7201 60.232C73.3255 60.4347 73.0055 60.7333 72.7601 61.128C72.5255 61.5227 72.4081 62.0187 72.4081 62.616V63.064C72.4081 63.7253 72.5308 64.28 72.7761 64.728C73.0215 65.1653 73.3361 65.496 73.7201 65.72C74.1148 65.944 74.5361 66.056 74.9841 66.056C75.5495 66.056 76.0135 65.9333 76.3761 65.688C76.7495 65.432 77.0215 65.0853 77.1921 64.648H78.5201C78.3815 65.1387 78.1521 65.576 77.8321 65.96C77.5121 66.3333 77.1121 66.632 76.6321 66.856C76.1628 67.08 75.6135 67.192 74.9841 67.192ZM79.3669 67L82.1029 62.984L79.3669 58.968H80.8229L83.0149 62.264L85.2389 58.968H86.6789L83.9429 62.984L86.6789 67H85.2389L83.0149 63.688L80.8229 67H79.3669ZM91.272 67C90.792 67 90.376 66.9253 90.024 66.776C89.672 66.6267 89.4 66.376 89.208 66.024C89.0267 65.6613 88.936 65.176 88.936 64.568V60.104H87.544V58.968H88.936L89.112 57.032H90.28V58.968H92.632V60.104H90.28V64.568C90.28 65.0693 90.3813 65.4107 90.584 65.592C90.7867 65.7627 91.144 65.848 91.656 65.848H92.52V67H91.272Z" fill="#141414"/>
</g>
<defs>
<filter id="filter0_d_1412_9890" x="0.5" y="0" width="369" height="120" filterUnits="userSpaceOnUse" color-interpolation-filters="sRGB">
<feFlood flood-opacity="0" result="BackgroundImageFix"/>
<feColorMatrix in="SourceAlpha" type="matrix" values="0 0 0 0 0 0 0 0 0 0 0 0 0 0 0 0 0 0 127 0" result="hardAlpha"/>
<feOffset dy="4"/>
<feGaussianBlur stdDeviation="2"/>
<feComposite in2="hardAlpha" operator="out"/>
<feColorMatrix type="matrix" values="0 0 0 0 0 0 0 0 0 0 0 0 0 0 0 0 0 0 0.25 0"/>
<feBlend mode="normal" in2="BackgroundImageFix" result="effect1_dropShadow_1412_9890"/>
<feBlend mode="normal" in="SourceGraphic" in2="effect1_dropShadow_1412_9890" result="shape"/>
</filter>
</defs>
</svg>
