<svg width="370" height="116" viewBox="0 0 370 116" fill="none" xmlns="http://www.w3.org/2000/svg">
<g filter="url(#filter0_d_1412_9885)">
<rect x="4.5" width="361" height="108" rx="8" fill="#EAEFFF" shape-rendering="crispEdges"/>
<path d="M31.2344 20.5781V27.9688C31.2344 28.7552 31.0599 29.4661 30.7109 30.1016C30.3672 30.7318 29.8438 31.2318 29.1406 31.6016C28.4427 31.9714 27.5625 32.1562 26.5 32.1562C24.9896 32.1562 23.8385 31.7708 23.0469 31C22.2552 30.2292 21.8594 29.2083 21.8594 27.9375V20.5781H24.2734V27.5703C24.2734 28.513 24.4661 29.1745 24.8516 29.5547C25.237 29.9349 25.8073 30.125 26.5625 30.125C27.0938 30.125 27.5234 30.0339 27.8516 29.8516C28.1849 29.6693 28.4297 29.388 28.5859 29.0078C28.7422 28.6276 28.8203 28.1432 28.8203 27.5547V20.5781H31.2344ZM43.2656 32H40.5L37.8438 27.6797L35.1875 32H32.5938L36.3828 26.1094L32.8359 20.5781H35.5078L37.9688 24.6875L40.3828 20.5781H42.9922L39.4062 26.2422L43.2656 32ZM49.7969 20.5781L45.5391 32H43.375L47.6328 20.5781H49.7969ZM60.6094 20.5781V27.9688C60.6094 28.7552 60.4349 29.4661 60.0859 30.1016C59.7422 30.7318 59.2188 31.2318 58.5156 31.6016C57.8177 31.9714 56.9375 32.1562 55.875 32.1562C54.3646 32.1562 53.2135 31.7708 52.4219 31C51.6302 30.2292 51.2344 29.2083 51.2344 27.9375V20.5781H53.6484V27.5703C53.6484 28.513 53.8411 29.1745 54.2266 29.5547C54.612 29.9349 55.1823 30.125 55.9375 30.125C56.4688 30.125 56.8984 30.0339 57.2266 29.8516C57.5599 29.6693 57.8047 29.388 57.9609 29.0078C58.1172 28.6276 58.1953 28.1432 58.1953 27.5547V20.5781H60.6094ZM63.4062 32V20.5781H65.8281V32H63.4062ZM82.3359 26.1797C82.3359 27.4661 82.0885 28.5417 81.5938 29.4062C81.1042 30.2656 80.3932 30.9141 79.4609 31.3516C78.5286 31.7839 77.4062 32 76.0938 32H72.8594V20.5781H76.4453C77.6432 20.5781 78.6823 20.7917 79.5625 21.2188C80.4427 21.6406 81.125 22.2682 81.6094 23.1016C82.0938 23.9297 82.3359 24.9557 82.3359 26.1797ZM79.8203 26.2422C79.8203 25.3984 79.6953 24.7057 79.4453 24.1641C79.2005 23.6172 78.8359 23.2135 78.3516 22.9531C77.8724 22.6927 77.2786 22.5625 76.5703 22.5625H75.2812V30H76.3203C77.5026 30 78.3802 29.6849 78.9531 29.0547C79.5312 28.4245 79.8203 27.487 79.8203 26.2422ZM88.1172 23.1016C88.9245 23.1016 89.6198 23.2578 90.2031 23.5703C90.7865 23.8776 91.237 24.3255 91.5547 24.9141C91.8724 25.5026 92.0312 26.2214 92.0312 27.0703V28.2266H86.3984C86.4245 28.8984 86.625 29.4271 87 29.8125C87.3802 30.1927 87.9062 30.3828 88.5781 30.3828C89.1354 30.3828 89.6458 30.3255 90.1094 30.2109C90.5729 30.0964 91.0495 29.9245 91.5391 29.6953V31.5391C91.1068 31.7526 90.6536 31.9089 90.1797 32.0078C89.7109 32.1068 89.1406 32.1562 88.4688 32.1562C87.5938 32.1562 86.8177 31.9948 86.1406 31.6719C85.4688 31.349 84.9401 30.8568 84.5547 30.1953C84.1745 29.5339 83.9844 28.7005 83.9844 27.6953C83.9844 26.6745 84.1562 25.8255 84.5 25.1484C84.849 24.4661 85.3333 23.9557 85.9531 23.6172C86.5729 23.2734 87.2943 23.1016 88.1172 23.1016ZM88.1328 24.7969C87.6693 24.7969 87.2839 24.9453 86.9766 25.2422C86.6745 25.5391 86.5 26.0052 86.4531 26.6406H89.7969C89.7917 26.2865 89.7266 25.9714 89.6016 25.6953C89.4818 25.4193 89.2995 25.2005 89.0547 25.0391C88.8151 24.8776 88.5078 24.7969 88.1328 24.7969ZM100.062 29.4062C100.062 30 99.9219 30.5026 99.6406 30.9141C99.3646 31.3203 98.9505 31.6302 98.3984 31.8438C97.8464 32.0521 97.1589 32.1562 96.3359 32.1562C95.7266 32.1562 95.2031 32.1172 94.7656 32.0391C94.3333 31.9609 93.8958 31.8307 93.4531 31.6484V29.6797C93.9271 29.8932 94.4349 30.0703 94.9766 30.2109C95.5234 30.3464 96.0026 30.4141 96.4141 30.4141C96.8776 30.4141 97.2083 30.3464 97.4062 30.2109C97.6094 30.0703 97.7109 29.888 97.7109 29.6641C97.7109 29.5182 97.6693 29.388 97.5859 29.2734C97.5078 29.1536 97.3359 29.0208 97.0703 28.875C96.8047 28.724 96.388 28.5286 95.8203 28.2891C95.2734 28.0599 94.8229 27.8281 94.4688 27.5938C94.1198 27.3594 93.8594 27.0833 93.6875 26.7656C93.5208 26.4427 93.4375 26.0339 93.4375 25.5391C93.4375 24.7318 93.75 24.125 94.375 23.7188C95.0052 23.3073 95.8464 23.1016 96.8984 23.1016C97.4401 23.1016 97.9557 23.1562 98.4453 23.2656C98.9401 23.375 99.4479 23.5495 99.9688 23.7891L99.25 25.5078C98.8177 25.3203 98.4089 25.1667 98.0234 25.0469C97.6432 24.9271 97.2552 24.8672 96.8594 24.8672C96.5104 24.8672 96.2474 24.9141 96.0703 25.0078C95.8932 25.1016 95.8047 25.2448 95.8047 25.4375C95.8047 25.5781 95.849 25.7031 95.9375 25.8125C96.0312 25.9219 96.2083 26.0443 96.4688 26.1797C96.7344 26.3099 97.1224 26.4792 97.6328 26.6875C98.1276 26.8906 98.5573 27.1042 98.9219 27.3281C99.2865 27.5469 99.5677 27.8203 99.7656 28.1484C99.9635 28.4714 100.062 28.8906 100.062 29.4062ZM104.305 23.2656V32H101.922V23.2656H104.305ZM103.117 19.8438C103.471 19.8438 103.776 19.9271 104.031 20.0938C104.286 20.2552 104.414 20.5599 104.414 21.0078C104.414 21.4505 104.286 21.7578 104.031 21.9297C103.776 22.0964 103.471 22.1797 103.117 22.1797C102.758 22.1797 102.451 22.0964 102.195 21.9297C101.945 21.7578 101.82 21.4505 101.82 21.0078C101.82 20.5599 101.945 20.2552 102.195 20.0938C102.451 19.9271 102.758 19.8438 103.117 19.8438ZM109.367 35.8438C108.148 35.8438 107.216 35.6302 106.57 35.2031C105.93 34.7812 105.609 34.1875 105.609 33.4219C105.609 32.8958 105.773 32.4557 106.102 32.1016C106.43 31.7474 106.911 31.4948 107.547 31.3438C107.302 31.2396 107.089 31.0703 106.906 30.8359C106.724 30.5964 106.633 30.3438 106.633 30.0781C106.633 29.7448 106.729 29.4688 106.922 29.25C107.115 29.026 107.393 28.8073 107.758 28.5938C107.299 28.3958 106.935 28.0781 106.664 27.6406C106.398 27.2031 106.266 26.6875 106.266 26.0938C106.266 25.4583 106.404 24.9193 106.68 24.4766C106.961 24.0286 107.367 23.6875 107.898 23.4531C108.435 23.2188 109.086 23.1016 109.852 23.1016C110.013 23.1016 110.201 23.112 110.414 23.1328C110.628 23.1536 110.823 23.1771 111 23.2031C111.182 23.2292 111.305 23.25 111.367 23.2656H114.414V24.4766L113.047 24.8281C113.172 25.0208 113.266 25.2266 113.328 25.4453C113.391 25.6641 113.422 25.8958 113.422 26.1406C113.422 27.0781 113.094 27.8099 112.438 28.3359C111.786 28.8568 110.88 29.1172 109.719 29.1172C109.443 29.1016 109.182 29.0807 108.938 29.0547C108.818 29.1484 108.727 29.2474 108.664 29.3516C108.602 29.4557 108.57 29.5651 108.57 29.6797C108.57 29.7943 108.617 29.8906 108.711 29.9688C108.81 30.0417 108.956 30.099 109.148 30.1406C109.346 30.1771 109.591 30.1953 109.883 30.1953H111.367C112.326 30.1953 113.055 30.401 113.555 30.8125C114.06 31.224 114.312 31.8281 114.312 32.625C114.312 33.6458 113.885 34.4375 113.031 35C112.182 35.5625 110.961 35.8438 109.367 35.8438ZM109.469 34.2891C110.036 34.2891 110.523 34.2344 110.93 34.125C111.341 34.0208 111.656 33.8698 111.875 33.6719C112.094 33.4792 112.203 33.2474 112.203 32.9766C112.203 32.7578 112.138 32.5833 112.008 32.4531C111.883 32.3281 111.69 32.2396 111.43 32.1875C111.174 32.1354 110.846 32.1094 110.445 32.1094H109.211C108.919 32.1094 108.656 32.1562 108.422 32.25C108.193 32.3438 108.01 32.474 107.875 32.6406C107.74 32.8125 107.672 33.0104 107.672 33.2344C107.672 33.5625 107.828 33.8203 108.141 34.0078C108.458 34.1953 108.901 34.2891 109.469 34.2891ZM109.852 27.6641C110.299 27.6641 110.628 27.526 110.836 27.25C111.044 26.974 111.148 26.599 111.148 26.125C111.148 25.599 111.039 25.2057 110.82 24.9453C110.607 24.6797 110.284 24.5469 109.852 24.5469C109.414 24.5469 109.086 24.6797 108.867 24.9453C108.648 25.2057 108.539 25.599 108.539 26.125C108.539 26.599 108.646 26.974 108.859 27.25C109.078 27.526 109.409 27.6641 109.852 27.6641ZM120.82 23.1016C121.753 23.1016 122.503 23.3568 123.07 23.8672C123.638 24.3724 123.922 25.1849 123.922 26.3047V32H121.539V26.8984C121.539 26.2734 121.424 25.8021 121.195 25.4844C120.971 25.1667 120.617 25.0078 120.133 25.0078C119.404 25.0078 118.906 25.2552 118.641 25.75C118.375 26.2448 118.242 26.9583 118.242 27.8906V32H115.859V23.2656H117.68L118 24.3828H118.133C118.32 24.0807 118.552 23.8359 118.828 23.6484C119.109 23.4609 119.419 23.3229 119.758 23.2344C120.102 23.1458 120.456 23.1016 120.82 23.1016ZM134.367 20.5781C135.841 20.5781 136.917 20.8958 137.594 21.5312C138.271 22.1615 138.609 23.0312 138.609 24.1406C138.609 24.6406 138.534 25.1198 138.383 25.5781C138.232 26.0312 137.984 26.4349 137.641 26.7891C137.302 27.1432 136.849 27.4245 136.281 27.6328C135.714 27.8359 135.013 27.9375 134.18 27.9375H133.141V32H130.719V20.5781H134.367ZM134.242 22.5625H133.141V25.9531H133.938C134.391 25.9531 134.784 25.8932 135.117 25.7734C135.451 25.6536 135.708 25.4661 135.891 25.2109C136.073 24.9557 136.164 24.6276 136.164 24.2266C136.164 23.6641 136.008 23.2474 135.695 22.9766C135.383 22.7005 134.898 22.5625 134.242 22.5625ZM148.516 27.6172C148.516 28.3464 148.417 28.9922 148.219 29.5547C148.026 30.1172 147.742 30.5938 147.367 30.9844C146.997 31.3698 146.549 31.6615 146.023 31.8594C145.503 32.0573 144.914 32.1562 144.258 32.1562C143.643 32.1562 143.078 32.0573 142.562 31.8594C142.052 31.6615 141.607 31.3698 141.227 30.9844C140.852 30.5938 140.56 30.1172 140.352 29.5547C140.148 28.9922 140.047 28.3464 140.047 27.6172C140.047 26.6484 140.219 25.8281 140.562 25.1562C140.906 24.4844 141.396 23.974 142.031 23.625C142.667 23.276 143.424 23.1016 144.305 23.1016C145.122 23.1016 145.846 23.276 146.477 23.625C147.112 23.974 147.609 24.4844 147.969 25.1562C148.333 25.8281 148.516 26.6484 148.516 27.6172ZM142.477 27.6172C142.477 28.1901 142.539 28.6719 142.664 29.0625C142.789 29.4531 142.984 29.7474 143.25 29.9453C143.516 30.1432 143.862 30.2422 144.289 30.2422C144.711 30.2422 145.052 30.1432 145.312 29.9453C145.578 29.7474 145.771 29.4531 145.891 29.0625C146.016 28.6719 146.078 28.1901 146.078 27.6172C146.078 27.0391 146.016 26.5599 145.891 26.1797C145.771 25.7943 145.578 25.5052 145.312 25.3125C145.047 25.1198 144.701 25.0234 144.273 25.0234C143.643 25.0234 143.185 25.2396 142.898 25.6719C142.617 26.1042 142.477 26.7526 142.477 27.6172ZM155.359 23.1016C155.479 23.1016 155.617 23.1094 155.773 23.125C155.935 23.1354 156.065 23.151 156.164 23.1719L155.984 25.4062C155.906 25.3802 155.794 25.362 155.648 25.3516C155.508 25.3359 155.385 25.3281 155.281 25.3281C154.974 25.3281 154.674 25.3672 154.383 25.4453C154.096 25.5234 153.839 25.651 153.609 25.8281C153.38 26 153.198 26.2292 153.062 26.5156C152.932 26.7969 152.867 27.1432 152.867 27.5547V32H150.484V23.2656H152.289L152.641 24.7344H152.758C152.93 24.4375 153.143 24.1667 153.398 23.9219C153.659 23.6719 153.953 23.474 154.281 23.3281C154.615 23.1771 154.974 23.1016 155.359 23.1016ZM161.43 30.2578C161.69 30.2578 161.943 30.2318 162.188 30.1797C162.438 30.1276 162.685 30.0625 162.93 29.9844V31.7578C162.674 31.8724 162.357 31.9661 161.977 32.0391C161.602 32.1172 161.19 32.1562 160.742 32.1562C160.221 32.1562 159.753 32.0729 159.336 31.9062C158.924 31.7344 158.599 31.4401 158.359 31.0234C158.125 30.6016 158.008 30.0156 158.008 29.2656V25.0547H156.867V24.0469L158.18 23.25L158.867 21.4062H160.391V23.2656H162.836V25.0547H160.391V29.2656C160.391 29.599 160.484 29.849 160.672 30.0156C160.865 30.1771 161.117 30.2578 161.43 30.2578ZM169.531 25.0547H167.469V32H165.086V25.0547H163.773V23.9062L165.086 23.2656V22.625C165.086 21.8802 165.211 21.3021 165.461 20.8906C165.716 20.474 166.073 20.1823 166.531 20.0156C166.995 19.8438 167.542 19.7578 168.172 19.7578C168.635 19.7578 169.057 19.7969 169.438 19.875C169.818 19.9479 170.128 20.0312 170.367 20.125L169.758 21.875C169.576 21.8177 169.378 21.7656 169.164 21.7188C168.951 21.6719 168.706 21.6484 168.43 21.6484C168.096 21.6484 167.852 21.75 167.695 21.9531C167.544 22.151 167.469 22.4062 167.469 22.7188V23.2656H169.531V25.0547ZM178.844 27.6172C178.844 28.3464 178.745 28.9922 178.547 29.5547C178.354 30.1172 178.07 30.5938 177.695 30.9844C177.326 31.3698 176.878 31.6615 176.352 31.8594C175.831 32.0573 175.242 32.1562 174.586 32.1562C173.971 32.1562 173.406 32.0573 172.891 31.8594C172.38 31.6615 171.935 31.3698 171.555 30.9844C171.18 30.5938 170.888 30.1172 170.68 29.5547C170.477 28.9922 170.375 28.3464 170.375 27.6172C170.375 26.6484 170.547 25.8281 170.891 25.1562C171.234 24.4844 171.724 23.974 172.359 23.625C172.995 23.276 173.753 23.1016 174.633 23.1016C175.451 23.1016 176.174 23.276 176.805 23.625C177.44 23.974 177.938 24.4844 178.297 25.1562C178.661 25.8281 178.844 26.6484 178.844 27.6172ZM172.805 27.6172C172.805 28.1901 172.867 28.6719 172.992 29.0625C173.117 29.4531 173.312 29.7474 173.578 29.9453C173.844 30.1432 174.19 30.2422 174.617 30.2422C175.039 30.2422 175.38 30.1432 175.641 29.9453C175.906 29.7474 176.099 29.4531 176.219 29.0625C176.344 28.6719 176.406 28.1901 176.406 27.6172C176.406 27.0391 176.344 26.5599 176.219 26.1797C176.099 25.7943 175.906 25.5052 175.641 25.3125C175.375 25.1198 175.029 25.0234 174.602 25.0234C173.971 25.0234 173.513 25.2396 173.227 25.6719C172.945 26.1042 172.805 26.7526 172.805 27.6172ZM183.195 32H180.812V19.8438H183.195V32ZM188.086 23.2656V32H185.703V23.2656H188.086ZM186.898 19.8438C187.253 19.8438 187.557 19.9271 187.812 20.0938C188.068 20.2552 188.195 20.5599 188.195 21.0078C188.195 21.4505 188.068 21.7578 187.812 21.9297C187.557 22.0964 187.253 22.1797 186.898 22.1797C186.539 22.1797 186.232 22.0964 185.977 21.9297C185.727 21.7578 185.602 21.4505 185.602 21.0078C185.602 20.5599 185.727 20.2552 185.977 20.0938C186.232 19.9271 186.539 19.8438 186.898 19.8438ZM198.531 27.6172C198.531 28.3464 198.432 28.9922 198.234 29.5547C198.042 30.1172 197.758 30.5938 197.383 30.9844C197.013 31.3698 196.565 31.6615 196.039 31.8594C195.518 32.0573 194.93 32.1562 194.273 32.1562C193.659 32.1562 193.094 32.0573 192.578 31.8594C192.068 31.6615 191.622 31.3698 191.242 30.9844C190.867 30.5938 190.576 30.1172 190.367 29.5547C190.164 28.9922 190.062 28.3464 190.062 27.6172C190.062 26.6484 190.234 25.8281 190.578 25.1562C190.922 24.4844 191.411 23.974 192.047 23.625C192.682 23.276 193.44 23.1016 194.32 23.1016C195.138 23.1016 195.862 23.276 196.492 23.625C197.128 23.974 197.625 24.4844 197.984 25.1562C198.349 25.8281 198.531 26.6484 198.531 27.6172ZM192.492 27.6172C192.492 28.1901 192.555 28.6719 192.68 29.0625C192.805 29.4531 193 29.7474 193.266 29.9453C193.531 30.1432 193.878 30.2422 194.305 30.2422C194.727 30.2422 195.068 30.1432 195.328 29.9453C195.594 29.7474 195.786 29.4531 195.906 29.0625C196.031 28.6719 196.094 28.1901 196.094 27.6172C196.094 27.0391 196.031 26.5599 195.906 26.1797C195.786 25.7943 195.594 25.5052 195.328 25.3125C195.062 25.1198 194.716 25.0234 194.289 25.0234C193.659 25.0234 193.201 25.2396 192.914 25.6719C192.633 26.1042 192.492 26.7526 192.492 27.6172ZM208.492 20.5781C209.966 20.5781 211.042 20.8958 211.719 21.5312C212.396 22.1615 212.734 23.0312 212.734 24.1406C212.734 24.6406 212.659 25.1198 212.508 25.5781C212.357 26.0312 212.109 26.4349 211.766 26.7891C211.427 27.1432 210.974 27.4245 210.406 27.6328C209.839 27.8359 209.138 27.9375 208.305 27.9375H207.266V32H204.844V20.5781H208.492ZM208.367 22.5625H207.266V25.9531H208.062C208.516 25.9531 208.909 25.8932 209.242 25.7734C209.576 25.6536 209.833 25.4661 210.016 25.2109C210.198 24.9557 210.289 24.6276 210.289 24.2266C210.289 23.6641 210.133 23.2474 209.82 22.9766C209.508 22.7005 209.023 22.5625 208.367 22.5625ZM219.578 23.1016C219.698 23.1016 219.836 23.1094 219.992 23.125C220.154 23.1354 220.284 23.151 220.383 23.1719L220.203 25.4062C220.125 25.3802 220.013 25.362 219.867 25.3516C219.727 25.3359 219.604 25.3281 219.5 25.3281C219.193 25.3281 218.893 25.3672 218.602 25.4453C218.315 25.5234 218.057 25.651 217.828 25.8281C217.599 26 217.417 26.2292 217.281 26.5156C217.151 26.7969 217.086 27.1432 217.086 27.5547V32H214.703V23.2656H216.508L216.859 24.7344H216.977C217.148 24.4375 217.362 24.1667 217.617 23.9219C217.878 23.6719 218.172 23.474 218.5 23.3281C218.833 23.1771 219.193 23.1016 219.578 23.1016ZM229.906 27.6172C229.906 28.3464 229.807 28.9922 229.609 29.5547C229.417 30.1172 229.133 30.5938 228.758 30.9844C228.388 31.3698 227.94 31.6615 227.414 31.8594C226.893 32.0573 226.305 32.1562 225.648 32.1562C225.034 32.1562 224.469 32.0573 223.953 31.8594C223.443 31.6615 222.997 31.3698 222.617 30.9844C222.242 30.5938 221.951 30.1172 221.742 29.5547C221.539 28.9922 221.438 28.3464 221.438 27.6172C221.438 26.6484 221.609 25.8281 221.953 25.1562C222.297 24.4844 222.786 23.974 223.422 23.625C224.057 23.276 224.815 23.1016 225.695 23.1016C226.513 23.1016 227.237 23.276 227.867 23.625C228.503 23.974 229 24.4844 229.359 25.1562C229.724 25.8281 229.906 26.6484 229.906 27.6172ZM223.867 27.6172C223.867 28.1901 223.93 28.6719 224.055 29.0625C224.18 29.4531 224.375 29.7474 224.641 29.9453C224.906 30.1432 225.253 30.2422 225.68 30.2422C226.102 30.2422 226.443 30.1432 226.703 29.9453C226.969 29.7474 227.161 29.4531 227.281 29.0625C227.406 28.6719 227.469 28.1901 227.469 27.6172C227.469 27.0391 227.406 26.5599 227.281 26.1797C227.161 25.7943 226.969 25.5052 226.703 25.3125C226.438 25.1198 226.091 25.0234 225.664 25.0234C225.034 25.0234 224.576 25.2396 224.289 25.6719C224.008 26.1042 223.867 26.7526 223.867 27.6172ZM231.172 35.8438C230.901 35.8438 230.62 35.8229 230.328 35.7812C230.036 35.7448 229.794 35.7005 229.602 35.6484V33.7734C229.794 33.8255 229.977 33.862 230.148 33.8828C230.315 33.9089 230.505 33.9219 230.719 33.9219C231.042 33.9219 231.315 33.8307 231.539 33.6484C231.763 33.4714 231.875 33.1198 231.875 32.5938V23.2656H234.258V32.9453C234.258 33.4766 234.156 33.9609 233.953 34.3984C233.75 34.8411 233.422 35.1927 232.969 35.4531C232.516 35.7135 231.917 35.8438 231.172 35.8438ZM231.773 21.0078C231.773 20.5599 231.898 20.2552 232.148 20.0938C232.404 19.9271 232.711 19.8438 233.07 19.8438C233.424 19.8438 233.729 19.9271 233.984 20.0938C234.24 20.2552 234.367 20.5599 234.367 21.0078C234.367 21.4505 234.24 21.7578 233.984 21.9297C233.729 22.0964 233.424 22.1797 233.07 22.1797C232.711 22.1797 232.404 22.0964 232.148 21.9297C231.898 21.7578 231.773 21.4505 231.773 21.0078ZM240.367 23.1016C241.174 23.1016 241.87 23.2578 242.453 23.5703C243.036 23.8776 243.487 24.3255 243.805 24.9141C244.122 25.5026 244.281 26.2214 244.281 27.0703V28.2266H238.648C238.674 28.8984 238.875 29.4271 239.25 29.8125C239.63 30.1927 240.156 30.3828 240.828 30.3828C241.385 30.3828 241.896 30.3255 242.359 30.2109C242.823 30.0964 243.299 29.9245 243.789 29.6953V31.5391C243.357 31.7526 242.904 31.9089 242.43 32.0078C241.961 32.1068 241.391 32.1562 240.719 32.1562C239.844 32.1562 239.068 31.9948 238.391 31.6719C237.719 31.349 237.19 30.8568 236.805 30.1953C236.424 29.5339 236.234 28.7005 236.234 27.6953C236.234 26.6745 236.406 25.8255 236.75 25.1484C237.099 24.4661 237.583 23.9557 238.203 23.6172C238.823 23.2734 239.544 23.1016 240.367 23.1016ZM240.383 24.7969C239.919 24.7969 239.534 24.9453 239.227 25.2422C238.924 25.5391 238.75 26.0052 238.703 26.6406H242.047C242.042 26.2865 241.977 25.9714 241.852 25.6953C241.732 25.4193 241.549 25.2005 241.305 25.0391C241.065 24.8776 240.758 24.7969 240.383 24.7969ZM249.766 32.1562C248.901 32.1562 248.164 32 247.555 31.6875C246.945 31.3698 246.482 30.8802 246.164 30.2188C245.846 29.5573 245.688 28.7109 245.688 27.6797C245.688 26.612 245.867 25.7422 246.227 25.0703C246.591 24.3932 247.094 23.8958 247.734 23.5781C248.38 23.2604 249.128 23.1016 249.977 23.1016C250.581 23.1016 251.102 23.1615 251.539 23.2812C251.982 23.3958 252.367 23.5339 252.695 23.6953L251.992 25.5391C251.617 25.388 251.268 25.2656 250.945 25.1719C250.622 25.0729 250.299 25.0234 249.977 25.0234C249.56 25.0234 249.214 25.1224 248.938 25.3203C248.661 25.513 248.456 25.8047 248.32 26.1953C248.185 26.5859 248.117 27.0755 248.117 27.6641C248.117 28.2422 248.19 28.7214 248.336 29.1016C248.482 29.4818 248.693 29.7656 248.969 29.9531C249.245 30.1354 249.581 30.2266 249.977 30.2266C250.471 30.2266 250.911 30.1615 251.297 30.0312C251.682 29.8958 252.057 29.7083 252.422 29.4688V31.5078C252.057 31.737 251.674 31.901 251.273 32C250.878 32.1042 250.375 32.1562 249.766 32.1562ZM258.133 30.2578C258.393 30.2578 258.646 30.2318 258.891 30.1797C259.141 30.1276 259.388 30.0625 259.633 29.9844V31.7578C259.378 31.8724 259.06 31.9661 258.68 32.0391C258.305 32.1172 257.893 32.1562 257.445 32.1562C256.924 32.1562 256.456 32.0729 256.039 31.9062C255.628 31.7344 255.302 31.4401 255.062 31.0234C254.828 30.6016 254.711 30.0156 254.711 29.2656V25.0547H253.57V24.0469L254.883 23.25L255.57 21.4062H257.094V23.2656H259.539V25.0547H257.094V29.2656C257.094 29.599 257.188 29.849 257.375 30.0156C257.568 30.1771 257.82 30.2578 258.133 30.2578ZM272.492 28.8281C272.492 29.5052 272.328 30.0938 272 30.5938C271.672 31.0938 271.193 31.4792 270.562 31.75C269.938 32.0208 269.177 32.1562 268.281 32.1562C267.885 32.1562 267.497 32.1302 267.117 32.0781C266.742 32.026 266.38 31.9505 266.031 31.8516C265.688 31.7474 265.359 31.6198 265.047 31.4688V29.2188C265.589 29.4583 266.151 29.6745 266.734 29.8672C267.318 30.0599 267.896 30.1562 268.469 30.1562C268.865 30.1562 269.182 30.1042 269.422 30C269.667 29.8958 269.844 29.7526 269.953 29.5703C270.062 29.388 270.117 29.1797 270.117 28.9453C270.117 28.6589 270.021 28.4141 269.828 28.2109C269.635 28.0078 269.37 27.8177 269.031 27.6406C268.698 27.4635 268.32 27.2734 267.898 27.0703C267.633 26.9453 267.344 26.7943 267.031 26.6172C266.719 26.4349 266.422 26.2135 266.141 25.9531C265.859 25.6927 265.628 25.3776 265.445 25.0078C265.268 24.6328 265.18 24.1849 265.18 23.6641C265.18 22.9818 265.336 22.3984 265.648 21.9141C265.961 21.4297 266.406 21.0599 266.984 20.8047C267.568 20.5443 268.255 20.4141 269.047 20.4141C269.641 20.4141 270.206 20.4844 270.742 20.625C271.284 20.7604 271.849 20.9583 272.438 21.2188L271.656 23.1016C271.13 22.888 270.659 22.724 270.242 22.6094C269.826 22.4896 269.401 22.4297 268.969 22.4297C268.667 22.4297 268.409 22.4792 268.195 22.5781C267.982 22.6719 267.82 22.8073 267.711 22.9844C267.602 23.1562 267.547 23.3568 267.547 23.5859C267.547 23.8568 267.625 24.0859 267.781 24.2734C267.943 24.4557 268.182 24.6328 268.5 24.8047C268.823 24.9766 269.224 25.1771 269.703 25.4062C270.286 25.6823 270.784 25.9714 271.195 26.2734C271.612 26.5703 271.932 26.9219 272.156 27.3281C272.38 27.7292 272.492 28.2292 272.492 28.8281ZM277.922 32.1562C277.057 32.1562 276.32 32 275.711 31.6875C275.102 31.3698 274.638 30.8802 274.32 30.2188C274.003 29.5573 273.844 28.7109 273.844 27.6797C273.844 26.612 274.023 25.7422 274.383 25.0703C274.747 24.3932 275.25 23.8958 275.891 23.5781C276.536 23.2604 277.284 23.1016 278.133 23.1016C278.737 23.1016 279.258 23.1615 279.695 23.2812C280.138 23.3958 280.523 23.5339 280.852 23.6953L280.148 25.5391C279.773 25.388 279.424 25.2656 279.102 25.1719C278.779 25.0729 278.456 25.0234 278.133 25.0234C277.716 25.0234 277.37 25.1224 277.094 25.3203C276.818 25.513 276.612 25.8047 276.477 26.1953C276.341 26.5859 276.273 27.0755 276.273 27.6641C276.273 28.2422 276.346 28.7214 276.492 29.1016C276.638 29.4818 276.849 29.7656 277.125 29.9531C277.401 30.1354 277.737 30.2266 278.133 30.2266C278.628 30.2266 279.068 30.1615 279.453 30.0312C279.839 29.8958 280.214 29.7083 280.578 29.4688V31.5078C280.214 31.737 279.831 31.901 279.43 32C279.034 32.1042 278.531 32.1562 277.922 32.1562ZM286.211 23.1016C287.018 23.1016 287.714 23.2578 288.297 23.5703C288.88 23.8776 289.331 24.3255 289.648 24.9141C289.966 25.5026 290.125 26.2214 290.125 27.0703V28.2266H284.492C284.518 28.8984 284.719 29.4271 285.094 29.8125C285.474 30.1927 286 30.3828 286.672 30.3828C287.229 30.3828 287.74 30.3255 288.203 30.2109C288.667 30.0964 289.143 29.9245 289.633 29.6953V31.5391C289.201 31.7526 288.747 31.9089 288.273 32.0078C287.805 32.1068 287.234 32.1562 286.562 32.1562C285.688 32.1562 284.911 31.9948 284.234 31.6719C283.562 31.349 283.034 30.8568 282.648 30.1953C282.268 29.5339 282.078 28.7005 282.078 27.6953C282.078 26.6745 282.25 25.8255 282.594 25.1484C282.943 24.4661 283.427 23.9557 284.047 23.6172C284.667 23.2734 285.388 23.1016 286.211 23.1016ZM286.227 24.7969C285.763 24.7969 285.378 24.9453 285.07 25.2422C284.768 25.5391 284.594 26.0052 284.547 26.6406H287.891C287.885 26.2865 287.82 25.9714 287.695 25.6953C287.576 25.4193 287.393 25.2005 287.148 25.0391C286.909 24.8776 286.602 24.7969 286.227 24.7969ZM297.023 23.1016C297.956 23.1016 298.706 23.3568 299.273 23.8672C299.841 24.3724 300.125 25.1849 300.125 26.3047V32H297.742V26.8984C297.742 26.2734 297.628 25.8021 297.398 25.4844C297.174 25.1667 296.82 25.0078 296.336 25.0078C295.607 25.0078 295.109 25.2552 294.844 25.75C294.578 26.2448 294.445 26.9583 294.445 27.8906V32H292.062V23.2656H293.883L294.203 24.3828H294.336C294.523 24.0807 294.755 23.8359 295.031 23.6484C295.312 23.4609 295.622 23.3229 295.961 23.2344C296.305 23.1458 296.659 23.1016 297.023 23.1016ZM306.156 23.0859C307.328 23.0859 308.227 23.3411 308.852 23.8516C309.477 24.362 309.789 25.138 309.789 26.1797V32H308.125L307.664 30.8125H307.602C307.352 31.125 307.096 31.3802 306.836 31.5781C306.576 31.776 306.276 31.9219 305.938 32.0156C305.599 32.1094 305.188 32.1562 304.703 32.1562C304.188 32.1562 303.724 32.0573 303.312 31.8594C302.906 31.6615 302.586 31.3594 302.352 30.9531C302.117 30.5417 302 30.0208 302 29.3906C302 28.4635 302.326 27.7812 302.977 27.3438C303.628 26.901 304.604 26.6562 305.906 26.6094L307.422 26.5625V26.1797C307.422 25.7214 307.302 25.3854 307.062 25.1719C306.823 24.9583 306.49 24.8516 306.062 24.8516C305.641 24.8516 305.227 24.9115 304.82 25.0312C304.414 25.151 304.008 25.3021 303.602 25.4844L302.812 23.875C303.276 23.6302 303.794 23.4375 304.367 23.2969C304.945 23.1562 305.542 23.0859 306.156 23.0859ZM307.422 27.9531L306.5 27.9844C305.729 28.0052 305.193 28.1432 304.891 28.3984C304.594 28.6536 304.445 28.9896 304.445 29.4062C304.445 29.7708 304.552 30.0312 304.766 30.1875C304.979 30.3385 305.258 30.4141 305.602 30.4141C306.112 30.4141 306.542 30.263 306.891 29.9609C307.245 29.6589 307.422 29.2292 307.422 28.6719V27.9531ZM317.125 23.1016C317.245 23.1016 317.383 23.1094 317.539 23.125C317.701 23.1354 317.831 23.151 317.93 23.1719L317.75 25.4062C317.672 25.3802 317.56 25.362 317.414 25.3516C317.273 25.3359 317.151 25.3281 317.047 25.3281C316.74 25.3281 316.44 25.3672 316.148 25.4453C315.862 25.5234 315.604 25.651 315.375 25.8281C315.146 26 314.964 26.2292 314.828 26.5156C314.698 26.7969 314.633 27.1432 314.633 27.5547V32H312.25V23.2656H314.055L314.406 24.7344H314.523C314.695 24.4375 314.909 24.1667 315.164 23.9219C315.424 23.6719 315.719 23.474 316.047 23.3281C316.38 23.1771 316.74 23.1016 317.125 23.1016ZM321.898 23.2656V32H319.516V23.2656H321.898ZM320.711 19.8438C321.065 19.8438 321.37 19.9271 321.625 20.0938C321.88 20.2552 322.008 20.5599 322.008 21.0078C322.008 21.4505 321.88 21.7578 321.625 21.9297C321.37 22.0964 321.065 22.1797 320.711 22.1797C320.352 22.1797 320.044 22.0964 319.789 21.9297C319.539 21.7578 319.414 21.4505 319.414 21.0078C319.414 20.5599 319.539 20.2552 319.789 20.0938C320.044 19.9271 320.352 19.8438 320.711 19.8438ZM332.344 27.6172C332.344 28.3464 332.245 28.9922 332.047 29.5547C331.854 30.1172 331.57 30.5938 331.195 30.9844C330.826 31.3698 330.378 31.6615 329.852 31.8594C329.331 32.0573 328.742 32.1562 328.086 32.1562C327.471 32.1562 326.906 32.0573 326.391 31.8594C325.88 31.6615 325.435 31.3698 325.055 30.9844C324.68 30.5938 324.388 30.1172 324.18 29.5547C323.977 28.9922 323.875 28.3464 323.875 27.6172C323.875 26.6484 324.047 25.8281 324.391 25.1562C324.734 24.4844 325.224 23.974 325.859 23.625C326.495 23.276 327.253 23.1016 328.133 23.1016C328.951 23.1016 329.674 23.276 330.305 23.625C330.94 23.974 331.438 24.4844 331.797 25.1562C332.161 25.8281 332.344 26.6484 332.344 27.6172ZM326.305 27.6172C326.305 28.1901 326.367 28.6719 326.492 29.0625C326.617 29.4531 326.812 29.7474 327.078 29.9453C327.344 30.1432 327.69 30.2422 328.117 30.2422C328.539 30.2422 328.88 30.1432 329.141 29.9453C329.406 29.7474 329.599 29.4531 329.719 29.0625C329.844 28.6719 329.906 28.1901 329.906 27.6172C329.906 27.0391 329.844 26.5599 329.719 26.1797C329.599 25.7943 329.406 25.5052 329.141 25.3125C328.875 25.1198 328.529 25.0234 328.102 25.0234C327.471 25.0234 327.013 25.2396 326.727 25.6719C326.445 26.1042 326.305 26.7526 326.305 27.6172Z" fill="#141414"/>
<path d="M21.7 67V55.8H25.636C26.4253 55.8 27.076 55.928 27.588 56.184C28.1107 56.4293 28.5 56.7707 28.756 57.208C29.012 57.6347 29.14 58.1147 29.14 58.648C29.14 59.224 29.012 59.704 28.756 60.088C28.5107 60.472 28.1853 60.7653 27.78 60.968C27.3853 61.1707 26.964 61.2933 26.516 61.336L26.74 61.176C27.22 61.1867 27.6627 61.3147 28.068 61.56C28.4733 61.8053 28.7933 62.136 29.028 62.552C29.2733 62.968 29.396 63.432 29.396 63.944C29.396 64.5093 29.2573 65.0267 28.98 65.496C28.7027 65.9547 28.292 66.3227 27.748 66.6C27.2147 66.8667 26.5533 67 25.764 67H21.7ZM23.044 65.88H25.62C26.3773 65.88 26.964 65.704 27.38 65.352C27.8067 64.9893 28.02 64.488 28.02 63.848C28.02 63.2187 27.8013 62.7173 27.364 62.344C26.9373 61.96 26.3453 61.768 25.588 61.768H23.044V65.88ZM23.044 60.696H25.54C26.2653 60.696 26.8147 60.5253 27.188 60.184C27.572 59.8427 27.764 59.3787 27.764 58.792C27.764 58.2267 27.572 57.7733 27.188 57.432C26.8147 57.0907 26.2493 56.92 25.492 56.92H23.044V60.696ZM31.2446 67V58.968H32.4606L32.5726 60.504C32.754 60.1413 32.9833 59.832 33.2606 59.576C33.5486 59.32 33.89 59.1227 34.2846 58.984C34.6793 58.8453 35.1273 58.776 35.6286 58.776V60.184H35.1646C34.8233 60.184 34.498 60.232 34.1886 60.328C33.8793 60.4133 33.602 60.5573 33.3566 60.76C33.122 60.952 32.9353 61.224 32.7966 61.576C32.658 61.928 32.5886 62.36 32.5886 62.872V67H31.2446ZM39.7753 67.192C39.1246 67.192 38.5806 67.08 38.1432 66.856C37.7059 66.6213 37.3806 66.3173 37.1673 65.944C36.9539 65.56 36.8473 65.1493 36.8473 64.712C36.8473 64.168 36.9859 63.7093 37.2633 63.336C37.5513 62.952 37.9513 62.664 38.4633 62.472C38.9859 62.2693 39.5939 62.168 40.2873 62.168H42.4313C42.4313 61.6667 42.3513 61.2507 42.1913 60.92C42.0419 60.5893 41.8179 60.3387 41.5193 60.168C41.2206 59.9973 40.8579 59.912 40.4313 59.912C39.9193 59.912 39.4766 60.04 39.1033 60.296C38.7299 60.552 38.5006 60.9307 38.4153 61.432H37.0393C37.1033 60.856 37.2953 60.376 37.6153 59.992C37.9459 59.5973 38.3619 59.2987 38.8633 59.096C39.3646 58.8827 39.8873 58.776 40.4313 58.776C41.1779 58.776 41.7966 58.9147 42.2873 59.192C42.7779 59.4587 43.1459 59.8373 43.3913 60.328C43.6473 60.808 43.7753 61.3733 43.7753 62.024V67H42.5753L42.4953 65.576C42.3886 65.8 42.2499 66.0133 42.0793 66.216C41.9193 66.408 41.7273 66.5787 41.5033 66.728C41.2899 66.8667 41.0393 66.9787 40.7513 67.064C40.4633 67.1493 40.1379 67.192 39.7753 67.192ZM39.9833 66.056C40.3566 66.056 40.6926 65.9813 40.9913 65.832C41.3006 65.672 41.5619 65.4587 41.7753 65.192C41.9886 64.9253 42.1486 64.6267 42.2553 64.296C42.3726 63.9547 42.4313 63.608 42.4313 63.256V63.208H40.3993C39.8873 63.208 39.4713 63.272 39.1513 63.4C38.8313 63.5173 38.6019 63.688 38.4633 63.912C38.3246 64.1253 38.2553 64.3707 38.2553 64.648C38.2553 64.936 38.3193 65.1867 38.4473 65.4C38.5859 65.6027 38.7833 65.7627 39.0393 65.88C39.2953 65.9973 39.6099 66.056 39.9833 66.056ZM45.8384 67V58.968H47.0544L47.1344 60.376C47.3904 59.8747 47.753 59.4853 48.2224 59.208C48.7024 58.92 49.2464 58.776 49.8544 58.776C50.4837 58.776 51.0277 58.8987 51.4864 59.144C51.945 59.3893 52.3024 59.768 52.5584 60.28C52.8144 60.792 52.9424 61.4373 52.9424 62.216V67H51.5984V62.36C51.5984 61.5493 51.4224 60.9413 51.0704 60.536C50.7184 60.1307 50.2117 59.928 49.5504 59.928C49.1024 59.928 48.697 60.04 48.3344 60.264C47.9824 60.4773 47.6997 60.792 47.4864 61.208C47.2837 61.624 47.1824 62.1307 47.1824 62.728V67H45.8384ZM58.5943 67.192C57.8156 67.192 57.1276 67.0107 56.5303 66.648C55.9436 66.2747 55.4849 65.7733 55.1543 65.144C54.8343 64.504 54.6743 63.7787 54.6743 62.968C54.6743 62.1573 54.8343 61.4373 55.1543 60.808C55.4849 60.1787 55.9436 59.6827 56.5303 59.32C57.1276 58.9573 57.8209 58.776 58.6102 58.776C59.2609 58.776 59.8369 58.9093 60.3383 59.176C60.8396 59.4427 61.2236 59.816 61.4903 60.296V55.48H62.8343V67H61.6183L61.4903 65.688C61.3196 65.944 61.1009 66.1893 60.8343 66.424C60.5783 66.648 60.2636 66.8347 59.8903 66.984C59.5169 67.1227 59.0849 67.192 58.5943 67.192ZM58.7383 66.024C59.2716 66.024 59.7409 65.9013 60.1463 65.656C60.5623 65.4 60.8823 65.0427 61.1063 64.584C61.3303 64.1253 61.4423 63.592 61.4423 62.984C61.4423 62.376 61.3303 61.8427 61.1063 61.384C60.8823 60.9253 60.5623 60.5733 60.1463 60.328C59.7409 60.072 59.2716 59.944 58.7383 59.944C58.2263 59.944 57.7623 60.072 57.3463 60.328C56.9409 60.5733 56.6209 60.9253 56.3863 61.384C56.1623 61.8427 56.0503 62.376 56.0503 62.984C56.0503 63.592 56.1623 64.1253 56.3863 64.584C56.6209 65.0427 56.9409 65.4 57.3463 65.656C57.7623 65.9013 58.2263 66.024 58.7383 66.024ZM69.3875 67V55.8H70.7315L76.6995 64.776V55.8H78.0435V67H76.6995L70.7315 58.024V67H69.3875ZM82.9784 67.192C82.3277 67.192 81.7837 67.08 81.3464 66.856C80.909 66.6213 80.5837 66.3173 80.3704 65.944C80.157 65.56 80.0504 65.1493 80.0504 64.712C80.0504 64.168 80.189 63.7093 80.4664 63.336C80.7544 62.952 81.1544 62.664 81.6664 62.472C82.189 62.2693 82.797 62.168 83.4904 62.168H85.6344C85.6344 61.6667 85.5544 61.2507 85.3944 60.92C85.245 60.5893 85.021 60.3387 84.7224 60.168C84.4237 59.9973 84.061 59.912 83.6344 59.912C83.1224 59.912 82.6797 60.04 82.3064 60.296C81.933 60.552 81.7037 60.9307 81.6184 61.432H80.2424C80.3064 60.856 80.4984 60.376 80.8184 59.992C81.149 59.5973 81.565 59.2987 82.0664 59.096C82.5677 58.8827 83.0904 58.776 83.6344 58.776C84.381 58.776 84.9997 58.9147 85.4904 59.192C85.981 59.4587 86.349 59.8373 86.5944 60.328C86.8504 60.808 86.9784 61.3733 86.9784 62.024V67H85.7784L85.6984 65.576C85.5917 65.8 85.453 66.0133 85.2824 66.216C85.1224 66.408 84.9304 66.5787 84.7064 66.728C84.493 66.8667 84.2424 66.9787 83.9544 67.064C83.6664 67.1493 83.341 67.192 82.9784 67.192ZM83.1864 66.056C83.5597 66.056 83.8957 65.9813 84.1944 65.832C84.5037 65.672 84.765 65.4587 84.9784 65.192C85.1917 64.9253 85.3517 64.6267 85.4584 64.296C85.5757 63.9547 85.6344 63.608 85.6344 63.256V63.208H83.6024C83.0904 63.208 82.6744 63.272 82.3544 63.4C82.0344 63.5173 81.805 63.688 81.6664 63.912C81.5277 64.1253 81.4584 64.3707 81.4584 64.648C81.4584 64.936 81.5224 65.1867 81.6504 65.4C81.789 65.6027 81.9864 65.7627 82.2424 65.88C82.4984 65.9973 82.813 66.056 83.1864 66.056ZM89.0415 67V58.968H90.2575L90.3535 60.12C90.6095 59.6933 90.9508 59.3627 91.3775 59.128C91.8042 58.8933 92.2788 58.776 92.8015 58.776C93.2175 58.776 93.5962 58.8347 93.9375 58.952C94.2788 59.0587 94.5775 59.2293 94.8335 59.464C95.0895 59.688 95.2975 59.976 95.4575 60.328C95.7348 59.8373 96.1135 59.4587 96.5935 59.192C97.0842 58.9147 97.6068 58.776 98.1615 58.776C98.7802 58.776 99.3188 58.904 99.7775 59.16C100.247 59.4053 100.61 59.784 100.866 60.296C101.122 60.7973 101.25 61.4373 101.25 62.216V67H99.9215V62.36C99.9215 61.5493 99.7562 60.9413 99.4255 60.536C99.0948 60.1307 98.6255 59.928 98.0175 59.928C97.6015 59.928 97.2228 60.04 96.8815 60.264C96.5508 60.4773 96.2895 60.792 96.0975 61.208C95.9162 61.624 95.8255 62.136 95.8255 62.744V67H94.4815V62.36C94.4815 61.5493 94.3162 60.9413 93.9855 60.536C93.6548 60.1307 93.1855 59.928 92.5775 59.928C92.1722 59.928 91.7988 60.04 91.4575 60.264C91.1268 60.4773 90.8655 60.792 90.6735 61.208C90.4815 61.624 90.3855 62.136 90.3855 62.744V67H89.0415ZM106.859 67.192C106.112 67.192 105.446 67.016 104.859 66.664C104.272 66.312 103.808 65.8213 103.467 65.192C103.136 64.5627 102.971 63.8267 102.971 62.984C102.971 62.1307 103.136 61.3947 103.467 60.776C103.798 60.1467 104.256 59.656 104.843 59.304C105.44 58.952 106.123 58.776 106.891 58.776C107.68 58.776 108.352 58.952 108.907 59.304C109.462 59.656 109.883 60.1147 110.171 60.68C110.47 61.2453 110.619 61.8693 110.619 62.552C110.619 62.6587 110.619 62.7707 110.619 62.888C110.619 63.0053 110.614 63.1387 110.603 63.288H103.979V62.248H109.291C109.259 61.512 109.014 60.9413 108.555 60.536C108.107 60.12 107.542 59.912 106.859 59.912C106.411 59.912 105.99 60.0187 105.595 60.232C105.2 60.4347 104.88 60.7333 104.635 61.128C104.4 61.5227 104.283 62.0187 104.283 62.616V63.064C104.283 63.7253 104.406 64.28 104.651 64.728C104.896 65.1653 105.211 65.496 105.595 65.72C105.99 65.944 106.411 66.056 106.859 66.056C107.424 66.056 107.888 65.9333 108.251 65.688C108.624 65.432 108.896 65.0853 109.067 64.648H110.395C110.256 65.1387 110.027 65.576 109.707 65.96C109.387 66.3333 108.987 66.632 108.507 66.856C108.038 67.08 107.488 67.192 106.859 67.192ZM112.881 67.08C112.614 67.08 112.39 66.9947 112.209 66.824C112.038 66.6427 111.953 66.424 111.953 66.168C111.953 65.912 112.038 65.6987 112.209 65.528C112.39 65.3467 112.614 65.256 112.881 65.256C113.148 65.256 113.366 65.3467 113.537 65.528C113.708 65.6987 113.793 65.912 113.793 66.168C113.793 66.424 113.708 66.6427 113.537 66.824C113.366 66.9947 113.148 67.08 112.881 67.08ZM112.881 60.6C112.614 60.6 112.39 60.5147 112.209 60.344C112.038 60.1627 111.953 59.944 111.953 59.688C111.953 59.432 112.038 59.2187 112.209 59.048C112.39 58.8667 112.614 58.776 112.881 58.776C113.148 58.776 113.366 58.8667 113.537 59.048C113.708 59.2187 113.793 59.432 113.793 59.688C113.793 59.944 113.708 60.1627 113.537 60.344C113.366 60.5147 113.148 60.6 112.881 60.6ZM122.254 67L119.182 55.8H120.622L123.038 65.4L125.79 55.8H127.278L129.95 65.432L132.398 55.8H133.838L130.702 67H129.166L126.494 57.736L123.758 67H122.254ZM137.213 67.192C136.562 67.192 136.018 67.08 135.581 66.856C135.143 66.6213 134.818 66.3173 134.605 65.944C134.391 65.56 134.285 65.1493 134.285 64.712C134.285 64.168 134.423 63.7093 134.701 63.336C134.989 62.952 135.389 62.664 135.901 62.472C136.423 62.2693 137.031 62.168 137.725 62.168H139.869C139.869 61.6667 139.789 61.2507 139.629 60.92C139.479 60.5893 139.255 60.3387 138.957 60.168C138.658 59.9973 138.295 59.912 137.869 59.912C137.357 59.912 136.914 60.04 136.541 60.296C136.167 60.552 135.938 60.9307 135.853 61.432H134.477C134.541 60.856 134.733 60.376 135.053 59.992C135.383 59.5973 135.799 59.2987 136.301 59.096C136.802 58.8827 137.325 58.776 137.869 58.776C138.615 58.776 139.234 58.9147 139.725 59.192C140.215 59.4587 140.583 59.8373 140.829 60.328C141.085 60.808 141.213 61.3733 141.213 62.024V67H140.013L139.933 65.576C139.826 65.8 139.687 66.0133 139.517 66.216C139.357 66.408 139.165 66.5787 138.941 66.728C138.727 66.8667 138.477 66.9787 138.189 67.064C137.901 67.1493 137.575 67.192 137.213 67.192ZM137.421 66.056C137.794 66.056 138.13 65.9813 138.429 65.832C138.738 65.672 138.999 65.4587 139.213 65.192C139.426 64.9253 139.586 64.6267 139.693 64.296C139.81 63.9547 139.869 63.608 139.869 63.256V63.208H137.837C137.325 63.208 136.909 63.272 136.589 63.4C136.269 63.5173 136.039 63.688 135.901 63.912C135.762 64.1253 135.693 64.3707 135.693 64.648C135.693 64.936 135.757 65.1867 135.885 65.4C136.023 65.6027 136.221 65.7627 136.477 65.88C136.733 65.9973 137.047 66.056 137.421 66.056ZM143.276 67V58.968H144.492L144.572 60.376C144.828 59.8747 145.191 59.4853 145.66 59.208C146.14 58.92 146.684 58.776 147.292 58.776C147.921 58.776 148.465 58.8987 148.924 59.144C149.383 59.3893 149.74 59.768 149.996 60.28C150.252 60.792 150.38 61.4373 150.38 62.216V67H149.036V62.36C149.036 61.5493 148.86 60.9413 148.508 60.536C148.156 60.1307 147.649 59.928 146.988 59.928C146.54 59.928 146.135 60.04 145.772 60.264C145.42 60.4773 145.137 60.792 144.924 61.208C144.721 61.624 144.62 62.1307 144.62 62.728V67H143.276ZM156.032 67.192C155.253 67.192 154.565 67.0107 153.968 66.648C153.381 66.2747 152.922 65.7733 152.592 65.144C152.272 64.504 152.112 63.7787 152.112 62.968C152.112 62.1573 152.272 61.4373 152.592 60.808C152.922 60.1787 153.381 59.6827 153.968 59.32C154.565 58.9573 155.258 58.776 156.048 58.776C156.698 58.776 157.274 58.9093 157.776 59.176C158.277 59.4427 158.661 59.816 158.928 60.296V55.48H160.272V67H159.056L158.928 65.688C158.757 65.944 158.538 66.1893 158.272 66.424C158.016 66.648 157.701 66.8347 157.328 66.984C156.954 67.1227 156.522 67.192 156.032 67.192ZM156.176 66.024C156.709 66.024 157.178 65.9013 157.584 65.656C158 65.4 158.32 65.0427 158.544 64.584C158.768 64.1253 158.88 63.592 158.88 62.984C158.88 62.376 158.768 61.8427 158.544 61.384C158.32 60.9253 158 60.5733 157.584 60.328C157.178 60.072 156.709 59.944 156.176 59.944C155.664 59.944 155.2 60.072 154.784 60.328C154.378 60.5733 154.058 60.9253 153.824 61.384C153.6 61.8427 153.488 62.376 153.488 62.984C153.488 63.592 153.6 64.1253 153.824 64.584C154.058 65.0427 154.378 65.4 154.784 65.656C155.2 65.9013 155.664 66.024 156.176 66.024ZM166.031 67.192C165.284 67.192 164.618 67.016 164.031 66.664C163.444 66.312 162.98 65.8213 162.639 65.192C162.308 64.5627 162.143 63.8267 162.143 62.984C162.143 62.1307 162.308 61.3947 162.639 60.776C162.97 60.1467 163.428 59.656 164.015 59.304C164.612 58.952 165.295 58.776 166.063 58.776C166.852 58.776 167.524 58.952 168.079 59.304C168.634 59.656 169.055 60.1147 169.343 60.68C169.642 61.2453 169.791 61.8693 169.791 62.552C169.791 62.6587 169.791 62.7707 169.791 62.888C169.791 63.0053 169.786 63.1387 169.775 63.288H163.151V62.248H168.463C168.431 61.512 168.186 60.9413 167.727 60.536C167.279 60.12 166.714 59.912 166.031 59.912C165.583 59.912 165.162 60.0187 164.767 60.232C164.372 60.4347 164.052 60.7333 163.807 61.128C163.572 61.5227 163.455 62.0187 163.455 62.616V63.064C163.455 63.7253 163.578 64.28 163.823 64.728C164.068 65.1653 164.383 65.496 164.767 65.72C165.162 65.944 165.583 66.056 166.031 66.056C166.596 66.056 167.06 65.9333 167.423 65.688C167.796 65.432 168.068 65.0853 168.239 64.648H169.567C169.428 65.1387 169.199 65.576 168.879 65.96C168.559 66.3333 168.159 66.632 167.679 66.856C167.21 67.08 166.66 67.192 166.031 67.192ZM171.573 67V58.968H172.789L172.901 60.504C173.082 60.1413 173.311 59.832 173.589 59.576C173.877 59.32 174.218 59.1227 174.613 58.984C175.007 58.8453 175.455 58.776 175.957 58.776V60.184H175.493C175.151 60.184 174.826 60.232 174.517 60.328C174.207 60.4133 173.93 60.5573 173.685 60.76C173.45 60.952 173.263 61.224 173.125 61.576C172.986 61.928 172.917 62.36 172.917 62.872V67H171.573ZM179.847 67L176.775 55.8H178.215L180.631 65.4L183.383 55.8H184.871L187.543 65.432L189.991 55.8H191.431L188.295 67H186.759L184.087 57.736L181.351 67H179.847ZM195.751 67.192C195.005 67.192 194.333 67.0213 193.735 66.68C193.138 66.328 192.663 65.8373 192.311 65.208C191.97 64.5787 191.799 63.8373 191.799 62.984C191.799 62.1307 191.975 61.3893 192.327 60.76C192.679 60.1307 193.154 59.6453 193.751 59.304C194.359 58.952 195.037 58.776 195.783 58.776C196.541 58.776 197.218 58.952 197.815 59.304C198.413 59.6453 198.882 60.1307 199.223 60.76C199.565 61.3893 199.735 62.1307 199.735 62.984C199.735 63.8373 199.559 64.5787 199.207 65.208C198.866 65.8373 198.391 66.328 197.783 66.68C197.186 67.0213 196.509 67.192 195.751 67.192ZM195.751 66.04C196.221 66.04 196.653 65.928 197.047 65.704C197.442 65.4693 197.757 65.128 197.991 64.68C198.237 64.2213 198.359 63.656 198.359 62.984C198.359 62.3013 198.242 61.736 198.007 61.288C197.773 60.84 197.458 60.504 197.063 60.28C196.669 60.0453 196.242 59.928 195.783 59.928C195.335 59.928 194.909 60.0453 194.503 60.28C194.109 60.504 193.789 60.84 193.543 61.288C193.298 61.736 193.175 62.3013 193.175 62.984C193.175 63.656 193.298 64.2213 193.543 64.68C193.789 65.128 194.103 65.4693 194.487 65.704C194.882 65.928 195.303 66.04 195.751 66.04ZM201.62 67V58.968H202.836L202.948 60.504C203.129 60.1413 203.358 59.832 203.636 59.576C203.924 59.32 204.265 59.1227 204.66 58.984C205.054 58.8453 205.502 58.776 206.004 58.776V60.184H205.54C205.198 60.184 204.873 60.232 204.564 60.328C204.254 60.4133 203.977 60.5573 203.732 60.76C203.497 60.952 203.31 61.224 203.172 61.576C203.033 61.928 202.964 62.36 202.964 62.872V67H201.62ZM212.486 67L208.63 62.6L212.134 58.968H213.782L209.766 63.08L209.782 62.12L214.198 67H212.486ZM207.51 67V55.48H208.854V67H207.51ZM218.144 67.192C217.493 67.192 216.917 67.0853 216.416 66.872C215.915 66.648 215.515 66.3333 215.216 65.928C214.928 65.5227 214.747 65.048 214.672 64.504H216.048C216.112 64.7813 216.229 65.0427 216.4 65.288C216.571 65.5227 216.8 65.7093 217.088 65.848C217.387 65.9867 217.744 66.056 218.16 66.056C218.544 66.056 218.859 66.0027 219.104 65.896C219.349 65.7787 219.531 65.624 219.648 65.432C219.765 65.24 219.824 65.032 219.824 64.808C219.824 64.488 219.744 64.2427 219.584 64.072C219.435 63.9013 219.211 63.768 218.912 63.672C218.613 63.5653 218.256 63.4747 217.84 63.4C217.488 63.336 217.141 63.2507 216.8 63.144C216.469 63.0373 216.171 62.8987 215.904 62.728C215.637 62.5573 215.424 62.344 215.264 62.088C215.104 61.8213 215.024 61.5067 215.024 61.144C215.024 60.6853 215.141 60.28 215.376 59.928C215.621 59.5653 215.957 59.2827 216.384 59.08C216.821 58.8773 217.339 58.776 217.936 58.776C218.789 58.776 219.483 58.984 220.016 59.4C220.56 59.816 220.875 60.4187 220.96 61.208H219.632C219.589 60.8027 219.419 60.488 219.12 60.264C218.821 60.0293 218.421 59.912 217.92 59.912C217.419 59.912 217.035 60.0133 216.768 60.216C216.512 60.4187 216.384 60.6853 216.384 61.016C216.384 61.2293 216.453 61.416 216.592 61.576C216.741 61.736 216.96 61.8747 217.248 61.992C217.536 62.0987 217.883 62.1947 218.288 62.28C218.811 62.376 219.291 62.504 219.728 62.664C220.165 62.824 220.517 63.0587 220.784 63.368C221.061 63.6773 221.2 64.12 221.2 64.696C221.211 65.1973 221.088 65.6347 220.832 66.008C220.587 66.3813 220.235 66.6747 219.776 66.888C219.317 67.0907 218.773 67.192 218.144 67.192ZM21.7 87V75.8H23.044V87H21.7ZM25.3384 87V78.968H26.5544L26.6344 80.376C26.8904 79.8747 27.253 79.4853 27.7224 79.208C28.2024 78.92 28.7464 78.776 29.3544 78.776C29.9837 78.776 30.5277 78.8987 30.9864 79.144C31.445 79.3893 31.8024 79.768 32.0584 80.28C32.3144 80.792 32.4424 81.4373 32.4424 82.216V87H31.0984V82.36C31.0984 81.5493 30.9224 80.9413 30.5704 80.536C30.2184 80.1307 29.7117 79.928 29.0504 79.928C28.6024 79.928 28.197 80.04 27.8344 80.264C27.4824 80.4773 27.1997 80.792 26.9864 81.208C26.7837 81.624 26.6824 82.1307 26.6824 82.728V87H25.3384ZM38.0943 87.192C37.3156 87.192 36.6276 87.0107 36.0303 86.648C35.4436 86.2747 34.9849 85.7733 34.6543 85.144C34.3343 84.504 34.1743 83.7787 34.1743 82.968C34.1743 82.1573 34.3343 81.4373 34.6543 80.808C34.9849 80.1787 35.4436 79.6827 36.0303 79.32C36.6276 78.9573 37.3209 78.776 38.1102 78.776C38.7609 78.776 39.3369 78.9093 39.8383 79.176C40.3396 79.4427 40.7236 79.816 40.9903 80.296V75.48H42.3343V87H41.1183L40.9903 85.688C40.8196 85.944 40.6009 86.1893 40.3343 86.424C40.0783 86.648 39.7636 86.8347 39.3903 86.984C39.0169 87.1227 38.5849 87.192 38.0943 87.192ZM38.2383 86.024C38.7716 86.024 39.2409 85.9013 39.6463 85.656C40.0623 85.4 40.3823 85.0427 40.6063 84.584C40.8303 84.1253 40.9423 83.592 40.9423 82.984C40.9423 82.376 40.8303 81.8427 40.6063 81.384C40.3823 80.9253 40.0623 80.5733 39.6463 80.328C39.2409 80.072 38.7716 79.944 38.2383 79.944C37.7263 79.944 37.2623 80.072 36.8463 80.328C36.4409 80.5733 36.1209 80.9253 35.8863 81.384C35.6623 81.8427 35.5503 82.376 35.5503 82.984C35.5503 83.592 35.6623 84.1253 35.8863 84.584C36.1209 85.0427 36.4409 85.4 36.8463 85.656C37.2623 85.9013 37.7263 86.024 38.2383 86.024ZM47.4695 87.192C46.8508 87.192 46.3068 87.0693 45.8375 86.824C45.3788 86.5787 45.0215 86.2 44.7655 85.688C44.5202 85.176 44.3975 84.5307 44.3975 83.752V78.968H45.7415V83.608C45.7415 84.4187 45.9175 85.0267 46.2695 85.432C46.6215 85.8373 47.1228 86.04 47.7735 86.04C48.2215 86.04 48.6268 85.9333 48.9895 85.72C49.3522 85.496 49.6348 85.176 49.8375 84.76C50.0508 84.344 50.1575 83.8373 50.1575 83.24V78.968H51.5015V87H50.2855L50.2055 85.592C49.9495 86.0933 49.5815 86.488 49.1015 86.776C48.6215 87.0533 48.0775 87.192 47.4695 87.192ZM56.7534 87.192C56.1027 87.192 55.5267 87.0853 55.0254 86.872C54.524 86.648 54.124 86.3333 53.8254 85.928C53.5374 85.5227 53.356 85.048 53.2814 84.504H54.6574C54.7214 84.7813 54.8387 85.0427 55.0094 85.288C55.18 85.5227 55.4094 85.7093 55.6974 85.848C55.996 85.9867 56.3534 86.056 56.7694 86.056C57.1534 86.056 57.468 86.0027 57.7134 85.896C57.9587 85.7787 58.14 85.624 58.2574 85.432C58.3747 85.24 58.4334 85.032 58.4334 84.808C58.4334 84.488 58.3534 84.2427 58.1934 84.072C58.044 83.9013 57.82 83.768 57.5214 83.672C57.2227 83.5653 56.8654 83.4747 56.4494 83.4C56.0974 83.336 55.7507 83.2507 55.4094 83.144C55.0787 83.0373 54.78 82.8987 54.5134 82.728C54.2467 82.5573 54.0334 82.344 53.8734 82.088C53.7134 81.8213 53.6334 81.5067 53.6334 81.144C53.6334 80.6853 53.7507 80.28 53.9854 79.928C54.2307 79.5653 54.5667 79.2827 54.9934 79.08C55.4307 78.8773 55.948 78.776 56.5454 78.776C57.3987 78.776 58.092 78.984 58.6254 79.4C59.1694 79.816 59.484 80.4187 59.5694 81.208H58.2414C58.1987 80.8027 58.028 80.488 57.7294 80.264C57.4307 80.0293 57.0307 79.912 56.5294 79.912C56.028 79.912 55.644 80.0133 55.3774 80.216C55.1214 80.4187 54.9934 80.6853 54.9934 81.016C54.9934 81.2293 55.0627 81.416 55.2014 81.576C55.3507 81.736 55.5694 81.8747 55.8574 81.992C56.1454 82.0987 56.492 82.1947 56.8974 82.28C57.42 82.376 57.9 82.504 58.3374 82.664C58.7747 82.824 59.1267 83.0587 59.3934 83.368C59.6707 83.6773 59.8094 84.12 59.8094 84.696C59.82 85.1973 59.6974 85.6347 59.4414 86.008C59.196 86.3813 58.844 86.6747 58.3854 86.888C57.9267 87.0907 57.3827 87.192 56.7534 87.192ZM64.5533 87C64.0733 87 63.6573 86.9253 63.3053 86.776C62.9533 86.6267 62.6813 86.376 62.4893 86.024C62.3079 85.6613 62.2173 85.176 62.2173 84.568V80.104H60.8253V78.968H62.2173L62.3932 77.032H63.5613V78.968H65.9133V80.104H63.5613V84.568C63.5613 85.0693 63.6626 85.4107 63.8653 85.592C64.0679 85.7627 64.4253 85.848 64.9373 85.848H65.8013V87H64.5533ZM67.6353 87V78.968H68.8513L68.9633 80.504C69.1446 80.1413 69.3739 79.832 69.6513 79.576C69.9393 79.32 70.2806 79.1227 70.6753 78.984C71.0699 78.8453 71.5179 78.776 72.0193 78.776V80.184H71.5553C71.2139 80.184 70.8886 80.232 70.5793 80.328C70.2699 80.4133 69.9926 80.5573 69.7473 80.76C69.5126 80.952 69.3259 81.224 69.1873 81.576C69.0486 81.928 68.9793 82.36 68.9793 82.872V87H67.6353ZM74.4059 90.52L76.3739 86.104H75.9099L72.7579 78.968H74.2139L76.8379 85.096L79.6059 78.968H80.9979L75.8139 90.52H74.4059ZM82.8965 87.08C82.6298 87.08 82.4058 86.9947 82.2245 86.824C82.0538 86.6427 81.9685 86.424 81.9685 86.168C81.9685 85.912 82.0538 85.6987 82.2245 85.528C82.4058 85.3467 82.6298 85.256 82.8965 85.256C83.1632 85.256 83.3818 85.3467 83.5525 85.528C83.7232 85.6987 83.8085 85.912 83.8085 86.168C83.8085 86.424 83.7232 86.6427 83.5525 86.824C83.3818 86.9947 83.1632 87.08 82.8965 87.08ZM82.8965 80.6C82.6298 80.6 82.4058 80.5147 82.2245 80.344C82.0538 80.1627 81.9685 79.944 81.9685 79.688C81.9685 79.432 82.0538 79.2187 82.2245 79.048C82.4058 78.8667 82.6298 78.776 82.8965 78.776C83.1632 78.776 83.3818 78.8667 83.5525 79.048C83.7232 79.2187 83.8085 79.432 83.8085 79.688C83.8085 79.944 83.7232 80.1627 83.5525 80.344C83.3818 80.5147 83.1632 80.6 82.8965 80.6ZM89.9813 87V75.8H96.9093V76.904H91.3253V80.808H96.4293V81.896H91.3253V85.896H96.9093V87H89.9813ZM102.58 87.192C101.823 87.192 101.14 87.016 100.532 86.664C99.9348 86.312 99.4601 85.8213 99.1081 85.192C98.7668 84.5627 98.5961 83.8267 98.5961 82.984C98.5961 82.1413 98.7668 81.4053 99.1081 80.776C99.4601 80.1467 99.9348 79.656 100.532 79.304C101.14 78.952 101.823 78.776 102.58 78.776C103.54 78.776 104.34 79.0267 104.98 79.528C105.62 80.0187 106.025 80.68 106.196 81.512H104.82C104.713 81.0107 104.452 80.6213 104.036 80.344C103.62 80.0667 103.129 79.928 102.564 79.928C102.105 79.928 101.679 80.0453 101.284 80.28C100.9 80.504 100.585 80.8453 100.34 81.304C100.095 81.752 99.9721 82.312 99.9721 82.984C99.9721 83.4853 100.041 83.928 100.18 84.312C100.329 84.696 100.521 85.0213 100.756 85.288C100.991 85.544 101.263 85.736 101.572 85.864C101.892 85.992 102.223 86.056 102.564 86.056C102.948 86.056 103.295 85.9973 103.604 85.88C103.913 85.752 104.175 85.5707 104.388 85.336C104.601 85.0907 104.745 84.7973 104.82 84.456H106.196C106.025 85.2773 105.615 85.9387 104.964 86.44C104.324 86.9413 103.529 87.192 102.58 87.192ZM111.689 87.192C110.942 87.192 110.27 87.0213 109.673 86.68C109.075 86.328 108.601 85.8373 108.249 85.208C107.907 84.5787 107.737 83.8373 107.737 82.984C107.737 82.1307 107.913 81.3893 108.265 80.76C108.617 80.1307 109.091 79.6453 109.689 79.304C110.297 78.952 110.974 78.776 111.721 78.776C112.478 78.776 113.155 78.952 113.753 79.304C114.35 79.6453 114.819 80.1307 115.161 80.76C115.502 81.3893 115.673 82.1307 115.673 82.984C115.673 83.8373 115.497 84.5787 115.145 85.208C114.803 85.8373 114.329 86.328 113.721 86.68C113.123 87.0213 112.446 87.192 111.689 87.192ZM111.689 86.04C112.158 86.04 112.59 85.928 112.985 85.704C113.379 85.4693 113.694 85.128 113.929 84.68C114.174 84.2213 114.297 83.656 114.297 82.984C114.297 82.3013 114.179 81.736 113.945 81.288C113.71 80.84 113.395 80.504 113.001 80.28C112.606 80.0453 112.179 79.928 111.721 79.928C111.273 79.928 110.846 80.0453 110.441 80.28C110.046 80.504 109.726 80.84 109.481 81.288C109.235 81.736 109.113 82.3013 109.113 82.984C109.113 83.656 109.235 84.2213 109.481 84.68C109.726 85.128 110.041 85.4693 110.425 85.704C110.819 85.928 111.241 86.04 111.689 86.04ZM117.621 82.856V81.72H123.957V82.856H117.621ZM126.309 87V75.8H133.125V76.904H127.653V80.84H132.309V81.928H127.653V87H126.309ZM134.776 87V78.968H135.992L136.104 80.504C136.285 80.1413 136.515 79.832 136.792 79.576C137.08 79.32 137.421 79.1227 137.816 78.984C138.211 78.8453 138.659 78.776 139.16 78.776V80.184H138.696C138.355 80.184 138.029 80.232 137.72 80.328C137.411 80.4133 137.133 80.5573 136.888 80.76C136.653 80.952 136.467 81.224 136.328 81.576C136.189 81.928 136.12 82.36 136.12 82.872V87H134.776ZM140.811 87V78.968H142.155V87H140.811ZM141.483 77.24C141.216 77.24 140.992 77.1547 140.811 76.984C140.64 76.8027 140.555 76.5787 140.555 76.312C140.555 76.0453 140.64 75.832 140.811 75.672C140.992 75.5013 141.216 75.416 141.483 75.416C141.739 75.416 141.957 75.5013 142.139 75.672C142.32 75.832 142.411 76.0453 142.411 76.312C142.411 76.5787 142.32 76.8027 142.139 76.984C141.957 77.1547 141.739 77.24 141.483 77.24ZM148.047 87.192C147.3 87.192 146.633 87.016 146.047 86.664C145.46 86.312 144.996 85.8213 144.655 85.192C144.324 84.5627 144.159 83.8267 144.159 82.984C144.159 82.1307 144.324 81.3947 144.655 80.776C144.985 80.1467 145.444 79.656 146.031 79.304C146.628 78.952 147.311 78.776 148.079 78.776C148.868 78.776 149.54 78.952 150.095 79.304C150.649 79.656 151.071 80.1147 151.359 80.68C151.657 81.2453 151.807 81.8693 151.807 82.552C151.807 82.6587 151.807 82.7707 151.807 82.888C151.807 83.0053 151.801 83.1387 151.791 83.288H145.167V82.248H150.479C150.447 81.512 150.201 80.9413 149.743 80.536C149.295 80.12 148.729 79.912 148.047 79.912C147.599 79.912 147.177 80.0187 146.783 80.232C146.388 80.4347 146.068 80.7333 145.823 81.128C145.588 81.5227 145.471 82.0187 145.471 82.616V83.064C145.471 83.7253 145.593 84.28 145.839 84.728C146.084 85.1653 146.399 85.496 146.783 85.72C147.177 85.944 147.599 86.056 148.047 86.056C148.612 86.056 149.076 85.9333 149.439 85.688C149.812 85.432 150.084 85.0853 150.255 84.648H151.583C151.444 85.1387 151.215 85.576 150.895 85.96C150.575 86.3333 150.175 86.632 149.695 86.856C149.225 87.08 148.676 87.192 148.047 87.192ZM153.588 87V78.968H154.804L154.884 80.376C155.14 79.8747 155.503 79.4853 155.972 79.208C156.452 78.92 156.996 78.776 157.604 78.776C158.234 78.776 158.778 78.8987 159.236 79.144C159.695 79.3893 160.052 79.768 160.308 80.28C160.564 80.792 160.692 81.4373 160.692 82.216V87H159.348V82.36C159.348 81.5493 159.172 80.9413 158.82 80.536C158.468 80.1307 157.962 79.928 157.3 79.928C156.852 79.928 156.447 80.04 156.084 80.264C155.732 80.4773 155.45 80.792 155.236 81.208C155.034 81.624 154.932 82.1307 154.932 82.728V87H153.588ZM166.344 87.192C165.566 87.192 164.878 87.0107 164.28 86.648C163.694 86.2747 163.235 85.7733 162.904 85.144C162.584 84.504 162.424 83.7787 162.424 82.968C162.424 82.1573 162.584 81.4373 162.904 80.808C163.235 80.1787 163.694 79.6827 164.28 79.32C164.878 78.9573 165.571 78.776 166.36 78.776C167.011 78.776 167.587 78.9093 168.088 79.176C168.59 79.4427 168.974 79.816 169.24 80.296V75.48H170.584V87H169.368L169.24 85.688C169.07 85.944 168.851 86.1893 168.584 86.424C168.328 86.648 168.014 86.8347 167.64 86.984C167.267 87.1227 166.835 87.192 166.344 87.192ZM166.488 86.024C167.022 86.024 167.491 85.9013 167.896 85.656C168.312 85.4 168.632 85.0427 168.856 84.584C169.08 84.1253 169.192 83.592 169.192 82.984C169.192 82.376 169.08 81.8427 168.856 81.384C168.632 80.9253 168.312 80.5733 167.896 80.328C167.491 80.072 167.022 79.944 166.488 79.944C165.976 79.944 165.512 80.072 165.096 80.328C164.691 80.5733 164.371 80.9253 164.136 81.384C163.912 81.8427 163.8 82.376 163.8 82.984C163.8 83.592 163.912 84.1253 164.136 84.584C164.371 85.0427 164.691 85.4 165.096 85.656C165.512 85.9013 165.976 86.024 166.488 86.024ZM172.792 87V75.48H174.136V87H172.792ZM177.234 90.52L179.202 86.104H178.738L175.586 78.968H177.042L179.666 85.096L182.434 78.968H183.826L178.642 90.52H177.234ZM192.199 87V76.904H188.855V75.8H196.887V76.904H193.543V87H192.199ZM197.557 87V78.968H198.773L198.885 80.504C199.066 80.1413 199.296 79.832 199.573 79.576C199.861 79.32 200.202 79.1227 200.597 78.984C200.992 78.8453 201.44 78.776 201.941 78.776V80.184H201.477C201.136 80.184 200.81 80.232 200.501 80.328C200.192 80.4133 199.914 80.5573 199.669 80.76C199.434 80.952 199.248 81.224 199.109 81.576C198.97 81.928 198.901 82.36 198.901 82.872V87H197.557ZM206.088 87.192C205.437 87.192 204.893 87.08 204.456 86.856C204.018 86.6213 203.693 86.3173 203.48 85.944C203.266 85.56 203.16 85.1493 203.16 84.712C203.16 84.168 203.298 83.7093 203.576 83.336C203.864 82.952 204.264 82.664 204.776 82.472C205.298 82.2693 205.906 82.168 206.6 82.168H208.744C208.744 81.6667 208.664 81.2507 208.504 80.92C208.354 80.5893 208.13 80.3387 207.832 80.168C207.533 79.9973 207.17 79.912 206.744 79.912C206.232 79.912 205.789 80.04 205.416 80.296C205.042 80.552 204.813 80.9307 204.728 81.432H203.352C203.416 80.856 203.608 80.376 203.928 79.992C204.258 79.5973 204.674 79.2987 205.176 79.096C205.677 78.8827 206.2 78.776 206.744 78.776C207.49 78.776 208.109 78.9147 208.6 79.192C209.09 79.4587 209.458 79.8373 209.704 80.328C209.96 80.808 210.088 81.3733 210.088 82.024V87H208.888L208.808 85.576C208.701 85.8 208.562 86.0133 208.392 86.216C208.232 86.408 208.04 86.5787 207.816 86.728C207.602 86.8667 207.352 86.9787 207.064 87.064C206.776 87.1493 206.45 87.192 206.088 87.192ZM206.296 86.056C206.669 86.056 207.005 85.9813 207.304 85.832C207.613 85.672 207.874 85.4587 208.088 85.192C208.301 84.9253 208.461 84.6267 208.568 84.296C208.685 83.9547 208.744 83.608 208.744 83.256V83.208H206.712C206.2 83.208 205.784 83.272 205.464 83.4C205.144 83.5173 204.914 83.688 204.776 83.912C204.637 84.1253 204.568 84.3707 204.568 84.648C204.568 84.936 204.632 85.1867 204.76 85.4C204.898 85.6027 205.096 85.7627 205.352 85.88C205.608 85.9973 205.922 86.056 206.296 86.056ZM214.174 87L211.134 78.968H212.542L214.958 85.704L217.406 78.968H218.782L215.726 87H214.174ZM223.422 87.192C222.675 87.192 222.008 87.016 221.422 86.664C220.835 86.312 220.371 85.8213 220.03 85.192C219.699 84.5627 219.534 83.8267 219.534 82.984C219.534 82.1307 219.699 81.3947 220.03 80.776C220.36 80.1467 220.819 79.656 221.406 79.304C222.003 78.952 222.686 78.776 223.454 78.776C224.243 78.776 224.915 78.952 225.47 79.304C226.024 79.656 226.446 80.1147 226.734 80.68C227.032 81.2453 227.182 81.8693 227.182 82.552C227.182 82.6587 227.182 82.7707 227.182 82.888C227.182 83.0053 227.176 83.1387 227.166 83.288H220.542V82.248H225.854C225.822 81.512 225.576 80.9413 225.118 80.536C224.67 80.12 224.104 79.912 223.422 79.912C222.974 79.912 222.552 80.0187 222.158 80.232C221.763 80.4347 221.443 80.7333 221.198 81.128C220.963 81.5227 220.846 82.0187 220.846 82.616V83.064C220.846 83.7253 220.968 84.28 221.214 84.728C221.459 85.1653 221.774 85.496 222.158 85.72C222.552 85.944 222.974 86.056 223.422 86.056C223.987 86.056 224.451 85.9333 224.814 85.688C225.187 85.432 225.459 85.0853 225.63 84.648H226.958C226.819 85.1387 226.59 85.576 226.27 85.96C225.95 86.3333 225.55 86.632 225.07 86.856C224.6 87.08 224.051 87.192 223.422 87.192ZM228.963 87V75.48H230.307V87H228.963ZM236.152 87L240.28 75.8H241.704L245.816 87H244.392L240.984 77.48L237.56 87H236.152ZM238.04 84.12L238.424 83.032H243.496L243.88 84.12H238.04ZM250.585 90.712C249.86 90.712 249.22 90.616 248.665 90.424C248.11 90.2427 247.678 89.96 247.369 89.576C247.06 89.192 246.905 88.7173 246.905 88.152C246.905 87.9067 246.953 87.6453 247.049 87.368C247.156 87.1013 247.332 86.8347 247.577 86.568C247.833 86.3013 248.19 86.0613 248.649 85.848L249.561 86.392C249.006 86.6267 248.644 86.8933 248.473 87.192C248.302 87.4907 248.217 87.768 248.217 88.024C248.217 88.376 248.318 88.6693 248.521 88.904C248.724 89.1387 249.001 89.3147 249.353 89.432C249.716 89.5493 250.126 89.608 250.585 89.608C251.044 89.608 251.438 89.5387 251.769 89.4C252.1 89.272 252.356 89.0907 252.537 88.856C252.718 88.632 252.809 88.36 252.809 88.04C252.809 87.6773 252.67 87.368 252.393 87.112C252.116 86.8667 251.593 86.7227 250.825 86.68C250.185 86.6373 249.652 86.5787 249.225 86.504C248.809 86.4293 248.462 86.344 248.185 86.248C247.908 86.1413 247.673 86.024 247.481 85.896C247.3 85.768 247.134 85.6347 246.985 85.496V85.128L248.537 83.576L249.705 83.992L248.105 85.448L248.313 84.888C248.43 84.9733 248.542 85.0533 248.649 85.128C248.756 85.192 248.9 85.2507 249.081 85.304C249.262 85.3573 249.513 85.4107 249.833 85.464C250.153 85.5067 250.585 85.5493 251.129 85.592C251.854 85.6453 252.436 85.7733 252.873 85.976C253.321 86.1787 253.641 86.4507 253.833 86.792C254.036 87.1333 254.137 87.5333 254.137 87.992C254.137 88.4507 254.009 88.8827 253.753 89.288C253.508 89.704 253.124 90.0453 252.601 90.312C252.078 90.5787 251.406 90.712 250.585 90.712ZM250.569 84.472C249.897 84.472 249.326 84.3493 248.857 84.104C248.388 83.848 248.03 83.5067 247.785 83.08C247.54 82.6427 247.417 82.1573 247.417 81.624C247.417 81.0907 247.54 80.6107 247.785 80.184C248.03 79.7573 248.388 79.416 248.857 79.16C249.326 78.904 249.897 78.776 250.569 78.776C251.252 78.776 251.828 78.904 252.297 79.16C252.766 79.416 253.124 79.7573 253.369 80.184C253.614 80.6107 253.737 81.0907 253.737 81.624C253.737 82.1573 253.614 82.6427 253.369 83.08C253.124 83.5067 252.766 83.848 252.297 84.104C251.828 84.3493 251.252 84.472 250.569 84.472ZM250.569 83.368C251.145 83.368 251.598 83.224 251.929 82.936C252.27 82.6373 252.441 82.2 252.441 81.624C252.441 81.0693 252.27 80.6427 251.929 80.344C251.598 80.0453 251.145 79.896 250.569 79.896C250.004 79.896 249.55 80.0453 249.209 80.344C248.868 80.6427 248.697 81.0693 248.697 81.624C248.697 82.2 248.868 82.6373 249.209 82.936C249.55 83.224 250.004 83.368 250.569 83.368ZM251.881 80.104L251.481 78.968H254.777V79.976L251.881 80.104ZM259.547 87.192C258.8 87.192 258.133 87.016 257.547 86.664C256.96 86.312 256.496 85.8213 256.155 85.192C255.824 84.5627 255.659 83.8267 255.659 82.984C255.659 82.1307 255.824 81.3947 256.155 80.776C256.485 80.1467 256.944 79.656 257.531 79.304C258.128 78.952 258.811 78.776 259.579 78.776C260.368 78.776 261.04 78.952 261.595 79.304C262.149 79.656 262.571 80.1147 262.859 80.68C263.157 81.2453 263.307 81.8693 263.307 82.552C263.307 82.6587 263.307 82.7707 263.307 82.888C263.307 83.0053 263.301 83.1387 263.291 83.288H256.667V82.248H261.979C261.947 81.512 261.701 80.9413 261.243 80.536C260.795 80.12 260.229 79.912 259.547 79.912C259.099 79.912 258.677 80.0187 258.283 80.232C257.888 80.4347 257.568 80.7333 257.323 81.128C257.088 81.5227 256.971 82.0187 256.971 82.616V83.064C256.971 83.7253 257.093 84.28 257.339 84.728C257.584 85.1653 257.899 85.496 258.283 85.72C258.677 85.944 259.099 86.056 259.547 86.056C260.112 86.056 260.576 85.9333 260.939 85.688C261.312 85.432 261.584 85.0853 261.755 84.648H263.083C262.944 85.1387 262.715 85.576 262.395 85.96C262.075 86.3333 261.675 86.632 261.195 86.856C260.725 87.08 260.176 87.192 259.547 87.192ZM265.088 87V78.968H266.304L266.384 80.376C266.64 79.8747 267.003 79.4853 267.472 79.208C267.952 78.92 268.496 78.776 269.104 78.776C269.734 78.776 270.278 78.8987 270.736 79.144C271.195 79.3893 271.552 79.768 271.808 80.28C272.064 80.792 272.192 81.4373 272.192 82.216V87H270.848V82.36C270.848 81.5493 270.672 80.9413 270.32 80.536C269.968 80.1307 269.462 79.928 268.8 79.928C268.352 79.928 267.947 80.04 267.584 80.264C267.232 80.4773 266.95 80.792 266.736 81.208C266.534 81.624 266.432 82.1307 266.432 82.728V87H265.088ZM277.908 87.192C277.151 87.192 276.468 87.016 275.86 86.664C275.263 86.312 274.788 85.8213 274.436 85.192C274.095 84.5627 273.924 83.8267 273.924 82.984C273.924 82.1413 274.095 81.4053 274.436 80.776C274.788 80.1467 275.263 79.656 275.86 79.304C276.468 78.952 277.151 78.776 277.908 78.776C278.868 78.776 279.668 79.0267 280.308 79.528C280.948 80.0187 281.354 80.68 281.524 81.512H280.148C280.042 81.0107 279.78 80.6213 279.364 80.344C278.948 80.0667 278.458 79.928 277.892 79.928C277.434 79.928 277.007 80.0453 276.612 80.28C276.228 80.504 275.914 80.8453 275.668 81.304C275.423 81.752 275.3 82.312 275.3 82.984C275.3 83.4853 275.37 83.928 275.508 84.312C275.658 84.696 275.85 85.0213 276.084 85.288C276.319 85.544 276.591 85.736 276.9 85.864C277.22 85.992 277.551 86.056 277.892 86.056C278.276 86.056 278.623 85.9973 278.932 85.88C279.242 85.752 279.503 85.5707 279.716 85.336C279.93 85.0907 280.074 84.7973 280.148 84.456H281.524C281.354 85.2773 280.943 85.9387 280.292 86.44C279.652 86.9413 278.858 87.192 277.908 87.192ZM284.281 90.52L286.249 86.104H285.785L282.633 78.968H284.089L286.713 85.096L289.481 78.968H290.873L285.689 90.52H284.281Z" fill="#141414"/>
</g>
<defs>
<filter id="filter0_d_1412_9885" x="0.5" y="0" width="369" height="116" filterUnits="userSpaceOnUse" color-interpolation-filters="sRGB">
<feFlood flood-opacity="0" result="BackgroundImageFix"/>
<feColorMatrix in="SourceAlpha" type="matrix" values="0 0 0 0 0 0 0 0 0 0 0 0 0 0 0 0 0 0 127 0" result="hardAlpha"/>
<feOffset dy="4"/>
<feGaussianBlur stdDeviation="2"/>
<feComposite in2="hardAlpha" operator="out"/>
<feColorMatrix type="matrix" values="0 0 0 0 0 0 0 0 0 0 0 0 0 0 0 0 0 0 0.25 0"/>
<feBlend mode="normal" in2="BackgroundImageFix" result="effect1_dropShadow_1412_9885"/>
<feBlend mode="normal" in="SourceGraphic" in2="effect1_dropShadow_1412_9885" result="shape"/>
</filter>
</defs>
</svg>
