<svg width="436" height="166" viewBox="0 0 436 166" fill="none" xmlns="http://www.w3.org/2000/svg">
<path d="M108.562 45.0527C108.562 46.3223 108.254 47.4258 107.639 48.3633C107.023 49.3008 106.125 50.0234 104.943 50.5312C103.771 51.0391 102.346 51.293 100.666 51.293C99.9238 51.293 99.1963 51.2441 98.4834 51.1465C97.7803 51.0488 97.1016 50.9072 96.4473 50.7217C95.8027 50.5264 95.1875 50.2871 94.6016 50.0039V45.7852C95.6172 46.2344 96.6719 46.6396 97.7656 47.001C98.8594 47.3623 99.9434 47.543 101.018 47.543C101.76 47.543 102.355 47.4453 102.805 47.25C103.264 47.0547 103.596 46.7861 103.801 46.4443C104.006 46.1025 104.108 45.7119 104.108 45.2725C104.108 44.7354 103.928 44.2764 103.566 43.8955C103.205 43.5146 102.707 43.1582 102.072 42.8262C101.447 42.4941 100.739 42.1377 99.9482 41.7568C99.4502 41.5225 98.9082 41.2393 98.3223 40.9072C97.7363 40.5654 97.1797 40.1504 96.6523 39.6621C96.125 39.1738 95.6904 38.583 95.3486 37.8896C95.0166 37.1865 94.8506 36.3467 94.8506 35.3701C94.8506 34.0908 95.1436 32.9971 95.7295 32.0889C96.3154 31.1807 97.1504 30.4873 98.2344 30.0088C99.3281 29.5205 100.617 29.2764 102.102 29.2764C103.215 29.2764 104.274 29.4082 105.28 29.6719C106.296 29.9258 107.355 30.2969 108.459 30.7852L106.994 34.3154C106.008 33.915 105.124 33.6074 104.343 33.3926C103.562 33.168 102.766 33.0557 101.955 33.0557C101.389 33.0557 100.905 33.1484 100.505 33.334C100.104 33.5098 99.8018 33.7637 99.5967 34.0957C99.3916 34.418 99.2891 34.7939 99.2891 35.2236C99.2891 35.7314 99.4355 36.1611 99.7285 36.5127C100.031 36.8545 100.48 37.1865 101.076 37.5088C101.682 37.8311 102.434 38.207 103.332 38.6367C104.426 39.1543 105.358 39.6963 106.13 40.2627C106.911 40.8193 107.512 41.4785 107.932 42.2402C108.352 42.9922 108.562 43.9297 108.562 45.0527ZM116.56 34.623V51H112.092V34.623H116.56ZM114.333 28.207C114.997 28.207 115.568 28.3633 116.047 28.6758C116.525 28.9785 116.765 29.5498 116.765 30.3896C116.765 31.2197 116.525 31.7959 116.047 32.1182C115.568 32.4307 114.997 32.5869 114.333 32.5869C113.659 32.5869 113.083 32.4307 112.604 32.1182C112.136 31.7959 111.901 31.2197 111.901 30.3896C111.901 29.5498 112.136 28.9785 112.604 28.6758C113.083 28.3633 113.659 28.207 114.333 28.207ZM126.052 58.207C123.767 58.207 122.019 57.8066 120.808 57.0059C119.606 56.2148 119.006 55.1016 119.006 53.666C119.006 52.6797 119.313 51.8545 119.929 51.1904C120.544 50.5264 121.447 50.0527 122.639 49.7695C122.18 49.5742 121.779 49.2568 121.438 48.8174C121.096 48.3682 120.925 47.8945 120.925 47.3965C120.925 46.7715 121.105 46.2539 121.467 45.8438C121.828 45.4238 122.351 45.0137 123.034 44.6133C122.175 44.2422 121.491 43.6465 120.983 42.8262C120.485 42.0059 120.236 41.0391 120.236 39.9258C120.236 38.7344 120.495 37.7236 121.013 36.8936C121.54 36.0537 122.302 35.4141 123.298 34.9746C124.304 34.5352 125.524 34.3154 126.96 34.3154C127.263 34.3154 127.614 34.335 128.015 34.374C128.415 34.4131 128.781 34.457 129.113 34.5059C129.455 34.5547 129.685 34.5938 129.802 34.623H135.515V36.8936L132.951 37.5527C133.186 37.9141 133.361 38.2998 133.479 38.71C133.596 39.1201 133.654 39.5547 133.654 40.0137C133.654 41.7715 133.039 43.1436 131.809 44.1299C130.588 45.1064 128.889 45.5947 126.711 45.5947C126.193 45.5654 125.705 45.5264 125.246 45.4775C125.021 45.6533 124.851 45.8389 124.733 46.0342C124.616 46.2295 124.558 46.4346 124.558 46.6494C124.558 46.8643 124.646 47.0449 124.821 47.1914C125.007 47.3281 125.28 47.4355 125.642 47.5137C126.013 47.582 126.472 47.6162 127.019 47.6162H129.802C131.599 47.6162 132.966 48.002 133.903 48.7734C134.851 49.5449 135.324 50.6777 135.324 52.1719C135.324 54.0859 134.523 55.5703 132.922 56.625C131.33 57.6797 129.04 58.207 126.052 58.207ZM126.242 55.292C127.307 55.292 128.22 55.1895 128.981 54.9844C129.753 54.7891 130.344 54.5059 130.754 54.1348C131.164 53.7734 131.369 53.3389 131.369 52.8311C131.369 52.4209 131.247 52.0938 131.003 51.8496C130.769 51.6152 130.407 51.4492 129.919 51.3516C129.44 51.2539 128.825 51.2051 128.073 51.2051H125.759C125.212 51.2051 124.719 51.293 124.279 51.4688C123.85 51.6445 123.508 51.8887 123.254 52.2012C123 52.5234 122.873 52.8945 122.873 53.3145C122.873 53.9297 123.166 54.4131 123.752 54.7646C124.348 55.1162 125.178 55.292 126.242 55.292ZM126.96 42.8701C127.8 42.8701 128.415 42.6113 128.806 42.0938C129.196 41.5762 129.392 40.873 129.392 39.9844C129.392 38.998 129.187 38.2607 128.776 37.7725C128.376 37.2744 127.771 37.0254 126.96 37.0254C126.14 37.0254 125.524 37.2744 125.114 37.7725C124.704 38.2607 124.499 38.998 124.499 39.9844C124.499 40.873 124.699 41.5762 125.1 42.0938C125.51 42.6113 126.13 42.8701 126.96 42.8701ZM147.526 34.3154C149.274 34.3154 150.681 34.7939 151.745 35.751C152.81 36.6982 153.342 38.2217 153.342 40.3213V51H148.874V41.4346C148.874 40.2627 148.659 39.3789 148.229 38.7832C147.81 38.1875 147.146 37.8896 146.237 37.8896C144.87 37.8896 143.938 38.3535 143.439 39.2812C142.941 40.209 142.692 41.5469 142.692 43.2949V51H138.225V34.623H141.638L142.238 36.7178H142.487C142.839 36.1514 143.273 35.6924 143.791 35.3408C144.318 34.9893 144.899 34.7305 145.534 34.5645C146.179 34.3984 146.843 34.3154 147.526 34.3154ZM183.518 29.584V43.4414C183.518 44.916 183.19 46.249 182.536 47.4404C181.892 48.6221 180.91 49.5596 179.592 50.2529C178.283 50.9463 176.633 51.293 174.641 51.293C171.809 51.293 169.65 50.5703 168.166 49.125C166.682 47.6797 165.939 45.7656 165.939 43.3828V29.584H170.466V42.6943C170.466 44.4619 170.827 45.7021 171.55 46.415C172.272 47.1279 173.342 47.4844 174.758 47.4844C175.754 47.4844 176.56 47.3135 177.175 46.9717C177.8 46.6299 178.259 46.1025 178.552 45.3896C178.845 44.6768 178.991 43.7686 178.991 42.665V29.584H183.518ZM197.521 34.3154C199.367 34.3154 200.856 35.0332 201.989 36.4688C203.132 37.9043 203.703 40.0088 203.703 42.7822C203.703 44.6377 203.435 46.2002 202.897 47.4697C202.36 48.7295 201.618 49.6816 200.671 50.3262C199.724 50.9707 198.635 51.293 197.404 51.293C196.613 51.293 195.935 51.1953 195.368 51C194.802 50.7949 194.318 50.5361 193.918 50.2236C193.518 49.9014 193.171 49.5596 192.878 49.1982H192.644C192.722 49.5889 192.78 49.9893 192.819 50.3994C192.858 50.8096 192.878 51.21 192.878 51.6006V58.207H188.41V34.623H192.043L192.673 36.7471H192.878C193.171 36.3076 193.527 35.9023 193.947 35.5312C194.367 35.1602 194.87 34.8672 195.456 34.6523C196.052 34.4277 196.74 34.3154 197.521 34.3154ZM196.086 37.8896C195.305 37.8896 194.685 38.0508 194.226 38.373C193.767 38.6953 193.43 39.1787 193.215 39.8232C193.01 40.4678 192.897 41.2832 192.878 42.2695V42.7529C192.878 43.8076 192.976 44.7012 193.171 45.4336C193.376 46.166 193.713 46.7227 194.182 47.1035C194.66 47.4844 195.314 47.6748 196.145 47.6748C196.828 47.6748 197.39 47.4844 197.829 47.1035C198.269 46.7227 198.596 46.166 198.811 45.4336C199.035 44.6914 199.147 43.7881 199.147 42.7236C199.147 41.1221 198.898 39.916 198.4 39.1055C197.902 38.2949 197.131 37.8896 196.086 37.8896ZM230.07 42.7822C230.07 44.1494 229.885 45.3604 229.514 46.415C229.152 47.4697 228.62 48.3633 227.917 49.0957C227.224 49.8184 226.384 50.3652 225.397 50.7363C224.421 51.1074 223.317 51.293 222.087 51.293C220.935 51.293 219.875 51.1074 218.908 50.7363C217.951 50.3652 217.116 49.8184 216.403 49.0957C215.7 48.3633 215.153 47.4697 214.763 46.415C214.382 45.3604 214.191 44.1494 214.191 42.7822C214.191 40.9658 214.514 39.4277 215.158 38.168C215.803 36.9082 216.721 35.9512 217.912 35.2969C219.104 34.6426 220.524 34.3154 222.175 34.3154C223.708 34.3154 225.065 34.6426 226.247 35.2969C227.438 35.9512 228.371 36.9082 229.045 38.168C229.729 39.4277 230.07 40.9658 230.07 42.7822ZM218.747 42.7822C218.747 43.8564 218.864 44.7598 219.099 45.4922C219.333 46.2246 219.699 46.7764 220.197 47.1475C220.695 47.5186 221.345 47.7041 222.146 47.7041C222.937 47.7041 223.576 47.5186 224.064 47.1475C224.562 46.7764 224.924 46.2246 225.148 45.4922C225.383 44.7598 225.5 43.8564 225.5 42.7822C225.5 41.6982 225.383 40.7998 225.148 40.0869C224.924 39.3643 224.562 38.8223 224.064 38.4609C223.566 38.0996 222.917 37.9189 222.116 37.9189C220.935 37.9189 220.075 38.3242 219.538 39.1348C219.011 39.9453 218.747 41.1611 218.747 42.7822ZM242.902 34.3154C243.127 34.3154 243.386 34.3301 243.679 34.3594C243.981 34.3789 244.226 34.4082 244.411 34.4473L244.074 38.6367C243.928 38.5879 243.718 38.5537 243.444 38.5342C243.181 38.5049 242.951 38.4902 242.756 38.4902C242.18 38.4902 241.618 38.5635 241.071 38.71C240.534 38.8564 240.051 39.0957 239.621 39.4277C239.191 39.75 238.85 40.1797 238.596 40.7168C238.352 41.2441 238.229 41.8936 238.229 42.665V51H233.762V34.623H237.146L237.805 37.377H238.024C238.347 36.8203 238.747 36.3125 239.226 35.8535C239.714 35.3848 240.266 35.0137 240.881 34.7402C241.506 34.457 242.18 34.3154 242.902 34.3154ZM255.529 51V29.584H260.07V47.25H268.757V51H255.529ZM287.023 42.7822C287.023 44.1494 286.838 45.3604 286.467 46.415C286.105 47.4697 285.573 48.3633 284.87 49.0957C284.177 49.8184 283.337 50.3652 282.351 50.7363C281.374 51.1074 280.271 51.293 279.04 51.293C277.888 51.293 276.828 51.1074 275.861 50.7363C274.904 50.3652 274.069 49.8184 273.356 49.0957C272.653 48.3633 272.106 47.4697 271.716 46.415C271.335 45.3604 271.145 44.1494 271.145 42.7822C271.145 40.9658 271.467 39.4277 272.111 38.168C272.756 36.9082 273.674 35.9512 274.865 35.2969C276.057 34.6426 277.478 34.3154 279.128 34.3154C280.661 34.3154 282.019 34.6426 283.2 35.2969C284.392 35.9512 285.324 36.9082 285.998 38.168C286.682 39.4277 287.023 40.9658 287.023 42.7822ZM275.7 42.7822C275.7 43.8564 275.817 44.7598 276.052 45.4922C276.286 46.2246 276.652 46.7764 277.15 47.1475C277.648 47.5186 278.298 47.7041 279.099 47.7041C279.89 47.7041 280.529 47.5186 281.018 47.1475C281.516 46.7764 281.877 46.2246 282.102 45.4922C282.336 44.7598 282.453 43.8564 282.453 42.7822C282.453 41.6982 282.336 40.7998 282.102 40.0869C281.877 39.3643 281.516 38.8223 281.018 38.4609C280.52 38.0996 279.87 37.9189 279.069 37.9189C277.888 37.9189 277.028 38.3242 276.491 39.1348C275.964 39.9453 275.7 41.1611 275.7 42.7822ZM295.505 58.207C293.22 58.207 291.472 57.8066 290.261 57.0059C289.06 56.2148 288.459 55.1016 288.459 53.666C288.459 52.6797 288.767 51.8545 289.382 51.1904C289.997 50.5264 290.9 50.0527 292.092 49.7695C291.633 49.5742 291.232 49.2568 290.891 48.8174C290.549 48.3682 290.378 47.8945 290.378 47.3965C290.378 46.7715 290.559 46.2539 290.92 45.8438C291.281 45.4238 291.804 45.0137 292.487 44.6133C291.628 44.2422 290.944 43.6465 290.437 42.8262C289.938 42.0059 289.689 41.0391 289.689 39.9258C289.689 38.7344 289.948 37.7236 290.466 36.8936C290.993 36.0537 291.755 35.4141 292.751 34.9746C293.757 34.5352 294.978 34.3154 296.413 34.3154C296.716 34.3154 297.067 34.335 297.468 34.374C297.868 34.4131 298.234 34.457 298.566 34.5059C298.908 34.5547 299.138 34.5938 299.255 34.623H304.968V36.8936L302.404 37.5527C302.639 37.9141 302.814 38.2998 302.932 38.71C303.049 39.1201 303.107 39.5547 303.107 40.0137C303.107 41.7715 302.492 43.1436 301.262 44.1299C300.041 45.1064 298.342 45.5947 296.164 45.5947C295.646 45.5654 295.158 45.5264 294.699 45.4775C294.475 45.6533 294.304 45.8389 294.187 46.0342C294.069 46.2295 294.011 46.4346 294.011 46.6494C294.011 46.8643 294.099 47.0449 294.274 47.1914C294.46 47.3281 294.733 47.4355 295.095 47.5137C295.466 47.582 295.925 47.6162 296.472 47.6162H299.255C301.052 47.6162 302.419 48.002 303.356 48.7734C304.304 49.5449 304.777 50.6777 304.777 52.1719C304.777 54.0859 303.977 55.5703 302.375 56.625C300.783 57.6797 298.493 58.207 295.505 58.207ZM295.695 55.292C296.76 55.292 297.673 55.1895 298.435 54.9844C299.206 54.7891 299.797 54.5059 300.207 54.1348C300.617 53.7734 300.822 53.3389 300.822 52.8311C300.822 52.4209 300.7 52.0938 300.456 51.8496C300.222 51.6152 299.86 51.4492 299.372 51.3516C298.894 51.2539 298.278 51.2051 297.526 51.2051H295.212C294.665 51.2051 294.172 51.293 293.732 51.4688C293.303 51.6445 292.961 51.8887 292.707 52.2012C292.453 52.5234 292.326 52.8945 292.326 53.3145C292.326 53.9297 292.619 54.4131 293.205 54.7646C293.801 55.1162 294.631 55.292 295.695 55.292ZM296.413 42.8701C297.253 42.8701 297.868 42.6113 298.259 42.0938C298.649 41.5762 298.845 40.873 298.845 39.9844C298.845 38.998 298.64 38.2607 298.229 37.7725C297.829 37.2744 297.224 37.0254 296.413 37.0254C295.593 37.0254 294.978 37.2744 294.567 37.7725C294.157 38.2607 293.952 38.998 293.952 39.9844C293.952 40.873 294.152 41.5762 294.553 42.0938C294.963 42.6113 295.583 42.8701 296.413 42.8701ZM315.822 51V29.584H320.363V51H315.822ZM334.704 34.3154C336.452 34.3154 337.858 34.7939 338.923 35.751C339.987 36.6982 340.52 38.2217 340.52 40.3213V51H336.052V41.4346C336.052 40.2627 335.837 39.3789 335.407 38.7832C334.987 38.1875 334.323 37.8896 333.415 37.8896C332.048 37.8896 331.115 38.3535 330.617 39.2812C330.119 40.209 329.87 41.5469 329.87 43.2949V51H325.402V34.623H328.815L329.416 36.7178H329.665C330.017 36.1514 330.451 35.6924 330.969 35.3408C331.496 34.9893 332.077 34.7305 332.712 34.5645C333.356 34.3984 334.021 34.3154 334.704 34.3154Z" fill="#141414"/>
<path d="M106.291 104H104.621V91.1875H100.129V89.7227H110.764V91.1875H106.291V104ZM121.906 98.6289C121.906 99.5078 121.792 100.292 121.564 100.982C121.337 101.673 121.008 102.255 120.578 102.73C120.148 103.206 119.628 103.57 119.016 103.824C118.41 104.072 117.723 104.195 116.955 104.195C116.239 104.195 115.581 104.072 114.982 103.824C114.39 103.57 113.876 103.206 113.439 102.73C113.01 102.255 112.674 101.673 112.434 100.982C112.199 100.292 112.082 99.5078 112.082 98.6289C112.082 97.457 112.281 96.4609 112.678 95.6406C113.075 94.8138 113.641 94.1855 114.377 93.7559C115.119 93.3197 116.001 93.1016 117.023 93.1016C118 93.1016 118.853 93.3197 119.582 93.7559C120.318 94.1921 120.887 94.8236 121.291 95.6504C121.701 96.4707 121.906 97.4635 121.906 98.6289ZM113.762 98.6289C113.762 99.4883 113.876 100.234 114.104 100.865C114.331 101.497 114.683 101.985 115.158 102.33C115.633 102.675 116.245 102.848 116.994 102.848C117.736 102.848 118.345 102.675 118.82 102.33C119.302 101.985 119.657 101.497 119.885 100.865C120.113 100.234 120.227 99.4883 120.227 98.6289C120.227 97.776 120.113 97.0404 119.885 96.4219C119.657 95.7969 119.305 95.3151 118.83 94.9766C118.355 94.638 117.74 94.4688 116.984 94.4688C115.871 94.4688 115.054 94.8366 114.533 95.5723C114.019 96.3079 113.762 97.3268 113.762 98.6289ZM134.191 104.195C133.228 104.195 132.378 103.997 131.643 103.6C130.907 103.202 130.334 102.597 129.924 101.783C129.514 100.969 129.309 99.944 129.309 98.707C129.309 97.4115 129.523 96.3535 129.953 95.5332C130.389 94.7064 130.988 94.0944 131.75 93.6973C132.512 93.3001 133.378 93.1016 134.348 93.1016C134.882 93.1016 135.396 93.1569 135.891 93.2676C136.392 93.3717 136.802 93.5052 137.121 93.668L136.633 95.0254C136.307 94.8952 135.93 94.778 135.5 94.6738C135.077 94.5697 134.68 94.5176 134.309 94.5176C133.566 94.5176 132.948 94.6771 132.453 94.9961C131.965 95.3151 131.597 95.7839 131.35 96.4023C131.109 97.0208 130.988 97.7826 130.988 98.6875C130.988 99.5534 131.105 100.292 131.34 100.904C131.581 101.516 131.936 101.985 132.404 102.311C132.88 102.63 133.472 102.789 134.182 102.789C134.748 102.789 135.259 102.73 135.715 102.613C136.171 102.49 136.584 102.346 136.955 102.184V103.629C136.597 103.811 136.197 103.951 135.754 104.049C135.318 104.146 134.797 104.195 134.191 104.195ZM148.723 98.6289C148.723 99.5078 148.609 100.292 148.381 100.982C148.153 101.673 147.824 102.255 147.395 102.73C146.965 103.206 146.444 103.57 145.832 103.824C145.227 104.072 144.54 104.195 143.771 104.195C143.055 104.195 142.398 104.072 141.799 103.824C141.206 103.57 140.692 103.206 140.256 102.73C139.826 102.255 139.491 101.673 139.25 100.982C139.016 100.292 138.898 99.5078 138.898 98.6289C138.898 97.457 139.097 96.4609 139.494 95.6406C139.891 94.8138 140.458 94.1855 141.193 93.7559C141.936 93.3197 142.818 93.1016 143.84 93.1016C144.816 93.1016 145.669 93.3197 146.398 93.7559C147.134 94.1921 147.704 94.8236 148.107 95.6504C148.518 96.4707 148.723 97.4635 148.723 98.6289ZM140.578 98.6289C140.578 99.4883 140.692 100.234 140.92 100.865C141.148 101.497 141.499 101.985 141.975 102.33C142.45 102.675 143.062 102.848 143.811 102.848C144.553 102.848 145.161 102.675 145.637 102.33C146.118 101.985 146.473 101.497 146.701 100.865C146.929 100.234 147.043 99.4883 147.043 98.6289C147.043 97.776 146.929 97.0404 146.701 96.4219C146.473 95.7969 146.122 95.3151 145.646 94.9766C145.171 94.638 144.556 94.4688 143.801 94.4688C142.688 94.4688 141.87 94.8366 141.35 95.5723C140.835 96.3079 140.578 97.3268 140.578 98.6289ZM156.594 93.1016C157.863 93.1016 158.824 93.4141 159.475 94.0391C160.126 94.6576 160.451 95.6536 160.451 97.0273V104H158.85V97.1348C158.85 96.2428 158.645 95.5755 158.234 95.1328C157.831 94.6901 157.209 94.4688 156.369 94.4688C155.184 94.4688 154.351 94.804 153.869 95.4746C153.387 96.1452 153.146 97.1185 153.146 98.3945V104H151.525V93.2969H152.834L153.078 94.8398H153.166C153.394 94.4622 153.684 94.1465 154.035 93.8926C154.387 93.6322 154.781 93.4368 155.217 93.3066C155.653 93.1699 156.112 93.1016 156.594 93.1016ZM167.248 102.867C167.515 102.867 167.788 102.844 168.068 102.799C168.348 102.753 168.576 102.698 168.752 102.633V103.893C168.563 103.977 168.299 104.049 167.961 104.107C167.629 104.166 167.303 104.195 166.984 104.195C166.418 104.195 165.904 104.098 165.441 103.902C164.979 103.701 164.608 103.362 164.328 102.887C164.055 102.411 163.918 101.754 163.918 100.914V94.5664H162.395V93.7754L163.928 93.1406L164.572 90.8164H165.549V93.2969H168.684V94.5664H165.549V100.865C165.549 101.536 165.702 102.037 166.008 102.369C166.32 102.701 166.734 102.867 167.248 102.867ZM172.541 93.2969V104H170.92V93.2969H172.541ZM171.75 89.293C172.017 89.293 172.245 89.3809 172.434 89.5566C172.629 89.7259 172.727 89.9928 172.727 90.3574C172.727 90.7155 172.629 90.9824 172.434 91.1582C172.245 91.334 172.017 91.4219 171.75 91.4219C171.47 91.4219 171.236 91.334 171.047 91.1582C170.865 90.9824 170.773 90.7155 170.773 90.3574C170.773 89.9928 170.865 89.7259 171.047 89.5566C171.236 89.3809 171.47 89.293 171.75 89.293ZM181.047 93.1016C182.316 93.1016 183.277 93.4141 183.928 94.0391C184.579 94.6576 184.904 95.6536 184.904 97.0273V104H183.303V97.1348C183.303 96.2428 183.098 95.5755 182.688 95.1328C182.284 94.6901 181.662 94.4688 180.822 94.4688C179.637 94.4688 178.804 94.804 178.322 95.4746C177.84 96.1452 177.6 97.1185 177.6 98.3945V104H175.979V93.2969H177.287L177.531 94.8398H177.619C177.847 94.4622 178.137 94.1465 178.488 93.8926C178.84 93.6322 179.234 93.4368 179.67 93.3066C180.106 93.1699 180.565 93.1016 181.047 93.1016ZM197.082 93.2969V104H195.754L195.52 102.496H195.432C195.21 102.867 194.924 103.18 194.572 103.434C194.221 103.688 193.824 103.876 193.381 104C192.945 104.13 192.479 104.195 191.984 104.195C191.138 104.195 190.428 104.059 189.855 103.785C189.283 103.512 188.85 103.089 188.557 102.516C188.27 101.943 188.127 101.207 188.127 100.309V93.2969H189.768V100.191C189.768 101.083 189.969 101.751 190.373 102.193C190.777 102.63 191.392 102.848 192.219 102.848C193.013 102.848 193.645 102.698 194.113 102.398C194.589 102.099 194.93 101.66 195.139 101.08C195.347 100.494 195.451 99.778 195.451 98.9316V93.2969H197.082ZM204.631 93.1016C205.542 93.1016 206.324 93.3034 206.975 93.707C207.626 94.1107 208.124 94.6771 208.469 95.4062C208.814 96.1289 208.986 96.9753 208.986 97.9453V98.9512H201.594C201.613 100.208 201.926 101.165 202.531 101.822C203.137 102.48 203.99 102.809 205.09 102.809C205.767 102.809 206.366 102.747 206.887 102.623C207.408 102.499 207.948 102.317 208.508 102.076V103.502C207.967 103.743 207.43 103.919 206.896 104.029C206.369 104.14 205.744 104.195 205.021 104.195C203.993 104.195 203.094 103.987 202.326 103.57C201.564 103.147 200.972 102.529 200.549 101.715C200.126 100.901 199.914 99.9049 199.914 98.7266C199.914 97.5742 200.106 96.5781 200.49 95.7383C200.881 94.8919 201.428 94.2409 202.131 93.7852C202.84 93.3294 203.674 93.1016 204.631 93.1016ZM204.611 94.4297C203.745 94.4297 203.055 94.7129 202.541 95.2793C202.027 95.8457 201.721 96.6367 201.623 97.6523H207.287C207.281 97.0143 207.18 96.4544 206.984 95.9727C206.796 95.4844 206.506 95.1068 206.115 94.8398C205.725 94.5664 205.223 94.4297 204.611 94.4297ZM213.596 101.676L213.723 101.9C213.605 102.376 213.456 102.883 213.273 103.424C213.098 103.964 212.902 104.505 212.688 105.045C212.479 105.592 212.268 106.103 212.053 106.578H210.842C210.979 106.057 211.112 105.507 211.242 104.928C211.372 104.355 211.49 103.788 211.594 103.229C211.704 102.662 211.792 102.145 211.857 101.676H213.596ZM227.141 93.1016C228.475 93.1016 229.54 93.5605 230.334 94.4785C231.128 95.3965 231.525 96.7767 231.525 98.6191C231.525 99.8366 231.343 100.859 230.979 101.686C230.614 102.512 230.1 103.137 229.436 103.561C228.778 103.984 228 104.195 227.102 104.195C226.535 104.195 226.037 104.12 225.607 103.971C225.178 103.821 224.81 103.619 224.504 103.365C224.198 103.111 223.944 102.835 223.742 102.535H223.625C223.645 102.789 223.667 103.095 223.693 103.453C223.726 103.811 223.742 104.124 223.742 104.391V108.785H222.111V93.2969H223.449L223.664 94.8789H223.742C223.951 94.5534 224.204 94.2572 224.504 93.9902C224.803 93.7168 225.168 93.502 225.598 93.3457C226.034 93.1829 226.548 93.1016 227.141 93.1016ZM226.857 94.4688C226.115 94.4688 225.516 94.612 225.061 94.8984C224.611 95.1849 224.283 95.6146 224.074 96.1875C223.866 96.7539 223.755 97.4668 223.742 98.3262V98.6387C223.742 99.5436 223.84 100.309 224.035 100.934C224.237 101.559 224.566 102.034 225.021 102.359C225.484 102.685 226.102 102.848 226.877 102.848C227.541 102.848 228.094 102.669 228.537 102.311C228.98 101.952 229.309 101.454 229.523 100.816C229.745 100.172 229.855 99.4329 229.855 98.5996C229.855 97.3366 229.608 96.334 229.113 95.5918C228.625 94.8431 227.873 94.4688 226.857 94.4688ZM235.988 104H234.357V88.8047H235.988V104ZM243.537 93.1016C244.449 93.1016 245.23 93.3034 245.881 93.707C246.532 94.1107 247.03 94.6771 247.375 95.4062C247.72 96.1289 247.893 96.9753 247.893 97.9453V98.9512H240.5C240.52 100.208 240.832 101.165 241.438 101.822C242.043 102.48 242.896 102.809 243.996 102.809C244.673 102.809 245.272 102.747 245.793 102.623C246.314 102.499 246.854 102.317 247.414 102.076V103.502C246.874 103.743 246.337 103.919 245.803 104.029C245.275 104.14 244.65 104.195 243.928 104.195C242.899 104.195 242.001 103.987 241.232 103.57C240.471 103.147 239.878 102.529 239.455 101.715C239.032 100.901 238.82 99.9049 238.82 98.7266C238.82 97.5742 239.012 96.5781 239.396 95.7383C239.787 94.8919 240.334 94.2409 241.037 93.7852C241.747 93.3294 242.58 93.1016 243.537 93.1016ZM243.518 94.4297C242.652 94.4297 241.962 94.7129 241.447 95.2793C240.933 95.8457 240.627 96.6367 240.529 97.6523H246.193C246.187 97.0143 246.086 96.4544 245.891 95.9727C245.702 95.4844 245.412 95.1068 245.021 94.8398C244.631 94.5664 244.13 94.4297 243.518 94.4297ZM254.65 93.1211C255.926 93.1211 256.874 93.4076 257.492 93.9805C258.111 94.5534 258.42 95.4681 258.42 96.7246V104H257.238L256.926 102.418H256.848C256.548 102.809 256.236 103.137 255.91 103.404C255.585 103.665 255.207 103.863 254.777 104C254.354 104.13 253.833 104.195 253.215 104.195C252.564 104.195 251.984 104.081 251.477 103.854C250.975 103.626 250.578 103.281 250.285 102.818C249.999 102.356 249.855 101.77 249.855 101.061C249.855 99.9928 250.279 99.1725 251.125 98.5996C251.971 98.0267 253.26 97.7142 254.992 97.6621L256.838 97.584V96.9297C256.838 96.0052 256.639 95.3574 256.242 94.9863C255.845 94.6152 255.285 94.4297 254.562 94.4297C254.003 94.4297 253.469 94.5111 252.961 94.6738C252.453 94.8366 251.971 95.0286 251.516 95.25L251.018 94.0195C251.499 93.7721 252.053 93.5605 252.678 93.3848C253.303 93.209 253.96 93.1211 254.65 93.1211ZM256.818 98.7266L255.188 98.7949C253.853 98.847 252.912 99.0651 252.365 99.4492C251.818 99.8333 251.545 100.377 251.545 101.08C251.545 101.692 251.73 102.145 252.102 102.438C252.473 102.73 252.964 102.877 253.576 102.877C254.527 102.877 255.305 102.613 255.91 102.086C256.516 101.559 256.818 100.768 256.818 99.7129V98.7266ZM268.684 101.07C268.684 101.754 268.511 102.33 268.166 102.799C267.827 103.261 267.339 103.609 266.701 103.844C266.07 104.078 265.314 104.195 264.436 104.195C263.687 104.195 263.039 104.137 262.492 104.02C261.945 103.902 261.467 103.736 261.057 103.521V102.027C261.493 102.242 262.014 102.438 262.619 102.613C263.225 102.789 263.843 102.877 264.475 102.877C265.399 102.877 266.07 102.727 266.486 102.428C266.903 102.128 267.111 101.721 267.111 101.207C267.111 100.914 267.027 100.657 266.857 100.436C266.695 100.208 266.418 99.9896 266.027 99.7812C265.637 99.5664 265.096 99.332 264.406 99.0781C263.723 98.8177 263.13 98.5605 262.629 98.3066C262.134 98.0462 261.75 97.7305 261.477 97.3594C261.21 96.9883 261.076 96.5065 261.076 95.9141C261.076 95.0091 261.441 94.3158 262.17 93.834C262.906 93.3457 263.869 93.1016 265.061 93.1016C265.705 93.1016 266.307 93.1667 266.867 93.2969C267.434 93.4206 267.961 93.5898 268.449 93.8047L267.902 95.1035C267.46 94.9147 266.988 94.7552 266.486 94.625C265.985 94.4948 265.474 94.4297 264.953 94.4297C264.204 94.4297 263.628 94.5534 263.225 94.8008C262.827 95.0482 262.629 95.3867 262.629 95.8164C262.629 96.1484 262.72 96.4219 262.902 96.6367C263.091 96.8516 263.391 97.0534 263.801 97.2422C264.211 97.431 264.751 97.6523 265.422 97.9062C266.092 98.1536 266.672 98.4108 267.16 98.6777C267.648 98.9382 268.023 99.2572 268.283 99.6348C268.55 100.006 268.684 100.484 268.684 101.07ZM275.412 93.1016C276.324 93.1016 277.105 93.3034 277.756 93.707C278.407 94.1107 278.905 94.6771 279.25 95.4062C279.595 96.1289 279.768 96.9753 279.768 97.9453V98.9512H272.375C272.395 100.208 272.707 101.165 273.312 101.822C273.918 102.48 274.771 102.809 275.871 102.809C276.548 102.809 277.147 102.747 277.668 102.623C278.189 102.499 278.729 102.317 279.289 102.076V103.502C278.749 103.743 278.212 103.919 277.678 104.029C277.15 104.14 276.525 104.195 275.803 104.195C274.774 104.195 273.876 103.987 273.107 103.57C272.346 103.147 271.753 102.529 271.33 101.715C270.907 100.901 270.695 99.9049 270.695 98.7266C270.695 97.5742 270.887 96.5781 271.271 95.7383C271.662 94.8919 272.209 94.2409 272.912 93.7852C273.622 93.3294 274.455 93.1016 275.412 93.1016ZM275.393 94.4297C274.527 94.4297 273.837 94.7129 273.322 95.2793C272.808 95.8457 272.502 96.6367 272.404 97.6523H278.068C278.062 97.0143 277.961 96.4544 277.766 95.9727C277.577 95.4844 277.287 95.1068 276.896 94.8398C276.506 94.5664 276.005 94.4297 275.393 94.4297ZM291.838 93.1016C292.749 93.1016 293.531 93.3034 294.182 93.707C294.833 94.1107 295.331 94.6771 295.676 95.4062C296.021 96.1289 296.193 96.9753 296.193 97.9453V98.9512H288.801C288.82 100.208 289.133 101.165 289.738 101.822C290.344 102.48 291.197 102.809 292.297 102.809C292.974 102.809 293.573 102.747 294.094 102.623C294.615 102.499 295.155 102.317 295.715 102.076V103.502C295.174 103.743 294.637 103.919 294.104 104.029C293.576 104.14 292.951 104.195 292.229 104.195C291.2 104.195 290.301 103.987 289.533 103.57C288.771 103.147 288.179 102.529 287.756 101.715C287.333 100.901 287.121 99.9049 287.121 98.7266C287.121 97.5742 287.313 96.5781 287.697 95.7383C288.088 94.8919 288.635 94.2409 289.338 93.7852C290.048 93.3294 290.881 93.1016 291.838 93.1016ZM291.818 94.4297C290.952 94.4297 290.262 94.7129 289.748 95.2793C289.234 95.8457 288.928 96.6367 288.83 97.6523H294.494C294.488 97.0143 294.387 96.4544 294.191 95.9727C294.003 95.4844 293.713 95.1068 293.322 94.8398C292.932 94.5664 292.43 94.4297 291.818 94.4297ZM304.016 93.1016C305.285 93.1016 306.245 93.4141 306.896 94.0391C307.548 94.6576 307.873 95.6536 307.873 97.0273V104H306.271V97.1348C306.271 96.2428 306.066 95.5755 305.656 95.1328C305.253 94.6901 304.631 94.4688 303.791 94.4688C302.606 94.4688 301.773 94.804 301.291 95.4746C300.809 96.1452 300.568 97.1185 300.568 98.3945V104H298.947V93.2969H300.256L300.5 94.8398H300.588C300.816 94.4622 301.105 94.1465 301.457 93.8926C301.809 93.6322 302.202 93.4368 302.639 93.3066C303.075 93.1699 303.534 93.1016 304.016 93.1016ZM314.67 102.867C314.937 102.867 315.21 102.844 315.49 102.799C315.77 102.753 315.998 102.698 316.174 102.633V103.893C315.985 103.977 315.721 104.049 315.383 104.107C315.051 104.166 314.725 104.195 314.406 104.195C313.84 104.195 313.326 104.098 312.863 103.902C312.401 103.701 312.03 103.362 311.75 102.887C311.477 102.411 311.34 101.754 311.34 100.914V94.5664H309.816V93.7754L311.35 93.1406L311.994 90.8164H312.971V93.2969H316.105V94.5664H312.971V100.865C312.971 101.536 313.124 102.037 313.43 102.369C313.742 102.701 314.156 102.867 314.67 102.867ZM322.463 93.1016C323.374 93.1016 324.156 93.3034 324.807 93.707C325.458 94.1107 325.956 94.6771 326.301 95.4062C326.646 96.1289 326.818 96.9753 326.818 97.9453V98.9512H319.426C319.445 100.208 319.758 101.165 320.363 101.822C320.969 102.48 321.822 102.809 322.922 102.809C323.599 102.809 324.198 102.747 324.719 102.623C325.24 102.499 325.78 102.317 326.34 102.076V103.502C325.799 103.743 325.262 103.919 324.729 104.029C324.201 104.14 323.576 104.195 322.854 104.195C321.825 104.195 320.926 103.987 320.158 103.57C319.396 103.147 318.804 102.529 318.381 101.715C317.958 100.901 317.746 99.9049 317.746 98.7266C317.746 97.5742 317.938 96.5781 318.322 95.7383C318.713 94.8919 319.26 94.2409 319.963 93.7852C320.673 93.3294 321.506 93.1016 322.463 93.1016ZM322.443 94.4297C321.577 94.4297 320.887 94.7129 320.373 95.2793C319.859 95.8457 319.553 96.6367 319.455 97.6523H325.119C325.113 97.0143 325.012 96.4544 324.816 95.9727C324.628 95.4844 324.338 95.1068 323.947 94.8398C323.557 94.5664 323.055 94.4297 322.443 94.4297ZM334.436 93.1016C334.65 93.1016 334.875 93.1146 335.109 93.1406C335.344 93.1602 335.552 93.1895 335.734 93.2285L335.529 94.7324C335.354 94.6868 335.158 94.651 334.943 94.625C334.729 94.599 334.527 94.5859 334.338 94.5859C333.908 94.5859 333.501 94.6738 333.117 94.8496C332.74 95.0189 332.408 95.2663 332.121 95.5918C331.835 95.9108 331.61 96.2982 331.447 96.7539C331.285 97.2031 331.203 97.7044 331.203 98.2578V104H329.572V93.2969H330.92L331.096 95.2695H331.164C331.385 94.8724 331.652 94.5111 331.965 94.1855C332.277 93.8535 332.639 93.5898 333.049 93.3945C333.465 93.1992 333.928 93.1016 334.436 93.1016ZM166.057 113.297H167.795L170.158 119.508C170.295 119.872 170.422 120.224 170.539 120.562C170.656 120.895 170.76 121.214 170.852 121.52C170.943 121.826 171.014 122.122 171.066 122.408H171.135C171.226 122.083 171.356 121.656 171.525 121.129C171.695 120.595 171.877 120.051 172.072 119.498L174.309 113.297H176.057L171.398 125.572C171.151 126.23 170.861 126.803 170.529 127.291C170.204 127.779 169.807 128.154 169.338 128.414C168.869 128.681 168.303 128.814 167.639 128.814C167.333 128.814 167.062 128.795 166.828 128.756C166.594 128.723 166.392 128.684 166.223 128.639V127.34C166.366 127.372 166.538 127.402 166.74 127.428C166.949 127.454 167.163 127.467 167.385 127.467C167.788 127.467 168.137 127.389 168.43 127.232C168.729 127.083 168.986 126.861 169.201 126.568C169.416 126.275 169.602 125.927 169.758 125.523L170.344 124.02L166.057 113.297ZM186.994 118.629C186.994 119.508 186.88 120.292 186.652 120.982C186.424 121.673 186.096 122.255 185.666 122.73C185.236 123.206 184.715 123.57 184.104 123.824C183.498 124.072 182.811 124.195 182.043 124.195C181.327 124.195 180.669 124.072 180.07 123.824C179.478 123.57 178.964 123.206 178.527 122.73C178.098 122.255 177.762 121.673 177.521 120.982C177.287 120.292 177.17 119.508 177.17 118.629C177.17 117.457 177.368 116.461 177.766 115.641C178.163 114.814 178.729 114.186 179.465 113.756C180.207 113.32 181.089 113.102 182.111 113.102C183.088 113.102 183.941 113.32 184.67 113.756C185.406 114.192 185.975 114.824 186.379 115.65C186.789 116.471 186.994 117.464 186.994 118.629ZM178.85 118.629C178.85 119.488 178.964 120.234 179.191 120.865C179.419 121.497 179.771 121.985 180.246 122.33C180.721 122.675 181.333 122.848 182.082 122.848C182.824 122.848 183.433 122.675 183.908 122.33C184.39 121.985 184.745 121.497 184.973 120.865C185.201 120.234 185.314 119.488 185.314 118.629C185.314 117.776 185.201 117.04 184.973 116.422C184.745 115.797 184.393 115.315 183.918 114.977C183.443 114.638 182.827 114.469 182.072 114.469C180.959 114.469 180.142 114.837 179.621 115.572C179.107 116.308 178.85 117.327 178.85 118.629ZM198.635 113.297V124H197.307L197.072 122.496H196.984C196.763 122.867 196.477 123.18 196.125 123.434C195.773 123.688 195.376 123.876 194.934 124C194.497 124.13 194.032 124.195 193.537 124.195C192.691 124.195 191.981 124.059 191.408 123.785C190.835 123.512 190.402 123.089 190.109 122.516C189.823 121.943 189.68 121.207 189.68 120.309V113.297H191.32V120.191C191.32 121.083 191.522 121.751 191.926 122.193C192.329 122.63 192.945 122.848 193.771 122.848C194.566 122.848 195.197 122.698 195.666 122.398C196.141 122.099 196.483 121.66 196.691 121.08C196.9 120.494 197.004 119.778 197.004 118.932V113.297H198.635ZM206.926 113.102C207.141 113.102 207.365 113.115 207.6 113.141C207.834 113.16 208.042 113.189 208.225 113.229L208.02 114.732C207.844 114.687 207.648 114.651 207.434 114.625C207.219 114.599 207.017 114.586 206.828 114.586C206.398 114.586 205.992 114.674 205.607 114.85C205.23 115.019 204.898 115.266 204.611 115.592C204.325 115.911 204.1 116.298 203.938 116.754C203.775 117.203 203.693 117.704 203.693 118.258V124H202.062V113.297H203.41L203.586 115.27H203.654C203.876 114.872 204.143 114.511 204.455 114.186C204.768 113.854 205.129 113.59 205.539 113.395C205.956 113.199 206.418 113.102 206.926 113.102ZM219.562 113.102C220.474 113.102 221.255 113.303 221.906 113.707C222.557 114.111 223.055 114.677 223.4 115.406C223.745 116.129 223.918 116.975 223.918 117.945V118.951H216.525C216.545 120.208 216.857 121.165 217.463 121.822C218.068 122.48 218.921 122.809 220.021 122.809C220.699 122.809 221.298 122.747 221.818 122.623C222.339 122.499 222.88 122.317 223.439 122.076V123.502C222.899 123.743 222.362 123.919 221.828 124.029C221.301 124.14 220.676 124.195 219.953 124.195C218.924 124.195 218.026 123.987 217.258 123.57C216.496 123.147 215.904 122.529 215.48 121.715C215.057 120.901 214.846 119.905 214.846 118.727C214.846 117.574 215.038 116.578 215.422 115.738C215.812 114.892 216.359 114.241 217.062 113.785C217.772 113.329 218.605 113.102 219.562 113.102ZM219.543 114.43C218.677 114.43 217.987 114.713 217.473 115.279C216.958 115.846 216.652 116.637 216.555 117.652H222.219C222.212 117.014 222.111 116.454 221.916 115.973C221.727 115.484 221.438 115.107 221.047 114.84C220.656 114.566 220.155 114.43 219.543 114.43ZM238.293 113.102C239.471 113.102 240.36 113.411 240.959 114.029C241.558 114.641 241.857 115.628 241.857 116.988V124H240.256V117.066C240.256 116.201 240.067 115.553 239.689 115.123C239.318 114.687 238.765 114.469 238.029 114.469C236.994 114.469 236.242 114.768 235.773 115.367C235.305 115.966 235.07 116.848 235.07 118.014V124H233.459V117.066C233.459 116.487 233.374 116.005 233.205 115.621C233.042 115.237 232.795 114.951 232.463 114.762C232.137 114.566 231.724 114.469 231.223 114.469C230.513 114.469 229.943 114.615 229.514 114.908C229.084 115.201 228.771 115.637 228.576 116.217C228.387 116.79 228.293 117.496 228.293 118.336V124H226.672V113.297H227.98L228.225 114.811H228.312C228.527 114.439 228.798 114.127 229.123 113.873C229.449 113.619 229.813 113.427 230.217 113.297C230.62 113.167 231.05 113.102 231.506 113.102C232.32 113.102 233 113.255 233.547 113.561C234.1 113.86 234.501 114.319 234.748 114.938H234.836C235.188 114.319 235.669 113.86 236.281 113.561C236.893 113.255 237.564 113.102 238.293 113.102ZM249.191 113.121C250.467 113.121 251.415 113.408 252.033 113.98C252.652 114.553 252.961 115.468 252.961 116.725V124H251.779L251.467 122.418H251.389C251.089 122.809 250.777 123.137 250.451 123.404C250.126 123.665 249.748 123.863 249.318 124C248.895 124.13 248.374 124.195 247.756 124.195C247.105 124.195 246.525 124.081 246.018 123.854C245.516 123.626 245.119 123.281 244.826 122.818C244.54 122.356 244.396 121.77 244.396 121.061C244.396 119.993 244.82 119.173 245.666 118.6C246.512 118.027 247.801 117.714 249.533 117.662L251.379 117.584V116.93C251.379 116.005 251.18 115.357 250.783 114.986C250.386 114.615 249.826 114.43 249.104 114.43C248.544 114.43 248.01 114.511 247.502 114.674C246.994 114.837 246.512 115.029 246.057 115.25L245.559 114.02C246.04 113.772 246.594 113.561 247.219 113.385C247.844 113.209 248.501 113.121 249.191 113.121ZM251.359 118.727L249.729 118.795C248.394 118.847 247.453 119.065 246.906 119.449C246.359 119.833 246.086 120.377 246.086 121.08C246.086 121.692 246.271 122.145 246.643 122.438C247.014 122.73 247.505 122.877 248.117 122.877C249.068 122.877 249.846 122.613 250.451 122.086C251.057 121.559 251.359 120.768 251.359 119.713V118.727ZM257.922 113.297V124H256.301V113.297H257.922ZM257.131 109.293C257.398 109.293 257.626 109.381 257.814 109.557C258.01 109.726 258.107 109.993 258.107 110.357C258.107 110.715 258.01 110.982 257.814 111.158C257.626 111.334 257.398 111.422 257.131 111.422C256.851 111.422 256.617 111.334 256.428 111.158C256.245 110.982 256.154 110.715 256.154 110.357C256.154 109.993 256.245 109.726 256.428 109.557C256.617 109.381 256.851 109.293 257.131 109.293ZM262.99 124H261.359V108.805H262.99V124ZM266.174 122.984C266.174 122.529 266.285 122.206 266.506 122.018C266.727 121.822 266.997 121.725 267.316 121.725C267.648 121.725 267.928 121.822 268.156 122.018C268.384 122.206 268.498 122.529 268.498 122.984C268.498 123.434 268.384 123.762 268.156 123.971C267.928 124.173 267.648 124.273 267.316 124.273C266.997 124.273 266.727 124.173 266.506 123.971C266.285 123.762 266.174 123.434 266.174 122.984Z" fill="#141414"/>
<path d="M108.518 142.729L110.797 138.434H111.869L109.016 143.678V147H108.02V143.725L105.16 138.434H106.25L108.518 142.729ZM118.438 143.777C118.438 144.305 118.369 144.775 118.232 145.189C118.096 145.604 117.898 145.953 117.641 146.238C117.383 146.523 117.07 146.742 116.703 146.895C116.34 147.043 115.928 147.117 115.467 147.117C115.037 147.117 114.643 147.043 114.283 146.895C113.928 146.742 113.619 146.523 113.357 146.238C113.1 145.953 112.898 145.604 112.754 145.189C112.613 144.775 112.543 144.305 112.543 143.777C112.543 143.074 112.662 142.477 112.9 141.984C113.139 141.488 113.479 141.111 113.92 140.854C114.365 140.592 114.895 140.461 115.508 140.461C116.094 140.461 116.605 140.592 117.043 140.854C117.484 141.115 117.826 141.494 118.068 141.99C118.314 142.482 118.438 143.078 118.438 143.777ZM113.551 143.777C113.551 144.293 113.619 144.74 113.756 145.119C113.893 145.498 114.104 145.791 114.389 145.998C114.674 146.205 115.041 146.309 115.49 146.309C115.936 146.309 116.301 146.205 116.586 145.998C116.875 145.791 117.088 145.498 117.225 145.119C117.361 144.74 117.43 144.293 117.43 143.777C117.43 143.266 117.361 142.824 117.225 142.453C117.088 142.078 116.877 141.789 116.592 141.586C116.307 141.383 115.938 141.281 115.484 141.281C114.816 141.281 114.326 141.502 114.014 141.943C113.705 142.385 113.551 142.996 113.551 143.777ZM125.422 140.578V147H124.625L124.484 146.098H124.432C124.299 146.32 124.127 146.508 123.916 146.66C123.705 146.812 123.467 146.926 123.201 147C122.939 147.078 122.66 147.117 122.363 147.117C121.855 147.117 121.43 147.035 121.086 146.871C120.742 146.707 120.482 146.453 120.307 146.109C120.135 145.766 120.049 145.324 120.049 144.785V140.578H121.033V144.715C121.033 145.25 121.154 145.65 121.396 145.916C121.639 146.178 122.008 146.309 122.504 146.309C122.98 146.309 123.359 146.219 123.641 146.039C123.926 145.859 124.131 145.596 124.256 145.248C124.381 144.896 124.443 144.467 124.443 143.959V140.578H125.422ZM135.822 146.988L134.68 143.25C134.629 143.09 134.58 142.934 134.533 142.781C134.49 142.625 134.449 142.477 134.41 142.336C134.375 142.191 134.342 142.059 134.311 141.938C134.283 141.812 134.26 141.705 134.24 141.615H134.199C134.184 141.705 134.162 141.812 134.135 141.938C134.107 142.059 134.074 142.191 134.035 142.336C134 142.48 133.961 142.633 133.918 142.793C133.875 142.949 133.826 143.107 133.771 143.268L132.576 146.988H131.48L129.711 140.566H130.719L131.645 144.111C131.707 144.346 131.766 144.578 131.82 144.809C131.879 145.035 131.928 145.25 131.967 145.453C132.01 145.652 132.041 145.826 132.061 145.975H132.107C132.131 145.877 132.156 145.76 132.184 145.623C132.215 145.486 132.248 145.342 132.283 145.189C132.322 145.033 132.363 144.879 132.406 144.727C132.449 144.57 132.492 144.424 132.535 144.287L133.719 140.566H134.768L135.91 144.281C135.969 144.469 136.025 144.664 136.08 144.867C136.139 145.07 136.191 145.268 136.238 145.459C136.285 145.646 136.318 145.814 136.338 145.963H136.385C136.4 145.83 136.43 145.666 136.473 145.471C136.516 145.275 136.564 145.061 136.619 144.826C136.678 144.592 136.738 144.354 136.801 144.111L137.738 140.566H138.729L136.953 146.988H135.822ZM140.873 140.578V147H139.9V140.578H140.873ZM140.398 138.176C140.559 138.176 140.695 138.229 140.809 138.334C140.926 138.436 140.984 138.596 140.984 138.814C140.984 139.029 140.926 139.189 140.809 139.295C140.695 139.4 140.559 139.453 140.398 139.453C140.23 139.453 140.09 139.4 139.977 139.295C139.867 139.189 139.812 139.029 139.812 138.814C139.812 138.596 139.867 138.436 139.977 138.334C140.09 138.229 140.23 138.176 140.398 138.176ZM143.914 147H142.936V137.883H143.914V147ZM146.949 147H145.971V137.883H146.949V147ZM153.096 137.883V140.162C153.096 140.424 153.088 140.678 153.072 140.924C153.061 141.17 153.051 141.361 153.043 141.498H153.096C153.271 141.209 153.525 140.965 153.857 140.766C154.189 140.566 154.613 140.467 155.129 140.467C155.934 140.467 156.574 140.746 157.051 141.305C157.531 141.859 157.771 142.686 157.771 143.783C157.771 144.506 157.662 145.115 157.443 145.611C157.225 146.107 156.916 146.482 156.518 146.736C156.119 146.99 155.648 147.117 155.105 147.117C154.598 147.117 154.18 147.023 153.852 146.836C153.527 146.645 153.277 146.412 153.102 146.139H153.025L152.826 147H152.123V137.883H153.096ZM154.971 141.281C154.506 141.281 154.137 141.373 153.863 141.557C153.59 141.736 153.393 142.01 153.271 142.377C153.154 142.74 153.096 143.201 153.096 143.76V143.812C153.096 144.621 153.23 145.24 153.5 145.67C153.77 146.096 154.26 146.309 154.971 146.309C155.568 146.309 156.016 146.09 156.312 145.652C156.613 145.215 156.764 144.59 156.764 143.777C156.764 142.949 156.615 142.326 156.318 141.908C156.025 141.49 155.576 141.281 154.971 141.281ZM161.943 140.461C162.49 140.461 162.959 140.582 163.35 140.824C163.74 141.066 164.039 141.406 164.246 141.844C164.453 142.277 164.557 142.785 164.557 143.367V143.971H160.121C160.133 144.725 160.32 145.299 160.684 145.693C161.047 146.088 161.559 146.285 162.219 146.285C162.625 146.285 162.984 146.248 163.297 146.174C163.609 146.1 163.934 145.99 164.27 145.846V146.701C163.945 146.846 163.623 146.951 163.303 147.018C162.986 147.084 162.611 147.117 162.178 147.117C161.561 147.117 161.021 146.992 160.561 146.742C160.104 146.488 159.748 146.117 159.494 145.629C159.24 145.141 159.113 144.543 159.113 143.836C159.113 143.145 159.229 142.547 159.459 142.043C159.693 141.535 160.021 141.145 160.443 140.871C160.869 140.598 161.369 140.461 161.943 140.461ZM161.932 141.258C161.412 141.258 160.998 141.428 160.689 141.768C160.381 142.107 160.197 142.582 160.139 143.191H163.537C163.533 142.809 163.473 142.473 163.355 142.184C163.242 141.891 163.068 141.664 162.834 141.504C162.6 141.34 162.299 141.258 161.932 141.258ZM173.48 145.242C173.48 145.652 173.377 145.998 173.17 146.279C172.967 146.557 172.674 146.766 172.291 146.906C171.912 147.047 171.459 147.117 170.932 147.117C170.482 147.117 170.094 147.082 169.766 147.012C169.438 146.941 169.15 146.842 168.904 146.713V145.816C169.166 145.945 169.479 146.062 169.842 146.168C170.205 146.273 170.576 146.326 170.955 146.326C171.51 146.326 171.912 146.236 172.162 146.057C172.412 145.877 172.537 145.633 172.537 145.324C172.537 145.148 172.486 144.994 172.385 144.861C172.287 144.725 172.121 144.594 171.887 144.469C171.652 144.34 171.328 144.199 170.914 144.047C170.504 143.891 170.148 143.736 169.848 143.584C169.551 143.428 169.32 143.238 169.156 143.016C168.996 142.793 168.916 142.504 168.916 142.148C168.916 141.605 169.135 141.189 169.572 140.9C170.014 140.607 170.592 140.461 171.307 140.461C171.693 140.461 172.055 140.5 172.391 140.578C172.73 140.652 173.047 140.754 173.34 140.883L173.012 141.662C172.746 141.549 172.463 141.453 172.162 141.375C171.861 141.297 171.555 141.258 171.242 141.258C170.793 141.258 170.447 141.332 170.205 141.48C169.967 141.629 169.848 141.832 169.848 142.09C169.848 142.289 169.902 142.453 170.012 142.582C170.125 142.711 170.305 142.832 170.551 142.945C170.797 143.059 171.121 143.191 171.523 143.344C171.926 143.492 172.273 143.646 172.566 143.807C172.859 143.963 173.084 144.154 173.24 144.381C173.4 144.604 173.48 144.891 173.48 145.242ZM177.518 140.461C178.064 140.461 178.533 140.582 178.924 140.824C179.314 141.066 179.613 141.406 179.82 141.844C180.027 142.277 180.131 142.785 180.131 143.367V143.971H175.695C175.707 144.725 175.895 145.299 176.258 145.693C176.621 146.088 177.133 146.285 177.793 146.285C178.199 146.285 178.559 146.248 178.871 146.174C179.184 146.1 179.508 145.99 179.844 145.846V146.701C179.52 146.846 179.197 146.951 178.877 147.018C178.561 147.084 178.186 147.117 177.752 147.117C177.135 147.117 176.596 146.992 176.135 146.742C175.678 146.488 175.322 146.117 175.068 145.629C174.814 145.141 174.688 144.543 174.688 143.836C174.688 143.145 174.803 142.547 175.033 142.043C175.268 141.535 175.596 141.145 176.018 140.871C176.443 140.598 176.943 140.461 177.518 140.461ZM177.506 141.258C176.986 141.258 176.572 141.428 176.264 141.768C175.955 142.107 175.771 142.582 175.713 143.191H179.111C179.107 142.809 179.047 142.473 178.93 142.184C178.816 141.891 178.643 141.664 178.408 141.504C178.174 141.34 177.873 141.258 177.506 141.258ZM184.824 140.461C185.586 140.461 186.162 140.648 186.553 141.023C186.943 141.395 187.139 141.992 187.139 142.816V147H186.178V142.881C186.178 142.346 186.055 141.945 185.809 141.68C185.566 141.414 185.193 141.281 184.689 141.281C183.979 141.281 183.479 141.482 183.189 141.885C182.9 142.287 182.756 142.871 182.756 143.637V147H181.783V140.578H182.568L182.715 141.504H182.768C182.904 141.277 183.078 141.088 183.289 140.936C183.5 140.779 183.736 140.662 183.998 140.584C184.26 140.502 184.535 140.461 184.824 140.461ZM191.217 146.32C191.377 146.32 191.541 146.307 191.709 146.279C191.877 146.252 192.014 146.219 192.119 146.18V146.936C192.006 146.986 191.848 147.029 191.645 147.064C191.445 147.1 191.25 147.117 191.059 147.117C190.719 147.117 190.41 147.059 190.133 146.941C189.855 146.82 189.633 146.617 189.465 146.332C189.301 146.047 189.219 145.652 189.219 145.148V141.34H188.305V140.865L189.225 140.484L189.611 139.09H190.197V140.578H192.078V141.34H190.197V145.119C190.197 145.521 190.289 145.822 190.473 146.021C190.66 146.221 190.908 146.32 191.217 146.32ZM198.939 140.473C199.705 140.473 200.273 140.645 200.645 140.988C201.016 141.332 201.201 141.881 201.201 142.635V147H200.492L200.305 146.051H200.258C200.078 146.285 199.891 146.482 199.695 146.643C199.5 146.799 199.273 146.918 199.016 147C198.762 147.078 198.449 147.117 198.078 147.117C197.688 147.117 197.34 147.049 197.035 146.912C196.734 146.775 196.496 146.568 196.32 146.291C196.148 146.014 196.062 145.662 196.062 145.236C196.062 144.596 196.316 144.104 196.824 143.76C197.332 143.416 198.105 143.229 199.145 143.197L200.252 143.15V142.758C200.252 142.203 200.133 141.814 199.895 141.592C199.656 141.369 199.32 141.258 198.887 141.258C198.551 141.258 198.23 141.307 197.926 141.404C197.621 141.502 197.332 141.617 197.059 141.75L196.76 141.012C197.049 140.863 197.381 140.736 197.756 140.631C198.131 140.525 198.525 140.473 198.939 140.473ZM200.24 143.836L199.262 143.877C198.461 143.908 197.896 144.039 197.568 144.27C197.24 144.5 197.076 144.826 197.076 145.248C197.076 145.615 197.188 145.887 197.41 146.062C197.633 146.238 197.928 146.326 198.295 146.326C198.865 146.326 199.332 146.168 199.695 145.852C200.059 145.535 200.24 145.061 200.24 144.428V143.836ZM207.734 147L205.297 140.578H206.34L207.752 144.463C207.85 144.729 207.949 145.021 208.051 145.342C208.152 145.662 208.223 145.92 208.262 146.115H208.303C208.35 145.92 208.428 145.662 208.537 145.342C208.646 145.018 208.746 144.725 208.836 144.463L210.248 140.578H211.291L208.848 147H207.734ZM214.795 140.461C215.342 140.461 215.811 140.582 216.201 140.824C216.592 141.066 216.891 141.406 217.098 141.844C217.305 142.277 217.408 142.785 217.408 143.367V143.971H212.973C212.984 144.725 213.172 145.299 213.535 145.693C213.898 146.088 214.41 146.285 215.07 146.285C215.477 146.285 215.836 146.248 216.148 146.174C216.461 146.1 216.785 145.99 217.121 145.846V146.701C216.797 146.846 216.475 146.951 216.154 147.018C215.838 147.084 215.463 147.117 215.029 147.117C214.412 147.117 213.873 146.992 213.412 146.742C212.955 146.488 212.6 146.117 212.346 145.629C212.092 145.141 211.965 144.543 211.965 143.836C211.965 143.145 212.08 142.547 212.311 142.043C212.545 141.535 212.873 141.145 213.295 140.871C213.721 140.598 214.221 140.461 214.795 140.461ZM214.783 141.258C214.264 141.258 213.85 141.428 213.541 141.768C213.232 142.107 213.049 142.582 212.99 143.191H216.389C216.385 142.809 216.324 142.473 216.207 142.184C216.094 141.891 215.92 141.664 215.686 141.504C215.451 141.34 215.15 141.258 214.783 141.258ZM221.979 140.461C222.107 140.461 222.242 140.469 222.383 140.484C222.523 140.496 222.648 140.514 222.758 140.537L222.635 141.439C222.529 141.412 222.412 141.391 222.283 141.375C222.154 141.359 222.033 141.352 221.92 141.352C221.662 141.352 221.418 141.404 221.188 141.51C220.961 141.611 220.762 141.76 220.59 141.955C220.418 142.146 220.283 142.379 220.186 142.652C220.088 142.922 220.039 143.223 220.039 143.555V147H219.061V140.578H219.869L219.975 141.762H220.016C220.148 141.523 220.309 141.307 220.496 141.111C220.684 140.912 220.9 140.754 221.146 140.637C221.396 140.52 221.674 140.461 221.979 140.461ZM224.943 140.578V147H223.971V140.578H224.943ZM224.469 138.176C224.629 138.176 224.766 138.229 224.879 138.334C224.996 138.436 225.055 138.596 225.055 138.814C225.055 139.029 224.996 139.189 224.879 139.295C224.766 139.4 224.629 139.453 224.469 139.453C224.301 139.453 224.16 139.4 224.047 139.295C223.938 139.189 223.883 139.029 223.883 138.814C223.883 138.596 223.938 138.436 224.047 138.334C224.16 138.229 224.301 138.176 224.469 138.176ZM229.865 141.34H228.266V147H227.293V141.34H226.156V140.871L227.293 140.549V140.121C227.293 139.582 227.373 139.145 227.533 138.809C227.693 138.469 227.926 138.219 228.23 138.059C228.535 137.898 228.906 137.818 229.344 137.818C229.59 137.818 229.814 137.84 230.018 137.883C230.225 137.926 230.406 137.975 230.562 138.029L230.311 138.797C230.178 138.754 230.027 138.715 229.859 138.68C229.695 138.641 229.527 138.621 229.355 138.621C228.984 138.621 228.709 138.742 228.529 138.984C228.354 139.223 228.266 139.598 228.266 140.109V140.578H229.865V141.34ZM232.016 140.578V147H231.043V140.578H232.016ZM231.541 138.176C231.701 138.176 231.838 138.229 231.951 138.334C232.068 138.436 232.127 138.596 232.127 138.814C232.127 139.029 232.068 139.189 231.951 139.295C231.838 139.4 231.701 139.453 231.541 139.453C231.373 139.453 231.232 139.4 231.119 139.295C231.01 139.189 230.955 139.029 230.955 138.814C230.955 138.596 231.01 138.436 231.119 138.334C231.232 138.229 231.373 138.176 231.541 138.176ZM236.645 147.117C236.066 147.117 235.557 146.998 235.115 146.76C234.674 146.521 234.33 146.158 234.084 145.67C233.838 145.182 233.715 144.566 233.715 143.824C233.715 143.047 233.844 142.412 234.102 141.92C234.363 141.424 234.723 141.057 235.18 140.818C235.637 140.58 236.156 140.461 236.738 140.461C237.059 140.461 237.367 140.494 237.664 140.561C237.965 140.623 238.211 140.703 238.402 140.801L238.109 141.615C237.914 141.537 237.688 141.467 237.43 141.404C237.176 141.342 236.938 141.311 236.715 141.311C236.27 141.311 235.898 141.406 235.602 141.598C235.309 141.789 235.088 142.07 234.939 142.441C234.795 142.812 234.723 143.27 234.723 143.812C234.723 144.332 234.793 144.775 234.934 145.143C235.078 145.51 235.291 145.791 235.572 145.986C235.857 146.178 236.213 146.273 236.639 146.273C236.979 146.273 237.285 146.238 237.559 146.168C237.832 146.094 238.08 146.008 238.303 145.91V146.777C238.088 146.887 237.848 146.971 237.582 147.029C237.32 147.088 237.008 147.117 236.645 147.117ZM242.229 140.473C242.994 140.473 243.562 140.645 243.934 140.988C244.305 141.332 244.49 141.881 244.49 142.635V147H243.781L243.594 146.051H243.547C243.367 146.285 243.18 146.482 242.984 146.643C242.789 146.799 242.562 146.918 242.305 147C242.051 147.078 241.738 147.117 241.367 147.117C240.977 147.117 240.629 147.049 240.324 146.912C240.023 146.775 239.785 146.568 239.609 146.291C239.438 146.014 239.352 145.662 239.352 145.236C239.352 144.596 239.605 144.104 240.113 143.76C240.621 143.416 241.395 143.229 242.434 143.197L243.541 143.15V142.758C243.541 142.203 243.422 141.814 243.184 141.592C242.945 141.369 242.609 141.258 242.176 141.258C241.84 141.258 241.52 141.307 241.215 141.404C240.91 141.502 240.621 141.617 240.348 141.75L240.049 141.012C240.338 140.863 240.67 140.736 241.045 140.631C241.42 140.525 241.814 140.473 242.229 140.473ZM243.529 143.836L242.551 143.877C241.75 143.908 241.186 144.039 240.857 144.27C240.529 144.5 240.365 144.826 240.365 145.248C240.365 145.615 240.477 145.887 240.699 146.062C240.922 146.238 241.217 146.326 241.584 146.326C242.154 146.326 242.621 146.168 242.984 145.852C243.348 145.535 243.529 145.061 243.529 144.428V143.836ZM248.568 146.32C248.729 146.32 248.893 146.307 249.061 146.279C249.229 146.252 249.365 146.219 249.471 146.18V146.936C249.357 146.986 249.199 147.029 248.996 147.064C248.797 147.1 248.602 147.117 248.41 147.117C248.07 147.117 247.762 147.059 247.484 146.941C247.207 146.82 246.984 146.617 246.816 146.332C246.652 146.047 246.57 145.652 246.57 145.148V141.34H245.656V140.865L246.576 140.484L246.963 139.09H247.549V140.578H249.43V141.34H247.549V145.119C247.549 145.521 247.641 145.822 247.824 146.021C248.012 146.221 248.26 146.32 248.568 146.32ZM251.744 140.578V147H250.771V140.578H251.744ZM251.27 138.176C251.43 138.176 251.566 138.229 251.68 138.334C251.797 138.436 251.855 138.596 251.855 138.814C251.855 139.029 251.797 139.189 251.68 139.295C251.566 139.4 251.43 139.453 251.27 139.453C251.102 139.453 250.961 139.4 250.848 139.295C250.738 139.189 250.684 139.029 250.684 138.814C250.684 138.596 250.738 138.436 250.848 138.334C250.961 138.229 251.102 138.176 251.27 138.176ZM259.344 143.777C259.344 144.305 259.275 144.775 259.139 145.189C259.002 145.604 258.805 145.953 258.547 146.238C258.289 146.523 257.977 146.742 257.609 146.895C257.246 147.043 256.834 147.117 256.373 147.117C255.943 147.117 255.549 147.043 255.189 146.895C254.834 146.742 254.525 146.523 254.264 146.238C254.006 145.953 253.805 145.604 253.66 145.189C253.52 144.775 253.449 144.305 253.449 143.777C253.449 143.074 253.568 142.477 253.807 141.984C254.045 141.488 254.385 141.111 254.826 140.854C255.271 140.592 255.801 140.461 256.414 140.461C257 140.461 257.512 140.592 257.949 140.854C258.391 141.115 258.732 141.494 258.975 141.99C259.221 142.482 259.344 143.078 259.344 143.777ZM254.457 143.777C254.457 144.293 254.525 144.74 254.662 145.119C254.799 145.498 255.01 145.791 255.295 145.998C255.58 146.205 255.947 146.309 256.396 146.309C256.842 146.309 257.207 146.205 257.492 145.998C257.781 145.791 257.994 145.498 258.131 145.119C258.268 144.74 258.336 144.293 258.336 143.777C258.336 143.266 258.268 142.824 258.131 142.453C257.994 142.078 257.783 141.789 257.498 141.586C257.213 141.383 256.844 141.281 256.391 141.281C255.723 141.281 255.232 141.502 254.92 141.943C254.611 142.385 254.457 142.996 254.457 143.777ZM264.066 140.461C264.828 140.461 265.404 140.648 265.795 141.023C266.186 141.395 266.381 141.992 266.381 142.816V147H265.42V142.881C265.42 142.346 265.297 141.945 265.051 141.68C264.809 141.414 264.436 141.281 263.932 141.281C263.221 141.281 262.721 141.482 262.432 141.885C262.143 142.287 261.998 142.871 261.998 143.637V147H261.025V140.578H261.811L261.957 141.504H262.01C262.146 141.277 262.32 141.088 262.531 140.936C262.742 140.779 262.979 140.662 263.24 140.584C263.502 140.502 263.777 140.461 264.066 140.461ZM274.074 147.117C273.496 147.117 272.986 146.998 272.545 146.76C272.104 146.521 271.76 146.158 271.514 145.67C271.268 145.182 271.145 144.566 271.145 143.824C271.145 143.047 271.273 142.412 271.531 141.92C271.793 141.424 272.152 141.057 272.609 140.818C273.066 140.58 273.586 140.461 274.168 140.461C274.488 140.461 274.797 140.494 275.094 140.561C275.395 140.623 275.641 140.703 275.832 140.801L275.539 141.615C275.344 141.537 275.117 141.467 274.859 141.404C274.605 141.342 274.367 141.311 274.145 141.311C273.699 141.311 273.328 141.406 273.031 141.598C272.738 141.789 272.518 142.07 272.369 142.441C272.225 142.812 272.152 143.27 272.152 143.812C272.152 144.332 272.223 144.775 272.363 145.143C272.508 145.51 272.721 145.791 273.002 145.986C273.287 146.178 273.643 146.273 274.068 146.273C274.408 146.273 274.715 146.238 274.988 146.168C275.262 146.094 275.51 146.008 275.732 145.91V146.777C275.518 146.887 275.277 146.971 275.012 147.029C274.75 147.088 274.438 147.117 274.074 147.117ZM282.793 143.777C282.793 144.305 282.725 144.775 282.588 145.189C282.451 145.604 282.254 145.953 281.996 146.238C281.738 146.523 281.426 146.742 281.059 146.895C280.695 147.043 280.283 147.117 279.822 147.117C279.393 147.117 278.998 147.043 278.639 146.895C278.283 146.742 277.975 146.523 277.713 146.238C277.455 145.953 277.254 145.604 277.109 145.189C276.969 144.775 276.898 144.305 276.898 143.777C276.898 143.074 277.018 142.477 277.256 141.984C277.494 141.488 277.834 141.111 278.275 140.854C278.721 140.592 279.25 140.461 279.863 140.461C280.449 140.461 280.961 140.592 281.398 140.854C281.84 141.115 282.182 141.494 282.424 141.99C282.67 142.482 282.793 143.078 282.793 143.777ZM277.906 143.777C277.906 144.293 277.975 144.74 278.111 145.119C278.248 145.498 278.459 145.791 278.744 145.998C279.029 146.205 279.396 146.309 279.846 146.309C280.291 146.309 280.656 146.205 280.941 145.998C281.23 145.791 281.443 145.498 281.58 145.119C281.717 144.74 281.785 144.293 281.785 143.777C281.785 143.266 281.717 142.824 281.58 142.453C281.443 142.078 281.232 141.789 280.947 141.586C280.662 141.383 280.293 141.281 279.84 141.281C279.172 141.281 278.682 141.502 278.369 141.943C278.061 142.385 277.906 142.996 277.906 143.777ZM286.76 147.117C285.947 147.117 285.303 146.84 284.826 146.285C284.354 145.73 284.117 144.906 284.117 143.812C284.117 142.707 284.359 141.873 284.844 141.311C285.328 140.744 285.973 140.461 286.777 140.461C287.117 140.461 287.414 140.506 287.668 140.596C287.922 140.686 288.141 140.807 288.324 140.959C288.508 141.107 288.662 141.277 288.787 141.469H288.857C288.842 141.348 288.826 141.182 288.811 140.971C288.795 140.76 288.787 140.588 288.787 140.455V137.883H289.76V147H288.975L288.828 146.086H288.787C288.666 146.277 288.512 146.451 288.324 146.607C288.141 146.764 287.92 146.889 287.662 146.982C287.408 147.072 287.107 147.117 286.76 147.117ZM286.912 146.309C287.6 146.309 288.086 146.113 288.371 145.723C288.656 145.332 288.799 144.752 288.799 143.982V143.807C288.799 142.99 288.662 142.363 288.389 141.926C288.119 141.488 287.627 141.27 286.912 141.27C286.314 141.27 285.867 141.5 285.57 141.961C285.273 142.418 285.125 143.043 285.125 143.836C285.125 144.625 285.271 145.234 285.564 145.664C285.861 146.094 286.311 146.309 286.912 146.309ZM294.295 140.461C294.842 140.461 295.311 140.582 295.701 140.824C296.092 141.066 296.391 141.406 296.598 141.844C296.805 142.277 296.908 142.785 296.908 143.367V143.971H292.473C292.484 144.725 292.672 145.299 293.035 145.693C293.398 146.088 293.91 146.285 294.57 146.285C294.977 146.285 295.336 146.248 295.648 146.174C295.961 146.1 296.285 145.99 296.621 145.846V146.701C296.297 146.846 295.975 146.951 295.654 147.018C295.338 147.084 294.963 147.117 294.529 147.117C293.912 147.117 293.373 146.992 292.912 146.742C292.455 146.488 292.1 146.117 291.846 145.629C291.592 145.141 291.465 144.543 291.465 143.836C291.465 143.145 291.58 142.547 291.811 142.043C292.045 141.535 292.373 141.145 292.795 140.871C293.221 140.598 293.721 140.461 294.295 140.461ZM294.283 141.258C293.764 141.258 293.35 141.428 293.041 141.768C292.732 142.107 292.549 142.582 292.49 143.191H295.889C295.885 142.809 295.824 142.473 295.707 142.184C295.594 141.891 295.42 141.664 295.186 141.504C294.951 141.34 294.65 141.258 294.283 141.258ZM307.215 143.777C307.215 144.305 307.146 144.775 307.01 145.189C306.873 145.604 306.676 145.953 306.418 146.238C306.16 146.523 305.848 146.742 305.48 146.895C305.117 147.043 304.705 147.117 304.244 147.117C303.814 147.117 303.42 147.043 303.061 146.895C302.705 146.742 302.396 146.523 302.135 146.238C301.877 145.953 301.676 145.604 301.531 145.189C301.391 144.775 301.32 144.305 301.32 143.777C301.32 143.074 301.439 142.477 301.678 141.984C301.916 141.488 302.256 141.111 302.697 140.854C303.143 140.592 303.672 140.461 304.285 140.461C304.871 140.461 305.383 140.592 305.82 140.854C306.262 141.115 306.604 141.494 306.846 141.99C307.092 142.482 307.215 143.078 307.215 143.777ZM302.328 143.777C302.328 144.293 302.396 144.74 302.533 145.119C302.67 145.498 302.881 145.791 303.166 145.998C303.451 146.205 303.818 146.309 304.268 146.309C304.713 146.309 305.078 146.205 305.363 145.998C305.652 145.791 305.865 145.498 306.002 145.119C306.139 144.74 306.207 144.293 306.207 143.777C306.207 143.266 306.139 142.824 306.002 142.453C305.865 142.078 305.654 141.789 305.369 141.586C305.084 141.383 304.715 141.281 304.262 141.281C303.594 141.281 303.104 141.502 302.791 141.943C302.482 142.385 302.328 142.996 302.328 143.777ZM311.938 140.461C312.699 140.461 313.275 140.648 313.666 141.023C314.057 141.395 314.252 141.992 314.252 142.816V147H313.291V142.881C313.291 142.346 313.168 141.945 312.922 141.68C312.68 141.414 312.307 141.281 311.803 141.281C311.092 141.281 310.592 141.482 310.303 141.885C310.014 142.287 309.869 142.871 309.869 143.637V147H308.896V140.578H309.682L309.828 141.504H309.881C310.018 141.277 310.191 141.088 310.402 140.936C310.613 140.779 310.85 140.662 311.111 140.584C311.373 140.502 311.648 140.461 311.938 140.461ZM318.828 147.117C318.25 147.117 317.74 146.998 317.299 146.76C316.857 146.521 316.514 146.158 316.268 145.67C316.021 145.182 315.898 144.566 315.898 143.824C315.898 143.047 316.027 142.412 316.285 141.92C316.547 141.424 316.906 141.057 317.363 140.818C317.82 140.58 318.34 140.461 318.922 140.461C319.242 140.461 319.551 140.494 319.848 140.561C320.148 140.623 320.395 140.703 320.586 140.801L320.293 141.615C320.098 141.537 319.871 141.467 319.613 141.404C319.359 141.342 319.121 141.311 318.898 141.311C318.453 141.311 318.082 141.406 317.785 141.598C317.492 141.789 317.271 142.07 317.123 142.441C316.979 142.812 316.906 143.27 316.906 143.812C316.906 144.332 316.977 144.775 317.117 145.143C317.262 145.51 317.475 145.791 317.756 145.986C318.041 146.178 318.396 146.273 318.822 146.273C319.162 146.273 319.469 146.238 319.742 146.168C320.016 146.094 320.264 146.008 320.486 145.91V146.777C320.271 146.887 320.031 146.971 319.766 147.029C319.504 147.088 319.191 147.117 318.828 147.117ZM324.482 140.461C325.029 140.461 325.498 140.582 325.889 140.824C326.279 141.066 326.578 141.406 326.785 141.844C326.992 142.277 327.096 142.785 327.096 143.367V143.971H322.66C322.672 144.725 322.859 145.299 323.223 145.693C323.586 146.088 324.098 146.285 324.758 146.285C325.164 146.285 325.523 146.248 325.836 146.174C326.148 146.1 326.473 145.99 326.809 145.846V146.701C326.484 146.846 326.162 146.951 325.842 147.018C325.525 147.084 325.15 147.117 324.717 147.117C324.1 147.117 323.561 146.992 323.1 146.742C322.643 146.488 322.287 146.117 322.033 145.629C321.779 145.141 321.652 144.543 321.652 143.836C321.652 143.145 321.768 142.547 321.998 142.043C322.232 141.535 322.561 141.145 322.982 140.871C323.408 140.598 323.908 140.461 324.482 140.461ZM324.471 141.258C323.951 141.258 323.537 141.428 323.229 141.768C322.92 142.107 322.736 142.582 322.678 143.191H326.076C326.072 142.809 326.012 142.473 325.895 142.184C325.781 141.891 325.607 141.664 325.373 141.504C325.139 141.34 324.838 141.258 324.471 141.258ZM126.617 162.32C126.777 162.32 126.941 162.307 127.109 162.279C127.277 162.252 127.414 162.219 127.52 162.18V162.936C127.406 162.986 127.248 163.029 127.045 163.064C126.846 163.1 126.65 163.117 126.459 163.117C126.119 163.117 125.811 163.059 125.533 162.941C125.256 162.82 125.033 162.617 124.865 162.332C124.701 162.047 124.619 161.652 124.619 161.148V157.34H123.705V156.865L124.625 156.484L125.012 155.09H125.598V156.578H127.479V157.34H125.598V161.119C125.598 161.521 125.689 161.822 125.873 162.021C126.061 162.221 126.309 162.32 126.617 162.32ZM134.357 159.777C134.357 160.305 134.289 160.775 134.152 161.189C134.016 161.604 133.818 161.953 133.561 162.238C133.303 162.523 132.99 162.742 132.623 162.895C132.26 163.043 131.848 163.117 131.387 163.117C130.957 163.117 130.562 163.043 130.203 162.895C129.848 162.742 129.539 162.523 129.277 162.238C129.02 161.953 128.818 161.604 128.674 161.189C128.533 160.775 128.463 160.305 128.463 159.777C128.463 159.074 128.582 158.477 128.82 157.984C129.059 157.488 129.398 157.111 129.84 156.854C130.285 156.592 130.814 156.461 131.428 156.461C132.014 156.461 132.525 156.592 132.963 156.854C133.404 157.115 133.746 157.494 133.988 157.99C134.234 158.482 134.357 159.078 134.357 159.777ZM129.471 159.777C129.471 160.293 129.539 160.74 129.676 161.119C129.812 161.498 130.023 161.791 130.309 161.998C130.594 162.205 130.961 162.309 131.41 162.309C131.855 162.309 132.221 162.205 132.506 161.998C132.795 161.791 133.008 161.498 133.145 161.119C133.281 160.74 133.35 160.293 133.35 159.777C133.35 159.266 133.281 158.824 133.145 158.453C133.008 158.078 132.797 157.789 132.512 157.586C132.227 157.383 131.857 157.281 131.404 157.281C130.736 157.281 130.246 157.502 129.934 157.943C129.625 158.385 129.471 158.996 129.471 159.777ZM140.129 153.883V156.162C140.129 156.424 140.121 156.678 140.105 156.924C140.094 157.17 140.084 157.361 140.076 157.498H140.129C140.305 157.209 140.559 156.965 140.891 156.766C141.223 156.566 141.646 156.467 142.162 156.467C142.967 156.467 143.607 156.746 144.084 157.305C144.564 157.859 144.805 158.686 144.805 159.783C144.805 160.506 144.695 161.115 144.477 161.611C144.258 162.107 143.949 162.482 143.551 162.736C143.152 162.99 142.682 163.117 142.139 163.117C141.631 163.117 141.213 163.023 140.885 162.836C140.561 162.645 140.311 162.412 140.135 162.139H140.059L139.859 163H139.156V153.883H140.129ZM142.004 157.281C141.539 157.281 141.17 157.373 140.896 157.557C140.623 157.736 140.426 158.01 140.305 158.377C140.188 158.74 140.129 159.201 140.129 159.76V159.812C140.129 160.621 140.264 161.24 140.533 161.67C140.803 162.096 141.293 162.309 142.004 162.309C142.602 162.309 143.049 162.09 143.346 161.652C143.646 161.215 143.797 160.59 143.797 159.777C143.797 158.949 143.648 158.326 143.352 157.908C143.059 157.49 142.609 157.281 142.004 157.281ZM148.977 156.461C149.523 156.461 149.992 156.582 150.383 156.824C150.773 157.066 151.072 157.406 151.279 157.844C151.486 158.277 151.59 158.785 151.59 159.367V159.971H147.154C147.166 160.725 147.354 161.299 147.717 161.693C148.08 162.088 148.592 162.285 149.252 162.285C149.658 162.285 150.018 162.248 150.33 162.174C150.643 162.1 150.967 161.99 151.303 161.846V162.701C150.979 162.846 150.656 162.951 150.336 163.018C150.02 163.084 149.645 163.117 149.211 163.117C148.594 163.117 148.055 162.992 147.594 162.742C147.137 162.488 146.781 162.117 146.527 161.629C146.273 161.141 146.146 160.543 146.146 159.836C146.146 159.145 146.262 158.547 146.492 158.043C146.727 157.535 147.055 157.145 147.477 156.871C147.902 156.598 148.402 156.461 148.977 156.461ZM148.965 157.258C148.445 157.258 148.031 157.428 147.723 157.768C147.414 158.107 147.23 158.582 147.172 159.191H150.57C150.566 158.809 150.506 158.473 150.389 158.184C150.275 157.891 150.102 157.664 149.867 157.504C149.633 157.34 149.332 157.258 148.965 157.258ZM158.762 156.473C159.527 156.473 160.096 156.645 160.467 156.988C160.838 157.332 161.023 157.881 161.023 158.635V163H160.314L160.127 162.051H160.08C159.9 162.285 159.713 162.482 159.518 162.643C159.322 162.799 159.096 162.918 158.838 163C158.584 163.078 158.271 163.117 157.9 163.117C157.51 163.117 157.162 163.049 156.857 162.912C156.557 162.775 156.318 162.568 156.143 162.291C155.971 162.014 155.885 161.662 155.885 161.236C155.885 160.596 156.139 160.104 156.646 159.76C157.154 159.416 157.928 159.229 158.967 159.197L160.074 159.15V158.758C160.074 158.203 159.955 157.814 159.717 157.592C159.479 157.369 159.143 157.258 158.709 157.258C158.373 157.258 158.053 157.307 157.748 157.404C157.443 157.502 157.154 157.617 156.881 157.75L156.582 157.012C156.871 156.863 157.203 156.736 157.578 156.631C157.953 156.525 158.348 156.473 158.762 156.473ZM160.062 159.836L159.084 159.877C158.283 159.908 157.719 160.039 157.391 160.27C157.062 160.5 156.898 160.826 156.898 161.248C156.898 161.615 157.01 161.887 157.232 162.062C157.455 162.238 157.75 162.326 158.117 162.326C158.688 162.326 159.154 162.168 159.518 161.852C159.881 161.535 160.062 161.061 160.062 160.428V159.836ZM164 153.883V156.162C164 156.424 163.992 156.678 163.977 156.924C163.965 157.17 163.955 157.361 163.947 157.498H164C164.176 157.209 164.43 156.965 164.762 156.766C165.094 156.566 165.518 156.467 166.033 156.467C166.838 156.467 167.479 156.746 167.955 157.305C168.436 157.859 168.676 158.686 168.676 159.783C168.676 160.506 168.566 161.115 168.348 161.611C168.129 162.107 167.82 162.482 167.422 162.736C167.023 162.99 166.553 163.117 166.01 163.117C165.502 163.117 165.084 163.023 164.756 162.836C164.432 162.645 164.182 162.412 164.006 162.139H163.93L163.73 163H163.027V153.883H164ZM165.875 157.281C165.41 157.281 165.041 157.373 164.768 157.557C164.494 157.736 164.297 158.01 164.176 158.377C164.059 158.74 164 159.201 164 159.76V159.812C164 160.621 164.135 161.24 164.404 161.67C164.674 162.096 165.164 162.309 165.875 162.309C166.473 162.309 166.92 162.09 167.217 161.652C167.518 161.215 167.668 160.59 167.668 159.777C167.668 158.949 167.52 158.326 167.223 157.908C166.93 157.49 166.48 157.281 165.875 157.281ZM171.354 163H170.375V153.883H171.354V163ZM175.883 156.461C176.43 156.461 176.898 156.582 177.289 156.824C177.68 157.066 177.979 157.406 178.186 157.844C178.393 158.277 178.496 158.785 178.496 159.367V159.971H174.061C174.072 160.725 174.26 161.299 174.623 161.693C174.986 162.088 175.498 162.285 176.158 162.285C176.564 162.285 176.924 162.248 177.236 162.174C177.549 162.1 177.873 161.99 178.209 161.846V162.701C177.885 162.846 177.562 162.951 177.242 163.018C176.926 163.084 176.551 163.117 176.117 163.117C175.5 163.117 174.961 162.992 174.5 162.742C174.043 162.488 173.688 162.117 173.434 161.629C173.18 161.141 173.053 160.543 173.053 159.836C173.053 159.145 173.168 158.547 173.398 158.043C173.633 157.535 173.961 157.145 174.383 156.871C174.809 156.598 175.309 156.461 175.883 156.461ZM175.871 157.258C175.352 157.258 174.938 157.428 174.629 157.768C174.32 158.107 174.137 158.582 174.078 159.191H177.477C177.473 158.809 177.412 158.473 177.295 158.184C177.182 157.891 177.008 157.664 176.773 157.504C176.539 157.34 176.238 157.258 175.871 157.258ZM185.34 162.32C185.5 162.32 185.664 162.307 185.832 162.279C186 162.252 186.137 162.219 186.242 162.18V162.936C186.129 162.986 185.971 163.029 185.768 163.064C185.568 163.1 185.373 163.117 185.182 163.117C184.842 163.117 184.533 163.059 184.256 162.941C183.979 162.82 183.756 162.617 183.588 162.332C183.424 162.047 183.342 161.652 183.342 161.148V157.34H182.428V156.865L183.348 156.484L183.734 155.09H184.32V156.578H186.201V157.34H184.32V161.119C184.32 161.521 184.412 161.822 184.596 162.021C184.783 162.221 185.031 162.32 185.34 162.32ZM193.08 159.777C193.08 160.305 193.012 160.775 192.875 161.189C192.738 161.604 192.541 161.953 192.283 162.238C192.025 162.523 191.713 162.742 191.346 162.895C190.982 163.043 190.57 163.117 190.109 163.117C189.68 163.117 189.285 163.043 188.926 162.895C188.57 162.742 188.262 162.523 188 162.238C187.742 161.953 187.541 161.604 187.396 161.189C187.256 160.775 187.186 160.305 187.186 159.777C187.186 159.074 187.305 158.477 187.543 157.984C187.781 157.488 188.121 157.111 188.562 156.854C189.008 156.592 189.537 156.461 190.15 156.461C190.736 156.461 191.248 156.592 191.686 156.854C192.127 157.115 192.469 157.494 192.711 157.99C192.957 158.482 193.08 159.078 193.08 159.777ZM188.193 159.777C188.193 160.293 188.262 160.74 188.398 161.119C188.535 161.498 188.746 161.791 189.031 161.998C189.316 162.205 189.684 162.309 190.133 162.309C190.578 162.309 190.943 162.205 191.229 161.998C191.518 161.791 191.73 161.498 191.867 161.119C192.004 160.74 192.072 160.293 192.072 159.777C192.072 159.266 192.004 158.824 191.867 158.453C191.73 158.078 191.52 157.789 191.234 157.586C190.949 157.383 190.58 157.281 190.127 157.281C189.459 157.281 188.969 157.502 188.656 157.943C188.348 158.385 188.193 158.996 188.193 159.777ZM200.281 156.473C201.047 156.473 201.615 156.645 201.986 156.988C202.357 157.332 202.543 157.881 202.543 158.635V163H201.834L201.646 162.051H201.6C201.42 162.285 201.232 162.482 201.037 162.643C200.842 162.799 200.615 162.918 200.357 163C200.104 163.078 199.791 163.117 199.42 163.117C199.029 163.117 198.682 163.049 198.377 162.912C198.076 162.775 197.838 162.568 197.662 162.291C197.49 162.014 197.404 161.662 197.404 161.236C197.404 160.596 197.658 160.104 198.166 159.76C198.674 159.416 199.447 159.229 200.486 159.197L201.594 159.15V158.758C201.594 158.203 201.475 157.814 201.236 157.592C200.998 157.369 200.662 157.258 200.229 157.258C199.893 157.258 199.572 157.307 199.268 157.404C198.963 157.502 198.674 157.617 198.4 157.75L198.102 157.012C198.391 156.863 198.723 156.736 199.098 156.631C199.473 156.525 199.867 156.473 200.281 156.473ZM201.582 159.836L200.604 159.877C199.803 159.908 199.238 160.039 198.91 160.27C198.582 160.5 198.418 160.826 198.418 161.248C198.418 161.615 198.529 161.887 198.752 162.062C198.975 162.238 199.27 162.326 199.637 162.326C200.207 162.326 200.674 162.168 201.037 161.852C201.4 161.535 201.582 161.061 201.582 160.428V159.836ZM207.119 163.117C206.541 163.117 206.031 162.998 205.59 162.76C205.148 162.521 204.805 162.158 204.559 161.67C204.312 161.182 204.189 160.566 204.189 159.824C204.189 159.047 204.318 158.412 204.576 157.92C204.838 157.424 205.197 157.057 205.654 156.818C206.111 156.58 206.631 156.461 207.213 156.461C207.533 156.461 207.842 156.494 208.139 156.561C208.439 156.623 208.686 156.703 208.877 156.801L208.584 157.615C208.389 157.537 208.162 157.467 207.904 157.404C207.65 157.342 207.412 157.311 207.189 157.311C206.744 157.311 206.373 157.406 206.076 157.598C205.783 157.789 205.562 158.07 205.414 158.441C205.27 158.812 205.197 159.27 205.197 159.812C205.197 160.332 205.268 160.775 205.408 161.143C205.553 161.51 205.766 161.791 206.047 161.986C206.332 162.178 206.688 162.273 207.113 162.273C207.453 162.273 207.76 162.238 208.033 162.168C208.307 162.094 208.555 162.008 208.777 161.91V162.777C208.562 162.887 208.322 162.971 208.057 163.029C207.795 163.088 207.482 163.117 207.119 163.117ZM212.873 163.117C212.295 163.117 211.785 162.998 211.344 162.76C210.902 162.521 210.559 162.158 210.312 161.67C210.066 161.182 209.943 160.566 209.943 159.824C209.943 159.047 210.072 158.412 210.33 157.92C210.592 157.424 210.951 157.057 211.408 156.818C211.865 156.58 212.385 156.461 212.967 156.461C213.287 156.461 213.596 156.494 213.893 156.561C214.193 156.623 214.439 156.703 214.631 156.801L214.338 157.615C214.143 157.537 213.916 157.467 213.658 157.404C213.404 157.342 213.166 157.311 212.943 157.311C212.498 157.311 212.127 157.406 211.83 157.598C211.537 157.789 211.316 158.07 211.168 158.441C211.023 158.812 210.951 159.27 210.951 159.812C210.951 160.332 211.021 160.775 211.162 161.143C211.307 161.51 211.52 161.791 211.801 161.986C212.086 162.178 212.441 162.273 212.867 162.273C213.207 162.273 213.514 162.238 213.787 162.168C214.061 162.094 214.309 162.008 214.531 161.91V162.777C214.316 162.887 214.076 162.971 213.811 163.029C213.549 163.088 213.236 163.117 212.873 163.117ZM218.527 156.461C219.074 156.461 219.543 156.582 219.934 156.824C220.324 157.066 220.623 157.406 220.83 157.844C221.037 158.277 221.141 158.785 221.141 159.367V159.971H216.705C216.717 160.725 216.904 161.299 217.268 161.693C217.631 162.088 218.143 162.285 218.803 162.285C219.209 162.285 219.568 162.248 219.881 162.174C220.193 162.1 220.518 161.99 220.854 161.846V162.701C220.529 162.846 220.207 162.951 219.887 163.018C219.57 163.084 219.195 163.117 218.762 163.117C218.145 163.117 217.605 162.992 217.145 162.742C216.688 162.488 216.332 162.117 216.078 161.629C215.824 161.141 215.697 160.543 215.697 159.836C215.697 159.145 215.812 158.547 216.043 158.043C216.277 157.535 216.605 157.145 217.027 156.871C217.453 156.598 217.953 156.461 218.527 156.461ZM218.516 157.258C217.996 157.258 217.582 157.428 217.273 157.768C216.965 158.107 216.781 158.582 216.723 159.191H220.121C220.117 158.809 220.057 158.473 219.939 158.184C219.826 157.891 219.652 157.664 219.418 157.504C219.184 157.34 218.883 157.258 218.516 157.258ZM226.947 161.242C226.947 161.652 226.844 161.998 226.637 162.279C226.434 162.557 226.141 162.766 225.758 162.906C225.379 163.047 224.926 163.117 224.398 163.117C223.949 163.117 223.561 163.082 223.232 163.012C222.904 162.941 222.617 162.842 222.371 162.713V161.816C222.633 161.945 222.945 162.062 223.309 162.168C223.672 162.273 224.043 162.326 224.422 162.326C224.977 162.326 225.379 162.236 225.629 162.057C225.879 161.877 226.004 161.633 226.004 161.324C226.004 161.148 225.953 160.994 225.852 160.861C225.754 160.725 225.588 160.594 225.354 160.469C225.119 160.34 224.795 160.199 224.381 160.047C223.971 159.891 223.615 159.736 223.314 159.584C223.018 159.428 222.787 159.238 222.623 159.016C222.463 158.793 222.383 158.504 222.383 158.148C222.383 157.605 222.602 157.189 223.039 156.9C223.48 156.607 224.059 156.461 224.773 156.461C225.16 156.461 225.521 156.5 225.857 156.578C226.197 156.652 226.514 156.754 226.807 156.883L226.479 157.662C226.213 157.549 225.93 157.453 225.629 157.375C225.328 157.297 225.021 157.258 224.709 157.258C224.26 157.258 223.914 157.332 223.672 157.48C223.434 157.629 223.314 157.832 223.314 158.09C223.314 158.289 223.369 158.453 223.479 158.582C223.592 158.711 223.771 158.832 224.018 158.945C224.264 159.059 224.588 159.191 224.99 159.344C225.393 159.492 225.74 159.646 226.033 159.807C226.326 159.963 226.551 160.154 226.707 160.381C226.867 160.604 226.947 160.891 226.947 161.242ZM232.666 161.242C232.666 161.652 232.562 161.998 232.355 162.279C232.152 162.557 231.859 162.766 231.477 162.906C231.098 163.047 230.645 163.117 230.117 163.117C229.668 163.117 229.279 163.082 228.951 163.012C228.623 162.941 228.336 162.842 228.09 162.713V161.816C228.352 161.945 228.664 162.062 229.027 162.168C229.391 162.273 229.762 162.326 230.141 162.326C230.695 162.326 231.098 162.236 231.348 162.057C231.598 161.877 231.723 161.633 231.723 161.324C231.723 161.148 231.672 160.994 231.57 160.861C231.473 160.725 231.307 160.594 231.072 160.469C230.838 160.34 230.514 160.199 230.1 160.047C229.689 159.891 229.334 159.736 229.033 159.584C228.736 159.428 228.506 159.238 228.342 159.016C228.182 158.793 228.102 158.504 228.102 158.148C228.102 157.605 228.32 157.189 228.758 156.9C229.199 156.607 229.777 156.461 230.492 156.461C230.879 156.461 231.24 156.5 231.576 156.578C231.916 156.652 232.232 156.754 232.525 156.883L232.197 157.662C231.932 157.549 231.648 157.453 231.348 157.375C231.047 157.297 230.74 157.258 230.428 157.258C229.979 157.258 229.633 157.332 229.391 157.48C229.152 157.629 229.033 157.832 229.033 158.09C229.033 158.289 229.088 158.453 229.197 158.582C229.311 158.711 229.49 158.832 229.736 158.945C229.982 159.059 230.307 159.191 230.709 159.344C231.111 159.492 231.459 159.646 231.752 159.807C232.045 159.963 232.27 160.154 232.426 160.381C232.586 160.604 232.666 160.891 232.666 161.242ZM236.334 156.578H237.377L238.795 160.305C238.877 160.523 238.953 160.734 239.023 160.938C239.094 161.137 239.156 161.328 239.211 161.512C239.266 161.695 239.309 161.873 239.34 162.045H239.381C239.436 161.85 239.514 161.594 239.615 161.277C239.717 160.957 239.826 160.631 239.943 160.299L241.285 156.578H242.334L239.539 163.943C239.391 164.338 239.217 164.682 239.018 164.975C238.822 165.268 238.584 165.492 238.303 165.648C238.021 165.809 237.682 165.889 237.283 165.889C237.1 165.889 236.938 165.877 236.797 165.854C236.656 165.834 236.535 165.811 236.434 165.783V165.004C236.52 165.023 236.623 165.041 236.744 165.057C236.869 165.072 236.998 165.08 237.131 165.08C237.373 165.08 237.582 165.033 237.758 164.939C237.938 164.85 238.092 164.717 238.221 164.541C238.35 164.365 238.461 164.156 238.555 163.914L238.906 163.012L236.334 156.578ZM248.896 159.777C248.896 160.305 248.828 160.775 248.691 161.189C248.555 161.604 248.357 161.953 248.1 162.238C247.842 162.523 247.529 162.742 247.162 162.895C246.799 163.043 246.387 163.117 245.926 163.117C245.496 163.117 245.102 163.043 244.742 162.895C244.387 162.742 244.078 162.523 243.816 162.238C243.559 161.953 243.357 161.604 243.213 161.189C243.072 160.775 243.002 160.305 243.002 159.777C243.002 159.074 243.121 158.477 243.359 157.984C243.598 157.488 243.938 157.111 244.379 156.854C244.824 156.592 245.354 156.461 245.967 156.461C246.553 156.461 247.064 156.592 247.502 156.854C247.943 157.115 248.285 157.494 248.527 157.99C248.773 158.482 248.896 159.078 248.896 159.777ZM244.01 159.777C244.01 160.293 244.078 160.74 244.215 161.119C244.352 161.498 244.562 161.791 244.848 161.998C245.133 162.205 245.5 162.309 245.949 162.309C246.395 162.309 246.76 162.205 247.045 161.998C247.334 161.791 247.547 161.498 247.684 161.119C247.82 160.74 247.889 160.293 247.889 159.777C247.889 159.266 247.82 158.824 247.684 158.453C247.547 158.078 247.336 157.789 247.051 157.586C246.766 157.383 246.396 157.281 245.943 157.281C245.275 157.281 244.785 157.502 244.473 157.943C244.164 158.385 244.01 158.996 244.01 159.777ZM255.881 156.578V163H255.084L254.943 162.098H254.891C254.758 162.32 254.586 162.508 254.375 162.66C254.164 162.812 253.926 162.926 253.66 163C253.398 163.078 253.119 163.117 252.822 163.117C252.314 163.117 251.889 163.035 251.545 162.871C251.201 162.707 250.941 162.453 250.766 162.109C250.594 161.766 250.508 161.324 250.508 160.785V156.578H251.492V160.715C251.492 161.25 251.613 161.65 251.855 161.916C252.098 162.178 252.467 162.309 252.963 162.309C253.439 162.309 253.818 162.219 254.1 162.039C254.385 161.859 254.59 161.596 254.715 161.248C254.84 160.896 254.902 160.467 254.902 159.959V156.578H255.881ZM260.855 156.461C260.984 156.461 261.119 156.469 261.26 156.484C261.4 156.496 261.525 156.514 261.635 156.537L261.512 157.439C261.406 157.412 261.289 157.391 261.16 157.375C261.031 157.359 260.91 157.352 260.797 157.352C260.539 157.352 260.295 157.404 260.064 157.51C259.838 157.611 259.639 157.76 259.467 157.955C259.295 158.146 259.16 158.379 259.062 158.652C258.965 158.922 258.916 159.223 258.916 159.555V163H257.938V156.578H258.746L258.852 157.762H258.893C259.025 157.523 259.186 157.307 259.373 157.111C259.561 156.912 259.777 156.754 260.023 156.637C260.273 156.52 260.551 156.461 260.855 156.461ZM268.367 156.473C269.133 156.473 269.701 156.645 270.072 156.988C270.443 157.332 270.629 157.881 270.629 158.635V163H269.92L269.732 162.051H269.686C269.506 162.285 269.318 162.482 269.123 162.643C268.928 162.799 268.701 162.918 268.443 163C268.189 163.078 267.877 163.117 267.506 163.117C267.115 163.117 266.768 163.049 266.463 162.912C266.162 162.775 265.924 162.568 265.748 162.291C265.576 162.014 265.49 161.662 265.49 161.236C265.49 160.596 265.744 160.104 266.252 159.76C266.76 159.416 267.533 159.229 268.572 159.197L269.68 159.15V158.758C269.68 158.203 269.561 157.814 269.322 157.592C269.084 157.369 268.748 157.258 268.314 157.258C267.979 157.258 267.658 157.307 267.354 157.404C267.049 157.502 266.76 157.617 266.486 157.75L266.188 157.012C266.477 156.863 266.809 156.736 267.184 156.631C267.559 156.525 267.953 156.473 268.367 156.473ZM269.668 159.836L268.689 159.877C267.889 159.908 267.324 160.039 266.996 160.27C266.668 160.5 266.504 160.826 266.504 161.248C266.504 161.615 266.615 161.887 266.838 162.062C267.061 162.238 267.355 162.326 267.723 162.326C268.293 162.326 268.76 162.168 269.123 161.852C269.486 161.535 269.668 161.061 269.668 160.428V159.836ZM275.205 163.117C274.627 163.117 274.117 162.998 273.676 162.76C273.234 162.521 272.891 162.158 272.645 161.67C272.398 161.182 272.275 160.566 272.275 159.824C272.275 159.047 272.404 158.412 272.662 157.92C272.924 157.424 273.283 157.057 273.74 156.818C274.197 156.58 274.717 156.461 275.299 156.461C275.619 156.461 275.928 156.494 276.225 156.561C276.525 156.623 276.771 156.703 276.963 156.801L276.67 157.615C276.475 157.537 276.248 157.467 275.99 157.404C275.736 157.342 275.498 157.311 275.275 157.311C274.83 157.311 274.459 157.406 274.162 157.598C273.869 157.789 273.648 158.07 273.5 158.441C273.355 158.812 273.283 159.27 273.283 159.812C273.283 160.332 273.354 160.775 273.494 161.143C273.639 161.51 273.852 161.791 274.133 161.986C274.418 162.178 274.773 162.273 275.199 162.273C275.539 162.273 275.846 162.238 276.119 162.168C276.393 162.094 276.641 162.008 276.863 161.91V162.777C276.648 162.887 276.408 162.971 276.143 163.029C275.881 163.088 275.568 163.117 275.205 163.117ZM280.959 163.117C280.381 163.117 279.871 162.998 279.43 162.76C278.988 162.521 278.645 162.158 278.398 161.67C278.152 161.182 278.029 160.566 278.029 159.824C278.029 159.047 278.158 158.412 278.416 157.92C278.678 157.424 279.037 157.057 279.494 156.818C279.951 156.58 280.471 156.461 281.053 156.461C281.373 156.461 281.682 156.494 281.979 156.561C282.279 156.623 282.525 156.703 282.717 156.801L282.424 157.615C282.229 157.537 282.002 157.467 281.744 157.404C281.49 157.342 281.252 157.311 281.029 157.311C280.584 157.311 280.213 157.406 279.916 157.598C279.623 157.789 279.402 158.07 279.254 158.441C279.109 158.812 279.037 159.27 279.037 159.812C279.037 160.332 279.107 160.775 279.248 161.143C279.393 161.51 279.605 161.791 279.887 161.986C280.172 162.178 280.527 162.273 280.953 162.273C281.293 162.273 281.6 162.238 281.873 162.168C282.146 162.094 282.395 162.008 282.617 161.91V162.777C282.402 162.887 282.162 162.971 281.896 163.029C281.635 163.088 281.322 163.117 280.959 163.117ZM289.678 159.777C289.678 160.305 289.609 160.775 289.473 161.189C289.336 161.604 289.139 161.953 288.881 162.238C288.623 162.523 288.311 162.742 287.943 162.895C287.58 163.043 287.168 163.117 286.707 163.117C286.277 163.117 285.883 163.043 285.523 162.895C285.168 162.742 284.859 162.523 284.598 162.238C284.34 161.953 284.139 161.604 283.994 161.189C283.854 160.775 283.783 160.305 283.783 159.777C283.783 159.074 283.902 158.477 284.141 157.984C284.379 157.488 284.719 157.111 285.16 156.854C285.605 156.592 286.135 156.461 286.748 156.461C287.334 156.461 287.846 156.592 288.283 156.854C288.725 157.115 289.066 157.494 289.309 157.99C289.555 158.482 289.678 159.078 289.678 159.777ZM284.791 159.777C284.791 160.293 284.859 160.74 284.996 161.119C285.133 161.498 285.344 161.791 285.629 161.998C285.914 162.205 286.281 162.309 286.73 162.309C287.176 162.309 287.541 162.205 287.826 161.998C288.115 161.791 288.328 161.498 288.465 161.119C288.602 160.74 288.67 160.293 288.67 159.777C288.67 159.266 288.602 158.824 288.465 158.453C288.328 158.078 288.117 157.789 287.832 157.586C287.547 157.383 287.178 157.281 286.725 157.281C286.057 157.281 285.566 157.502 285.254 157.943C284.945 158.385 284.791 158.996 284.791 159.777ZM296.662 156.578V163H295.865L295.725 162.098H295.672C295.539 162.32 295.367 162.508 295.156 162.66C294.945 162.812 294.707 162.926 294.441 163C294.18 163.078 293.9 163.117 293.604 163.117C293.096 163.117 292.67 163.035 292.326 162.871C291.982 162.707 291.723 162.453 291.547 162.109C291.375 161.766 291.289 161.324 291.289 160.785V156.578H292.273V160.715C292.273 161.25 292.395 161.65 292.637 161.916C292.879 162.178 293.248 162.309 293.744 162.309C294.221 162.309 294.6 162.219 294.881 162.039C295.166 161.859 295.371 161.596 295.496 161.248C295.621 160.896 295.684 160.467 295.684 159.959V156.578H296.662ZM301.76 156.461C302.521 156.461 303.098 156.648 303.488 157.023C303.879 157.395 304.074 157.992 304.074 158.816V163H303.113V158.881C303.113 158.346 302.99 157.945 302.744 157.68C302.502 157.414 302.129 157.281 301.625 157.281C300.914 157.281 300.414 157.482 300.125 157.885C299.836 158.287 299.691 158.871 299.691 159.637V163H298.719V156.578H299.504L299.65 157.504H299.703C299.84 157.277 300.014 157.088 300.225 156.936C300.436 156.779 300.672 156.662 300.934 156.584C301.195 156.502 301.471 156.461 301.76 156.461ZM308.152 162.32C308.312 162.32 308.477 162.307 308.645 162.279C308.812 162.252 308.949 162.219 309.055 162.18V162.936C308.941 162.986 308.783 163.029 308.58 163.064C308.381 163.1 308.186 163.117 307.994 163.117C307.654 163.117 307.346 163.059 307.068 162.941C306.791 162.82 306.568 162.617 306.4 162.332C306.236 162.047 306.154 161.652 306.154 161.148V157.34H305.24V156.865L306.16 156.484L306.547 155.09H307.133V156.578H309.014V157.34H307.133V161.119C307.133 161.521 307.225 161.822 307.408 162.021C307.596 162.221 307.844 162.32 308.152 162.32ZM310.209 162.391C310.209 162.117 310.275 161.924 310.408 161.811C310.541 161.693 310.703 161.635 310.895 161.635C311.094 161.635 311.262 161.693 311.398 161.811C311.535 161.924 311.604 162.117 311.604 162.391C311.604 162.66 311.535 162.857 311.398 162.982C311.262 163.104 311.094 163.164 310.895 163.164C310.703 163.164 310.541 163.104 310.408 162.982C310.275 162.857 310.209 162.66 310.209 162.391Z" fill="#141414"/>
</svg>
