<svg width="436" height="130" viewBox="0 0 436 130" fill="none" xmlns="http://www.w3.org/2000/svg">
<path d="M163.933 51H159.406V41.7568H150.925V51H146.384V29.584H150.925V37.9775H159.406V29.584H163.933V51ZM175.754 34.3154C177.268 34.3154 178.571 34.6084 179.665 35.1943C180.759 35.7705 181.604 36.6104 182.199 37.7139C182.795 38.8174 183.093 40.165 183.093 41.7568V43.9248H172.531C172.58 45.1846 172.956 46.1758 173.659 46.8984C174.372 47.6113 175.358 47.9678 176.618 47.9678C177.663 47.9678 178.62 47.8604 179.489 47.6455C180.358 47.4307 181.252 47.1084 182.17 46.6787V50.1357C181.359 50.5361 180.51 50.8291 179.621 51.0146C178.742 51.2002 177.673 51.293 176.413 51.293C174.772 51.293 173.317 50.9902 172.048 50.3848C170.788 49.7793 169.797 48.8564 169.074 47.6162C168.361 46.376 168.005 44.8135 168.005 42.9287C168.005 41.0146 168.327 39.4229 168.972 38.1533C169.626 36.874 170.534 35.917 171.696 35.2822C172.858 34.6377 174.211 34.3154 175.754 34.3154ZM175.783 37.4941C174.914 37.4941 174.191 37.7725 173.615 38.3291C173.049 38.8857 172.722 39.7598 172.634 40.9512H178.903C178.894 40.2871 178.771 39.6963 178.537 39.1787C178.312 38.6611 177.971 38.251 177.512 37.9482C177.062 37.6455 176.486 37.4941 175.783 37.4941ZM193.435 34.2861C195.632 34.2861 197.316 34.7646 198.488 35.7217C199.66 36.6787 200.246 38.1338 200.246 40.0869V51H197.126L196.262 48.7734H196.145C195.676 49.3594 195.197 49.8379 194.709 50.209C194.221 50.5801 193.659 50.8535 193.024 51.0293C192.39 51.2051 191.618 51.293 190.71 51.293C189.743 51.293 188.874 51.1074 188.103 50.7363C187.341 50.3652 186.74 49.7988 186.301 49.0371C185.861 48.2656 185.642 47.2891 185.642 46.1074C185.642 44.3691 186.252 43.0898 187.473 42.2695C188.693 41.4395 190.524 40.9805 192.966 40.8926L195.808 40.8047V40.0869C195.808 39.2275 195.583 38.5977 195.134 38.1973C194.685 37.7969 194.06 37.5967 193.259 37.5967C192.468 37.5967 191.691 37.709 190.93 37.9336C190.168 38.1582 189.406 38.4414 188.645 38.7832L187.165 35.7656C188.034 35.3066 189.006 34.9453 190.08 34.6816C191.164 34.418 192.282 34.2861 193.435 34.2861ZM195.808 43.4121L194.079 43.4707C192.634 43.5098 191.628 43.7686 191.062 44.2471C190.505 44.7256 190.227 45.3555 190.227 46.1367C190.227 46.8203 190.427 47.3086 190.827 47.6016C191.228 47.8848 191.75 48.0264 192.395 48.0264C193.352 48.0264 194.157 47.7432 194.812 47.1768C195.476 46.6104 195.808 45.8047 195.808 44.7598V43.4121ZM210.046 51.293C208.22 51.293 206.73 50.5801 205.578 49.1543C204.436 47.7188 203.864 45.6143 203.864 42.8408C203.864 40.0381 204.445 37.9189 205.607 36.4834C206.77 35.0381 208.288 34.3154 210.163 34.3154C210.944 34.3154 211.633 34.4229 212.229 34.6377C212.824 34.8525 213.337 35.1406 213.767 35.502C214.206 35.8633 214.577 36.2686 214.88 36.7178H215.026C214.968 36.4053 214.895 35.9463 214.807 35.3408C214.729 34.7256 214.689 34.0957 214.689 33.4512V28.207H219.172V51H215.744L214.88 48.876H214.689C214.406 49.3252 214.05 49.7354 213.62 50.1064C213.2 50.4678 212.697 50.7559 212.111 50.9707C211.525 51.1855 210.837 51.293 210.046 51.293ZM211.613 47.7334C212.834 47.7334 213.693 47.3721 214.191 46.6494C214.699 45.917 214.968 44.8184 214.997 43.3535V42.8701C214.997 41.2783 214.753 40.0625 214.265 39.2227C213.776 38.373 212.868 37.9482 211.54 37.9482C210.554 37.9482 209.782 38.373 209.226 39.2227C208.669 40.0723 208.391 41.2979 208.391 42.8994C208.391 44.501 208.669 45.707 209.226 46.5176C209.792 47.3281 210.588 47.7334 211.613 47.7334ZM228.312 34.623V51H223.845V34.623H228.312ZM226.086 28.207C226.75 28.207 227.321 28.3633 227.8 28.6758C228.278 28.9785 228.518 29.5498 228.518 30.3896C228.518 31.2197 228.278 31.7959 227.8 32.1182C227.321 32.4307 226.75 32.5869 226.086 32.5869C225.412 32.5869 224.836 32.4307 224.357 32.1182C223.889 31.7959 223.654 31.2197 223.654 30.3896C223.654 29.5498 223.889 28.9785 224.357 28.6758C224.836 28.3633 225.412 28.207 226.086 28.207ZM242.316 34.3154C244.064 34.3154 245.471 34.7939 246.535 35.751C247.6 36.6982 248.132 38.2217 248.132 40.3213V51H243.664V41.4346C243.664 40.2627 243.449 39.3789 243.02 38.7832C242.6 38.1875 241.936 37.8896 241.027 37.8896C239.66 37.8896 238.728 38.3535 238.229 39.2812C237.731 40.209 237.482 41.5469 237.482 43.2949V51H233.015V34.623H236.428L237.028 36.7178H237.277C237.629 36.1514 238.063 35.6924 238.581 35.3408C239.108 34.9893 239.689 34.7305 240.324 34.5645C240.969 34.3984 241.633 34.3154 242.316 34.3154ZM257.521 58.207C255.236 58.207 253.488 57.8066 252.277 57.0059C251.076 56.2148 250.476 55.1016 250.476 53.666C250.476 52.6797 250.783 51.8545 251.398 51.1904C252.014 50.5264 252.917 50.0527 254.108 49.7695C253.649 49.5742 253.249 49.2568 252.907 48.8174C252.565 48.3682 252.395 47.8945 252.395 47.3965C252.395 46.7715 252.575 46.2539 252.937 45.8438C253.298 45.4238 253.82 45.0137 254.504 44.6133C253.645 44.2422 252.961 43.6465 252.453 42.8262C251.955 42.0059 251.706 41.0391 251.706 39.9258C251.706 38.7344 251.965 37.7236 252.482 36.8936C253.01 36.0537 253.771 35.4141 254.768 34.9746C255.773 34.5352 256.994 34.3154 258.43 34.3154C258.732 34.3154 259.084 34.335 259.484 34.374C259.885 34.4131 260.251 34.457 260.583 34.5059C260.925 34.5547 261.154 34.5938 261.271 34.623H266.984V36.8936L264.421 37.5527C264.655 37.9141 264.831 38.2998 264.948 38.71C265.065 39.1201 265.124 39.5547 265.124 40.0137C265.124 41.7715 264.509 43.1436 263.278 44.1299C262.058 45.1064 260.358 45.5947 258.181 45.5947C257.663 45.5654 257.175 45.5264 256.716 45.4775C256.491 45.6533 256.32 45.8389 256.203 46.0342C256.086 46.2295 256.027 46.4346 256.027 46.6494C256.027 46.8643 256.115 47.0449 256.291 47.1914C256.477 47.3281 256.75 47.4355 257.111 47.5137C257.482 47.582 257.941 47.6162 258.488 47.6162H261.271C263.068 47.6162 264.436 48.002 265.373 48.7734C266.32 49.5449 266.794 50.6777 266.794 52.1719C266.794 54.0859 265.993 55.5703 264.392 56.625C262.8 57.6797 260.51 58.207 257.521 58.207ZM257.712 55.292C258.776 55.292 259.689 55.1895 260.451 54.9844C261.223 54.7891 261.813 54.5059 262.224 54.1348C262.634 53.7734 262.839 53.3389 262.839 52.8311C262.839 52.4209 262.717 52.0938 262.473 51.8496C262.238 51.6152 261.877 51.4492 261.389 51.3516C260.91 51.2539 260.295 51.2051 259.543 51.2051H257.229C256.682 51.2051 256.188 51.293 255.749 51.4688C255.319 51.6445 254.978 51.8887 254.724 52.2012C254.47 52.5234 254.343 52.8945 254.343 53.3145C254.343 53.9297 254.636 54.4131 255.222 54.7646C255.817 55.1162 256.647 55.292 257.712 55.292ZM258.43 42.8701C259.27 42.8701 259.885 42.6113 260.275 42.0938C260.666 41.5762 260.861 40.873 260.861 39.9844C260.861 38.998 260.656 38.2607 260.246 37.7725C259.846 37.2744 259.24 37.0254 258.43 37.0254C257.609 37.0254 256.994 37.2744 256.584 37.7725C256.174 38.2607 255.969 38.998 255.969 39.9844C255.969 40.873 256.169 41.5762 256.569 42.0938C256.979 42.6113 257.6 42.8701 258.43 42.8701ZM287.536 51H283.01V38.6074C283.01 38.2656 283.015 37.8457 283.024 37.3477C283.034 36.8398 283.049 36.3223 283.068 35.7949C283.088 35.2578 283.107 34.7744 283.127 34.3447C283.02 34.4717 282.8 34.6914 282.468 35.0039C282.146 35.3066 281.843 35.5801 281.56 35.8242L279.099 37.8018L276.916 35.0771L283.815 29.584H287.536V51Z" fill="#141414"/>
<path d="M183.693 104H182.033V97.2715H174.533V104H172.873V89.7227H174.533V95.8066H182.033V89.7227H183.693V104ZM191.496 93.1016C192.408 93.1016 193.189 93.3034 193.84 93.707C194.491 94.1107 194.989 94.6771 195.334 95.4062C195.679 96.1289 195.852 96.9753 195.852 97.9453V98.9512H188.459C188.479 100.208 188.791 101.165 189.396 101.822C190.002 102.48 190.855 102.809 191.955 102.809C192.632 102.809 193.231 102.747 193.752 102.623C194.273 102.499 194.813 102.317 195.373 102.076V103.502C194.833 103.743 194.296 103.919 193.762 104.029C193.234 104.14 192.609 104.195 191.887 104.195C190.858 104.195 189.96 103.987 189.191 103.57C188.43 103.147 187.837 102.529 187.414 101.715C186.991 100.901 186.779 99.9049 186.779 98.7266C186.779 97.5742 186.971 96.5781 187.355 95.7383C187.746 94.8919 188.293 94.2409 188.996 93.7852C189.706 93.3294 190.539 93.1016 191.496 93.1016ZM191.477 94.4297C190.611 94.4297 189.921 94.7129 189.406 95.2793C188.892 95.8457 188.586 96.6367 188.488 97.6523H194.152C194.146 97.0143 194.045 96.4544 193.85 95.9727C193.661 95.4844 193.371 95.1068 192.98 94.8398C192.59 94.5664 192.089 94.4297 191.477 94.4297ZM202.609 93.1211C203.885 93.1211 204.833 93.4076 205.451 93.9805C206.07 94.5534 206.379 95.4681 206.379 96.7246V104H205.197L204.885 102.418H204.807C204.507 102.809 204.195 103.137 203.869 103.404C203.544 103.665 203.166 103.863 202.736 104C202.313 104.13 201.792 104.195 201.174 104.195C200.523 104.195 199.943 104.081 199.436 103.854C198.934 103.626 198.537 103.281 198.244 102.818C197.958 102.356 197.814 101.77 197.814 101.061C197.814 99.9928 198.238 99.1725 199.084 98.5996C199.93 98.0267 201.219 97.7142 202.951 97.6621L204.797 97.584V96.9297C204.797 96.0052 204.598 95.3574 204.201 94.9863C203.804 94.6152 203.244 94.4297 202.521 94.4297C201.962 94.4297 201.428 94.5111 200.92 94.6738C200.412 94.8366 199.93 95.0286 199.475 95.25L198.977 94.0195C199.458 93.7721 200.012 93.5605 200.637 93.3848C201.262 93.209 201.919 93.1211 202.609 93.1211ZM204.777 98.7266L203.146 98.7949C201.812 98.847 200.871 99.0651 200.324 99.4492C199.777 99.8333 199.504 100.377 199.504 101.08C199.504 101.692 199.689 102.145 200.061 102.438C200.432 102.73 200.923 102.877 201.535 102.877C202.486 102.877 203.264 102.613 203.869 102.086C204.475 101.559 204.777 100.768 204.777 99.7129V98.7266ZM213.527 104.195C212.173 104.195 211.099 103.733 210.305 102.809C209.517 101.884 209.123 100.51 209.123 98.6875C209.123 96.8451 209.527 95.4551 210.334 94.5176C211.141 93.5736 212.215 93.1016 213.557 93.1016C214.123 93.1016 214.618 93.1764 215.041 93.3262C215.464 93.4759 215.829 93.6777 216.135 93.9316C216.441 94.179 216.698 94.4622 216.906 94.7812H217.023C216.997 94.5794 216.971 94.3027 216.945 93.9512C216.919 93.5996 216.906 93.3132 216.906 93.0918V88.8047H218.527V104H217.219L216.975 102.477H216.906C216.704 102.796 216.447 103.085 216.135 103.346C215.829 103.606 215.461 103.814 215.031 103.971C214.608 104.12 214.107 104.195 213.527 104.195ZM213.781 102.848C214.927 102.848 215.738 102.522 216.213 101.871C216.688 101.22 216.926 100.253 216.926 98.9707V98.6777C216.926 97.3171 216.698 96.2721 216.242 95.543C215.793 94.8138 214.973 94.4492 213.781 94.4492C212.785 94.4492 212.04 94.8333 211.545 95.6016C211.05 96.3633 210.803 97.4049 210.803 98.7266C210.803 100.042 211.047 101.057 211.535 101.773C212.03 102.49 212.779 102.848 213.781 102.848ZM223.586 93.2969V104H221.965V93.2969H223.586ZM222.795 89.293C223.062 89.293 223.29 89.3809 223.479 89.5566C223.674 89.7259 223.771 89.9928 223.771 90.3574C223.771 90.7155 223.674 90.9824 223.479 91.1582C223.29 91.334 223.062 91.4219 222.795 91.4219C222.515 91.4219 222.281 91.334 222.092 91.1582C221.91 90.9824 221.818 90.7155 221.818 90.3574C221.818 89.9928 221.91 89.7259 222.092 89.5566C222.281 89.3809 222.515 89.293 222.795 89.293ZM232.092 93.1016C233.361 93.1016 234.322 93.4141 234.973 94.0391C235.624 94.6576 235.949 95.6536 235.949 97.0273V104H234.348V97.1348C234.348 96.2428 234.143 95.5755 233.732 95.1328C233.329 94.6901 232.707 94.4688 231.867 94.4688C230.682 94.4688 229.849 94.804 229.367 95.4746C228.885 96.1452 228.645 97.1185 228.645 98.3945V104H227.023V93.2969H228.332L228.576 94.8398H228.664C228.892 94.4622 229.182 94.1465 229.533 93.8926C229.885 93.6322 230.279 93.4368 230.715 93.3066C231.151 93.1699 231.61 93.1016 232.092 93.1016ZM242.277 108.805C240.871 108.805 239.787 108.541 239.025 108.014C238.264 107.493 237.883 106.76 237.883 105.816C237.883 105.146 238.094 104.573 238.518 104.098C238.947 103.622 239.54 103.307 240.295 103.15C240.015 103.02 239.774 102.825 239.572 102.564C239.377 102.304 239.279 102.005 239.279 101.666C239.279 101.275 239.387 100.934 239.602 100.641C239.823 100.341 240.158 100.055 240.607 99.7812C240.048 99.5534 239.592 99.1693 239.24 98.6289C238.895 98.082 238.723 97.4473 238.723 96.7246C238.723 95.9564 238.882 95.3021 239.201 94.7617C239.52 94.2148 239.982 93.7982 240.588 93.5117C241.193 93.2253 241.926 93.082 242.785 93.082C242.974 93.082 243.163 93.0918 243.352 93.1113C243.547 93.1243 243.732 93.1471 243.908 93.1797C244.084 93.2057 244.237 93.2383 244.367 93.2773H248.039V94.3223L246.066 94.5664C246.262 94.8203 246.424 95.1263 246.555 95.4844C246.685 95.8424 246.75 96.2396 246.75 96.6758C246.75 97.7435 246.389 98.5931 245.666 99.2246C244.943 99.8496 243.951 100.162 242.688 100.162C242.388 100.162 242.082 100.136 241.77 100.084C241.451 100.26 241.206 100.455 241.037 100.67C240.874 100.885 240.793 101.132 240.793 101.412C240.793 101.62 240.855 101.786 240.979 101.91C241.109 102.034 241.294 102.125 241.535 102.184C241.776 102.236 242.066 102.262 242.404 102.262H244.289C245.454 102.262 246.346 102.506 246.965 102.994C247.59 103.482 247.902 104.195 247.902 105.133C247.902 106.318 247.421 107.226 246.457 107.857C245.493 108.489 244.1 108.805 242.277 108.805ZM242.326 107.535C243.212 107.535 243.944 107.444 244.523 107.262C245.109 107.086 245.546 106.829 245.832 106.49C246.125 106.158 246.271 105.761 246.271 105.299C246.271 104.869 246.174 104.544 245.979 104.322C245.783 104.107 245.497 103.964 245.119 103.893C244.742 103.814 244.279 103.775 243.732 103.775H241.877C241.395 103.775 240.975 103.85 240.617 104C240.259 104.15 239.982 104.371 239.787 104.664C239.598 104.957 239.504 105.322 239.504 105.758C239.504 106.337 239.748 106.777 240.236 107.076C240.725 107.382 241.421 107.535 242.326 107.535ZM242.746 98.9805C243.521 98.9805 244.104 98.7852 244.494 98.3945C244.885 98.0039 245.08 97.4342 245.08 96.6855C245.08 95.8848 244.882 95.2858 244.484 94.8887C244.087 94.485 243.501 94.2832 242.727 94.2832C241.984 94.2832 241.411 94.4915 241.008 94.9082C240.611 95.3184 240.412 95.9206 240.412 96.7148C240.412 97.444 240.614 98.0039 241.018 98.3945C241.421 98.7852 241.997 98.9805 242.746 98.9805ZM263.449 93.0527C263.449 93.6908 263.326 94.2441 263.078 94.7129C262.831 95.1816 262.486 95.5658 262.043 95.8652C261.6 96.1582 261.079 96.3633 260.48 96.4805V96.5586C261.613 96.7018 262.463 97.0664 263.029 97.6523C263.602 98.2383 263.889 99.0065 263.889 99.957C263.889 100.784 263.693 101.516 263.303 102.154C262.919 102.792 262.326 103.294 261.525 103.658C260.731 104.016 259.712 104.195 258.469 104.195C257.714 104.195 257.014 104.133 256.369 104.01C255.731 103.893 255.119 103.694 254.533 103.414V101.891C255.126 102.184 255.77 102.415 256.467 102.584C257.163 102.747 257.837 102.828 258.488 102.828C259.79 102.828 260.731 102.571 261.311 102.057C261.89 101.536 262.18 100.826 262.18 99.9277C262.18 99.3092 262.017 98.8112 261.691 98.4336C261.372 98.0495 260.91 97.7695 260.305 97.5938C259.706 97.4115 258.983 97.3203 258.137 97.3203H256.711V95.9336H258.146C258.921 95.9336 259.579 95.8197 260.119 95.5918C260.66 95.3639 261.07 95.0449 261.35 94.6348C261.636 94.2181 261.779 93.7266 261.779 93.1602C261.779 92.4375 261.538 91.8809 261.057 91.4902C260.575 91.0931 259.921 90.8945 259.094 90.8945C258.586 90.8945 258.124 90.9466 257.707 91.0508C257.29 91.1549 256.9 91.2982 256.535 91.4805C256.171 91.6628 255.806 91.8743 255.441 92.1152L254.621 91.002C255.142 90.5983 255.777 90.25 256.525 89.957C257.274 89.6641 258.124 89.5176 259.074 89.5176C260.533 89.5176 261.626 89.8496 262.355 90.5137C263.085 91.1777 263.449 92.0241 263.449 93.0527Z" fill="#141414"/>
<path d="M204.143 127V118.434H205.139V126.109H208.941V127H204.143ZM212.668 120.473C213.434 120.473 214.002 120.645 214.373 120.988C214.744 121.332 214.93 121.881 214.93 122.635V127H214.221L214.033 126.051H213.986C213.807 126.285 213.619 126.482 213.424 126.643C213.229 126.799 213.002 126.918 212.744 127C212.49 127.078 212.178 127.117 211.807 127.117C211.416 127.117 211.068 127.049 210.764 126.912C210.463 126.775 210.225 126.568 210.049 126.291C209.877 126.014 209.791 125.662 209.791 125.236C209.791 124.596 210.045 124.104 210.553 123.76C211.061 123.416 211.834 123.229 212.873 123.197L213.98 123.15V122.758C213.98 122.203 213.861 121.814 213.623 121.592C213.385 121.369 213.049 121.258 212.615 121.258C212.279 121.258 211.959 121.307 211.654 121.404C211.35 121.502 211.061 121.617 210.787 121.75L210.488 121.012C210.777 120.863 211.109 120.736 211.484 120.631C211.859 120.525 212.254 120.473 212.668 120.473ZM213.969 123.836L212.99 123.877C212.189 123.908 211.625 124.039 211.297 124.27C210.969 124.5 210.805 124.826 210.805 125.248C210.805 125.615 210.916 125.887 211.139 126.062C211.361 126.238 211.656 126.326 212.023 126.326C212.594 126.326 213.061 126.168 213.424 125.852C213.787 125.535 213.969 125.061 213.969 124.428V123.836ZM217.906 117.883V120.162C217.906 120.424 217.898 120.678 217.883 120.924C217.871 121.17 217.861 121.361 217.854 121.498H217.906C218.082 121.209 218.336 120.965 218.668 120.766C219 120.566 219.424 120.467 219.939 120.467C220.744 120.467 221.385 120.746 221.861 121.305C222.342 121.859 222.582 122.686 222.582 123.783C222.582 124.506 222.473 125.115 222.254 125.611C222.035 126.107 221.727 126.482 221.328 126.736C220.93 126.99 220.459 127.117 219.916 127.117C219.408 127.117 218.99 127.023 218.662 126.836C218.338 126.645 218.088 126.412 217.912 126.139H217.836L217.637 127H216.934V117.883H217.906ZM219.781 121.281C219.316 121.281 218.947 121.373 218.674 121.557C218.4 121.736 218.203 122.01 218.082 122.377C217.965 122.74 217.906 123.201 217.906 123.76V123.812C217.906 124.621 218.041 125.24 218.311 125.67C218.58 126.096 219.07 126.309 219.781 126.309C220.379 126.309 220.826 126.09 221.123 125.652C221.424 125.215 221.574 124.59 221.574 123.777C221.574 122.949 221.426 122.326 221.129 121.908C220.836 121.49 220.387 121.281 219.781 121.281ZM226.754 120.461C227.301 120.461 227.77 120.582 228.16 120.824C228.551 121.066 228.85 121.406 229.057 121.844C229.264 122.277 229.367 122.785 229.367 123.367V123.971H224.932C224.943 124.725 225.131 125.299 225.494 125.693C225.857 126.088 226.369 126.285 227.029 126.285C227.436 126.285 227.795 126.248 228.107 126.174C228.42 126.1 228.744 125.99 229.08 125.846V126.701C228.756 126.846 228.434 126.951 228.113 127.018C227.797 127.084 227.422 127.117 226.988 127.117C226.371 127.117 225.832 126.992 225.371 126.742C224.914 126.488 224.559 126.117 224.305 125.629C224.051 125.141 223.924 124.543 223.924 123.836C223.924 123.145 224.039 122.547 224.27 122.043C224.504 121.535 224.832 121.145 225.254 120.871C225.68 120.598 226.18 120.461 226.754 120.461ZM226.742 121.258C226.223 121.258 225.809 121.428 225.5 121.768C225.191 122.107 225.008 122.582 224.949 123.191H228.348C228.344 122.809 228.283 122.473 228.166 122.184C228.053 121.891 227.879 121.664 227.645 121.504C227.41 121.34 227.109 121.258 226.742 121.258ZM231.998 127H231.02V117.883H231.998V127Z" fill="#141414"/>
</svg>
