<svg width="441" height="261" viewBox="0 0 441 261" fill="none" xmlns="http://www.w3.org/2000/svg">
<rect width="441" height="261" rx="8" fill="#EAEFFF"/>
<circle cx="150.358" cy="56.4608" r="31.5641" fill="#2B5FFC"/>
<circle cx="220.5" cy="56.4608" r="31.5641" fill="#2B5FFC"/>
<circle cx="220.5" cy="126.603" r="31.5641" fill="#2B5FFC"/>
<circle cx="290.642" cy="56.4608" r="31.5641" fill="#2B5FFC"/>
<path d="M217.278 167.089C218.592 163.843 223.188 163.843 224.502 167.089L227.382 174.204C228.199 176.221 230.51 177.179 232.514 176.33L239.581 173.336C242.806 171.969 246.055 175.219 244.689 178.444L241.695 185.511C240.846 187.515 241.804 189.826 243.821 190.643L250.935 193.523C254.181 194.837 254.181 199.433 250.935 200.747L243.821 203.627C241.804 204.444 240.846 206.755 241.695 208.76L244.689 215.827C246.055 219.051 242.806 222.301 239.581 220.935L232.514 217.941C230.51 217.092 228.199 218.049 227.382 220.067L224.502 227.181C223.188 230.427 218.592 230.427 217.278 227.181L214.397 220.067C213.581 218.049 211.27 217.092 209.265 217.941L202.198 220.935C198.974 222.301 195.724 219.051 197.09 215.827L200.084 208.76C200.933 206.755 199.976 204.444 197.958 203.627L190.844 200.747C187.598 199.433 187.598 194.837 190.844 193.523L197.958 190.643C199.976 189.826 200.933 187.515 200.084 185.511L197.09 178.444C195.724 175.219 198.974 171.969 202.198 173.336L209.265 176.33C211.27 177.179 213.581 176.221 214.397 174.204L217.278 167.089Z" fill="#FFDA01"/>
<path d="M146.356 96.9471C147.67 93.7011 152.266 93.7011 153.58 96.9471L156.46 104.061C157.277 106.079 159.588 107.036 161.592 106.187L168.659 103.193C171.884 101.827 175.134 105.077 173.768 108.301L170.774 115.369C169.925 117.373 170.882 119.684 172.899 120.501L180.014 123.381C183.26 124.695 183.26 129.291 180.014 130.605L172.899 133.485C170.882 134.302 169.925 136.613 170.774 138.617L173.768 145.684C175.134 148.909 171.884 152.159 168.659 150.793L161.592 147.799C159.588 146.949 157.277 147.907 156.46 149.924L153.58 157.039C152.266 160.285 147.67 160.285 146.356 157.039L143.476 149.924C142.659 147.907 140.348 146.949 138.344 147.799L131.276 150.793C128.052 152.159 124.802 148.909 126.168 145.684L129.162 138.617C130.011 136.613 129.054 134.302 127.037 133.485L119.922 130.605C116.676 129.291 116.676 124.695 119.922 123.381L127.037 120.501C129.054 119.684 130.011 117.373 129.162 115.369L126.168 108.301C124.802 105.077 128.052 101.827 131.276 103.193L138.344 106.187C140.348 107.036 142.659 106.079 143.476 104.061L146.356 96.9471Z" fill="#9A41FF"/>
<path d="M287.42 96.9471C288.734 93.7011 293.33 93.7011 294.644 96.9471L297.524 104.061C298.341 106.079 300.652 107.036 302.656 106.187L309.724 103.193C312.948 101.827 316.198 105.077 314.832 108.301L311.838 115.369C310.989 117.373 311.946 119.684 313.963 120.501L321.078 123.381C324.324 124.695 324.324 129.291 321.078 130.605L313.963 133.485C311.946 134.302 310.989 136.613 311.838 138.617L314.832 145.684C316.198 148.909 312.948 152.159 309.724 150.793L302.656 147.799C300.652 146.949 298.341 147.907 297.524 149.924L294.644 157.039C293.33 160.285 288.734 160.285 287.42 157.039L284.54 149.924C283.723 147.907 281.412 146.949 279.408 147.799L272.341 150.793C269.116 152.159 265.866 148.909 267.232 145.684L270.226 138.617C271.075 136.613 270.118 134.302 268.101 133.485L260.986 130.605C257.74 129.291 257.74 124.695 260.986 123.381L268.101 120.501C270.118 119.684 271.075 117.373 270.226 115.369L267.232 108.301C265.866 105.077 269.116 101.827 272.341 103.193L279.408 106.187C281.412 107.036 283.723 106.079 284.54 104.061L287.42 96.9471Z" fill="#9A41FF"/>
</svg>
