<svg width="667" height="393" viewBox="0 0 667 393" fill="none" xmlns="http://www.w3.org/2000/svg">
<path d="M60.0641 141.13C72.0338 120.414 101.937 120.414 113.906 141.13L134.945 177.54C146.921 198.268 131.963 224.187 108.023 224.187H65.9472C42.0078 224.187 27.0492 198.268 39.026 177.54L60.0641 141.13Z" fill="#FF5E09"/>
<path d="M60.0641 252.696C72.0338 273.412 101.937 273.412 113.906 252.696L134.945 216.286C146.921 195.558 131.963 169.639 108.023 169.639H65.9472C42.0078 169.639 27.0492 195.558 39.026 216.286L60.0641 252.696Z" fill="#FF5E09"/>
<path d="M183.898 141.13C195.868 120.414 225.771 120.414 237.74 141.13L258.778 177.54C270.755 198.268 255.797 224.187 231.857 224.187H189.781C165.842 224.187 150.883 198.268 162.86 177.54L183.898 141.13Z" fill="#FFDA01"/>
<path d="M183.898 252.696C195.868 273.412 225.771 273.412 237.74 252.696L258.778 216.286C270.755 195.558 255.797 169.639 231.857 169.639H189.781C165.842 169.639 150.883 195.558 162.86 216.286L183.898 252.696Z" fill="#FFDA01"/>
<path d="M306.821 141.13C318.79 120.414 348.693 120.414 360.663 141.13L381.701 177.54C393.678 198.268 378.719 224.187 354.78 224.187H312.704C288.764 224.187 273.806 198.268 285.783 177.54L306.821 141.13Z" fill="#2B5FFC"/>
<path d="M306.821 252.696C318.79 273.412 348.693 273.412 360.663 252.696L381.701 216.286C393.678 195.558 378.719 169.639 354.78 169.639H312.704C288.764 169.639 273.806 195.558 285.783 216.286L306.821 252.696Z" fill="#2B5FFC"/>
<path d="M430.654 141.13C442.624 120.414 472.527 120.414 484.497 141.13L505.535 177.54C517.512 198.268 502.553 224.187 478.614 224.187H436.538C412.598 224.187 397.64 198.268 409.616 177.54L430.654 141.13Z" fill="#00C14F"/>
<path d="M430.654 252.696C442.624 273.412 472.527 273.412 484.497 252.696L505.535 216.286C517.512 195.558 502.553 169.639 478.614 169.639H436.538C412.598 169.639 397.64 195.558 409.616 216.286L430.654 252.696Z" fill="#00C14F"/>
<path d="M553.577 141.13C565.547 120.414 595.45 120.414 607.42 141.13L628.458 177.54C640.435 198.268 625.476 224.187 601.537 224.187H559.461C535.521 224.187 520.563 198.268 532.539 177.54L553.577 141.13Z" fill="#9A41FF"/>
<path d="M553.577 252.696C565.547 273.412 595.45 273.412 607.42 252.696L628.458 216.286C640.435 195.558 625.476 169.639 601.537 169.639H559.461C535.521 169.639 520.563 195.558 532.539 216.286L553.577 252.696Z" fill="#9A41FF"/>
<ellipse cx="147.536" cy="47.6819" rx="46.8929" ry="46.8559" fill="#2B5FFC"/>
<ellipse cx="147.536" cy="346.144" rx="46.8929" ry="46.8559" fill="#2B5FFC"/>
<ellipse cx="393.382" cy="47.6819" rx="46.8929" ry="46.8559" fill="#FF5E09"/>
<ellipse cx="393.382" cy="346.144" rx="46.8929" ry="46.8559" fill="#FF5E09"/>
<ellipse cx="270.459" cy="47.6819" rx="46.8929" ry="46.8559" fill="#9A41FF"/>
<ellipse cx="270.459" cy="346.144" rx="46.8929" ry="46.8559" fill="#9A41FF"/>
<ellipse cx="516.306" cy="47.6819" rx="46.8929" ry="46.8559" fill="#FFDA01"/>
<ellipse cx="516.305" cy="346.144" rx="46.8929" ry="46.8559" fill="#FFDA01"/>
</svg>
