<svg width="153" height="49" viewBox="0 0 153 49" fill="none" xmlns="http://www.w3.org/2000/svg">
<rect x="0.5" y="0.521484" width="152" height="48" rx="24" fill="#2B5FFC"/>
<path d="M50.1406 19.0996H53.6953C55.2161 19.0996 56.3672 19.3132 57.1484 19.7402C57.9297 20.1673 58.3203 20.9173 58.3203 21.9902C58.3203 22.4225 58.25 22.8132 58.1094 23.1621C57.974 23.5111 57.776 23.7975 57.5156 24.0215C57.2552 24.2454 56.9375 24.3913 56.5625 24.459V24.5371C56.9427 24.6152 57.2865 24.7507 57.5938 24.9434C57.901 25.1309 58.1458 25.4069 58.3281 25.7715C58.5156 26.1309 58.6094 26.61 58.6094 27.209C58.6094 27.9017 58.4401 28.4954 58.1016 28.9902C57.763 29.485 57.2786 29.8652 56.6484 30.1309C56.0234 30.3913 55.2786 30.5215 54.4141 30.5215H50.1406V19.0996ZM52.5625 23.623H53.9688C54.6719 23.623 55.1589 23.5137 55.4297 23.2949C55.7005 23.071 55.8359 22.7428 55.8359 22.3105C55.8359 21.873 55.6745 21.5605 55.3516 21.373C55.0339 21.1803 54.5286 21.084 53.8359 21.084H52.5625V23.623ZM52.5625 25.5449V28.5215H54.1406C54.8698 28.5215 55.3776 28.3809 55.6641 28.0996C55.9505 27.8184 56.0938 27.4408 56.0938 26.9668C56.0938 26.6855 56.0312 26.4382 55.9062 26.2246C55.7812 26.0111 55.5703 25.8444 55.2734 25.7246C54.9818 25.6048 54.5781 25.5449 54.0625 25.5449H52.5625ZM68.7188 21.7871V30.5215H66.8906L66.5703 29.4043H66.4453C66.2578 29.7012 66.0234 29.9434 65.7422 30.1309C65.4609 30.3184 65.151 30.4564 64.8125 30.5449C64.474 30.6335 64.1224 30.6777 63.7578 30.6777C63.1328 30.6777 62.5885 30.5684 62.125 30.3496C61.6615 30.1257 61.2995 29.7793 61.0391 29.3105C60.7839 28.8418 60.6562 28.2324 60.6562 27.4824V21.7871H63.0391V26.8887C63.0391 27.5137 63.151 27.985 63.375 28.3027C63.599 28.6204 63.9557 28.7793 64.4453 28.7793C64.9297 28.7793 65.3099 28.6699 65.5859 28.4512C65.862 28.2272 66.0547 27.9017 66.1641 27.4746C66.2786 27.0423 66.3359 26.5163 66.3359 25.8965V21.7871H68.7188ZM74.8984 28.7793C75.1589 28.7793 75.4115 28.7533 75.6562 28.7012C75.9062 28.6491 76.1536 28.584 76.3984 28.5059V30.2793C76.1432 30.3939 75.8255 30.4876 75.4453 30.5605C75.0703 30.6387 74.6589 30.6777 74.2109 30.6777C73.6901 30.6777 73.2214 30.5944 72.8047 30.4277C72.3932 30.2559 72.0677 29.9616 71.8281 29.5449C71.5938 29.123 71.4766 28.5371 71.4766 27.7871V23.5762H70.3359V22.5684L71.6484 21.7715L72.3359 19.9277H73.8594V21.7871H76.3047V23.5762H73.8594V27.7871C73.8594 28.1204 73.9531 28.3704 74.1406 28.5371C74.3333 28.6986 74.5859 28.7793 74.8984 28.7793ZM81.8516 28.7793C82.112 28.7793 82.3646 28.7533 82.6094 28.7012C82.8594 28.6491 83.1068 28.584 83.3516 28.5059V30.2793C83.0964 30.3939 82.7786 30.4876 82.3984 30.5605C82.0234 30.6387 81.612 30.6777 81.1641 30.6777C80.6432 30.6777 80.1745 30.5944 79.7578 30.4277C79.3464 30.2559 79.0208 29.9616 78.7812 29.5449C78.5469 29.123 78.4297 28.5371 78.4297 27.7871V23.5762H77.2891V22.5684L78.6016 21.7715L79.2891 19.9277H80.8125V21.7871H83.2578V23.5762H80.8125V27.7871C80.8125 28.1204 80.9062 28.3704 81.0938 28.5371C81.2865 28.6986 81.5391 28.7793 81.8516 28.7793ZM93.0625 26.1387C93.0625 26.8678 92.9635 27.5137 92.7656 28.0762C92.5729 28.6387 92.2891 29.1152 91.9141 29.5059C91.5443 29.8913 91.0964 30.1829 90.5703 30.3809C90.0495 30.5788 89.4609 30.6777 88.8047 30.6777C88.1901 30.6777 87.625 30.5788 87.1094 30.3809C86.599 30.1829 86.1536 29.8913 85.7734 29.5059C85.3984 29.1152 85.1068 28.6387 84.8984 28.0762C84.6953 27.5137 84.5938 26.8678 84.5938 26.1387C84.5938 25.1699 84.7656 24.3496 85.1094 23.6777C85.4531 23.0059 85.9427 22.4954 86.5781 22.1465C87.2135 21.7975 87.9714 21.623 88.8516 21.623C89.6693 21.623 90.3932 21.7975 91.0234 22.1465C91.6589 22.4954 92.1562 23.0059 92.5156 23.6777C92.8802 24.3496 93.0625 25.1699 93.0625 26.1387ZM87.0234 26.1387C87.0234 26.7116 87.0859 27.1934 87.2109 27.584C87.3359 27.9746 87.5312 28.2689 87.7969 28.4668C88.0625 28.6647 88.4089 28.7637 88.8359 28.7637C89.2578 28.7637 89.599 28.6647 89.8594 28.4668C90.125 28.2689 90.3177 27.9746 90.4375 27.584C90.5625 27.1934 90.625 26.7116 90.625 26.1387C90.625 25.5605 90.5625 25.0814 90.4375 24.7012C90.3177 24.3158 90.125 24.0267 89.8594 23.834C89.5938 23.6413 89.2474 23.5449 88.8203 23.5449C88.1901 23.5449 87.7318 23.7611 87.4453 24.1934C87.1641 24.6257 87.0234 25.2741 87.0234 26.1387ZM99.9922 21.623C100.924 21.623 101.674 21.8783 102.242 22.3887C102.81 22.8939 103.094 23.7064 103.094 24.8262V30.5215H100.711V25.4199C100.711 24.7949 100.596 24.3236 100.367 24.0059C100.143 23.6882 99.7891 23.5293 99.3047 23.5293C98.5755 23.5293 98.0781 23.7767 97.8125 24.2715C97.5469 24.7663 97.4141 25.4798 97.4141 26.4121V30.5215H95.0312V21.7871H96.8516L97.1719 22.9043H97.3047C97.4922 22.6022 97.724 22.3574 98 22.1699C98.2812 21.9824 98.5911 21.8444 98.9297 21.7559C99.2734 21.6673 99.6276 21.623 99.9922 21.623Z" fill="white"/>
</svg>
