<svg width="1416" height="506" viewBox="0 0 1416 506" fill="none" xmlns="http://www.w3.org/2000/svg">
<rect y="0.478271" width="182" height="505" rx="8" fill="#2B5FFC"/>
<path d="M22.8203 439.345C25.0312 439.345 26.6445 439.779 27.6602 440.646C28.6836 441.506 29.1953 442.74 29.1953 444.349C29.1953 445.076 29.0742 445.767 28.832 446.424C28.5977 447.072 28.2148 447.646 27.6836 448.146C27.1523 448.638 26.4531 449.029 25.5859 449.318C24.7266 449.599 23.6719 449.74 22.4219 449.74H20.3359V456.478H18.3438V439.345H22.8203ZM22.6328 441.045H20.3359V448.029H22.1992C23.293 448.029 24.2031 447.912 24.9297 447.677C25.6641 447.443 26.2148 447.064 26.582 446.541C26.9492 446.01 27.1328 445.306 27.1328 444.431C27.1328 443.291 26.7695 442.443 26.043 441.888C25.3164 441.326 24.1797 441.045 22.6328 441.045ZM38.3242 443.4C38.582 443.4 38.8516 443.416 39.1328 443.447C39.4141 443.47 39.6641 443.506 39.8828 443.552L39.6367 445.357C39.4258 445.302 39.1914 445.26 38.9336 445.228C38.6758 445.197 38.4336 445.181 38.207 445.181C37.6914 445.181 37.2031 445.287 36.7422 445.498C36.2891 445.701 35.8906 445.998 35.5469 446.388C35.2031 446.771 34.9336 447.236 34.7383 447.783C34.543 448.322 34.4453 448.924 34.4453 449.588V456.478H32.4883V443.635H34.1055L34.3164 446.002H34.3984C34.6641 445.525 34.9844 445.092 35.3594 444.701C35.7344 444.302 36.168 443.986 36.6602 443.752C37.1602 443.517 37.7148 443.4 38.3242 443.4ZM44.2539 443.635V456.478H42.3086V443.635H44.2539ZM43.3047 438.83C43.625 438.83 43.8984 438.935 44.125 439.146C44.3594 439.349 44.4766 439.67 44.4766 440.107C44.4766 440.537 44.3594 440.857 44.125 441.068C43.8984 441.279 43.625 441.385 43.3047 441.385C42.9688 441.385 42.6875 441.279 42.4609 441.068C42.2422 440.857 42.1328 440.537 42.1328 440.107C42.1328 439.67 42.2422 439.349 42.4609 439.146C42.6875 438.935 42.9688 438.83 43.3047 438.83ZM62.3242 443.4C63.7383 443.4 64.8047 443.771 65.5234 444.513C66.2422 445.248 66.6016 446.431 66.6016 448.064V456.478H64.6797V448.158C64.6797 447.119 64.4531 446.342 64 445.826C63.5547 445.302 62.8906 445.041 62.0078 445.041C60.7656 445.041 59.8633 445.4 59.3008 446.119C58.7383 446.838 58.457 447.896 58.457 449.295V456.478H56.5234V448.158C56.5234 447.463 56.4219 446.885 56.2188 446.424C56.0234 445.963 55.7266 445.619 55.3281 445.392C54.9375 445.158 54.4414 445.041 53.8398 445.041C52.9883 445.041 52.3047 445.217 51.7891 445.568C51.2734 445.92 50.8984 446.443 50.6641 447.138C50.4375 447.826 50.3242 448.674 50.3242 449.681V456.478H48.3789V443.635H49.9492L50.2422 445.451H50.3477C50.6055 445.006 50.9297 444.631 51.3203 444.326C51.7109 444.021 52.1484 443.791 52.6328 443.635C53.1172 443.478 53.6328 443.4 54.1797 443.4C55.1562 443.4 55.9727 443.584 56.6289 443.951C57.293 444.31 57.7734 444.861 58.0703 445.603H58.1758C58.5977 444.861 59.1758 444.31 59.9102 443.951C60.6445 443.584 61.4492 443.4 62.3242 443.4ZM75.4023 443.424C76.9336 443.424 78.0703 443.767 78.8125 444.455C79.5547 445.142 79.9258 446.24 79.9258 447.748V456.478H78.5078L78.1328 454.58H78.0391C77.6797 455.049 77.3047 455.443 76.9141 455.763C76.5234 456.076 76.0703 456.314 75.5547 456.478C75.0469 456.635 74.4219 456.713 73.6797 456.713C72.8984 456.713 72.2031 456.576 71.5938 456.302C70.9922 456.029 70.5156 455.615 70.1641 455.06C69.8203 454.506 69.6484 453.802 69.6484 452.951C69.6484 451.67 70.1562 450.685 71.1719 449.998C72.1875 449.31 73.7344 448.935 75.8125 448.873L78.0273 448.779V447.994C78.0273 446.885 77.7891 446.107 77.3125 445.662C76.8359 445.217 76.1641 444.994 75.2969 444.994C74.625 444.994 73.9844 445.092 73.375 445.287C72.7656 445.482 72.1875 445.713 71.6406 445.978L71.043 444.502C71.6211 444.205 72.2852 443.951 73.0352 443.74C73.7852 443.529 74.5742 443.424 75.4023 443.424ZM78.0039 450.15L76.0469 450.232C74.4453 450.295 73.3164 450.556 72.6602 451.017C72.0039 451.478 71.6758 452.131 71.6758 452.974C71.6758 453.709 71.8984 454.252 72.3438 454.603C72.7891 454.955 73.3789 455.131 74.1133 455.131C75.2539 455.131 76.1875 454.814 76.9141 454.181C77.6406 453.549 78.0039 452.599 78.0039 451.334V450.15ZM89.7695 443.4C90.0273 443.4 90.2969 443.416 90.5781 443.447C90.8594 443.47 91.1094 443.506 91.3281 443.552L91.082 445.357C90.8711 445.302 90.6367 445.26 90.3789 445.228C90.1211 445.197 89.8789 445.181 89.6523 445.181C89.1367 445.181 88.6484 445.287 88.1875 445.498C87.7344 445.701 87.3359 445.998 86.9922 446.388C86.6484 446.771 86.3789 447.236 86.1836 447.783C85.9883 448.322 85.8906 448.924 85.8906 449.588V456.478H83.9336V443.635H85.5508L85.7617 446.002H85.8438C86.1094 445.525 86.4297 445.092 86.8047 444.701C87.1797 444.302 87.6133 443.986 88.1055 443.752C88.6055 443.517 89.1602 443.4 89.7695 443.4ZM91.7266 443.635H93.8125L96.6484 451.088C96.8125 451.525 96.9648 451.947 97.1055 452.353C97.2461 452.752 97.3711 453.135 97.4805 453.502C97.5898 453.869 97.6758 454.224 97.7383 454.568H97.8203C97.9297 454.177 98.0859 453.666 98.2891 453.033C98.4922 452.392 98.7109 451.74 98.9453 451.076L101.629 443.635H103.727L98.1367 458.365C97.8398 459.154 97.4922 459.842 97.0938 460.427C96.7031 461.013 96.2266 461.463 95.6641 461.775C95.1016 462.095 94.4219 462.256 93.625 462.256C93.2578 462.256 92.9336 462.232 92.6523 462.185C92.3711 462.146 92.1289 462.099 91.9258 462.045V460.486C92.0977 460.525 92.3047 460.56 92.5469 460.592C92.7969 460.623 93.0547 460.638 93.3203 460.638C93.8047 460.638 94.2227 460.545 94.5742 460.357C94.9336 460.177 95.2422 459.912 95.5 459.56C95.7578 459.209 95.9805 458.791 96.168 458.306L96.8711 456.502L91.7266 443.635Z" fill="white"/>
<path d="M18.3438 467.345H23.1953C25.3359 467.345 26.9453 467.666 28.0234 468.306C29.1016 468.947 29.6406 470.037 29.6406 471.576C29.6406 472.24 29.5117 472.838 29.2539 473.369C29.0039 473.892 28.6367 474.326 28.1523 474.67C27.668 475.013 27.0703 475.252 26.3594 475.385V475.502C27.1094 475.619 27.7734 475.834 28.3516 476.146C28.9297 476.459 29.3828 476.896 29.7109 477.459C30.0391 478.021 30.2031 478.736 30.2031 479.603C30.2031 480.658 29.957 481.549 29.4648 482.275C28.9805 483.002 28.293 483.552 27.4023 483.927C26.5117 484.295 25.457 484.478 24.2383 484.478H18.3438V467.345ZM20.3359 474.693H23.6172C25.1094 474.693 26.1406 474.447 26.7109 473.955C27.2891 473.463 27.5781 472.744 27.5781 471.799C27.5781 470.822 27.2344 470.119 26.5469 469.689C25.8672 469.26 24.7812 469.045 23.2891 469.045H20.3359V474.693ZM20.3359 476.369V482.779H23.8984C25.4219 482.779 26.5 482.482 27.1328 481.888C27.7656 481.287 28.082 480.478 28.082 479.463C28.082 478.814 27.9375 478.26 27.6484 477.799C27.3672 477.338 26.9062 476.986 26.2656 476.744C25.6328 476.494 24.7852 476.369 23.7227 476.369H20.3359ZM35.5234 484.478H33.5664V466.244H35.5234V484.478ZM50.2422 471.635V484.478H48.6484L48.3672 482.674H48.2617C47.9961 483.119 47.6523 483.494 47.2305 483.799C46.8086 484.103 46.332 484.33 45.8008 484.478C45.2773 484.635 44.7188 484.713 44.125 484.713C43.1094 484.713 42.2578 484.549 41.5703 484.22C40.8828 483.892 40.3633 483.385 40.0117 482.697C39.668 482.01 39.4961 481.127 39.4961 480.049V471.635H41.4648V479.908C41.4648 480.978 41.707 481.779 42.1914 482.31C42.6758 482.834 43.4141 483.095 44.4062 483.095C45.3594 483.095 46.1172 482.916 46.6797 482.556C47.25 482.197 47.6602 481.67 47.9102 480.974C48.1602 480.271 48.2852 479.412 48.2852 478.396V471.635H50.2422ZM59.3008 471.4C60.3945 471.4 61.332 471.642 62.1133 472.127C62.8945 472.611 63.4922 473.291 63.9062 474.166C64.3203 475.033 64.5273 476.049 64.5273 477.213V478.42H55.6562C55.6797 479.927 56.0547 481.076 56.7812 481.865C57.5078 482.654 58.5312 483.049 59.8516 483.049C60.6641 483.049 61.3828 482.974 62.0078 482.826C62.6328 482.677 63.2812 482.459 63.9531 482.17V483.881C63.3047 484.17 62.6602 484.381 62.0195 484.513C61.3867 484.646 60.6367 484.713 59.7695 484.713C58.5352 484.713 57.457 484.463 56.5352 483.963C55.6211 483.455 54.9102 482.713 54.4023 481.736C53.8945 480.76 53.6406 479.564 53.6406 478.15C53.6406 476.767 53.8711 475.572 54.332 474.564C54.8008 473.549 55.457 472.767 56.3008 472.22C57.1523 471.674 58.1523 471.4 59.3008 471.4ZM59.2773 472.994C58.2383 472.994 57.4102 473.334 56.793 474.013C56.1758 474.693 55.8086 475.642 55.6914 476.861H62.4883C62.4805 476.095 62.3594 475.424 62.125 474.845C61.8984 474.26 61.5508 473.806 61.082 473.486C60.6133 473.158 60.0117 472.994 59.2773 472.994Z" fill="white"/>
<rect x="205.667" y="0.478271" width="182" height="505" rx="8" fill="#141414"/>
<path d="M228.487 439.345C230.698 439.345 232.311 439.779 233.327 440.646C234.35 441.506 234.862 442.74 234.862 444.349C234.862 445.076 234.741 445.767 234.499 446.424C234.264 447.072 233.882 447.646 233.35 448.146C232.819 448.638 232.12 449.029 231.253 449.318C230.393 449.599 229.339 449.74 228.089 449.74H226.003V456.478H224.01V439.345H228.487ZM228.3 441.045H226.003V448.029H227.866C228.96 448.029 229.87 447.912 230.596 447.677C231.331 447.443 231.882 447.064 232.249 446.541C232.616 446.01 232.8 445.306 232.8 444.431C232.8 443.291 232.436 442.443 231.71 441.888C230.983 441.326 229.846 441.045 228.3 441.045ZM243.991 443.4C244.249 443.4 244.518 443.416 244.8 443.447C245.081 443.47 245.331 443.506 245.55 443.552L245.303 445.357C245.093 445.302 244.858 445.26 244.6 445.228C244.343 445.197 244.1 445.181 243.874 445.181C243.358 445.181 242.87 445.287 242.409 445.498C241.956 445.701 241.557 445.998 241.214 446.388C240.87 446.771 240.6 447.236 240.405 447.783C240.21 448.322 240.112 448.924 240.112 449.588V456.478H238.155V443.635H239.772L239.983 446.002H240.065C240.331 445.525 240.651 445.092 241.026 444.701C241.401 444.302 241.835 443.986 242.327 443.752C242.827 443.517 243.382 443.4 243.991 443.4ZM249.921 443.635V456.478H247.975V443.635H249.921ZM248.971 438.83C249.292 438.83 249.565 438.935 249.792 439.146C250.026 439.349 250.143 439.67 250.143 440.107C250.143 440.537 250.026 440.857 249.792 441.068C249.565 441.279 249.292 441.385 248.971 441.385C248.635 441.385 248.354 441.279 248.128 441.068C247.909 440.857 247.8 440.537 247.8 440.107C247.8 439.67 247.909 439.349 248.128 439.146C248.354 438.935 248.635 438.83 248.971 438.83ZM267.991 443.4C269.405 443.4 270.471 443.771 271.19 444.513C271.909 445.248 272.268 446.431 272.268 448.064V456.478H270.346V448.158C270.346 447.119 270.12 446.342 269.667 445.826C269.221 445.302 268.557 445.041 267.675 445.041C266.432 445.041 265.53 445.4 264.968 446.119C264.405 446.838 264.124 447.896 264.124 449.295V456.478H262.19V448.158C262.19 447.463 262.089 446.885 261.885 446.424C261.69 445.963 261.393 445.619 260.995 445.392C260.604 445.158 260.108 445.041 259.507 445.041C258.655 445.041 257.971 445.217 257.456 445.568C256.94 445.92 256.565 446.443 256.331 447.138C256.104 447.826 255.991 448.674 255.991 449.681V456.478H254.046V443.635H255.616L255.909 445.451H256.014C256.272 445.006 256.596 444.631 256.987 444.326C257.378 444.021 257.815 443.791 258.3 443.635C258.784 443.478 259.3 443.4 259.846 443.4C260.823 443.4 261.639 443.584 262.296 443.951C262.96 444.31 263.44 444.861 263.737 445.603H263.843C264.264 444.861 264.843 444.31 265.577 443.951C266.311 443.584 267.116 443.4 267.991 443.4ZM281.069 443.424C282.6 443.424 283.737 443.767 284.479 444.455C285.221 445.142 285.593 446.24 285.593 447.748V456.478H284.175L283.8 454.58H283.706C283.346 455.049 282.971 455.443 282.581 455.763C282.19 456.076 281.737 456.314 281.221 456.478C280.714 456.635 280.089 456.713 279.346 456.713C278.565 456.713 277.87 456.576 277.26 456.302C276.659 456.029 276.182 455.615 275.831 455.06C275.487 454.506 275.315 453.802 275.315 452.951C275.315 451.67 275.823 450.685 276.839 449.998C277.854 449.31 279.401 448.935 281.479 448.873L283.694 448.779V447.994C283.694 446.885 283.456 446.107 282.979 445.662C282.503 445.217 281.831 444.994 280.964 444.994C280.292 444.994 279.651 445.092 279.042 445.287C278.432 445.482 277.854 445.713 277.307 445.978L276.71 444.502C277.288 444.205 277.952 443.951 278.702 443.74C279.452 443.529 280.241 443.424 281.069 443.424ZM283.671 450.15L281.714 450.232C280.112 450.295 278.983 450.556 278.327 451.017C277.671 451.478 277.343 452.131 277.343 452.974C277.343 453.709 277.565 454.252 278.01 454.603C278.456 454.955 279.046 455.131 279.78 455.131C280.921 455.131 281.854 454.814 282.581 454.181C283.307 453.549 283.671 452.599 283.671 451.334V450.15ZM295.436 443.4C295.694 443.4 295.964 443.416 296.245 443.447C296.526 443.47 296.776 443.506 296.995 443.552L296.749 445.357C296.538 445.302 296.303 445.26 296.046 445.228C295.788 445.197 295.546 445.181 295.319 445.181C294.803 445.181 294.315 445.287 293.854 445.498C293.401 445.701 293.003 445.998 292.659 446.388C292.315 446.771 292.046 447.236 291.85 447.783C291.655 448.322 291.557 448.924 291.557 449.588V456.478H289.6V443.635H291.218L291.428 446.002H291.51C291.776 445.525 292.096 445.092 292.471 444.701C292.846 444.302 293.28 443.986 293.772 443.752C294.272 443.517 294.827 443.4 295.436 443.4ZM297.393 443.635H299.479L302.315 451.088C302.479 451.525 302.632 451.947 302.772 452.353C302.913 452.752 303.038 453.135 303.147 453.502C303.257 453.869 303.343 454.224 303.405 454.568H303.487C303.596 454.177 303.753 453.666 303.956 453.033C304.159 452.392 304.378 451.74 304.612 451.076L307.296 443.635H309.393L303.803 458.365C303.507 459.154 303.159 459.842 302.76 460.427C302.37 461.013 301.893 461.463 301.331 461.775C300.768 462.095 300.089 462.256 299.292 462.256C298.925 462.256 298.6 462.232 298.319 462.185C298.038 462.146 297.796 462.099 297.593 462.045V460.486C297.764 460.525 297.971 460.56 298.214 460.592C298.464 460.623 298.721 460.638 298.987 460.638C299.471 460.638 299.889 460.545 300.241 460.357C300.6 460.177 300.909 459.912 301.167 459.56C301.425 459.209 301.647 458.791 301.835 458.306L302.538 456.502L297.393 443.635Z" fill="white"/>
<path d="M224.01 467.345H228.862C231.003 467.345 232.612 467.666 233.69 468.306C234.768 468.947 235.307 470.037 235.307 471.576C235.307 472.24 235.178 472.838 234.921 473.369C234.671 473.892 234.303 474.326 233.819 474.67C233.335 475.013 232.737 475.252 232.026 475.385V475.502C232.776 475.619 233.44 475.834 234.018 476.146C234.596 476.459 235.05 476.896 235.378 477.459C235.706 478.021 235.87 478.736 235.87 479.603C235.87 480.658 235.624 481.549 235.132 482.275C234.647 483.002 233.96 483.552 233.069 483.927C232.178 484.295 231.124 484.478 229.905 484.478H224.01V467.345ZM226.003 474.693H229.284C230.776 474.693 231.807 474.447 232.378 473.955C232.956 473.463 233.245 472.744 233.245 471.799C233.245 470.822 232.901 470.119 232.214 469.689C231.534 469.26 230.448 469.045 228.956 469.045H226.003V474.693ZM226.003 476.369V482.779H229.565C231.089 482.779 232.167 482.482 232.8 481.888C233.432 481.287 233.749 480.478 233.749 479.463C233.749 478.814 233.604 478.26 233.315 477.799C233.034 477.338 232.573 476.986 231.932 476.744C231.3 476.494 230.452 476.369 229.389 476.369H226.003ZM241.19 484.478H239.233V466.244H241.19V484.478ZM250.108 471.424C251.639 471.424 252.776 471.767 253.518 472.455C254.26 473.142 254.632 474.24 254.632 475.748V484.478H253.214L252.839 482.58H252.745C252.385 483.049 252.01 483.443 251.62 483.763C251.229 484.076 250.776 484.314 250.26 484.478C249.753 484.635 249.128 484.713 248.385 484.713C247.604 484.713 246.909 484.576 246.3 484.302C245.698 484.029 245.221 483.615 244.87 483.06C244.526 482.506 244.354 481.802 244.354 480.951C244.354 479.67 244.862 478.685 245.878 477.998C246.893 477.31 248.44 476.935 250.518 476.873L252.733 476.779V475.994C252.733 474.885 252.495 474.107 252.018 473.662C251.542 473.217 250.87 472.994 250.003 472.994C249.331 472.994 248.69 473.092 248.081 473.287C247.471 473.482 246.893 473.713 246.346 473.978L245.749 472.502C246.327 472.205 246.991 471.951 247.741 471.74C248.491 471.529 249.28 471.424 250.108 471.424ZM252.71 478.15L250.753 478.232C249.151 478.295 248.022 478.556 247.366 479.017C246.71 479.478 246.382 480.131 246.382 480.974C246.382 481.709 246.604 482.252 247.05 482.603C247.495 482.955 248.085 483.131 248.819 483.131C249.96 483.131 250.893 482.814 251.62 482.181C252.346 481.549 252.71 480.599 252.71 479.334V478.15ZM263.784 484.713C262.628 484.713 261.608 484.474 260.725 483.998C259.843 483.521 259.155 482.795 258.663 481.818C258.171 480.842 257.925 479.611 257.925 478.127C257.925 476.572 258.182 475.302 258.698 474.318C259.221 473.326 259.94 472.592 260.854 472.115C261.768 471.638 262.807 471.4 263.971 471.4C264.612 471.4 265.229 471.467 265.823 471.599C266.425 471.724 266.917 471.885 267.3 472.08L266.714 473.709C266.323 473.552 265.87 473.412 265.354 473.287C264.846 473.162 264.37 473.099 263.925 473.099C263.034 473.099 262.292 473.291 261.698 473.674C261.112 474.056 260.671 474.619 260.374 475.361C260.085 476.103 259.94 477.017 259.94 478.103C259.94 479.142 260.081 480.029 260.362 480.763C260.651 481.498 261.077 482.06 261.639 482.451C262.21 482.834 262.921 483.025 263.772 483.025C264.452 483.025 265.065 482.955 265.612 482.814C266.159 482.666 266.655 482.494 267.1 482.299V484.033C266.671 484.252 266.19 484.42 265.659 484.537C265.135 484.654 264.51 484.713 263.784 484.713ZM272.081 466.244V475.713C272.081 476.025 272.069 476.408 272.046 476.861C272.022 477.306 272.003 477.701 271.987 478.045H272.069C272.233 477.842 272.471 477.541 272.784 477.142C273.104 476.744 273.374 476.424 273.593 476.181L277.858 471.635H280.143L274.975 477.119L280.518 484.478H278.175L273.639 478.396L272.081 479.826V484.478H270.147V466.244H272.081Z" fill="white"/>
<rect x="411.333" y="0.478271" width="182" height="505" rx="8" fill="#FFDA01"/>
<path d="M439.345 451.92C439.345 452.935 439.091 453.802 438.583 454.521C438.083 455.232 437.38 455.775 436.474 456.15C435.568 456.525 434.501 456.713 433.275 456.713C432.626 456.713 432.013 456.681 431.435 456.619C430.857 456.556 430.325 456.467 429.841 456.349C429.357 456.232 428.931 456.088 428.564 455.916V454.006C429.15 454.248 429.865 454.474 430.708 454.685C431.552 454.888 432.435 454.99 433.357 454.99C434.216 454.99 434.943 454.877 435.536 454.65C436.13 454.416 436.579 454.084 436.884 453.654C437.197 453.217 437.353 452.693 437.353 452.084C437.353 451.498 437.224 451.01 436.966 450.619C436.708 450.22 436.279 449.861 435.677 449.541C435.083 449.213 434.271 448.865 433.24 448.498C432.513 448.24 431.872 447.959 431.318 447.654C430.763 447.342 430.298 446.99 429.923 446.599C429.548 446.209 429.263 445.756 429.068 445.24C428.88 444.724 428.786 444.135 428.786 443.47C428.786 442.556 429.017 441.775 429.478 441.127C429.947 440.47 430.591 439.97 431.411 439.627C432.24 439.275 433.189 439.099 434.259 439.099C435.173 439.099 436.017 439.185 436.79 439.357C437.572 439.529 438.286 439.76 438.935 440.049L438.314 441.76C437.697 441.502 437.04 441.287 436.345 441.115C435.657 440.943 434.947 440.857 434.212 440.857C433.478 440.857 432.857 440.967 432.349 441.185C431.849 441.396 431.466 441.697 431.2 442.088C430.935 442.478 430.802 442.943 430.802 443.482C430.802 444.084 430.927 444.584 431.177 444.982C431.435 445.381 431.841 445.736 432.396 446.049C432.958 446.353 433.7 446.674 434.622 447.01C435.63 447.377 436.486 447.767 437.189 448.181C437.892 448.588 438.427 449.088 438.794 449.681C439.161 450.267 439.345 451.013 439.345 451.92ZM447.501 443.4C448.595 443.4 449.532 443.642 450.314 444.127C451.095 444.611 451.693 445.291 452.107 446.166C452.521 447.033 452.728 448.049 452.728 449.213V450.42H443.857C443.88 451.927 444.255 453.076 444.982 453.865C445.708 454.654 446.732 455.049 448.052 455.049C448.865 455.049 449.583 454.974 450.208 454.826C450.833 454.677 451.482 454.459 452.154 454.17V455.881C451.505 456.17 450.861 456.381 450.22 456.513C449.587 456.646 448.837 456.713 447.97 456.713C446.736 456.713 445.657 456.463 444.736 455.963C443.822 455.455 443.111 454.713 442.603 453.736C442.095 452.76 441.841 451.564 441.841 450.15C441.841 448.767 442.072 447.572 442.532 446.564C443.001 445.549 443.657 444.767 444.501 444.22C445.353 443.674 446.353 443.4 447.501 443.4ZM447.478 444.994C446.439 444.994 445.611 445.334 444.993 446.013C444.376 446.693 444.009 447.642 443.892 448.861H450.689C450.681 448.095 450.56 447.424 450.325 446.845C450.099 446.26 449.751 445.806 449.282 445.486C448.814 445.158 448.212 444.994 447.478 444.994ZM461.177 456.713C460.021 456.713 459.001 456.474 458.118 455.998C457.236 455.521 456.548 454.795 456.056 453.818C455.564 452.842 455.318 451.611 455.318 450.127C455.318 448.572 455.575 447.302 456.091 446.318C456.615 445.326 457.333 444.592 458.247 444.115C459.161 443.638 460.2 443.4 461.365 443.4C462.005 443.4 462.622 443.467 463.216 443.599C463.818 443.724 464.31 443.885 464.693 444.08L464.107 445.709C463.716 445.552 463.263 445.412 462.747 445.287C462.24 445.162 461.763 445.099 461.318 445.099C460.427 445.099 459.685 445.291 459.091 445.674C458.505 446.056 458.064 446.619 457.767 447.361C457.478 448.103 457.333 449.017 457.333 450.103C457.333 451.142 457.474 452.029 457.755 452.763C458.044 453.498 458.47 454.06 459.032 454.451C459.603 454.834 460.314 455.025 461.165 455.025C461.845 455.025 462.458 454.955 463.005 454.814C463.552 454.666 464.048 454.494 464.493 454.299V456.033C464.064 456.252 463.583 456.42 463.052 456.537C462.529 456.654 461.904 456.713 461.177 456.713ZM478.615 450.033C478.615 451.088 478.478 452.029 478.204 452.857C477.931 453.685 477.536 454.385 477.021 454.955C476.505 455.525 475.88 455.963 475.146 456.267C474.419 456.564 473.595 456.713 472.673 456.713C471.814 456.713 471.025 456.564 470.306 456.267C469.595 455.963 468.978 455.525 468.454 454.955C467.939 454.385 467.536 453.685 467.247 452.857C466.966 452.029 466.825 451.088 466.825 450.033C466.825 448.627 467.064 447.431 467.54 446.447C468.017 445.455 468.697 444.701 469.579 444.185C470.47 443.662 471.529 443.4 472.755 443.4C473.927 443.4 474.95 443.662 475.825 444.185C476.708 444.709 477.392 445.467 477.876 446.459C478.368 447.443 478.615 448.635 478.615 450.033ZM468.841 450.033C468.841 451.064 468.978 451.959 469.251 452.717C469.525 453.474 469.947 454.06 470.517 454.474C471.087 454.888 471.822 455.095 472.72 455.095C473.611 455.095 474.341 454.888 474.911 454.474C475.49 454.06 475.915 453.474 476.189 452.717C476.462 451.959 476.599 451.064 476.599 450.033C476.599 449.01 476.462 448.127 476.189 447.385C475.915 446.635 475.493 446.056 474.923 445.65C474.353 445.244 473.615 445.041 472.708 445.041C471.372 445.041 470.392 445.482 469.767 446.365C469.15 447.248 468.841 448.47 468.841 450.033ZM488.06 443.4C489.583 443.4 490.736 443.775 491.517 444.525C492.298 445.267 492.689 446.463 492.689 448.111V456.478H490.767V448.24C490.767 447.17 490.521 446.369 490.029 445.838C489.544 445.306 488.798 445.041 487.79 445.041C486.368 445.041 485.368 445.443 484.79 446.248C484.212 447.052 483.923 448.22 483.923 449.752V456.478H481.978V443.635H483.548L483.841 445.486H483.947C484.22 445.033 484.568 444.654 484.99 444.349C485.411 444.037 485.884 443.802 486.407 443.646C486.931 443.482 487.482 443.4 488.06 443.4ZM501.267 456.713C499.642 456.713 498.353 456.158 497.4 455.049C496.454 453.939 495.982 452.291 495.982 450.103C495.982 447.892 496.466 446.224 497.435 445.099C498.404 443.967 499.693 443.4 501.302 443.4C501.982 443.4 502.575 443.49 503.083 443.67C503.591 443.849 504.029 444.092 504.396 444.396C504.763 444.693 505.072 445.033 505.322 445.416H505.462C505.431 445.174 505.4 444.842 505.368 444.42C505.337 443.998 505.322 443.654 505.322 443.388V438.244H507.267V456.478H505.697L505.404 454.65H505.322C505.079 455.033 504.771 455.381 504.396 455.693C504.029 456.006 503.587 456.256 503.072 456.443C502.564 456.623 501.962 456.713 501.267 456.713ZM501.572 455.095C502.947 455.095 503.919 454.705 504.49 453.924C505.06 453.142 505.345 451.982 505.345 450.443V450.092C505.345 448.459 505.072 447.205 504.525 446.33C503.986 445.455 503.001 445.017 501.572 445.017C500.376 445.017 499.482 445.478 498.888 446.4C498.294 447.314 497.997 448.564 497.997 450.15C497.997 451.728 498.29 452.947 498.876 453.806C499.47 454.666 500.368 455.095 501.572 455.095ZM516.197 443.424C517.728 443.424 518.865 443.767 519.607 444.455C520.349 445.142 520.72 446.24 520.72 447.748V456.478H519.302L518.927 454.58H518.833C518.474 455.049 518.099 455.443 517.708 455.763C517.318 456.076 516.865 456.314 516.349 456.478C515.841 456.635 515.216 456.713 514.474 456.713C513.693 456.713 512.997 456.576 512.388 456.302C511.786 456.029 511.31 455.615 510.958 455.06C510.615 454.506 510.443 453.802 510.443 452.951C510.443 451.67 510.95 450.685 511.966 449.998C512.982 449.31 514.529 448.935 516.607 448.873L518.822 448.779V447.994C518.822 446.885 518.583 446.107 518.107 445.662C517.63 445.217 516.958 444.994 516.091 444.994C515.419 444.994 514.779 445.092 514.169 445.287C513.56 445.482 512.982 445.713 512.435 445.978L511.837 444.502C512.415 444.205 513.079 443.951 513.829 443.74C514.579 443.529 515.368 443.424 516.197 443.424ZM518.798 450.15L516.841 450.232C515.24 450.295 514.111 450.556 513.454 451.017C512.798 451.478 512.47 452.131 512.47 452.974C512.47 453.709 512.693 454.252 513.138 454.603C513.583 454.955 514.173 455.131 514.907 455.131C516.048 455.131 516.982 454.814 517.708 454.181C518.435 453.549 518.798 452.599 518.798 451.334V450.15ZM530.564 443.4C530.822 443.4 531.091 443.416 531.372 443.447C531.654 443.47 531.904 443.506 532.122 443.552L531.876 445.357C531.665 445.302 531.431 445.26 531.173 445.228C530.915 445.197 530.673 445.181 530.447 445.181C529.931 445.181 529.443 445.287 528.982 445.498C528.529 445.701 528.13 445.998 527.786 446.388C527.443 446.771 527.173 447.236 526.978 447.783C526.782 448.322 526.685 448.924 526.685 449.588V456.478H524.728V443.635H526.345L526.556 446.002H526.638C526.904 445.525 527.224 445.092 527.599 444.701C527.974 444.302 528.407 443.986 528.9 443.752C529.4 443.517 529.954 443.4 530.564 443.4ZM532.521 443.635H534.607L537.443 451.088C537.607 451.525 537.759 451.947 537.9 452.353C538.04 452.752 538.165 453.135 538.275 453.502C538.384 453.869 538.47 454.224 538.532 454.568H538.615C538.724 454.177 538.88 453.666 539.083 453.033C539.286 452.392 539.505 451.74 539.74 451.076L542.423 443.635H544.521L538.931 458.365C538.634 459.154 538.286 459.842 537.888 460.427C537.497 461.013 537.021 461.463 536.458 461.775C535.896 462.095 535.216 462.256 534.419 462.256C534.052 462.256 533.728 462.232 533.447 462.185C533.165 462.146 532.923 462.099 532.72 462.045V460.486C532.892 460.525 533.099 460.56 533.341 460.592C533.591 460.623 533.849 460.638 534.115 460.638C534.599 460.638 535.017 460.545 535.368 460.357C535.728 460.177 536.036 459.912 536.294 459.56C536.552 459.209 536.775 458.791 536.962 458.306L537.665 456.502L532.521 443.635Z" fill="#141414"/>
<path d="M434.048 475.935L438.607 467.345H440.751L435.044 477.834V484.478H433.052V477.927L427.333 467.345H429.513L434.048 475.935ZM447.759 471.4C448.853 471.4 449.79 471.642 450.572 472.127C451.353 472.611 451.95 473.291 452.365 474.166C452.779 475.033 452.986 476.049 452.986 477.213V478.42H444.115C444.138 479.927 444.513 481.076 445.24 481.865C445.966 482.654 446.99 483.049 448.31 483.049C449.122 483.049 449.841 482.974 450.466 482.826C451.091 482.677 451.74 482.459 452.411 482.17V483.881C451.763 484.17 451.118 484.381 450.478 484.513C449.845 484.646 449.095 484.713 448.228 484.713C446.993 484.713 445.915 484.463 444.993 483.963C444.079 483.455 443.368 482.713 442.861 481.736C442.353 480.76 442.099 479.564 442.099 478.15C442.099 476.767 442.329 475.572 442.79 474.564C443.259 473.549 443.915 472.767 444.759 472.22C445.611 471.674 446.611 471.4 447.759 471.4ZM447.736 472.994C446.697 472.994 445.868 473.334 445.251 474.013C444.634 474.693 444.267 475.642 444.15 476.861H450.947C450.939 476.095 450.818 475.424 450.583 474.845C450.357 474.26 450.009 473.806 449.54 473.486C449.072 473.158 448.47 472.994 447.736 472.994ZM458.247 484.478H456.29V466.244H458.247V484.478ZM464.318 484.478H462.361V466.244H464.318V484.478ZM479.505 478.033C479.505 479.088 479.368 480.029 479.095 480.857C478.822 481.685 478.427 482.385 477.911 482.955C477.396 483.525 476.771 483.963 476.036 484.267C475.31 484.564 474.486 484.713 473.564 484.713C472.704 484.713 471.915 484.564 471.197 484.267C470.486 483.963 469.868 483.525 469.345 482.955C468.829 482.385 468.427 481.685 468.138 480.857C467.857 480.029 467.716 479.088 467.716 478.033C467.716 476.627 467.954 475.431 468.431 474.447C468.907 473.455 469.587 472.701 470.47 472.185C471.361 471.662 472.419 471.4 473.646 471.4C474.818 471.4 475.841 471.662 476.716 472.185C477.599 472.709 478.282 473.467 478.767 474.459C479.259 475.443 479.505 476.635 479.505 478.033ZM469.732 478.033C469.732 479.064 469.868 479.959 470.142 480.717C470.415 481.474 470.837 482.06 471.407 482.474C471.978 482.888 472.712 483.095 473.611 483.095C474.501 483.095 475.232 482.888 475.802 482.474C476.38 482.06 476.806 481.474 477.079 480.717C477.353 479.959 477.49 479.064 477.49 478.033C477.49 477.01 477.353 476.127 477.079 475.385C476.806 474.635 476.384 474.056 475.814 473.65C475.243 473.244 474.505 473.041 473.599 473.041C472.263 473.041 471.282 473.482 470.657 474.365C470.04 475.248 469.732 476.47 469.732 478.033ZM493.322 484.455L491.036 476.978C490.935 476.658 490.837 476.345 490.743 476.041C490.657 475.728 490.575 475.431 490.497 475.15C490.427 474.861 490.361 474.595 490.298 474.353C490.243 474.103 490.197 473.888 490.157 473.709H490.075C490.044 473.888 490.001 474.103 489.947 474.353C489.892 474.595 489.825 474.861 489.747 475.15C489.677 475.439 489.599 475.744 489.513 476.064C489.427 476.377 489.329 476.693 489.22 477.013L486.829 484.455H484.638L481.099 471.611H483.115L484.966 478.701C485.091 479.17 485.208 479.635 485.318 480.095C485.435 480.549 485.532 480.978 485.611 481.385C485.697 481.783 485.759 482.131 485.798 482.427H485.892C485.939 482.232 485.99 481.998 486.044 481.724C486.107 481.451 486.173 481.162 486.243 480.857C486.322 480.545 486.404 480.236 486.49 479.931C486.575 479.619 486.661 479.326 486.747 479.052L489.115 471.611H491.212L493.497 479.041C493.615 479.416 493.728 479.806 493.837 480.213C493.954 480.619 494.06 481.013 494.154 481.396C494.247 481.771 494.314 482.107 494.353 482.404H494.447C494.478 482.138 494.536 481.81 494.622 481.42C494.708 481.029 494.806 480.599 494.915 480.131C495.032 479.662 495.154 479.185 495.279 478.701L497.154 471.611H499.134L495.583 484.455H493.322Z" fill="#141414"/>
<rect x="617" y="0.478271" width="182" height="505" rx="8" fill="#FF5E09"/>
<path d="M645.012 451.92C645.012 452.935 644.758 453.802 644.25 454.521C643.75 455.232 643.047 455.775 642.141 456.15C641.234 456.525 640.168 456.713 638.941 456.713C638.293 456.713 637.68 456.681 637.102 456.619C636.523 456.556 635.992 456.467 635.508 456.349C635.023 456.232 634.598 456.088 634.23 455.916V454.006C634.816 454.248 635.531 454.474 636.375 454.685C637.219 454.888 638.102 454.99 639.023 454.99C639.883 454.99 640.609 454.877 641.203 454.65C641.797 454.416 642.246 454.084 642.551 453.654C642.863 453.217 643.02 452.693 643.02 452.084C643.02 451.498 642.891 451.01 642.633 450.619C642.375 450.22 641.945 449.861 641.344 449.541C640.75 449.213 639.938 448.865 638.906 448.498C638.18 448.24 637.539 447.959 636.984 447.654C636.43 447.342 635.965 446.99 635.59 446.599C635.215 446.209 634.93 445.756 634.734 445.24C634.547 444.724 634.453 444.135 634.453 443.47C634.453 442.556 634.684 441.775 635.145 441.127C635.613 440.47 636.258 439.97 637.078 439.627C637.906 439.275 638.855 439.099 639.926 439.099C640.84 439.099 641.684 439.185 642.457 439.357C643.238 439.529 643.953 439.76 644.602 440.049L643.98 441.76C643.363 441.502 642.707 441.287 642.012 441.115C641.324 440.943 640.613 440.857 639.879 440.857C639.145 440.857 638.523 440.967 638.016 441.185C637.516 441.396 637.133 441.697 636.867 442.088C636.602 442.478 636.469 442.943 636.469 443.482C636.469 444.084 636.594 444.584 636.844 444.982C637.102 445.381 637.508 445.736 638.062 446.049C638.625 446.353 639.367 446.674 640.289 447.01C641.297 447.377 642.152 447.767 642.855 448.181C643.559 448.588 644.094 449.088 644.461 449.681C644.828 450.267 645.012 451.013 645.012 451.92ZM653.168 443.4C654.262 443.4 655.199 443.642 655.98 444.127C656.762 444.611 657.359 445.291 657.773 446.166C658.188 447.033 658.395 448.049 658.395 449.213V450.42H649.523C649.547 451.927 649.922 453.076 650.648 453.865C651.375 454.654 652.398 455.049 653.719 455.049C654.531 455.049 655.25 454.974 655.875 454.826C656.5 454.677 657.148 454.459 657.82 454.17V455.881C657.172 456.17 656.527 456.381 655.887 456.513C655.254 456.646 654.504 456.713 653.637 456.713C652.402 456.713 651.324 456.463 650.402 455.963C649.488 455.455 648.777 454.713 648.27 453.736C647.762 452.76 647.508 451.564 647.508 450.15C647.508 448.767 647.738 447.572 648.199 446.564C648.668 445.549 649.324 444.767 650.168 444.22C651.02 443.674 652.02 443.4 653.168 443.4ZM653.145 444.994C652.105 444.994 651.277 445.334 650.66 446.013C650.043 446.693 649.676 447.642 649.559 448.861H656.355C656.348 448.095 656.227 447.424 655.992 446.845C655.766 446.26 655.418 445.806 654.949 445.486C654.48 445.158 653.879 444.994 653.145 444.994ZM666.844 456.713C665.688 456.713 664.668 456.474 663.785 455.998C662.902 455.521 662.215 454.795 661.723 453.818C661.23 452.842 660.984 451.611 660.984 450.127C660.984 448.572 661.242 447.302 661.758 446.318C662.281 445.326 663 444.592 663.914 444.115C664.828 443.638 665.867 443.4 667.031 443.4C667.672 443.4 668.289 443.467 668.883 443.599C669.484 443.724 669.977 443.885 670.359 444.08L669.773 445.709C669.383 445.552 668.93 445.412 668.414 445.287C667.906 445.162 667.43 445.099 666.984 445.099C666.094 445.099 665.352 445.291 664.758 445.674C664.172 446.056 663.73 446.619 663.434 447.361C663.145 448.103 663 449.017 663 450.103C663 451.142 663.141 452.029 663.422 452.763C663.711 453.498 664.137 454.06 664.699 454.451C665.27 454.834 665.98 455.025 666.832 455.025C667.512 455.025 668.125 454.955 668.672 454.814C669.219 454.666 669.715 454.494 670.16 454.299V456.033C669.73 456.252 669.25 456.42 668.719 456.537C668.195 456.654 667.57 456.713 666.844 456.713ZM684.281 450.033C684.281 451.088 684.145 452.029 683.871 452.857C683.598 453.685 683.203 454.385 682.688 454.955C682.172 455.525 681.547 455.963 680.812 456.267C680.086 456.564 679.262 456.713 678.34 456.713C677.48 456.713 676.691 456.564 675.973 456.267C675.262 455.963 674.645 455.525 674.121 454.955C673.605 454.385 673.203 453.685 672.914 452.857C672.633 452.029 672.492 451.088 672.492 450.033C672.492 448.627 672.73 447.431 673.207 446.447C673.684 445.455 674.363 444.701 675.246 444.185C676.137 443.662 677.195 443.4 678.422 443.4C679.594 443.4 680.617 443.662 681.492 444.185C682.375 444.709 683.059 445.467 683.543 446.459C684.035 447.443 684.281 448.635 684.281 450.033ZM674.508 450.033C674.508 451.064 674.645 451.959 674.918 452.717C675.191 453.474 675.613 454.06 676.184 454.474C676.754 454.888 677.488 455.095 678.387 455.095C679.277 455.095 680.008 454.888 680.578 454.474C681.156 454.06 681.582 453.474 681.855 452.717C682.129 451.959 682.266 451.064 682.266 450.033C682.266 449.01 682.129 448.127 681.855 447.385C681.582 446.635 681.16 446.056 680.59 445.65C680.02 445.244 679.281 445.041 678.375 445.041C677.039 445.041 676.059 445.482 675.434 446.365C674.816 447.248 674.508 448.47 674.508 450.033ZM693.727 443.4C695.25 443.4 696.402 443.775 697.184 444.525C697.965 445.267 698.355 446.463 698.355 448.111V456.478H696.434V448.24C696.434 447.17 696.188 446.369 695.695 445.838C695.211 445.306 694.465 445.041 693.457 445.041C692.035 445.041 691.035 445.443 690.457 446.248C689.879 447.052 689.59 448.22 689.59 449.752V456.478H687.645V443.635H689.215L689.508 445.486H689.613C689.887 445.033 690.234 444.654 690.656 444.349C691.078 444.037 691.551 443.802 692.074 443.646C692.598 443.482 693.148 443.4 693.727 443.4ZM706.934 456.713C705.309 456.713 704.02 456.158 703.066 455.049C702.121 453.939 701.648 452.291 701.648 450.103C701.648 447.892 702.133 446.224 703.102 445.099C704.07 443.967 705.359 443.4 706.969 443.4C707.648 443.4 708.242 443.49 708.75 443.67C709.258 443.849 709.695 444.092 710.062 444.396C710.43 444.693 710.738 445.033 710.988 445.416H711.129C711.098 445.174 711.066 444.842 711.035 444.42C711.004 443.998 710.988 443.654 710.988 443.388V438.244H712.934V456.478H711.363L711.07 454.65H710.988C710.746 455.033 710.438 455.381 710.062 455.693C709.695 456.006 709.254 456.256 708.738 456.443C708.23 456.623 707.629 456.713 706.934 456.713ZM707.238 455.095C708.613 455.095 709.586 454.705 710.156 453.924C710.727 453.142 711.012 451.982 711.012 450.443V450.092C711.012 448.459 710.738 447.205 710.191 446.33C709.652 445.455 708.668 445.017 707.238 445.017C706.043 445.017 705.148 445.478 704.555 446.4C703.961 447.314 703.664 448.564 703.664 450.15C703.664 451.728 703.957 452.947 704.543 453.806C705.137 454.666 706.035 455.095 707.238 455.095ZM721.863 443.424C723.395 443.424 724.531 443.767 725.273 444.455C726.016 445.142 726.387 446.24 726.387 447.748V456.478H724.969L724.594 454.58H724.5C724.141 455.049 723.766 455.443 723.375 455.763C722.984 456.076 722.531 456.314 722.016 456.478C721.508 456.635 720.883 456.713 720.141 456.713C719.359 456.713 718.664 456.576 718.055 456.302C717.453 456.029 716.977 455.615 716.625 455.06C716.281 454.506 716.109 453.802 716.109 452.951C716.109 451.67 716.617 450.685 717.633 449.998C718.648 449.31 720.195 448.935 722.273 448.873L724.488 448.779V447.994C724.488 446.885 724.25 446.107 723.773 445.662C723.297 445.217 722.625 444.994 721.758 444.994C721.086 444.994 720.445 445.092 719.836 445.287C719.227 445.482 718.648 445.713 718.102 445.978L717.504 444.502C718.082 444.205 718.746 443.951 719.496 443.74C720.246 443.529 721.035 443.424 721.863 443.424ZM724.465 450.15L722.508 450.232C720.906 450.295 719.777 450.556 719.121 451.017C718.465 451.478 718.137 452.131 718.137 452.974C718.137 453.709 718.359 454.252 718.805 454.603C719.25 454.955 719.84 455.131 720.574 455.131C721.715 455.131 722.648 454.814 723.375 454.181C724.102 453.549 724.465 452.599 724.465 451.334V450.15ZM736.23 443.4C736.488 443.4 736.758 443.416 737.039 443.447C737.32 443.47 737.57 443.506 737.789 443.552L737.543 445.357C737.332 445.302 737.098 445.26 736.84 445.228C736.582 445.197 736.34 445.181 736.113 445.181C735.598 445.181 735.109 445.287 734.648 445.498C734.195 445.701 733.797 445.998 733.453 446.388C733.109 446.771 732.84 447.236 732.645 447.783C732.449 448.322 732.352 448.924 732.352 449.588V456.478H730.395V443.635H732.012L732.223 446.002H732.305C732.57 445.525 732.891 445.092 733.266 444.701C733.641 444.302 734.074 443.986 734.566 443.752C735.066 443.517 735.621 443.4 736.23 443.4ZM738.188 443.635H740.273L743.109 451.088C743.273 451.525 743.426 451.947 743.566 452.353C743.707 452.752 743.832 453.135 743.941 453.502C744.051 453.869 744.137 454.224 744.199 454.568H744.281C744.391 454.177 744.547 453.666 744.75 453.033C744.953 452.392 745.172 451.74 745.406 451.076L748.09 443.635H750.188L744.598 458.365C744.301 459.154 743.953 459.842 743.555 460.427C743.164 461.013 742.688 461.463 742.125 461.775C741.562 462.095 740.883 462.256 740.086 462.256C739.719 462.256 739.395 462.232 739.113 462.185C738.832 462.146 738.59 462.099 738.387 462.045V460.486C738.559 460.525 738.766 460.56 739.008 460.592C739.258 460.623 739.516 460.638 739.781 460.638C740.266 460.638 740.684 460.545 741.035 460.357C741.395 460.177 741.703 459.912 741.961 459.56C742.219 459.209 742.441 458.791 742.629 458.306L743.332 456.502L738.188 443.635Z" fill="#141414"/>
<path d="M650.203 475.888C650.203 477.209 650.035 478.412 649.699 479.498C649.363 480.576 648.863 481.506 648.199 482.287C647.543 483.06 646.727 483.658 645.75 484.08C644.773 484.502 643.641 484.713 642.352 484.713C641.023 484.713 639.863 484.502 638.871 484.08C637.887 483.658 637.066 483.056 636.41 482.275C635.762 481.494 635.273 480.56 634.945 479.474C634.625 478.388 634.465 477.185 634.465 475.865C634.465 474.115 634.754 472.58 635.332 471.26C635.91 469.939 636.785 468.912 637.957 468.177C639.137 467.443 640.613 467.076 642.387 467.076C644.082 467.076 645.508 467.439 646.664 468.166C647.828 468.892 648.707 469.916 649.301 471.236C649.902 472.549 650.203 474.099 650.203 475.888ZM636.562 475.888C636.562 477.342 636.77 478.599 637.184 479.662C637.598 480.724 638.23 481.545 639.082 482.123C639.941 482.701 641.031 482.99 642.352 482.99C643.68 482.99 644.766 482.701 645.609 482.123C646.461 481.545 647.09 480.724 647.496 479.662C647.902 478.599 648.105 477.342 648.105 475.888C648.105 473.677 647.641 471.951 646.711 470.709C645.789 469.459 644.348 468.834 642.387 468.834C641.059 468.834 639.965 469.119 639.105 469.689C638.246 470.26 637.605 471.072 637.184 472.127C636.77 473.174 636.562 474.427 636.562 475.888ZM659.566 471.4C659.824 471.4 660.094 471.416 660.375 471.447C660.656 471.47 660.906 471.506 661.125 471.552L660.879 473.357C660.668 473.302 660.434 473.26 660.176 473.228C659.918 473.197 659.676 473.181 659.449 473.181C658.934 473.181 658.445 473.287 657.984 473.498C657.531 473.701 657.133 473.998 656.789 474.388C656.445 474.771 656.176 475.236 655.98 475.783C655.785 476.322 655.688 476.924 655.688 477.588V484.478H653.73V471.635H655.348L655.559 474.002H655.641C655.906 473.525 656.227 473.092 656.602 472.701C656.977 472.302 657.41 471.986 657.902 471.752C658.402 471.517 658.957 471.4 659.566 471.4ZM668.355 471.424C669.887 471.424 671.023 471.767 671.766 472.455C672.508 473.142 672.879 474.24 672.879 475.748V484.478H671.461L671.086 482.58H670.992C670.633 483.049 670.258 483.443 669.867 483.763C669.477 484.076 669.023 484.314 668.508 484.478C668 484.635 667.375 484.713 666.633 484.713C665.852 484.713 665.156 484.576 664.547 484.302C663.945 484.029 663.469 483.615 663.117 483.06C662.773 482.506 662.602 481.802 662.602 480.951C662.602 479.67 663.109 478.685 664.125 477.998C665.141 477.31 666.688 476.935 668.766 476.873L670.98 476.779V475.994C670.98 474.885 670.742 474.107 670.266 473.662C669.789 473.217 669.117 472.994 668.25 472.994C667.578 472.994 666.938 473.092 666.328 473.287C665.719 473.482 665.141 473.713 664.594 473.978L663.996 472.502C664.574 472.205 665.238 471.951 665.988 471.74C666.738 471.529 667.527 471.424 668.355 471.424ZM670.957 478.15L669 478.232C667.398 478.295 666.27 478.556 665.613 479.017C664.957 479.478 664.629 480.131 664.629 480.974C664.629 481.709 664.852 482.252 665.297 482.603C665.742 482.955 666.332 483.131 667.066 483.131C668.207 483.131 669.141 482.814 669.867 482.181C670.594 481.549 670.957 480.599 670.957 479.334V478.15ZM682.969 471.4C684.492 471.4 685.645 471.775 686.426 472.525C687.207 473.267 687.598 474.463 687.598 476.111V484.478H685.676V476.24C685.676 475.17 685.43 474.369 684.938 473.838C684.453 473.306 683.707 473.041 682.699 473.041C681.277 473.041 680.277 473.443 679.699 474.248C679.121 475.052 678.832 476.22 678.832 477.752V484.478H676.887V471.635H678.457L678.75 473.486H678.855C679.129 473.033 679.477 472.654 679.898 472.349C680.32 472.037 680.793 471.802 681.316 471.646C681.84 471.482 682.391 471.4 682.969 471.4ZM695.191 490.244C693.504 490.244 692.203 489.927 691.289 489.295C690.375 488.67 689.918 487.791 689.918 486.658C689.918 485.853 690.172 485.166 690.68 484.595C691.195 484.025 691.906 483.646 692.812 483.459C692.477 483.302 692.188 483.068 691.945 482.756C691.711 482.443 691.594 482.084 691.594 481.677C691.594 481.209 691.723 480.799 691.98 480.447C692.246 480.088 692.648 479.744 693.188 479.416C692.516 479.142 691.969 478.681 691.547 478.033C691.133 477.377 690.926 476.615 690.926 475.748C690.926 474.826 691.117 474.041 691.5 473.392C691.883 472.736 692.438 472.236 693.164 471.892C693.891 471.549 694.77 471.377 695.801 471.377C696.027 471.377 696.254 471.388 696.48 471.412C696.715 471.427 696.938 471.455 697.148 471.494C697.359 471.525 697.543 471.564 697.699 471.611H702.105V472.865L699.738 473.158C699.973 473.463 700.168 473.83 700.324 474.26C700.48 474.689 700.559 475.166 700.559 475.689C700.559 476.97 700.125 477.99 699.258 478.748C698.391 479.498 697.199 479.873 695.684 479.873C695.324 479.873 694.957 479.842 694.582 479.779C694.199 479.99 693.906 480.224 693.703 480.482C693.508 480.74 693.41 481.037 693.41 481.373C693.41 481.623 693.484 481.822 693.633 481.97C693.789 482.119 694.012 482.228 694.301 482.299C694.59 482.361 694.938 482.392 695.344 482.392H697.605C699.004 482.392 700.074 482.685 700.816 483.271C701.566 483.857 701.941 484.713 701.941 485.838C701.941 487.26 701.363 488.349 700.207 489.107C699.051 489.865 697.379 490.244 695.191 490.244ZM695.25 488.72C696.312 488.72 697.191 488.611 697.887 488.392C698.59 488.181 699.113 487.873 699.457 487.467C699.809 487.068 699.984 486.592 699.984 486.037C699.984 485.521 699.867 485.131 699.633 484.865C699.398 484.607 699.055 484.435 698.602 484.349C698.148 484.256 697.594 484.209 696.938 484.209H694.711C694.133 484.209 693.629 484.299 693.199 484.478C692.77 484.658 692.438 484.924 692.203 485.275C691.977 485.627 691.863 486.064 691.863 486.588C691.863 487.283 692.156 487.81 692.742 488.17C693.328 488.537 694.164 488.72 695.25 488.72ZM695.754 478.455C696.684 478.455 697.383 478.22 697.852 477.752C698.32 477.283 698.555 476.599 698.555 475.701C698.555 474.74 698.316 474.021 697.84 473.545C697.363 473.06 696.66 472.818 695.73 472.818C694.84 472.818 694.152 473.068 693.668 473.568C693.191 474.06 692.953 474.783 692.953 475.736C692.953 476.611 693.195 477.283 693.68 477.752C694.164 478.22 694.855 478.455 695.754 478.455ZM709.582 471.4C710.676 471.4 711.613 471.642 712.395 472.127C713.176 472.611 713.773 473.291 714.188 474.166C714.602 475.033 714.809 476.049 714.809 477.213V478.42H705.938C705.961 479.927 706.336 481.076 707.062 481.865C707.789 482.654 708.812 483.049 710.133 483.049C710.945 483.049 711.664 482.974 712.289 482.826C712.914 482.677 713.562 482.459 714.234 482.17V483.881C713.586 484.17 712.941 484.381 712.301 484.513C711.668 484.646 710.918 484.713 710.051 484.713C708.816 484.713 707.738 484.463 706.816 483.963C705.902 483.455 705.191 482.713 704.684 481.736C704.176 480.76 703.922 479.564 703.922 478.15C703.922 476.767 704.152 475.572 704.613 474.564C705.082 473.549 705.738 472.767 706.582 472.22C707.434 471.674 708.434 471.4 709.582 471.4ZM709.559 472.994C708.52 472.994 707.691 473.334 707.074 474.013C706.457 474.693 706.09 475.642 705.973 476.861H712.77C712.762 476.095 712.641 475.424 712.406 474.845C712.18 474.26 711.832 473.806 711.363 473.486C710.895 473.158 710.293 472.994 709.559 472.994Z" fill="#141414"/>
<rect x="822.667" y="0.478271" width="182" height="505" rx="8" fill="#00C14F"/>
<path d="M850.678 451.92C850.678 452.935 850.425 453.802 849.917 454.521C849.417 455.232 848.714 455.775 847.807 456.15C846.901 456.525 845.835 456.713 844.608 456.713C843.96 456.713 843.346 456.681 842.768 456.619C842.19 456.556 841.659 456.467 841.175 456.349C840.69 456.232 840.264 456.088 839.897 455.916V454.006C840.483 454.248 841.198 454.474 842.042 454.685C842.885 454.888 843.768 454.99 844.69 454.99C845.55 454.99 846.276 454.877 846.87 454.65C847.464 454.416 847.913 454.084 848.218 453.654C848.53 453.217 848.686 452.693 848.686 452.084C848.686 451.498 848.557 451.01 848.3 450.619C848.042 450.22 847.612 449.861 847.01 449.541C846.417 449.213 845.604 448.865 844.573 448.498C843.846 448.24 843.206 447.959 842.651 447.654C842.096 447.342 841.632 446.99 841.257 446.599C840.882 446.209 840.596 445.756 840.401 445.24C840.214 444.724 840.12 444.135 840.12 443.47C840.12 442.556 840.35 441.775 840.811 441.127C841.28 440.47 841.925 439.97 842.745 439.627C843.573 439.275 844.522 439.099 845.593 439.099C846.507 439.099 847.35 439.185 848.124 439.357C848.905 439.529 849.62 439.76 850.268 440.049L849.647 441.76C849.03 441.502 848.374 441.287 847.678 441.115C846.991 440.943 846.28 440.857 845.546 440.857C844.811 440.857 844.19 440.967 843.682 441.185C843.182 441.396 842.8 441.697 842.534 442.088C842.268 442.478 842.135 442.943 842.135 443.482C842.135 444.084 842.26 444.584 842.51 444.982C842.768 445.381 843.175 445.736 843.729 446.049C844.292 446.353 845.034 446.674 845.956 447.01C846.964 447.377 847.819 447.767 848.522 448.181C849.225 448.588 849.76 449.088 850.128 449.681C850.495 450.267 850.678 451.013 850.678 451.92ZM858.835 443.4C859.928 443.4 860.866 443.642 861.647 444.127C862.428 444.611 863.026 445.291 863.44 446.166C863.854 447.033 864.061 448.049 864.061 449.213V450.42H855.19C855.214 451.927 855.589 453.076 856.315 453.865C857.042 454.654 858.065 455.049 859.385 455.049C860.198 455.049 860.917 454.974 861.542 454.826C862.167 454.677 862.815 454.459 863.487 454.17V455.881C862.839 456.17 862.194 456.381 861.553 456.513C860.921 456.646 860.171 456.713 859.303 456.713C858.069 456.713 856.991 456.463 856.069 455.963C855.155 455.455 854.444 454.713 853.936 453.736C853.428 452.76 853.175 451.564 853.175 450.15C853.175 448.767 853.405 447.572 853.866 446.564C854.335 445.549 854.991 444.767 855.835 444.22C856.686 443.674 857.686 443.4 858.835 443.4ZM858.811 444.994C857.772 444.994 856.944 445.334 856.327 446.013C855.71 446.693 855.343 447.642 855.225 448.861H862.022C862.014 448.095 861.893 447.424 861.659 446.845C861.432 446.26 861.085 445.806 860.616 445.486C860.147 445.158 859.546 444.994 858.811 444.994ZM872.51 456.713C871.354 456.713 870.335 456.474 869.452 455.998C868.569 455.521 867.882 454.795 867.389 453.818C866.897 452.842 866.651 451.611 866.651 450.127C866.651 448.572 866.909 447.302 867.425 446.318C867.948 445.326 868.667 444.592 869.581 444.115C870.495 443.638 871.534 443.4 872.698 443.4C873.339 443.4 873.956 443.467 874.55 443.599C875.151 443.724 875.643 443.885 876.026 444.08L875.44 445.709C875.05 445.552 874.596 445.412 874.081 445.287C873.573 445.162 873.096 445.099 872.651 445.099C871.76 445.099 871.018 445.291 870.425 445.674C869.839 446.056 869.397 446.619 869.1 447.361C868.811 448.103 868.667 449.017 868.667 450.103C868.667 451.142 868.807 452.029 869.089 452.763C869.378 453.498 869.803 454.06 870.366 454.451C870.936 454.834 871.647 455.025 872.499 455.025C873.178 455.025 873.792 454.955 874.339 454.814C874.885 454.666 875.382 454.494 875.827 454.299V456.033C875.397 456.252 874.917 456.42 874.385 456.537C873.862 456.654 873.237 456.713 872.51 456.713ZM889.948 450.033C889.948 451.088 889.811 452.029 889.538 452.857C889.264 453.685 888.87 454.385 888.354 454.955C887.839 455.525 887.214 455.963 886.479 456.267C885.753 456.564 884.928 456.713 884.007 456.713C883.147 456.713 882.358 456.564 881.639 456.267C880.928 455.963 880.311 455.525 879.788 454.955C879.272 454.385 878.87 453.685 878.581 452.857C878.3 452.029 878.159 451.088 878.159 450.033C878.159 448.627 878.397 447.431 878.874 446.447C879.35 445.455 880.03 444.701 880.913 444.185C881.803 443.662 882.862 443.4 884.089 443.4C885.26 443.4 886.284 443.662 887.159 444.185C888.042 444.709 888.725 445.467 889.21 446.459C889.702 447.443 889.948 448.635 889.948 450.033ZM880.175 450.033C880.175 451.064 880.311 451.959 880.585 452.717C880.858 453.474 881.28 454.06 881.85 454.474C882.421 454.888 883.155 455.095 884.053 455.095C884.944 455.095 885.675 454.888 886.245 454.474C886.823 454.06 887.249 453.474 887.522 452.717C887.796 451.959 887.932 451.064 887.932 450.033C887.932 449.01 887.796 448.127 887.522 447.385C887.249 446.635 886.827 446.056 886.257 445.65C885.686 445.244 884.948 445.041 884.042 445.041C882.706 445.041 881.725 445.482 881.1 446.365C880.483 447.248 880.175 448.47 880.175 450.033ZM899.393 443.4C900.917 443.4 902.069 443.775 902.85 444.525C903.632 445.267 904.022 446.463 904.022 448.111V456.478H902.1V448.24C902.1 447.17 901.854 446.369 901.362 445.838C900.878 445.306 900.132 445.041 899.124 445.041C897.702 445.041 896.702 445.443 896.124 446.248C895.546 447.052 895.257 448.22 895.257 449.752V456.478H893.311V443.635H894.882L895.175 445.486H895.28C895.553 445.033 895.901 444.654 896.323 444.349C896.745 444.037 897.218 443.802 897.741 443.646C898.264 443.482 898.815 443.4 899.393 443.4ZM912.6 456.713C910.975 456.713 909.686 456.158 908.733 455.049C907.788 453.939 907.315 452.291 907.315 450.103C907.315 447.892 907.8 446.224 908.768 445.099C909.737 443.967 911.026 443.4 912.635 443.4C913.315 443.4 913.909 443.49 914.417 443.67C914.925 443.849 915.362 444.092 915.729 444.396C916.096 444.693 916.405 445.033 916.655 445.416H916.796C916.764 445.174 916.733 444.842 916.702 444.42C916.671 443.998 916.655 443.654 916.655 443.388V438.244H918.6V456.478H917.03L916.737 454.65H916.655C916.413 455.033 916.104 455.381 915.729 455.693C915.362 456.006 914.921 456.256 914.405 456.443C913.897 456.623 913.296 456.713 912.6 456.713ZM912.905 455.095C914.28 455.095 915.253 454.705 915.823 453.924C916.393 453.142 916.678 451.982 916.678 450.443V450.092C916.678 448.459 916.405 447.205 915.858 446.33C915.319 445.455 914.335 445.017 912.905 445.017C911.71 445.017 910.815 445.478 910.221 446.4C909.628 447.314 909.331 448.564 909.331 450.15C909.331 451.728 909.624 452.947 910.21 453.806C910.803 454.666 911.702 455.095 912.905 455.095ZM927.53 443.424C929.061 443.424 930.198 443.767 930.94 444.455C931.682 445.142 932.053 446.24 932.053 447.748V456.478H930.635L930.26 454.58H930.167C929.807 455.049 929.432 455.443 929.042 455.763C928.651 456.076 928.198 456.314 927.682 456.478C927.175 456.635 926.55 456.713 925.807 456.713C925.026 456.713 924.331 456.576 923.721 456.302C923.12 456.029 922.643 455.615 922.292 455.06C921.948 454.506 921.776 453.802 921.776 452.951C921.776 451.67 922.284 450.685 923.3 449.998C924.315 449.31 925.862 448.935 927.94 448.873L930.155 448.779V447.994C930.155 446.885 929.917 446.107 929.44 445.662C928.964 445.217 928.292 444.994 927.425 444.994C926.753 444.994 926.112 445.092 925.503 445.287C924.893 445.482 924.315 445.713 923.768 445.978L923.171 444.502C923.749 444.205 924.413 443.951 925.163 443.74C925.913 443.529 926.702 443.424 927.53 443.424ZM930.132 450.15L928.175 450.232C926.573 450.295 925.444 450.556 924.788 451.017C924.132 451.478 923.803 452.131 923.803 452.974C923.803 453.709 924.026 454.252 924.471 454.603C924.917 454.955 925.507 455.131 926.241 455.131C927.382 455.131 928.315 454.814 929.042 454.181C929.768 453.549 930.132 452.599 930.132 451.334V450.15ZM941.897 443.4C942.155 443.4 942.425 443.416 942.706 443.447C942.987 443.47 943.237 443.506 943.456 443.552L943.21 445.357C942.999 445.302 942.764 445.26 942.507 445.228C942.249 445.197 942.007 445.181 941.78 445.181C941.264 445.181 940.776 445.287 940.315 445.498C939.862 445.701 939.464 445.998 939.12 446.388C938.776 446.771 938.507 447.236 938.311 447.783C938.116 448.322 938.018 448.924 938.018 449.588V456.478H936.061V443.635H937.678L937.889 446.002H937.971C938.237 445.525 938.557 445.092 938.932 444.701C939.307 444.302 939.741 443.986 940.233 443.752C940.733 443.517 941.288 443.4 941.897 443.4ZM943.854 443.635H945.94L948.776 451.088C948.94 451.525 949.093 451.947 949.233 452.353C949.374 452.752 949.499 453.135 949.608 453.502C949.718 453.869 949.803 454.224 949.866 454.568H949.948C950.057 454.177 950.214 453.666 950.417 453.033C950.62 452.392 950.839 451.74 951.073 451.076L953.757 443.635H955.854L950.264 458.365C949.968 459.154 949.62 459.842 949.221 460.427C948.831 461.013 948.354 461.463 947.792 461.775C947.229 462.095 946.55 462.256 945.753 462.256C945.385 462.256 945.061 462.232 944.78 462.185C944.499 462.146 944.257 462.099 944.053 462.045V460.486C944.225 460.525 944.432 460.56 944.675 460.592C944.925 460.623 945.182 460.638 945.448 460.638C945.932 460.638 946.35 460.545 946.702 460.357C947.061 460.177 947.37 459.912 947.628 459.56C947.885 459.209 948.108 458.791 948.296 458.306L948.999 456.502L943.854 443.635Z" fill="#141414"/>
<path d="M848.335 475.502H854.323V483.81C853.425 484.115 852.499 484.342 851.546 484.49C850.6 484.638 849.542 484.713 848.37 484.713C846.589 484.713 845.085 484.357 843.858 483.646C842.639 482.935 841.714 481.924 841.081 480.611C840.448 479.291 840.132 477.724 840.132 475.912C840.132 474.138 840.479 472.592 841.175 471.271C841.878 469.951 842.889 468.927 844.21 468.201C845.538 467.467 847.132 467.099 848.991 467.099C849.944 467.099 850.846 467.189 851.698 467.369C852.557 467.541 853.354 467.787 854.089 468.107L853.327 469.842C852.694 469.568 851.995 469.334 851.229 469.138C850.471 468.943 849.686 468.845 848.874 468.845C847.475 468.845 846.276 469.135 845.276 469.713C844.284 470.291 843.522 471.107 842.991 472.162C842.468 473.217 842.206 474.467 842.206 475.912C842.206 477.342 842.436 478.588 842.897 479.65C843.358 480.705 844.077 481.525 845.053 482.111C846.03 482.697 847.288 482.99 848.827 482.99C849.6 482.99 850.264 482.947 850.819 482.861C851.374 482.767 851.878 482.658 852.331 482.533V477.283H848.335V475.502ZM864.014 471.4C864.272 471.4 864.542 471.416 864.823 471.447C865.104 471.47 865.354 471.506 865.573 471.552L865.327 473.357C865.116 473.302 864.882 473.26 864.624 473.228C864.366 473.197 864.124 473.181 863.897 473.181C863.382 473.181 862.893 473.287 862.432 473.498C861.979 473.701 861.581 473.998 861.237 474.388C860.893 474.771 860.624 475.236 860.428 475.783C860.233 476.322 860.135 476.924 860.135 477.588V484.478H858.178V471.635H859.796L860.007 474.002H860.089C860.354 473.525 860.675 473.092 861.05 472.701C861.425 472.302 861.858 471.986 862.35 471.752C862.85 471.517 863.405 471.4 864.014 471.4ZM872.944 471.4C874.038 471.4 874.975 471.642 875.757 472.127C876.538 472.611 877.135 473.291 877.55 474.166C877.964 475.033 878.171 476.049 878.171 477.213V478.42H869.3C869.323 479.927 869.698 481.076 870.425 481.865C871.151 482.654 872.175 483.049 873.495 483.049C874.307 483.049 875.026 482.974 875.651 482.826C876.276 482.677 876.925 482.459 877.596 482.17V483.881C876.948 484.17 876.303 484.381 875.663 484.513C875.03 484.646 874.28 484.713 873.413 484.713C872.178 484.713 871.1 484.463 870.178 483.963C869.264 483.455 868.553 482.713 868.046 481.736C867.538 480.76 867.284 479.564 867.284 478.15C867.284 476.767 867.514 475.572 867.975 474.564C868.444 473.549 869.1 472.767 869.944 472.22C870.796 471.674 871.796 471.4 872.944 471.4ZM872.921 472.994C871.882 472.994 871.053 473.334 870.436 474.013C869.819 474.693 869.452 475.642 869.335 476.861H876.132C876.124 476.095 876.003 475.424 875.768 474.845C875.542 474.26 875.194 473.806 874.725 473.486C874.257 473.158 873.655 472.994 872.921 472.994ZM886.421 471.4C887.514 471.4 888.452 471.642 889.233 472.127C890.014 472.611 890.612 473.291 891.026 474.166C891.44 475.033 891.647 476.049 891.647 477.213V478.42H882.776C882.8 479.927 883.175 481.076 883.901 481.865C884.628 482.654 885.651 483.049 886.971 483.049C887.784 483.049 888.503 482.974 889.128 482.826C889.753 482.677 890.401 482.459 891.073 482.17V483.881C890.425 484.17 889.78 484.381 889.139 484.513C888.507 484.646 887.757 484.713 886.889 484.713C885.655 484.713 884.577 484.463 883.655 483.963C882.741 483.455 882.03 482.713 881.522 481.736C881.014 480.76 880.76 479.564 880.76 478.15C880.76 476.767 880.991 475.572 881.452 474.564C881.921 473.549 882.577 472.767 883.421 472.22C884.272 471.674 885.272 471.4 886.421 471.4ZM886.397 472.994C885.358 472.994 884.53 473.334 883.913 474.013C883.296 474.693 882.928 475.642 882.811 476.861H889.608C889.6 476.095 889.479 475.424 889.245 474.845C889.018 474.26 888.671 473.806 888.202 473.486C887.733 473.158 887.132 472.994 886.397 472.994ZM901.034 471.4C902.557 471.4 903.71 471.775 904.491 472.525C905.272 473.267 905.663 474.463 905.663 476.111V484.478H903.741V476.24C903.741 475.17 903.495 474.369 903.003 473.838C902.518 473.306 901.772 473.041 900.764 473.041C899.343 473.041 898.343 473.443 897.764 474.248C897.186 475.052 896.897 476.22 896.897 477.752V484.478H894.952V471.635H896.522L896.815 473.486H896.921C897.194 473.033 897.542 472.654 897.964 472.349C898.385 472.037 898.858 471.802 899.382 471.646C899.905 471.482 900.456 471.4 901.034 471.4Z" fill="#141414"/>
<rect x="1028.33" y="0.478271" width="182" height="505" rx="8" fill="#9A41FF"/>
<path d="M1056.35 451.92C1056.35 452.935 1056.09 453.802 1055.58 454.521C1055.08 455.232 1054.38 455.775 1053.47 456.15C1052.57 456.525 1051.5 456.713 1050.27 456.713C1049.63 456.713 1049.01 456.681 1048.44 456.619C1047.86 456.556 1047.33 456.467 1046.84 456.349C1046.36 456.232 1045.93 456.088 1045.56 455.916V454.006C1046.15 454.248 1046.86 454.474 1047.71 454.685C1048.55 454.888 1049.44 454.99 1050.36 454.99C1051.22 454.99 1051.94 454.877 1052.54 454.65C1053.13 454.416 1053.58 454.084 1053.88 453.654C1054.2 453.217 1054.35 452.693 1054.35 452.084C1054.35 451.498 1054.22 451.01 1053.97 450.619C1053.71 450.22 1053.28 449.861 1052.68 449.541C1052.08 449.213 1051.27 448.865 1050.24 448.498C1049.51 448.24 1048.87 447.959 1048.32 447.654C1047.76 447.342 1047.3 446.99 1046.92 446.599C1046.55 446.209 1046.26 445.756 1046.07 445.24C1045.88 444.724 1045.79 444.135 1045.79 443.47C1045.79 442.556 1046.02 441.775 1046.48 441.127C1046.95 440.47 1047.59 439.97 1048.41 439.627C1049.24 439.275 1050.19 439.099 1051.26 439.099C1052.17 439.099 1053.02 439.185 1053.79 439.357C1054.57 439.529 1055.29 439.76 1055.94 440.049L1055.31 441.76C1054.7 441.502 1054.04 441.287 1053.35 441.115C1052.66 440.943 1051.95 440.857 1051.21 440.857C1050.48 440.857 1049.86 440.967 1049.35 441.185C1048.85 441.396 1048.47 441.697 1048.2 442.088C1047.94 442.478 1047.8 442.943 1047.8 443.482C1047.8 444.084 1047.93 444.584 1048.18 444.982C1048.44 445.381 1048.84 445.736 1049.4 446.049C1049.96 446.353 1050.7 446.674 1051.62 447.01C1052.63 447.377 1053.49 447.767 1054.19 448.181C1054.89 448.588 1055.43 449.088 1055.79 449.681C1056.16 450.267 1056.35 451.013 1056.35 451.92ZM1064.5 443.4C1065.6 443.4 1066.53 443.642 1067.31 444.127C1068.1 444.611 1068.69 445.291 1069.11 446.166C1069.52 447.033 1069.73 448.049 1069.73 449.213V450.42H1060.86C1060.88 451.927 1061.26 453.076 1061.98 453.865C1062.71 454.654 1063.73 455.049 1065.05 455.049C1065.86 455.049 1066.58 454.974 1067.21 454.826C1067.83 454.677 1068.48 454.459 1069.15 454.17V455.881C1068.51 456.17 1067.86 456.381 1067.22 456.513C1066.59 456.646 1065.84 456.713 1064.97 456.713C1063.74 456.713 1062.66 456.463 1061.74 455.963C1060.82 455.455 1060.11 454.713 1059.6 453.736C1059.1 452.76 1058.84 451.564 1058.84 450.15C1058.84 448.767 1059.07 447.572 1059.53 446.564C1060 445.549 1060.66 444.767 1061.5 444.22C1062.35 443.674 1063.35 443.4 1064.5 443.4ZM1064.48 444.994C1063.44 444.994 1062.61 445.334 1061.99 446.013C1061.38 446.693 1061.01 447.642 1060.89 448.861H1067.69C1067.68 448.095 1067.56 447.424 1067.33 446.845C1067.1 446.26 1066.75 445.806 1066.28 445.486C1065.81 445.158 1065.21 444.994 1064.48 444.994ZM1078.18 456.713C1077.02 456.713 1076 456.474 1075.12 455.998C1074.24 455.521 1073.55 454.795 1073.06 453.818C1072.56 452.842 1072.32 451.611 1072.32 450.127C1072.32 448.572 1072.58 447.302 1073.09 446.318C1073.61 445.326 1074.33 444.592 1075.25 444.115C1076.16 443.638 1077.2 443.4 1078.36 443.4C1079.01 443.4 1079.62 443.467 1080.22 443.599C1080.82 443.724 1081.31 443.885 1081.69 444.08L1081.11 445.709C1080.72 445.552 1080.26 445.412 1079.75 445.287C1079.24 445.162 1078.76 445.099 1078.32 445.099C1077.43 445.099 1076.69 445.291 1076.09 445.674C1075.51 446.056 1075.06 446.619 1074.77 447.361C1074.48 448.103 1074.33 449.017 1074.33 450.103C1074.33 451.142 1074.47 452.029 1074.76 452.763C1075.04 453.498 1075.47 454.06 1076.03 454.451C1076.6 454.834 1077.31 455.025 1078.17 455.025C1078.85 455.025 1079.46 454.955 1080.01 454.814C1080.55 454.666 1081.05 454.494 1081.49 454.299V456.033C1081.06 456.252 1080.58 456.42 1080.05 456.537C1079.53 456.654 1078.9 456.713 1078.18 456.713ZM1095.61 450.033C1095.61 451.088 1095.48 452.029 1095.2 452.857C1094.93 453.685 1094.54 454.385 1094.02 454.955C1093.51 455.525 1092.88 455.963 1092.15 456.267C1091.42 456.564 1090.6 456.713 1089.67 456.713C1088.81 456.713 1088.02 456.564 1087.31 456.267C1086.6 455.963 1085.98 455.525 1085.45 454.955C1084.94 454.385 1084.54 453.685 1084.25 452.857C1083.97 452.029 1083.83 451.088 1083.83 450.033C1083.83 448.627 1084.06 447.431 1084.54 446.447C1085.02 445.455 1085.7 444.701 1086.58 444.185C1087.47 443.662 1088.53 443.4 1089.76 443.4C1090.93 443.4 1091.95 443.662 1092.83 444.185C1093.71 444.709 1094.39 445.467 1094.88 446.459C1095.37 447.443 1095.61 448.635 1095.61 450.033ZM1085.84 450.033C1085.84 451.064 1085.98 451.959 1086.25 452.717C1086.52 453.474 1086.95 454.06 1087.52 454.474C1088.09 454.888 1088.82 455.095 1089.72 455.095C1090.61 455.095 1091.34 454.888 1091.91 454.474C1092.49 454.06 1092.92 453.474 1093.19 452.717C1093.46 451.959 1093.6 451.064 1093.6 450.033C1093.6 449.01 1093.46 448.127 1093.19 447.385C1092.92 446.635 1092.49 446.056 1091.92 445.65C1091.35 445.244 1090.61 445.041 1089.71 445.041C1088.37 445.041 1087.39 445.482 1086.77 446.365C1086.15 447.248 1085.84 448.47 1085.84 450.033ZM1105.06 443.4C1106.58 443.4 1107.74 443.775 1108.52 444.525C1109.3 445.267 1109.69 446.463 1109.69 448.111V456.478H1107.77V448.24C1107.77 447.17 1107.52 446.369 1107.03 445.838C1106.54 445.306 1105.8 445.041 1104.79 445.041C1103.37 445.041 1102.37 445.443 1101.79 446.248C1101.21 447.052 1100.92 448.22 1100.92 449.752V456.478H1098.98V443.635H1100.55L1100.84 445.486H1100.95C1101.22 445.033 1101.57 444.654 1101.99 444.349C1102.41 444.037 1102.88 443.802 1103.41 443.646C1103.93 443.482 1104.48 443.4 1105.06 443.4ZM1118.27 456.713C1116.64 456.713 1115.35 456.158 1114.4 455.049C1113.45 453.939 1112.98 452.291 1112.98 450.103C1112.98 447.892 1113.47 446.224 1114.44 445.099C1115.4 443.967 1116.69 443.4 1118.3 443.4C1118.98 443.4 1119.58 443.49 1120.08 443.67C1120.59 443.849 1121.03 444.092 1121.4 444.396C1121.76 444.693 1122.07 445.033 1122.32 445.416H1122.46C1122.43 445.174 1122.4 444.842 1122.37 444.42C1122.34 443.998 1122.32 443.654 1122.32 443.388V438.244H1124.27V456.478H1122.7L1122.4 454.65H1122.32C1122.08 455.033 1121.77 455.381 1121.4 455.693C1121.03 456.006 1120.59 456.256 1120.07 456.443C1119.56 456.623 1118.96 456.713 1118.27 456.713ZM1118.57 455.095C1119.95 455.095 1120.92 454.705 1121.49 453.924C1122.06 453.142 1122.35 451.982 1122.35 450.443V450.092C1122.35 448.459 1122.07 447.205 1121.52 446.33C1120.99 445.455 1120 445.017 1118.57 445.017C1117.38 445.017 1116.48 445.478 1115.89 446.4C1115.29 447.314 1115 448.564 1115 450.15C1115 451.728 1115.29 452.947 1115.88 453.806C1116.47 454.666 1117.37 455.095 1118.57 455.095ZM1133.2 443.424C1134.73 443.424 1135.86 443.767 1136.61 444.455C1137.35 445.142 1137.72 446.24 1137.72 447.748V456.478H1136.3L1135.93 454.58H1135.83C1135.47 455.049 1135.1 455.443 1134.71 455.763C1134.32 456.076 1133.86 456.314 1133.35 456.478C1132.84 456.635 1132.22 456.713 1131.47 456.713C1130.69 456.713 1130 456.576 1129.39 456.302C1128.79 456.029 1128.31 455.615 1127.96 455.06C1127.61 454.506 1127.44 453.802 1127.44 452.951C1127.44 451.67 1127.95 450.685 1128.97 449.998C1129.98 449.31 1131.53 448.935 1133.61 448.873L1135.82 448.779V447.994C1135.82 446.885 1135.58 446.107 1135.11 445.662C1134.63 445.217 1133.96 444.994 1133.09 444.994C1132.42 444.994 1131.78 445.092 1131.17 445.287C1130.56 445.482 1129.98 445.713 1129.44 445.978L1128.84 444.502C1129.42 444.205 1130.08 443.951 1130.83 443.74C1131.58 443.529 1132.37 443.424 1133.2 443.424ZM1135.8 450.15L1133.84 450.232C1132.24 450.295 1131.11 450.556 1130.45 451.017C1129.8 451.478 1129.47 452.131 1129.47 452.974C1129.47 453.709 1129.69 454.252 1130.14 454.603C1130.58 454.955 1131.17 455.131 1131.91 455.131C1133.05 455.131 1133.98 454.814 1134.71 454.181C1135.44 453.549 1135.8 452.599 1135.8 451.334V450.15ZM1147.56 443.4C1147.82 443.4 1148.09 443.416 1148.37 443.447C1148.65 443.47 1148.9 443.506 1149.12 443.552L1148.88 445.357C1148.67 445.302 1148.43 445.26 1148.17 445.228C1147.92 445.197 1147.67 445.181 1147.45 445.181C1146.93 445.181 1146.44 445.287 1145.98 445.498C1145.53 445.701 1145.13 445.998 1144.79 446.388C1144.44 446.771 1144.17 447.236 1143.98 447.783C1143.78 448.322 1143.69 448.924 1143.69 449.588V456.478H1141.73V443.635H1143.35L1143.56 446.002H1143.64C1143.9 445.525 1144.22 445.092 1144.6 444.701C1144.97 444.302 1145.41 443.986 1145.9 443.752C1146.4 443.517 1146.95 443.4 1147.56 443.4ZM1149.52 443.635H1151.61L1154.44 451.088C1154.61 451.525 1154.76 451.947 1154.9 452.353C1155.04 452.752 1155.17 453.135 1155.27 453.502C1155.38 453.869 1155.47 454.224 1155.53 454.568H1155.61C1155.72 454.177 1155.88 453.666 1156.08 453.033C1156.29 452.392 1156.51 451.74 1156.74 451.076L1159.42 443.635H1161.52L1155.93 458.365C1155.63 459.154 1155.29 459.842 1154.89 460.427C1154.5 461.013 1154.02 461.463 1153.46 461.775C1152.9 462.095 1152.22 462.256 1151.42 462.256C1151.05 462.256 1150.73 462.232 1150.45 462.185C1150.17 462.146 1149.92 462.099 1149.72 462.045V460.486C1149.89 460.525 1150.1 460.56 1150.34 460.592C1150.59 460.623 1150.85 460.638 1151.11 460.638C1151.6 460.638 1152.02 460.545 1152.37 460.357C1152.73 460.177 1153.04 459.912 1153.29 459.56C1153.55 459.209 1153.77 458.791 1153.96 458.306L1154.67 456.502L1149.52 443.635Z" fill="white"/>
<path d="M1051.15 467.345C1053.36 467.345 1054.98 467.779 1055.99 468.646C1057.02 469.506 1057.53 470.74 1057.53 472.349C1057.53 473.076 1057.41 473.767 1057.17 474.424C1056.93 475.072 1056.55 475.646 1056.02 476.146C1055.49 476.638 1054.79 477.029 1053.92 477.318C1053.06 477.599 1052.01 477.74 1050.76 477.74H1048.67V484.478H1046.68V467.345H1051.15ZM1050.97 469.045H1048.67V476.029H1050.53C1051.63 476.029 1052.54 475.912 1053.26 475.677C1054 475.443 1054.55 475.064 1054.92 474.541C1055.28 474.01 1055.47 473.306 1055.47 472.431C1055.47 471.291 1055.1 470.443 1054.38 469.888C1053.65 469.326 1052.51 469.045 1050.97 469.045ZM1071.43 471.635V484.478H1069.83L1069.55 482.674H1069.45C1069.18 483.119 1068.84 483.494 1068.42 483.799C1067.99 484.103 1067.52 484.33 1066.99 484.478C1066.46 484.635 1065.9 484.713 1065.31 484.713C1064.29 484.713 1063.44 484.549 1062.76 484.22C1062.07 483.892 1061.55 483.385 1061.2 482.697C1060.85 482.01 1060.68 481.127 1060.68 480.049V471.635H1062.65V479.908C1062.65 480.978 1062.89 481.779 1063.38 482.31C1063.86 482.834 1064.6 483.095 1065.59 483.095C1066.54 483.095 1067.3 482.916 1067.86 482.556C1068.44 482.197 1068.85 481.67 1069.1 480.974C1069.35 480.271 1069.47 479.412 1069.47 478.396V471.635H1071.43ZM1081.38 471.4C1081.63 471.4 1081.9 471.416 1082.19 471.447C1082.47 471.47 1082.72 471.506 1082.94 471.552L1082.69 473.357C1082.48 473.302 1082.24 473.26 1081.99 473.228C1081.73 473.197 1081.49 473.181 1081.26 473.181C1080.74 473.181 1080.26 473.287 1079.79 473.498C1079.34 473.701 1078.94 473.998 1078.6 474.388C1078.26 474.771 1077.99 475.236 1077.79 475.783C1077.6 476.322 1077.5 476.924 1077.5 477.588V484.478H1075.54V471.635H1077.16L1077.37 474.002H1077.45C1077.72 473.525 1078.04 473.092 1078.41 472.701C1078.79 472.302 1079.22 471.986 1079.71 471.752C1080.21 471.517 1080.77 471.4 1081.38 471.4ZM1091.4 471.4C1093 471.4 1094.27 471.951 1095.23 473.052C1096.18 474.154 1096.66 475.81 1096.66 478.021C1096.66 479.482 1096.44 480.709 1096 481.701C1095.56 482.693 1094.95 483.443 1094.15 483.951C1093.36 484.459 1092.43 484.713 1091.35 484.713C1090.67 484.713 1090.07 484.623 1089.56 484.443C1089.04 484.263 1088.6 484.021 1088.23 483.717C1087.86 483.412 1087.56 483.08 1087.32 482.72H1087.18C1087.2 483.025 1087.23 483.392 1087.26 483.822C1087.3 484.252 1087.32 484.627 1087.32 484.947V490.22H1085.36V471.635H1086.97L1087.22 473.533H1087.32C1087.57 473.142 1087.87 472.787 1088.23 472.467C1088.59 472.138 1089.03 471.881 1089.54 471.693C1090.07 471.498 1090.69 471.4 1091.4 471.4ZM1091.06 473.041C1090.17 473.041 1089.45 473.213 1088.9 473.556C1088.36 473.9 1087.97 474.416 1087.72 475.103C1087.47 475.783 1087.33 476.638 1087.32 477.67V478.045C1087.32 479.131 1087.44 480.049 1087.67 480.799C1087.91 481.549 1088.31 482.119 1088.85 482.51C1089.41 482.9 1090.15 483.095 1091.08 483.095C1091.88 483.095 1092.54 482.881 1093.07 482.451C1093.6 482.021 1094 481.424 1094.26 480.658C1094.52 479.885 1094.65 478.998 1094.65 477.998C1094.65 476.482 1094.36 475.279 1093.76 474.388C1093.18 473.49 1092.27 473.041 1091.06 473.041ZM1102.01 484.478H1100.06V466.244H1102.01V484.478ZM1111.07 471.4C1112.17 471.4 1113.1 471.642 1113.88 472.127C1114.67 472.611 1115.26 473.291 1115.68 474.166C1116.09 475.033 1116.3 476.049 1116.3 477.213V478.42H1107.43C1107.45 479.927 1107.83 481.076 1108.55 481.865C1109.28 482.654 1110.3 483.049 1111.62 483.049C1112.44 483.049 1113.15 482.974 1113.78 482.826C1114.4 482.677 1115.05 482.459 1115.72 482.17V483.881C1115.08 484.17 1114.43 484.381 1113.79 484.513C1113.16 484.646 1112.41 484.713 1111.54 484.713C1110.31 484.713 1109.23 484.463 1108.31 483.963C1107.39 483.455 1106.68 482.713 1106.17 481.736C1105.67 480.76 1105.41 479.564 1105.41 478.15C1105.41 476.767 1105.64 475.572 1106.1 474.564C1106.57 473.549 1107.23 472.767 1108.07 472.22C1108.92 471.674 1109.92 471.4 1111.07 471.4ZM1111.05 472.994C1110.01 472.994 1109.18 473.334 1108.56 474.013C1107.95 474.693 1107.58 475.642 1107.46 476.861H1114.26C1114.25 476.095 1114.13 475.424 1113.9 474.845C1113.67 474.26 1113.32 473.806 1112.85 473.486C1112.38 473.158 1111.78 472.994 1111.05 472.994Z" fill="white"/>
<rect x="1234" y="0.478271" width="182" height="505" rx="8" fill="white"/>
<path d="M1262.01 451.92C1262.01 452.935 1261.76 453.802 1261.25 454.521C1260.75 455.232 1260.05 455.775 1259.14 456.15C1258.23 456.525 1257.17 456.713 1255.94 456.713C1255.29 456.713 1254.68 456.681 1254.1 456.619C1253.52 456.556 1252.99 456.467 1252.51 456.349C1252.02 456.232 1251.6 456.088 1251.23 455.916V454.006C1251.82 454.248 1252.53 454.474 1253.38 454.685C1254.22 454.888 1255.1 454.99 1256.02 454.99C1256.88 454.99 1257.61 454.877 1258.2 454.65C1258.8 454.416 1259.25 454.084 1259.55 453.654C1259.86 453.217 1260.02 452.693 1260.02 452.084C1260.02 451.498 1259.89 451.01 1259.63 450.619C1259.38 450.22 1258.95 449.861 1258.34 449.541C1257.75 449.213 1256.94 448.865 1255.91 448.498C1255.18 448.24 1254.54 447.959 1253.98 447.654C1253.43 447.342 1252.96 446.99 1252.59 446.599C1252.21 446.209 1251.93 445.756 1251.73 445.24C1251.55 444.724 1251.45 444.135 1251.45 443.47C1251.45 442.556 1251.68 441.775 1252.14 441.127C1252.61 440.47 1253.26 439.97 1254.08 439.627C1254.91 439.275 1255.86 439.099 1256.93 439.099C1257.84 439.099 1258.68 439.185 1259.46 439.357C1260.24 439.529 1260.95 439.76 1261.6 440.049L1260.98 441.76C1260.36 441.502 1259.71 441.287 1259.01 441.115C1258.32 440.943 1257.61 440.857 1256.88 440.857C1256.14 440.857 1255.52 440.967 1255.02 441.185C1254.52 441.396 1254.13 441.697 1253.87 442.088C1253.6 442.478 1253.47 442.943 1253.47 443.482C1253.47 444.084 1253.59 444.584 1253.84 444.982C1254.1 445.381 1254.51 445.736 1255.06 446.049C1255.62 446.353 1256.37 446.674 1257.29 447.01C1258.3 447.377 1259.15 447.767 1259.86 448.181C1260.56 448.588 1261.09 449.088 1261.46 449.681C1261.83 450.267 1262.01 451.013 1262.01 451.92ZM1270.17 443.4C1271.26 443.4 1272.2 443.642 1272.98 444.127C1273.76 444.611 1274.36 445.291 1274.77 446.166C1275.19 447.033 1275.39 448.049 1275.39 449.213V450.42H1266.52C1266.55 451.927 1266.92 453.076 1267.65 453.865C1268.38 454.654 1269.4 455.049 1270.72 455.049C1271.53 455.049 1272.25 454.974 1272.88 454.826C1273.5 454.677 1274.15 454.459 1274.82 454.17V455.881C1274.17 456.17 1273.53 456.381 1272.89 456.513C1272.25 456.646 1271.5 456.713 1270.64 456.713C1269.4 456.713 1268.32 456.463 1267.4 455.963C1266.49 455.455 1265.78 454.713 1265.27 453.736C1264.76 452.76 1264.51 451.564 1264.51 450.15C1264.51 448.767 1264.74 447.572 1265.2 446.564C1265.67 445.549 1266.32 444.767 1267.17 444.22C1268.02 443.674 1269.02 443.4 1270.17 443.4ZM1270.14 444.994C1269.11 444.994 1268.28 445.334 1267.66 446.013C1267.04 446.693 1266.68 447.642 1266.56 448.861H1273.36C1273.35 448.095 1273.23 447.424 1272.99 446.845C1272.77 446.26 1272.42 445.806 1271.95 445.486C1271.48 445.158 1270.88 444.994 1270.14 444.994ZM1283.84 456.713C1282.69 456.713 1281.67 456.474 1280.79 455.998C1279.9 455.521 1279.21 454.795 1278.72 453.818C1278.23 452.842 1277.98 451.611 1277.98 450.127C1277.98 448.572 1278.24 447.302 1278.76 446.318C1279.28 445.326 1280 444.592 1280.91 444.115C1281.83 443.638 1282.87 443.4 1284.03 443.4C1284.67 443.4 1285.29 443.467 1285.88 443.599C1286.48 443.724 1286.98 443.885 1287.36 444.08L1286.77 445.709C1286.38 445.552 1285.93 445.412 1285.41 445.287C1284.91 445.162 1284.43 445.099 1283.98 445.099C1283.09 445.099 1282.35 445.291 1281.76 445.674C1281.17 446.056 1280.73 446.619 1280.43 447.361C1280.14 448.103 1280 449.017 1280 450.103C1280 451.142 1280.14 452.029 1280.42 452.763C1280.71 453.498 1281.14 454.06 1281.7 454.451C1282.27 454.834 1282.98 455.025 1283.83 455.025C1284.51 455.025 1285.12 454.955 1285.67 454.814C1286.22 454.666 1286.71 454.494 1287.16 454.299V456.033C1286.73 456.252 1286.25 456.42 1285.72 456.537C1285.2 456.654 1284.57 456.713 1283.84 456.713ZM1301.28 450.033C1301.28 451.088 1301.14 452.029 1300.87 452.857C1300.6 453.685 1300.2 454.385 1299.69 454.955C1299.17 455.525 1298.55 455.963 1297.81 456.267C1297.09 456.564 1296.26 456.713 1295.34 456.713C1294.48 456.713 1293.69 456.564 1292.97 456.267C1292.26 455.963 1291.64 455.525 1291.12 454.955C1290.61 454.385 1290.2 453.685 1289.91 452.857C1289.63 452.029 1289.49 451.088 1289.49 450.033C1289.49 448.627 1289.73 447.431 1290.21 446.447C1290.68 445.455 1291.36 444.701 1292.25 444.185C1293.14 443.662 1294.2 443.4 1295.42 443.4C1296.59 443.4 1297.62 443.662 1298.49 444.185C1299.38 444.709 1300.06 445.467 1300.54 446.459C1301.04 447.443 1301.28 448.635 1301.28 450.033ZM1291.51 450.033C1291.51 451.064 1291.64 451.959 1291.92 452.717C1292.19 453.474 1292.61 454.06 1293.18 454.474C1293.75 454.888 1294.49 455.095 1295.39 455.095C1296.28 455.095 1297.01 454.888 1297.58 454.474C1298.16 454.06 1298.58 453.474 1298.86 452.717C1299.13 451.959 1299.27 451.064 1299.27 450.033C1299.27 449.01 1299.13 448.127 1298.86 447.385C1298.58 446.635 1298.16 446.056 1297.59 445.65C1297.02 445.244 1296.28 445.041 1295.38 445.041C1294.04 445.041 1293.06 445.482 1292.43 446.365C1291.82 447.248 1291.51 448.47 1291.51 450.033ZM1310.73 443.4C1312.25 443.4 1313.4 443.775 1314.18 444.525C1314.96 445.267 1315.36 446.463 1315.36 448.111V456.478H1313.43V448.24C1313.43 447.17 1313.19 446.369 1312.7 445.838C1312.21 445.306 1311.46 445.041 1310.46 445.041C1309.04 445.041 1308.04 445.443 1307.46 446.248C1306.88 447.052 1306.59 448.22 1306.59 449.752V456.478H1304.64V443.635H1306.21L1306.51 445.486H1306.61C1306.89 445.033 1307.23 444.654 1307.66 444.349C1308.08 444.037 1308.55 443.802 1309.07 443.646C1309.6 443.482 1310.15 443.4 1310.73 443.4ZM1323.93 456.713C1322.31 456.713 1321.02 456.158 1320.07 455.049C1319.12 453.939 1318.65 452.291 1318.65 450.103C1318.65 447.892 1319.13 446.224 1320.1 445.099C1321.07 443.967 1322.36 443.4 1323.97 443.4C1324.65 443.4 1325.24 443.49 1325.75 443.67C1326.26 443.849 1326.7 444.092 1327.06 444.396C1327.43 444.693 1327.74 445.033 1327.99 445.416H1328.13C1328.1 445.174 1328.07 444.842 1328.04 444.42C1328 443.998 1327.99 443.654 1327.99 443.388V438.244H1329.93V456.478H1328.36L1328.07 454.65H1327.99C1327.75 455.033 1327.44 455.381 1327.06 455.693C1326.7 456.006 1326.25 456.256 1325.74 456.443C1325.23 456.623 1324.63 456.713 1323.93 456.713ZM1324.24 455.095C1325.61 455.095 1326.59 454.705 1327.16 453.924C1327.73 453.142 1328.01 451.982 1328.01 450.443V450.092C1328.01 448.459 1327.74 447.205 1327.19 446.33C1326.65 445.455 1325.67 445.017 1324.24 445.017C1323.04 445.017 1322.15 445.478 1321.55 446.4C1320.96 447.314 1320.66 448.564 1320.66 450.15C1320.66 451.728 1320.96 452.947 1321.54 453.806C1322.14 454.666 1323.04 455.095 1324.24 455.095ZM1338.86 443.424C1340.39 443.424 1341.53 443.767 1342.27 444.455C1343.02 445.142 1343.39 446.24 1343.39 447.748V456.478H1341.97L1341.59 454.58H1341.5C1341.14 455.049 1340.77 455.443 1340.38 455.763C1339.98 456.076 1339.53 456.314 1339.02 456.478C1338.51 456.635 1337.88 456.713 1337.14 456.713C1336.36 456.713 1335.66 456.576 1335.05 456.302C1334.45 456.029 1333.98 455.615 1333.62 455.06C1333.28 454.506 1333.11 453.802 1333.11 452.951C1333.11 451.67 1333.62 450.685 1334.63 449.998C1335.65 449.31 1337.2 448.935 1339.27 448.873L1341.49 448.779V447.994C1341.49 446.885 1341.25 446.107 1340.77 445.662C1340.3 445.217 1339.62 444.994 1338.76 444.994C1338.09 444.994 1337.45 445.092 1336.84 445.287C1336.23 445.482 1335.65 445.713 1335.1 445.978L1334.5 444.502C1335.08 444.205 1335.75 443.951 1336.5 443.74C1337.25 443.529 1338.04 443.424 1338.86 443.424ZM1341.46 450.15L1339.51 450.232C1337.91 450.295 1336.78 450.556 1336.12 451.017C1335.46 451.478 1335.14 452.131 1335.14 452.974C1335.14 453.709 1335.36 454.252 1335.8 454.603C1336.25 454.955 1336.84 455.131 1337.57 455.131C1338.71 455.131 1339.65 454.814 1340.38 454.181C1341.1 453.549 1341.46 452.599 1341.46 451.334V450.15ZM1353.23 443.4C1353.49 443.4 1353.76 443.416 1354.04 443.447C1354.32 443.47 1354.57 443.506 1354.79 443.552L1354.54 445.357C1354.33 445.302 1354.1 445.26 1353.84 445.228C1353.58 445.197 1353.34 445.181 1353.11 445.181C1352.6 445.181 1352.11 445.287 1351.65 445.498C1351.2 445.701 1350.8 445.998 1350.45 446.388C1350.11 446.771 1349.84 447.236 1349.64 447.783C1349.45 448.322 1349.35 448.924 1349.35 449.588V456.478H1347.39V443.635H1349.01L1349.22 446.002H1349.3C1349.57 445.525 1349.89 445.092 1350.27 444.701C1350.64 444.302 1351.07 443.986 1351.57 443.752C1352.07 443.517 1352.62 443.4 1353.23 443.4ZM1355.19 443.635H1357.27L1360.11 451.088C1360.27 451.525 1360.43 451.947 1360.57 452.353C1360.71 452.752 1360.83 453.135 1360.94 453.502C1361.05 453.869 1361.14 454.224 1361.2 454.568H1361.28C1361.39 454.177 1361.55 453.666 1361.75 453.033C1361.95 452.392 1362.17 451.74 1362.41 451.076L1365.09 443.635H1367.19L1361.6 458.365C1361.3 459.154 1360.95 459.842 1360.55 460.427C1360.16 461.013 1359.69 461.463 1359.12 461.775C1358.56 462.095 1357.88 462.256 1357.09 462.256C1356.72 462.256 1356.39 462.232 1356.11 462.185C1355.83 462.146 1355.59 462.099 1355.39 462.045V460.486C1355.56 460.525 1355.77 460.56 1356.01 460.592C1356.26 460.623 1356.52 460.638 1356.78 460.638C1357.27 460.638 1357.68 460.545 1358.04 460.357C1358.39 460.177 1358.7 459.912 1358.96 459.56C1359.22 459.209 1359.44 458.791 1359.63 458.306L1360.33 456.502L1355.19 443.635Z" fill="#141414"/>
<path d="M1271.81 467.345L1267.23 484.478H1265.22L1261.82 472.947C1261.72 472.619 1261.62 472.291 1261.53 471.963C1261.45 471.627 1261.36 471.31 1261.29 471.013C1261.21 470.709 1261.14 470.443 1261.09 470.217C1261.04 469.982 1261 469.806 1260.98 469.689C1260.96 469.806 1260.93 469.978 1260.89 470.205C1260.85 470.431 1260.79 470.693 1260.72 470.99C1260.66 471.287 1260.58 471.603 1260.49 471.939C1260.4 472.275 1260.31 472.615 1260.21 472.959L1256.9 484.478H1254.9L1250.35 467.345H1252.43L1255.18 478.092C1255.27 478.451 1255.36 478.806 1255.44 479.158C1255.52 479.502 1255.6 479.838 1255.66 480.166C1255.73 480.494 1255.79 480.814 1255.85 481.127C1255.9 481.439 1255.95 481.744 1256 482.041C1256.04 481.736 1256.09 481.42 1256.15 481.092C1256.21 480.756 1256.28 480.416 1256.35 480.072C1256.43 479.728 1256.51 479.381 1256.6 479.029C1256.69 478.677 1256.79 478.326 1256.89 477.974L1259.97 467.345H1262.02L1265.23 478.056C1265.34 478.424 1265.45 478.787 1265.54 479.146C1265.63 479.506 1265.71 479.857 1265.79 480.201C1265.86 480.537 1265.93 480.861 1265.98 481.174C1266.05 481.478 1266.1 481.767 1266.15 482.041C1266.2 481.658 1266.27 481.256 1266.35 480.834C1266.43 480.412 1266.52 479.97 1266.62 479.51C1266.73 479.049 1266.84 478.572 1266.97 478.08L1269.72 467.345H1271.81ZM1276.17 466.244V471.693C1276.17 472.006 1276.16 472.322 1276.14 472.642C1276.13 472.955 1276.1 473.244 1276.06 473.51H1276.19C1276.46 473.056 1276.79 472.677 1277.2 472.373C1277.61 472.06 1278.08 471.826 1278.61 471.67C1279.13 471.506 1279.68 471.424 1280.27 471.424C1281.3 471.424 1282.16 471.588 1282.85 471.916C1283.54 472.244 1284.06 472.752 1284.41 473.439C1284.76 474.127 1284.93 475.017 1284.93 476.111V484.478H1283.01V476.24C1283.01 475.17 1282.77 474.369 1282.27 473.838C1281.79 473.306 1281.04 473.041 1280.04 473.041C1279.08 473.041 1278.32 473.224 1277.75 473.592C1277.19 473.951 1276.78 474.482 1276.53 475.185C1276.29 475.888 1276.17 476.748 1276.17 477.763V484.478H1274.22V466.244H1276.17ZM1290.89 471.635V484.478H1288.94V471.635H1290.89ZM1289.94 466.83C1290.26 466.83 1290.53 466.935 1290.76 467.146C1290.99 467.349 1291.11 467.67 1291.11 468.107C1291.11 468.537 1290.99 468.857 1290.76 469.068C1290.53 469.279 1290.26 469.385 1289.94 469.385C1289.6 469.385 1289.32 469.279 1289.09 469.068C1288.88 468.857 1288.77 468.537 1288.77 468.107C1288.77 467.67 1288.88 467.349 1289.09 467.146C1289.32 466.935 1289.6 466.83 1289.94 466.83ZM1299.16 483.119C1299.48 483.119 1299.81 483.092 1300.14 483.037C1300.48 482.982 1300.75 482.916 1300.96 482.838V484.349C1300.74 484.451 1300.42 484.537 1300.02 484.607C1299.62 484.677 1299.23 484.713 1298.84 484.713C1298.16 484.713 1297.55 484.595 1296.99 484.361C1296.44 484.119 1295.99 483.713 1295.66 483.142C1295.33 482.572 1295.16 481.783 1295.16 480.775V473.158H1293.34V472.209L1295.18 471.447L1295.95 468.658H1297.12V471.635H1300.88V473.158H1297.12V480.717C1297.12 481.521 1297.3 482.123 1297.67 482.521C1298.05 482.92 1298.54 483.119 1299.16 483.119ZM1308.51 471.4C1309.61 471.4 1310.54 471.642 1311.32 472.127C1312.11 472.611 1312.7 473.291 1313.12 474.166C1313.53 475.033 1313.74 476.049 1313.74 477.213V478.42H1304.87C1304.89 479.927 1305.27 481.076 1305.99 481.865C1306.72 482.654 1307.74 483.049 1309.06 483.049C1309.88 483.049 1310.59 482.974 1311.22 482.826C1311.84 482.677 1312.49 482.459 1313.16 482.17V483.881C1312.52 484.17 1311.87 484.381 1311.23 484.513C1310.6 484.646 1309.85 484.713 1308.98 484.713C1307.75 484.713 1306.67 484.463 1305.75 483.963C1304.83 483.455 1304.12 482.713 1303.61 481.736C1303.11 480.76 1302.85 479.564 1302.85 478.15C1302.85 476.767 1303.08 475.572 1303.54 474.564C1304.01 473.549 1304.67 472.767 1305.51 472.22C1306.36 471.674 1307.36 471.4 1308.51 471.4ZM1308.49 472.994C1307.45 472.994 1306.62 473.334 1306 474.013C1305.39 474.693 1305.02 475.642 1304.9 476.861H1311.7C1311.69 476.095 1311.57 475.424 1311.34 474.845C1311.11 474.26 1310.76 473.806 1310.29 473.486C1309.82 473.158 1309.22 472.994 1308.49 472.994Z" fill="#141414"/>
</svg>
