<svg width="404" height="271" viewBox="0 0 404 271" fill="none" xmlns="http://www.w3.org/2000/svg">
<g filter="url(#filter0_d_1601_9981)">
<rect x="4" y="0.521484" width="395.5" height="262" rx="8" fill="#2B5FFC" shape-rendering="crispEdges"/>
<rect x="180.75" y="64.5215" width="42" height="42" rx="21" fill="white"/>
<path d="M201.75 94.5215C201.467 94.5215 201.229 94.4257 201.038 94.234C200.846 94.0423 200.75 93.8048 200.75 93.5215V86.5215H193.75C193.467 86.5215 193.229 86.4257 193.037 86.234C192.846 86.0423 192.75 85.8048 192.75 85.5215C192.75 85.2382 192.846 85.0007 193.037 84.809C193.229 84.6173 193.467 84.5215 193.75 84.5215H200.75V77.5215C200.75 77.2382 200.846 77.0007 201.038 76.809C201.229 76.6173 201.467 76.5215 201.75 76.5215C202.033 76.5215 202.271 76.6173 202.463 76.809C202.654 77.0007 202.75 77.2382 202.75 77.5215V84.5215H209.75C210.033 84.5215 210.271 84.6173 210.462 84.809C210.654 85.0007 210.75 85.2382 210.75 85.5215C210.75 85.8048 210.654 86.0423 210.462 86.234C210.271 86.4257 210.033 86.5215 209.75 86.5215H202.75V93.5215C202.75 93.8048 202.654 94.0423 202.463 94.234C202.271 94.4257 202.033 94.5215 201.75 94.5215Z" fill="#2B5FFC"/>
<path d="M118.828 130.533C118.008 130.533 117.273 130.682 116.625 130.979C115.984 131.275 115.441 131.705 114.996 132.268C114.551 132.822 114.211 133.498 113.977 134.295C113.742 135.084 113.625 135.975 113.625 136.967C113.625 138.295 113.812 139.439 114.188 140.4C114.562 141.354 115.133 142.088 115.898 142.604C116.664 143.111 117.633 143.365 118.805 143.365C119.531 143.365 120.238 143.295 120.926 143.154C121.613 143.014 122.324 142.822 123.059 142.58V144.971C122.363 145.244 121.66 145.443 120.949 145.568C120.238 145.693 119.418 145.756 118.488 145.756C116.738 145.756 115.285 145.393 114.129 144.666C112.98 143.939 112.121 142.916 111.551 141.596C110.988 140.275 110.707 138.729 110.707 136.955C110.707 135.658 110.887 134.471 111.246 133.393C111.605 132.314 112.129 131.385 112.816 130.604C113.504 129.814 114.352 129.209 115.359 128.787C116.375 128.357 117.535 128.143 118.84 128.143C119.699 128.143 120.543 128.24 121.371 128.436C122.207 128.623 122.98 128.893 123.691 129.244L122.707 131.564C122.113 131.283 121.492 131.041 120.844 130.838C120.195 130.635 119.523 130.533 118.828 130.533ZM133.031 132.303C133.25 132.303 133.488 132.314 133.746 132.338C134.004 132.361 134.227 132.393 134.414 132.432L134.156 135.01C133.992 134.963 133.789 134.928 133.547 134.904C133.312 134.881 133.102 134.869 132.914 134.869C132.422 134.869 131.953 134.951 131.508 135.115C131.062 135.271 130.668 135.514 130.324 135.842C129.98 136.162 129.711 136.564 129.516 137.049C129.32 137.533 129.223 138.096 129.223 138.736V145.521H126.457V132.549H128.613L128.988 134.834H129.117C129.375 134.373 129.695 133.951 130.078 133.568C130.461 133.186 130.898 132.881 131.391 132.654C131.891 132.42 132.438 132.303 133.031 132.303ZM141.984 132.303C143.141 132.303 144.133 132.541 144.961 133.018C145.789 133.494 146.426 134.17 146.871 135.045C147.316 135.92 147.539 136.967 147.539 138.186V139.662H138.879C138.91 140.92 139.246 141.889 139.887 142.568C140.535 143.248 141.441 143.588 142.605 143.588C143.434 143.588 144.176 143.51 144.832 143.354C145.496 143.189 146.18 142.951 146.883 142.639V144.877C146.234 145.182 145.574 145.404 144.902 145.545C144.23 145.686 143.426 145.756 142.488 145.756C141.215 145.756 140.094 145.51 139.125 145.018C138.164 144.518 137.41 143.775 136.863 142.791C136.324 141.807 136.055 140.584 136.055 139.123C136.055 137.67 136.301 136.436 136.793 135.42C137.285 134.404 137.977 133.631 138.867 133.1C139.758 132.568 140.797 132.303 141.984 132.303ZM141.984 134.377C141.117 134.377 140.414 134.658 139.875 135.221C139.344 135.783 139.031 136.607 138.938 137.693H144.844C144.836 137.045 144.727 136.471 144.516 135.971C144.312 135.471 144 135.08 143.578 134.799C143.164 134.518 142.633 134.377 141.984 134.377ZM155.73 132.303C157.371 132.303 158.609 132.666 159.445 133.393C160.289 134.119 160.711 135.252 160.711 136.791V145.521H158.754L158.227 143.682H158.133C157.766 144.15 157.387 144.537 156.996 144.842C156.605 145.146 156.152 145.373 155.637 145.521C155.129 145.678 154.508 145.756 153.773 145.756C153 145.756 152.309 145.615 151.699 145.334C151.09 145.045 150.609 144.607 150.258 144.021C149.906 143.436 149.73 142.693 149.73 141.795C149.73 140.459 150.227 139.455 151.219 138.783C152.219 138.111 153.727 137.74 155.742 137.67L157.992 137.588V136.908C157.992 136.01 157.781 135.369 157.359 134.986C156.945 134.604 156.359 134.412 155.602 134.412C154.953 134.412 154.324 134.506 153.715 134.693C153.105 134.881 152.512 135.111 151.934 135.385L151.043 133.439C151.676 133.104 152.395 132.83 153.199 132.619C154.012 132.408 154.855 132.303 155.73 132.303ZM157.98 139.322L156.305 139.381C154.93 139.428 153.965 139.662 153.41 140.084C152.855 140.506 152.578 141.084 152.578 141.818C152.578 142.459 152.77 142.928 153.152 143.225C153.535 143.514 154.039 143.658 154.664 143.658C155.617 143.658 156.406 143.389 157.031 142.85C157.664 142.303 157.98 141.502 157.98 140.447V139.322ZM169.395 143.529C169.754 143.529 170.109 143.498 170.461 143.436C170.812 143.365 171.133 143.283 171.422 143.189V145.275C171.117 145.408 170.723 145.521 170.238 145.615C169.754 145.709 169.25 145.756 168.727 145.756C167.992 145.756 167.332 145.635 166.746 145.393C166.16 145.143 165.695 144.717 165.352 144.115C165.008 143.514 164.836 142.682 164.836 141.619V134.646H163.066V133.416L164.965 132.443L165.867 129.666H167.602V132.549H171.316V134.646H167.602V141.584C167.602 142.24 167.766 142.729 168.094 143.049C168.422 143.369 168.855 143.529 169.395 143.529ZM179.227 132.303C180.383 132.303 181.375 132.541 182.203 133.018C183.031 133.494 183.668 134.17 184.113 135.045C184.559 135.92 184.781 136.967 184.781 138.186V139.662H176.121C176.152 140.92 176.488 141.889 177.129 142.568C177.777 143.248 178.684 143.588 179.848 143.588C180.676 143.588 181.418 143.51 182.074 143.354C182.738 143.189 183.422 142.951 184.125 142.639V144.877C183.477 145.182 182.816 145.404 182.145 145.545C181.473 145.686 180.668 145.756 179.73 145.756C178.457 145.756 177.336 145.51 176.367 145.018C175.406 144.518 174.652 143.775 174.105 142.791C173.566 141.807 173.297 140.584 173.297 139.123C173.297 137.67 173.543 136.436 174.035 135.42C174.527 134.404 175.219 133.631 176.109 133.1C177 132.568 178.039 132.303 179.227 132.303ZM179.227 134.377C178.359 134.377 177.656 134.658 177.117 135.221C176.586 135.783 176.273 136.607 176.18 137.693H182.086C182.078 137.045 181.969 136.471 181.758 135.971C181.555 135.471 181.242 135.08 180.82 134.799C180.406 134.518 179.875 134.377 179.227 134.377ZM199.207 132.303C200.848 132.303 202.086 132.666 202.922 133.393C203.766 134.119 204.188 135.252 204.188 136.791V145.521H202.23L201.703 143.682H201.609C201.242 144.15 200.863 144.537 200.473 144.842C200.082 145.146 199.629 145.373 199.113 145.521C198.605 145.678 197.984 145.756 197.25 145.756C196.477 145.756 195.785 145.615 195.176 145.334C194.566 145.045 194.086 144.607 193.734 144.021C193.383 143.436 193.207 142.693 193.207 141.795C193.207 140.459 193.703 139.455 194.695 138.783C195.695 138.111 197.203 137.74 199.219 137.67L201.469 137.588V136.908C201.469 136.01 201.258 135.369 200.836 134.986C200.422 134.604 199.836 134.412 199.078 134.412C198.43 134.412 197.801 134.506 197.191 134.693C196.582 134.881 195.988 135.111 195.41 135.385L194.52 133.439C195.152 133.104 195.871 132.83 196.676 132.619C197.488 132.408 198.332 132.303 199.207 132.303ZM201.457 139.322L199.781 139.381C198.406 139.428 197.441 139.662 196.887 140.084C196.332 140.506 196.055 141.084 196.055 141.818C196.055 142.459 196.246 142.928 196.629 143.225C197.012 143.514 197.516 143.658 198.141 143.658C199.094 143.658 199.883 143.389 200.508 142.85C201.141 142.303 201.457 141.502 201.457 140.447V139.322ZM220.934 132.303C222.473 132.303 223.707 132.865 224.637 133.99C225.574 135.115 226.043 136.787 226.043 139.006C226.043 140.475 225.824 141.713 225.387 142.721C224.957 143.721 224.352 144.479 223.57 144.994C222.797 145.502 221.895 145.756 220.863 145.756C220.207 145.756 219.637 145.67 219.152 145.498C218.668 145.326 218.254 145.104 217.91 144.83C217.566 144.549 217.277 144.244 217.043 143.916H216.879C216.918 144.229 216.953 144.576 216.984 144.959C217.023 145.334 217.043 145.678 217.043 145.99V151.275H214.277V132.549H216.527L216.914 134.342H217.043C217.285 133.975 217.578 133.635 217.922 133.322C218.273 133.01 218.695 132.764 219.188 132.584C219.688 132.396 220.27 132.303 220.934 132.303ZM220.195 134.553C219.438 134.553 218.828 134.705 218.367 135.01C217.914 135.307 217.582 135.756 217.371 136.357C217.168 136.959 217.059 137.713 217.043 138.619V139.006C217.043 139.967 217.141 140.783 217.336 141.455C217.539 142.119 217.871 142.627 218.332 142.979C218.801 143.322 219.434 143.494 220.23 143.494C220.902 143.494 221.457 143.311 221.895 142.943C222.34 142.576 222.672 142.053 222.891 141.373C223.109 140.693 223.219 139.893 223.219 138.971C223.219 137.572 222.969 136.486 222.469 135.713C221.977 134.939 221.219 134.553 220.195 134.553ZM235.805 132.303C236.023 132.303 236.262 132.314 236.52 132.338C236.777 132.361 237 132.393 237.188 132.432L236.93 135.01C236.766 134.963 236.562 134.928 236.32 134.904C236.086 134.881 235.875 134.869 235.688 134.869C235.195 134.869 234.727 134.951 234.281 135.115C233.836 135.271 233.441 135.514 233.098 135.842C232.754 136.162 232.484 136.564 232.289 137.049C232.094 137.533 231.996 138.096 231.996 138.736V145.521H229.23V132.549H231.387L231.762 134.834H231.891C232.148 134.373 232.469 133.951 232.852 133.568C233.234 133.186 233.672 132.881 234.164 132.654C234.664 132.42 235.211 132.303 235.805 132.303ZM251.074 139.006C251.074 140.084 250.934 141.041 250.652 141.877C250.371 142.713 249.961 143.42 249.422 143.998C248.883 144.568 248.234 145.006 247.477 145.311C246.719 145.607 245.863 145.756 244.91 145.756C244.02 145.756 243.203 145.607 242.461 145.311C241.719 145.006 241.074 144.568 240.527 143.998C239.988 143.42 239.57 142.713 239.273 141.877C238.977 141.041 238.828 140.084 238.828 139.006C238.828 137.576 239.074 136.365 239.566 135.373C240.066 134.373 240.777 133.611 241.699 133.088C242.621 132.564 243.719 132.303 244.992 132.303C246.188 132.303 247.242 132.564 248.156 133.088C249.07 133.611 249.785 134.373 250.301 135.373C250.816 136.373 251.074 137.584 251.074 139.006ZM241.664 139.006C241.664 139.951 241.777 140.76 242.004 141.432C242.238 142.104 242.598 142.619 243.082 142.979C243.566 143.33 244.191 143.506 244.957 143.506C245.723 143.506 246.348 143.33 246.832 142.979C247.316 142.619 247.672 142.104 247.898 141.432C248.125 140.76 248.238 139.951 248.238 139.006C248.238 138.061 248.125 137.26 247.898 136.604C247.672 135.939 247.316 135.436 246.832 135.092C246.348 134.74 245.719 134.564 244.945 134.564C243.805 134.564 242.973 134.947 242.449 135.713C241.926 136.479 241.664 137.576 241.664 139.006ZM252.938 151.287C252.531 151.287 252.145 151.256 251.777 151.193C251.41 151.139 251.102 151.072 250.852 150.994V148.791C251.117 148.869 251.375 148.928 251.625 148.967C251.875 149.006 252.16 149.025 252.48 149.025C252.988 149.025 253.406 148.885 253.734 148.604C254.07 148.322 254.238 147.787 254.238 146.998V132.549H256.992V147.244C256.992 148.033 256.852 148.732 256.57 149.342C256.297 149.951 255.859 150.428 255.258 150.771C254.664 151.115 253.891 151.287 252.938 151.287ZM254.074 129.092C254.074 128.537 254.223 128.146 254.52 127.92C254.824 127.693 255.195 127.58 255.633 127.58C256.055 127.58 256.418 127.693 256.723 127.92C257.035 128.146 257.191 128.537 257.191 129.092C257.191 129.639 257.035 130.029 256.723 130.264C256.418 130.49 256.055 130.604 255.633 130.604C255.195 130.604 254.824 130.49 254.52 130.264C254.223 130.029 254.074 129.639 254.074 129.092ZM266.109 132.303C267.266 132.303 268.258 132.541 269.086 133.018C269.914 133.494 270.551 134.17 270.996 135.045C271.441 135.92 271.664 136.967 271.664 138.186V139.662H263.004C263.035 140.92 263.371 141.889 264.012 142.568C264.66 143.248 265.566 143.588 266.73 143.588C267.559 143.588 268.301 143.51 268.957 143.354C269.621 143.189 270.305 142.951 271.008 142.639V144.877C270.359 145.182 269.699 145.404 269.027 145.545C268.355 145.686 267.551 145.756 266.613 145.756C265.34 145.756 264.219 145.51 263.25 145.018C262.289 144.518 261.535 143.775 260.988 142.791C260.449 141.807 260.18 140.584 260.18 139.123C260.18 137.67 260.426 136.436 260.918 135.42C261.41 134.404 262.102 133.631 262.992 133.1C263.883 132.568 264.922 132.303 266.109 132.303ZM266.109 134.377C265.242 134.377 264.539 134.658 264 135.221C263.469 135.783 263.156 136.607 263.062 137.693H268.969C268.961 137.045 268.852 136.471 268.641 135.971C268.438 135.471 268.125 135.08 267.703 134.799C267.289 134.518 266.758 134.377 266.109 134.377ZM279.996 145.756C278.77 145.756 277.707 145.518 276.809 145.041C275.91 144.564 275.219 143.834 274.734 142.85C274.25 141.865 274.008 140.615 274.008 139.1C274.008 137.521 274.273 136.232 274.805 135.232C275.336 134.232 276.07 133.494 277.008 133.018C277.953 132.541 279.035 132.303 280.254 132.303C281.027 132.303 281.727 132.381 282.352 132.537C282.984 132.686 283.52 132.869 283.957 133.088L283.137 135.291C282.66 135.096 282.172 134.932 281.672 134.799C281.172 134.666 280.691 134.6 280.23 134.6C279.473 134.6 278.84 134.768 278.332 135.104C277.832 135.439 277.457 135.939 277.207 136.604C276.965 137.268 276.844 138.092 276.844 139.076C276.844 140.029 276.969 140.834 277.219 141.49C277.469 142.139 277.84 142.631 278.332 142.967C278.824 143.295 279.43 143.459 280.148 143.459C280.859 143.459 281.496 143.373 282.059 143.201C282.621 143.029 283.152 142.807 283.652 142.533V144.924C283.16 145.205 282.633 145.412 282.07 145.545C281.508 145.686 280.816 145.756 279.996 145.756ZM291.527 143.529C291.887 143.529 292.242 143.498 292.594 143.436C292.945 143.365 293.266 143.283 293.555 143.189V145.275C293.25 145.408 292.855 145.521 292.371 145.615C291.887 145.709 291.383 145.756 290.859 145.756C290.125 145.756 289.465 145.635 288.879 145.393C288.293 145.143 287.828 144.717 287.484 144.115C287.141 143.514 286.969 142.682 286.969 141.619V134.646H285.199V133.416L287.098 132.443L288 129.666H289.734V132.549H293.449V134.646H289.734V141.584C289.734 142.24 289.898 142.729 290.227 143.049C290.555 143.369 290.988 143.529 291.527 143.529Z" fill="white"/>
<path d="M22.8691 179.521H21.873V170.955H26.6426V171.834H22.8691V174.975H26.4141V175.848H22.8691V179.521ZM28.8984 173.1V179.521H27.9258V173.1H28.8984ZM28.4238 170.697C28.584 170.697 28.7207 170.75 28.834 170.855C28.9512 170.957 29.0098 171.117 29.0098 171.336C29.0098 171.551 28.9512 171.711 28.834 171.816C28.7207 171.922 28.584 171.975 28.4238 171.975C28.2559 171.975 28.1152 171.922 28.002 171.816C27.8926 171.711 27.8379 171.551 27.8379 171.336C27.8379 171.117 27.8926 170.957 28.002 170.855C28.1152 170.75 28.2559 170.697 28.4238 170.697ZM31.9395 179.521H30.9609V170.404H31.9395V179.521ZM34.9746 179.521H33.9961V170.404H34.9746V179.521ZM45.6855 176.299C45.6855 176.826 45.6172 177.297 45.4805 177.711C45.3438 178.125 45.1465 178.475 44.8887 178.76C44.6309 179.045 44.3184 179.264 43.9512 179.416C43.5879 179.564 43.1758 179.639 42.7148 179.639C42.2852 179.639 41.8906 179.564 41.5312 179.416C41.1758 179.264 40.8672 179.045 40.6055 178.76C40.3477 178.475 40.1465 178.125 40.002 177.711C39.8613 177.297 39.791 176.826 39.791 176.299C39.791 175.596 39.9102 174.998 40.1484 174.506C40.3867 174.01 40.7266 173.633 41.168 173.375C41.6133 173.113 42.1426 172.982 42.7559 172.982C43.3418 172.982 43.8535 173.113 44.291 173.375C44.7324 173.637 45.0742 174.016 45.3164 174.512C45.5625 175.004 45.6855 175.6 45.6855 176.299ZM40.7988 176.299C40.7988 176.814 40.8672 177.262 41.0039 177.641C41.1406 178.02 41.3516 178.312 41.6367 178.52C41.9219 178.727 42.2891 178.83 42.7383 178.83C43.1836 178.83 43.5488 178.727 43.834 178.52C44.123 178.312 44.3359 178.02 44.4727 177.641C44.6094 177.262 44.6777 176.814 44.6777 176.299C44.6777 175.787 44.6094 175.346 44.4727 174.975C44.3359 174.6 44.125 174.311 43.8398 174.107C43.5547 173.904 43.1855 173.803 42.7324 173.803C42.0645 173.803 41.5742 174.023 41.2617 174.465C40.9531 174.906 40.7988 175.518 40.7988 176.299ZM52.6699 173.1V179.521H51.873L51.7324 178.619H51.6797C51.5469 178.842 51.375 179.029 51.1641 179.182C50.9531 179.334 50.7148 179.447 50.4492 179.521C50.1875 179.6 49.9082 179.639 49.6113 179.639C49.1035 179.639 48.6777 179.557 48.334 179.393C47.9902 179.229 47.7305 178.975 47.5547 178.631C47.3828 178.287 47.2969 177.846 47.2969 177.307V173.1H48.2812V177.236C48.2812 177.771 48.4023 178.172 48.6445 178.438C48.8867 178.699 49.2559 178.83 49.752 178.83C50.2285 178.83 50.6074 178.74 50.8887 178.561C51.1738 178.381 51.3789 178.117 51.5039 177.77C51.6289 177.418 51.6914 176.988 51.6914 176.48V173.1H52.6699ZM56.8008 178.842C56.9609 178.842 57.125 178.828 57.293 178.801C57.4609 178.773 57.5977 178.74 57.7031 178.701V179.457C57.5898 179.508 57.4316 179.551 57.2285 179.586C57.0293 179.621 56.834 179.639 56.6426 179.639C56.3027 179.639 55.9941 179.58 55.7168 179.463C55.4395 179.342 55.2168 179.139 55.0488 178.854C54.8848 178.568 54.8027 178.174 54.8027 177.67V173.861H53.8887V173.387L54.8086 173.006L55.1953 171.611H55.7812V173.1H57.6621V173.861H55.7812V177.641C55.7812 178.043 55.873 178.344 56.0566 178.543C56.2441 178.742 56.4922 178.842 56.8008 178.842ZM64.5234 172.994C65.2891 172.994 65.8574 173.166 66.2285 173.51C66.5996 173.854 66.7852 174.402 66.7852 175.156V179.521H66.0762L65.8887 178.572H65.8418C65.6621 178.807 65.4746 179.004 65.2793 179.164C65.084 179.32 64.8574 179.439 64.5996 179.521C64.3457 179.6 64.0332 179.639 63.6621 179.639C63.2715 179.639 62.9238 179.57 62.6191 179.434C62.3184 179.297 62.0801 179.09 61.9043 178.812C61.7324 178.535 61.6465 178.184 61.6465 177.758C61.6465 177.117 61.9004 176.625 62.4082 176.281C62.916 175.938 63.6895 175.75 64.7285 175.719L65.8359 175.672V175.279C65.8359 174.725 65.7168 174.336 65.4785 174.113C65.2402 173.891 64.9043 173.779 64.4707 173.779C64.1348 173.779 63.8145 173.828 63.5098 173.926C63.2051 174.023 62.916 174.139 62.6426 174.271L62.3438 173.533C62.6328 173.385 62.9648 173.258 63.3398 173.152C63.7148 173.047 64.1094 172.994 64.5234 172.994ZM65.8242 176.357L64.8457 176.398C64.0449 176.43 63.4805 176.561 63.1523 176.791C62.8242 177.021 62.6602 177.348 62.6602 177.77C62.6602 178.137 62.7715 178.408 62.9941 178.584C63.2168 178.76 63.5117 178.848 63.8789 178.848C64.4492 178.848 64.916 178.689 65.2793 178.373C65.6426 178.057 65.8242 177.582 65.8242 176.949V176.357ZM76.2129 182.393V179.639C76.2129 179.486 76.2168 179.311 76.2246 179.111C76.2324 178.912 76.2461 178.74 76.2656 178.596H76.2012C76.0215 178.893 75.7656 179.141 75.4336 179.34C75.1016 179.539 74.6738 179.639 74.1504 179.639C73.3652 179.639 72.7344 179.361 72.2578 178.807C71.7812 178.252 71.543 177.424 71.543 176.322C71.543 175.6 71.6523 174.99 71.8711 174.494C72.0898 173.998 72.3984 173.623 72.7969 173.369C73.1992 173.111 73.668 172.982 74.2031 172.982C74.7148 172.982 75.1328 173.084 75.457 173.287C75.7812 173.486 76.0352 173.73 76.2188 174.02H76.2656L76.4121 173.1H77.1855V182.393H76.2129ZM74.332 178.83C74.7852 178.83 75.1484 178.746 75.4219 178.578C75.6953 178.406 75.8945 178.148 76.0195 177.805C76.1484 177.461 76.2168 177.033 76.2246 176.521V176.316C76.2246 175.488 76.084 174.861 75.8027 174.436C75.5215 174.006 75.0312 173.791 74.332 173.791C73.7305 173.791 73.2832 174.021 72.9902 174.482C72.6973 174.939 72.5508 175.561 72.5508 176.346C72.5508 177.131 72.6973 177.742 72.9902 178.18C73.2832 178.613 73.7305 178.83 74.332 178.83ZM84.5566 173.1V179.521H83.7598L83.6191 178.619H83.5664C83.4336 178.842 83.2617 179.029 83.0508 179.182C82.8398 179.334 82.6016 179.447 82.3359 179.521C82.0742 179.6 81.7949 179.639 81.498 179.639C80.9902 179.639 80.5645 179.557 80.2207 179.393C79.877 179.229 79.6172 178.975 79.4414 178.631C79.2695 178.287 79.1836 177.846 79.1836 177.307V173.1H80.168V177.236C80.168 177.771 80.2891 178.172 80.5312 178.438C80.7734 178.699 81.1426 178.83 81.6387 178.83C82.1152 178.83 82.4941 178.74 82.7754 178.561C83.0605 178.381 83.2656 178.117 83.3906 177.77C83.5156 177.418 83.5781 176.988 83.5781 176.48V173.1H84.5566ZM89.0859 172.982C89.6328 172.982 90.1016 173.104 90.4922 173.346C90.8828 173.588 91.1816 173.928 91.3887 174.365C91.5957 174.799 91.6992 175.307 91.6992 175.889V176.492H87.2637C87.2754 177.246 87.4629 177.82 87.8262 178.215C88.1895 178.609 88.7012 178.807 89.3613 178.807C89.7676 178.807 90.127 178.77 90.4395 178.695C90.752 178.621 91.0762 178.512 91.4121 178.367V179.223C91.0879 179.367 90.7656 179.473 90.4453 179.539C90.1289 179.605 89.7539 179.639 89.3203 179.639C88.7031 179.639 88.1641 179.514 87.7031 179.264C87.2461 179.01 86.8906 178.639 86.6367 178.15C86.3828 177.662 86.2559 177.064 86.2559 176.357C86.2559 175.666 86.3711 175.068 86.6016 174.564C86.8359 174.057 87.1641 173.666 87.5859 173.393C88.0117 173.119 88.5117 172.982 89.0859 172.982ZM89.0742 173.779C88.5547 173.779 88.1406 173.949 87.832 174.289C87.5234 174.629 87.3398 175.104 87.2812 175.713H90.6797C90.6758 175.33 90.6152 174.994 90.498 174.705C90.3848 174.412 90.2109 174.186 89.9766 174.025C89.7422 173.861 89.4414 173.779 89.0742 173.779ZM97.5059 177.764C97.5059 178.174 97.4023 178.52 97.1953 178.801C96.9922 179.078 96.6992 179.287 96.3164 179.428C95.9375 179.568 95.4844 179.639 94.957 179.639C94.5078 179.639 94.1191 179.604 93.791 179.533C93.4629 179.463 93.1758 179.363 92.9297 179.234V178.338C93.1914 178.467 93.5039 178.584 93.8672 178.689C94.2305 178.795 94.6016 178.848 94.9805 178.848C95.5352 178.848 95.9375 178.758 96.1875 178.578C96.4375 178.398 96.5625 178.154 96.5625 177.846C96.5625 177.67 96.5117 177.516 96.4102 177.383C96.3125 177.246 96.1465 177.115 95.9121 176.99C95.6777 176.861 95.3535 176.721 94.9395 176.568C94.5293 176.412 94.1738 176.258 93.873 176.105C93.5762 175.949 93.3457 175.76 93.1816 175.537C93.0215 175.314 92.9414 175.025 92.9414 174.67C92.9414 174.127 93.1602 173.711 93.5977 173.422C94.0391 173.129 94.6172 172.982 95.332 172.982C95.7188 172.982 96.0801 173.021 96.416 173.1C96.7559 173.174 97.0723 173.275 97.3652 173.404L97.0371 174.184C96.7715 174.07 96.4883 173.975 96.1875 173.896C95.8867 173.818 95.5801 173.779 95.2676 173.779C94.8184 173.779 94.4727 173.854 94.2305 174.002C93.9922 174.15 93.873 174.354 93.873 174.611C93.873 174.811 93.9277 174.975 94.0371 175.104C94.1504 175.232 94.3301 175.354 94.5762 175.467C94.8223 175.58 95.1465 175.713 95.5488 175.865C95.9512 176.014 96.2988 176.168 96.5918 176.328C96.8848 176.484 97.1094 176.676 97.2656 176.902C97.4258 177.125 97.5059 177.412 97.5059 177.764ZM101.145 178.842C101.305 178.842 101.469 178.828 101.637 178.801C101.805 178.773 101.941 178.74 102.047 178.701V179.457C101.934 179.508 101.775 179.551 101.572 179.586C101.373 179.621 101.178 179.639 100.986 179.639C100.646 179.639 100.338 179.58 100.061 179.463C99.7832 179.342 99.5605 179.139 99.3926 178.854C99.2285 178.568 99.1465 178.174 99.1465 177.67V173.861H98.2324V173.387L99.1523 173.006L99.5391 171.611H100.125V173.1H102.006V173.861H100.125V177.641C100.125 178.043 100.217 178.344 100.4 178.543C100.588 178.742 100.836 178.842 101.145 178.842ZM104.32 173.1V179.521H103.348V173.1H104.32ZM103.846 170.697C104.006 170.697 104.143 170.75 104.256 170.855C104.373 170.957 104.432 171.117 104.432 171.336C104.432 171.551 104.373 171.711 104.256 171.816C104.143 171.922 104.006 171.975 103.846 171.975C103.678 171.975 103.537 171.922 103.424 171.816C103.314 171.711 103.26 171.551 103.26 171.336C103.26 171.117 103.314 170.957 103.424 170.855C103.537 170.75 103.678 170.697 103.846 170.697ZM111.92 176.299C111.92 176.826 111.852 177.297 111.715 177.711C111.578 178.125 111.381 178.475 111.123 178.76C110.865 179.045 110.553 179.264 110.186 179.416C109.822 179.564 109.41 179.639 108.949 179.639C108.52 179.639 108.125 179.564 107.766 179.416C107.41 179.264 107.102 179.045 106.84 178.76C106.582 178.475 106.381 178.125 106.236 177.711C106.096 177.297 106.025 176.826 106.025 176.299C106.025 175.596 106.145 174.998 106.383 174.506C106.621 174.01 106.961 173.633 107.402 173.375C107.848 173.113 108.377 172.982 108.99 172.982C109.576 172.982 110.088 173.113 110.525 173.375C110.967 173.637 111.309 174.016 111.551 174.512C111.797 175.004 111.92 175.6 111.92 176.299ZM107.033 176.299C107.033 176.814 107.102 177.262 107.238 177.641C107.375 178.02 107.586 178.312 107.871 178.52C108.156 178.727 108.523 178.83 108.973 178.83C109.418 178.83 109.783 178.727 110.068 178.52C110.357 178.312 110.57 178.02 110.707 177.641C110.844 177.262 110.912 176.814 110.912 176.299C110.912 175.787 110.844 175.346 110.707 174.975C110.57 174.6 110.359 174.311 110.074 174.107C109.789 173.904 109.42 173.803 108.967 173.803C108.299 173.803 107.809 174.023 107.496 174.465C107.188 174.906 107.033 175.518 107.033 176.299ZM116.643 172.982C117.404 172.982 117.98 173.17 118.371 173.545C118.762 173.916 118.957 174.514 118.957 175.338V179.521H117.996V175.402C117.996 174.867 117.873 174.467 117.627 174.201C117.385 173.936 117.012 173.803 116.508 173.803C115.797 173.803 115.297 174.004 115.008 174.406C114.719 174.809 114.574 175.393 114.574 176.158V179.521H113.602V173.1H114.387L114.533 174.025H114.586C114.723 173.799 114.896 173.609 115.107 173.457C115.318 173.301 115.555 173.184 115.816 173.105C116.078 173.023 116.354 172.982 116.643 172.982ZM124.002 172.982C124.764 172.982 125.34 173.17 125.73 173.545C126.121 173.916 126.316 174.514 126.316 175.338V179.521H125.355V175.402C125.355 174.867 125.232 174.467 124.986 174.201C124.744 173.936 124.371 173.803 123.867 173.803C123.156 173.803 122.656 174.004 122.367 174.406C122.078 174.809 121.934 175.393 121.934 176.158V179.521H120.961V173.1H121.746L121.893 174.025H121.945C122.082 173.799 122.256 173.609 122.467 173.457C122.678 173.301 122.914 173.184 123.176 173.105C123.438 173.023 123.713 172.982 124.002 172.982ZM130.723 172.994C131.488 172.994 132.057 173.166 132.428 173.51C132.799 173.854 132.984 174.402 132.984 175.156V179.521H132.275L132.088 178.572H132.041C131.861 178.807 131.674 179.004 131.479 179.164C131.283 179.32 131.057 179.439 130.799 179.521C130.545 179.6 130.232 179.639 129.861 179.639C129.471 179.639 129.123 179.57 128.818 179.434C128.518 179.297 128.279 179.09 128.104 178.812C127.932 178.535 127.846 178.184 127.846 177.758C127.846 177.117 128.1 176.625 128.607 176.281C129.115 175.938 129.889 175.75 130.928 175.719L132.035 175.672V175.279C132.035 174.725 131.916 174.336 131.678 174.113C131.439 173.891 131.104 173.779 130.67 173.779C130.334 173.779 130.014 173.828 129.709 173.926C129.404 174.023 129.115 174.139 128.842 174.271L128.543 173.533C128.832 173.385 129.164 173.258 129.539 173.152C129.914 173.047 130.309 172.994 130.723 172.994ZM132.023 176.357L131.045 176.398C130.244 176.43 129.68 176.561 129.352 176.791C129.023 177.021 128.859 177.348 128.859 177.77C128.859 178.137 128.971 178.408 129.193 178.584C129.416 178.76 129.711 178.848 130.078 178.848C130.648 178.848 131.115 178.689 131.479 178.373C131.842 178.057 132.023 177.582 132.023 176.949V176.357ZM135.961 173.1V179.521H134.988V173.1H135.961ZM135.486 170.697C135.646 170.697 135.783 170.75 135.896 170.855C136.014 170.957 136.072 171.117 136.072 171.336C136.072 171.551 136.014 171.711 135.896 171.816C135.783 171.922 135.646 171.975 135.486 171.975C135.318 171.975 135.178 171.922 135.064 171.816C134.955 171.711 134.9 171.551 134.9 171.336C134.9 171.117 134.955 170.957 135.064 170.855C135.178 170.75 135.318 170.697 135.486 170.697ZM140.941 172.982C141.07 172.982 141.205 172.99 141.346 173.006C141.486 173.018 141.611 173.035 141.721 173.059L141.598 173.961C141.492 173.934 141.375 173.912 141.246 173.896C141.117 173.881 140.996 173.873 140.883 173.873C140.625 173.873 140.381 173.926 140.15 174.031C139.924 174.133 139.725 174.281 139.553 174.477C139.381 174.668 139.246 174.9 139.148 175.174C139.051 175.443 139.002 175.744 139.002 176.076V179.521H138.023V173.1H138.832L138.938 174.283H138.979C139.111 174.045 139.271 173.828 139.459 173.633C139.646 173.434 139.863 173.275 140.109 173.158C140.359 173.041 140.637 172.982 140.941 172.982ZM145.406 172.982C145.953 172.982 146.422 173.104 146.812 173.346C147.203 173.588 147.502 173.928 147.709 174.365C147.916 174.799 148.02 175.307 148.02 175.889V176.492H143.584C143.596 177.246 143.783 177.82 144.146 178.215C144.51 178.609 145.021 178.807 145.682 178.807C146.088 178.807 146.447 178.77 146.76 178.695C147.072 178.621 147.396 178.512 147.732 178.367V179.223C147.408 179.367 147.086 179.473 146.766 179.539C146.449 179.605 146.074 179.639 145.641 179.639C145.023 179.639 144.484 179.514 144.023 179.264C143.566 179.01 143.211 178.639 142.957 178.15C142.703 177.662 142.576 177.064 142.576 176.357C142.576 175.666 142.691 175.068 142.922 174.564C143.156 174.057 143.484 173.666 143.906 173.393C144.332 173.119 144.832 172.982 145.406 172.982ZM145.395 173.779C144.875 173.779 144.461 173.949 144.152 174.289C143.844 174.629 143.66 175.104 143.602 175.713H147C146.996 175.33 146.936 174.994 146.818 174.705C146.705 174.412 146.531 174.186 146.297 174.025C146.062 173.861 145.762 173.779 145.395 173.779ZM155.191 172.994C155.957 172.994 156.525 173.166 156.896 173.51C157.268 173.854 157.453 174.402 157.453 175.156V179.521H156.744L156.557 178.572H156.51C156.33 178.807 156.143 179.004 155.947 179.164C155.752 179.32 155.525 179.439 155.268 179.521C155.014 179.6 154.701 179.639 154.33 179.639C153.939 179.639 153.592 179.57 153.287 179.434C152.986 179.297 152.748 179.09 152.572 178.812C152.4 178.535 152.314 178.184 152.314 177.758C152.314 177.117 152.568 176.625 153.076 176.281C153.584 175.938 154.357 175.75 155.396 175.719L156.504 175.672V175.279C156.504 174.725 156.385 174.336 156.146 174.113C155.908 173.891 155.572 173.779 155.139 173.779C154.803 173.779 154.482 173.828 154.178 173.926C153.873 174.023 153.584 174.139 153.311 174.271L153.012 173.533C153.301 173.385 153.633 173.258 154.008 173.152C154.383 173.047 154.777 172.994 155.191 172.994ZM156.492 176.357L155.514 176.398C154.713 176.43 154.148 176.561 153.82 176.791C153.492 177.021 153.328 177.348 153.328 177.77C153.328 178.137 153.439 178.408 153.662 178.584C153.885 178.76 154.18 178.848 154.547 178.848C155.117 178.848 155.584 178.689 155.947 178.373C156.311 178.057 156.492 177.582 156.492 176.949V176.357ZM162.498 172.982C163.26 172.982 163.836 173.17 164.227 173.545C164.617 173.916 164.812 174.514 164.812 175.338V179.521H163.852V175.402C163.852 174.867 163.729 174.467 163.482 174.201C163.24 173.936 162.867 173.803 162.363 173.803C161.652 173.803 161.152 174.004 160.863 174.406C160.574 174.809 160.43 175.393 160.43 176.158V179.521H159.457V173.1H160.242L160.389 174.025H160.441C160.578 173.799 160.752 173.609 160.963 173.457C161.174 173.301 161.41 173.184 161.672 173.105C161.934 173.023 162.209 172.982 162.498 172.982ZM169.102 179.639C168.289 179.639 167.645 179.361 167.168 178.807C166.695 178.252 166.459 177.428 166.459 176.334C166.459 175.229 166.701 174.395 167.186 173.832C167.67 173.266 168.314 172.982 169.119 172.982C169.459 172.982 169.756 173.027 170.01 173.117C170.264 173.207 170.482 173.328 170.666 173.48C170.85 173.629 171.004 173.799 171.129 173.99H171.199C171.184 173.869 171.168 173.703 171.152 173.492C171.137 173.281 171.129 173.109 171.129 172.977V170.404H172.102V179.521H171.316L171.17 178.607H171.129C171.008 178.799 170.854 178.973 170.666 179.129C170.482 179.285 170.262 179.41 170.004 179.504C169.75 179.594 169.449 179.639 169.102 179.639ZM169.254 178.83C169.941 178.83 170.428 178.635 170.713 178.244C170.998 177.854 171.141 177.273 171.141 176.504V176.328C171.141 175.512 171.004 174.885 170.73 174.447C170.461 174.01 169.969 173.791 169.254 173.791C168.656 173.791 168.209 174.021 167.912 174.482C167.615 174.939 167.467 175.564 167.467 176.357C167.467 177.146 167.613 177.756 167.906 178.186C168.203 178.615 168.652 178.83 169.254 178.83ZM179.355 178.842C179.516 178.842 179.68 178.828 179.848 178.801C180.016 178.773 180.152 178.74 180.258 178.701V179.457C180.145 179.508 179.986 179.551 179.783 179.586C179.584 179.621 179.389 179.639 179.197 179.639C178.857 179.639 178.549 179.58 178.271 179.463C177.994 179.342 177.771 179.139 177.604 178.854C177.439 178.568 177.357 178.174 177.357 177.67V173.861H176.443V173.387L177.363 173.006L177.75 171.611H178.336V173.1H180.217V173.861H178.336V177.641C178.336 178.043 178.428 178.344 178.611 178.543C178.799 178.742 179.047 178.842 179.355 178.842ZM182.531 170.404V173.129C182.531 173.285 182.527 173.443 182.52 173.604C182.512 173.76 182.498 173.904 182.479 174.037H182.543C182.676 173.811 182.844 173.621 183.047 173.469C183.254 173.312 183.488 173.195 183.75 173.117C184.012 173.035 184.289 172.994 184.582 172.994C185.098 172.994 185.527 173.076 185.871 173.24C186.219 173.404 186.479 173.658 186.65 174.002C186.826 174.346 186.914 174.791 186.914 175.338V179.521H185.953V175.402C185.953 174.867 185.83 174.467 185.584 174.201C185.342 173.936 184.969 173.803 184.465 173.803C183.988 173.803 183.607 173.895 183.322 174.078C183.041 174.258 182.838 174.523 182.713 174.875C182.592 175.227 182.531 175.656 182.531 176.164V179.521H181.559V170.404H182.531ZM191.391 172.982C191.938 172.982 192.406 173.104 192.797 173.346C193.188 173.588 193.486 173.928 193.693 174.365C193.9 174.799 194.004 175.307 194.004 175.889V176.492H189.568C189.58 177.246 189.768 177.82 190.131 178.215C190.494 178.609 191.006 178.807 191.666 178.807C192.072 178.807 192.432 178.77 192.744 178.695C193.057 178.621 193.381 178.512 193.717 178.367V179.223C193.393 179.367 193.07 179.473 192.75 179.539C192.434 179.605 192.059 179.639 191.625 179.639C191.008 179.639 190.469 179.514 190.008 179.264C189.551 179.01 189.195 178.639 188.941 178.15C188.688 177.662 188.561 177.064 188.561 176.357C188.561 175.666 188.676 175.068 188.906 174.564C189.141 174.057 189.469 173.666 189.891 173.393C190.316 173.119 190.816 172.982 191.391 172.982ZM191.379 173.779C190.859 173.779 190.445 173.949 190.137 174.289C189.828 174.629 189.645 175.104 189.586 175.713H192.984C192.98 175.33 192.92 174.994 192.803 174.705C192.689 174.412 192.516 174.186 192.281 174.025C192.047 173.861 191.746 173.779 191.379 173.779ZM198.697 172.982C199.459 172.982 200.035 173.17 200.426 173.545C200.816 173.916 201.012 174.514 201.012 175.338V179.521H200.051V175.402C200.051 174.867 199.928 174.467 199.682 174.201C199.439 173.936 199.066 173.803 198.562 173.803C197.852 173.803 197.352 174.004 197.062 174.406C196.773 174.809 196.629 175.393 196.629 176.158V179.521H195.656V173.1H196.441L196.588 174.025H196.641C196.777 173.799 196.951 173.609 197.162 173.457C197.373 173.301 197.609 173.184 197.871 173.105C198.133 173.023 198.408 172.982 198.697 172.982ZM209.051 172.982C209.18 172.982 209.314 172.99 209.455 173.006C209.596 173.018 209.721 173.035 209.83 173.059L209.707 173.961C209.602 173.934 209.484 173.912 209.355 173.896C209.227 173.881 209.105 173.873 208.992 173.873C208.734 173.873 208.49 173.926 208.26 174.031C208.033 174.133 207.834 174.281 207.662 174.477C207.49 174.668 207.355 174.9 207.258 175.174C207.16 175.443 207.111 175.744 207.111 176.076V179.521H206.133V173.1H206.941L207.047 174.283H207.088C207.221 174.045 207.381 173.828 207.568 173.633C207.756 173.434 207.973 173.275 208.219 173.158C208.469 173.041 208.746 172.982 209.051 172.982ZM213.516 172.982C214.062 172.982 214.531 173.104 214.922 173.346C215.312 173.588 215.611 173.928 215.818 174.365C216.025 174.799 216.129 175.307 216.129 175.889V176.492H211.693C211.705 177.246 211.893 177.82 212.256 178.215C212.619 178.609 213.131 178.807 213.791 178.807C214.197 178.807 214.557 178.77 214.869 178.695C215.182 178.621 215.506 178.512 215.842 178.367V179.223C215.518 179.367 215.195 179.473 214.875 179.539C214.559 179.605 214.184 179.639 213.75 179.639C213.133 179.639 212.594 179.514 212.133 179.264C211.676 179.01 211.32 178.639 211.066 178.15C210.812 177.662 210.686 177.064 210.686 176.357C210.686 175.666 210.801 175.068 211.031 174.564C211.266 174.057 211.594 173.666 212.016 173.393C212.441 173.119 212.941 172.982 213.516 172.982ZM213.504 173.779C212.984 173.779 212.57 173.949 212.262 174.289C211.953 174.629 211.77 175.104 211.711 175.713H215.109C215.105 175.33 215.045 174.994 214.928 174.705C214.814 174.412 214.641 174.186 214.406 174.025C214.172 173.861 213.871 173.779 213.504 173.779ZM220.354 179.639C219.775 179.639 219.266 179.52 218.824 179.281C218.383 179.043 218.039 178.68 217.793 178.191C217.547 177.703 217.424 177.088 217.424 176.346C217.424 175.568 217.553 174.934 217.811 174.441C218.072 173.945 218.432 173.578 218.889 173.34C219.346 173.102 219.865 172.982 220.447 172.982C220.768 172.982 221.076 173.016 221.373 173.082C221.674 173.145 221.92 173.225 222.111 173.322L221.818 174.137C221.623 174.059 221.396 173.988 221.139 173.926C220.885 173.863 220.646 173.832 220.424 173.832C219.979 173.832 219.607 173.928 219.311 174.119C219.018 174.311 218.797 174.592 218.648 174.963C218.504 175.334 218.432 175.791 218.432 176.334C218.432 176.854 218.502 177.297 218.643 177.664C218.787 178.031 219 178.312 219.281 178.508C219.566 178.699 219.922 178.795 220.348 178.795C220.688 178.795 220.994 178.76 221.268 178.689C221.541 178.615 221.789 178.529 222.012 178.432V179.299C221.797 179.408 221.557 179.492 221.291 179.551C221.029 179.609 220.717 179.639 220.354 179.639ZM226.008 172.982C226.555 172.982 227.023 173.104 227.414 173.346C227.805 173.588 228.104 173.928 228.311 174.365C228.518 174.799 228.621 175.307 228.621 175.889V176.492H224.186C224.197 177.246 224.385 177.82 224.748 178.215C225.111 178.609 225.623 178.807 226.283 178.807C226.689 178.807 227.049 178.77 227.361 178.695C227.674 178.621 227.998 178.512 228.334 178.367V179.223C228.01 179.367 227.688 179.473 227.367 179.539C227.051 179.605 226.676 179.639 226.242 179.639C225.625 179.639 225.086 179.514 224.625 179.264C224.168 179.01 223.812 178.639 223.559 178.15C223.305 177.662 223.178 177.064 223.178 176.357C223.178 175.666 223.293 175.068 223.523 174.564C223.758 174.057 224.086 173.666 224.508 173.393C224.934 173.119 225.434 172.982 226.008 172.982ZM225.996 173.779C225.477 173.779 225.062 173.949 224.754 174.289C224.445 174.629 224.262 175.104 224.203 175.713H227.602C227.598 175.33 227.537 174.994 227.42 174.705C227.307 174.412 227.133 174.186 226.898 174.025C226.664 173.861 226.363 173.779 225.996 173.779ZM231.246 173.1V179.521H230.273V173.1H231.246ZM230.771 170.697C230.932 170.697 231.068 170.75 231.182 170.855C231.299 170.957 231.357 171.117 231.357 171.336C231.357 171.551 231.299 171.711 231.182 171.816C231.068 171.922 230.932 171.975 230.771 171.975C230.604 171.975 230.463 171.922 230.35 171.816C230.24 171.711 230.186 171.551 230.186 171.336C230.186 171.117 230.24 170.957 230.35 170.855C230.463 170.75 230.604 170.697 230.771 170.697ZM234.721 179.521L232.283 173.1H233.326L234.738 176.984C234.836 177.25 234.936 177.543 235.037 177.863C235.139 178.184 235.209 178.441 235.248 178.637H235.289C235.336 178.441 235.414 178.184 235.523 177.863C235.633 177.539 235.732 177.246 235.822 176.984L237.234 173.1H238.277L235.834 179.521H234.721ZM240.281 173.1V179.521H239.309V173.1H240.281ZM239.807 170.697C239.967 170.697 240.104 170.75 240.217 170.855C240.334 170.957 240.393 171.117 240.393 171.336C240.393 171.551 240.334 171.711 240.217 171.816C240.104 171.922 239.967 171.975 239.807 171.975C239.639 171.975 239.498 171.922 239.385 171.816C239.275 171.711 239.221 171.551 239.221 171.336C239.221 171.117 239.275 170.957 239.385 170.855C239.498 170.75 239.639 170.697 239.807 170.697ZM245.385 172.982C246.146 172.982 246.723 173.17 247.113 173.545C247.504 173.916 247.699 174.514 247.699 175.338V179.521H246.738V175.402C246.738 174.867 246.615 174.467 246.369 174.201C246.127 173.936 245.754 173.803 245.25 173.803C244.539 173.803 244.039 174.004 243.75 174.406C243.461 174.809 243.316 175.393 243.316 176.158V179.521H242.344V173.1H243.129L243.275 174.025H243.328C243.465 173.799 243.639 173.609 243.85 173.457C244.061 173.301 244.297 173.184 244.559 173.105C244.82 173.023 245.096 172.982 245.385 172.982ZM251.496 182.404C250.652 182.404 250.002 182.246 249.545 181.93C249.088 181.617 248.859 181.178 248.859 180.611C248.859 180.209 248.986 179.865 249.24 179.58C249.498 179.295 249.854 179.105 250.307 179.012C250.139 178.934 249.994 178.816 249.873 178.66C249.756 178.504 249.697 178.324 249.697 178.121C249.697 177.887 249.762 177.682 249.891 177.506C250.023 177.326 250.225 177.154 250.494 176.99C250.158 176.854 249.885 176.623 249.674 176.299C249.467 175.971 249.363 175.59 249.363 175.156C249.363 174.695 249.459 174.303 249.65 173.979C249.842 173.65 250.119 173.4 250.482 173.229C250.846 173.057 251.285 172.971 251.801 172.971C251.914 172.971 252.027 172.977 252.141 172.988C252.258 172.996 252.369 173.01 252.475 173.029C252.58 173.045 252.672 173.064 252.75 173.088H254.953V173.715L253.77 173.861C253.887 174.014 253.984 174.197 254.062 174.412C254.141 174.627 254.18 174.865 254.18 175.127C254.18 175.768 253.963 176.277 253.529 176.656C253.096 177.031 252.5 177.219 251.742 177.219C251.562 177.219 251.379 177.203 251.191 177.172C251 177.277 250.854 177.395 250.752 177.523C250.654 177.652 250.605 177.801 250.605 177.969C250.605 178.094 250.643 178.193 250.717 178.268C250.795 178.342 250.906 178.396 251.051 178.432C251.195 178.463 251.369 178.479 251.572 178.479H252.703C253.402 178.479 253.938 178.625 254.309 178.918C254.684 179.211 254.871 179.639 254.871 180.201C254.871 180.912 254.582 181.457 254.004 181.836C253.426 182.215 252.59 182.404 251.496 182.404ZM251.525 181.643C252.057 181.643 252.496 181.588 252.844 181.479C253.195 181.373 253.457 181.219 253.629 181.016C253.805 180.816 253.893 180.578 253.893 180.301C253.893 180.043 253.834 179.848 253.717 179.715C253.6 179.586 253.428 179.5 253.201 179.457C252.975 179.41 252.697 179.387 252.369 179.387H251.256C250.967 179.387 250.715 179.432 250.5 179.521C250.285 179.611 250.119 179.744 250.002 179.92C249.889 180.096 249.832 180.314 249.832 180.576C249.832 180.924 249.979 181.188 250.271 181.367C250.564 181.551 250.982 181.643 251.525 181.643ZM251.777 176.51C252.242 176.51 252.592 176.393 252.826 176.158C253.061 175.924 253.178 175.582 253.178 175.133C253.178 174.652 253.059 174.293 252.82 174.055C252.582 173.812 252.23 173.691 251.766 173.691C251.32 173.691 250.977 173.816 250.734 174.066C250.496 174.312 250.377 174.674 250.377 175.15C250.377 175.588 250.498 175.924 250.74 176.158C250.982 176.393 251.328 176.51 251.777 176.51ZM261.738 172.994C262.504 172.994 263.072 173.166 263.443 173.51C263.814 173.854 264 174.402 264 175.156V179.521H263.291L263.104 178.572H263.057C262.877 178.807 262.689 179.004 262.494 179.164C262.299 179.32 262.072 179.439 261.814 179.521C261.561 179.6 261.248 179.639 260.877 179.639C260.486 179.639 260.139 179.57 259.834 179.434C259.533 179.297 259.295 179.09 259.119 178.812C258.947 178.535 258.861 178.184 258.861 177.758C258.861 177.117 259.115 176.625 259.623 176.281C260.131 175.938 260.904 175.75 261.943 175.719L263.051 175.672V175.279C263.051 174.725 262.932 174.336 262.693 174.113C262.455 173.891 262.119 173.779 261.686 173.779C261.35 173.779 261.029 173.828 260.725 173.926C260.42 174.023 260.131 174.139 259.857 174.271L259.559 173.533C259.848 173.385 260.18 173.258 260.555 173.152C260.93 173.047 261.324 172.994 261.738 172.994ZM263.039 176.357L262.061 176.398C261.26 176.43 260.695 176.561 260.367 176.791C260.039 177.021 259.875 177.348 259.875 177.77C259.875 178.137 259.986 178.408 260.209 178.584C260.432 178.76 260.727 178.848 261.094 178.848C261.664 178.848 262.131 178.689 262.494 178.373C262.857 178.057 263.039 177.582 263.039 176.949V176.357ZM271.693 179.639C271.115 179.639 270.605 179.52 270.164 179.281C269.723 179.043 269.379 178.68 269.133 178.191C268.887 177.703 268.764 177.088 268.764 176.346C268.764 175.568 268.893 174.934 269.15 174.441C269.412 173.945 269.771 173.578 270.229 173.34C270.686 173.102 271.205 172.982 271.787 172.982C272.107 172.982 272.416 173.016 272.713 173.082C273.014 173.145 273.26 173.225 273.451 173.322L273.158 174.137C272.963 174.059 272.736 173.988 272.479 173.926C272.225 173.863 271.986 173.832 271.764 173.832C271.318 173.832 270.947 173.928 270.65 174.119C270.357 174.311 270.137 174.592 269.988 174.963C269.844 175.334 269.771 175.791 269.771 176.334C269.771 176.854 269.842 177.297 269.982 177.664C270.127 178.031 270.34 178.312 270.621 178.508C270.906 178.699 271.262 178.795 271.688 178.795C272.027 178.795 272.334 178.76 272.607 178.689C272.881 178.615 273.129 178.529 273.352 178.432V179.299C273.137 179.408 272.896 179.492 272.631 179.551C272.369 179.609 272.057 179.639 271.693 179.639ZM280.178 173.1V179.521H279.381L279.24 178.619H279.188C279.055 178.842 278.883 179.029 278.672 179.182C278.461 179.334 278.223 179.447 277.957 179.521C277.695 179.6 277.416 179.639 277.119 179.639C276.611 179.639 276.186 179.557 275.842 179.393C275.498 179.229 275.238 178.975 275.062 178.631C274.891 178.287 274.805 177.846 274.805 177.307V173.1H275.789V177.236C275.789 177.771 275.91 178.172 276.152 178.438C276.395 178.699 276.764 178.83 277.26 178.83C277.736 178.83 278.115 178.74 278.396 178.561C278.682 178.381 278.887 178.117 279.012 177.77C279.137 177.418 279.199 176.988 279.199 176.48V173.1H280.178ZM286.389 177.764C286.389 178.174 286.285 178.52 286.078 178.801C285.875 179.078 285.582 179.287 285.199 179.428C284.82 179.568 284.367 179.639 283.84 179.639C283.391 179.639 283.002 179.604 282.674 179.533C282.346 179.463 282.059 179.363 281.812 179.234V178.338C282.074 178.467 282.387 178.584 282.75 178.689C283.113 178.795 283.484 178.848 283.863 178.848C284.418 178.848 284.82 178.758 285.07 178.578C285.32 178.398 285.445 178.154 285.445 177.846C285.445 177.67 285.395 177.516 285.293 177.383C285.195 177.246 285.029 177.115 284.795 176.99C284.561 176.861 284.236 176.721 283.822 176.568C283.412 176.412 283.057 176.258 282.756 176.105C282.459 175.949 282.229 175.76 282.064 175.537C281.904 175.314 281.824 175.025 281.824 174.67C281.824 174.127 282.043 173.711 282.48 173.422C282.922 173.129 283.5 172.982 284.215 172.982C284.602 172.982 284.963 173.021 285.299 173.1C285.639 173.174 285.955 173.275 286.248 173.404L285.92 174.184C285.654 174.07 285.371 173.975 285.07 173.896C284.77 173.818 284.463 173.779 284.15 173.779C283.701 173.779 283.355 173.854 283.113 174.002C282.875 174.15 282.756 174.354 282.756 174.611C282.756 174.811 282.811 174.975 282.92 175.104C283.033 175.232 283.213 175.354 283.459 175.467C283.705 175.58 284.029 175.713 284.432 175.865C284.834 176.014 285.182 176.168 285.475 176.328C285.768 176.484 285.992 176.676 286.148 176.902C286.309 177.125 286.389 177.412 286.389 177.764ZM290.027 178.842C290.188 178.842 290.352 178.828 290.52 178.801C290.688 178.773 290.824 178.74 290.93 178.701V179.457C290.816 179.508 290.658 179.551 290.455 179.586C290.256 179.621 290.061 179.639 289.869 179.639C289.529 179.639 289.221 179.58 288.943 179.463C288.666 179.342 288.443 179.139 288.275 178.854C288.111 178.568 288.029 178.174 288.029 177.67V173.861H287.115V173.387L288.035 173.006L288.422 171.611H289.008V173.1H290.889V173.861H289.008V177.641C289.008 178.043 289.1 178.344 289.283 178.543C289.471 178.742 289.719 178.842 290.027 178.842ZM297.768 176.299C297.768 176.826 297.699 177.297 297.562 177.711C297.426 178.125 297.229 178.475 296.971 178.76C296.713 179.045 296.4 179.264 296.033 179.416C295.67 179.564 295.258 179.639 294.797 179.639C294.367 179.639 293.973 179.564 293.613 179.416C293.258 179.264 292.949 179.045 292.688 178.76C292.43 178.475 292.229 178.125 292.084 177.711C291.943 177.297 291.873 176.826 291.873 176.299C291.873 175.596 291.992 174.998 292.23 174.506C292.469 174.01 292.809 173.633 293.25 173.375C293.695 173.113 294.225 172.982 294.838 172.982C295.424 172.982 295.936 173.113 296.373 173.375C296.814 173.637 297.156 174.016 297.398 174.512C297.645 175.004 297.768 175.6 297.768 176.299ZM292.881 176.299C292.881 176.814 292.949 177.262 293.086 177.641C293.223 178.02 293.434 178.312 293.719 178.52C294.004 178.727 294.371 178.83 294.82 178.83C295.266 178.83 295.631 178.727 295.916 178.52C296.205 178.312 296.418 178.02 296.555 177.641C296.691 177.262 296.76 176.814 296.76 176.299C296.76 175.787 296.691 175.346 296.555 174.975C296.418 174.6 296.207 174.311 295.922 174.107C295.637 173.904 295.268 173.803 294.814 173.803C294.146 173.803 293.656 174.023 293.344 174.465C293.035 174.906 292.881 175.518 292.881 176.299ZM306.422 172.982C307.129 172.982 307.662 173.168 308.021 173.539C308.381 173.906 308.561 174.498 308.561 175.314V179.521H307.6V175.361C307.6 174.842 307.486 174.453 307.26 174.195C307.037 173.934 306.705 173.803 306.264 173.803C305.643 173.803 305.191 173.982 304.91 174.342C304.629 174.701 304.488 175.23 304.488 175.93V179.521H303.521V175.361C303.521 175.014 303.471 174.725 303.369 174.494C303.271 174.264 303.123 174.092 302.924 173.979C302.729 173.861 302.48 173.803 302.18 173.803C301.754 173.803 301.412 173.891 301.154 174.066C300.896 174.242 300.709 174.504 300.592 174.852C300.479 175.195 300.422 175.619 300.422 176.123V179.521H299.449V173.1H300.234L300.381 174.008H300.434C300.562 173.785 300.725 173.598 300.92 173.445C301.115 173.293 301.334 173.178 301.576 173.1C301.818 173.021 302.076 172.982 302.35 172.982C302.838 172.982 303.246 173.074 303.574 173.258C303.906 173.438 304.146 173.713 304.295 174.084H304.348C304.559 173.713 304.848 173.438 305.215 173.258C305.582 173.074 305.984 172.982 306.422 172.982ZM311.531 173.1V179.521H310.559V173.1H311.531ZM311.057 170.697C311.217 170.697 311.354 170.75 311.467 170.855C311.584 170.957 311.643 171.117 311.643 171.336C311.643 171.551 311.584 171.711 311.467 171.816C311.354 171.922 311.217 171.975 311.057 171.975C310.889 171.975 310.748 171.922 310.635 171.816C310.525 171.711 310.471 171.551 310.471 171.336C310.471 171.117 310.525 170.957 310.635 170.855C310.748 170.75 310.889 170.697 311.057 170.697ZM317.719 179.521H313.037V178.877L316.559 173.861H313.26V173.1H317.643V173.82L314.168 178.766H317.719V179.521ZM321.691 172.982C322.238 172.982 322.707 173.104 323.098 173.346C323.488 173.588 323.787 173.928 323.994 174.365C324.201 174.799 324.305 175.307 324.305 175.889V176.492H319.869C319.881 177.246 320.068 177.82 320.432 178.215C320.795 178.609 321.307 178.807 321.967 178.807C322.373 178.807 322.732 178.77 323.045 178.695C323.357 178.621 323.682 178.512 324.018 178.367V179.223C323.693 179.367 323.371 179.473 323.051 179.539C322.734 179.605 322.359 179.639 321.926 179.639C321.309 179.639 320.77 179.514 320.309 179.264C319.852 179.01 319.496 178.639 319.242 178.15C318.988 177.662 318.861 177.064 318.861 176.357C318.861 175.666 318.977 175.068 319.207 174.564C319.441 174.057 319.77 173.666 320.191 173.393C320.617 173.119 321.117 172.982 321.691 172.982ZM321.68 173.779C321.16 173.779 320.746 173.949 320.438 174.289C320.129 174.629 319.945 175.104 319.887 175.713H323.285C323.281 175.33 323.221 174.994 323.104 174.705C322.99 174.412 322.816 174.186 322.582 174.025C322.348 173.861 322.047 173.779 321.68 173.779ZM328.242 179.639C327.43 179.639 326.785 179.361 326.309 178.807C325.836 178.252 325.6 177.428 325.6 176.334C325.6 175.229 325.842 174.395 326.326 173.832C326.811 173.266 327.455 172.982 328.26 172.982C328.6 172.982 328.896 173.027 329.15 173.117C329.404 173.207 329.623 173.328 329.807 173.48C329.99 173.629 330.145 173.799 330.27 173.99H330.34C330.324 173.869 330.309 173.703 330.293 173.492C330.277 173.281 330.27 173.109 330.27 172.977V170.404H331.242V179.521H330.457L330.311 178.607H330.27C330.148 178.799 329.994 178.973 329.807 179.129C329.623 179.285 329.402 179.41 329.145 179.504C328.891 179.594 328.59 179.639 328.242 179.639ZM328.395 178.83C329.082 178.83 329.568 178.635 329.854 178.244C330.139 177.854 330.281 177.273 330.281 176.504V176.328C330.281 175.512 330.145 174.885 329.871 174.447C329.602 174.01 329.109 173.791 328.395 173.791C327.797 173.791 327.35 174.021 327.053 174.482C326.756 174.939 326.607 175.564 326.607 176.357C326.607 177.146 326.754 177.756 327.047 178.186C327.344 178.615 327.793 178.83 328.395 178.83ZM340.576 177.764C340.576 178.174 340.473 178.52 340.266 178.801C340.062 179.078 339.77 179.287 339.387 179.428C339.008 179.568 338.555 179.639 338.027 179.639C337.578 179.639 337.189 179.604 336.861 179.533C336.533 179.463 336.246 179.363 336 179.234V178.338C336.262 178.467 336.574 178.584 336.938 178.689C337.301 178.795 337.672 178.848 338.051 178.848C338.605 178.848 339.008 178.758 339.258 178.578C339.508 178.398 339.633 178.154 339.633 177.846C339.633 177.67 339.582 177.516 339.48 177.383C339.383 177.246 339.217 177.115 338.982 176.99C338.748 176.861 338.424 176.721 338.01 176.568C337.6 176.412 337.244 176.258 336.943 176.105C336.646 175.949 336.416 175.76 336.252 175.537C336.092 175.314 336.012 175.025 336.012 174.67C336.012 174.127 336.23 173.711 336.668 173.422C337.109 173.129 337.688 172.982 338.402 172.982C338.789 172.982 339.15 173.021 339.486 173.1C339.826 173.174 340.143 173.275 340.436 173.404L340.107 174.184C339.842 174.07 339.559 173.975 339.258 173.896C338.957 173.818 338.65 173.779 338.338 173.779C337.889 173.779 337.543 173.854 337.301 174.002C337.062 174.15 336.943 174.354 336.943 174.611C336.943 174.811 336.998 174.975 337.107 175.104C337.221 175.232 337.4 175.354 337.646 175.467C337.893 175.58 338.217 175.713 338.619 175.865C339.021 176.014 339.369 176.168 339.662 176.328C339.955 176.484 340.18 176.676 340.336 176.902C340.496 177.125 340.576 177.412 340.576 177.764ZM344.713 179.639C344.135 179.639 343.625 179.52 343.184 179.281C342.742 179.043 342.398 178.68 342.152 178.191C341.906 177.703 341.783 177.088 341.783 176.346C341.783 175.568 341.912 174.934 342.17 174.441C342.432 173.945 342.791 173.578 343.248 173.34C343.705 173.102 344.225 172.982 344.807 172.982C345.127 172.982 345.436 173.016 345.732 173.082C346.033 173.145 346.279 173.225 346.471 173.322L346.178 174.137C345.982 174.059 345.756 173.988 345.498 173.926C345.244 173.863 345.006 173.832 344.783 173.832C344.338 173.832 343.967 173.928 343.67 174.119C343.377 174.311 343.156 174.592 343.008 174.963C342.863 175.334 342.791 175.791 342.791 176.334C342.791 176.854 342.861 177.297 343.002 177.664C343.146 178.031 343.359 178.312 343.641 178.508C343.926 178.699 344.281 178.795 344.707 178.795C345.047 178.795 345.354 178.76 345.627 178.689C345.9 178.615 346.148 178.529 346.371 178.432V179.299C346.156 179.408 345.916 179.492 345.65 179.551C345.389 179.609 345.076 179.639 344.713 179.639ZM350.367 172.982C350.914 172.982 351.383 173.104 351.773 173.346C352.164 173.588 352.463 173.928 352.67 174.365C352.877 174.799 352.98 175.307 352.98 175.889V176.492H348.545C348.557 177.246 348.744 177.82 349.107 178.215C349.471 178.609 349.982 178.807 350.643 178.807C351.049 178.807 351.408 178.77 351.721 178.695C352.033 178.621 352.357 178.512 352.693 178.367V179.223C352.369 179.367 352.047 179.473 351.727 179.539C351.41 179.605 351.035 179.639 350.602 179.639C349.984 179.639 349.445 179.514 348.984 179.264C348.527 179.01 348.172 178.639 347.918 178.15C347.664 177.662 347.537 177.064 347.537 176.357C347.537 175.666 347.652 175.068 347.883 174.564C348.117 174.057 348.445 173.666 348.867 173.393C349.293 173.119 349.793 172.982 350.367 172.982ZM350.355 173.779C349.836 173.779 349.422 173.949 349.113 174.289C348.805 174.629 348.621 175.104 348.562 175.713H351.961C351.957 175.33 351.896 174.994 351.779 174.705C351.666 174.412 351.492 174.186 351.258 174.025C351.023 173.861 350.723 173.779 350.355 173.779ZM357.674 172.982C358.436 172.982 359.012 173.17 359.402 173.545C359.793 173.916 359.988 174.514 359.988 175.338V179.521H359.027V175.402C359.027 174.867 358.904 174.467 358.658 174.201C358.416 173.936 358.043 173.803 357.539 173.803C356.828 173.803 356.328 174.004 356.039 174.406C355.75 174.809 355.605 175.393 355.605 176.158V179.521H354.633V173.1H355.418L355.564 174.025H355.617C355.754 173.799 355.928 173.609 356.139 173.457C356.35 173.301 356.586 173.184 356.848 173.105C357.109 173.023 357.385 172.982 357.674 172.982ZM364.395 172.994C365.16 172.994 365.729 173.166 366.1 173.51C366.471 173.854 366.656 174.402 366.656 175.156V179.521H365.947L365.76 178.572H365.713C365.533 178.807 365.346 179.004 365.15 179.164C364.955 179.32 364.729 179.439 364.471 179.521C364.217 179.6 363.904 179.639 363.533 179.639C363.143 179.639 362.795 179.57 362.49 179.434C362.189 179.297 361.951 179.09 361.775 178.812C361.604 178.535 361.518 178.184 361.518 177.758C361.518 177.117 361.771 176.625 362.279 176.281C362.787 175.938 363.561 175.75 364.6 175.719L365.707 175.672V175.279C365.707 174.725 365.588 174.336 365.35 174.113C365.111 173.891 364.775 173.779 364.342 173.779C364.006 173.779 363.686 173.828 363.381 173.926C363.076 174.023 362.787 174.139 362.514 174.271L362.215 173.533C362.504 173.385 362.836 173.258 363.211 173.152C363.586 173.047 363.98 172.994 364.395 172.994ZM365.695 176.357L364.717 176.398C363.916 176.43 363.352 176.561 363.023 176.791C362.695 177.021 362.531 177.348 362.531 177.77C362.531 178.137 362.643 178.408 362.865 178.584C363.088 178.76 363.383 178.848 363.75 178.848C364.32 178.848 364.787 178.689 365.15 178.373C365.514 178.057 365.695 177.582 365.695 176.949V176.357ZM371.578 172.982C371.707 172.982 371.842 172.99 371.982 173.006C372.123 173.018 372.248 173.035 372.357 173.059L372.234 173.961C372.129 173.934 372.012 173.912 371.883 173.896C371.754 173.881 371.633 173.873 371.52 173.873C371.262 173.873 371.018 173.926 370.787 174.031C370.561 174.133 370.361 174.281 370.189 174.477C370.018 174.668 369.883 174.9 369.785 175.174C369.688 175.443 369.639 175.744 369.639 176.076V179.521H368.66V173.1H369.469L369.574 174.283H369.615C369.748 174.045 369.908 173.828 370.096 173.633C370.283 173.434 370.5 173.275 370.746 173.158C370.996 173.041 371.273 172.982 371.578 172.982ZM374.543 173.1V179.521H373.57V173.1H374.543ZM374.068 170.697C374.229 170.697 374.365 170.75 374.479 170.855C374.596 170.957 374.654 171.117 374.654 171.336C374.654 171.551 374.596 171.711 374.479 171.816C374.365 171.922 374.229 171.975 374.068 171.975C373.9 171.975 373.76 171.922 373.646 171.816C373.537 171.711 373.482 171.551 373.482 171.336C373.482 171.117 373.537 170.957 373.646 170.855C373.76 170.75 373.9 170.697 374.068 170.697ZM382.143 176.299C382.143 176.826 382.074 177.297 381.938 177.711C381.801 178.125 381.604 178.475 381.346 178.76C381.088 179.045 380.775 179.264 380.408 179.416C380.045 179.564 379.633 179.639 379.172 179.639C378.742 179.639 378.348 179.564 377.988 179.416C377.633 179.264 377.324 179.045 377.062 178.76C376.805 178.475 376.604 178.125 376.459 177.711C376.318 177.297 376.248 176.826 376.248 176.299C376.248 175.596 376.367 174.998 376.605 174.506C376.844 174.01 377.184 173.633 377.625 173.375C378.07 173.113 378.6 172.982 379.213 172.982C379.799 172.982 380.311 173.113 380.748 173.375C381.189 173.637 381.531 174.016 381.773 174.512C382.02 175.004 382.143 175.6 382.143 176.299ZM377.256 176.299C377.256 176.814 377.324 177.262 377.461 177.641C377.598 178.02 377.809 178.312 378.094 178.52C378.379 178.727 378.746 178.83 379.195 178.83C379.641 178.83 380.006 178.727 380.291 178.52C380.58 178.312 380.793 178.02 380.93 177.641C381.066 177.262 381.135 176.814 381.135 176.299C381.135 175.787 381.066 175.346 380.93 174.975C380.793 174.6 380.582 174.311 380.297 174.107C380.012 173.904 379.643 173.803 379.189 173.803C378.521 173.803 378.031 174.023 377.719 174.465C377.41 174.906 377.256 175.518 377.256 176.299ZM107.379 188.994C108.145 188.994 108.713 189.166 109.084 189.51C109.455 189.854 109.641 190.402 109.641 191.156V195.521H108.932L108.744 194.572H108.697C108.518 194.807 108.33 195.004 108.135 195.164C107.939 195.32 107.713 195.439 107.455 195.521C107.201 195.6 106.889 195.639 106.518 195.639C106.127 195.639 105.779 195.57 105.475 195.434C105.174 195.297 104.936 195.09 104.76 194.812C104.588 194.535 104.502 194.184 104.502 193.758C104.502 193.117 104.756 192.625 105.264 192.281C105.771 191.938 106.545 191.75 107.584 191.719L108.691 191.672V191.279C108.691 190.725 108.572 190.336 108.334 190.113C108.096 189.891 107.76 189.779 107.326 189.779C106.99 189.779 106.67 189.828 106.365 189.926C106.061 190.023 105.771 190.139 105.498 190.271L105.199 189.533C105.488 189.385 105.82 189.258 106.195 189.152C106.57 189.047 106.965 188.994 107.379 188.994ZM108.68 192.357L107.701 192.398C106.9 192.43 106.336 192.561 106.008 192.791C105.68 193.021 105.516 193.348 105.516 193.77C105.516 194.137 105.627 194.408 105.85 194.584C106.072 194.76 106.367 194.848 106.734 194.848C107.305 194.848 107.771 194.689 108.135 194.373C108.498 194.057 108.68 193.582 108.68 192.949V192.357ZM114.686 188.982C115.447 188.982 116.023 189.17 116.414 189.545C116.805 189.916 117 190.514 117 191.338V195.521H116.039V191.402C116.039 190.867 115.916 190.467 115.67 190.201C115.428 189.936 115.055 189.803 114.551 189.803C113.84 189.803 113.34 190.004 113.051 190.406C112.762 190.809 112.617 191.393 112.617 192.158V195.521H111.645V189.1H112.43L112.576 190.025H112.629C112.766 189.799 112.939 189.609 113.15 189.457C113.361 189.301 113.598 189.184 113.859 189.105C114.121 189.023 114.396 188.982 114.686 188.982ZM121.289 195.639C120.477 195.639 119.832 195.361 119.355 194.807C118.883 194.252 118.646 193.428 118.646 192.334C118.646 191.229 118.889 190.395 119.373 189.832C119.857 189.266 120.502 188.982 121.307 188.982C121.646 188.982 121.943 189.027 122.197 189.117C122.451 189.207 122.67 189.328 122.854 189.48C123.037 189.629 123.191 189.799 123.316 189.99H123.387C123.371 189.869 123.355 189.703 123.34 189.492C123.324 189.281 123.316 189.109 123.316 188.977V186.404H124.289V195.521H123.504L123.357 194.607H123.316C123.195 194.799 123.041 194.973 122.854 195.129C122.67 195.285 122.449 195.41 122.191 195.504C121.938 195.594 121.637 195.639 121.289 195.639ZM121.441 194.83C122.129 194.83 122.615 194.635 122.9 194.244C123.186 193.854 123.328 193.273 123.328 192.504V192.328C123.328 191.512 123.191 190.885 122.918 190.447C122.648 190.01 122.156 189.791 121.441 189.791C120.844 189.791 120.396 190.021 120.1 190.482C119.803 190.939 119.654 191.564 119.654 192.357C119.654 193.146 119.801 193.756 120.094 194.186C120.391 194.615 120.84 194.83 121.441 194.83ZM131.543 194.842C131.703 194.842 131.867 194.828 132.035 194.801C132.203 194.773 132.34 194.74 132.445 194.701V195.457C132.332 195.508 132.174 195.551 131.971 195.586C131.771 195.621 131.576 195.639 131.385 195.639C131.045 195.639 130.736 195.58 130.459 195.463C130.182 195.342 129.959 195.139 129.791 194.854C129.627 194.568 129.545 194.174 129.545 193.67V189.861H128.631V189.387L129.551 189.006L129.938 187.611H130.523V189.1H132.404V189.861H130.523V193.641C130.523 194.043 130.615 194.344 130.799 194.543C130.986 194.742 131.234 194.842 131.543 194.842ZM136.148 188.994C136.914 188.994 137.482 189.166 137.854 189.51C138.225 189.854 138.41 190.402 138.41 191.156V195.521H137.701L137.514 194.572H137.467C137.287 194.807 137.1 195.004 136.904 195.164C136.709 195.32 136.482 195.439 136.225 195.521C135.971 195.6 135.658 195.639 135.287 195.639C134.896 195.639 134.549 195.57 134.244 195.434C133.943 195.297 133.705 195.09 133.529 194.812C133.357 194.535 133.271 194.184 133.271 193.758C133.271 193.117 133.525 192.625 134.033 192.281C134.541 191.938 135.314 191.75 136.354 191.719L137.461 191.672V191.279C137.461 190.725 137.342 190.336 137.104 190.113C136.865 189.891 136.529 189.779 136.096 189.779C135.76 189.779 135.439 189.828 135.135 189.926C134.83 190.023 134.541 190.139 134.268 190.271L133.969 189.533C134.258 189.385 134.59 189.258 134.965 189.152C135.34 189.047 135.734 188.994 136.148 188.994ZM137.449 192.357L136.471 192.398C135.67 192.43 135.105 192.561 134.777 192.791C134.449 193.021 134.285 193.348 134.285 193.77C134.285 194.137 134.396 194.408 134.619 194.584C134.842 194.76 135.137 194.848 135.504 194.848C136.074 194.848 136.541 194.689 136.904 194.373C137.268 194.057 137.449 193.582 137.449 192.949V192.357ZM144.568 193.764C144.568 194.174 144.465 194.52 144.258 194.801C144.055 195.078 143.762 195.287 143.379 195.428C143 195.568 142.547 195.639 142.02 195.639C141.57 195.639 141.182 195.604 140.854 195.533C140.525 195.463 140.238 195.363 139.992 195.234V194.338C140.254 194.467 140.566 194.584 140.93 194.689C141.293 194.795 141.664 194.848 142.043 194.848C142.598 194.848 143 194.758 143.25 194.578C143.5 194.398 143.625 194.154 143.625 193.846C143.625 193.67 143.574 193.516 143.473 193.383C143.375 193.246 143.209 193.115 142.975 192.99C142.74 192.861 142.416 192.721 142.002 192.568C141.592 192.412 141.236 192.258 140.936 192.105C140.639 191.949 140.408 191.76 140.244 191.537C140.084 191.314 140.004 191.025 140.004 190.67C140.004 190.127 140.223 189.711 140.66 189.422C141.102 189.129 141.68 188.982 142.395 188.982C142.781 188.982 143.143 189.021 143.479 189.1C143.818 189.174 144.135 189.275 144.428 189.404L144.1 190.184C143.834 190.07 143.551 189.975 143.25 189.896C142.949 189.818 142.643 189.779 142.33 189.779C141.881 189.779 141.535 189.854 141.293 190.002C141.055 190.15 140.936 190.354 140.936 190.611C140.936 190.811 140.99 190.975 141.1 191.104C141.213 191.232 141.393 191.354 141.639 191.467C141.885 191.58 142.209 191.713 142.611 191.865C143.014 192.014 143.361 192.168 143.654 192.328C143.947 192.484 144.172 192.676 144.328 192.902C144.488 193.125 144.568 193.412 144.568 193.764ZM147.1 186.404V191.139C147.1 191.295 147.094 191.486 147.082 191.713C147.07 191.936 147.061 192.133 147.053 192.305H147.094C147.176 192.203 147.295 192.053 147.451 191.854C147.611 191.654 147.746 191.494 147.855 191.373L149.988 189.1H151.131L148.547 191.842L151.318 195.521H150.146L147.879 192.48L147.1 193.195V195.521H146.133V186.404H147.1ZM156.533 195.521H155.555V186.404H156.533V195.521ZM159.562 189.1V195.521H158.59V189.1H159.562ZM159.088 186.697C159.248 186.697 159.385 186.75 159.498 186.855C159.615 186.957 159.674 187.117 159.674 187.336C159.674 187.551 159.615 187.711 159.498 187.816C159.385 187.922 159.248 187.975 159.088 187.975C158.92 187.975 158.779 187.922 158.666 187.816C158.557 187.711 158.502 187.551 158.502 187.336C158.502 187.117 158.557 186.957 158.666 186.855C158.779 186.75 158.92 186.697 159.088 186.697ZM165.779 193.764C165.779 194.174 165.676 194.52 165.469 194.801C165.266 195.078 164.973 195.287 164.59 195.428C164.211 195.568 163.758 195.639 163.23 195.639C162.781 195.639 162.393 195.604 162.064 195.533C161.736 195.463 161.449 195.363 161.203 195.234V194.338C161.465 194.467 161.777 194.584 162.141 194.689C162.504 194.795 162.875 194.848 163.254 194.848C163.809 194.848 164.211 194.758 164.461 194.578C164.711 194.398 164.836 194.154 164.836 193.846C164.836 193.67 164.785 193.516 164.684 193.383C164.586 193.246 164.42 193.115 164.186 192.99C163.951 192.861 163.627 192.721 163.213 192.568C162.803 192.412 162.447 192.258 162.146 192.105C161.85 191.949 161.619 191.76 161.455 191.537C161.295 191.314 161.215 191.025 161.215 190.67C161.215 190.127 161.434 189.711 161.871 189.422C162.312 189.129 162.891 188.982 163.605 188.982C163.992 188.982 164.354 189.021 164.689 189.1C165.029 189.174 165.346 189.275 165.639 189.404L165.311 190.184C165.045 190.07 164.762 189.975 164.461 189.896C164.16 189.818 163.854 189.779 163.541 189.779C163.092 189.779 162.746 189.854 162.504 190.002C162.266 190.15 162.146 190.354 162.146 190.611C162.146 190.811 162.201 190.975 162.311 191.104C162.424 191.232 162.604 191.354 162.85 191.467C163.096 191.58 163.42 191.713 163.822 191.865C164.225 192.014 164.572 192.168 164.865 192.328C165.158 192.484 165.383 192.676 165.539 192.902C165.699 193.125 165.779 193.412 165.779 193.764ZM169.418 194.842C169.578 194.842 169.742 194.828 169.91 194.801C170.078 194.773 170.215 194.74 170.32 194.701V195.457C170.207 195.508 170.049 195.551 169.846 195.586C169.646 195.621 169.451 195.639 169.26 195.639C168.92 195.639 168.611 195.58 168.334 195.463C168.057 195.342 167.834 195.139 167.666 194.854C167.502 194.568 167.42 194.174 167.42 193.67V189.861H166.506V189.387L167.426 189.006L167.812 187.611H168.398V189.1H170.279V189.861H168.398V193.641C168.398 194.043 168.49 194.344 168.674 194.543C168.861 194.742 169.109 194.842 169.418 194.842ZM177.311 195.639C176.732 195.639 176.223 195.52 175.781 195.281C175.34 195.043 174.996 194.68 174.75 194.191C174.504 193.703 174.381 193.088 174.381 192.346C174.381 191.568 174.51 190.934 174.768 190.441C175.029 189.945 175.389 189.578 175.846 189.34C176.303 189.102 176.822 188.982 177.404 188.982C177.725 188.982 178.033 189.016 178.33 189.082C178.631 189.145 178.877 189.225 179.068 189.322L178.775 190.137C178.58 190.059 178.354 189.988 178.096 189.926C177.842 189.863 177.604 189.832 177.381 189.832C176.936 189.832 176.564 189.928 176.268 190.119C175.975 190.311 175.754 190.592 175.605 190.963C175.461 191.334 175.389 191.791 175.389 192.334C175.389 192.854 175.459 193.297 175.6 193.664C175.744 194.031 175.957 194.312 176.238 194.508C176.523 194.699 176.879 194.795 177.305 194.795C177.645 194.795 177.951 194.76 178.225 194.689C178.498 194.615 178.746 194.529 178.969 194.432V195.299C178.754 195.408 178.514 195.492 178.248 195.551C177.986 195.609 177.674 195.639 177.311 195.639ZM182.895 188.994C183.66 188.994 184.229 189.166 184.6 189.51C184.971 189.854 185.156 190.402 185.156 191.156V195.521H184.447L184.26 194.572H184.213C184.033 194.807 183.846 195.004 183.65 195.164C183.455 195.32 183.229 195.439 182.971 195.521C182.717 195.6 182.404 195.639 182.033 195.639C181.643 195.639 181.295 195.57 180.99 195.434C180.689 195.297 180.451 195.09 180.275 194.812C180.104 194.535 180.018 194.184 180.018 193.758C180.018 193.117 180.271 192.625 180.779 192.281C181.287 191.938 182.061 191.75 183.1 191.719L184.207 191.672V191.279C184.207 190.725 184.088 190.336 183.85 190.113C183.611 189.891 183.275 189.779 182.842 189.779C182.506 189.779 182.186 189.828 181.881 189.926C181.576 190.023 181.287 190.139 181.014 190.271L180.715 189.533C181.004 189.385 181.336 189.258 181.711 189.152C182.086 189.047 182.48 188.994 182.895 188.994ZM184.195 192.357L183.217 192.398C182.416 192.43 181.852 192.561 181.523 192.791C181.195 193.021 181.031 193.348 181.031 193.77C181.031 194.137 181.143 194.408 181.365 194.584C181.588 194.76 181.883 194.848 182.25 194.848C182.82 194.848 183.287 194.689 183.65 194.373C184.014 194.057 184.195 193.582 184.195 192.949V192.357ZM189.234 194.842C189.395 194.842 189.559 194.828 189.727 194.801C189.895 194.773 190.031 194.74 190.137 194.701V195.457C190.023 195.508 189.865 195.551 189.662 195.586C189.463 195.621 189.268 195.639 189.076 195.639C188.736 195.639 188.428 195.58 188.15 195.463C187.873 195.342 187.65 195.139 187.482 194.854C187.318 194.568 187.236 194.174 187.236 193.67V189.861H186.322V189.387L187.242 189.006L187.629 187.611H188.215V189.1H190.096V189.861H188.215V193.641C188.215 194.043 188.307 194.344 188.49 194.543C188.678 194.742 188.926 194.842 189.234 194.842ZM193.91 188.982C194.457 188.982 194.926 189.104 195.316 189.346C195.707 189.588 196.006 189.928 196.213 190.365C196.42 190.799 196.523 191.307 196.523 191.889V192.492H192.088C192.1 193.246 192.287 193.82 192.65 194.215C193.014 194.609 193.525 194.807 194.186 194.807C194.592 194.807 194.951 194.77 195.264 194.695C195.576 194.621 195.9 194.512 196.236 194.367V195.223C195.912 195.367 195.59 195.473 195.27 195.539C194.953 195.605 194.578 195.639 194.145 195.639C193.527 195.639 192.988 195.514 192.527 195.264C192.07 195.01 191.715 194.639 191.461 194.15C191.207 193.662 191.08 193.064 191.08 192.357C191.08 191.666 191.195 191.068 191.426 190.564C191.66 190.057 191.988 189.666 192.41 189.393C192.836 189.119 193.336 188.982 193.91 188.982ZM193.898 189.779C193.379 189.779 192.965 189.949 192.656 190.289C192.348 190.629 192.164 191.104 192.105 191.713H195.504C195.5 191.33 195.439 190.994 195.322 190.705C195.209 190.412 195.035 190.186 194.801 190.025C194.566 189.861 194.266 189.779 193.898 189.779ZM201.094 188.982C201.223 188.982 201.357 188.99 201.498 189.006C201.639 189.018 201.764 189.035 201.873 189.059L201.75 189.961C201.645 189.934 201.527 189.912 201.398 189.896C201.27 189.881 201.148 189.873 201.035 189.873C200.777 189.873 200.533 189.926 200.303 190.031C200.076 190.133 199.877 190.281 199.705 190.477C199.533 190.668 199.398 190.9 199.301 191.174C199.203 191.443 199.154 191.744 199.154 192.076V195.521H198.176V189.1H198.984L199.09 190.283H199.131C199.264 190.045 199.424 189.828 199.611 189.633C199.799 189.434 200.016 189.275 200.262 189.158C200.512 189.041 200.789 188.982 201.094 188.982ZM205.559 188.982C206.105 188.982 206.574 189.104 206.965 189.346C207.355 189.588 207.654 189.928 207.861 190.365C208.068 190.799 208.172 191.307 208.172 191.889V192.492H203.736C203.748 193.246 203.936 193.82 204.299 194.215C204.662 194.609 205.174 194.807 205.834 194.807C206.24 194.807 206.6 194.77 206.912 194.695C207.225 194.621 207.549 194.512 207.885 194.367V195.223C207.561 195.367 207.238 195.473 206.918 195.539C206.602 195.605 206.227 195.639 205.793 195.639C205.176 195.639 204.637 195.514 204.176 195.264C203.719 195.01 203.363 194.639 203.109 194.15C202.855 193.662 202.729 193.064 202.729 192.357C202.729 191.666 202.844 191.068 203.074 190.564C203.309 190.057 203.637 189.666 204.059 189.393C204.484 189.119 204.984 188.982 205.559 188.982ZM205.547 189.779C205.027 189.779 204.613 189.949 204.305 190.289C203.996 190.629 203.812 191.104 203.754 191.713H207.152C207.148 191.33 207.088 190.994 206.971 190.705C206.857 190.412 206.684 190.186 206.449 190.025C206.215 189.861 205.914 189.779 205.547 189.779ZM212.109 195.639C211.297 195.639 210.652 195.361 210.176 194.807C209.703 194.252 209.467 193.428 209.467 192.334C209.467 191.229 209.709 190.395 210.193 189.832C210.678 189.266 211.322 188.982 212.127 188.982C212.467 188.982 212.764 189.027 213.018 189.117C213.271 189.207 213.49 189.328 213.674 189.48C213.857 189.629 214.012 189.799 214.137 189.99H214.207C214.191 189.869 214.176 189.703 214.16 189.492C214.145 189.281 214.137 189.109 214.137 188.977V186.404H215.109V195.521H214.324L214.178 194.607H214.137C214.016 194.799 213.861 194.973 213.674 195.129C213.49 195.285 213.27 195.41 213.012 195.504C212.758 195.594 212.457 195.639 212.109 195.639ZM212.262 194.83C212.949 194.83 213.436 194.635 213.721 194.244C214.006 193.854 214.148 193.273 214.148 192.504V192.328C214.148 191.512 214.012 190.885 213.738 190.447C213.469 190.01 212.977 189.791 212.262 189.791C211.664 189.791 211.217 190.021 210.92 190.482C210.623 190.939 210.475 191.564 210.475 192.357C210.475 193.146 210.621 193.756 210.914 194.186C211.211 194.615 211.66 194.83 212.262 194.83ZM222.363 194.842C222.523 194.842 222.688 194.828 222.855 194.801C223.023 194.773 223.16 194.74 223.266 194.701V195.457C223.152 195.508 222.994 195.551 222.791 195.586C222.592 195.621 222.396 195.639 222.205 195.639C221.865 195.639 221.557 195.58 221.279 195.463C221.002 195.342 220.779 195.139 220.611 194.854C220.447 194.568 220.365 194.174 220.365 193.67V189.861H219.451V189.387L220.371 189.006L220.758 187.611H221.344V189.1H223.225V189.861H221.344V193.641C221.344 194.043 221.436 194.344 221.619 194.543C221.807 194.742 222.055 194.842 222.363 194.842ZM230.104 192.299C230.104 192.826 230.035 193.297 229.898 193.711C229.762 194.125 229.564 194.475 229.307 194.76C229.049 195.045 228.736 195.264 228.369 195.416C228.006 195.564 227.594 195.639 227.133 195.639C226.703 195.639 226.309 195.564 225.949 195.416C225.594 195.264 225.285 195.045 225.023 194.76C224.766 194.475 224.564 194.125 224.42 193.711C224.279 193.297 224.209 192.826 224.209 192.299C224.209 191.596 224.328 190.998 224.566 190.506C224.805 190.01 225.145 189.633 225.586 189.375C226.031 189.113 226.561 188.982 227.174 188.982C227.76 188.982 228.271 189.113 228.709 189.375C229.15 189.637 229.492 190.016 229.734 190.512C229.98 191.004 230.104 191.6 230.104 192.299ZM225.217 192.299C225.217 192.814 225.285 193.262 225.422 193.641C225.559 194.02 225.77 194.312 226.055 194.52C226.34 194.727 226.707 194.83 227.156 194.83C227.602 194.83 227.967 194.727 228.252 194.52C228.541 194.312 228.754 194.02 228.891 193.641C229.027 193.262 229.096 192.814 229.096 192.299C229.096 191.787 229.027 191.346 228.891 190.975C228.754 190.6 228.543 190.311 228.258 190.107C227.973 189.904 227.604 189.803 227.15 189.803C226.482 189.803 225.992 190.023 225.68 190.465C225.371 190.906 225.217 191.518 225.217 192.299ZM233.889 189.1H234.932L236.35 192.826C236.432 193.045 236.508 193.256 236.578 193.459C236.648 193.658 236.711 193.85 236.766 194.033C236.82 194.217 236.863 194.395 236.895 194.566H236.936C236.99 194.371 237.068 194.115 237.17 193.799C237.271 193.479 237.381 193.152 237.498 192.82L238.84 189.1H239.889L237.094 196.465C236.945 196.859 236.771 197.203 236.572 197.496C236.377 197.789 236.139 198.014 235.857 198.17C235.576 198.33 235.236 198.41 234.838 198.41C234.654 198.41 234.492 198.398 234.352 198.375C234.211 198.355 234.09 198.332 233.988 198.305V197.525C234.074 197.545 234.178 197.562 234.299 197.578C234.424 197.594 234.553 197.602 234.686 197.602C234.928 197.602 235.137 197.555 235.312 197.461C235.492 197.371 235.646 197.238 235.775 197.062C235.904 196.887 236.016 196.678 236.109 196.436L236.461 195.533L233.889 189.1ZM246.451 192.299C246.451 192.826 246.383 193.297 246.246 193.711C246.109 194.125 245.912 194.475 245.654 194.76C245.396 195.045 245.084 195.264 244.717 195.416C244.354 195.564 243.941 195.639 243.48 195.639C243.051 195.639 242.656 195.564 242.297 195.416C241.941 195.264 241.633 195.045 241.371 194.76C241.113 194.475 240.912 194.125 240.768 193.711C240.627 193.297 240.557 192.826 240.557 192.299C240.557 191.596 240.676 190.998 240.914 190.506C241.152 190.01 241.492 189.633 241.934 189.375C242.379 189.113 242.908 188.982 243.521 188.982C244.107 188.982 244.619 189.113 245.057 189.375C245.498 189.637 245.84 190.016 246.082 190.512C246.328 191.004 246.451 191.6 246.451 192.299ZM241.564 192.299C241.564 192.814 241.633 193.262 241.77 193.641C241.906 194.02 242.117 194.312 242.402 194.52C242.688 194.727 243.055 194.83 243.504 194.83C243.949 194.83 244.314 194.727 244.6 194.52C244.889 194.312 245.102 194.02 245.238 193.641C245.375 193.262 245.443 192.814 245.443 192.299C245.443 191.787 245.375 191.346 245.238 190.975C245.102 190.6 244.891 190.311 244.605 190.107C244.32 189.904 243.951 189.803 243.498 189.803C242.83 189.803 242.34 190.023 242.027 190.465C241.719 190.906 241.564 191.518 241.564 192.299ZM253.436 189.1V195.521H252.639L252.498 194.619H252.445C252.312 194.842 252.141 195.029 251.93 195.182C251.719 195.334 251.48 195.447 251.215 195.521C250.953 195.6 250.674 195.639 250.377 195.639C249.869 195.639 249.443 195.557 249.1 195.393C248.756 195.229 248.496 194.975 248.32 194.631C248.148 194.287 248.062 193.846 248.062 193.307V189.1H249.047V193.236C249.047 193.771 249.168 194.172 249.41 194.438C249.652 194.699 250.021 194.83 250.518 194.83C250.994 194.83 251.373 194.74 251.654 194.561C251.939 194.381 252.145 194.117 252.27 193.77C252.395 193.418 252.457 192.988 252.457 192.48V189.1H253.436ZM258.41 188.982C258.539 188.982 258.674 188.99 258.814 189.006C258.955 189.018 259.08 189.035 259.189 189.059L259.066 189.961C258.961 189.934 258.844 189.912 258.715 189.896C258.586 189.881 258.465 189.873 258.352 189.873C258.094 189.873 257.85 189.926 257.619 190.031C257.393 190.133 257.193 190.281 257.021 190.477C256.85 190.668 256.715 190.9 256.617 191.174C256.52 191.443 256.471 191.744 256.471 192.076V195.521H255.492V189.1H256.301L256.406 190.283H256.447C256.58 190.045 256.74 189.828 256.928 189.633C257.115 189.434 257.332 189.275 257.578 189.158C257.828 189.041 258.105 188.982 258.41 188.982ZM266.561 188.982C267.322 188.982 267.898 189.17 268.289 189.545C268.68 189.916 268.875 190.514 268.875 191.338V195.521H267.914V191.402C267.914 190.867 267.791 190.467 267.545 190.201C267.303 189.936 266.93 189.803 266.426 189.803C265.715 189.803 265.215 190.004 264.926 190.406C264.637 190.809 264.492 191.393 264.492 192.158V195.521H263.52V189.1H264.305L264.451 190.025H264.504C264.641 189.799 264.814 189.609 265.025 189.457C265.236 189.301 265.473 189.184 265.734 189.105C265.996 189.023 266.271 188.982 266.561 188.982ZM273.352 188.982C273.898 188.982 274.367 189.104 274.758 189.346C275.148 189.588 275.447 189.928 275.654 190.365C275.861 190.799 275.965 191.307 275.965 191.889V192.492H271.529C271.541 193.246 271.729 193.82 272.092 194.215C272.455 194.609 272.967 194.807 273.627 194.807C274.033 194.807 274.393 194.77 274.705 194.695C275.018 194.621 275.342 194.512 275.678 194.367V195.223C275.354 195.367 275.031 195.473 274.711 195.539C274.395 195.605 274.02 195.639 273.586 195.639C272.969 195.639 272.43 195.514 271.969 195.264C271.512 195.01 271.156 194.639 270.902 194.15C270.648 193.662 270.521 193.064 270.521 192.357C270.521 191.666 270.637 191.068 270.867 190.564C271.102 190.057 271.43 189.666 271.852 189.393C272.277 189.119 272.777 188.982 273.352 188.982ZM273.34 189.779C272.82 189.779 272.406 189.949 272.098 190.289C271.789 190.629 271.605 191.104 271.547 191.713H274.945C274.941 191.33 274.881 190.994 274.764 190.705C274.65 190.412 274.477 190.186 274.242 190.025C274.008 189.861 273.707 189.779 273.34 189.779ZM280.09 188.982C280.637 188.982 281.105 189.104 281.496 189.346C281.887 189.588 282.186 189.928 282.393 190.365C282.6 190.799 282.703 191.307 282.703 191.889V192.492H278.268C278.279 193.246 278.467 193.82 278.83 194.215C279.193 194.609 279.705 194.807 280.365 194.807C280.771 194.807 281.131 194.77 281.443 194.695C281.756 194.621 282.08 194.512 282.416 194.367V195.223C282.092 195.367 281.77 195.473 281.449 195.539C281.133 195.605 280.758 195.639 280.324 195.639C279.707 195.639 279.168 195.514 278.707 195.264C278.25 195.01 277.895 194.639 277.641 194.15C277.387 193.662 277.26 193.064 277.26 192.357C277.26 191.666 277.375 191.068 277.605 190.564C277.84 190.057 278.168 189.666 278.59 189.393C279.016 189.119 279.516 188.982 280.09 188.982ZM280.078 189.779C279.559 189.779 279.145 189.949 278.836 190.289C278.527 190.629 278.344 191.104 278.285 191.713H281.684C281.68 191.33 281.619 190.994 281.502 190.705C281.389 190.412 281.215 190.186 280.98 190.025C280.746 189.861 280.445 189.779 280.078 189.779ZM286.641 195.639C285.828 195.639 285.184 195.361 284.707 194.807C284.234 194.252 283.998 193.428 283.998 192.334C283.998 191.229 284.24 190.395 284.725 189.832C285.209 189.266 285.854 188.982 286.658 188.982C286.998 188.982 287.295 189.027 287.549 189.117C287.803 189.207 288.021 189.328 288.205 189.48C288.389 189.629 288.543 189.799 288.668 189.99H288.738C288.723 189.869 288.707 189.703 288.691 189.492C288.676 189.281 288.668 189.109 288.668 188.977V186.404H289.641V195.521H288.855L288.709 194.607H288.668C288.547 194.799 288.393 194.973 288.205 195.129C288.021 195.285 287.801 195.41 287.543 195.504C287.289 195.594 286.988 195.639 286.641 195.639ZM286.793 194.83C287.48 194.83 287.967 194.635 288.252 194.244C288.537 193.854 288.68 193.273 288.68 192.504V192.328C288.68 191.512 288.543 190.885 288.27 190.447C288 190.01 287.508 189.791 286.793 189.791C286.195 189.791 285.748 190.021 285.451 190.482C285.154 190.939 285.006 191.564 285.006 192.357C285.006 193.146 285.152 193.756 285.445 194.186C285.742 194.615 286.191 194.83 286.793 194.83ZM295.857 193.764C295.857 194.174 295.754 194.52 295.547 194.801C295.344 195.078 295.051 195.287 294.668 195.428C294.289 195.568 293.836 195.639 293.309 195.639C292.859 195.639 292.471 195.604 292.143 195.533C291.814 195.463 291.527 195.363 291.281 195.234V194.338C291.543 194.467 291.855 194.584 292.219 194.689C292.582 194.795 292.953 194.848 293.332 194.848C293.887 194.848 294.289 194.758 294.539 194.578C294.789 194.398 294.914 194.154 294.914 193.846C294.914 193.67 294.863 193.516 294.762 193.383C294.664 193.246 294.498 193.115 294.264 192.99C294.029 192.861 293.705 192.721 293.291 192.568C292.881 192.412 292.525 192.258 292.225 192.105C291.928 191.949 291.697 191.76 291.533 191.537C291.373 191.314 291.293 191.025 291.293 190.67C291.293 190.127 291.512 189.711 291.949 189.422C292.391 189.129 292.969 188.982 293.684 188.982C294.07 188.982 294.432 189.021 294.768 189.1C295.107 189.174 295.424 189.275 295.717 189.404L295.389 190.184C295.123 190.07 294.84 189.975 294.539 189.896C294.238 189.818 293.932 189.779 293.619 189.779C293.17 189.779 292.824 189.854 292.582 190.002C292.344 190.15 292.225 190.354 292.225 190.611C292.225 190.811 292.279 190.975 292.389 191.104C292.502 191.232 292.682 191.354 292.928 191.467C293.174 191.58 293.498 191.713 293.9 191.865C294.303 192.014 294.65 192.168 294.943 192.328C295.236 192.484 295.461 192.676 295.617 192.902C295.777 193.125 295.857 193.412 295.857 193.764ZM297.275 194.912C297.275 194.639 297.342 194.445 297.475 194.332C297.607 194.215 297.77 194.156 297.961 194.156C298.16 194.156 298.328 194.215 298.465 194.332C298.602 194.445 298.67 194.639 298.67 194.912C298.67 195.182 298.602 195.379 298.465 195.504C298.328 195.625 298.16 195.686 297.961 195.686C297.77 195.686 297.607 195.625 297.475 195.504C297.342 195.379 297.275 195.182 297.275 194.912Z" fill="white"/>
</g>
<defs>
<filter id="filter0_d_1601_9981" x="0" y="0.521484" width="403.5" height="270" filterUnits="userSpaceOnUse" color-interpolation-filters="sRGB">
<feFlood flood-opacity="0" result="BackgroundImageFix"/>
<feColorMatrix in="SourceAlpha" type="matrix" values="0 0 0 0 0 0 0 0 0 0 0 0 0 0 0 0 0 0 127 0" result="hardAlpha"/>
<feOffset dy="4"/>
<feGaussianBlur stdDeviation="2"/>
<feComposite in2="hardAlpha" operator="out"/>
<feColorMatrix type="matrix" values="0 0 0 0 0 0 0 0 0 0 0 0 0 0 0 0 0 0 0.25 0"/>
<feBlend mode="normal" in2="BackgroundImageFix" result="effect1_dropShadow_1601_9981"/>
<feBlend mode="normal" in="SourceGraphic" in2="effect1_dropShadow_1601_9981" result="shape"/>
</filter>
</defs>
</svg>
