<svg width="342" height="73" viewBox="0 0 342 73" fill="none" xmlns="http://www.w3.org/2000/svg">
<mask id="path-1-inside-1_1412_11088" fill="white">
<path d="M0.5 0.0214844H341.5V72.0215H0.5V0.0214844Z"/>
</mask>
<path d="M0.5 0.0214844H341.5V72.0215H0.5V0.0214844Z" fill="#141414"/>
<path d="M0.5 1.02148H341.5V-0.978516H0.5V1.02148Z" fill="#434343" mask="url(#path-1-inside-1_1412_11088)"/>
<path d="M56.5 29.5215H59.5V24.5215C59.5 24.2382 59.5958 24.0007 59.7875 23.809C59.9792 23.6173 60.2167 23.5215 60.5 23.5215H64.5C64.7833 23.5215 65.0208 23.6173 65.2125 23.809C65.4042 24.0007 65.5 24.2382 65.5 24.5215V29.5215H68.5V20.5215L62.5 16.0215L56.5 20.5215V29.5215ZM54.5 29.5215V20.5215C54.5 20.2048 54.5708 19.9048 54.7125 19.6215C54.8542 19.3382 55.05 19.1048 55.3 18.9215L61.3 14.4215C61.65 14.1548 62.05 14.0215 62.5 14.0215C62.95 14.0215 63.35 14.1548 63.7 14.4215L69.7 18.9215C69.95 19.1048 70.1458 19.3382 70.2875 19.6215C70.4292 19.9048 70.5 20.2048 70.5 20.5215V29.5215C70.5 30.0715 70.3042 30.5423 69.9125 30.934C69.5208 31.3257 69.05 31.5215 68.5 31.5215H64.5C64.2167 31.5215 63.9792 31.4257 63.7875 31.234C63.5958 31.0423 63.5 30.8048 63.5 30.5215V25.5215H61.5V30.5215C61.5 30.8048 61.4042 31.0423 61.2125 31.234C61.0208 31.4257 60.7833 31.5215 60.5 31.5215H56.5C55.95 31.5215 55.4792 31.3257 55.0875 30.934C54.6958 30.5423 54.5 30.0715 54.5 29.5215Z" fill="white"/>
<path d="M39.0601 50.6562C39.0601 51.6211 38.8843 52.4277 38.5327 53.0762C38.1812 53.7207 37.6714 54.207 37.0034 54.5352C36.3394 54.8594 35.5327 55.0215 34.5835 55.0215H32.2573V46.4551H34.8413C35.7124 46.4551 36.4624 46.6152 37.0913 46.9355C37.7202 47.252 38.2046 47.7227 38.5444 48.3477C38.8882 48.9688 39.0601 49.7383 39.0601 50.6562ZM38.0112 50.6914C38.0112 49.9219 37.8823 49.2871 37.6245 48.7871C37.3706 48.2871 36.9956 47.916 36.4995 47.6738C36.0073 47.4277 35.4038 47.3047 34.689 47.3047H33.2534V54.166H34.4663C35.646 54.166 36.5308 53.875 37.1206 53.293C37.7144 52.7109 38.0112 51.8438 38.0112 50.6914ZM43.2202 48.4941C43.9858 48.4941 44.5542 48.666 44.9253 49.0098C45.2964 49.3535 45.4819 49.9023 45.4819 50.6562V55.0215H44.7729L44.5854 54.0723H44.5386C44.3589 54.3066 44.1714 54.5039 43.9761 54.6641C43.7808 54.8203 43.5542 54.9395 43.2964 55.0215C43.0425 55.0996 42.73 55.1387 42.3589 55.1387C41.9683 55.1387 41.6206 55.0703 41.3159 54.9336C41.0151 54.7969 40.7769 54.5898 40.6011 54.3125C40.4292 54.0352 40.3433 53.6836 40.3433 53.2578C40.3433 52.6172 40.5972 52.125 41.105 51.7812C41.6128 51.4375 42.3862 51.25 43.4253 51.2188L44.5327 51.1719V50.7793C44.5327 50.2246 44.4136 49.8359 44.1753 49.6133C43.937 49.3906 43.6011 49.2793 43.1675 49.2793C42.8315 49.2793 42.5112 49.3281 42.2065 49.4258C41.9019 49.5234 41.6128 49.6387 41.3394 49.7715L41.0405 49.0332C41.3296 48.8848 41.6616 48.7578 42.0366 48.6523C42.4116 48.5469 42.8062 48.4941 43.2202 48.4941ZM44.521 51.8574L43.5425 51.8984C42.7417 51.9297 42.1772 52.0605 41.8491 52.291C41.521 52.5215 41.3569 52.8477 41.3569 53.2695C41.3569 53.6367 41.4683 53.9082 41.6909 54.084C41.9136 54.2598 42.2085 54.3477 42.5757 54.3477C43.146 54.3477 43.6128 54.1895 43.9761 53.873C44.3394 53.5566 44.521 53.082 44.521 52.4492V51.8574ZM51.6401 53.2637C51.6401 53.6738 51.5366 54.0195 51.3296 54.3008C51.1265 54.5781 50.8335 54.7871 50.4507 54.9277C50.0718 55.0684 49.6187 55.1387 49.0913 55.1387C48.6421 55.1387 48.2534 55.1035 47.9253 55.0332C47.5972 54.9629 47.3101 54.8633 47.064 54.7344V53.8379C47.3257 53.9668 47.6382 54.084 48.0015 54.1895C48.3647 54.2949 48.7358 54.3477 49.1147 54.3477C49.6694 54.3477 50.0718 54.2578 50.3218 54.0781C50.5718 53.8984 50.6968 53.6543 50.6968 53.3457C50.6968 53.1699 50.646 53.0156 50.5444 52.8828C50.4468 52.7461 50.2808 52.6152 50.0464 52.4902C49.812 52.3613 49.4878 52.2207 49.0737 52.0684C48.6636 51.9121 48.3081 51.7578 48.0073 51.6055C47.7104 51.4492 47.48 51.2598 47.3159 51.0371C47.1558 50.8145 47.0757 50.5254 47.0757 50.1699C47.0757 49.627 47.2944 49.2109 47.7319 48.9219C48.1733 48.6289 48.7515 48.4824 49.4663 48.4824C49.853 48.4824 50.2144 48.5215 50.5503 48.5996C50.8901 48.6738 51.2065 48.7754 51.4995 48.9043L51.1714 49.6836C50.9058 49.5703 50.6226 49.4746 50.3218 49.3965C50.021 49.3184 49.7144 49.2793 49.4019 49.2793C48.9526 49.2793 48.6069 49.3535 48.3647 49.502C48.1265 49.6504 48.0073 49.8535 48.0073 50.1113C48.0073 50.3105 48.062 50.4746 48.1714 50.6035C48.2847 50.7324 48.4644 50.8535 48.7104 50.9668C48.9565 51.0801 49.2808 51.2129 49.6831 51.3652C50.0854 51.5137 50.4331 51.668 50.7261 51.8281C51.019 51.9844 51.2437 52.1758 51.3999 52.4023C51.5601 52.625 51.6401 52.9121 51.6401 53.2637ZM54.1772 45.9043V48.6289C54.1772 48.7852 54.1733 48.9434 54.1655 49.1035C54.1577 49.2598 54.144 49.4043 54.1245 49.5371H54.189C54.3218 49.3105 54.4897 49.1211 54.6929 48.9688C54.8999 48.8125 55.1343 48.6953 55.396 48.6172C55.6577 48.5352 55.9351 48.4941 56.228 48.4941C56.7437 48.4941 57.1733 48.5762 57.5171 48.7402C57.8647 48.9043 58.1245 49.1582 58.2964 49.502C58.4722 49.8457 58.5601 50.291 58.5601 50.8379V55.0215H57.5991V50.9023C57.5991 50.3672 57.4761 49.9668 57.23 49.7012C56.9878 49.4355 56.6147 49.3027 56.1108 49.3027C55.6343 49.3027 55.2534 49.3945 54.9683 49.5781C54.687 49.7578 54.4839 50.0234 54.3589 50.375C54.2378 50.7266 54.1772 51.1562 54.1772 51.6641V55.0215H53.2046V45.9043H54.1772ZM61.5366 45.9043V48.1836C61.5366 48.4453 61.5288 48.6992 61.5132 48.9453C61.5015 49.1914 61.4917 49.3828 61.4839 49.5195H61.5366C61.7124 49.2305 61.9663 48.9863 62.2983 48.7871C62.6304 48.5879 63.0542 48.4883 63.5698 48.4883C64.3745 48.4883 65.0151 48.7676 65.4917 49.3262C65.9722 49.8809 66.2124 50.707 66.2124 51.8047C66.2124 52.5273 66.103 53.1367 65.8843 53.6328C65.6655 54.1289 65.3569 54.5039 64.9585 54.7578C64.5601 55.0117 64.0894 55.1387 63.5464 55.1387C63.0386 55.1387 62.6206 55.0449 62.2925 54.8574C61.9683 54.666 61.7183 54.4336 61.5425 54.1602H61.4663L61.2671 55.0215H60.564V45.9043H61.5366ZM63.4116 49.3027C62.9468 49.3027 62.5776 49.3945 62.3042 49.5781C62.0308 49.7578 61.8335 50.0312 61.7124 50.3984C61.5952 50.7617 61.5366 51.2227 61.5366 51.7812V51.834C61.5366 52.6426 61.6714 53.2617 61.9409 53.6914C62.2104 54.1172 62.7007 54.3301 63.4116 54.3301C64.0093 54.3301 64.4565 54.1113 64.7534 53.6738C65.0542 53.2363 65.2046 52.6113 65.2046 51.7988C65.2046 50.9707 65.0562 50.3477 64.7593 49.9297C64.4663 49.5117 64.0171 49.3027 63.4116 49.3027ZM73.4487 51.7988C73.4487 52.3262 73.3804 52.7969 73.2437 53.2109C73.1069 53.625 72.9097 53.9746 72.6519 54.2598C72.394 54.5449 72.0815 54.7637 71.7144 54.916C71.3511 55.0645 70.939 55.1387 70.478 55.1387C70.0483 55.1387 69.6538 55.0645 69.2944 54.916C68.939 54.7637 68.6304 54.5449 68.3687 54.2598C68.1108 53.9746 67.9097 53.625 67.7651 53.2109C67.6245 52.7969 67.5542 52.3262 67.5542 51.7988C67.5542 51.0957 67.6733 50.498 67.9116 50.0059C68.1499 49.5098 68.4897 49.1328 68.9312 48.875C69.3765 48.6133 69.9058 48.4824 70.519 48.4824C71.105 48.4824 71.6167 48.6133 72.0542 48.875C72.4956 49.1367 72.8374 49.5156 73.0796 50.0117C73.3257 50.5039 73.4487 51.0996 73.4487 51.7988ZM68.562 51.7988C68.562 52.3145 68.6304 52.7617 68.7671 53.1406C68.9038 53.5195 69.1147 53.8125 69.3999 54.0195C69.6851 54.2266 70.0522 54.3301 70.5015 54.3301C70.9468 54.3301 71.312 54.2266 71.5972 54.0195C71.8862 53.8125 72.0991 53.5195 72.2358 53.1406C72.3726 52.7617 72.4409 52.3145 72.4409 51.7988C72.4409 51.2871 72.3726 50.8457 72.2358 50.4746C72.0991 50.0996 71.8882 49.8105 71.603 49.6074C71.3179 49.4043 70.9487 49.3027 70.4956 49.3027C69.8276 49.3027 69.3374 49.5234 69.0249 49.9648C68.7163 50.4062 68.562 51.0176 68.562 51.7988ZM77.5327 48.4941C78.2983 48.4941 78.8667 48.666 79.2378 49.0098C79.6089 49.3535 79.7944 49.9023 79.7944 50.6562V55.0215H79.0854L78.8979 54.0723H78.8511C78.6714 54.3066 78.4839 54.5039 78.2886 54.6641C78.0933 54.8203 77.8667 54.9395 77.6089 55.0215C77.355 55.0996 77.0425 55.1387 76.6714 55.1387C76.2808 55.1387 75.9331 55.0703 75.6284 54.9336C75.3276 54.7969 75.0894 54.5898 74.9136 54.3125C74.7417 54.0352 74.6558 53.6836 74.6558 53.2578C74.6558 52.6172 74.9097 52.125 75.4175 51.7812C75.9253 51.4375 76.6987 51.25 77.7378 51.2188L78.8452 51.1719V50.7793C78.8452 50.2246 78.7261 49.8359 78.4878 49.6133C78.2495 49.3906 77.9136 49.2793 77.48 49.2793C77.144 49.2793 76.8237 49.3281 76.519 49.4258C76.2144 49.5234 75.9253 49.6387 75.6519 49.7715L75.353 49.0332C75.6421 48.8848 75.9741 48.7578 76.3491 48.6523C76.7241 48.5469 77.1187 48.4941 77.5327 48.4941ZM78.8335 51.8574L77.855 51.8984C77.0542 51.9297 76.4897 52.0605 76.1616 52.291C75.8335 52.5215 75.6694 52.8477 75.6694 53.2695C75.6694 53.6367 75.7808 53.9082 76.0034 54.084C76.2261 54.2598 76.521 54.3477 76.8882 54.3477C77.4585 54.3477 77.9253 54.1895 78.2886 53.873C78.6519 53.5566 78.8335 53.082 78.8335 52.4492V51.8574ZM84.7163 48.4824C84.8452 48.4824 84.98 48.4902 85.1206 48.5059C85.2612 48.5176 85.3862 48.5352 85.4956 48.5586L85.3726 49.4609C85.2671 49.4336 85.1499 49.4121 85.021 49.3965C84.8921 49.3809 84.771 49.373 84.6577 49.373C84.3999 49.373 84.1558 49.4258 83.9253 49.5312C83.6987 49.6328 83.4995 49.7812 83.3276 49.9766C83.1558 50.168 83.021 50.4004 82.9233 50.6738C82.8257 50.9434 82.7769 51.2441 82.7769 51.5762V55.0215H81.7983V48.5996H82.6069L82.7124 49.7832H82.7534C82.8862 49.5449 83.0464 49.3281 83.2339 49.1328C83.4214 48.9336 83.6382 48.7754 83.8843 48.6582C84.1343 48.541 84.4116 48.4824 84.7163 48.4824ZM88.9937 55.1387C88.1812 55.1387 87.5366 54.8613 87.0601 54.3066C86.5874 53.752 86.3511 52.9277 86.3511 51.834C86.3511 50.7285 86.5933 49.8945 87.0776 49.332C87.562 48.7656 88.2065 48.4824 89.0112 48.4824C89.3511 48.4824 89.6479 48.5273 89.9019 48.6172C90.1558 48.707 90.3745 48.8281 90.5581 48.9805C90.7417 49.1289 90.896 49.2988 91.021 49.4902H91.0913C91.0757 49.3691 91.0601 49.2031 91.0444 48.9922C91.0288 48.7812 91.021 48.6094 91.021 48.4766V45.9043H91.9937V55.0215H91.2085L91.062 54.1074H91.021C90.8999 54.2988 90.7456 54.4727 90.5581 54.6289C90.3745 54.7852 90.1538 54.9102 89.896 55.0039C89.6421 55.0938 89.3413 55.1387 88.9937 55.1387ZM89.146 54.3301C89.8335 54.3301 90.3198 54.1348 90.605 53.7441C90.8901 53.3535 91.0327 52.7734 91.0327 52.0039V51.8281C91.0327 51.0117 90.896 50.3848 90.6226 49.9473C90.353 49.5098 89.8608 49.291 89.146 49.291C88.5483 49.291 88.1011 49.5215 87.8042 49.9824C87.5073 50.4395 87.3589 51.0645 87.3589 51.8574C87.3589 52.6465 87.5054 53.2559 87.7983 53.6855C88.0952 54.1152 88.5444 54.3301 89.146 54.3301Z" fill="white"/>
<path d="M113.25 34.0215C112.7 34.0215 112.229 33.8257 111.838 33.434C111.446 33.0423 111.25 32.5715 111.25 32.0215V18.0215C111.25 17.4715 111.446 17.0007 111.838 16.609C112.229 16.2173 112.7 16.0215 113.25 16.0215H114.25V15.0215C114.25 14.7382 114.346 14.5007 114.538 14.309C114.729 14.1173 114.967 14.0215 115.25 14.0215C115.533 14.0215 115.771 14.1173 115.963 14.309C116.154 14.5007 116.25 14.7382 116.25 15.0215V16.0215H124.25V15.0215C124.25 14.7382 124.346 14.5007 124.538 14.309C124.729 14.1173 124.967 14.0215 125.25 14.0215C125.533 14.0215 125.771 14.1173 125.963 14.309C126.154 14.5007 126.25 14.7382 126.25 15.0215V16.0215H127.25C127.8 16.0215 128.271 16.2173 128.663 16.609C129.054 17.0007 129.25 17.4715 129.25 18.0215V32.0215C129.25 32.5715 129.054 33.0423 128.663 33.434C128.271 33.8257 127.8 34.0215 127.25 34.0215H113.25ZM113.25 32.0215H127.25V22.0215H113.25V32.0215ZM113.25 20.0215H127.25V18.0215H113.25V20.0215ZM120.25 26.0215C119.967 26.0215 119.729 25.9257 119.538 25.734C119.346 25.5423 119.25 25.3048 119.25 25.0215C119.25 24.7382 119.346 24.5007 119.538 24.309C119.729 24.1173 119.967 24.0215 120.25 24.0215C120.533 24.0215 120.771 24.1173 120.963 24.309C121.154 24.5007 121.25 24.7382 121.25 25.0215C121.25 25.3048 121.154 25.5423 120.963 25.734C120.771 25.9257 120.533 26.0215 120.25 26.0215ZM116.25 26.0215C115.967 26.0215 115.729 25.9257 115.537 25.734C115.346 25.5423 115.25 25.3048 115.25 25.0215C115.25 24.7382 115.346 24.5007 115.537 24.309C115.729 24.1173 115.967 24.0215 116.25 24.0215C116.533 24.0215 116.771 24.1173 116.963 24.309C117.154 24.5007 117.25 24.7382 117.25 25.0215C117.25 25.3048 117.154 25.5423 116.963 25.734C116.771 25.9257 116.533 26.0215 116.25 26.0215ZM124.25 26.0215C123.967 26.0215 123.729 25.9257 123.538 25.734C123.346 25.5423 123.25 25.3048 123.25 25.0215C123.25 24.7382 123.346 24.5007 123.538 24.309C123.729 24.1173 123.967 24.0215 124.25 24.0215C124.533 24.0215 124.771 24.1173 124.963 24.309C125.154 24.5007 125.25 24.7382 125.25 25.0215C125.25 25.3048 125.154 25.5423 124.963 25.734C124.771 25.9257 124.533 26.0215 124.25 26.0215ZM120.25 30.0215C119.967 30.0215 119.729 29.9257 119.538 29.734C119.346 29.5423 119.25 29.3048 119.25 29.0215C119.25 28.7382 119.346 28.5007 119.538 28.309C119.729 28.1173 119.967 28.0215 120.25 28.0215C120.533 28.0215 120.771 28.1173 120.963 28.309C121.154 28.5007 121.25 28.7382 121.25 29.0215C121.25 29.3048 121.154 29.5423 120.963 29.734C120.771 29.9257 120.533 30.0215 120.25 30.0215ZM116.25 30.0215C115.967 30.0215 115.729 29.9257 115.537 29.734C115.346 29.5423 115.25 29.3048 115.25 29.0215C115.25 28.7382 115.346 28.5007 115.537 28.309C115.729 28.1173 115.967 28.0215 116.25 28.0215C116.533 28.0215 116.771 28.1173 116.963 28.309C117.154 28.5007 117.25 28.7382 117.25 29.0215C117.25 29.3048 117.154 29.5423 116.963 29.734C116.771 29.9257 116.533 30.0215 116.25 30.0215ZM124.25 30.0215C123.967 30.0215 123.729 29.9257 123.538 29.734C123.346 29.5423 123.25 29.3048 123.25 29.0215C123.25 28.7382 123.346 28.5007 123.538 28.309C123.729 28.1173 123.967 28.0215 124.25 28.0215C124.533 28.0215 124.771 28.1173 124.963 28.309C125.154 28.5007 125.25 28.7382 125.25 29.0215C125.25 29.3048 125.154 29.5423 124.963 29.734C124.771 29.9257 124.533 30.0215 124.25 30.0215Z" fill="white"/>
<path d="M100.599 52.7422C100.599 53.25 100.472 53.6836 100.218 54.043C99.9683 54.3984 99.6167 54.6699 99.1636 54.8574C98.7104 55.0449 98.1772 55.1387 97.564 55.1387C97.2397 55.1387 96.9331 55.123 96.644 55.0918C96.355 55.0605 96.0894 55.0156 95.8472 54.957C95.605 54.8984 95.3921 54.8262 95.2085 54.7402V53.7852C95.5015 53.9062 95.8589 54.0195 96.2808 54.125C96.7026 54.2266 97.144 54.2773 97.605 54.2773C98.0347 54.2773 98.3979 54.2207 98.6948 54.1074C98.9917 53.9902 99.2163 53.8242 99.3687 53.6094C99.5249 53.3906 99.603 53.1289 99.603 52.8242C99.603 52.5312 99.5386 52.2871 99.4097 52.0918C99.2808 51.8926 99.0659 51.7129 98.7651 51.5527C98.4683 51.3887 98.062 51.2148 97.5464 51.0312C97.1831 50.9023 96.8628 50.7617 96.5854 50.6094C96.3081 50.4531 96.0757 50.2773 95.8882 50.082C95.7007 49.8867 95.5581 49.6602 95.4604 49.4023C95.3667 49.1445 95.3198 48.8496 95.3198 48.5176C95.3198 48.0605 95.4351 47.6699 95.6655 47.3457C95.8999 47.0176 96.2222 46.7676 96.6323 46.5957C97.0464 46.4199 97.521 46.332 98.0562 46.332C98.5132 46.332 98.9351 46.375 99.3218 46.4609C99.7124 46.5469 100.07 46.6621 100.394 46.8066L100.083 47.6621C99.7749 47.5332 99.4468 47.4258 99.0991 47.3398C98.7554 47.2539 98.3999 47.2109 98.0327 47.2109C97.6655 47.2109 97.355 47.2656 97.1011 47.375C96.8511 47.4805 96.6597 47.6309 96.5269 47.8262C96.394 48.0215 96.3276 48.2539 96.3276 48.5234C96.3276 48.8242 96.3901 49.0742 96.5151 49.2734C96.644 49.4727 96.8472 49.6504 97.1245 49.8066C97.4058 49.959 97.7769 50.1191 98.2378 50.2871C98.7417 50.4707 99.1694 50.666 99.521 50.873C99.8726 51.0762 100.14 51.3262 100.324 51.623C100.507 51.916 100.599 52.2891 100.599 52.7422ZM104.777 55.1387C104.199 55.1387 103.689 55.0195 103.248 54.7812C102.806 54.543 102.462 54.1797 102.216 53.6914C101.97 53.2031 101.847 52.5879 101.847 51.8457C101.847 51.0684 101.976 50.4336 102.234 49.9414C102.496 49.4453 102.855 49.0781 103.312 48.8398C103.769 48.6016 104.289 48.4824 104.871 48.4824C105.191 48.4824 105.5 48.5156 105.796 48.582C106.097 48.6445 106.343 48.7246 106.535 48.8223L106.242 49.6367C106.046 49.5586 105.82 49.4883 105.562 49.4258C105.308 49.3633 105.07 49.332 104.847 49.332C104.402 49.332 104.031 49.4277 103.734 49.6191C103.441 49.8105 103.22 50.0918 103.072 50.4629C102.927 50.834 102.855 51.291 102.855 51.834C102.855 52.3535 102.925 52.7969 103.066 53.1641C103.21 53.5312 103.423 53.8125 103.705 54.0078C103.99 54.1992 104.345 54.2949 104.771 54.2949C105.111 54.2949 105.417 54.2598 105.691 54.1895C105.964 54.1152 106.212 54.0293 106.435 53.9316V54.7988C106.22 54.9082 105.98 54.9922 105.714 55.0508C105.453 55.1094 105.14 55.1387 104.777 55.1387ZM108.931 45.9043V48.6289C108.931 48.7852 108.927 48.9434 108.919 49.1035C108.912 49.2598 108.898 49.4043 108.878 49.5371H108.943C109.076 49.3105 109.244 49.1211 109.447 48.9688C109.654 48.8125 109.888 48.6953 110.15 48.6172C110.412 48.5352 110.689 48.4941 110.982 48.4941C111.498 48.4941 111.927 48.5762 112.271 48.7402C112.619 48.9043 112.878 49.1582 113.05 49.502C113.226 49.8457 113.314 50.291 113.314 50.8379V55.0215H112.353V50.9023C112.353 50.3672 112.23 49.9668 111.984 49.7012C111.742 49.4355 111.369 49.3027 110.865 49.3027C110.388 49.3027 110.007 49.3945 109.722 49.5781C109.441 49.7578 109.238 50.0234 109.113 50.375C108.992 50.7266 108.931 51.1562 108.931 51.6641V55.0215H107.958V45.9043H108.931ZM117.791 48.4824C118.337 48.4824 118.806 48.6035 119.197 48.8457C119.587 49.0879 119.886 49.4277 120.093 49.8652C120.3 50.2988 120.404 50.8066 120.404 51.3887V51.9922H115.968C115.98 52.7461 116.167 53.3203 116.531 53.7148C116.894 54.1094 117.406 54.3066 118.066 54.3066C118.472 54.3066 118.832 54.2695 119.144 54.1953C119.457 54.1211 119.781 54.0117 120.117 53.8672V54.7227C119.792 54.8672 119.47 54.9727 119.15 55.0391C118.833 55.1055 118.458 55.1387 118.025 55.1387C117.408 55.1387 116.869 55.0137 116.408 54.7637C115.951 54.5098 115.595 54.1387 115.341 53.6504C115.087 53.1621 114.96 52.5645 114.96 51.8574C114.96 51.166 115.076 50.5684 115.306 50.0645C115.541 49.5566 115.869 49.166 116.291 48.8926C116.716 48.6191 117.216 48.4824 117.791 48.4824ZM117.779 49.2793C117.259 49.2793 116.845 49.4492 116.537 49.7891C116.228 50.1289 116.044 50.6035 115.986 51.2129H119.384C119.38 50.8301 119.32 50.4941 119.203 50.2051C119.089 49.9121 118.916 49.6855 118.681 49.5254C118.447 49.3613 118.146 49.2793 117.779 49.2793ZM124.341 55.1387C123.529 55.1387 122.884 54.8613 122.408 54.3066C121.935 53.752 121.699 52.9277 121.699 51.834C121.699 50.7285 121.941 49.8945 122.425 49.332C122.91 48.7656 123.554 48.4824 124.359 48.4824C124.699 48.4824 124.996 48.5273 125.25 48.6172C125.503 48.707 125.722 48.8281 125.906 48.9805C126.089 49.1289 126.244 49.2988 126.369 49.4902H126.439C126.423 49.3691 126.408 49.2031 126.392 48.9922C126.376 48.7812 126.369 48.6094 126.369 48.4766V45.9043H127.341V55.0215H126.556L126.41 54.1074H126.369C126.248 54.2988 126.093 54.4727 125.906 54.6289C125.722 54.7852 125.501 54.9102 125.244 55.0039C124.99 55.0938 124.689 55.1387 124.341 55.1387ZM124.494 54.3301C125.181 54.3301 125.667 54.1348 125.953 53.7441C126.238 53.3535 126.38 52.7734 126.38 52.0039V51.8281C126.38 51.0117 126.244 50.3848 125.97 49.9473C125.701 49.5098 125.208 49.291 124.494 49.291C123.896 49.291 123.449 49.5215 123.152 49.9824C122.855 50.4395 122.707 51.0645 122.707 51.8574C122.707 52.6465 122.853 53.2559 123.146 53.6855C123.443 54.1152 123.892 54.3301 124.494 54.3301ZM134.707 48.5996V55.0215H133.91L133.769 54.1191H133.716C133.583 54.3418 133.412 54.5293 133.201 54.6816C132.99 54.834 132.751 54.9473 132.486 55.0215C132.224 55.0996 131.945 55.1387 131.648 55.1387C131.14 55.1387 130.714 55.0566 130.371 54.8926C130.027 54.7285 129.767 54.4746 129.591 54.1309C129.419 53.7871 129.333 53.3457 129.333 52.8066V48.5996H130.318V52.7363C130.318 53.2715 130.439 53.6719 130.681 53.9375C130.923 54.1992 131.292 54.3301 131.789 54.3301C132.265 54.3301 132.644 54.2402 132.925 54.0605C133.21 53.8809 133.416 53.6172 133.541 53.2695C133.666 52.918 133.728 52.4883 133.728 51.9805V48.5996H134.707ZM137.742 55.0215H136.763V45.9043H137.742V55.0215ZM142.271 48.4824C142.818 48.4824 143.287 48.6035 143.677 48.8457C144.068 49.0879 144.367 49.4277 144.574 49.8652C144.781 50.2988 144.884 50.8066 144.884 51.3887V51.9922H140.449C140.46 52.7461 140.648 53.3203 141.011 53.7148C141.375 54.1094 141.886 54.3066 142.546 54.3066C142.953 54.3066 143.312 54.2695 143.625 54.1953C143.937 54.1211 144.261 54.0117 144.597 53.8672V54.7227C144.273 54.8672 143.951 54.9727 143.63 55.0391C143.314 55.1055 142.939 55.1387 142.505 55.1387C141.888 55.1387 141.349 55.0137 140.888 54.7637C140.431 54.5098 140.076 54.1387 139.822 53.6504C139.568 53.1621 139.441 52.5645 139.441 51.8574C139.441 51.166 139.556 50.5684 139.787 50.0645C140.021 49.5566 140.349 49.166 140.771 48.8926C141.197 48.6191 141.697 48.4824 142.271 48.4824ZM142.259 49.2793C141.74 49.2793 141.326 49.4492 141.017 49.7891C140.708 50.1289 140.525 50.6035 140.466 51.2129H143.865C143.861 50.8301 143.8 50.4941 143.683 50.2051C143.57 49.9121 143.396 49.6855 143.162 49.5254C142.927 49.3613 142.626 49.2793 142.259 49.2793Z" fill="white"/>
<path d="M175 19.0215V15.0215C175 14.7382 175.096 14.5007 175.288 14.309C175.479 14.1173 175.717 14.0215 176 14.0215H182C182.283 14.0215 182.521 14.1173 182.712 14.309C182.904 14.5007 183 14.7382 183 15.0215V19.0215C183 19.3048 182.904 19.5423 182.712 19.734C182.521 19.9257 182.283 20.0215 182 20.0215H176C175.717 20.0215 175.479 19.9257 175.288 19.734C175.096 19.5423 175 19.3048 175 19.0215ZM165 23.0215V15.0215C165 14.7382 165.096 14.5007 165.287 14.309C165.479 14.1173 165.717 14.0215 166 14.0215H172C172.283 14.0215 172.521 14.1173 172.713 14.309C172.904 14.5007 173 14.7382 173 15.0215V23.0215C173 23.3048 172.904 23.5423 172.713 23.734C172.521 23.9257 172.283 24.0215 172 24.0215H166C165.717 24.0215 165.479 23.9257 165.287 23.734C165.096 23.5423 165 23.3048 165 23.0215ZM175 31.0215V23.0215C175 22.7382 175.096 22.5007 175.288 22.309C175.479 22.1173 175.717 22.0215 176 22.0215H182C182.283 22.0215 182.521 22.1173 182.712 22.309C182.904 22.5007 183 22.7382 183 23.0215V31.0215C183 31.3048 182.904 31.5423 182.712 31.734C182.521 31.9257 182.283 32.0215 182 32.0215H176C175.717 32.0215 175.479 31.9257 175.288 31.734C175.096 31.5423 175 31.3048 175 31.0215ZM165 31.0215V27.0215C165 26.7382 165.096 26.5007 165.287 26.309C165.479 26.1173 165.717 26.0215 166 26.0215H172C172.283 26.0215 172.521 26.1173 172.713 26.309C172.904 26.5007 173 26.7382 173 27.0215V31.0215C173 31.3048 172.904 31.5423 172.713 31.734C172.521 31.9257 172.283 32.0215 172 32.0215H166C165.717 32.0215 165.479 31.9257 165.287 31.734C165.096 31.5423 165 31.3048 165 31.0215ZM167 22.0215H171V16.0215H167V22.0215ZM177 30.0215H181V24.0215H177V30.0215ZM177 18.0215H181V16.0215H177V18.0215ZM167 30.0215H171V28.0215H167V30.0215Z" fill="white"/>
<path d="M153.706 46.4551C154.812 46.4551 155.618 46.6719 156.126 47.1055C156.638 47.5352 156.894 48.1523 156.894 48.957C156.894 49.3203 156.833 49.666 156.712 49.9941C156.595 50.3184 156.403 50.6055 156.138 50.8555C155.872 51.1016 155.522 51.2969 155.089 51.4414C154.659 51.582 154.132 51.6523 153.507 51.6523H152.464V55.0215H151.468V46.4551H153.706ZM153.612 47.3047H152.464V50.7969H153.396C153.942 50.7969 154.397 50.7383 154.761 50.6211C155.128 50.5039 155.403 50.3145 155.587 50.0527C155.771 49.7871 155.862 49.4355 155.862 48.998C155.862 48.4277 155.681 48.0039 155.317 47.7266C154.954 47.4453 154.386 47.3047 153.612 47.3047ZM164.077 51.7988C164.077 52.3262 164.009 52.7969 163.872 53.2109C163.735 53.625 163.538 53.9746 163.28 54.2598C163.022 54.5449 162.71 54.7637 162.343 54.916C161.979 55.0645 161.567 55.1387 161.106 55.1387C160.677 55.1387 160.282 55.0645 159.923 54.916C159.567 54.7637 159.259 54.5449 158.997 54.2598C158.739 53.9746 158.538 53.625 158.394 53.2109C158.253 52.7969 158.183 52.3262 158.183 51.7988C158.183 51.0957 158.302 50.498 158.54 50.0059C158.778 49.5098 159.118 49.1328 159.56 48.875C160.005 48.6133 160.534 48.4824 161.147 48.4824C161.733 48.4824 162.245 48.6133 162.683 48.875C163.124 49.1367 163.466 49.5156 163.708 50.0117C163.954 50.5039 164.077 51.0996 164.077 51.7988ZM159.19 51.7988C159.19 52.3145 159.259 52.7617 159.396 53.1406C159.532 53.5195 159.743 53.8125 160.028 54.0195C160.313 54.2266 160.681 54.3301 161.13 54.3301C161.575 54.3301 161.94 54.2266 162.226 54.0195C162.515 53.8125 162.728 53.5195 162.864 53.1406C163.001 52.7617 163.069 52.3145 163.069 51.7988C163.069 51.2871 163.001 50.8457 162.864 50.4746C162.728 50.0996 162.517 49.8105 162.231 49.6074C161.946 49.4043 161.577 49.3027 161.124 49.3027C160.456 49.3027 159.966 49.5234 159.653 49.9648C159.345 50.4062 159.19 51.0176 159.19 51.7988ZM168.677 48.4824C168.806 48.4824 168.94 48.4902 169.081 48.5059C169.222 48.5176 169.347 48.5352 169.456 48.5586L169.333 49.4609C169.228 49.4336 169.11 49.4121 168.981 49.3965C168.853 49.3809 168.731 49.373 168.618 49.373C168.36 49.373 168.116 49.4258 167.886 49.5312C167.659 49.6328 167.46 49.7812 167.288 49.9766C167.116 50.168 166.981 50.4004 166.884 50.6738C166.786 50.9434 166.737 51.2441 166.737 51.5762V55.0215H165.759V48.5996H166.567L166.673 49.7832H166.714C166.847 49.5449 167.007 49.3281 167.194 49.1328C167.382 48.9336 167.599 48.7754 167.845 48.6582C168.095 48.541 168.372 48.4824 168.677 48.4824ZM172.743 54.3418C172.903 54.3418 173.067 54.3281 173.235 54.3008C173.403 54.2734 173.54 54.2402 173.646 54.2012V54.957C173.532 55.0078 173.374 55.0508 173.171 55.0859C172.972 55.1211 172.776 55.1387 172.585 55.1387C172.245 55.1387 171.937 55.0801 171.659 54.9629C171.382 54.8418 171.159 54.6387 170.991 54.3535C170.827 54.0684 170.745 53.6738 170.745 53.1699V49.3613H169.831V48.8867L170.751 48.5059L171.138 47.1113H171.724V48.5996H173.604V49.3613H171.724V53.1406C171.724 53.543 171.815 53.8438 171.999 54.043C172.187 54.2422 172.435 54.3418 172.743 54.3418ZM177.806 49.3613H176.206V55.0215H175.233V49.3613H174.097V48.8926L175.233 48.5703V48.1426C175.233 47.6035 175.313 47.166 175.474 46.8301C175.634 46.4902 175.866 46.2402 176.171 46.0801C176.476 45.9199 176.847 45.8398 177.284 45.8398C177.53 45.8398 177.755 45.8613 177.958 45.9043C178.165 45.9473 178.347 45.9961 178.503 46.0508L178.251 46.8184C178.118 46.7754 177.968 46.7363 177.8 46.7012C177.636 46.6621 177.468 46.6426 177.296 46.6426C176.925 46.6426 176.649 46.7637 176.47 47.0059C176.294 47.2441 176.206 47.6191 176.206 48.1309V48.5996H177.806V49.3613ZM184.526 51.7988C184.526 52.3262 184.458 52.7969 184.321 53.2109C184.185 53.625 183.987 53.9746 183.729 54.2598C183.472 54.5449 183.159 54.7637 182.792 54.916C182.429 55.0645 182.017 55.1387 181.556 55.1387C181.126 55.1387 180.731 55.0645 180.372 54.916C180.017 54.7637 179.708 54.5449 179.446 54.2598C179.188 53.9746 178.987 53.625 178.843 53.2109C178.702 52.7969 178.632 52.3262 178.632 51.7988C178.632 51.0957 178.751 50.498 178.989 50.0059C179.228 49.5098 179.567 49.1328 180.009 48.875C180.454 48.6133 180.983 48.4824 181.597 48.4824C182.183 48.4824 182.694 48.6133 183.132 48.875C183.573 49.1367 183.915 49.5156 184.157 50.0117C184.403 50.5039 184.526 51.0996 184.526 51.7988ZM179.64 51.7988C179.64 52.3145 179.708 52.7617 179.845 53.1406C179.981 53.5195 180.192 53.8125 180.478 54.0195C180.763 54.2266 181.13 54.3301 181.579 54.3301C182.024 54.3301 182.39 54.2266 182.675 54.0195C182.964 53.8125 183.177 53.5195 183.313 53.1406C183.45 52.7617 183.519 52.3145 183.519 51.7988C183.519 51.2871 183.45 50.8457 183.313 50.4746C183.177 50.0996 182.966 49.8105 182.681 49.6074C182.396 49.4043 182.026 49.3027 181.573 49.3027C180.905 49.3027 180.415 49.5234 180.103 49.9648C179.794 50.4062 179.64 51.0176 179.64 51.7988ZM187.187 55.0215H186.208V45.9043H187.187V55.0215ZM190.216 48.5996V55.0215H189.243V48.5996H190.216ZM189.741 46.1973C189.901 46.1973 190.038 46.25 190.151 46.3555C190.269 46.457 190.327 46.6172 190.327 46.8359C190.327 47.0508 190.269 47.2109 190.151 47.3164C190.038 47.4219 189.901 47.4746 189.741 47.4746C189.573 47.4746 189.433 47.4219 189.319 47.3164C189.21 47.2109 189.155 47.0508 189.155 46.8359C189.155 46.6172 189.21 46.457 189.319 46.3555C189.433 46.25 189.573 46.1973 189.741 46.1973ZM197.815 51.7988C197.815 52.3262 197.747 52.7969 197.61 53.2109C197.474 53.625 197.276 53.9746 197.019 54.2598C196.761 54.5449 196.448 54.7637 196.081 54.916C195.718 55.0645 195.306 55.1387 194.845 55.1387C194.415 55.1387 194.021 55.0645 193.661 54.916C193.306 54.7637 192.997 54.5449 192.735 54.2598C192.478 53.9746 192.276 53.625 192.132 53.2109C191.991 52.7969 191.921 52.3262 191.921 51.7988C191.921 51.0957 192.04 50.498 192.278 50.0059C192.517 49.5098 192.856 49.1328 193.298 48.875C193.743 48.6133 194.272 48.4824 194.886 48.4824C195.472 48.4824 195.983 48.6133 196.421 48.875C196.862 49.1367 197.204 49.5156 197.446 50.0117C197.692 50.5039 197.815 51.0996 197.815 51.7988ZM192.929 51.7988C192.929 52.3145 192.997 52.7617 193.134 53.1406C193.271 53.5195 193.481 53.8125 193.767 54.0195C194.052 54.2266 194.419 54.3301 194.868 54.3301C195.313 54.3301 195.679 54.2266 195.964 54.0195C196.253 53.8125 196.466 53.5195 196.603 53.1406C196.739 52.7617 196.808 52.3145 196.808 51.7988C196.808 51.2871 196.739 50.8457 196.603 50.4746C196.466 50.0996 196.255 49.8105 195.97 49.6074C195.685 49.4043 195.315 49.3027 194.862 49.3027C194.194 49.3027 193.704 49.5234 193.392 49.9648C193.083 50.4062 192.929 51.0176 192.929 51.7988Z" fill="white"/>
<path d="M230.25 33.0215C229.698 33.0215 229.25 32.5738 229.25 32.0215C229.25 31.4692 229.698 31.0215 230.25 31.0215H231.25V24.0215C231.25 22.6382 231.667 21.409 232.5 20.334C233.333 19.259 234.417 18.5548 235.75 18.2215V17.5215C235.75 17.1048 235.896 16.7507 236.188 16.459C236.479 16.1673 236.833 16.0215 237.25 16.0215C237.667 16.0215 238.021 16.1673 238.312 16.459C238.604 16.7507 238.75 17.1048 238.75 17.5215V18.2215C240.083 18.5548 241.167 19.259 242 20.334C242.833 21.409 243.25 22.6382 243.25 24.0215V31.0215H244.25C244.802 31.0215 245.25 31.4692 245.25 32.0215C245.25 32.5738 244.802 33.0215 244.25 33.0215H230.25ZM237.25 36.0215C236.7 36.0215 236.229 35.8257 235.838 35.434C235.446 35.0423 235.25 34.5715 235.25 34.0215H239.25C239.25 34.5715 239.054 35.0423 238.663 35.434C238.271 35.8257 237.8 36.0215 237.25 36.0215ZM233.25 31.0215H241.25V24.0215C241.25 22.9215 240.858 21.9798 240.075 21.1965C239.292 20.4132 238.35 20.0215 237.25 20.0215C236.15 20.0215 235.208 20.4132 234.425 21.1965C233.642 21.9798 233.25 22.9215 233.25 24.0215V31.0215Z" fill="white"/>
<path d="M210.066 55.0215H208.918L204.248 47.8262H204.201C204.213 48.0176 204.226 48.2363 204.242 48.4824C204.258 48.7246 204.269 48.9844 204.277 49.2617C204.289 49.5352 204.295 49.8145 204.295 50.0996V55.0215H203.369V46.4551H204.511L209.164 53.627H209.205C209.197 53.4902 209.187 53.2969 209.176 53.0469C209.164 52.793 209.152 52.5215 209.14 52.2324C209.133 51.9395 209.129 51.668 209.129 51.418V46.4551H210.066V55.0215ZM217.795 51.7988C217.795 52.3262 217.726 52.7969 217.59 53.2109C217.453 53.625 217.256 53.9746 216.998 54.2598C216.74 54.5449 216.427 54.7637 216.06 54.916C215.697 55.0645 215.285 55.1387 214.824 55.1387C214.394 55.1387 214 55.0645 213.64 54.916C213.285 54.7637 212.976 54.5449 212.715 54.2598C212.457 53.9746 212.256 53.625 212.111 53.2109C211.97 52.7969 211.9 52.3262 211.9 51.7988C211.9 51.0957 212.019 50.498 212.258 50.0059C212.496 49.5098 212.836 49.1328 213.277 48.875C213.722 48.6133 214.252 48.4824 214.865 48.4824C215.451 48.4824 215.963 48.6133 216.4 48.875C216.842 49.1367 217.183 49.5156 217.426 50.0117C217.672 50.5039 217.795 51.0996 217.795 51.7988ZM212.908 51.7988C212.908 52.3145 212.976 52.7617 213.113 53.1406C213.25 53.5195 213.461 53.8125 213.746 54.0195C214.031 54.2266 214.398 54.3301 214.847 54.3301C215.293 54.3301 215.658 54.2266 215.943 54.0195C216.232 53.8125 216.445 53.5195 216.582 53.1406C216.719 52.7617 216.787 52.3145 216.787 51.7988C216.787 51.2871 216.719 50.8457 216.582 50.4746C216.445 50.0996 216.234 49.8105 215.949 49.6074C215.664 49.4043 215.295 49.3027 214.842 49.3027C214.174 49.3027 213.683 49.5234 213.371 49.9648C213.062 50.4062 212.908 51.0176 212.908 51.7988ZM221.551 54.3418C221.711 54.3418 221.875 54.3281 222.043 54.3008C222.211 54.2734 222.347 54.2402 222.453 54.2012V54.957C222.34 55.0078 222.181 55.0508 221.978 55.0859C221.779 55.1211 221.584 55.1387 221.392 55.1387C221.052 55.1387 220.744 55.0801 220.467 54.9629C220.189 54.8418 219.967 54.6387 219.799 54.3535C219.635 54.0684 219.552 53.6738 219.552 53.1699V49.3613H218.638V48.8867L219.558 48.5059L219.945 47.1113H220.531V48.5996H222.412V49.3613H220.531V53.1406C220.531 53.543 220.623 53.8438 220.806 54.043C220.994 54.2422 221.242 54.3418 221.551 54.3418ZM224.726 48.5996V55.0215H223.754V48.5996H224.726ZM224.252 46.1973C224.412 46.1973 224.549 46.25 224.662 46.3555C224.779 46.457 224.838 46.6172 224.838 46.8359C224.838 47.0508 224.779 47.2109 224.662 47.3164C224.549 47.4219 224.412 47.4746 224.252 47.4746C224.084 47.4746 223.943 47.4219 223.83 47.3164C223.72 47.2109 223.666 47.0508 223.666 46.8359C223.666 46.6172 223.72 46.457 223.83 46.3555C223.943 46.25 224.084 46.1973 224.252 46.1973ZM229.648 49.3613H228.049V55.0215H227.076V49.3613H225.939V48.8926L227.076 48.5703V48.1426C227.076 47.6035 227.156 47.166 227.316 46.8301C227.476 46.4902 227.709 46.2402 228.013 46.0801C228.318 45.9199 228.689 45.8398 229.127 45.8398C229.373 45.8398 229.597 45.8613 229.801 45.9043C230.008 45.9473 230.189 45.9961 230.345 46.0508L230.094 46.8184C229.961 46.7754 229.81 46.7363 229.642 46.7012C229.478 46.6621 229.31 46.6426 229.138 46.6426C228.767 46.6426 228.492 46.7637 228.312 47.0059C228.136 47.2441 228.049 47.6191 228.049 48.1309V48.5996H229.648V49.3613ZM231.799 48.5996V55.0215H230.826V48.5996H231.799ZM231.324 46.1973C231.484 46.1973 231.621 46.25 231.734 46.3555C231.851 46.457 231.91 46.6172 231.91 46.8359C231.91 47.0508 231.851 47.2109 231.734 47.3164C231.621 47.4219 231.484 47.4746 231.324 47.4746C231.156 47.4746 231.015 47.4219 230.902 47.3164C230.793 47.2109 230.738 47.0508 230.738 46.8359C230.738 46.6172 230.793 46.457 230.902 46.3555C231.015 46.25 231.156 46.1973 231.324 46.1973ZM236.427 55.1387C235.849 55.1387 235.34 55.0195 234.898 54.7812C234.457 54.543 234.113 54.1797 233.867 53.6914C233.621 53.2031 233.498 52.5879 233.498 51.8457C233.498 51.0684 233.627 50.4336 233.885 49.9414C234.146 49.4453 234.506 49.0781 234.963 48.8398C235.42 48.6016 235.939 48.4824 236.521 48.4824C236.842 48.4824 237.15 48.5156 237.447 48.582C237.748 48.6445 237.994 48.7246 238.185 48.8223L237.892 49.6367C237.697 49.5586 237.47 49.4883 237.213 49.4258C236.959 49.3633 236.72 49.332 236.498 49.332C236.052 49.332 235.681 49.4277 235.385 49.6191C235.092 49.8105 234.871 50.0918 234.722 50.4629C234.578 50.834 234.506 51.291 234.506 51.834C234.506 52.3535 234.576 52.7969 234.717 53.1641C234.861 53.5312 235.074 53.8125 235.355 54.0078C235.64 54.1992 235.996 54.2949 236.422 54.2949C236.761 54.2949 237.068 54.2598 237.342 54.1895C237.615 54.1152 237.863 54.0293 238.086 53.9316V54.7988C237.871 54.9082 237.631 54.9922 237.365 55.0508C237.103 55.1094 236.791 55.1387 236.427 55.1387ZM242.011 48.4941C242.777 48.4941 243.345 48.666 243.717 49.0098C244.088 49.3535 244.273 49.9023 244.273 50.6562V55.0215H243.564L243.377 54.0723H243.33C243.15 54.3066 242.963 54.5039 242.767 54.6641C242.572 54.8203 242.345 54.9395 242.088 55.0215C241.834 55.0996 241.521 55.1387 241.15 55.1387C240.76 55.1387 240.412 55.0703 240.107 54.9336C239.806 54.7969 239.568 54.5898 239.392 54.3125C239.22 54.0352 239.135 53.6836 239.135 53.2578C239.135 52.6172 239.388 52.125 239.896 51.7812C240.404 51.4375 241.177 51.25 242.217 51.2188L243.324 51.1719V50.7793C243.324 50.2246 243.205 49.8359 242.967 49.6133C242.728 49.3906 242.392 49.2793 241.959 49.2793C241.623 49.2793 241.302 49.3281 240.998 49.4258C240.693 49.5234 240.404 49.6387 240.131 49.7715L239.832 49.0332C240.121 48.8848 240.453 48.7578 240.828 48.6523C241.203 48.5469 241.597 48.4941 242.011 48.4941ZM243.312 51.8574L242.334 51.8984C241.533 51.9297 240.969 52.0605 240.64 52.291C240.312 52.5215 240.148 52.8477 240.148 53.2695C240.148 53.6367 240.26 53.9082 240.482 54.084C240.705 54.2598 241 54.3477 241.367 54.3477C241.937 54.3477 242.404 54.1895 242.767 53.873C243.131 53.5566 243.312 53.082 243.312 52.4492V51.8574ZM248.351 54.3418C248.511 54.3418 248.676 54.3281 248.844 54.3008C249.011 54.2734 249.148 54.2402 249.254 54.2012V54.957C249.14 55.0078 248.982 55.0508 248.779 55.0859C248.58 55.1211 248.385 55.1387 248.193 55.1387C247.853 55.1387 247.545 55.0801 247.267 54.9629C246.99 54.8418 246.767 54.6387 246.599 54.3535C246.435 54.0684 246.353 53.6738 246.353 53.1699V49.3613H245.439V48.8867L246.359 48.5059L246.746 47.1113H247.332V48.5996H249.213V49.3613H247.332V53.1406C247.332 53.543 247.424 53.8438 247.607 54.043C247.795 54.2422 248.043 54.3418 248.351 54.3418ZM251.527 48.5996V55.0215H250.554V48.5996H251.527ZM251.052 46.1973C251.213 46.1973 251.349 46.25 251.463 46.3555C251.58 46.457 251.638 46.6172 251.638 46.8359C251.638 47.0508 251.58 47.2109 251.463 47.3164C251.349 47.4219 251.213 47.4746 251.052 47.4746C250.885 47.4746 250.744 47.4219 250.631 47.3164C250.521 47.2109 250.467 47.0508 250.467 46.8359C250.467 46.6172 250.521 46.457 250.631 46.3555C250.744 46.25 250.885 46.1973 251.052 46.1973ZM259.127 51.7988C259.127 52.3262 259.058 52.7969 258.922 53.2109C258.785 53.625 258.588 53.9746 258.33 54.2598C258.072 54.5449 257.76 54.7637 257.392 54.916C257.029 55.0645 256.617 55.1387 256.156 55.1387C255.726 55.1387 255.332 55.0645 254.972 54.916C254.617 54.7637 254.308 54.5449 254.047 54.2598C253.789 53.9746 253.588 53.625 253.443 53.2109C253.302 52.7969 253.232 52.3262 253.232 51.7988C253.232 51.0957 253.351 50.498 253.59 50.0059C253.828 49.5098 254.168 49.1328 254.609 48.875C255.054 48.6133 255.584 48.4824 256.197 48.4824C256.783 48.4824 257.295 48.6133 257.732 48.875C258.174 49.1367 258.515 49.5156 258.758 50.0117C259.004 50.5039 259.127 51.0996 259.127 51.7988ZM254.24 51.7988C254.24 52.3145 254.308 52.7617 254.445 53.1406C254.582 53.5195 254.793 53.8125 255.078 54.0195C255.363 54.2266 255.73 54.3301 256.179 54.3301C256.625 54.3301 256.99 54.2266 257.275 54.0195C257.564 53.8125 257.777 53.5195 257.914 53.1406C258.051 52.7617 258.119 52.3145 258.119 51.7988C258.119 51.2871 258.051 50.8457 257.914 50.4746C257.777 50.0996 257.566 49.8105 257.281 49.6074C256.996 49.4043 256.627 49.3027 256.174 49.3027C255.506 49.3027 255.015 49.5234 254.703 49.9648C254.394 50.4062 254.24 51.0176 254.24 51.7988ZM263.849 48.4824C264.611 48.4824 265.187 48.6699 265.578 49.0449C265.969 49.416 266.164 50.0137 266.164 50.8379V55.0215H265.203V50.9023C265.203 50.3672 265.08 49.9668 264.834 49.7012C264.592 49.4355 264.219 49.3027 263.715 49.3027C263.004 49.3027 262.504 49.5039 262.215 49.9062C261.926 50.3086 261.781 50.8926 261.781 51.6582V55.0215H260.808V48.5996H261.594L261.74 49.5254H261.793C261.929 49.2988 262.103 49.1094 262.314 48.957C262.525 48.8008 262.761 48.6836 263.023 48.6055C263.285 48.5234 263.56 48.4824 263.849 48.4824ZM272.322 53.2637C272.322 53.6738 272.219 54.0195 272.011 54.3008C271.808 54.5781 271.515 54.7871 271.133 54.9277C270.754 55.0684 270.301 55.1387 269.773 55.1387C269.324 55.1387 268.935 55.1035 268.607 55.0332C268.279 54.9629 267.992 54.8633 267.746 54.7344V53.8379C268.008 53.9668 268.32 54.084 268.683 54.1895C269.047 54.2949 269.418 54.3477 269.797 54.3477C270.351 54.3477 270.754 54.2578 271.004 54.0781C271.254 53.8984 271.379 53.6543 271.379 53.3457C271.379 53.1699 271.328 53.0156 271.226 52.8828C271.129 52.7461 270.963 52.6152 270.728 52.4902C270.494 52.3613 270.17 52.2207 269.756 52.0684C269.345 51.9121 268.99 51.7578 268.689 51.6055C268.392 51.4492 268.162 51.2598 267.998 51.0371C267.838 50.8145 267.758 50.5254 267.758 50.1699C267.758 49.627 267.976 49.2109 268.414 48.9219C268.855 48.6289 269.433 48.4824 270.148 48.4824C270.535 48.4824 270.896 48.5215 271.232 48.5996C271.572 48.6738 271.888 48.7754 272.181 48.9043L271.853 49.6836C271.588 49.5703 271.304 49.4746 271.004 49.3965C270.703 49.3184 270.396 49.2793 270.084 49.2793C269.635 49.2793 269.289 49.3535 269.047 49.502C268.808 49.6504 268.689 49.8535 268.689 50.1113C268.689 50.3105 268.744 50.4746 268.853 50.6035C268.967 50.7324 269.146 50.8535 269.392 50.9668C269.638 51.0801 269.963 51.2129 270.365 51.3652C270.767 51.5137 271.115 51.668 271.408 51.8281C271.701 51.9844 271.926 52.1758 272.082 52.4023C272.242 52.625 272.322 52.9121 272.322 53.2637Z" fill="white"/>
<path d="M287.08 26.1015C287.76 25.5815 288.52 25.1715 289.36 24.8715C290.2 24.5715 291.08 24.4215 292 24.4215C292.92 24.4215 293.8 24.5715 294.64 24.8715C295.48 25.1715 296.24 25.5815 296.92 26.1015C297.387 25.5548 297.75 24.9348 298.01 24.2415C298.27 23.5482 298.4 22.8082 298.4 22.0215C298.4 20.2482 297.777 18.7382 296.53 17.4915C295.283 16.2448 293.773 15.6215 292 15.6215C290.227 15.6215 288.717 16.2448 287.47 17.4915C286.223 18.7382 285.6 20.2482 285.6 22.0215C285.6 22.8082 285.73 23.5482 285.99 24.2415C286.25 24.9348 286.613 25.5548 287.08 26.1015ZM292 22.8215C291.213 22.8215 290.55 22.5515 290.01 22.0115C289.47 21.4715 289.2 20.8082 289.2 20.0215C289.2 19.2348 289.47 18.5715 290.01 18.0315C290.55 17.4915 291.213 17.2215 292 17.2215C292.787 17.2215 293.45 17.4915 293.99 18.0315C294.53 18.5715 294.8 19.2348 294.8 20.0215C294.8 20.8082 294.53 21.4715 293.99 22.0115C293.45 22.5515 292.787 22.8215 292 22.8215ZM292 30.0215C290.893 30.0215 289.853 29.8115 288.88 29.3915C287.907 28.9715 287.06 28.4015 286.34 27.6815C285.62 26.9615 285.05 26.1148 284.63 25.1415C284.21 24.1682 284 23.1282 284 22.0215C284 20.9148 284.21 19.8748 284.63 18.9015C285.05 17.9282 285.62 17.0815 286.34 16.3615C287.06 15.6415 287.907 15.0715 288.88 14.6515C289.853 14.2315 290.893 14.0215 292 14.0215C293.107 14.0215 294.147 14.2315 295.12 14.6515C296.093 15.0715 296.94 15.6415 297.66 16.3615C298.38 17.0815 298.95 17.9282 299.37 18.9015C299.79 19.8748 300 20.9148 300 22.0215C300 23.1282 299.79 24.1682 299.37 25.1415C298.95 26.1148 298.38 26.9615 297.66 27.6815C296.94 28.4015 296.093 28.9715 295.12 29.3915C294.147 29.8115 293.107 30.0215 292 30.0215ZM292 28.4215C292.707 28.4215 293.373 28.3182 294 28.1115C294.627 27.9048 295.2 27.6082 295.72 27.2215C295.2 26.8348 294.627 26.5382 294 26.3315C293.373 26.1248 292.707 26.0215 292 26.0215C291.293 26.0215 290.627 26.1248 290 26.3315C289.373 26.5382 288.8 26.8348 288.28 27.2215C288.8 27.6082 289.373 27.9048 290 28.1115C290.627 28.3182 291.293 28.4215 292 28.4215ZM292 21.2215C292.347 21.2215 292.633 21.1082 292.86 20.8815C293.087 20.6548 293.2 20.3682 293.2 20.0215C293.2 19.6748 293.087 19.3882 292.86 19.1615C292.633 18.9348 292.347 18.8215 292 18.8215C291.653 18.8215 291.367 18.9348 291.14 19.1615C290.913 19.3882 290.8 19.6748 290.8 20.0215C290.8 20.3682 290.913 20.6548 291.14 20.8815C291.367 21.1082 291.653 21.2215 292 21.2215Z" fill="#141414"/>
<path d="M274.776 54.0215V45.2942H277.724C278.409 45.2942 278.969 45.4178 279.403 45.6649C279.841 45.9093 280.165 46.2402 280.375 46.6578C280.585 47.0755 280.69 47.5414 280.69 48.0556C280.69 48.5698 280.585 49.0371 280.375 49.4576C280.168 49.878 279.847 50.2132 279.412 50.4632C278.977 50.7104 278.42 50.834 277.741 50.834H275.628V49.8965H277.707C278.176 49.8965 278.553 49.8155 278.837 49.6536C279.121 49.4917 279.327 49.2729 279.455 48.9973C279.585 48.7189 279.651 48.405 279.651 48.0556C279.651 47.7061 279.585 47.3936 279.455 47.1181C279.327 46.8425 279.119 46.6266 278.832 46.4703C278.545 46.3113 278.165 46.2317 277.69 46.2317H275.832V54.0215H274.776ZM282.256 54.0215V47.476H283.228V48.4647H283.296C283.415 48.1408 283.631 47.878 283.944 47.6763C284.256 47.4746 284.609 47.3738 285.001 47.3738C285.075 47.3738 285.167 47.3752 285.278 47.378C285.388 47.3809 285.472 47.3851 285.529 47.3908V48.4135C285.495 48.405 285.417 48.3922 285.295 48.3752C285.175 48.3553 285.049 48.3453 284.915 48.3453C284.597 48.3453 284.313 48.4121 284.063 48.5456C283.816 48.6763 283.62 48.8581 283.475 49.0911C283.333 49.3212 283.262 49.584 283.262 49.8794V54.0215H282.256ZM289.181 54.1578C288.59 54.1578 288.072 54.0172 287.626 53.736C287.183 53.4547 286.836 53.0613 286.586 52.5556C286.339 52.0499 286.215 51.459 286.215 50.7828C286.215 50.101 286.339 49.5059 286.586 48.9973C286.836 48.4888 287.183 48.0939 287.626 47.8127C288.072 47.5314 288.59 47.3908 289.181 47.3908C289.772 47.3908 290.289 47.5314 290.732 47.8127C291.178 48.0939 291.525 48.4888 291.772 48.9973C292.022 49.5059 292.147 50.101 292.147 50.7828C292.147 51.459 292.022 52.0499 291.772 52.5556C291.525 53.0613 291.178 53.4547 290.732 53.736C290.289 54.0172 289.772 54.1578 289.181 54.1578ZM289.181 53.2544C289.63 53.2544 289.999 53.1394 290.289 52.9093C290.579 52.6792 290.793 52.3766 290.933 52.0016C291.072 51.6266 291.141 51.2203 291.141 50.7828C291.141 50.3453 291.072 49.9377 290.933 49.5598C290.793 49.182 290.579 48.8766 290.289 48.6436C289.999 48.4107 289.63 48.2942 289.181 48.2942C288.732 48.2942 288.363 48.4107 288.073 48.6436C287.783 48.8766 287.569 49.182 287.43 49.5598C287.29 49.9377 287.221 50.3453 287.221 50.7828C287.221 51.2203 287.29 51.6266 287.43 52.0016C287.569 52.3766 287.783 52.6792 288.073 52.9093C288.363 53.1394 288.732 53.2544 289.181 53.2544ZM296.597 47.476V48.3283H293.069V47.476H296.597ZM294.125 54.0215V46.5726C294.125 46.1976 294.213 45.8851 294.39 45.6351C294.566 45.3851 294.794 45.1976 295.076 45.0726C295.357 44.9476 295.654 44.8851 295.966 44.8851C296.213 44.8851 296.415 44.905 296.571 44.9448C296.728 44.9846 296.844 45.0215 296.921 45.0556L296.631 45.9249C296.58 45.9078 296.509 45.8865 296.418 45.861C296.33 45.8354 296.213 45.8226 296.069 45.8226C295.736 45.8226 295.496 45.9064 295.348 46.074C295.203 46.2417 295.131 46.4874 295.131 46.8113V54.0215H294.125ZM298.006 54.0215V47.476H299.012V54.0215H298.006ZM298.518 46.3851C298.322 46.3851 298.153 46.3184 298.011 46.1848C297.871 46.0513 297.802 45.8908 297.802 45.7033C297.802 45.5158 297.871 45.3553 298.011 45.2218C298.153 45.0882 298.322 45.0215 298.518 45.0215C298.714 45.0215 298.881 45.0882 299.021 45.2218C299.163 45.3553 299.234 45.5158 299.234 45.7033C299.234 45.8908 299.163 46.0513 299.021 46.1848C298.881 46.3184 298.714 46.3851 298.518 46.3851ZM301.86 45.2942V54.0215H300.854V45.2942H301.86ZM306.446 54.1578C305.815 54.1578 305.271 54.0186 304.814 53.7402C304.359 53.459 304.009 53.0669 303.761 52.5641C303.517 52.0584 303.395 51.4703 303.395 50.7999C303.395 50.1294 303.517 49.5385 303.761 49.0272C304.009 48.513 304.352 48.1124 304.793 47.8255C305.236 47.5357 305.753 47.3908 306.344 47.3908C306.685 47.3908 307.021 47.4476 307.354 47.5613C307.686 47.6749 307.989 47.8596 308.261 48.1152C308.534 48.3681 308.751 48.7033 308.913 49.1209C309.075 49.5385 309.156 50.0527 309.156 50.6635V51.0897H304.111V50.2203H308.134C308.134 49.851 308.06 49.5215 307.912 49.2317C307.767 48.9419 307.56 48.7132 307.29 48.5456C307.023 48.378 306.707 48.2942 306.344 48.2942C305.943 48.2942 305.597 48.3936 305.304 48.5925C305.014 48.7885 304.791 49.0442 304.635 49.3596C304.479 49.6749 304.401 50.013 304.401 50.3738V50.9533C304.401 51.4476 304.486 51.8667 304.656 52.2104C304.83 52.5513 305.07 52.8113 305.376 52.9902C305.683 53.1664 306.04 53.2544 306.446 53.2544C306.71 53.2544 306.949 53.2175 307.162 53.1436C307.378 53.0669 307.564 52.9533 307.72 52.8027C307.876 52.6493 307.997 52.459 308.082 52.2317L309.054 52.5044C308.952 52.834 308.78 53.1238 308.538 53.3738C308.297 53.6209 307.999 53.8141 307.643 53.9533C307.288 54.0897 306.889 54.1578 306.446 54.1578Z" fill="white"/>
</svg>
