<svg width="393" height="72" viewBox="0 0 393 72" fill="none" xmlns="http://www.w3.org/2000/svg">
<mask id="path-1-inside-1_952_11476" fill="white">
<path d="M0 0H393V72H0V0Z"/>
</mask>
<path d="M0 0H393V72H0V0Z" fill="white"/>
<path d="M0 1H393V-1H0V1Z" fill="#E8E8E8" mask="url(#path-1-inside-1_952_11476)"/>
<path d="M56 29.5H59V24.5C59 24.2167 59.0958 23.9792 59.2875 23.7875C59.4792 23.5958 59.7167 23.5 60 23.5H64C64.2833 23.5 64.5208 23.5958 64.7125 23.7875C64.9042 23.9792 65 24.2167 65 24.5V29.5H68V20.5L62 16L56 20.5V29.5ZM54 29.5V20.5C54 20.1833 54.0708 19.8833 54.2125 19.6C54.3542 19.3167 54.55 19.0833 54.8 18.9L60.8 14.4C61.15 14.1333 61.55 14 62 14C62.45 14 62.85 14.1333 63.2 14.4L69.2 18.9C69.45 19.0833 69.6458 19.3167 69.7875 19.6C69.9292 19.8833 70 20.1833 70 20.5V29.5C70 30.05 69.8042 30.5208 69.4125 30.9125C69.0208 31.3042 68.55 31.5 68 31.5H64C63.7167 31.5 63.4792 31.4042 63.2875 31.2125C63.0958 31.0208 63 30.7833 63 30.5V25.5H61V30.5C61 30.7833 60.9042 31.0208 60.7125 31.2125C60.5208 31.4042 60.2833 31.5 60 31.5H56C55.45 31.5 54.9792 31.3042 54.5875 30.9125C54.1958 30.5208 54 30.05 54 29.5Z" fill="#141414"/>
<path d="M38.5601 50.6348C38.5601 51.5996 38.3843 52.4062 38.0327 53.0547C37.6812 53.6992 37.1714 54.1855 36.5034 54.5137C35.8394 54.8379 35.0327 55 34.0835 55H31.7573V46.4336H34.3413C35.2124 46.4336 35.9624 46.5938 36.5913 46.9141C37.2202 47.2305 37.7046 47.7012 38.0444 48.3262C38.3882 48.9473 38.5601 49.7168 38.5601 50.6348ZM37.5112 50.6699C37.5112 49.9004 37.3823 49.2656 37.1245 48.7656C36.8706 48.2656 36.4956 47.8945 35.9995 47.6523C35.5073 47.4062 34.9038 47.2832 34.189 47.2832H32.7534V54.1445H33.9663C35.146 54.1445 36.0308 53.8535 36.6206 53.2715C37.2144 52.6895 37.5112 51.8223 37.5112 50.6699ZM42.7202 48.4727C43.4858 48.4727 44.0542 48.6445 44.4253 48.9883C44.7964 49.332 44.9819 49.8809 44.9819 50.6348V55H44.2729L44.0854 54.0508H44.0386C43.8589 54.2852 43.6714 54.4824 43.4761 54.6426C43.2808 54.7988 43.0542 54.918 42.7964 55C42.5425 55.0781 42.23 55.1172 41.8589 55.1172C41.4683 55.1172 41.1206 55.0488 40.8159 54.9121C40.5151 54.7754 40.2769 54.5684 40.1011 54.291C39.9292 54.0137 39.8433 53.6621 39.8433 53.2363C39.8433 52.5957 40.0972 52.1035 40.605 51.7598C41.1128 51.416 41.8862 51.2285 42.9253 51.1973L44.0327 51.1504V50.7578C44.0327 50.2031 43.9136 49.8145 43.6753 49.5918C43.437 49.3691 43.1011 49.2578 42.6675 49.2578C42.3315 49.2578 42.0112 49.3066 41.7065 49.4043C41.4019 49.502 41.1128 49.6172 40.8394 49.75L40.5405 49.0117C40.8296 48.8633 41.1616 48.7363 41.5366 48.6309C41.9116 48.5254 42.3062 48.4727 42.7202 48.4727ZM44.021 51.8359L43.0425 51.877C42.2417 51.9082 41.6772 52.0391 41.3491 52.2695C41.021 52.5 40.8569 52.8262 40.8569 53.248C40.8569 53.6152 40.9683 53.8867 41.1909 54.0625C41.4136 54.2383 41.7085 54.3262 42.0757 54.3262C42.646 54.3262 43.1128 54.168 43.4761 53.8516C43.8394 53.5352 44.021 53.0605 44.021 52.4277V51.8359ZM51.1401 53.2422C51.1401 53.6523 51.0366 53.998 50.8296 54.2793C50.6265 54.5566 50.3335 54.7656 49.9507 54.9062C49.5718 55.0469 49.1187 55.1172 48.5913 55.1172C48.1421 55.1172 47.7534 55.082 47.4253 55.0117C47.0972 54.9414 46.8101 54.8418 46.564 54.7129V53.8164C46.8257 53.9453 47.1382 54.0625 47.5015 54.168C47.8647 54.2734 48.2358 54.3262 48.6147 54.3262C49.1694 54.3262 49.5718 54.2363 49.8218 54.0566C50.0718 53.877 50.1968 53.6328 50.1968 53.3242C50.1968 53.1484 50.146 52.9941 50.0444 52.8613C49.9468 52.7246 49.7808 52.5938 49.5464 52.4688C49.312 52.3398 48.9878 52.1992 48.5737 52.0469C48.1636 51.8906 47.8081 51.7363 47.5073 51.584C47.2104 51.4277 46.98 51.2383 46.8159 51.0156C46.6558 50.793 46.5757 50.5039 46.5757 50.1484C46.5757 49.6055 46.7944 49.1895 47.2319 48.9004C47.6733 48.6074 48.2515 48.4609 48.9663 48.4609C49.353 48.4609 49.7144 48.5 50.0503 48.5781C50.3901 48.6523 50.7065 48.7539 50.9995 48.8828L50.6714 49.6621C50.4058 49.5488 50.1226 49.4531 49.8218 49.375C49.521 49.2969 49.2144 49.2578 48.9019 49.2578C48.4526 49.2578 48.1069 49.332 47.8647 49.4805C47.6265 49.6289 47.5073 49.832 47.5073 50.0898C47.5073 50.2891 47.562 50.4531 47.6714 50.582C47.7847 50.7109 47.9644 50.832 48.2104 50.9453C48.4565 51.0586 48.7808 51.1914 49.1831 51.3438C49.5854 51.4922 49.9331 51.6465 50.2261 51.8066C50.519 51.9629 50.7437 52.1543 50.8999 52.3809C51.0601 52.6035 51.1401 52.8906 51.1401 53.2422ZM53.6772 45.8828V48.6074C53.6772 48.7637 53.6733 48.9219 53.6655 49.082C53.6577 49.2383 53.644 49.3828 53.6245 49.5156H53.689C53.8218 49.2891 53.9897 49.0996 54.1929 48.9473C54.3999 48.791 54.6343 48.6738 54.896 48.5957C55.1577 48.5137 55.4351 48.4727 55.728 48.4727C56.2437 48.4727 56.6733 48.5547 57.0171 48.7188C57.3647 48.8828 57.6245 49.1367 57.7964 49.4805C57.9722 49.8242 58.0601 50.2695 58.0601 50.8164V55H57.0991V50.8809C57.0991 50.3457 56.9761 49.9453 56.73 49.6797C56.4878 49.4141 56.1147 49.2812 55.6108 49.2812C55.1343 49.2812 54.7534 49.373 54.4683 49.5566C54.187 49.7363 53.9839 50.002 53.8589 50.3535C53.7378 50.7051 53.6772 51.1348 53.6772 51.6426V55H52.7046V45.8828H53.6772ZM61.0366 45.8828V48.1621C61.0366 48.4238 61.0288 48.6777 61.0132 48.9238C61.0015 49.1699 60.9917 49.3613 60.9839 49.498H61.0366C61.2124 49.209 61.4663 48.9648 61.7983 48.7656C62.1304 48.5664 62.5542 48.4668 63.0698 48.4668C63.8745 48.4668 64.5151 48.7461 64.9917 49.3047C65.4722 49.8594 65.7124 50.6855 65.7124 51.7832C65.7124 52.5059 65.603 53.1152 65.3843 53.6113C65.1655 54.1074 64.8569 54.4824 64.4585 54.7363C64.0601 54.9902 63.5894 55.1172 63.0464 55.1172C62.5386 55.1172 62.1206 55.0234 61.7925 54.8359C61.4683 54.6445 61.2183 54.4121 61.0425 54.1387H60.9663L60.7671 55H60.064V45.8828H61.0366ZM62.9116 49.2812C62.4468 49.2812 62.0776 49.373 61.8042 49.5566C61.5308 49.7363 61.3335 50.0098 61.2124 50.377C61.0952 50.7402 61.0366 51.2012 61.0366 51.7598V51.8125C61.0366 52.6211 61.1714 53.2402 61.4409 53.6699C61.7104 54.0957 62.2007 54.3086 62.9116 54.3086C63.5093 54.3086 63.9565 54.0898 64.2534 53.6523C64.5542 53.2148 64.7046 52.5898 64.7046 51.7773C64.7046 50.9492 64.5562 50.3262 64.2593 49.9082C63.9663 49.4902 63.5171 49.2812 62.9116 49.2812ZM72.9487 51.7773C72.9487 52.3047 72.8804 52.7754 72.7437 53.1895C72.6069 53.6035 72.4097 53.9531 72.1519 54.2383C71.894 54.5234 71.5815 54.7422 71.2144 54.8945C70.8511 55.043 70.439 55.1172 69.978 55.1172C69.5483 55.1172 69.1538 55.043 68.7944 54.8945C68.439 54.7422 68.1304 54.5234 67.8687 54.2383C67.6108 53.9531 67.4097 53.6035 67.2651 53.1895C67.1245 52.7754 67.0542 52.3047 67.0542 51.7773C67.0542 51.0742 67.1733 50.4766 67.4116 49.9844C67.6499 49.4883 67.9897 49.1113 68.4312 48.8535C68.8765 48.5918 69.4058 48.4609 70.019 48.4609C70.605 48.4609 71.1167 48.5918 71.5542 48.8535C71.9956 49.1152 72.3374 49.4941 72.5796 49.9902C72.8257 50.4824 72.9487 51.0781 72.9487 51.7773ZM68.062 51.7773C68.062 52.293 68.1304 52.7402 68.2671 53.1191C68.4038 53.498 68.6147 53.791 68.8999 53.998C69.1851 54.2051 69.5522 54.3086 70.0015 54.3086C70.4468 54.3086 70.812 54.2051 71.0972 53.998C71.3862 53.791 71.5991 53.498 71.7358 53.1191C71.8726 52.7402 71.9409 52.293 71.9409 51.7773C71.9409 51.2656 71.8726 50.8242 71.7358 50.4531C71.5991 50.0781 71.3882 49.7891 71.103 49.5859C70.8179 49.3828 70.4487 49.2812 69.9956 49.2812C69.3276 49.2812 68.8374 49.502 68.5249 49.9434C68.2163 50.3848 68.062 50.9961 68.062 51.7773ZM77.0327 48.4727C77.7983 48.4727 78.3667 48.6445 78.7378 48.9883C79.1089 49.332 79.2944 49.8809 79.2944 50.6348V55H78.5854L78.3979 54.0508H78.3511C78.1714 54.2852 77.9839 54.4824 77.7886 54.6426C77.5933 54.7988 77.3667 54.918 77.1089 55C76.855 55.0781 76.5425 55.1172 76.1714 55.1172C75.7808 55.1172 75.4331 55.0488 75.1284 54.9121C74.8276 54.7754 74.5894 54.5684 74.4136 54.291C74.2417 54.0137 74.1558 53.6621 74.1558 53.2363C74.1558 52.5957 74.4097 52.1035 74.9175 51.7598C75.4253 51.416 76.1987 51.2285 77.2378 51.1973L78.3452 51.1504V50.7578C78.3452 50.2031 78.2261 49.8145 77.9878 49.5918C77.7495 49.3691 77.4136 49.2578 76.98 49.2578C76.644 49.2578 76.3237 49.3066 76.019 49.4043C75.7144 49.502 75.4253 49.6172 75.1519 49.75L74.853 49.0117C75.1421 48.8633 75.4741 48.7363 75.8491 48.6309C76.2241 48.5254 76.6187 48.4727 77.0327 48.4727ZM78.3335 51.8359L77.355 51.877C76.5542 51.9082 75.9897 52.0391 75.6616 52.2695C75.3335 52.5 75.1694 52.8262 75.1694 53.248C75.1694 53.6152 75.2808 53.8867 75.5034 54.0625C75.7261 54.2383 76.021 54.3262 76.3882 54.3262C76.9585 54.3262 77.4253 54.168 77.7886 53.8516C78.1519 53.5352 78.3335 53.0605 78.3335 52.4277V51.8359ZM84.2163 48.4609C84.3452 48.4609 84.48 48.4688 84.6206 48.4844C84.7612 48.4961 84.8862 48.5137 84.9956 48.5371L84.8726 49.4395C84.7671 49.4121 84.6499 49.3906 84.521 49.375C84.3921 49.3594 84.271 49.3516 84.1577 49.3516C83.8999 49.3516 83.6558 49.4043 83.4253 49.5098C83.1987 49.6113 82.9995 49.7598 82.8276 49.9551C82.6558 50.1465 82.521 50.3789 82.4233 50.6523C82.3257 50.9219 82.2769 51.2227 82.2769 51.5547V55H81.2983V48.5781H82.1069L82.2124 49.7617H82.2534C82.3862 49.5234 82.5464 49.3066 82.7339 49.1113C82.9214 48.9121 83.1382 48.7539 83.3843 48.6367C83.6343 48.5195 83.9116 48.4609 84.2163 48.4609ZM88.4937 55.1172C87.6812 55.1172 87.0366 54.8398 86.5601 54.2852C86.0874 53.7305 85.8511 52.9062 85.8511 51.8125C85.8511 50.707 86.0933 49.873 86.5776 49.3105C87.062 48.7441 87.7065 48.4609 88.5112 48.4609C88.8511 48.4609 89.1479 48.5059 89.4019 48.5957C89.6558 48.6855 89.8745 48.8066 90.0581 48.959C90.2417 49.1074 90.396 49.2773 90.521 49.4688H90.5913C90.5757 49.3477 90.5601 49.1816 90.5444 48.9707C90.5288 48.7598 90.521 48.5879 90.521 48.4551V45.8828H91.4937V55H90.7085L90.562 54.0859H90.521C90.3999 54.2773 90.2456 54.4512 90.0581 54.6074C89.8745 54.7637 89.6538 54.8887 89.396 54.9824C89.1421 55.0723 88.8413 55.1172 88.4937 55.1172ZM88.646 54.3086C89.3335 54.3086 89.8198 54.1133 90.105 53.7227C90.3901 53.332 90.5327 52.752 90.5327 51.9824V51.8066C90.5327 50.9902 90.396 50.3633 90.1226 49.9258C89.853 49.4883 89.3608 49.2695 88.646 49.2695C88.0483 49.2695 87.6011 49.5 87.3042 49.9609C87.0073 50.418 86.8589 51.043 86.8589 51.8359C86.8589 52.625 87.0054 53.2344 87.2983 53.6641C87.5952 54.0938 88.0444 54.3086 88.646 54.3086Z" fill="#141414"/>
<path d="M125.75 34C125.2 34 124.729 33.8042 124.338 33.4125C123.946 33.0208 123.75 32.55 123.75 32V18C123.75 17.45 123.946 16.9792 124.338 16.5875C124.729 16.1958 125.2 16 125.75 16H126.75V15C126.75 14.7167 126.846 14.4792 127.038 14.2875C127.229 14.0958 127.467 14 127.75 14C128.033 14 128.271 14.0958 128.463 14.2875C128.654 14.4792 128.75 14.7167 128.75 15V16H136.75V15C136.75 14.7167 136.846 14.4792 137.038 14.2875C137.229 14.0958 137.467 14 137.75 14C138.033 14 138.271 14.0958 138.463 14.2875C138.654 14.4792 138.75 14.7167 138.75 15V16H139.75C140.3 16 140.771 16.1958 141.163 16.5875C141.554 16.9792 141.75 17.45 141.75 18V32C141.75 32.55 141.554 33.0208 141.163 33.4125C140.771 33.8042 140.3 34 139.75 34H125.75ZM125.75 32H139.75V22H125.75V32ZM125.75 20H139.75V18H125.75V20ZM132.75 26C132.467 26 132.229 25.9042 132.038 25.7125C131.846 25.5208 131.75 25.2833 131.75 25C131.75 24.7167 131.846 24.4792 132.038 24.2875C132.229 24.0958 132.467 24 132.75 24C133.033 24 133.271 24.0958 133.463 24.2875C133.654 24.4792 133.75 24.7167 133.75 25C133.75 25.2833 133.654 25.5208 133.463 25.7125C133.271 25.9042 133.033 26 132.75 26ZM128.75 26C128.467 26 128.229 25.9042 128.037 25.7125C127.846 25.5208 127.75 25.2833 127.75 25C127.75 24.7167 127.846 24.4792 128.037 24.2875C128.229 24.0958 128.467 24 128.75 24C129.033 24 129.271 24.0958 129.463 24.2875C129.654 24.4792 129.75 24.7167 129.75 25C129.75 25.2833 129.654 25.5208 129.463 25.7125C129.271 25.9042 129.033 26 128.75 26ZM136.75 26C136.467 26 136.229 25.9042 136.038 25.7125C135.846 25.5208 135.75 25.2833 135.75 25C135.75 24.7167 135.846 24.4792 136.038 24.2875C136.229 24.0958 136.467 24 136.75 24C137.033 24 137.271 24.0958 137.463 24.2875C137.654 24.4792 137.75 24.7167 137.75 25C137.75 25.2833 137.654 25.5208 137.463 25.7125C137.271 25.9042 137.033 26 136.75 26ZM132.75 30C132.467 30 132.229 29.9042 132.038 29.7125C131.846 29.5208 131.75 29.2833 131.75 29C131.75 28.7167 131.846 28.4792 132.038 28.2875C132.229 28.0958 132.467 28 132.75 28C133.033 28 133.271 28.0958 133.463 28.2875C133.654 28.4792 133.75 28.7167 133.75 29C133.75 29.2833 133.654 29.5208 133.463 29.7125C133.271 29.9042 133.033 30 132.75 30ZM128.75 30C128.467 30 128.229 29.9042 128.037 29.7125C127.846 29.5208 127.75 29.2833 127.75 29C127.75 28.7167 127.846 28.4792 128.037 28.2875C128.229 28.0958 128.467 28 128.75 28C129.033 28 129.271 28.0958 129.463 28.2875C129.654 28.4792 129.75 28.7167 129.75 29C129.75 29.2833 129.654 29.5208 129.463 29.7125C129.271 29.9042 129.033 30 128.75 30ZM136.75 30C136.467 30 136.229 29.9042 136.038 29.7125C135.846 29.5208 135.75 29.2833 135.75 29C135.75 28.7167 135.846 28.4792 136.038 28.2875C136.229 28.0958 136.467 28 136.75 28C137.033 28 137.271 28.0958 137.463 28.2875C137.654 28.4792 137.75 28.7167 137.75 29C137.75 29.2833 137.654 29.5208 137.463 29.7125C137.271 29.9042 137.033 30 136.75 30Z" fill="#141414"/>
<path d="M113.099 52.7207C113.099 53.2285 112.972 53.6621 112.718 54.0215C112.468 54.377 112.117 54.6484 111.664 54.8359C111.21 55.0234 110.677 55.1172 110.064 55.1172C109.74 55.1172 109.433 55.1016 109.144 55.0703C108.855 55.0391 108.589 54.9941 108.347 54.9355C108.105 54.877 107.892 54.8047 107.708 54.7188V53.7637C108.001 53.8848 108.359 53.998 108.781 54.1035C109.203 54.2051 109.644 54.2559 110.105 54.2559C110.535 54.2559 110.898 54.1992 111.195 54.0859C111.492 53.9688 111.716 53.8027 111.869 53.5879C112.025 53.3691 112.103 53.1074 112.103 52.8027C112.103 52.5098 112.039 52.2656 111.91 52.0703C111.781 51.8711 111.566 51.6914 111.265 51.5312C110.968 51.3672 110.562 51.1934 110.046 51.0098C109.683 50.8809 109.363 50.7402 109.085 50.5879C108.808 50.4316 108.576 50.2559 108.388 50.0605C108.201 49.8652 108.058 49.6387 107.96 49.3809C107.867 49.123 107.82 48.8281 107.82 48.4961C107.82 48.0391 107.935 47.6484 108.166 47.3242C108.4 46.9961 108.722 46.7461 109.132 46.5742C109.546 46.3984 110.021 46.3105 110.556 46.3105C111.013 46.3105 111.435 46.3535 111.822 46.4395C112.212 46.5254 112.57 46.6406 112.894 46.7852L112.583 47.6406C112.275 47.5117 111.947 47.4043 111.599 47.3184C111.255 47.2324 110.9 47.1895 110.533 47.1895C110.166 47.1895 109.855 47.2441 109.601 47.3535C109.351 47.459 109.16 47.6094 109.027 47.8047C108.894 48 108.828 48.2324 108.828 48.502C108.828 48.8027 108.89 49.0527 109.015 49.252C109.144 49.4512 109.347 49.6289 109.625 49.7852C109.906 49.9375 110.277 50.0977 110.738 50.2656C111.242 50.4492 111.669 50.6445 112.021 50.8516C112.373 51.0547 112.64 51.3047 112.824 51.6016C113.007 51.8945 113.099 52.2676 113.099 52.7207ZM117.277 55.1172C116.699 55.1172 116.189 54.998 115.748 54.7598C115.306 54.5215 114.962 54.1582 114.716 53.6699C114.47 53.1816 114.347 52.5664 114.347 51.8242C114.347 51.0469 114.476 50.4121 114.734 49.9199C114.996 49.4238 115.355 49.0566 115.812 48.8184C116.269 48.5801 116.789 48.4609 117.371 48.4609C117.691 48.4609 118 48.4941 118.296 48.5605C118.597 48.623 118.843 48.7031 119.035 48.8008L118.742 49.6152C118.546 49.5371 118.32 49.4668 118.062 49.4043C117.808 49.3418 117.57 49.3105 117.347 49.3105C116.902 49.3105 116.531 49.4062 116.234 49.5977C115.941 49.7891 115.72 50.0703 115.572 50.4414C115.427 50.8125 115.355 51.2695 115.355 51.8125C115.355 52.332 115.425 52.7754 115.566 53.1426C115.71 53.5098 115.923 53.791 116.205 53.9863C116.49 54.1777 116.845 54.2734 117.271 54.2734C117.611 54.2734 117.917 54.2383 118.191 54.168C118.464 54.0938 118.712 54.0078 118.935 53.9102V54.7773C118.72 54.8867 118.48 54.9707 118.214 55.0293C117.953 55.0879 117.64 55.1172 117.277 55.1172ZM121.431 45.8828V48.6074C121.431 48.7637 121.427 48.9219 121.419 49.082C121.412 49.2383 121.398 49.3828 121.378 49.5156H121.443C121.576 49.2891 121.744 49.0996 121.947 48.9473C122.154 48.791 122.388 48.6738 122.65 48.5957C122.912 48.5137 123.189 48.4727 123.482 48.4727C123.998 48.4727 124.427 48.5547 124.771 48.7188C125.119 48.8828 125.378 49.1367 125.55 49.4805C125.726 49.8242 125.814 50.2695 125.814 50.8164V55H124.853V50.8809C124.853 50.3457 124.73 49.9453 124.484 49.6797C124.242 49.4141 123.869 49.2812 123.365 49.2812C122.888 49.2812 122.507 49.373 122.222 49.5566C121.941 49.7363 121.738 50.002 121.613 50.3535C121.492 50.7051 121.431 51.1348 121.431 51.6426V55H120.458V45.8828H121.431ZM130.291 48.4609C130.837 48.4609 131.306 48.582 131.697 48.8242C132.087 49.0664 132.386 49.4062 132.593 49.8438C132.8 50.2773 132.904 50.7852 132.904 51.3672V51.9707H128.468C128.48 52.7246 128.667 53.2988 129.031 53.6934C129.394 54.0879 129.906 54.2852 130.566 54.2852C130.972 54.2852 131.332 54.248 131.644 54.1738C131.957 54.0996 132.281 53.9902 132.617 53.8457V54.7012C132.292 54.8457 131.97 54.9512 131.65 55.0176C131.333 55.084 130.958 55.1172 130.525 55.1172C129.908 55.1172 129.369 54.9922 128.908 54.7422C128.451 54.4883 128.095 54.1172 127.841 53.6289C127.587 53.1406 127.46 52.543 127.46 51.8359C127.46 51.1445 127.576 50.5469 127.806 50.043C128.041 49.5352 128.369 49.1445 128.791 48.8711C129.216 48.5977 129.716 48.4609 130.291 48.4609ZM130.279 49.2578C129.759 49.2578 129.345 49.4277 129.037 49.7676C128.728 50.1074 128.544 50.582 128.486 51.1914H131.884C131.88 50.8086 131.82 50.4727 131.703 50.1836C131.589 49.8906 131.416 49.6641 131.181 49.5039C130.947 49.3398 130.646 49.2578 130.279 49.2578ZM136.841 55.1172C136.029 55.1172 135.384 54.8398 134.908 54.2852C134.435 53.7305 134.199 52.9062 134.199 51.8125C134.199 50.707 134.441 49.873 134.925 49.3105C135.41 48.7441 136.054 48.4609 136.859 48.4609C137.199 48.4609 137.496 48.5059 137.75 48.5957C138.003 48.6855 138.222 48.8066 138.406 48.959C138.589 49.1074 138.744 49.2773 138.869 49.4688H138.939C138.923 49.3477 138.908 49.1816 138.892 48.9707C138.876 48.7598 138.869 48.5879 138.869 48.4551V45.8828H139.841V55H139.056L138.91 54.0859H138.869C138.748 54.2773 138.593 54.4512 138.406 54.6074C138.222 54.7637 138.001 54.8887 137.744 54.9824C137.49 55.0723 137.189 55.1172 136.841 55.1172ZM136.994 54.3086C137.681 54.3086 138.167 54.1133 138.453 53.7227C138.738 53.332 138.88 52.752 138.88 51.9824V51.8066C138.88 50.9902 138.744 50.3633 138.47 49.9258C138.201 49.4883 137.708 49.2695 136.994 49.2695C136.396 49.2695 135.949 49.5 135.652 49.9609C135.355 50.418 135.207 51.043 135.207 51.8359C135.207 52.625 135.353 53.2344 135.646 53.6641C135.943 54.0938 136.392 54.3086 136.994 54.3086ZM147.207 48.5781V55H146.41L146.269 54.0977H146.216C146.083 54.3203 145.912 54.5078 145.701 54.6602C145.49 54.8125 145.251 54.9258 144.986 55C144.724 55.0781 144.445 55.1172 144.148 55.1172C143.64 55.1172 143.214 55.0352 142.871 54.8711C142.527 54.707 142.267 54.4531 142.091 54.1094C141.919 53.7656 141.833 53.3242 141.833 52.7852V48.5781H142.818V52.7148C142.818 53.25 142.939 53.6504 143.181 53.916C143.423 54.1777 143.792 54.3086 144.289 54.3086C144.765 54.3086 145.144 54.2188 145.425 54.0391C145.71 53.8594 145.916 53.5957 146.041 53.248C146.166 52.8965 146.228 52.4668 146.228 51.959V48.5781H147.207ZM150.242 55H149.263V45.8828H150.242V55ZM154.771 48.4609C155.318 48.4609 155.787 48.582 156.177 48.8242C156.568 49.0664 156.867 49.4062 157.074 49.8438C157.281 50.2773 157.384 50.7852 157.384 51.3672V51.9707H152.949C152.96 52.7246 153.148 53.2988 153.511 53.6934C153.875 54.0879 154.386 54.2852 155.046 54.2852C155.453 54.2852 155.812 54.248 156.125 54.1738C156.437 54.0996 156.761 53.9902 157.097 53.8457V54.7012C156.773 54.8457 156.451 54.9512 156.13 55.0176C155.814 55.084 155.439 55.1172 155.005 55.1172C154.388 55.1172 153.849 54.9922 153.388 54.7422C152.931 54.4883 152.576 54.1172 152.322 53.6289C152.068 53.1406 151.941 52.543 151.941 51.8359C151.941 51.1445 152.056 50.5469 152.287 50.043C152.521 49.5352 152.849 49.1445 153.271 48.8711C153.697 48.5977 154.197 48.4609 154.771 48.4609ZM154.759 49.2578C154.24 49.2578 153.826 49.4277 153.517 49.7676C153.208 50.1074 153.025 50.582 152.966 51.1914H156.365C156.361 50.8086 156.3 50.4727 156.183 50.1836C156.07 49.8906 155.896 49.6641 155.662 49.5039C155.427 49.3398 155.126 49.2578 154.759 49.2578Z" fill="#141414"/>
<path d="M200.5 19V15C200.5 14.7167 200.596 14.4792 200.788 14.2875C200.979 14.0958 201.217 14 201.5 14H207.5C207.783 14 208.021 14.0958 208.212 14.2875C208.404 14.4792 208.5 14.7167 208.5 15V19C208.5 19.2833 208.404 19.5208 208.212 19.7125C208.021 19.9042 207.783 20 207.5 20H201.5C201.217 20 200.979 19.9042 200.788 19.7125C200.596 19.5208 200.5 19.2833 200.5 19ZM190.5 23V15C190.5 14.7167 190.596 14.4792 190.787 14.2875C190.979 14.0958 191.217 14 191.5 14H197.5C197.783 14 198.021 14.0958 198.213 14.2875C198.404 14.4792 198.5 14.7167 198.5 15V23C198.5 23.2833 198.404 23.5208 198.213 23.7125C198.021 23.9042 197.783 24 197.5 24H191.5C191.217 24 190.979 23.9042 190.787 23.7125C190.596 23.5208 190.5 23.2833 190.5 23ZM200.5 31V23C200.5 22.7167 200.596 22.4792 200.788 22.2875C200.979 22.0958 201.217 22 201.5 22H207.5C207.783 22 208.021 22.0958 208.212 22.2875C208.404 22.4792 208.5 22.7167 208.5 23V31C208.5 31.2833 208.404 31.5208 208.212 31.7125C208.021 31.9042 207.783 32 207.5 32H201.5C201.217 32 200.979 31.9042 200.788 31.7125C200.596 31.5208 200.5 31.2833 200.5 31ZM190.5 31V27C190.5 26.7167 190.596 26.4792 190.787 26.2875C190.979 26.0958 191.217 26 191.5 26H197.5C197.783 26 198.021 26.0958 198.213 26.2875C198.404 26.4792 198.5 26.7167 198.5 27V31C198.5 31.2833 198.404 31.5208 198.213 31.7125C198.021 31.9042 197.783 32 197.5 32H191.5C191.217 32 190.979 31.9042 190.787 31.7125C190.596 31.5208 190.5 31.2833 190.5 31ZM192.5 22H196.5V16H192.5V22ZM202.5 30H206.5V24H202.5V30ZM202.5 18H206.5V16H202.5V18ZM192.5 30H196.5V28H192.5V30Z" fill="#141414"/>
<path d="M179.206 46.4336C180.312 46.4336 181.118 46.6504 181.626 47.084C182.138 47.5137 182.394 48.1309 182.394 48.9355C182.394 49.2988 182.333 49.6445 182.212 49.9727C182.095 50.2969 181.903 50.584 181.638 50.834C181.372 51.0801 181.022 51.2754 180.589 51.4199C180.159 51.5605 179.632 51.6309 179.007 51.6309H177.964V55H176.968V46.4336H179.206ZM179.112 47.2832H177.964V50.7754H178.896C179.442 50.7754 179.897 50.7168 180.261 50.5996C180.628 50.4824 180.903 50.293 181.087 50.0312C181.271 49.7656 181.362 49.4141 181.362 48.9766C181.362 48.4062 181.181 47.9824 180.817 47.7051C180.454 47.4238 179.886 47.2832 179.112 47.2832ZM189.577 51.7773C189.577 52.3047 189.509 52.7754 189.372 53.1895C189.235 53.6035 189.038 53.9531 188.78 54.2383C188.522 54.5234 188.21 54.7422 187.843 54.8945C187.479 55.043 187.067 55.1172 186.606 55.1172C186.177 55.1172 185.782 55.043 185.423 54.8945C185.067 54.7422 184.759 54.5234 184.497 54.2383C184.239 53.9531 184.038 53.6035 183.894 53.1895C183.753 52.7754 183.683 52.3047 183.683 51.7773C183.683 51.0742 183.802 50.4766 184.04 49.9844C184.278 49.4883 184.618 49.1113 185.06 48.8535C185.505 48.5918 186.034 48.4609 186.647 48.4609C187.233 48.4609 187.745 48.5918 188.183 48.8535C188.624 49.1152 188.966 49.4941 189.208 49.9902C189.454 50.4824 189.577 51.0781 189.577 51.7773ZM184.69 51.7773C184.69 52.293 184.759 52.7402 184.896 53.1191C185.032 53.498 185.243 53.791 185.528 53.998C185.813 54.2051 186.181 54.3086 186.63 54.3086C187.075 54.3086 187.44 54.2051 187.726 53.998C188.015 53.791 188.228 53.498 188.364 53.1191C188.501 52.7402 188.569 52.293 188.569 51.7773C188.569 51.2656 188.501 50.8242 188.364 50.4531C188.228 50.0781 188.017 49.7891 187.731 49.5859C187.446 49.3828 187.077 49.2812 186.624 49.2812C185.956 49.2812 185.466 49.502 185.153 49.9434C184.845 50.3848 184.69 50.9961 184.69 51.7773ZM194.177 48.4609C194.306 48.4609 194.44 48.4688 194.581 48.4844C194.722 48.4961 194.847 48.5137 194.956 48.5371L194.833 49.4395C194.728 49.4121 194.61 49.3906 194.481 49.375C194.353 49.3594 194.231 49.3516 194.118 49.3516C193.86 49.3516 193.616 49.4043 193.386 49.5098C193.159 49.6113 192.96 49.7598 192.788 49.9551C192.616 50.1465 192.481 50.3789 192.384 50.6523C192.286 50.9219 192.237 51.2227 192.237 51.5547V55H191.259V48.5781H192.067L192.173 49.7617H192.214C192.347 49.5234 192.507 49.3066 192.694 49.1113C192.882 48.9121 193.099 48.7539 193.345 48.6367C193.595 48.5195 193.872 48.4609 194.177 48.4609ZM198.243 54.3203C198.403 54.3203 198.567 54.3066 198.735 54.2793C198.903 54.252 199.04 54.2188 199.146 54.1797V54.9355C199.032 54.9863 198.874 55.0293 198.671 55.0645C198.472 55.0996 198.276 55.1172 198.085 55.1172C197.745 55.1172 197.437 55.0586 197.159 54.9414C196.882 54.8203 196.659 54.6172 196.491 54.332C196.327 54.0469 196.245 53.6523 196.245 53.1484V49.3398H195.331V48.8652L196.251 48.4844L196.638 47.0898H197.224V48.5781H199.104V49.3398H197.224V53.1191C197.224 53.5215 197.315 53.8223 197.499 54.0215C197.687 54.2207 197.935 54.3203 198.243 54.3203ZM203.306 49.3398H201.706V55H200.733V49.3398H199.597V48.8711L200.733 48.5488V48.1211C200.733 47.582 200.813 47.1445 200.974 46.8086C201.134 46.4688 201.366 46.2188 201.671 46.0586C201.976 45.8984 202.347 45.8184 202.784 45.8184C203.03 45.8184 203.255 45.8398 203.458 45.8828C203.665 45.9258 203.847 45.9746 204.003 46.0293L203.751 46.7969C203.618 46.7539 203.468 46.7148 203.3 46.6797C203.136 46.6406 202.968 46.6211 202.796 46.6211C202.425 46.6211 202.149 46.7422 201.97 46.9844C201.794 47.2227 201.706 47.5977 201.706 48.1094V48.5781H203.306V49.3398ZM210.026 51.7773C210.026 52.3047 209.958 52.7754 209.821 53.1895C209.685 53.6035 209.487 53.9531 209.229 54.2383C208.972 54.5234 208.659 54.7422 208.292 54.8945C207.929 55.043 207.517 55.1172 207.056 55.1172C206.626 55.1172 206.231 55.043 205.872 54.8945C205.517 54.7422 205.208 54.5234 204.946 54.2383C204.688 53.9531 204.487 53.6035 204.343 53.1895C204.202 52.7754 204.132 52.3047 204.132 51.7773C204.132 51.0742 204.251 50.4766 204.489 49.9844C204.728 49.4883 205.067 49.1113 205.509 48.8535C205.954 48.5918 206.483 48.4609 207.097 48.4609C207.683 48.4609 208.194 48.5918 208.632 48.8535C209.073 49.1152 209.415 49.4941 209.657 49.9902C209.903 50.4824 210.026 51.0781 210.026 51.7773ZM205.14 51.7773C205.14 52.293 205.208 52.7402 205.345 53.1191C205.481 53.498 205.692 53.791 205.978 53.998C206.263 54.2051 206.63 54.3086 207.079 54.3086C207.524 54.3086 207.89 54.2051 208.175 53.998C208.464 53.791 208.677 53.498 208.813 53.1191C208.95 52.7402 209.019 52.293 209.019 51.7773C209.019 51.2656 208.95 50.8242 208.813 50.4531C208.677 50.0781 208.466 49.7891 208.181 49.5859C207.896 49.3828 207.526 49.2812 207.073 49.2812C206.405 49.2812 205.915 49.502 205.603 49.9434C205.294 50.3848 205.14 50.9961 205.14 51.7773ZM212.687 55H211.708V45.8828H212.687V55ZM215.716 48.5781V55H214.743V48.5781H215.716ZM215.241 46.1758C215.401 46.1758 215.538 46.2285 215.651 46.334C215.769 46.4355 215.827 46.5957 215.827 46.8145C215.827 47.0293 215.769 47.1895 215.651 47.2949C215.538 47.4004 215.401 47.4531 215.241 47.4531C215.073 47.4531 214.933 47.4004 214.819 47.2949C214.71 47.1895 214.655 47.0293 214.655 46.8145C214.655 46.5957 214.71 46.4355 214.819 46.334C214.933 46.2285 215.073 46.1758 215.241 46.1758ZM223.315 51.7773C223.315 52.3047 223.247 52.7754 223.11 53.1895C222.974 53.6035 222.776 53.9531 222.519 54.2383C222.261 54.5234 221.948 54.7422 221.581 54.8945C221.218 55.043 220.806 55.1172 220.345 55.1172C219.915 55.1172 219.521 55.043 219.161 54.8945C218.806 54.7422 218.497 54.5234 218.235 54.2383C217.978 53.9531 217.776 53.6035 217.632 53.1895C217.491 52.7754 217.421 52.3047 217.421 51.7773C217.421 51.0742 217.54 50.4766 217.778 49.9844C218.017 49.4883 218.356 49.1113 218.798 48.8535C219.243 48.5918 219.772 48.4609 220.386 48.4609C220.972 48.4609 221.483 48.5918 221.921 48.8535C222.362 49.1152 222.704 49.4941 222.946 49.9902C223.192 50.4824 223.315 51.0781 223.315 51.7773ZM218.429 51.7773C218.429 52.293 218.497 52.7402 218.634 53.1191C218.771 53.498 218.981 53.791 219.267 53.998C219.552 54.2051 219.919 54.3086 220.368 54.3086C220.813 54.3086 221.179 54.2051 221.464 53.998C221.753 53.791 221.966 53.498 222.103 53.1191C222.239 52.7402 222.308 52.293 222.308 51.7773C222.308 51.2656 222.239 50.8242 222.103 50.4531C221.966 50.0781 221.755 49.7891 221.47 49.5859C221.185 49.3828 220.815 49.2812 220.362 49.2812C219.694 49.2812 219.204 49.502 218.892 49.9434C218.583 50.3848 218.429 50.9961 218.429 51.7773Z" fill="#141414"/>
<path d="M268.75 33C268.198 33 267.75 32.5523 267.75 32C267.75 31.4477 268.198 31 268.75 31H269.75V24C269.75 22.6167 270.167 21.3875 271 20.3125C271.833 19.2375 272.917 18.5333 274.25 18.2V17.5C274.25 17.0833 274.396 16.7292 274.688 16.4375C274.979 16.1458 275.333 16 275.75 16C276.167 16 276.521 16.1458 276.812 16.4375C277.104 16.7292 277.25 17.0833 277.25 17.5V18.2C278.583 18.5333 279.667 19.2375 280.5 20.3125C281.333 21.3875 281.75 22.6167 281.75 24V31H282.75C283.302 31 283.75 31.4477 283.75 32C283.75 32.5523 283.302 33 282.75 33H268.75ZM275.75 36C275.2 36 274.729 35.8042 274.338 35.4125C273.946 35.0208 273.75 34.55 273.75 34H277.75C277.75 34.55 277.554 35.0208 277.163 35.4125C276.771 35.8042 276.3 36 275.75 36ZM271.75 31H279.75V24C279.75 22.9 279.358 21.9583 278.575 21.175C277.792 20.3917 276.85 20 275.75 20C274.65 20 273.708 20.3917 272.925 21.175C272.142 21.9583 271.75 22.9 271.75 24V31Z" fill="#141414"/>
<path d="M248.566 55H247.418L242.748 47.8047H242.701C242.713 47.9961 242.727 48.2148 242.742 48.4609C242.758 48.7031 242.77 48.9629 242.777 49.2402C242.789 49.5137 242.795 49.793 242.795 50.0781V55H241.869V46.4336H243.012L247.664 53.6055H247.705C247.697 53.4688 247.688 53.2754 247.676 53.0254C247.664 52.7715 247.652 52.5 247.641 52.2109C247.633 51.918 247.629 51.6465 247.629 51.3965V46.4336H248.566V55ZM256.295 51.7773C256.295 52.3047 256.227 52.7754 256.09 53.1895C255.953 53.6035 255.756 53.9531 255.498 54.2383C255.24 54.5234 254.928 54.7422 254.561 54.8945C254.197 55.043 253.785 55.1172 253.324 55.1172C252.895 55.1172 252.5 55.043 252.141 54.8945C251.785 54.7422 251.477 54.5234 251.215 54.2383C250.957 53.9531 250.756 53.6035 250.611 53.1895C250.471 52.7754 250.4 52.3047 250.4 51.7773C250.4 51.0742 250.52 50.4766 250.758 49.9844C250.996 49.4883 251.336 49.1113 251.777 48.8535C252.223 48.5918 252.752 48.4609 253.365 48.4609C253.951 48.4609 254.463 48.5918 254.9 48.8535C255.342 49.1152 255.684 49.4941 255.926 49.9902C256.172 50.4824 256.295 51.0781 256.295 51.7773ZM251.408 51.7773C251.408 52.293 251.477 52.7402 251.613 53.1191C251.75 53.498 251.961 53.791 252.246 53.998C252.531 54.2051 252.898 54.3086 253.348 54.3086C253.793 54.3086 254.158 54.2051 254.443 53.998C254.732 53.791 254.945 53.498 255.082 53.1191C255.219 52.7402 255.287 52.293 255.287 51.7773C255.287 51.2656 255.219 50.8242 255.082 50.4531C254.945 50.0781 254.734 49.7891 254.449 49.5859C254.164 49.3828 253.795 49.2812 253.342 49.2812C252.674 49.2812 252.184 49.502 251.871 49.9434C251.562 50.3848 251.408 50.9961 251.408 51.7773ZM260.051 54.3203C260.211 54.3203 260.375 54.3066 260.543 54.2793C260.711 54.252 260.848 54.2188 260.953 54.1797V54.9355C260.84 54.9863 260.682 55.0293 260.479 55.0645C260.279 55.0996 260.084 55.1172 259.893 55.1172C259.553 55.1172 259.244 55.0586 258.967 54.9414C258.689 54.8203 258.467 54.6172 258.299 54.332C258.135 54.0469 258.053 53.6523 258.053 53.1484V49.3398H257.139V48.8652L258.059 48.4844L258.445 47.0898H259.031V48.5781H260.912V49.3398H259.031V53.1191C259.031 53.5215 259.123 53.8223 259.307 54.0215C259.494 54.2207 259.742 54.3203 260.051 54.3203ZM263.227 48.5781V55H262.254V48.5781H263.227ZM262.752 46.1758C262.912 46.1758 263.049 46.2285 263.162 46.334C263.279 46.4355 263.338 46.5957 263.338 46.8145C263.338 47.0293 263.279 47.1895 263.162 47.2949C263.049 47.4004 262.912 47.4531 262.752 47.4531C262.584 47.4531 262.443 47.4004 262.33 47.2949C262.221 47.1895 262.166 47.0293 262.166 46.8145C262.166 46.5957 262.221 46.4355 262.33 46.334C262.443 46.2285 262.584 46.1758 262.752 46.1758ZM268.148 49.3398H266.549V55H265.576V49.3398H264.439V48.8711L265.576 48.5488V48.1211C265.576 47.582 265.656 47.1445 265.816 46.8086C265.977 46.4688 266.209 46.2188 266.514 46.0586C266.818 45.8984 267.189 45.8184 267.627 45.8184C267.873 45.8184 268.098 45.8398 268.301 45.8828C268.508 45.9258 268.689 45.9746 268.846 46.0293L268.594 46.7969C268.461 46.7539 268.311 46.7148 268.143 46.6797C267.979 46.6406 267.811 46.6211 267.639 46.6211C267.268 46.6211 266.992 46.7422 266.812 46.9844C266.637 47.2227 266.549 47.5977 266.549 48.1094V48.5781H268.148V49.3398ZM270.299 48.5781V55H269.326V48.5781H270.299ZM269.824 46.1758C269.984 46.1758 270.121 46.2285 270.234 46.334C270.352 46.4355 270.41 46.5957 270.41 46.8145C270.41 47.0293 270.352 47.1895 270.234 47.2949C270.121 47.4004 269.984 47.4531 269.824 47.4531C269.656 47.4531 269.516 47.4004 269.402 47.2949C269.293 47.1895 269.238 47.0293 269.238 46.8145C269.238 46.5957 269.293 46.4355 269.402 46.334C269.516 46.2285 269.656 46.1758 269.824 46.1758ZM274.928 55.1172C274.35 55.1172 273.84 54.998 273.398 54.7598C272.957 54.5215 272.613 54.1582 272.367 53.6699C272.121 53.1816 271.998 52.5664 271.998 51.8242C271.998 51.0469 272.127 50.4121 272.385 49.9199C272.646 49.4238 273.006 49.0566 273.463 48.8184C273.92 48.5801 274.439 48.4609 275.021 48.4609C275.342 48.4609 275.65 48.4941 275.947 48.5605C276.248 48.623 276.494 48.7031 276.686 48.8008L276.393 49.6152C276.197 49.5371 275.971 49.4668 275.713 49.4043C275.459 49.3418 275.221 49.3105 274.998 49.3105C274.553 49.3105 274.182 49.4062 273.885 49.5977C273.592 49.7891 273.371 50.0703 273.223 50.4414C273.078 50.8125 273.006 51.2695 273.006 51.8125C273.006 52.332 273.076 52.7754 273.217 53.1426C273.361 53.5098 273.574 53.791 273.855 53.9863C274.141 54.1777 274.496 54.2734 274.922 54.2734C275.262 54.2734 275.568 54.2383 275.842 54.168C276.115 54.0938 276.363 54.0078 276.586 53.9102V54.7773C276.371 54.8867 276.131 54.9707 275.865 55.0293C275.604 55.0879 275.291 55.1172 274.928 55.1172ZM280.512 48.4727C281.277 48.4727 281.846 48.6445 282.217 48.9883C282.588 49.332 282.773 49.8809 282.773 50.6348V55H282.064L281.877 54.0508H281.83C281.65 54.2852 281.463 54.4824 281.268 54.6426C281.072 54.7988 280.846 54.918 280.588 55C280.334 55.0781 280.021 55.1172 279.65 55.1172C279.26 55.1172 278.912 55.0488 278.607 54.9121C278.307 54.7754 278.068 54.5684 277.893 54.291C277.721 54.0137 277.635 53.6621 277.635 53.2363C277.635 52.5957 277.889 52.1035 278.396 51.7598C278.904 51.416 279.678 51.2285 280.717 51.1973L281.824 51.1504V50.7578C281.824 50.2031 281.705 49.8145 281.467 49.5918C281.229 49.3691 280.893 49.2578 280.459 49.2578C280.123 49.2578 279.803 49.3066 279.498 49.4043C279.193 49.502 278.904 49.6172 278.631 49.75L278.332 49.0117C278.621 48.8633 278.953 48.7363 279.328 48.6309C279.703 48.5254 280.098 48.4727 280.512 48.4727ZM281.812 51.8359L280.834 51.877C280.033 51.9082 279.469 52.0391 279.141 52.2695C278.812 52.5 278.648 52.8262 278.648 53.248C278.648 53.6152 278.76 53.8867 278.982 54.0625C279.205 54.2383 279.5 54.3262 279.867 54.3262C280.438 54.3262 280.904 54.168 281.268 53.8516C281.631 53.5352 281.812 53.0605 281.812 52.4277V51.8359ZM286.852 54.3203C287.012 54.3203 287.176 54.3066 287.344 54.2793C287.512 54.252 287.648 54.2188 287.754 54.1797V54.9355C287.641 54.9863 287.482 55.0293 287.279 55.0645C287.08 55.0996 286.885 55.1172 286.693 55.1172C286.354 55.1172 286.045 55.0586 285.768 54.9414C285.49 54.8203 285.268 54.6172 285.1 54.332C284.936 54.0469 284.854 53.6523 284.854 53.1484V49.3398H283.939V48.8652L284.859 48.4844L285.246 47.0898H285.832V48.5781H287.713V49.3398H285.832V53.1191C285.832 53.5215 285.924 53.8223 286.107 54.0215C286.295 54.2207 286.543 54.3203 286.852 54.3203ZM290.027 48.5781V55H289.055V48.5781H290.027ZM289.553 46.1758C289.713 46.1758 289.85 46.2285 289.963 46.334C290.08 46.4355 290.139 46.5957 290.139 46.8145C290.139 47.0293 290.08 47.1895 289.963 47.2949C289.85 47.4004 289.713 47.4531 289.553 47.4531C289.385 47.4531 289.244 47.4004 289.131 47.2949C289.021 47.1895 288.967 47.0293 288.967 46.8145C288.967 46.5957 289.021 46.4355 289.131 46.334C289.244 46.2285 289.385 46.1758 289.553 46.1758ZM297.627 51.7773C297.627 52.3047 297.559 52.7754 297.422 53.1895C297.285 53.6035 297.088 53.9531 296.83 54.2383C296.572 54.5234 296.26 54.7422 295.893 54.8945C295.529 55.043 295.117 55.1172 294.656 55.1172C294.227 55.1172 293.832 55.043 293.473 54.8945C293.117 54.7422 292.809 54.5234 292.547 54.2383C292.289 53.9531 292.088 53.6035 291.943 53.1895C291.803 52.7754 291.732 52.3047 291.732 51.7773C291.732 51.0742 291.852 50.4766 292.09 49.9844C292.328 49.4883 292.668 49.1113 293.109 48.8535C293.555 48.5918 294.084 48.4609 294.697 48.4609C295.283 48.4609 295.795 48.5918 296.232 48.8535C296.674 49.1152 297.016 49.4941 297.258 49.9902C297.504 50.4824 297.627 51.0781 297.627 51.7773ZM292.74 51.7773C292.74 52.293 292.809 52.7402 292.945 53.1191C293.082 53.498 293.293 53.791 293.578 53.998C293.863 54.2051 294.23 54.3086 294.68 54.3086C295.125 54.3086 295.49 54.2051 295.775 53.998C296.064 53.791 296.277 53.498 296.414 53.1191C296.551 52.7402 296.619 52.293 296.619 51.7773C296.619 51.2656 296.551 50.8242 296.414 50.4531C296.277 50.0781 296.066 49.7891 295.781 49.5859C295.496 49.3828 295.127 49.2812 294.674 49.2812C294.006 49.2812 293.516 49.502 293.203 49.9434C292.895 50.3848 292.74 50.9961 292.74 51.7773ZM302.35 48.4609C303.111 48.4609 303.688 48.6484 304.078 49.0234C304.469 49.3945 304.664 49.9922 304.664 50.8164V55H303.703V50.8809C303.703 50.3457 303.58 49.9453 303.334 49.6797C303.092 49.4141 302.719 49.2812 302.215 49.2812C301.504 49.2812 301.004 49.4824 300.715 49.8848C300.426 50.2871 300.281 50.8711 300.281 51.6367V55H299.309V48.5781H300.094L300.24 49.5039H300.293C300.43 49.2773 300.604 49.0879 300.814 48.9355C301.025 48.7793 301.262 48.6621 301.523 48.584C301.785 48.502 302.061 48.4609 302.35 48.4609ZM310.822 53.2422C310.822 53.6523 310.719 53.998 310.512 54.2793C310.309 54.5566 310.016 54.7656 309.633 54.9062C309.254 55.0469 308.801 55.1172 308.273 55.1172C307.824 55.1172 307.436 55.082 307.107 55.0117C306.779 54.9414 306.492 54.8418 306.246 54.7129V53.8164C306.508 53.9453 306.82 54.0625 307.184 54.168C307.547 54.2734 307.918 54.3262 308.297 54.3262C308.852 54.3262 309.254 54.2363 309.504 54.0566C309.754 53.877 309.879 53.6328 309.879 53.3242C309.879 53.1484 309.828 52.9941 309.727 52.8613C309.629 52.7246 309.463 52.5938 309.229 52.4688C308.994 52.3398 308.67 52.1992 308.256 52.0469C307.846 51.8906 307.49 51.7363 307.189 51.584C306.893 51.4277 306.662 51.2383 306.498 51.0156C306.338 50.793 306.258 50.5039 306.258 50.1484C306.258 49.6055 306.477 49.1895 306.914 48.9004C307.355 48.6074 307.934 48.4609 308.648 48.4609C309.035 48.4609 309.396 48.5 309.732 48.5781C310.072 48.6523 310.389 48.7539 310.682 48.8828L310.354 49.6621C310.088 49.5488 309.805 49.4531 309.504 49.375C309.203 49.2969 308.896 49.2578 308.584 49.2578C308.135 49.2578 307.789 49.332 307.547 49.4805C307.309 49.6289 307.189 49.832 307.189 50.0898C307.189 50.2891 307.244 50.4531 307.354 50.582C307.467 50.7109 307.646 50.832 307.893 50.9453C308.139 51.0586 308.463 51.1914 308.865 51.3438C309.268 51.4922 309.615 51.6465 309.908 51.8066C310.201 51.9629 310.426 52.1543 310.582 52.3809C310.742 52.6035 310.822 52.8906 310.822 53.2422Z" fill="#141414"/>
<path d="M338.58 26.08C339.26 25.56 340.02 25.15 340.86 24.85C341.7 24.55 342.58 24.4 343.5 24.4C344.42 24.4 345.3 24.55 346.14 24.85C346.98 25.15 347.74 25.56 348.42 26.08C348.887 25.5333 349.25 24.9133 349.51 24.22C349.77 23.5267 349.9 22.7867 349.9 22C349.9 20.2267 349.277 18.7167 348.03 17.47C346.783 16.2233 345.273 15.6 343.5 15.6C341.727 15.6 340.217 16.2233 338.97 17.47C337.723 18.7167 337.1 20.2267 337.1 22C337.1 22.7867 337.23 23.5267 337.49 24.22C337.75 24.9133 338.113 25.5333 338.58 26.08ZM343.5 22.8C342.713 22.8 342.05 22.53 341.51 21.99C340.97 21.45 340.7 20.7867 340.7 20C340.7 19.2133 340.97 18.55 341.51 18.01C342.05 17.47 342.713 17.2 343.5 17.2C344.287 17.2 344.95 17.47 345.49 18.01C346.03 18.55 346.3 19.2133 346.3 20C346.3 20.7867 346.03 21.45 345.49 21.99C344.95 22.53 344.287 22.8 343.5 22.8ZM343.5 30C342.393 30 341.353 29.79 340.38 29.37C339.407 28.95 338.56 28.38 337.84 27.66C337.12 26.94 336.55 26.0933 336.13 25.12C335.71 24.1467 335.5 23.1067 335.5 22C335.5 20.8933 335.71 19.8533 336.13 18.88C336.55 17.9067 337.12 17.06 337.84 16.34C338.56 15.62 339.407 15.05 340.38 14.63C341.353 14.21 342.393 14 343.5 14C344.607 14 345.647 14.21 346.62 14.63C347.593 15.05 348.44 15.62 349.16 16.34C349.88 17.06 350.45 17.9067 350.87 18.88C351.29 19.8533 351.5 20.8933 351.5 22C351.5 23.1067 351.29 24.1467 350.87 25.12C350.45 26.0933 349.88 26.94 349.16 27.66C348.44 28.38 347.593 28.95 346.62 29.37C345.647 29.79 344.607 30 343.5 30ZM343.5 28.4C344.207 28.4 344.873 28.2967 345.5 28.09C346.127 27.8833 346.7 27.5867 347.22 27.2C346.7 26.8133 346.127 26.5167 345.5 26.31C344.873 26.1033 344.207 26 343.5 26C342.793 26 342.127 26.1033 341.5 26.31C340.873 26.5167 340.3 26.8133 339.78 27.2C340.3 27.5867 340.873 27.8833 341.5 28.09C342.127 28.2967 342.793 28.4 343.5 28.4ZM343.5 21.2C343.847 21.2 344.133 21.0867 344.36 20.86C344.587 20.6333 344.7 20.3467 344.7 20C344.7 19.6533 344.587 19.3667 344.36 19.14C344.133 18.9133 343.847 18.8 343.5 18.8C343.153 18.8 342.867 18.9133 342.64 19.14C342.413 19.3667 342.3 19.6533 342.3 20C342.3 20.3467 342.413 20.6333 342.64 20.86C342.867 21.0867 343.153 21.2 343.5 21.2Z" fill="#141414"/>
<path d="M326.276 54V45.2727H329.224C329.909 45.2727 330.469 45.3963 330.903 45.6435C331.341 45.8878 331.665 46.2188 331.875 46.6364C332.085 47.054 332.19 47.5199 332.19 48.0341C332.19 48.5483 332.085 49.0156 331.875 49.4361C331.668 49.8565 331.347 50.1918 330.912 50.4418C330.477 50.6889 329.92 50.8125 329.241 50.8125H327.128V49.875H329.207C329.676 49.875 330.053 49.794 330.337 49.6321C330.621 49.4702 330.827 49.2514 330.955 48.9759C331.085 48.6974 331.151 48.3835 331.151 48.0341C331.151 47.6847 331.085 47.3722 330.955 47.0966C330.827 46.821 330.619 46.6051 330.332 46.4489C330.045 46.2898 329.665 46.2102 329.19 46.2102H327.332V54H326.276ZM333.756 54V47.4545H334.728V48.4432H334.796C334.915 48.1193 335.131 47.8565 335.444 47.6548C335.756 47.4531 336.109 47.3523 336.501 47.3523C336.575 47.3523 336.667 47.3537 336.778 47.3565C336.888 47.3594 336.972 47.3636 337.029 47.3693V48.392C336.995 48.3835 336.917 48.3707 336.795 48.3537C336.675 48.3338 336.549 48.3239 336.415 48.3239C336.097 48.3239 335.813 48.3906 335.563 48.5241C335.316 48.6548 335.12 48.8366 334.975 49.0696C334.833 49.2997 334.762 49.5625 334.762 49.858V54H333.756ZM340.681 54.1364C340.09 54.1364 339.572 53.9957 339.126 53.7145C338.683 53.4332 338.336 53.0398 338.086 52.5341C337.839 52.0284 337.715 51.4375 337.715 50.7614C337.715 50.0795 337.839 49.4844 338.086 48.9759C338.336 48.4673 338.683 48.0724 339.126 47.7912C339.572 47.5099 340.09 47.3693 340.681 47.3693C341.272 47.3693 341.789 47.5099 342.232 47.7912C342.678 48.0724 343.025 48.4673 343.272 48.9759C343.522 49.4844 343.647 50.0795 343.647 50.7614C343.647 51.4375 343.522 52.0284 343.272 52.5341C343.025 53.0398 342.678 53.4332 342.232 53.7145C341.789 53.9957 341.272 54.1364 340.681 54.1364ZM340.681 53.233C341.13 53.233 341.499 53.1179 341.789 52.8878C342.079 52.6577 342.293 52.3551 342.433 51.9801C342.572 51.6051 342.641 51.1989 342.641 50.7614C342.641 50.3239 342.572 49.9162 342.433 49.5384C342.293 49.1605 342.079 48.8551 341.789 48.6222C341.499 48.3892 341.13 48.2727 340.681 48.2727C340.232 48.2727 339.863 48.3892 339.573 48.6222C339.283 48.8551 339.069 49.1605 338.93 49.5384C338.79 49.9162 338.721 50.3239 338.721 50.7614C338.721 51.1989 338.79 51.6051 338.93 51.9801C339.069 52.3551 339.283 52.6577 339.573 52.8878C339.863 53.1179 340.232 53.233 340.681 53.233ZM348.097 47.4545V48.3068H344.569V47.4545H348.097ZM345.625 54V46.5511C345.625 46.1761 345.713 45.8636 345.89 45.6136C346.066 45.3636 346.294 45.1761 346.576 45.0511C346.857 44.9261 347.154 44.8636 347.466 44.8636C347.713 44.8636 347.915 44.8835 348.071 44.9233C348.228 44.9631 348.344 45 348.421 45.0341L348.131 45.9034C348.08 45.8864 348.009 45.8651 347.918 45.8395C347.83 45.8139 347.713 45.8011 347.569 45.8011C347.236 45.8011 346.996 45.8849 346.848 46.0526C346.703 46.2202 346.631 46.4659 346.631 46.7898V54H345.625ZM349.506 54V47.4545H350.512V54H349.506ZM350.018 46.3636C349.822 46.3636 349.653 46.2969 349.511 46.1634C349.371 46.0298 349.302 45.8693 349.302 45.6818C349.302 45.4943 349.371 45.3338 349.511 45.2003C349.653 45.0668 349.822 45 350.018 45C350.214 45 350.381 45.0668 350.521 45.2003C350.663 45.3338 350.734 45.4943 350.734 45.6818C350.734 45.8693 350.663 46.0298 350.521 46.1634C350.381 46.2969 350.214 46.3636 350.018 46.3636ZM353.36 45.2727V54H352.354V45.2727H353.36ZM357.946 54.1364C357.315 54.1364 356.771 53.9972 356.314 53.7188C355.859 53.4375 355.509 53.0455 355.261 52.5426C355.017 52.0369 354.895 51.4489 354.895 50.7784C354.895 50.108 355.017 49.517 355.261 49.0057C355.509 48.4915 355.852 48.0909 356.293 47.804C356.736 47.5142 357.253 47.3693 357.844 47.3693C358.185 47.3693 358.521 47.4261 358.854 47.5398C359.186 47.6534 359.489 47.8381 359.761 48.0938C360.034 48.3466 360.251 48.6818 360.413 49.0994C360.575 49.517 360.656 50.0312 360.656 50.642V51.0682H355.611V50.1989H359.634C359.634 49.8295 359.56 49.5 359.412 49.2102C359.267 48.9205 359.06 48.6918 358.79 48.5241C358.523 48.3565 358.207 48.2727 357.844 48.2727C357.443 48.2727 357.097 48.3722 356.804 48.571C356.514 48.767 356.291 49.0227 356.135 49.3381C355.979 49.6534 355.901 49.9915 355.901 50.3523V50.9318C355.901 51.4261 355.986 51.8452 356.156 52.1889C356.33 52.5298 356.57 52.7898 356.876 52.9688C357.183 53.1449 357.54 53.233 357.946 53.233C358.21 53.233 358.449 53.196 358.662 53.1222C358.878 53.0455 359.064 52.9318 359.22 52.7812C359.376 52.6278 359.497 52.4375 359.582 52.2102L360.554 52.483C360.452 52.8125 360.28 53.1023 360.038 53.3523C359.797 53.5994 359.499 53.7926 359.143 53.9318C358.788 54.0682 358.389 54.1364 357.946 54.1364Z" fill="#141414"/>
</svg>
