<svg width="342" height="33" viewBox="0 0 342 33" fill="none" xmlns="http://www.w3.org/2000/svg">
<rect x="0.5" y="0.0214844" width="103" height="32" rx="16" fill="#FF5E09"/>
<path d="M29.0469 16.6562C29.0469 17.6211 28.8613 18.4277 28.4902 19.0762C28.123 19.7207 27.5898 20.207 26.8906 20.5352C26.1914 20.8594 25.3496 21.0215 24.3652 21.0215H21.9395V12.4551H24.6289C25.5273 12.4551 26.3066 12.6152 26.9668 12.9355C27.627 13.252 28.1387 13.7227 28.502 14.3477C28.8652 14.9688 29.0469 15.7383 29.0469 16.6562ZM27.1602 16.7031C27.1602 16.0703 27.0664 15.5508 26.8789 15.1445C26.6953 14.7344 26.4219 14.4316 26.0586 14.2363C25.6992 14.041 25.2539 13.9434 24.7227 13.9434H23.7559V19.5215H24.5352C25.4219 19.5215 26.0801 19.2852 26.5098 18.8125C26.9434 18.3398 27.1602 17.6367 27.1602 16.7031ZM33.3828 14.3477C33.9883 14.3477 34.5098 14.4648 34.9473 14.6992C35.3848 14.9297 35.7227 15.2656 35.9609 15.707C36.1992 16.1484 36.3184 16.6875 36.3184 17.3242V18.1914H32.0938C32.1133 18.6953 32.2637 19.0918 32.5449 19.3809C32.8301 19.666 33.2246 19.8086 33.7285 19.8086C34.1465 19.8086 34.5293 19.7656 34.877 19.6797C35.2246 19.5938 35.582 19.4648 35.9492 19.293V20.6758C35.625 20.8359 35.2852 20.9531 34.9297 21.0273C34.5781 21.1016 34.1504 21.1387 33.6465 21.1387C32.9902 21.1387 32.4082 21.0176 31.9004 20.7754C31.3965 20.5332 31 20.1641 30.7109 19.668C30.4258 19.1719 30.2832 18.5469 30.2832 17.793C30.2832 17.0273 30.4121 16.3906 30.6699 15.8828C30.9316 15.3711 31.2949 14.9883 31.7598 14.7344C32.2246 14.4766 32.7656 14.3477 33.3828 14.3477ZM33.3945 15.6191C33.0469 15.6191 32.7578 15.7305 32.5273 15.9531C32.3008 16.1758 32.1699 16.5254 32.1348 17.002H34.6426C34.6387 16.7363 34.5898 16.5 34.4961 16.293C34.4062 16.0859 34.2695 15.9219 34.0859 15.8008C33.9062 15.6797 33.6758 15.6191 33.3945 15.6191ZM42.3418 19.0762C42.3418 19.5215 42.2363 19.8984 42.0254 20.207C41.8184 20.5117 41.5078 20.7441 41.0938 20.9043C40.6797 21.0605 40.1641 21.1387 39.5469 21.1387C39.0898 21.1387 38.6973 21.1094 38.3691 21.0508C38.0449 20.9922 37.7168 20.8945 37.3848 20.7578V19.2812C37.7402 19.4414 38.1211 19.5742 38.5273 19.6797C38.9375 19.7812 39.2969 19.832 39.6055 19.832C39.9531 19.832 40.2012 19.7812 40.3496 19.6797C40.502 19.5742 40.5781 19.4375 40.5781 19.2695C40.5781 19.1602 40.5469 19.0625 40.4844 18.9766C40.4258 18.8867 40.2969 18.7871 40.0977 18.6777C39.8984 18.5645 39.5859 18.418 39.1602 18.2383C38.75 18.0664 38.4121 17.8926 38.1465 17.7168C37.8848 17.541 37.6895 17.334 37.5605 17.0957C37.4355 16.8535 37.373 16.5469 37.373 16.1758C37.373 15.5703 37.6074 15.1152 38.0762 14.8105C38.5488 14.502 39.1797 14.3477 39.9688 14.3477C40.375 14.3477 40.7617 14.3887 41.1289 14.4707C41.5 14.5527 41.8809 14.6836 42.2715 14.8633L41.7324 16.1523C41.4082 16.0117 41.1016 15.8965 40.8125 15.8066C40.5273 15.7168 40.2363 15.6719 39.9395 15.6719C39.6777 15.6719 39.4805 15.707 39.3477 15.7773C39.2148 15.8477 39.1484 15.9551 39.1484 16.0996C39.1484 16.2051 39.1816 16.2988 39.248 16.3809C39.3184 16.4629 39.4512 16.5547 39.6465 16.6562C39.8457 16.7539 40.1367 16.8809 40.5195 17.0371C40.8906 17.1895 41.2129 17.3496 41.4863 17.5176C41.7598 17.6816 41.9707 17.8867 42.1191 18.1328C42.2676 18.375 42.3418 18.6895 42.3418 19.0762ZM45.5234 14.4707V21.0215H43.7363V14.4707H45.5234ZM44.6328 11.9043C44.8984 11.9043 45.127 11.9668 45.3184 12.0918C45.5098 12.2129 45.6055 12.4414 45.6055 12.7773C45.6055 13.1094 45.5098 13.3398 45.3184 13.4688C45.127 13.5938 44.8984 13.6562 44.6328 13.6562C44.3633 13.6562 44.1328 13.5938 43.9414 13.4688C43.7539 13.3398 43.6602 13.1094 43.6602 12.7773C43.6602 12.4414 43.7539 12.2129 43.9414 12.0918C44.1328 11.9668 44.3633 11.9043 44.6328 11.9043ZM49.3203 23.9043C48.4062 23.9043 47.707 23.7441 47.2227 23.4238C46.7422 23.1074 46.502 22.6621 46.502 22.0879C46.502 21.6934 46.625 21.3633 46.8711 21.0977C47.1172 20.832 47.4785 20.6426 47.9551 20.5293C47.7715 20.4512 47.6113 20.3242 47.4746 20.1484C47.3379 19.9688 47.2695 19.7793 47.2695 19.5801C47.2695 19.3301 47.3418 19.123 47.4863 18.959C47.6309 18.791 47.8398 18.627 48.1133 18.4668C47.7695 18.3184 47.4961 18.0801 47.293 17.752C47.0938 17.4238 46.9941 17.0371 46.9941 16.5918C46.9941 16.1152 47.0977 15.7109 47.3047 15.3789C47.5156 15.043 47.8203 14.7871 48.2188 14.6113C48.6211 14.4355 49.1094 14.3477 49.6836 14.3477C49.8047 14.3477 49.9453 14.3555 50.1055 14.3711C50.2656 14.3867 50.4121 14.4043 50.5449 14.4238C50.6816 14.4434 50.7734 14.459 50.8203 14.4707H53.1055V15.3789L52.0801 15.6426C52.1738 15.7871 52.2441 15.9414 52.291 16.1055C52.3379 16.2695 52.3613 16.4434 52.3613 16.627C52.3613 17.3301 52.1152 17.8789 51.623 18.2734C51.1348 18.6641 50.4551 18.8594 49.584 18.8594C49.377 18.8477 49.1816 18.832 48.998 18.8125C48.9082 18.8828 48.8398 18.957 48.793 19.0352C48.7461 19.1133 48.7227 19.1953 48.7227 19.2812C48.7227 19.3672 48.7578 19.4395 48.8281 19.498C48.9023 19.5527 49.0117 19.5957 49.1562 19.627C49.3047 19.6543 49.4883 19.668 49.707 19.668H50.8203C51.5391 19.668 52.0859 19.8223 52.4609 20.1309C52.8398 20.4395 53.0293 20.8926 53.0293 21.4902C53.0293 22.2559 52.709 22.8496 52.0684 23.2715C51.4316 23.6934 50.5156 23.9043 49.3203 23.9043ZM49.3965 22.7383C49.8223 22.7383 50.1875 22.6973 50.4922 22.6152C50.8008 22.5371 51.0371 22.4238 51.2012 22.2754C51.3652 22.1309 51.4473 21.957 51.4473 21.7539C51.4473 21.5898 51.3984 21.459 51.3008 21.3613C51.207 21.2676 51.0625 21.2012 50.8672 21.1621C50.6758 21.123 50.4297 21.1035 50.1289 21.1035H49.2031C48.9844 21.1035 48.7871 21.1387 48.6113 21.209C48.4395 21.2793 48.3027 21.377 48.2012 21.502C48.0996 21.6309 48.0488 21.7793 48.0488 21.9473C48.0488 22.1934 48.166 22.3867 48.4004 22.5273C48.6387 22.668 48.9707 22.7383 49.3965 22.7383ZM49.6836 17.7695C50.0195 17.7695 50.2656 17.666 50.4219 17.459C50.5781 17.252 50.6562 16.9707 50.6562 16.6152C50.6562 16.2207 50.5742 15.9258 50.4102 15.7305C50.25 15.5312 50.0078 15.4316 49.6836 15.4316C49.3555 15.4316 49.1094 15.5312 48.9453 15.7305C48.7812 15.9258 48.6992 16.2207 48.6992 16.6152C48.6992 16.9707 48.7793 17.252 48.9395 17.459C49.1035 17.666 49.3516 17.7695 49.6836 17.7695ZM57.9102 14.3477C58.6094 14.3477 59.1719 14.5391 59.5977 14.9219C60.0234 15.3008 60.2363 15.9102 60.2363 16.75V21.0215H58.4492V17.1953C58.4492 16.7266 58.3633 16.373 58.1914 16.1348C58.0234 15.8965 57.7578 15.7773 57.3945 15.7773C56.8477 15.7773 56.4746 15.9629 56.2754 16.334C56.0762 16.7051 55.9766 17.2402 55.9766 17.9395V21.0215H54.1895V14.4707H55.5547L55.7949 15.3086H55.8945C56.0352 15.082 56.209 14.8984 56.416 14.7578C56.627 14.6172 56.8594 14.5137 57.1133 14.4473C57.3711 14.3809 57.6367 14.3477 57.9102 14.3477Z" fill="#141414"/>
<path d="M74.26 15.2865L75.765 13.764L74.785 12.7665L74.015 13.5365L73.035 12.5565L73.7875 11.7865L73 10.999L71.4775 12.5215L74.26 15.2865ZM80 21.044L81.5225 19.5215L80.735 18.734L79.965 19.4865L78.985 18.5065L79.7375 17.7365L78.74 16.7565L77.235 18.2615L80 21.044ZM73.4679 22.0286C73.2804 22.2161 73.026 22.3215 72.7608 22.3215H71.2C70.6477 22.3215 70.2 21.8738 70.2 21.3215V19.7607C70.2 19.4955 70.3054 19.2411 70.4929 19.0536L73.2625 16.284L70.2071 13.2286C69.8166 12.8381 69.8166 12.2049 70.2071 11.8144L72.2929 9.72859C72.6834 9.33807 73.3166 9.33807 73.7071 9.72859L76.78 12.8015L79.4225 10.1415C79.5625 10.0015 79.72 9.89648 79.895 9.82648C80.07 9.75648 80.2508 9.72148 80.4375 9.72148C80.6242 9.72148 80.805 9.75648 80.98 9.82648C81.155 9.89648 81.3125 10.0015 81.4525 10.1415L82.38 11.0865C82.52 11.2265 82.625 11.384 82.695 11.559C82.765 11.734 82.8 11.9148 82.8 12.1015C82.8 12.2882 82.765 12.4661 82.695 12.6352C82.625 12.8044 82.52 12.959 82.38 13.099L79.7375 15.759L82.7929 18.8144C83.1834 19.2049 83.1834 19.8381 82.7929 20.2286L80.7071 22.3144C80.3166 22.7049 79.6834 22.7049 79.2929 22.3144L76.2375 19.259L73.4679 22.0286ZM71.6 20.9215H72.58L79.44 14.079L78.4425 13.0815L71.6 19.9415V20.9215Z" fill="#141414"/>
<rect x="119.5" y="0.0214844" width="103" height="32" rx="16" fill="#00C14F"/>
<path d="M152.529 12.4551V17.998C152.529 18.5879 152.398 19.1211 152.137 19.5977C151.879 20.0703 151.486 20.4453 150.959 20.7227C150.436 21 149.775 21.1387 148.979 21.1387C147.846 21.1387 146.982 20.8496 146.389 20.2715C145.795 19.6934 145.498 18.9277 145.498 17.9746V12.4551H147.309V17.6992C147.309 18.4062 147.453 18.9023 147.742 19.1875C148.031 19.4727 148.459 19.6152 149.025 19.6152C149.424 19.6152 149.746 19.5469 149.992 19.4102C150.242 19.2734 150.426 19.0625 150.543 18.7773C150.66 18.4922 150.719 18.1289 150.719 17.6875V12.4551H152.529ZM154.627 21.0215V12.4551H156.443V21.0215H154.627ZM162.42 12.4551L159.227 21.0215H157.604L160.797 12.4551H162.42ZM170.529 12.4551V17.998C170.529 18.5879 170.398 19.1211 170.137 19.5977C169.879 20.0703 169.486 20.4453 168.959 20.7227C168.436 21 167.775 21.1387 166.979 21.1387C165.846 21.1387 164.982 20.8496 164.389 20.2715C163.795 19.6934 163.498 18.9277 163.498 17.9746V12.4551H165.309V17.6992C165.309 18.4062 165.453 18.9023 165.742 19.1875C166.031 19.4727 166.459 19.6152 167.025 19.6152C167.424 19.6152 167.746 19.5469 167.992 19.4102C168.242 19.2734 168.426 19.0625 168.543 18.7773C168.66 18.4922 168.719 18.1289 168.719 17.6875V12.4551H170.529ZM172.627 21.0215V12.4551H174.443V21.0215H172.627Z" fill="#141414"/>
<path d="M197.562 23.0215H187.938C187.821 23.0215 187.71 22.9754 187.628 22.8933C187.546 22.8113 187.5 22.7 187.5 22.584V15.1465C187.5 15.0305 187.546 14.9192 187.628 14.8371C187.71 14.7551 187.821 14.709 187.938 14.709H197.562C197.679 14.709 197.79 14.7551 197.872 14.8371C197.954 14.9192 198 15.0305 198 15.1465V22.584C198 22.7 197.954 22.8113 197.872 22.8933C197.79 22.9754 197.679 23.0215 197.562 23.0215ZM188.375 22.1465H197.125V15.584H188.375V22.1465Z" fill="#141414"/>
<path d="M187.938 19.5215H185.75C185.286 19.5215 184.841 19.3371 184.513 19.0089C184.184 18.6807 184 18.2356 184 17.7715V10.7715C184 10.3074 184.184 9.86224 184.513 9.53405C184.841 9.20586 185.286 9.02148 185.75 9.02148H190.125C190.589 9.02148 191.034 9.20586 191.362 9.53405C191.691 9.86224 191.875 10.3074 191.875 10.7715V13.3965C191.875 13.5125 191.829 13.6238 191.747 13.7058C191.665 13.7879 191.554 13.834 191.438 13.834C191.321 13.834 191.21 13.7879 191.128 13.7058C191.046 13.6238 191 13.5125 191 13.3965V10.7715C191 10.5394 190.908 10.3169 190.744 10.1528C190.58 9.98867 190.357 9.89648 190.125 9.89648H185.75C185.518 9.89648 185.295 9.98867 185.131 10.1528C184.967 10.3169 184.875 10.5394 184.875 10.7715V17.7715C184.875 18.0035 184.967 18.2261 185.131 18.3902C185.295 18.5543 185.518 18.6465 185.75 18.6465H187.938C188.054 18.6465 188.165 18.6926 188.247 18.7746C188.329 18.8567 188.375 18.968 188.375 19.084C188.375 19.2 188.329 19.3113 188.247 19.3933C188.165 19.4754 188.054 19.5215 187.938 19.5215Z" fill="#141414"/>
<path d="M187.062 13.834C186.714 13.834 186.381 13.6957 186.134 13.4496C185.888 13.2034 185.75 12.8696 185.75 12.5215V11.209C185.75 11.093 185.796 10.9817 185.878 10.8996C185.96 10.8176 186.071 10.7715 186.188 10.7715C186.304 10.7715 186.415 10.8176 186.497 10.8996C186.579 10.9817 186.625 11.093 186.625 11.209V12.5215C186.625 12.6375 186.671 12.7488 186.753 12.8308C186.835 12.9129 186.946 12.959 187.062 12.959C187.179 12.959 187.29 12.9129 187.372 12.8308C187.454 12.7488 187.5 12.6375 187.5 12.5215V11.209C187.5 11.093 187.546 10.9817 187.628 10.8996C187.71 10.8176 187.821 10.7715 187.938 10.7715C188.054 10.7715 188.165 10.8176 188.247 10.8996C188.329 10.9817 188.375 11.093 188.375 11.209V12.5215C188.375 12.8696 188.237 13.2034 187.991 13.4496C187.744 13.6957 187.411 13.834 187.062 13.834Z" fill="#141414"/>
<path d="M190.562 19.5215C190.214 19.5215 189.881 19.3832 189.634 19.1371C189.388 18.8909 189.25 18.5571 189.25 18.209V16.8965C189.25 16.7805 189.296 16.6692 189.378 16.5871C189.46 16.5051 189.571 16.459 189.688 16.459C189.804 16.459 189.915 16.5051 189.997 16.5871C190.079 16.6692 190.125 16.7805 190.125 16.8965V18.209C190.125 18.325 190.171 18.4363 190.253 18.5183C190.335 18.6004 190.446 18.6465 190.562 18.6465C190.679 18.6465 190.79 18.6004 190.872 18.5183C190.954 18.4363 191 18.325 191 18.209V16.8965C191 16.7805 191.046 16.6692 191.128 16.5871C191.21 16.5051 191.321 16.459 191.438 16.459C191.554 16.459 191.665 16.5051 191.747 16.5871C191.829 16.6692 191.875 16.7805 191.875 16.8965V18.209C191.875 18.5571 191.737 18.8909 191.491 19.1371C191.244 19.3832 190.911 19.5215 190.562 19.5215Z" fill="#141414"/>
<path d="M189.688 13.834C189.571 13.834 189.46 13.7879 189.378 13.7058C189.296 13.6238 189.25 13.5125 189.25 13.3965V11.209C189.25 11.093 189.296 10.9817 189.378 10.8996C189.46 10.8176 189.571 10.7715 189.688 10.7715C189.804 10.7715 189.915 10.8176 189.997 10.8996C190.079 10.9817 190.125 11.093 190.125 11.209V13.3965C190.125 13.5125 190.079 13.6238 189.997 13.7058C189.915 13.7879 189.804 13.834 189.688 13.834Z" fill="#141414"/>
<path d="M194.5 19.5217C194.434 19.5214 194.37 19.5063 194.311 19.4775C194.251 19.4488 194.2 19.407 194.159 19.3555L192.409 17.168C192.348 17.0767 192.324 16.966 192.341 16.8577C192.358 16.7494 192.415 16.6515 192.501 16.5833C192.587 16.5151 192.695 16.4816 192.804 16.4894C192.914 16.4972 193.016 16.5458 193.091 16.6255L194.841 18.813C194.892 18.8773 194.924 18.9547 194.933 19.0362C194.942 19.1177 194.928 19.2001 194.892 19.274C194.857 19.3479 194.801 19.4103 194.732 19.4541C194.662 19.4979 194.582 19.5213 194.5 19.5217Z" fill="#141414"/>
<path d="M192.75 19.5212C192.668 19.5209 192.588 19.4974 192.518 19.4536C192.449 19.4099 192.393 19.3474 192.358 19.2735C192.322 19.1996 192.308 19.1172 192.317 19.0357C192.326 18.9542 192.358 18.8768 192.409 18.8125L194.159 16.625C194.192 16.5745 194.236 16.5316 194.287 16.4989C194.338 16.4662 194.395 16.4444 194.455 16.435C194.515 16.4256 194.576 16.4287 194.635 16.4441C194.693 16.4596 194.748 16.487 194.795 16.5247C194.843 16.5624 194.882 16.6095 194.91 16.6631C194.938 16.7167 194.955 16.7756 194.959 16.836C194.964 16.8964 194.955 16.9571 194.935 17.0142C194.915 17.0712 194.883 17.1234 194.841 17.1675L193.091 19.355C193.05 19.4066 192.999 19.4483 192.94 19.4771C192.88 19.5058 192.816 19.5209 192.75 19.5212Z" fill="#141414"/>
<path d="M190.562 21.2715H189.688C189.571 21.2715 189.46 21.2254 189.378 21.1433C189.296 21.0613 189.25 20.95 189.25 20.834C189.25 20.718 189.296 20.6067 189.378 20.5246C189.46 20.4426 189.571 20.3965 189.688 20.3965H190.562C190.679 20.3965 190.79 20.4426 190.872 20.5246C190.954 20.6067 191 20.718 191 20.834C191 20.95 190.954 21.0613 190.872 21.1433C190.79 21.2254 190.679 21.2715 190.562 21.2715Z" fill="#141414"/>
<path d="M195.812 21.2715H192.312C192.196 21.2715 192.085 21.2254 192.003 21.1433C191.921 21.0613 191.875 20.95 191.875 20.834C191.875 20.718 191.921 20.6067 192.003 20.5246C192.085 20.4426 192.196 20.3965 192.312 20.3965H195.812C195.929 20.3965 196.04 20.4426 196.122 20.5246C196.204 20.6067 196.25 20.718 196.25 20.834C196.25 20.95 196.204 21.0613 196.122 21.1433C196.04 21.2254 195.929 21.2715 195.812 21.2715Z" fill="#141414"/>
<rect x="238.5" y="0.0214844" width="103" height="32" rx="16" fill="#FFDA01"/>
<path d="M252.65 21.0215L250.588 14.3008H250.535C250.543 14.4609 250.555 14.7031 250.57 15.0273C250.59 15.3477 250.607 15.6895 250.623 16.0527C250.639 16.416 250.646 16.7441 250.646 17.0371V21.0215H249.023V12.4551H251.496L253.523 19.0059H253.559L255.709 12.4551H258.182V21.0215H256.488V16.9668C256.488 16.6973 256.492 16.3867 256.5 16.0352C256.512 15.6836 256.525 15.3496 256.541 15.0332C256.557 14.7129 256.568 14.4727 256.576 14.3125H256.523L254.314 21.0215H252.65ZM262.887 14.3359C263.766 14.3359 264.439 14.5273 264.908 14.9102C265.377 15.293 265.611 15.875 265.611 16.6562V21.0215H264.363L264.018 20.1309H263.971C263.783 20.3652 263.592 20.5566 263.396 20.7051C263.201 20.8535 262.977 20.9629 262.723 21.0332C262.469 21.1035 262.16 21.1387 261.797 21.1387C261.41 21.1387 261.062 21.0645 260.754 20.916C260.449 20.7676 260.209 20.541 260.033 20.2363C259.857 19.9277 259.77 19.5371 259.77 19.0645C259.77 18.3691 260.014 17.8574 260.502 17.5293C260.99 17.1973 261.723 17.0137 262.699 16.9785L263.836 16.9434V16.6562C263.836 16.3125 263.746 16.0605 263.566 15.9004C263.387 15.7402 263.137 15.6602 262.816 15.6602C262.5 15.6602 262.189 15.7051 261.885 15.7949C261.58 15.8848 261.275 15.998 260.971 16.1348L260.379 14.9277C260.727 14.7441 261.115 14.5996 261.545 14.4941C261.979 14.3887 262.426 14.3359 262.887 14.3359ZM263.836 17.9863L263.145 18.0098C262.566 18.0254 262.164 18.1289 261.938 18.3203C261.715 18.5117 261.604 18.7637 261.604 19.0762C261.604 19.3496 261.684 19.5449 261.844 19.6621C262.004 19.7754 262.213 19.832 262.471 19.832C262.854 19.832 263.176 19.7188 263.438 19.4922C263.703 19.2656 263.836 18.9434 263.836 18.5254V17.9863ZM271.113 14.3477C271.203 14.3477 271.307 14.3535 271.424 14.3652C271.545 14.373 271.643 14.3848 271.717 14.4004L271.582 16.0762C271.523 16.0566 271.439 16.043 271.33 16.0352C271.225 16.0234 271.133 16.0176 271.055 16.0176C270.824 16.0176 270.6 16.0469 270.381 16.1055C270.166 16.1641 269.973 16.2598 269.801 16.3926C269.629 16.5215 269.492 16.6934 269.391 16.9082C269.293 17.1191 269.244 17.3789 269.244 17.6875V21.0215H267.457V14.4707H268.811L269.074 15.5723H269.162C269.291 15.3496 269.451 15.1465 269.643 14.9629C269.838 14.7754 270.059 14.627 270.305 14.5176C270.555 14.4043 270.824 14.3477 271.113 14.3477ZM274.693 11.9043V15.9824C274.693 16.2285 274.684 16.4746 274.664 16.7207C274.645 16.9668 274.623 17.2129 274.6 17.459H274.623C274.744 17.2871 274.867 17.1172 274.992 16.9492C275.121 16.7812 275.258 16.6191 275.402 16.4629L277.236 14.4707H279.252L276.65 17.3125L279.41 21.0215H277.348L275.461 18.3672L274.693 18.9824V21.0215H272.906V11.9043H274.693ZM283.049 14.3477C283.654 14.3477 284.176 14.4648 284.613 14.6992C285.051 14.9297 285.389 15.2656 285.627 15.707C285.865 16.1484 285.984 16.6875 285.984 17.3242V18.1914H281.76C281.779 18.6953 281.93 19.0918 282.211 19.3809C282.496 19.666 282.891 19.8086 283.395 19.8086C283.812 19.8086 284.195 19.7656 284.543 19.6797C284.891 19.5938 285.248 19.4648 285.615 19.293V20.6758C285.291 20.8359 284.951 20.9531 284.596 21.0273C284.244 21.1016 283.816 21.1387 283.312 21.1387C282.656 21.1387 282.074 21.0176 281.566 20.7754C281.062 20.5332 280.666 20.1641 280.377 19.668C280.092 19.1719 279.949 18.5469 279.949 17.793C279.949 17.0273 280.078 16.3906 280.336 15.8828C280.598 15.3711 280.961 14.9883 281.426 14.7344C281.891 14.4766 282.432 14.3477 283.049 14.3477ZM283.061 15.6191C282.713 15.6191 282.424 15.7305 282.193 15.9531C281.967 16.1758 281.836 16.5254 281.801 17.002H284.309C284.305 16.7363 284.256 16.5 284.162 16.293C284.072 16.0859 283.936 15.9219 283.752 15.8008C283.572 15.6797 283.342 15.6191 283.061 15.6191ZM290.197 19.7148C290.393 19.7148 290.582 19.6953 290.766 19.6562C290.953 19.6172 291.139 19.5684 291.322 19.5098V20.8398C291.131 20.9258 290.893 20.9961 290.607 21.0508C290.326 21.1094 290.018 21.1387 289.682 21.1387C289.291 21.1387 288.939 21.0762 288.627 20.9512C288.318 20.8223 288.074 20.6016 287.895 20.2891C287.719 19.9727 287.631 19.5332 287.631 18.9707V15.8125H286.775V15.0566L287.76 14.459L288.275 13.0762H289.418V14.4707H291.252V15.8125H289.418V18.9707C289.418 19.2207 289.488 19.4082 289.629 19.5332C289.773 19.6543 289.963 19.7148 290.197 19.7148ZM294.439 14.4707V21.0215H292.652V14.4707H294.439ZM293.549 11.9043C293.814 11.9043 294.043 11.9668 294.234 12.0918C294.426 12.2129 294.521 12.4414 294.521 12.7773C294.521 13.1094 294.426 13.3398 294.234 13.4688C294.043 13.5938 293.814 13.6562 293.549 13.6562C293.279 13.6562 293.049 13.5938 292.857 13.4688C292.67 13.3398 292.576 13.1094 292.576 12.7773C292.576 12.4414 292.67 12.2129 292.857 12.0918C293.049 11.9668 293.279 11.9043 293.549 11.9043ZM300.041 14.3477C300.74 14.3477 301.303 14.5391 301.729 14.9219C302.154 15.3008 302.367 15.9102 302.367 16.75V21.0215H300.58V17.1953C300.58 16.7266 300.494 16.373 300.322 16.1348C300.154 15.8965 299.889 15.7773 299.525 15.7773C298.979 15.7773 298.605 15.9629 298.406 16.334C298.207 16.7051 298.107 17.2402 298.107 17.9395V21.0215H296.32V14.4707H297.686L297.926 15.3086H298.025C298.166 15.082 298.34 14.8984 298.547 14.7578C298.758 14.6172 298.99 14.5137 299.244 14.4473C299.502 14.3809 299.768 14.3477 300.041 14.3477ZM306.123 23.9043C305.209 23.9043 304.51 23.7441 304.025 23.4238C303.545 23.1074 303.305 22.6621 303.305 22.0879C303.305 21.6934 303.428 21.3633 303.674 21.0977C303.92 20.832 304.281 20.6426 304.758 20.5293C304.574 20.4512 304.414 20.3242 304.277 20.1484C304.141 19.9688 304.072 19.7793 304.072 19.5801C304.072 19.3301 304.145 19.123 304.289 18.959C304.434 18.791 304.643 18.627 304.916 18.4668C304.572 18.3184 304.299 18.0801 304.096 17.752C303.896 17.4238 303.797 17.0371 303.797 16.5918C303.797 16.1152 303.9 15.7109 304.107 15.3789C304.318 15.043 304.623 14.7871 305.021 14.6113C305.424 14.4355 305.912 14.3477 306.486 14.3477C306.607 14.3477 306.748 14.3555 306.908 14.3711C307.068 14.3867 307.215 14.4043 307.348 14.4238C307.484 14.4434 307.576 14.459 307.623 14.4707H309.908V15.3789L308.883 15.6426C308.977 15.7871 309.047 15.9414 309.094 16.1055C309.141 16.2695 309.164 16.4434 309.164 16.627C309.164 17.3301 308.918 17.8789 308.426 18.2734C307.938 18.6641 307.258 18.8594 306.387 18.8594C306.18 18.8477 305.984 18.832 305.801 18.8125C305.711 18.8828 305.643 18.957 305.596 19.0352C305.549 19.1133 305.525 19.1953 305.525 19.2812C305.525 19.3672 305.561 19.4395 305.631 19.498C305.705 19.5527 305.814 19.5957 305.959 19.627C306.107 19.6543 306.291 19.668 306.51 19.668H307.623C308.342 19.668 308.889 19.8223 309.264 20.1309C309.643 20.4395 309.832 20.8926 309.832 21.4902C309.832 22.2559 309.512 22.8496 308.871 23.2715C308.234 23.6934 307.318 23.9043 306.123 23.9043ZM306.199 22.7383C306.625 22.7383 306.99 22.6973 307.295 22.6152C307.604 22.5371 307.84 22.4238 308.004 22.2754C308.168 22.1309 308.25 21.957 308.25 21.7539C308.25 21.5898 308.201 21.459 308.104 21.3613C308.01 21.2676 307.865 21.2012 307.67 21.1621C307.479 21.123 307.232 21.1035 306.932 21.1035H306.006C305.787 21.1035 305.59 21.1387 305.414 21.209C305.242 21.2793 305.105 21.377 305.004 21.502C304.902 21.6309 304.852 21.7793 304.852 21.9473C304.852 22.1934 304.969 22.3867 305.203 22.5273C305.441 22.668 305.773 22.7383 306.199 22.7383ZM306.486 17.7695C306.822 17.7695 307.068 17.666 307.225 17.459C307.381 17.252 307.459 16.9707 307.459 16.6152C307.459 16.2207 307.377 15.9258 307.213 15.7305C307.053 15.5312 306.811 15.4316 306.486 15.4316C306.158 15.4316 305.912 15.5312 305.748 15.7305C305.584 15.9258 305.502 16.2207 305.502 16.6152C305.502 16.9707 305.582 17.252 305.742 17.459C305.906 17.666 306.154 17.7695 306.486 17.7695Z" fill="#141414"/>
<path d="M324.821 18.9288C324.969 19.426 324.575 19.9202 324.079 19.767C323.43 19.5666 322.857 19.2059 322.359 18.6849C321.607 17.8995 321.232 16.9548 321.232 15.8508C321.232 14.7125 321.63 13.7451 322.427 12.9483C323.224 12.1516 324.191 11.7532 325.329 11.7532C326.433 11.7532 327.378 12.1288 328.163 12.88C328.684 13.3784 329.045 13.9518 329.246 14.6005C329.399 15.0961 328.905 15.4904 328.407 15.3425C328.151 15.2661 327.962 15.0555 327.861 14.8072C327.687 14.3756 327.412 14.0092 327.037 13.7081C326.547 13.3154 325.978 13.119 325.329 13.119C324.578 13.119 323.935 13.3865 323.4 13.9215C322.865 14.4564 322.598 15.0995 322.598 15.8508C322.598 16.4995 322.794 17.0686 323.187 17.5581C323.488 17.9334 323.854 18.2083 324.286 18.3828C324.534 18.4832 324.745 18.6722 324.821 18.9288ZM325.853 22.3497C325.902 22.5093 325.804 22.68 325.637 22.68H325.329C324.385 22.68 323.497 22.5008 322.666 22.1422C321.835 21.7837 321.112 21.2971 320.498 20.6825C319.883 20.0678 319.396 19.3451 319.038 18.5142C318.679 17.6833 318.5 16.7955 318.5 15.8508C318.5 14.906 318.679 14.0182 319.038 13.1873C319.396 12.3564 319.883 11.6337 320.498 11.019C321.112 10.4044 321.835 9.91783 322.666 9.55929C323.497 9.20075 324.385 9.02148 325.329 9.02148C326.274 9.02148 327.162 9.20075 327.993 9.55929C328.824 9.91783 329.546 10.4044 330.161 11.019C330.776 11.6337 331.262 12.3564 331.621 13.1873C331.979 14.0182 332.159 14.906 332.159 15.8508V16.1581C332.159 16.325 331.988 16.4234 331.828 16.3743L330.989 16.1159C330.872 16.0801 330.793 15.9725 330.793 15.8508C330.793 14.3255 330.263 13.0337 329.205 11.9751C328.146 10.9166 326.854 10.3873 325.329 10.3873C323.804 10.3873 322.512 10.9166 321.454 11.9751C320.395 13.0337 319.866 14.3255 319.866 15.8508C319.866 17.376 320.395 18.6678 321.454 19.7264C322.512 20.7849 323.804 21.3142 325.329 21.3142C325.451 21.3142 325.559 21.3936 325.594 21.51L325.853 22.3497ZM331.826 22.3471C331.453 22.7195 330.849 22.7195 330.477 22.3471L328.232 20.102C327.968 20.897 326.838 20.881 326.598 20.0788L325.863 17.6296C325.634 16.8668 326.345 16.1556 327.108 16.3844L329.557 17.1192C330.36 17.3598 330.376 18.4899 329.58 18.7532L331.826 20.9983C332.198 21.3708 332.198 21.9746 331.826 22.3471Z" fill="#141414"/>
</svg>
