<svg width="685" height="126" viewBox="0 0 685 126" fill="none" xmlns="http://www.w3.org/2000/svg">
<rect width="685" height="126" rx="8" fill="#EAEFFF"/>
<path d="M18.25 21.8672H23.3477C25.5586 21.8672 27.2266 22.1875 28.3516 22.8281C29.4766 23.4688 30.0391 24.5742 30.0391 26.1445C30.0391 26.8008 29.9219 27.3945 29.6875 27.9258C29.4609 28.4492 29.1289 28.8828 28.6914 29.2266C28.2539 29.5625 27.7148 29.7891 27.0742 29.9062V30.0234C27.7383 30.1406 28.3281 30.3477 28.8438 30.6445C29.3672 30.9414 29.7773 31.3672 30.0742 31.9219C30.3789 32.4766 30.5312 33.1953 30.5312 34.0781C30.5312 35.125 30.2812 36.0156 29.7812 36.75C29.2891 37.4844 28.582 38.043 27.6602 38.4258C26.7461 38.8086 25.6602 39 24.4023 39H18.25V21.8672ZM21.0625 28.9336H23.7578C25.0312 28.9336 25.9141 28.7266 26.4062 28.3125C26.8984 27.8984 27.1445 27.293 27.1445 26.4961C27.1445 25.6836 26.8516 25.0977 26.2656 24.7383C25.6875 24.3789 24.7656 24.1992 23.5 24.1992H21.0625V28.9336ZM21.0625 31.207V36.6445H24.0273C25.3398 36.6445 26.2617 36.3906 26.793 35.8828C27.3242 35.375 27.5898 34.6875 27.5898 33.8203C27.5898 33.2891 27.4688 32.8281 27.2266 32.4375C26.9922 32.0469 26.6055 31.7461 26.0664 31.5352C25.5273 31.3164 24.8008 31.207 23.8867 31.207H21.0625ZM36.5547 39H33.7891V20.7656H36.5547V39ZM51.8008 26.0273V39H49.6328L49.2578 37.2539H49.1055C48.832 37.6992 48.4844 38.0703 48.0625 38.3672C47.6406 38.6562 47.1719 38.8711 46.6562 39.0117C46.1406 39.1602 45.5977 39.2344 45.0273 39.2344C44.0508 39.2344 43.2148 39.0703 42.5195 38.7422C41.832 38.4062 41.3047 37.8906 40.9375 37.1953C40.5703 36.5 40.3867 35.6016 40.3867 34.5V26.0273H43.1523V33.9844C43.1523 34.9922 43.3555 35.7461 43.7617 36.2461C44.1758 36.7461 44.8164 36.9961 45.6836 36.9961C46.5195 36.9961 47.1836 36.8242 47.6758 36.4805C48.168 36.1367 48.5156 35.6289 48.7188 34.957C48.9297 34.2852 49.0352 33.4609 49.0352 32.4844V26.0273H51.8008ZM60.918 25.7812C62.0742 25.7812 63.0664 26.0195 63.8945 26.4961C64.7227 26.9727 65.3594 27.6484 65.8047 28.5234C66.25 29.3984 66.4727 30.4453 66.4727 31.6641V33.1406H57.8125C57.8438 34.3984 58.1797 35.3672 58.8203 36.0469C59.4688 36.7266 60.375 37.0664 61.5391 37.0664C62.3672 37.0664 63.1094 36.9883 63.7656 36.832C64.4297 36.668 65.1133 36.4297 65.8164 36.1172V38.3555C65.168 38.6602 64.5078 38.8828 63.8359 39.0234C63.1641 39.1641 62.3594 39.2344 61.4219 39.2344C60.1484 39.2344 59.0273 38.9883 58.0586 38.4961C57.0977 37.9961 56.3438 37.2539 55.7969 36.2695C55.2578 35.2852 54.9883 34.0625 54.9883 32.6016C54.9883 31.1484 55.2344 29.9141 55.7266 28.8984C56.2188 27.8828 56.9102 27.1094 57.8008 26.5781C58.6914 26.0469 59.7305 25.7812 60.918 25.7812ZM60.918 27.8555C60.0508 27.8555 59.3477 28.1367 58.8086 28.6992C58.2773 29.2617 57.9648 30.0859 57.8711 31.1719H63.7773C63.7695 30.5234 63.6602 29.9492 63.4492 29.4492C63.2461 28.9492 62.9336 28.5586 62.5117 28.2773C62.0977 27.9961 61.5664 27.8555 60.918 27.8555ZM74.6875 33.7266V31.3945H80.7344V33.7266H74.6875ZM96.0039 39H93.1797V24.2578H88.1641V21.8672H101.008V24.2578H96.0039V39ZM106.105 26.0273V39H103.352V26.0273H106.105ZM104.746 21.0586C105.168 21.0586 105.531 21.1719 105.836 21.3984C106.148 21.625 106.305 22.0156 106.305 22.5703C106.305 23.1172 106.148 23.5078 105.836 23.7422C105.531 23.9688 105.168 24.082 104.746 24.082C104.309 24.082 103.938 23.9688 103.633 23.7422C103.336 23.5078 103.188 23.1172 103.188 22.5703C103.188 22.0156 103.336 21.625 103.633 21.3984C103.938 21.1719 104.309 21.0586 104.746 21.0586ZM116.816 25.7812C118.277 25.7812 119.414 26.1602 120.227 26.918C121.047 27.668 121.457 28.875 121.457 30.5391V39H118.703V31.0547C118.703 30.0469 118.496 29.293 118.082 28.793C117.668 28.2852 117.027 28.0312 116.16 28.0312C114.902 28.0312 114.027 28.418 113.535 29.1914C113.051 29.9648 112.809 31.0859 112.809 32.5547V39H110.055V26.0273H112.199L112.586 27.7852H112.738C113.02 27.332 113.367 26.9609 113.781 26.6719C114.203 26.375 114.672 26.1523 115.188 26.0039C115.711 25.8555 116.254 25.7812 116.816 25.7812ZM130.141 37.0078C130.5 37.0078 130.855 36.9766 131.207 36.9141C131.559 36.8438 131.879 36.7617 132.168 36.668V38.7539C131.863 38.8867 131.469 39 130.984 39.0938C130.5 39.1875 129.996 39.2344 129.473 39.2344C128.738 39.2344 128.078 39.1133 127.492 38.8711C126.906 38.6211 126.441 38.1953 126.098 37.5938C125.754 36.9922 125.582 36.1602 125.582 35.0977V28.125H123.812V26.8945L125.711 25.9219L126.613 23.1445H128.348V26.0273H132.062V28.125H128.348V35.0625C128.348 35.7188 128.512 36.207 128.84 36.5273C129.168 36.8477 129.602 37.0078 130.141 37.0078ZM145.973 28.2891C147.074 28.2891 148.043 28.4883 148.879 28.8867C149.723 29.2773 150.379 29.8555 150.848 30.6211C151.316 31.3789 151.551 32.3086 151.551 33.4102C151.551 34.6133 151.297 35.6523 150.789 36.5273C150.281 37.3945 149.535 38.0625 148.551 38.5312C147.566 39 146.367 39.2344 144.953 39.2344C144.055 39.2344 143.215 39.1562 142.434 39C141.66 38.8438 140.992 38.6094 140.43 38.2969V35.8125C141.016 36.1406 141.719 36.4102 142.539 36.6211C143.359 36.8242 144.145 36.9258 144.895 36.9258C145.691 36.9258 146.375 36.8086 146.945 36.5742C147.516 36.3398 147.953 35.9805 148.258 35.4961C148.57 35.0117 148.727 34.3984 148.727 33.6562C148.727 32.6719 148.41 31.9141 147.777 31.3828C147.152 30.8438 146.172 30.5742 144.836 30.5742C144.367 30.5742 143.867 30.6172 143.336 30.7031C142.812 30.7812 142.375 30.8672 142.023 30.9609L140.816 30.2461L141.461 21.8672H150.367V24.293H143.887L143.512 28.5586C143.793 28.4961 144.129 28.4375 144.52 28.3828C144.91 28.3203 145.395 28.2891 145.973 28.2891ZM165.484 30.4219C165.484 31.8047 165.375 33.043 165.156 34.1367C164.945 35.2227 164.609 36.1445 164.148 36.9023C163.688 37.6602 163.086 38.2383 162.344 38.6367C161.602 39.0352 160.703 39.2344 159.648 39.2344C158.328 39.2344 157.238 38.8867 156.379 38.1914C155.52 37.4883 154.883 36.4805 154.469 35.168C154.055 33.8477 153.848 32.2656 153.848 30.4219C153.848 28.5781 154.035 27 154.41 25.6875C154.793 24.3672 155.41 23.3555 156.262 22.6523C157.113 21.9492 158.242 21.5977 159.648 21.5977C160.977 21.5977 162.07 21.9492 162.93 22.6523C163.797 23.3477 164.438 24.3555 164.852 25.6758C165.273 26.9883 165.484 28.5703 165.484 30.4219ZM156.625 30.4219C156.625 31.8672 156.719 33.0742 156.906 34.043C157.102 35.0117 157.422 35.7383 157.867 36.2227C158.312 36.6992 158.906 36.9375 159.648 36.9375C160.391 36.9375 160.984 36.6992 161.43 36.2227C161.875 35.7461 162.195 35.0234 162.391 34.0547C162.594 33.0859 162.695 31.875 162.695 30.4219C162.695 28.9844 162.598 27.7812 162.402 26.8125C162.207 25.8438 161.887 25.1172 161.441 24.6328C160.996 24.1406 160.398 23.8945 159.648 23.8945C158.898 23.8945 158.301 24.1406 157.855 24.6328C157.418 25.1172 157.102 25.8438 156.906 26.8125C156.719 27.7812 156.625 28.9844 156.625 30.4219Z" fill="#141414"/>
<path d="M27.6016 72.7812L26.9453 76.1328H30.1094V78.0898H26.5703L25.6211 83H23.5352L24.4961 78.0898H21.5664L20.6406 83H18.6016L19.5039 78.0898H16.5742V76.1328H19.8789L20.5469 72.7812H17.4414V70.8242H20.8984L21.8359 65.8789H23.9219L22.9844 70.8242H25.9375L26.8867 65.8789H28.9141L27.9766 70.8242H30.9297V72.7812H27.6016ZM21.9414 76.1328H24.8711L25.5391 72.7812H22.5977L21.9414 76.1328ZM43.4688 83H33.7656V65.8672H43.4688V68.2344H36.5781V72.8867H43.0352V75.2422H36.5781V80.6211H43.4688V83ZM57.7891 83L56.1133 78.2422H49.5625L47.8867 83H44.9219L51.2969 65.7969H54.4141L60.7773 83H57.7891ZM55.3867 75.8281L53.7578 71.1406C53.6953 70.9375 53.6055 70.6523 53.4883 70.2852C53.3711 69.9102 53.2539 69.5312 53.1367 69.1484C53.0195 68.7578 52.9219 68.4297 52.8438 68.1641C52.7656 68.4844 52.668 68.8438 52.5508 69.2422C52.4414 69.6328 52.332 70 52.2227 70.3438C52.1211 70.6875 52.043 70.9531 51.9883 71.1406L50.3477 75.8281H55.3867ZM72.7422 83H63.0391V65.8672H72.7422V68.2344H65.8516V72.8867H72.3086V75.2422H65.8516V80.6211H72.7422V83ZM79.2344 83H76.4453V65.8672H86.125V68.2344H79.2344V73.5781H85.6797V75.9336H79.2344V83ZM92.0312 83H89.2422V65.8672H98.9219V68.2344H92.0312V73.5781H98.4766V75.9336H92.0312V83ZM104.828 83H102.039V65.8672H111.719V68.2344H104.828V73.5781H111.273V75.9336H104.828V83Z" fill="#141414"/>
</svg>
