<svg width="685" height="127" viewBox="0 0 685 127" fill="none" xmlns="http://www.w3.org/2000/svg">
<rect y="0.521729" width="685" height="126" rx="8" fill="#626262"/>
<path d="M18.25 33.3889H23.3477C25.5586 33.3889 27.2266 33.7092 28.3516 34.3499C29.4766 34.9905 30.0391 36.0959 30.0391 37.6663C30.0391 38.3225 29.9219 38.9163 29.6875 39.4475C29.4609 39.9709 29.1289 40.4045 28.6914 40.7483C28.2539 41.0842 27.7148 41.3108 27.0742 41.428V41.5452C27.7383 41.6624 28.3281 41.8694 28.8438 42.1663C29.3672 42.4631 29.7773 42.8889 30.0742 43.4436C30.3789 43.9983 30.5312 44.717 30.5312 45.5999C30.5312 46.6467 30.2812 47.5374 29.7812 48.2717C29.2891 49.0061 28.582 49.5647 27.6602 49.9475C26.7461 50.3303 25.6602 50.5217 24.4023 50.5217H18.25V33.3889ZM21.0625 40.4553H23.7578C25.0312 40.4553 25.9141 40.2483 26.4062 39.8342C26.8984 39.4202 27.1445 38.8147 27.1445 38.0178C27.1445 37.2053 26.8516 36.6194 26.2656 36.26C25.6875 35.9006 24.7656 35.7209 23.5 35.7209H21.0625V40.4553ZM21.0625 42.7288V48.1663H24.0273C25.3398 48.1663 26.2617 47.9124 26.793 47.4045C27.3242 46.8967 27.5898 46.2092 27.5898 45.342C27.5898 44.8108 27.4688 44.3499 27.2266 43.9592C26.9922 43.5686 26.6055 43.2678 26.0664 43.0569C25.5273 42.8381 24.8008 42.7288 23.8867 42.7288H21.0625ZM36.5547 50.5217H33.7891V32.2874H36.5547V50.5217ZM45.5781 37.303C47.2188 37.303 48.457 37.6663 49.293 38.3928C50.1367 39.1194 50.5586 40.2522 50.5586 41.7913V50.5217H48.6016L48.0742 48.6819H47.9805C47.6133 49.1506 47.2344 49.5374 46.8438 49.842C46.4531 50.1467 46 50.3733 45.4844 50.5217C44.9766 50.678 44.3555 50.7561 43.6211 50.7561C42.8477 50.7561 42.1562 50.6155 41.5469 50.3342C40.9375 50.0452 40.457 49.6077 40.1055 49.0217C39.7539 48.4358 39.5781 47.6936 39.5781 46.7952C39.5781 45.4592 40.0742 44.4553 41.0664 43.7834C42.0664 43.1116 43.5742 42.7405 45.5898 42.6702L47.8398 42.5881V41.9084C47.8398 41.01 47.6289 40.3694 47.207 39.9866C46.793 39.6038 46.207 39.4124 45.4492 39.4124C44.8008 39.4124 44.1719 39.5061 43.5625 39.6936C42.9531 39.8811 42.3594 40.1116 41.7812 40.385L40.8906 38.4397C41.5234 38.1038 42.2422 37.8303 43.0469 37.6194C43.8594 37.4084 44.7031 37.303 45.5781 37.303ZM47.8281 44.3225L46.1523 44.3811C44.7773 44.428 43.8125 44.6624 43.2578 45.0842C42.7031 45.5061 42.4258 46.0842 42.4258 46.8186C42.4258 47.4592 42.6172 47.928 43 48.2249C43.3828 48.5139 43.8867 48.6584 44.5117 48.6584C45.4648 48.6584 46.2539 48.3889 46.8789 47.8499C47.5117 47.303 47.8281 46.5022 47.8281 45.4475V44.3225ZM59.6406 50.7561C58.4141 50.7561 57.3516 50.5178 56.4531 50.0413C55.5547 49.5647 54.8633 48.8342 54.3789 47.8499C53.8945 46.8655 53.6523 45.6155 53.6523 44.0999C53.6523 42.5217 53.918 41.2327 54.4492 40.2327C54.9805 39.2327 55.7148 38.4944 56.6523 38.0178C57.5977 37.5413 58.6797 37.303 59.8984 37.303C60.6719 37.303 61.3711 37.3811 61.9961 37.5374C62.6289 37.6858 63.1641 37.8694 63.6016 38.0881L62.7812 40.2913C62.3047 40.0959 61.8164 39.9319 61.3164 39.7991C60.8164 39.6663 60.3359 39.5999 59.875 39.5999C59.1172 39.5999 58.4844 39.7678 57.9766 40.1038C57.4766 40.4397 57.1016 40.9397 56.8516 41.6038C56.6094 42.2678 56.4883 43.092 56.4883 44.0764C56.4883 45.0295 56.6133 45.8342 56.8633 46.4905C57.1133 47.1389 57.4844 47.6311 57.9766 47.967C58.4688 48.2952 59.0742 48.4592 59.793 48.4592C60.5039 48.4592 61.1406 48.3733 61.7031 48.2014C62.2656 48.0295 62.7969 47.8069 63.2969 47.5334V49.9241C62.8047 50.2053 62.2773 50.4124 61.7148 50.5452C61.1523 50.6858 60.4609 50.7561 59.6406 50.7561ZM69.0977 32.2874V41.0999C69.0977 41.4983 69.082 41.9358 69.0508 42.4124C69.0195 42.8811 68.9883 43.3225 68.957 43.7366H69.0156C69.2188 43.4631 69.4609 43.1428 69.7422 42.7756C70.0312 42.4084 70.3047 42.0881 70.5625 41.8147L74.5234 37.5491H77.6875L72.4961 43.1272L78.0273 50.5217H74.793L70.6445 44.8264L69.0977 46.1506V50.5217H66.3438V32.2874H69.0977ZM85.2109 45.2483V42.9163H91.2578V45.2483H85.2109ZM106.527 50.5217H103.703V35.7795H98.6875V33.3889H111.531V35.7795H106.527V50.5217ZM116.629 37.5491V50.5217H113.875V37.5491H116.629ZM115.27 32.5803C115.691 32.5803 116.055 32.6936 116.359 32.9202C116.672 33.1467 116.828 33.5374 116.828 34.092C116.828 34.6389 116.672 35.0295 116.359 35.2639C116.055 35.4905 115.691 35.6038 115.27 35.6038C114.832 35.6038 114.461 35.4905 114.156 35.2639C113.859 35.0295 113.711 34.6389 113.711 34.092C113.711 33.5374 113.859 33.1467 114.156 32.9202C114.461 32.6936 114.832 32.5803 115.27 32.5803ZM127.34 37.303C128.801 37.303 129.938 37.6819 130.75 38.4397C131.57 39.1897 131.98 40.3967 131.98 42.0608V50.5217H129.227V42.5764C129.227 41.5686 129.02 40.8147 128.605 40.3147C128.191 39.8069 127.551 39.553 126.684 39.553C125.426 39.553 124.551 39.9397 124.059 40.7131C123.574 41.4866 123.332 42.6077 123.332 44.0764V50.5217H120.578V37.5491H122.723L123.109 39.3069H123.262C123.543 38.8538 123.891 38.4827 124.305 38.1936C124.727 37.8967 125.195 37.6741 125.711 37.5256C126.234 37.3772 126.777 37.303 127.34 37.303ZM140.664 48.5295C141.023 48.5295 141.379 48.4983 141.73 48.4358C142.082 48.3655 142.402 48.2834 142.691 48.1897V50.2756C142.387 50.4084 141.992 50.5217 141.508 50.6155C141.023 50.7092 140.52 50.7561 139.996 50.7561C139.262 50.7561 138.602 50.635 138.016 50.3928C137.43 50.1428 136.965 49.717 136.621 49.1155C136.277 48.5139 136.105 47.6819 136.105 46.6194V39.6467H134.336V38.4163L136.234 37.4436L137.137 34.6663H138.871V37.5491H142.586V39.6467H138.871V46.5842C138.871 47.2405 139.035 47.7288 139.363 48.0491C139.691 48.3694 140.125 48.5295 140.664 48.5295ZM161.617 37.303C161.617 38.0764 161.461 38.7483 161.148 39.3186C160.836 39.8889 160.406 40.3577 159.859 40.7249C159.32 41.0842 158.695 41.342 157.984 41.4983V41.5803C159.352 41.7522 160.383 42.1819 161.078 42.8694C161.781 43.5569 162.133 44.467 162.133 45.5999C162.133 46.592 161.895 47.4788 161.418 48.26C160.941 49.0334 160.211 49.6428 159.227 50.0881C158.242 50.5334 156.977 50.7561 155.43 50.7561C154.5 50.7561 153.637 50.6819 152.84 50.5334C152.051 50.385 151.301 50.1467 150.59 49.8186V47.3694C151.316 47.7288 152.09 48.0061 152.91 48.2014C153.73 48.3967 154.508 48.4944 155.242 48.4944C156.672 48.4944 157.691 48.2288 158.301 47.6975C158.91 47.1584 159.215 46.4163 159.215 45.4709C159.215 44.8616 159.055 44.3616 158.734 43.9709C158.422 43.5803 157.934 43.2874 157.27 43.092C156.613 42.8967 155.766 42.7991 154.727 42.7991H153.215V40.5842H154.738C155.73 40.5842 156.527 40.467 157.129 40.2327C157.73 39.9905 158.164 39.6584 158.43 39.2366C158.703 38.8147 158.84 38.3225 158.84 37.76C158.84 37.0256 158.602 36.4553 158.125 36.0491C157.648 35.635 156.941 35.428 156.004 35.428C155.426 35.428 154.898 35.4944 154.422 35.6272C153.953 35.76 153.52 35.928 153.121 36.1311C152.723 36.3342 152.344 36.553 151.984 36.7874L150.66 34.8772C151.309 34.3928 152.082 33.9827 152.98 33.6467C153.879 33.3108 154.926 33.1428 156.121 33.1428C157.879 33.1428 159.234 33.5217 160.188 34.2795C161.141 35.0295 161.617 36.0374 161.617 37.303ZM176.008 41.9436C176.008 43.3264 175.898 44.5647 175.68 45.6584C175.469 46.7444 175.133 47.6663 174.672 48.4241C174.211 49.1819 173.609 49.76 172.867 50.1584C172.125 50.5569 171.227 50.7561 170.172 50.7561C168.852 50.7561 167.762 50.4084 166.902 49.7131C166.043 49.01 165.406 48.0022 164.992 46.6897C164.578 45.3694 164.371 43.7874 164.371 41.9436C164.371 40.0999 164.559 38.5217 164.934 37.2092C165.316 35.8889 165.934 34.8772 166.785 34.1741C167.637 33.4709 168.766 33.1194 170.172 33.1194C171.5 33.1194 172.594 33.4709 173.453 34.1741C174.32 34.8694 174.961 35.8772 175.375 37.1975C175.797 38.51 176.008 40.092 176.008 41.9436ZM167.148 41.9436C167.148 43.3889 167.242 44.5959 167.43 45.5647C167.625 46.5334 167.945 47.26 168.391 47.7444C168.836 48.2209 169.43 48.4592 170.172 48.4592C170.914 48.4592 171.508 48.2209 171.953 47.7444C172.398 47.2678 172.719 46.5452 172.914 45.5764C173.117 44.6077 173.219 43.3967 173.219 41.9436C173.219 40.5061 173.121 39.303 172.926 38.3342C172.73 37.3655 172.41 36.6389 171.965 36.1545C171.52 35.6624 170.922 35.4163 170.172 35.4163C169.422 35.4163 168.824 35.6624 168.379 36.1545C167.941 36.6389 167.625 37.3655 167.43 38.3342C167.242 39.303 167.148 40.5061 167.148 41.9436ZM189.742 41.9436C189.742 43.3264 189.633 44.5647 189.414 45.6584C189.203 46.7444 188.867 47.6663 188.406 48.4241C187.945 49.1819 187.344 49.76 186.602 50.1584C185.859 50.5569 184.961 50.7561 183.906 50.7561C182.586 50.7561 181.496 50.4084 180.637 49.7131C179.777 49.01 179.141 48.0022 178.727 46.6897C178.312 45.3694 178.105 43.7874 178.105 41.9436C178.105 40.0999 178.293 38.5217 178.668 37.2092C179.051 35.8889 179.668 34.8772 180.52 34.1741C181.371 33.4709 182.5 33.1194 183.906 33.1194C185.234 33.1194 186.328 33.4709 187.188 34.1741C188.055 34.8694 188.695 35.8772 189.109 37.1975C189.531 38.51 189.742 40.092 189.742 41.9436ZM180.883 41.9436C180.883 43.3889 180.977 44.5959 181.164 45.5647C181.359 46.5334 181.68 47.26 182.125 47.7444C182.57 48.2209 183.164 48.4592 183.906 48.4592C184.648 48.4592 185.242 48.2209 185.688 47.7444C186.133 47.2678 186.453 46.5452 186.648 45.5764C186.852 44.6077 186.953 43.3967 186.953 41.9436C186.953 40.5061 186.855 39.303 186.66 38.3342C186.465 37.3655 186.145 36.6389 185.699 36.1545C185.254 35.6624 184.656 35.4163 183.906 35.4163C183.156 35.4163 182.559 35.6624 182.113 36.1545C181.676 36.6389 181.359 37.3655 181.164 38.3342C180.977 39.303 180.883 40.5061 180.883 41.9436Z" fill="white"/>
<path d="M27.6016 84.303L26.9453 87.6545H30.1094V89.6116H26.5703L25.6211 94.5217H23.5352L24.4961 89.6116H21.5664L20.6406 94.5217H18.6016L19.5039 89.6116H16.5742V87.6545H19.8789L20.5469 84.303H17.4414V82.3459H20.8984L21.8359 77.4006H23.9219L22.9844 82.3459H25.9375L26.8867 77.4006H28.9141L27.9766 82.3459H30.9297V84.303H27.6016ZM21.9414 87.6545H24.8711L25.5391 84.303H22.5977L21.9414 87.6545ZM32.6172 87.2209C32.6172 86.2131 32.6875 85.2209 32.8281 84.2444C32.9766 83.2678 33.2266 82.3538 33.5781 81.5022C33.9297 80.6506 34.4141 79.9006 35.0312 79.2522C35.6562 78.6038 36.4414 78.0959 37.3867 77.7288C38.332 77.3538 39.4688 77.1663 40.7969 77.1663C41.1406 77.1663 41.5273 77.1819 41.957 77.2131C42.3867 77.2444 42.7422 77.2952 43.0234 77.3655V79.6506C42.7188 79.5647 42.3828 79.4983 42.0156 79.4514C41.6562 79.4045 41.2969 79.3811 40.9375 79.3811C39.5 79.3811 38.3789 79.6545 37.5742 80.2014C36.7695 80.7405 36.1953 81.4827 35.8516 82.428C35.5078 83.3655 35.3086 84.4397 35.2539 85.6506H35.3945C35.6289 85.26 35.9219 84.9124 36.2734 84.6077C36.625 84.303 37.0547 84.0608 37.5625 83.8811C38.0703 83.6936 38.6602 83.5999 39.332 83.5999C40.332 83.5999 41.2031 83.8108 41.9453 84.2327C42.6875 84.6467 43.2578 85.2483 43.6562 86.0374C44.0625 86.8264 44.2656 87.7834 44.2656 88.9084C44.2656 90.1194 44.0352 91.1624 43.5742 92.0374C43.1211 92.9124 42.4727 93.5842 41.6289 94.053C40.793 94.5217 39.7969 94.7561 38.6406 94.7561C37.7891 94.7561 36.9961 94.5999 36.2617 94.2874C35.5352 93.9749 34.8984 93.5061 34.3516 92.8811C33.8047 92.2561 33.3789 91.4749 33.0742 90.5374C32.7695 89.592 32.6172 88.4866 32.6172 87.2209ZM38.5938 92.4827C39.4844 92.4827 40.1992 92.1936 40.7383 91.6155C41.2852 91.0295 41.5586 90.135 41.5586 88.9319C41.5586 87.9553 41.3164 87.1819 40.832 86.6116C40.3555 86.0413 39.6367 85.7561 38.6758 85.7561C38.0195 85.7561 37.4453 85.8967 36.9531 86.178C36.4609 86.4592 36.0781 86.8147 35.8047 87.2444C35.5391 87.6741 35.4062 88.1116 35.4062 88.5569C35.4062 89.01 35.4727 89.467 35.6055 89.928C35.7383 90.3889 35.9375 90.8147 36.2031 91.2053C36.4688 91.5881 36.8008 91.8967 37.1992 92.1311C37.5977 92.3655 38.0625 92.4827 38.5938 92.4827ZM57.9297 94.5217H46.3281V92.4475L50.7695 87.9475C51.6289 87.0725 52.3359 86.3186 52.8906 85.6858C53.4453 85.0452 53.8555 84.4397 54.1211 83.8694C54.3945 83.2991 54.5312 82.678 54.5312 82.0061C54.5312 81.178 54.293 80.553 53.8164 80.1311C53.3398 79.7014 52.7109 79.4866 51.9297 79.4866C51.1875 79.4866 50.5 79.635 49.8672 79.9319C49.2422 80.2209 48.5938 80.635 47.9219 81.1741L46.4102 79.3577C46.8867 78.9514 47.3945 78.5803 47.9336 78.2444C48.4805 77.9084 49.0898 77.6428 49.7617 77.4475C50.4336 77.2444 51.1992 77.1428 52.0586 77.1428C53.1445 77.1428 54.082 77.3381 54.8711 77.7288C55.6602 78.1116 56.2656 78.6467 56.6875 79.3342C57.1172 80.0217 57.332 80.8225 57.332 81.7366C57.332 82.6584 57.1484 83.51 56.7812 84.2913C56.4141 85.0725 55.8906 85.8459 55.2109 86.6116C54.5312 87.3694 53.7227 88.1936 52.7852 89.0842L49.8203 91.9788V92.1077H57.9297V94.5217ZM60.0859 87.2209C60.0859 86.2131 60.1562 85.2209 60.2969 84.2444C60.4453 83.2678 60.6953 82.3538 61.0469 81.5022C61.3984 80.6506 61.8828 79.9006 62.5 79.2522C63.125 78.6038 63.9102 78.0959 64.8555 77.7288C65.8008 77.3538 66.9375 77.1663 68.2656 77.1663C68.6094 77.1663 68.9961 77.1819 69.4258 77.2131C69.8555 77.2444 70.2109 77.2952 70.4922 77.3655V79.6506C70.1875 79.5647 69.8516 79.4983 69.4844 79.4514C69.125 79.4045 68.7656 79.3811 68.4062 79.3811C66.9688 79.3811 65.8477 79.6545 65.043 80.2014C64.2383 80.7405 63.6641 81.4827 63.3203 82.428C62.9766 83.3655 62.7773 84.4397 62.7227 85.6506H62.8633C63.0977 85.26 63.3906 84.9124 63.7422 84.6077C64.0938 84.303 64.5234 84.0608 65.0312 83.8811C65.5391 83.6936 66.1289 83.5999 66.8008 83.5999C67.8008 83.5999 68.6719 83.8108 69.4141 84.2327C70.1562 84.6467 70.7266 85.2483 71.125 86.0374C71.5312 86.8264 71.7344 87.7834 71.7344 88.9084C71.7344 90.1194 71.5039 91.1624 71.043 92.0374C70.5898 92.9124 69.9414 93.5842 69.0977 94.053C68.2617 94.5217 67.2656 94.7561 66.1094 94.7561C65.2578 94.7561 64.4648 94.5999 63.7305 94.2874C63.0039 93.9749 62.3672 93.5061 61.8203 92.8811C61.2734 92.2561 60.8477 91.4749 60.543 90.5374C60.2383 89.592 60.0859 88.4866 60.0859 87.2209ZM66.0625 92.4827C66.9531 92.4827 67.668 92.1936 68.207 91.6155C68.7539 91.0295 69.0273 90.135 69.0273 88.9319C69.0273 87.9553 68.7852 87.1819 68.3008 86.6116C67.8242 86.0413 67.1055 85.7561 66.1445 85.7561C65.4883 85.7561 64.9141 85.8967 64.4219 86.178C63.9297 86.4592 63.5469 86.8147 63.2734 87.2444C63.0078 87.6741 62.875 88.1116 62.875 88.5569C62.875 89.01 62.9414 89.467 63.0742 89.928C63.207 90.3889 63.4062 90.8147 63.6719 91.2053C63.9375 91.5881 64.2695 91.8967 64.668 92.1311C65.0664 92.3655 65.5312 92.4827 66.0625 92.4827ZM85.3984 94.5217H73.7969V92.4475L78.2383 87.9475C79.0977 87.0725 79.8047 86.3186 80.3594 85.6858C80.9141 85.0452 81.3242 84.4397 81.5898 83.8694C81.8633 83.2991 82 82.678 82 82.0061C82 81.178 81.7617 80.553 81.2852 80.1311C80.8086 79.7014 80.1797 79.4866 79.3984 79.4866C78.6562 79.4866 77.9688 79.635 77.3359 79.9319C76.7109 80.2209 76.0625 80.635 75.3906 81.1741L73.8789 79.3577C74.3555 78.9514 74.8633 78.5803 75.4023 78.2444C75.9492 77.9084 76.5586 77.6428 77.2305 77.4475C77.9023 77.2444 78.668 77.1428 79.5273 77.1428C80.6133 77.1428 81.5508 77.3381 82.3398 77.7288C83.1289 78.1116 83.7344 78.6467 84.1562 79.3342C84.5859 80.0217 84.8008 80.8225 84.8008 81.7366C84.8008 82.6584 84.6172 83.51 84.25 84.2913C83.8828 85.0725 83.3594 85.8459 82.6797 86.6116C82 87.3694 81.1914 88.1936 80.2539 89.0842L77.2891 91.9788V92.1077H85.3984V94.5217ZM87.5547 87.2209C87.5547 86.2131 87.625 85.2209 87.7656 84.2444C87.9141 83.2678 88.1641 82.3538 88.5156 81.5022C88.8672 80.6506 89.3516 79.9006 89.9688 79.2522C90.5938 78.6038 91.3789 78.0959 92.3242 77.7288C93.2695 77.3538 94.4062 77.1663 95.7344 77.1663C96.0781 77.1663 96.4648 77.1819 96.8945 77.2131C97.3242 77.2444 97.6797 77.2952 97.9609 77.3655V79.6506C97.6562 79.5647 97.3203 79.4983 96.9531 79.4514C96.5938 79.4045 96.2344 79.3811 95.875 79.3811C94.4375 79.3811 93.3164 79.6545 92.5117 80.2014C91.707 80.7405 91.1328 81.4827 90.7891 82.428C90.4453 83.3655 90.2461 84.4397 90.1914 85.6506H90.332C90.5664 85.26 90.8594 84.9124 91.2109 84.6077C91.5625 84.303 91.9922 84.0608 92.5 83.8811C93.0078 83.6936 93.5977 83.5999 94.2695 83.5999C95.2695 83.5999 96.1406 83.8108 96.8828 84.2327C97.625 84.6467 98.1953 85.2483 98.5938 86.0374C99 86.8264 99.2031 87.7834 99.2031 88.9084C99.2031 90.1194 98.9727 91.1624 98.5117 92.0374C98.0586 92.9124 97.4102 93.5842 96.5664 94.053C95.7305 94.5217 94.7344 94.7561 93.5781 94.7561C92.7266 94.7561 91.9336 94.5999 91.1992 94.2874C90.4727 93.9749 89.8359 93.5061 89.2891 92.8811C88.7422 92.2561 88.3164 91.4749 88.0117 90.5374C87.707 89.592 87.5547 88.4866 87.5547 87.2209ZM93.5312 92.4827C94.4219 92.4827 95.1367 92.1936 95.6758 91.6155C96.2227 91.0295 96.4961 90.135 96.4961 88.9319C96.4961 87.9553 96.2539 87.1819 95.7695 86.6116C95.293 86.0413 94.5742 85.7561 93.6133 85.7561C92.957 85.7561 92.3828 85.8967 91.8906 86.178C91.3984 86.4592 91.0156 86.8147 90.7422 87.2444C90.4766 87.6741 90.3438 88.1116 90.3438 88.5569C90.3438 89.01 90.4102 89.467 90.543 89.928C90.6758 90.3889 90.875 90.8147 91.1406 91.2053C91.4062 91.5881 91.7383 91.8967 92.1367 92.1311C92.5352 92.3655 93 92.4827 93.5312 92.4827ZM112.867 94.5217H101.266V92.4475L105.707 87.9475C106.566 87.0725 107.273 86.3186 107.828 85.6858C108.383 85.0452 108.793 84.4397 109.059 83.8694C109.332 83.2991 109.469 82.678 109.469 82.0061C109.469 81.178 109.23 80.553 108.754 80.1311C108.277 79.7014 107.648 79.4866 106.867 79.4866C106.125 79.4866 105.438 79.635 104.805 79.9319C104.18 80.2209 103.531 80.635 102.859 81.1741L101.348 79.3577C101.824 78.9514 102.332 78.5803 102.871 78.2444C103.418 77.9084 104.027 77.6428 104.699 77.4475C105.371 77.2444 106.137 77.1428 106.996 77.1428C108.082 77.1428 109.02 77.3381 109.809 77.7288C110.598 78.1116 111.203 78.6467 111.625 79.3342C112.055 80.0217 112.27 80.8225 112.27 81.7366C112.27 82.6584 112.086 83.51 111.719 84.2913C111.352 85.0725 110.828 85.8459 110.148 86.6116C109.469 87.3694 108.66 88.1936 107.723 89.0842L104.758 91.9788V92.1077H112.867V94.5217Z" fill="white"/>
</svg>
