<svg width="683" height="663" viewBox="0 0 683 663" fill="none" xmlns="http://www.w3.org/2000/svg">
<rect y="0.521729" width="683" height="661.522" rx="8" fill="#141414"/>
<path d="M18.25 278.389H23.3477C25.5586 278.389 27.2266 278.709 28.3516 279.35C29.4766 279.99 30.0391 281.096 30.0391 282.666C30.0391 283.323 29.9219 283.916 29.6875 284.448C29.4609 284.971 29.1289 285.405 28.6914 285.748C28.2539 286.084 27.7148 286.311 27.0742 286.428V286.545C27.7383 286.662 28.3281 286.869 28.8438 287.166C29.3672 287.463 29.7773 287.889 30.0742 288.444C30.3789 288.998 30.5312 289.717 30.5312 290.6C30.5312 291.647 30.2812 292.537 29.7812 293.272C29.2891 294.006 28.582 294.565 27.6602 294.948C26.7461 295.33 25.6602 295.522 24.4023 295.522H18.25V278.389ZM21.0625 285.455H23.7578C25.0312 285.455 25.9141 285.248 26.4062 284.834C26.8984 284.42 27.1445 283.815 27.1445 283.018C27.1445 282.205 26.8516 281.619 26.2656 281.26C25.6875 280.901 24.7656 280.721 23.5 280.721H21.0625V285.455ZM21.0625 287.729V293.166H24.0273C25.3398 293.166 26.2617 292.912 26.793 292.405C27.3242 291.897 27.5898 291.209 27.5898 290.342C27.5898 289.811 27.4688 289.35 27.2266 288.959C26.9922 288.569 26.6055 288.268 26.0664 288.057C25.5273 287.838 24.8008 287.729 23.8867 287.729H21.0625ZM36.5547 295.522H33.7891V277.287H36.5547V295.522ZM45.5781 282.303C47.2188 282.303 48.457 282.666 49.293 283.393C50.1367 284.119 50.5586 285.252 50.5586 286.791V295.522H48.6016L48.0742 293.682H47.9805C47.6133 294.151 47.2344 294.537 46.8438 294.842C46.4531 295.147 46 295.373 45.4844 295.522C44.9766 295.678 44.3555 295.756 43.6211 295.756C42.8477 295.756 42.1562 295.615 41.5469 295.334C40.9375 295.045 40.457 294.608 40.1055 294.022C39.7539 293.436 39.5781 292.694 39.5781 291.795C39.5781 290.459 40.0742 289.455 41.0664 288.783C42.0664 288.112 43.5742 287.74 45.5898 287.67L47.8398 287.588V286.908C47.8398 286.01 47.6289 285.369 47.207 284.987C46.793 284.604 46.207 284.412 45.4492 284.412C44.8008 284.412 44.1719 284.506 43.5625 284.694C42.9531 284.881 42.3594 285.112 41.7812 285.385L40.8906 283.44C41.5234 283.104 42.2422 282.83 43.0469 282.619C43.8594 282.408 44.7031 282.303 45.5781 282.303ZM47.8281 289.323L46.1523 289.381C44.7773 289.428 43.8125 289.662 43.2578 290.084C42.7031 290.506 42.4258 291.084 42.4258 291.819C42.4258 292.459 42.6172 292.928 43 293.225C43.3828 293.514 43.8867 293.658 44.5117 293.658C45.4648 293.658 46.2539 293.389 46.8789 292.85C47.5117 292.303 47.8281 291.502 47.8281 290.448V289.323ZM59.6406 295.756C58.4141 295.756 57.3516 295.518 56.4531 295.041C55.5547 294.565 54.8633 293.834 54.3789 292.85C53.8945 291.865 53.6523 290.615 53.6523 289.1C53.6523 287.522 53.918 286.233 54.4492 285.233C54.9805 284.233 55.7148 283.494 56.6523 283.018C57.5977 282.541 58.6797 282.303 59.8984 282.303C60.6719 282.303 61.3711 282.381 61.9961 282.537C62.6289 282.686 63.1641 282.869 63.6016 283.088L62.7812 285.291C62.3047 285.096 61.8164 284.932 61.3164 284.799C60.8164 284.666 60.3359 284.6 59.875 284.6C59.1172 284.6 58.4844 284.768 57.9766 285.104C57.4766 285.44 57.1016 285.94 56.8516 286.604C56.6094 287.268 56.4883 288.092 56.4883 289.076C56.4883 290.03 56.6133 290.834 56.8633 291.49C57.1133 292.139 57.4844 292.631 57.9766 292.967C58.4688 293.295 59.0742 293.459 59.793 293.459C60.5039 293.459 61.1406 293.373 61.7031 293.201C62.2656 293.03 62.7969 292.807 63.2969 292.533V294.924C62.8047 295.205 62.2773 295.412 61.7148 295.545C61.1523 295.686 60.4609 295.756 59.6406 295.756ZM69.0977 277.287V286.1C69.0977 286.498 69.082 286.936 69.0508 287.412C69.0195 287.881 68.9883 288.323 68.957 288.737H69.0156C69.2188 288.463 69.4609 288.143 69.7422 287.776C70.0312 287.408 70.3047 287.088 70.5625 286.815L74.5234 282.549H77.6875L72.4961 288.127L78.0273 295.522H74.793L70.6445 289.826L69.0977 291.151V295.522H66.3438V277.287H69.0977Z" fill="white"/>
<path d="M27.6016 323.303L26.9453 326.655H30.1094V328.612H26.5703L25.6211 333.522H23.5352L24.4961 328.612H21.5664L20.6406 333.522H18.6016L19.5039 328.612H16.5742V326.655H19.8789L20.5469 323.303H17.4414V321.346H20.8984L21.8359 316.401H23.9219L22.9844 321.346H25.9375L26.8867 316.401H28.9141L27.9766 321.346H30.9297V323.303H27.6016ZM21.9414 326.655H24.8711L25.5391 323.303H22.5977L21.9414 326.655ZM40.6914 333.522H37.9258V322.494C37.9258 322.127 37.9297 321.76 37.9375 321.393C37.9453 321.026 37.9531 320.666 37.9609 320.315C37.9766 319.963 37.9961 319.627 38.0195 319.307C37.8555 319.487 37.6523 319.682 37.4102 319.893C37.1758 320.104 36.9258 320.323 36.6602 320.549L34.6914 322.119L33.3086 320.373L38.3945 316.389H40.6914V333.522ZM58.5508 329.76H56.2305V333.522H53.5117V329.76H45.7188V327.674L53.5469 316.342H56.2305V327.475H58.5508V329.76ZM53.5117 327.475V323.221C53.5117 322.869 53.5156 322.514 53.5234 322.155C53.5391 321.787 53.5547 321.436 53.5703 321.1C53.5859 320.764 53.6016 320.455 53.6172 320.174C53.6328 319.885 53.6445 319.647 53.6523 319.459H53.5586C53.4102 319.772 53.2461 320.092 53.0664 320.42C52.8867 320.74 52.6953 321.053 52.4922 321.358L48.2734 327.475H53.5117ZM68.1602 333.522H65.3945V322.494C65.3945 322.127 65.3984 321.76 65.4062 321.393C65.4141 321.026 65.4219 320.666 65.4297 320.315C65.4453 319.963 65.4648 319.627 65.4883 319.307C65.3242 319.487 65.1211 319.682 64.8789 319.893C64.6445 320.104 64.3945 320.323 64.1289 320.549L62.1602 322.119L60.7773 320.373L65.8633 316.389H68.1602V333.522ZM86.0195 329.76H83.6992V333.522H80.9805V329.76H73.1875V327.674L81.0156 316.342H83.6992V327.475H86.0195V329.76ZM80.9805 327.475V323.221C80.9805 322.869 80.9844 322.514 80.9922 322.155C81.0078 321.787 81.0234 321.436 81.0391 321.1C81.0547 320.764 81.0703 320.455 81.0859 320.174C81.1016 319.885 81.1133 319.647 81.1211 319.459H81.0273C80.8789 319.772 80.7148 320.092 80.5352 320.42C80.3555 320.74 80.1641 321.053 79.9609 321.358L75.7422 327.475H80.9805ZM95.6289 333.522H92.8633V322.494C92.8633 322.127 92.8672 321.76 92.875 321.393C92.8828 321.026 92.8906 320.666 92.8984 320.315C92.9141 319.963 92.9336 319.627 92.957 319.307C92.793 319.487 92.5898 319.682 92.3477 319.893C92.1133 320.104 91.8633 320.323 91.5977 320.549L89.6289 322.119L88.2461 320.373L93.332 316.389H95.6289V333.522ZM113.488 329.76H111.168V333.522H108.449V329.76H100.656V327.674L108.484 316.342H111.168V327.475H113.488V329.76ZM108.449 327.475V323.221C108.449 322.869 108.453 322.514 108.461 322.155C108.477 321.787 108.492 321.436 108.508 321.1C108.523 320.764 108.539 320.455 108.555 320.174C108.57 319.885 108.582 319.647 108.59 319.459H108.496C108.348 319.772 108.184 320.092 108.004 320.42C107.824 320.74 107.633 321.053 107.43 321.358L103.211 327.475H108.449Z" fill="white"/>
</svg>
