<svg width="685" height="126" viewBox="0 0 685 126" fill="none" xmlns="http://www.w3.org/2000/svg">
<rect width="685" height="126" rx="8" fill="#557FFD"/>
<path d="M18.25 32.8672H23.3477C25.5586 32.8672 27.2266 33.1875 28.3516 33.8281C29.4766 34.4688 30.0391 35.5742 30.0391 37.1445C30.0391 37.8008 29.9219 38.3945 29.6875 38.9258C29.4609 39.4492 29.1289 39.8828 28.6914 40.2266C28.2539 40.5625 27.7148 40.7891 27.0742 40.9062V41.0234C27.7383 41.1406 28.3281 41.3477 28.8438 41.6445C29.3672 41.9414 29.7773 42.3672 30.0742 42.9219C30.3789 43.4766 30.5312 44.1953 30.5312 45.0781C30.5312 46.125 30.2812 47.0156 29.7812 47.75C29.2891 48.4844 28.582 49.043 27.6602 49.4258C26.7461 49.8086 25.6602 50 24.4023 50H18.25V32.8672ZM21.0625 39.9336H23.7578C25.0312 39.9336 25.9141 39.7266 26.4062 39.3125C26.8984 38.8984 27.1445 38.293 27.1445 37.4961C27.1445 36.6836 26.8516 36.0977 26.2656 35.7383C25.6875 35.3789 24.7656 35.1992 23.5 35.1992H21.0625V39.9336ZM21.0625 42.207V47.6445H24.0273C25.3398 47.6445 26.2617 47.3906 26.793 46.8828C27.3242 46.375 27.5898 45.6875 27.5898 44.8203C27.5898 44.2891 27.4688 43.8281 27.2266 43.4375C26.9922 43.0469 26.6055 42.7461 26.0664 42.5352C25.5273 42.3164 24.8008 42.207 23.8867 42.207H21.0625ZM36.5547 50H33.7891V31.7656H36.5547V50ZM51.8008 37.0273V50H49.6328L49.2578 48.2539H49.1055C48.832 48.6992 48.4844 49.0703 48.0625 49.3672C47.6406 49.6562 47.1719 49.8711 46.6562 50.0117C46.1406 50.1602 45.5977 50.2344 45.0273 50.2344C44.0508 50.2344 43.2148 50.0703 42.5195 49.7422C41.832 49.4062 41.3047 48.8906 40.9375 48.1953C40.5703 47.5 40.3867 46.6016 40.3867 45.5V37.0273H43.1523V44.9844C43.1523 45.9922 43.3555 46.7461 43.7617 47.2461C44.1758 47.7461 44.8164 47.9961 45.6836 47.9961C46.5195 47.9961 47.1836 47.8242 47.6758 47.4805C48.168 47.1367 48.5156 46.6289 48.7188 45.957C48.9297 45.2852 49.0352 44.4609 49.0352 43.4844V37.0273H51.8008ZM60.918 36.7812C62.0742 36.7812 63.0664 37.0195 63.8945 37.4961C64.7227 37.9727 65.3594 38.6484 65.8047 39.5234C66.25 40.3984 66.4727 41.4453 66.4727 42.6641V44.1406H57.8125C57.8438 45.3984 58.1797 46.3672 58.8203 47.0469C59.4688 47.7266 60.375 48.0664 61.5391 48.0664C62.3672 48.0664 63.1094 47.9883 63.7656 47.832C64.4297 47.668 65.1133 47.4297 65.8164 47.1172V49.3555C65.168 49.6602 64.5078 49.8828 63.8359 50.0234C63.1641 50.1641 62.3594 50.2344 61.4219 50.2344C60.1484 50.2344 59.0273 49.9883 58.0586 49.4961C57.0977 48.9961 56.3438 48.2539 55.7969 47.2695C55.2578 46.2852 54.9883 45.0625 54.9883 43.6016C54.9883 42.1484 55.2344 40.9141 55.7266 39.8984C56.2188 38.8828 56.9102 38.1094 57.8008 37.5781C58.6914 37.0469 59.7305 36.7812 60.918 36.7812ZM60.918 38.8555C60.0508 38.8555 59.3477 39.1367 58.8086 39.6992C58.2773 40.2617 57.9648 41.0859 57.8711 42.1719H63.7773C63.7695 41.5234 63.6602 40.9492 63.4492 40.4492C63.2461 39.9492 62.9336 39.5586 62.5117 39.2773C62.0977 38.9961 61.5664 38.8555 60.918 38.8555ZM74.6875 44.7266V42.3945H80.7344V44.7266H74.6875ZM96.0039 50H93.1797V35.2578H88.1641V32.8672H101.008V35.2578H96.0039V50ZM106.105 37.0273V50H103.352V37.0273H106.105ZM104.746 32.0586C105.168 32.0586 105.531 32.1719 105.836 32.3984C106.148 32.625 106.305 33.0156 106.305 33.5703C106.305 34.1172 106.148 34.5078 105.836 34.7422C105.531 34.9688 105.168 35.082 104.746 35.082C104.309 35.082 103.938 34.9688 103.633 34.7422C103.336 34.5078 103.188 34.1172 103.188 33.5703C103.188 33.0156 103.336 32.625 103.633 32.3984C103.938 32.1719 104.309 32.0586 104.746 32.0586ZM116.816 36.7812C118.277 36.7812 119.414 37.1602 120.227 37.918C121.047 38.668 121.457 39.875 121.457 41.5391V50H118.703V42.0547C118.703 41.0469 118.496 40.293 118.082 39.793C117.668 39.2852 117.027 39.0312 116.16 39.0312C114.902 39.0312 114.027 39.418 113.535 40.1914C113.051 40.9648 112.809 42.0859 112.809 43.5547V50H110.055V37.0273H112.199L112.586 38.7852H112.738C113.02 38.332 113.367 37.9609 113.781 37.6719C114.203 37.375 114.672 37.1523 115.188 37.0039C115.711 36.8555 116.254 36.7812 116.816 36.7812ZM130.141 48.0078C130.5 48.0078 130.855 47.9766 131.207 47.9141C131.559 47.8438 131.879 47.7617 132.168 47.668V49.7539C131.863 49.8867 131.469 50 130.984 50.0938C130.5 50.1875 129.996 50.2344 129.473 50.2344C128.738 50.2344 128.078 50.1133 127.492 49.8711C126.906 49.6211 126.441 49.1953 126.098 48.5938C125.754 47.9922 125.582 47.1602 125.582 46.0977V39.125H123.812V37.8945L125.711 36.9219L126.613 34.1445H128.348V37.0273H132.062V39.125H128.348V46.0625C128.348 46.7188 128.512 47.207 128.84 47.5273C129.168 47.8477 129.602 48.0078 130.141 48.0078ZM152.371 46.2383H150.051V50H147.332V46.2383H139.539V44.1523L147.367 32.8203H150.051V43.9531H152.371V46.2383ZM147.332 43.9531V39.6992C147.332 39.3477 147.336 38.9922 147.344 38.6328C147.359 38.2656 147.375 37.9141 147.391 37.5781C147.406 37.2422 147.422 36.9336 147.438 36.6523C147.453 36.3633 147.465 36.125 147.473 35.9375H147.379C147.23 36.25 147.066 36.5703 146.887 36.8984C146.707 37.2188 146.516 37.5312 146.312 37.8359L142.094 43.9531H147.332ZM165.484 41.4219C165.484 42.8047 165.375 44.043 165.156 45.1367C164.945 46.2227 164.609 47.1445 164.148 47.9023C163.688 48.6602 163.086 49.2383 162.344 49.6367C161.602 50.0352 160.703 50.2344 159.648 50.2344C158.328 50.2344 157.238 49.8867 156.379 49.1914C155.52 48.4883 154.883 47.4805 154.469 46.168C154.055 44.8477 153.848 43.2656 153.848 41.4219C153.848 39.5781 154.035 38 154.41 36.6875C154.793 35.3672 155.41 34.3555 156.262 33.6523C157.113 32.9492 158.242 32.5977 159.648 32.5977C160.977 32.5977 162.07 32.9492 162.93 33.6523C163.797 34.3477 164.438 35.3555 164.852 36.6758C165.273 37.9883 165.484 39.5703 165.484 41.4219ZM156.625 41.4219C156.625 42.8672 156.719 44.0742 156.906 45.043C157.102 46.0117 157.422 46.7383 157.867 47.2227C158.312 47.6992 158.906 47.9375 159.648 47.9375C160.391 47.9375 160.984 47.6992 161.43 47.2227C161.875 46.7461 162.195 46.0234 162.391 45.0547C162.594 44.0859 162.695 42.875 162.695 41.4219C162.695 39.9844 162.598 38.7812 162.402 37.8125C162.207 36.8438 161.887 36.1172 161.441 35.6328C160.996 35.1406 160.398 34.8945 159.648 34.8945C158.898 34.8945 158.301 35.1406 157.855 35.6328C157.418 36.1172 157.102 36.8438 156.906 37.8125C156.719 38.7812 156.625 39.9844 156.625 41.4219ZM179.219 41.4219C179.219 42.8047 179.109 44.043 178.891 45.1367C178.68 46.2227 178.344 47.1445 177.883 47.9023C177.422 48.6602 176.82 49.2383 176.078 49.6367C175.336 50.0352 174.438 50.2344 173.383 50.2344C172.062 50.2344 170.973 49.8867 170.113 49.1914C169.254 48.4883 168.617 47.4805 168.203 46.168C167.789 44.8477 167.582 43.2656 167.582 41.4219C167.582 39.5781 167.77 38 168.145 36.6875C168.527 35.3672 169.145 34.3555 169.996 33.6523C170.848 32.9492 171.977 32.5977 173.383 32.5977C174.711 32.5977 175.805 32.9492 176.664 33.6523C177.531 34.3477 178.172 35.3555 178.586 36.6758C179.008 37.9883 179.219 39.5703 179.219 41.4219ZM170.359 41.4219C170.359 42.8672 170.453 44.0742 170.641 45.043C170.836 46.0117 171.156 46.7383 171.602 47.2227C172.047 47.6992 172.641 47.9375 173.383 47.9375C174.125 47.9375 174.719 47.6992 175.164 47.2227C175.609 46.7461 175.93 46.0234 176.125 45.0547C176.328 44.0859 176.43 42.875 176.43 41.4219C176.43 39.9844 176.332 38.7812 176.137 37.8125C175.941 36.8438 175.621 36.1172 175.176 35.6328C174.73 35.1406 174.133 34.8945 173.383 34.8945C172.633 34.8945 172.035 35.1406 171.59 35.6328C171.152 36.1172 170.836 36.8438 170.641 37.8125C170.453 38.7812 170.359 39.9844 170.359 41.4219Z" fill="white"/>
<path d="M27.6016 83.7812L26.9453 87.1328H30.1094V89.0898H26.5703L25.6211 94H23.5352L24.4961 89.0898H21.5664L20.6406 94H18.6016L19.5039 89.0898H16.5742V87.1328H19.8789L20.5469 83.7812H17.4414V81.8242H20.8984L21.8359 76.8789H23.9219L22.9844 81.8242H25.9375L26.8867 76.8789H28.9141L27.9766 81.8242H30.9297V83.7812H27.6016ZM21.9414 87.1328H24.8711L25.5391 83.7812H22.5977L21.9414 87.1328ZM38.418 83.2891C39.5195 83.2891 40.4883 83.4883 41.3242 83.8867C42.168 84.2773 42.8242 84.8555 43.293 85.6211C43.7617 86.3789 43.9961 87.3086 43.9961 88.4102C43.9961 89.6133 43.7422 90.6523 43.2344 91.5273C42.7266 92.3945 41.9805 93.0625 40.9961 93.5312C40.0117 94 38.8125 94.2344 37.3984 94.2344C36.5 94.2344 35.6602 94.1562 34.8789 94C34.1055 93.8438 33.4375 93.6094 32.875 93.2969V90.8125C33.4609 91.1406 34.1641 91.4102 34.9844 91.6211C35.8047 91.8242 36.5898 91.9258 37.3398 91.9258C38.1367 91.9258 38.8203 91.8086 39.3906 91.5742C39.9609 91.3398 40.3984 90.9805 40.7031 90.4961C41.0156 90.0117 41.1719 89.3984 41.1719 88.6562C41.1719 87.6719 40.8555 86.9141 40.2227 86.3828C39.5977 85.8438 38.6172 85.5742 37.2812 85.5742C36.8125 85.5742 36.3125 85.6172 35.7812 85.7031C35.2578 85.7812 34.8203 85.8672 34.4688 85.9609L33.2617 85.2461L33.9062 76.8672H42.8125V79.293H36.332L35.957 83.5586C36.2383 83.4961 36.5742 83.4375 36.9648 83.3828C37.3555 83.3203 37.8398 83.2891 38.418 83.2891ZM52.1523 83.2891C53.2539 83.2891 54.2227 83.4883 55.0586 83.8867C55.9023 84.2773 56.5586 84.8555 57.0273 85.6211C57.4961 86.3789 57.7305 87.3086 57.7305 88.4102C57.7305 89.6133 57.4766 90.6523 56.9688 91.5273C56.4609 92.3945 55.7148 93.0625 54.7305 93.5312C53.7461 94 52.5469 94.2344 51.1328 94.2344C50.2344 94.2344 49.3945 94.1562 48.6133 94C47.8398 93.8438 47.1719 93.6094 46.6094 93.2969V90.8125C47.1953 91.1406 47.8984 91.4102 48.7188 91.6211C49.5391 91.8242 50.3242 91.9258 51.0742 91.9258C51.8711 91.9258 52.5547 91.8086 53.125 91.5742C53.6953 91.3398 54.1328 90.9805 54.4375 90.4961C54.75 90.0117 54.9062 89.3984 54.9062 88.6562C54.9062 87.6719 54.5898 86.9141 53.957 86.3828C53.332 85.8438 52.3516 85.5742 51.0156 85.5742C50.5469 85.5742 50.0469 85.6172 49.5156 85.7031C48.9922 85.7812 48.5547 85.8672 48.2031 85.9609L46.9961 85.2461L47.6406 76.8672H56.5469V79.293H50.0664L49.6914 83.5586C49.9727 83.4961 50.3086 83.4375 50.6992 83.3828C51.0898 83.3203 51.5742 83.2891 52.1523 83.2891ZM62.0195 94L68.7461 79.2812H59.8516V76.8672H71.7109V78.7539L64.9844 94H62.0195ZM77.7578 94H74.9688V76.8672H84.6484V79.2344H77.7578V84.5781H84.2031V86.9336H77.7578V94ZM90.5547 94H87.7656V76.8672H97.4453V79.2344H90.5547V84.5781H97V86.9336H90.5547V94ZM114.473 85.2695C114.473 87.1992 114.113 88.8125 113.395 90.1094C112.676 91.3984 111.633 92.3711 110.266 93.0273C108.898 93.6758 107.25 94 105.32 94H100.562V76.8672H105.836C107.609 76.8672 109.141 77.1875 110.43 77.8281C111.719 78.4609 112.715 79.4023 113.418 80.6523C114.121 81.8945 114.473 83.4336 114.473 85.2695ZM111.543 85.3516C111.543 83.9453 111.32 82.7891 110.875 81.8828C110.438 80.9766 109.789 80.3047 108.93 79.8672C108.078 79.4219 107.027 79.1992 105.777 79.1992H103.375V91.6445H105.367C107.438 91.6445 108.984 91.1172 110.008 90.0625C111.031 89.0078 111.543 87.4375 111.543 85.3516Z" fill="white"/>
</svg>
