<svg width="685" height="127" viewBox="0 0 685 127" fill="none" xmlns="http://www.w3.org/2000/svg">
<rect y="0.521729" width="685" height="126" rx="8" fill="#434343"/>
<path d="M18.25 33.3889H23.3477C25.5586 33.3889 27.2266 33.7092 28.3516 34.3499C29.4766 34.9905 30.0391 36.0959 30.0391 37.6663C30.0391 38.3225 29.9219 38.9163 29.6875 39.4475C29.4609 39.9709 29.1289 40.4045 28.6914 40.7483C28.2539 41.0842 27.7148 41.3108 27.0742 41.428V41.5452C27.7383 41.6624 28.3281 41.8694 28.8438 42.1663C29.3672 42.4631 29.7773 42.8889 30.0742 43.4436C30.3789 43.9983 30.5312 44.717 30.5312 45.5999C30.5312 46.6467 30.2812 47.5374 29.7812 48.2717C29.2891 49.0061 28.582 49.5647 27.6602 49.9475C26.7461 50.3303 25.6602 50.5217 24.4023 50.5217H18.25V33.3889ZM21.0625 40.4553H23.7578C25.0312 40.4553 25.9141 40.2483 26.4062 39.8342C26.8984 39.4202 27.1445 38.8147 27.1445 38.0178C27.1445 37.2053 26.8516 36.6194 26.2656 36.26C25.6875 35.9006 24.7656 35.7209 23.5 35.7209H21.0625V40.4553ZM21.0625 42.7288V48.1663H24.0273C25.3398 48.1663 26.2617 47.9124 26.793 47.4045C27.3242 46.8967 27.5898 46.2092 27.5898 45.342C27.5898 44.8108 27.4688 44.3499 27.2266 43.9592C26.9922 43.5686 26.6055 43.2678 26.0664 43.0569C25.5273 42.8381 24.8008 42.7288 23.8867 42.7288H21.0625ZM36.5547 50.5217H33.7891V32.2874H36.5547V50.5217ZM45.5781 37.303C47.2188 37.303 48.457 37.6663 49.293 38.3928C50.1367 39.1194 50.5586 40.2522 50.5586 41.7913V50.5217H48.6016L48.0742 48.6819H47.9805C47.6133 49.1506 47.2344 49.5374 46.8438 49.842C46.4531 50.1467 46 50.3733 45.4844 50.5217C44.9766 50.678 44.3555 50.7561 43.6211 50.7561C42.8477 50.7561 42.1562 50.6155 41.5469 50.3342C40.9375 50.0452 40.457 49.6077 40.1055 49.0217C39.7539 48.4358 39.5781 47.6936 39.5781 46.7952C39.5781 45.4592 40.0742 44.4553 41.0664 43.7834C42.0664 43.1116 43.5742 42.7405 45.5898 42.6702L47.8398 42.5881V41.9084C47.8398 41.01 47.6289 40.3694 47.207 39.9866C46.793 39.6038 46.207 39.4124 45.4492 39.4124C44.8008 39.4124 44.1719 39.5061 43.5625 39.6936C42.9531 39.8811 42.3594 40.1116 41.7812 40.385L40.8906 38.4397C41.5234 38.1038 42.2422 37.8303 43.0469 37.6194C43.8594 37.4084 44.7031 37.303 45.5781 37.303ZM47.8281 44.3225L46.1523 44.3811C44.7773 44.428 43.8125 44.6624 43.2578 45.0842C42.7031 45.5061 42.4258 46.0842 42.4258 46.8186C42.4258 47.4592 42.6172 47.928 43 48.2249C43.3828 48.5139 43.8867 48.6584 44.5117 48.6584C45.4648 48.6584 46.2539 48.3889 46.8789 47.8499C47.5117 47.303 47.8281 46.5022 47.8281 45.4475V44.3225ZM59.6406 50.7561C58.4141 50.7561 57.3516 50.5178 56.4531 50.0413C55.5547 49.5647 54.8633 48.8342 54.3789 47.8499C53.8945 46.8655 53.6523 45.6155 53.6523 44.0999C53.6523 42.5217 53.918 41.2327 54.4492 40.2327C54.9805 39.2327 55.7148 38.4944 56.6523 38.0178C57.5977 37.5413 58.6797 37.303 59.8984 37.303C60.6719 37.303 61.3711 37.3811 61.9961 37.5374C62.6289 37.6858 63.1641 37.8694 63.6016 38.0881L62.7812 40.2913C62.3047 40.0959 61.8164 39.9319 61.3164 39.7991C60.8164 39.6663 60.3359 39.5999 59.875 39.5999C59.1172 39.5999 58.4844 39.7678 57.9766 40.1038C57.4766 40.4397 57.1016 40.9397 56.8516 41.6038C56.6094 42.2678 56.4883 43.092 56.4883 44.0764C56.4883 45.0295 56.6133 45.8342 56.8633 46.4905C57.1133 47.1389 57.4844 47.6311 57.9766 47.967C58.4688 48.2952 59.0742 48.4592 59.793 48.4592C60.5039 48.4592 61.1406 48.3733 61.7031 48.2014C62.2656 48.0295 62.7969 47.8069 63.2969 47.5334V49.9241C62.8047 50.2053 62.2773 50.4124 61.7148 50.5452C61.1523 50.6858 60.4609 50.7561 59.6406 50.7561ZM69.0977 32.2874V41.0999C69.0977 41.4983 69.082 41.9358 69.0508 42.4124C69.0195 42.8811 68.9883 43.3225 68.957 43.7366H69.0156C69.2188 43.4631 69.4609 43.1428 69.7422 42.7756C70.0312 42.4084 70.3047 42.0881 70.5625 41.8147L74.5234 37.5491H77.6875L72.4961 43.1272L78.0273 50.5217H74.793L70.6445 44.8264L69.0977 46.1506V50.5217H66.3438V32.2874H69.0977ZM85.2109 45.2483V42.9163H91.2578V45.2483H85.2109ZM106.527 50.5217H103.703V35.7795H98.6875V33.3889H111.531V35.7795H106.527V50.5217ZM116.629 37.5491V50.5217H113.875V37.5491H116.629ZM115.27 32.5803C115.691 32.5803 116.055 32.6936 116.359 32.9202C116.672 33.1467 116.828 33.5374 116.828 34.092C116.828 34.6389 116.672 35.0295 116.359 35.2639C116.055 35.4905 115.691 35.6038 115.27 35.6038C114.832 35.6038 114.461 35.4905 114.156 35.2639C113.859 35.0295 113.711 34.6389 113.711 34.092C113.711 33.5374 113.859 33.1467 114.156 32.9202C114.461 32.6936 114.832 32.5803 115.27 32.5803ZM127.34 37.303C128.801 37.303 129.938 37.6819 130.75 38.4397C131.57 39.1897 131.98 40.3967 131.98 42.0608V50.5217H129.227V42.5764C129.227 41.5686 129.02 40.8147 128.605 40.3147C128.191 39.8069 127.551 39.553 126.684 39.553C125.426 39.553 124.551 39.9397 124.059 40.7131C123.574 41.4866 123.332 42.6077 123.332 44.0764V50.5217H120.578V37.5491H122.723L123.109 39.3069H123.262C123.543 38.8538 123.891 38.4827 124.305 38.1936C124.727 37.8967 125.195 37.6741 125.711 37.5256C126.234 37.3772 126.777 37.303 127.34 37.303ZM140.664 48.5295C141.023 48.5295 141.379 48.4983 141.73 48.4358C142.082 48.3655 142.402 48.2834 142.691 48.1897V50.2756C142.387 50.4084 141.992 50.5217 141.508 50.6155C141.023 50.7092 140.52 50.7561 139.996 50.7561C139.262 50.7561 138.602 50.635 138.016 50.3928C137.43 50.1428 136.965 49.717 136.621 49.1155C136.277 48.5139 136.105 47.6819 136.105 46.6194V39.6467H134.336V38.4163L136.234 37.4436L137.137 34.6663H138.871V37.5491H142.586V39.6467H138.871V46.5842C138.871 47.2405 139.035 47.7288 139.363 48.0491C139.691 48.3694 140.125 48.5295 140.664 48.5295ZM162.895 46.76H160.574V50.5217H157.855V46.76H150.062V44.6741L157.891 33.342H160.574V44.4749H162.895V46.76ZM157.855 44.4749V40.2209C157.855 39.8694 157.859 39.5139 157.867 39.1545C157.883 38.7874 157.898 38.4358 157.914 38.0999C157.93 37.7639 157.945 37.4553 157.961 37.1741C157.977 36.885 157.988 36.6467 157.996 36.4592H157.902C157.754 36.7717 157.59 37.092 157.41 37.4202C157.23 37.7405 157.039 38.053 156.836 38.3577L152.617 44.4749H157.855ZM176.008 41.9436C176.008 43.3264 175.898 44.5647 175.68 45.6584C175.469 46.7444 175.133 47.6663 174.672 48.4241C174.211 49.1819 173.609 49.76 172.867 50.1584C172.125 50.5569 171.227 50.7561 170.172 50.7561C168.852 50.7561 167.762 50.4084 166.902 49.7131C166.043 49.01 165.406 48.0022 164.992 46.6897C164.578 45.3694 164.371 43.7874 164.371 41.9436C164.371 40.0999 164.559 38.5217 164.934 37.2092C165.316 35.8889 165.934 34.8772 166.785 34.1741C167.637 33.4709 168.766 33.1194 170.172 33.1194C171.5 33.1194 172.594 33.4709 173.453 34.1741C174.32 34.8694 174.961 35.8772 175.375 37.1975C175.797 38.51 176.008 40.092 176.008 41.9436ZM167.148 41.9436C167.148 43.3889 167.242 44.5959 167.43 45.5647C167.625 46.5334 167.945 47.26 168.391 47.7444C168.836 48.2209 169.43 48.4592 170.172 48.4592C170.914 48.4592 171.508 48.2209 171.953 47.7444C172.398 47.2678 172.719 46.5452 172.914 45.5764C173.117 44.6077 173.219 43.3967 173.219 41.9436C173.219 40.5061 173.121 39.303 172.926 38.3342C172.73 37.3655 172.41 36.6389 171.965 36.1545C171.52 35.6624 170.922 35.4163 170.172 35.4163C169.422 35.4163 168.824 35.6624 168.379 36.1545C167.941 36.6389 167.625 37.3655 167.43 38.3342C167.242 39.303 167.148 40.5061 167.148 41.9436ZM189.742 41.9436C189.742 43.3264 189.633 44.5647 189.414 45.6584C189.203 46.7444 188.867 47.6663 188.406 48.4241C187.945 49.1819 187.344 49.76 186.602 50.1584C185.859 50.5569 184.961 50.7561 183.906 50.7561C182.586 50.7561 181.496 50.4084 180.637 49.7131C179.777 49.01 179.141 48.0022 178.727 46.6897C178.312 45.3694 178.105 43.7874 178.105 41.9436C178.105 40.0999 178.293 38.5217 178.668 37.2092C179.051 35.8889 179.668 34.8772 180.52 34.1741C181.371 33.4709 182.5 33.1194 183.906 33.1194C185.234 33.1194 186.328 33.4709 187.188 34.1741C188.055 34.8694 188.695 35.8772 189.109 37.1975C189.531 38.51 189.742 40.092 189.742 41.9436ZM180.883 41.9436C180.883 43.3889 180.977 44.5959 181.164 45.5647C181.359 46.5334 181.68 47.26 182.125 47.7444C182.57 48.2209 183.164 48.4592 183.906 48.4592C184.648 48.4592 185.242 48.2209 185.688 47.7444C186.133 47.2678 186.453 46.5452 186.648 45.5764C186.852 44.6077 186.953 43.3967 186.953 41.9436C186.953 40.5061 186.855 39.303 186.66 38.3342C186.465 37.3655 186.145 36.6389 185.699 36.1545C185.254 35.6624 184.656 35.4163 183.906 35.4163C183.156 35.4163 182.559 35.6624 182.113 36.1545C181.676 36.6389 181.359 37.3655 181.164 38.3342C180.977 39.303 180.883 40.5061 180.883 41.9436Z" fill="white"/>
<path d="M27.6016 84.303L26.9453 87.6545H30.1094V89.6116H26.5703L25.6211 94.5217H23.5352L24.4961 89.6116H21.5664L20.6406 94.5217H18.6016L19.5039 89.6116H16.5742V87.6545H19.8789L20.5469 84.303H17.4414V82.3459H20.8984L21.8359 77.4006H23.9219L22.9844 82.3459H25.9375L26.8867 77.4006H28.9141L27.9766 82.3459H30.9297V84.303H27.6016ZM21.9414 87.6545H24.8711L25.5391 84.303H22.5977L21.9414 87.6545ZM44.8164 90.76H42.4961V94.5217H39.7773V90.76H31.9844V88.6741L39.8125 77.342H42.4961V88.4749H44.8164V90.76ZM39.7773 88.4749V84.2209C39.7773 83.8694 39.7812 83.5139 39.7891 83.1545C39.8047 82.7874 39.8203 82.4358 39.8359 82.0999C39.8516 81.7639 39.8672 81.4553 39.8828 81.1741C39.8984 80.885 39.9102 80.6467 39.918 80.4592H39.8242C39.6758 80.7717 39.5117 81.092 39.332 81.4202C39.1523 81.7405 38.9609 82.053 38.7578 82.3577L34.5391 88.4749H39.7773ZM57.2734 81.303C57.2734 82.0764 57.1172 82.7483 56.8047 83.3186C56.4922 83.8889 56.0625 84.3577 55.5156 84.7249C54.9766 85.0842 54.3516 85.342 53.6406 85.4983V85.5803C55.0078 85.7522 56.0391 86.1819 56.7344 86.8694C57.4375 87.5569 57.7891 88.467 57.7891 89.5999C57.7891 90.592 57.5508 91.4788 57.0742 92.26C56.5977 93.0334 55.8672 93.6428 54.8828 94.0881C53.8984 94.5334 52.6328 94.7561 51.0859 94.7561C50.1562 94.7561 49.293 94.6819 48.4961 94.5334C47.707 94.385 46.957 94.1467 46.2461 93.8186V91.3694C46.9727 91.7288 47.7461 92.0061 48.5664 92.2014C49.3867 92.3967 50.1641 92.4944 50.8984 92.4944C52.3281 92.4944 53.3477 92.2288 53.957 91.6975C54.5664 91.1584 54.8711 90.4163 54.8711 89.4709C54.8711 88.8616 54.7109 88.3616 54.3906 87.9709C54.0781 87.5803 53.5898 87.2874 52.9258 87.092C52.2695 86.8967 51.4219 86.7991 50.3828 86.7991H48.8711V84.5842H50.3945C51.3867 84.5842 52.1836 84.467 52.7852 84.2327C53.3867 83.9905 53.8203 83.6584 54.0859 83.2366C54.3594 82.8147 54.4961 82.3225 54.4961 81.76C54.4961 81.0256 54.2578 80.4553 53.7812 80.0491C53.3047 79.635 52.5977 79.428 51.6602 79.428C51.082 79.428 50.5547 79.4944 50.0781 79.6272C49.6094 79.76 49.1758 79.928 48.7773 80.1311C48.3789 80.3342 48 80.553 47.6406 80.7874L46.3164 78.8772C46.9648 78.3928 47.7383 77.9827 48.6367 77.6467C49.5352 77.3108 50.582 77.1428 51.7773 77.1428C53.5352 77.1428 54.8906 77.5217 55.8438 78.2795C56.7969 79.0295 57.2734 80.0374 57.2734 81.303ZM72.2852 90.76H69.9648V94.5217H67.2461V90.76H59.4531V88.6741L67.2812 77.342H69.9648V88.4749H72.2852V90.76ZM67.2461 88.4749V84.2209C67.2461 83.8694 67.25 83.5139 67.2578 83.1545C67.2734 82.7874 67.2891 82.4358 67.3047 82.0999C67.3203 81.7639 67.3359 81.4553 67.3516 81.1741C67.3672 80.885 67.3789 80.6467 67.3867 80.4592H67.293C67.1445 80.7717 66.9805 81.092 66.8008 81.4202C66.6211 81.7405 66.4297 82.053 66.2266 82.3577L62.0078 88.4749H67.2461ZM84.7422 81.303C84.7422 82.0764 84.5859 82.7483 84.2734 83.3186C83.9609 83.8889 83.5312 84.3577 82.9844 84.7249C82.4453 85.0842 81.8203 85.342 81.1094 85.4983V85.5803C82.4766 85.7522 83.5078 86.1819 84.2031 86.8694C84.9062 87.5569 85.2578 88.467 85.2578 89.5999C85.2578 90.592 85.0195 91.4788 84.543 92.26C84.0664 93.0334 83.3359 93.6428 82.3516 94.0881C81.3672 94.5334 80.1016 94.7561 78.5547 94.7561C77.625 94.7561 76.7617 94.6819 75.9648 94.5334C75.1758 94.385 74.4258 94.1467 73.7148 93.8186V91.3694C74.4414 91.7288 75.2148 92.0061 76.0352 92.2014C76.8555 92.3967 77.6328 92.4944 78.3672 92.4944C79.7969 92.4944 80.8164 92.2288 81.4258 91.6975C82.0352 91.1584 82.3398 90.4163 82.3398 89.4709C82.3398 88.8616 82.1797 88.3616 81.8594 87.9709C81.5469 87.5803 81.0586 87.2874 80.3945 87.092C79.7383 86.8967 78.8906 86.7991 77.8516 86.7991H76.3398V84.5842H77.8633C78.8555 84.5842 79.6523 84.467 80.2539 84.2327C80.8555 83.9905 81.2891 83.6584 81.5547 83.2366C81.8281 82.8147 81.9648 82.3225 81.9648 81.76C81.9648 81.0256 81.7266 80.4553 81.25 80.0491C80.7734 79.635 80.0664 79.428 79.1289 79.428C78.5508 79.428 78.0234 79.4944 77.5469 79.6272C77.0781 79.76 76.6445 79.928 76.2461 80.1311C75.8477 80.3342 75.4688 80.553 75.1094 80.7874L73.7852 78.8772C74.4336 78.3928 75.207 77.9827 76.1055 77.6467C77.0039 77.3108 78.0508 77.1428 79.2461 77.1428C81.0039 77.1428 82.3594 77.5217 83.3125 78.2795C84.2656 79.0295 84.7422 80.0374 84.7422 81.303ZM99.7539 90.76H97.4336V94.5217H94.7148V90.76H86.9219V88.6741L94.75 77.342H97.4336V88.4749H99.7539V90.76ZM94.7148 88.4749V84.2209C94.7148 83.8694 94.7188 83.5139 94.7266 83.1545C94.7422 82.7874 94.7578 82.4358 94.7734 82.0999C94.7891 81.7639 94.8047 81.4553 94.8203 81.1741C94.8359 80.885 94.8477 80.6467 94.8555 80.4592H94.7617C94.6133 80.7717 94.4492 81.092 94.2695 81.4202C94.0898 81.7405 93.8984 82.053 93.6953 82.3577L89.4766 88.4749H94.7148ZM112.211 81.303C112.211 82.0764 112.055 82.7483 111.742 83.3186C111.43 83.8889 111 84.3577 110.453 84.7249C109.914 85.0842 109.289 85.342 108.578 85.4983V85.5803C109.945 85.7522 110.977 86.1819 111.672 86.8694C112.375 87.5569 112.727 88.467 112.727 89.5999C112.727 90.592 112.488 91.4788 112.012 92.26C111.535 93.0334 110.805 93.6428 109.82 94.0881C108.836 94.5334 107.57 94.7561 106.023 94.7561C105.094 94.7561 104.23 94.6819 103.434 94.5334C102.645 94.385 101.895 94.1467 101.184 93.8186V91.3694C101.91 91.7288 102.684 92.0061 103.504 92.2014C104.324 92.3967 105.102 92.4944 105.836 92.4944C107.266 92.4944 108.285 92.2288 108.895 91.6975C109.504 91.1584 109.809 90.4163 109.809 89.4709C109.809 88.8616 109.648 88.3616 109.328 87.9709C109.016 87.5803 108.527 87.2874 107.863 87.092C107.207 86.8967 106.359 86.7991 105.32 86.7991H103.809V84.5842H105.332C106.324 84.5842 107.121 84.467 107.723 84.2327C108.324 83.9905 108.758 83.6584 109.023 83.2366C109.297 82.8147 109.434 82.3225 109.434 81.76C109.434 81.0256 109.195 80.4553 108.719 80.0491C108.242 79.635 107.535 79.428 106.598 79.428C106.02 79.428 105.492 79.4944 105.016 79.6272C104.547 79.76 104.113 79.928 103.715 80.1311C103.316 80.3342 102.938 80.553 102.578 80.7874L101.254 78.8772C101.902 78.3928 102.676 77.9827 103.574 77.6467C104.473 77.3108 105.52 77.1428 106.715 77.1428C108.473 77.1428 109.828 77.5217 110.781 78.2795C111.734 79.0295 112.211 80.0374 112.211 81.303Z" fill="white"/>
</svg>
