<svg width="685" height="126" viewBox="0 0 685 126" fill="none" xmlns="http://www.w3.org/2000/svg">
<rect width="685" height="126" rx="8" fill="#7194FD"/>
<path d="M18.25 32.8672H23.3477C25.5586 32.8672 27.2266 33.1875 28.3516 33.8281C29.4766 34.4688 30.0391 35.5742 30.0391 37.1445C30.0391 37.8008 29.9219 38.3945 29.6875 38.9258C29.4609 39.4492 29.1289 39.8828 28.6914 40.2266C28.2539 40.5625 27.7148 40.7891 27.0742 40.9062V41.0234C27.7383 41.1406 28.3281 41.3477 28.8438 41.6445C29.3672 41.9414 29.7773 42.3672 30.0742 42.9219C30.3789 43.4766 30.5312 44.1953 30.5312 45.0781C30.5312 46.125 30.2812 47.0156 29.7812 47.75C29.2891 48.4844 28.582 49.043 27.6602 49.4258C26.7461 49.8086 25.6602 50 24.4023 50H18.25V32.8672ZM21.0625 39.9336H23.7578C25.0312 39.9336 25.9141 39.7266 26.4062 39.3125C26.8984 38.8984 27.1445 38.293 27.1445 37.4961C27.1445 36.6836 26.8516 36.0977 26.2656 35.7383C25.6875 35.3789 24.7656 35.1992 23.5 35.1992H21.0625V39.9336ZM21.0625 42.207V47.6445H24.0273C25.3398 47.6445 26.2617 47.3906 26.793 46.8828C27.3242 46.375 27.5898 45.6875 27.5898 44.8203C27.5898 44.2891 27.4688 43.8281 27.2266 43.4375C26.9922 43.0469 26.6055 42.7461 26.0664 42.5352C25.5273 42.3164 24.8008 42.207 23.8867 42.207H21.0625ZM36.5547 50H33.7891V31.7656H36.5547V50ZM51.8008 37.0273V50H49.6328L49.2578 48.2539H49.1055C48.832 48.6992 48.4844 49.0703 48.0625 49.3672C47.6406 49.6562 47.1719 49.8711 46.6562 50.0117C46.1406 50.1602 45.5977 50.2344 45.0273 50.2344C44.0508 50.2344 43.2148 50.0703 42.5195 49.7422C41.832 49.4062 41.3047 48.8906 40.9375 48.1953C40.5703 47.5 40.3867 46.6016 40.3867 45.5V37.0273H43.1523V44.9844C43.1523 45.9922 43.3555 46.7461 43.7617 47.2461C44.1758 47.7461 44.8164 47.9961 45.6836 47.9961C46.5195 47.9961 47.1836 47.8242 47.6758 47.4805C48.168 47.1367 48.5156 46.6289 48.7188 45.957C48.9297 45.2852 49.0352 44.4609 49.0352 43.4844V37.0273H51.8008ZM60.918 36.7812C62.0742 36.7812 63.0664 37.0195 63.8945 37.4961C64.7227 37.9727 65.3594 38.6484 65.8047 39.5234C66.25 40.3984 66.4727 41.4453 66.4727 42.6641V44.1406H57.8125C57.8438 45.3984 58.1797 46.3672 58.8203 47.0469C59.4688 47.7266 60.375 48.0664 61.5391 48.0664C62.3672 48.0664 63.1094 47.9883 63.7656 47.832C64.4297 47.668 65.1133 47.4297 65.8164 47.1172V49.3555C65.168 49.6602 64.5078 49.8828 63.8359 50.0234C63.1641 50.1641 62.3594 50.2344 61.4219 50.2344C60.1484 50.2344 59.0273 49.9883 58.0586 49.4961C57.0977 48.9961 56.3438 48.2539 55.7969 47.2695C55.2578 46.2852 54.9883 45.0625 54.9883 43.6016C54.9883 42.1484 55.2344 40.9141 55.7266 39.8984C56.2188 38.8828 56.9102 38.1094 57.8008 37.5781C58.6914 37.0469 59.7305 36.7812 60.918 36.7812ZM60.918 38.8555C60.0508 38.8555 59.3477 39.1367 58.8086 39.6992C58.2773 40.2617 57.9648 41.0859 57.8711 42.1719H63.7773C63.7695 41.5234 63.6602 40.9492 63.4492 40.4492C63.2461 39.9492 62.9336 39.5586 62.5117 39.2773C62.0977 38.9961 61.5664 38.8555 60.918 38.8555ZM74.6875 44.7266V42.3945H80.7344V44.7266H74.6875ZM96.0039 50H93.1797V35.2578H88.1641V32.8672H101.008V35.2578H96.0039V50ZM106.105 37.0273V50H103.352V37.0273H106.105ZM104.746 32.0586C105.168 32.0586 105.531 32.1719 105.836 32.3984C106.148 32.625 106.305 33.0156 106.305 33.5703C106.305 34.1172 106.148 34.5078 105.836 34.7422C105.531 34.9688 105.168 35.082 104.746 35.082C104.309 35.082 103.938 34.9688 103.633 34.7422C103.336 34.5078 103.188 34.1172 103.188 33.5703C103.188 33.0156 103.336 32.625 103.633 32.3984C103.938 32.1719 104.309 32.0586 104.746 32.0586ZM116.816 36.7812C118.277 36.7812 119.414 37.1602 120.227 37.918C121.047 38.668 121.457 39.875 121.457 41.5391V50H118.703V42.0547C118.703 41.0469 118.496 40.293 118.082 39.793C117.668 39.2852 117.027 39.0312 116.16 39.0312C114.902 39.0312 114.027 39.418 113.535 40.1914C113.051 40.9648 112.809 42.0859 112.809 43.5547V50H110.055V37.0273H112.199L112.586 38.7852H112.738C113.02 38.332 113.367 37.9609 113.781 37.6719C114.203 37.375 114.672 37.1523 115.188 37.0039C115.711 36.8555 116.254 36.7812 116.816 36.7812ZM130.141 48.0078C130.5 48.0078 130.855 47.9766 131.207 47.9141C131.559 47.8438 131.879 47.7617 132.168 47.668V49.7539C131.863 49.8867 131.469 50 130.984 50.0938C130.5 50.1875 129.996 50.2344 129.473 50.2344C128.738 50.2344 128.078 50.1133 127.492 49.8711C126.906 49.6211 126.441 49.1953 126.098 48.5938C125.754 47.9922 125.582 47.1602 125.582 46.0977V39.125H123.812V37.8945L125.711 36.9219L126.613 34.1445H128.348V37.0273H132.062V39.125H128.348V46.0625C128.348 46.7188 128.512 47.207 128.84 47.5273C129.168 47.8477 129.602 48.0078 130.141 48.0078ZM151.094 36.7812C151.094 37.5547 150.938 38.2266 150.625 38.7969C150.312 39.3672 149.883 39.8359 149.336 40.2031C148.797 40.5625 148.172 40.8203 147.461 40.9766V41.0586C148.828 41.2305 149.859 41.6602 150.555 42.3477C151.258 43.0352 151.609 43.9453 151.609 45.0781C151.609 46.0703 151.371 46.957 150.895 47.7383C150.418 48.5117 149.688 49.1211 148.703 49.5664C147.719 50.0117 146.453 50.2344 144.906 50.2344C143.977 50.2344 143.113 50.1602 142.316 50.0117C141.527 49.8633 140.777 49.625 140.066 49.2969V46.8477C140.793 47.207 141.566 47.4844 142.387 47.6797C143.207 47.875 143.984 47.9727 144.719 47.9727C146.148 47.9727 147.168 47.707 147.777 47.1758C148.387 46.6367 148.691 45.8945 148.691 44.9492C148.691 44.3398 148.531 43.8398 148.211 43.4492C147.898 43.0586 147.41 42.7656 146.746 42.5703C146.09 42.375 145.242 42.2773 144.203 42.2773H142.691V40.0625H144.215C145.207 40.0625 146.004 39.9453 146.605 39.7109C147.207 39.4688 147.641 39.1367 147.906 38.7148C148.18 38.293 148.316 37.8008 148.316 37.2383C148.316 36.5039 148.078 35.9336 147.602 35.5273C147.125 35.1133 146.418 34.9062 145.48 34.9062C144.902 34.9062 144.375 34.9727 143.898 35.1055C143.43 35.2383 142.996 35.4062 142.598 35.6094C142.199 35.8125 141.82 36.0312 141.461 36.2656L140.137 34.3555C140.785 33.8711 141.559 33.4609 142.457 33.125C143.355 32.7891 144.402 32.6211 145.598 32.6211C147.355 32.6211 148.711 33 149.664 33.7578C150.617 34.5078 151.094 35.5156 151.094 36.7812ZM165.484 41.4219C165.484 42.8047 165.375 44.043 165.156 45.1367C164.945 46.2227 164.609 47.1445 164.148 47.9023C163.688 48.6602 163.086 49.2383 162.344 49.6367C161.602 50.0352 160.703 50.2344 159.648 50.2344C158.328 50.2344 157.238 49.8867 156.379 49.1914C155.52 48.4883 154.883 47.4805 154.469 46.168C154.055 44.8477 153.848 43.2656 153.848 41.4219C153.848 39.5781 154.035 38 154.41 36.6875C154.793 35.3672 155.41 34.3555 156.262 33.6523C157.113 32.9492 158.242 32.5977 159.648 32.5977C160.977 32.5977 162.07 32.9492 162.93 33.6523C163.797 34.3477 164.438 35.3555 164.852 36.6758C165.273 37.9883 165.484 39.5703 165.484 41.4219ZM156.625 41.4219C156.625 42.8672 156.719 44.0742 156.906 45.043C157.102 46.0117 157.422 46.7383 157.867 47.2227C158.312 47.6992 158.906 47.9375 159.648 47.9375C160.391 47.9375 160.984 47.6992 161.43 47.2227C161.875 46.7461 162.195 46.0234 162.391 45.0547C162.594 44.0859 162.695 42.875 162.695 41.4219C162.695 39.9844 162.598 38.7812 162.402 37.8125C162.207 36.8438 161.887 36.1172 161.441 35.6328C160.996 35.1406 160.398 34.8945 159.648 34.8945C158.898 34.8945 158.301 35.1406 157.855 35.6328C157.418 36.1172 157.102 36.8438 156.906 37.8125C156.719 38.7812 156.625 39.9844 156.625 41.4219ZM179.219 41.4219C179.219 42.8047 179.109 44.043 178.891 45.1367C178.68 46.2227 178.344 47.1445 177.883 47.9023C177.422 48.6602 176.82 49.2383 176.078 49.6367C175.336 50.0352 174.438 50.2344 173.383 50.2344C172.062 50.2344 170.973 49.8867 170.113 49.1914C169.254 48.4883 168.617 47.4805 168.203 46.168C167.789 44.8477 167.582 43.2656 167.582 41.4219C167.582 39.5781 167.77 38 168.145 36.6875C168.527 35.3672 169.145 34.3555 169.996 33.6523C170.848 32.9492 171.977 32.5977 173.383 32.5977C174.711 32.5977 175.805 32.9492 176.664 33.6523C177.531 34.3477 178.172 35.3555 178.586 36.6758C179.008 37.9883 179.219 39.5703 179.219 41.4219ZM170.359 41.4219C170.359 42.8672 170.453 44.0742 170.641 45.043C170.836 46.0117 171.156 46.7383 171.602 47.2227C172.047 47.6992 172.641 47.9375 173.383 47.9375C174.125 47.9375 174.719 47.6992 175.164 47.2227C175.609 46.7461 175.93 46.0234 176.125 45.0547C176.328 44.0859 176.43 42.875 176.43 41.4219C176.43 39.9844 176.332 38.7812 176.137 37.8125C175.941 36.8438 175.621 36.1172 175.176 35.6328C174.73 35.1406 174.133 34.8945 173.383 34.8945C172.633 34.8945 172.035 35.1406 171.59 35.6328C171.152 36.1172 170.836 36.8438 170.641 37.8125C170.453 38.7812 170.359 39.9844 170.359 41.4219Z" fill="white"/>
<path d="M27.6016 83.7812L26.9453 87.1328H30.1094V89.0898H26.5703L25.6211 94H23.5352L24.4961 89.0898H21.5664L20.6406 94H18.6016L19.5039 89.0898H16.5742V87.1328H19.8789L20.5469 83.7812H17.4414V81.8242H20.8984L21.8359 76.8789H23.9219L22.9844 81.8242H25.9375L26.8867 76.8789H28.9141L27.9766 81.8242H30.9297V83.7812H27.6016ZM21.9414 87.1328H24.8711L25.5391 83.7812H22.5977L21.9414 87.1328ZM34.5508 94L41.2773 79.2812H32.3828V76.8672H44.2422V78.7539L37.5156 94H34.5508ZM54.4258 94H51.6602V82.9727C51.6602 82.6055 51.6641 82.2383 51.6719 81.8711C51.6797 81.5039 51.6875 81.1445 51.6953 80.793C51.7109 80.4414 51.7305 80.1055 51.7539 79.7852C51.5898 79.9648 51.3867 80.1602 51.1445 80.3711C50.9102 80.582 50.6602 80.8008 50.3945 81.0273L48.4258 82.5977L47.043 80.8516L52.1289 76.8672H54.4258V94ZM71.6406 84.168C71.6406 85.1836 71.5664 86.1797 71.418 87.1562C71.2773 88.1328 71.0273 89.0469 70.668 89.8984C70.3164 90.75 69.8281 91.5039 69.2031 92.1602C68.5859 92.8086 67.8047 93.3164 66.8594 93.6836C65.9141 94.0508 64.7734 94.2344 63.4375 94.2344C63.1016 94.2344 62.7109 94.2148 62.2656 94.1758C61.8281 94.1445 61.4688 94.0977 61.1875 94.0352V91.7383C61.4844 91.8242 61.8164 91.8945 62.1836 91.9492C62.5586 91.9961 62.9297 92.0195 63.2969 92.0195C64.7422 92.0195 65.8672 91.75 66.6719 91.2109C67.4844 90.6719 68.0586 89.9297 68.3945 88.9844C68.7383 88.0391 68.9336 86.9648 68.9805 85.7617H68.8398C68.6133 86.1367 68.3281 86.4805 67.9844 86.793C67.6406 87.0977 67.2148 87.3438 66.707 87.5312C66.1992 87.7109 65.582 87.8008 64.8555 87.8008C63.8711 87.8008 63.0117 87.5938 62.2773 87.1797C61.5508 86.7656 60.9844 86.1641 60.5781 85.375C60.1797 84.5781 59.9805 83.6211 59.9805 82.5039C59.9805 81.293 60.2109 80.25 60.6719 79.375C61.1328 78.5 61.7852 77.8281 62.6289 77.3594C63.4727 76.8828 64.4648 76.6445 65.6055 76.6445C66.4648 76.6445 67.2578 76.8008 67.9844 77.1133C68.7188 77.418 69.3594 77.8867 69.9062 78.5195C70.4531 79.1445 70.8789 79.9297 71.1836 80.875C71.4883 81.8125 71.6406 82.9102 71.6406 84.168ZM65.6406 78.918C64.7734 78.918 64.0664 79.2109 63.5195 79.7969C62.9727 80.375 62.6992 81.2656 62.6992 82.4688C62.6992 83.4453 62.9336 84.2188 63.4023 84.7891C63.8711 85.3594 64.5898 85.6445 65.5586 85.6445C66.2305 85.6445 66.8086 85.5078 67.293 85.2344C67.7852 84.9531 68.1641 84.5977 68.4297 84.168C68.7031 83.7383 68.8398 83.3008 68.8398 82.8555C68.8398 82.3945 68.7734 81.9336 68.6406 81.4727C68.5156 81.0117 68.3203 80.5898 68.0547 80.207C67.7891 79.8242 67.4531 79.5156 67.0469 79.2812C66.6484 79.0391 66.1797 78.918 65.6406 78.918ZM86.0195 90.2383H83.6992V94H80.9805V90.2383H73.1875V88.1523L81.0156 76.8203H83.6992V87.9531H86.0195V90.2383ZM80.9805 87.9531V83.6992C80.9805 83.3477 80.9844 82.9922 80.9922 82.6328C81.0078 82.2656 81.0234 81.9141 81.0391 81.5781C81.0547 81.2422 81.0703 80.9336 81.0859 80.6523C81.1016 80.3633 81.1133 80.125 81.1211 79.9375H81.0273C80.8789 80.25 80.7148 80.5703 80.5352 80.8984C80.3555 81.2188 80.1641 81.5312 79.9609 81.8359L75.7422 87.9531H80.9805ZM91.4922 94H88.7031V76.8672H98.3828V79.2344H91.4922V84.5781H97.9375V86.9336H91.4922V94ZM115.41 85.2695C115.41 87.1992 115.051 88.8125 114.332 90.1094C113.613 91.3984 112.57 92.3711 111.203 93.0273C109.836 93.6758 108.188 94 106.258 94H101.5V76.8672H106.773C108.547 76.8672 110.078 77.1875 111.367 77.8281C112.656 78.4609 113.652 79.4023 114.355 80.6523C115.059 81.8945 115.41 83.4336 115.41 85.2695ZM112.48 85.3516C112.48 83.9453 112.258 82.7891 111.812 81.8828C111.375 80.9766 110.727 80.3047 109.867 79.8672C109.016 79.4219 107.965 79.1992 106.715 79.1992H104.312V91.6445H106.305C108.375 91.6445 109.922 91.1172 110.945 90.0625C111.969 89.0078 112.48 87.4375 112.48 85.3516Z" fill="white"/>
</svg>
