<svg width="685" height="127" viewBox="0 0 685 127" fill="none" xmlns="http://www.w3.org/2000/svg">
<rect y="0.521729" width="685" height="126" rx="8" fill="#939393"/>
<path d="M18.25 22.3889H23.3477C25.5586 22.3889 27.2266 22.7092 28.3516 23.3499C29.4766 23.9905 30.0391 25.0959 30.0391 26.6663C30.0391 27.3225 29.9219 27.9163 29.6875 28.4475C29.4609 28.9709 29.1289 29.4045 28.6914 29.7483C28.2539 30.0842 27.7148 30.3108 27.0742 30.428V30.5452C27.7383 30.6624 28.3281 30.8694 28.8438 31.1663C29.3672 31.4631 29.7773 31.8889 30.0742 32.4436C30.3789 32.9983 30.5312 33.717 30.5312 34.5999C30.5312 35.6467 30.2812 36.5374 29.7812 37.2717C29.2891 38.0061 28.582 38.5647 27.6602 38.9475C26.7461 39.3303 25.6602 39.5217 24.4023 39.5217H18.25V22.3889ZM21.0625 29.4553H23.7578C25.0312 29.4553 25.9141 29.2483 26.4062 28.8342C26.8984 28.4202 27.1445 27.8147 27.1445 27.0178C27.1445 26.2053 26.8516 25.6194 26.2656 25.26C25.6875 24.9006 24.7656 24.7209 23.5 24.7209H21.0625V29.4553ZM21.0625 31.7288V37.1663H24.0273C25.3398 37.1663 26.2617 36.9124 26.793 36.4045C27.3242 35.8967 27.5898 35.2092 27.5898 34.342C27.5898 33.8108 27.4688 33.3499 27.2266 32.9592C26.9922 32.5686 26.6055 32.2678 26.0664 32.0569C25.5273 31.8381 24.8008 31.7288 23.8867 31.7288H21.0625ZM36.5547 39.5217H33.7891V21.2874H36.5547V39.5217ZM45.5781 26.303C47.2188 26.303 48.457 26.6663 49.293 27.3928C50.1367 28.1194 50.5586 29.2522 50.5586 30.7913V39.5217H48.6016L48.0742 37.6819H47.9805C47.6133 38.1506 47.2344 38.5374 46.8438 38.842C46.4531 39.1467 46 39.3733 45.4844 39.5217C44.9766 39.678 44.3555 39.7561 43.6211 39.7561C42.8477 39.7561 42.1562 39.6155 41.5469 39.3342C40.9375 39.0452 40.457 38.6077 40.1055 38.0217C39.7539 37.4358 39.5781 36.6936 39.5781 35.7952C39.5781 34.4592 40.0742 33.4553 41.0664 32.7834C42.0664 32.1116 43.5742 31.7405 45.5898 31.6702L47.8398 31.5881V30.9084C47.8398 30.01 47.6289 29.3694 47.207 28.9866C46.793 28.6038 46.207 28.4124 45.4492 28.4124C44.8008 28.4124 44.1719 28.5061 43.5625 28.6936C42.9531 28.8811 42.3594 29.1116 41.7812 29.385L40.8906 27.4397C41.5234 27.1038 42.2422 26.8303 43.0469 26.6194C43.8594 26.4084 44.7031 26.303 45.5781 26.303ZM47.8281 33.3225L46.1523 33.3811C44.7773 33.428 43.8125 33.6624 43.2578 34.0842C42.7031 34.5061 42.4258 35.0842 42.4258 35.8186C42.4258 36.4592 42.6172 36.928 43 37.2249C43.3828 37.5139 43.8867 37.6584 44.5117 37.6584C45.4648 37.6584 46.2539 37.3889 46.8789 36.8499C47.5117 36.303 47.8281 35.5022 47.8281 34.4475V33.3225ZM59.6406 39.7561C58.4141 39.7561 57.3516 39.5178 56.4531 39.0413C55.5547 38.5647 54.8633 37.8342 54.3789 36.8499C53.8945 35.8655 53.6523 34.6155 53.6523 33.0999C53.6523 31.5217 53.918 30.2327 54.4492 29.2327C54.9805 28.2327 55.7148 27.4944 56.6523 27.0178C57.5977 26.5413 58.6797 26.303 59.8984 26.303C60.6719 26.303 61.3711 26.3811 61.9961 26.5374C62.6289 26.6858 63.1641 26.8694 63.6016 27.0881L62.7812 29.2913C62.3047 29.0959 61.8164 28.9319 61.3164 28.7991C60.8164 28.6663 60.3359 28.5999 59.875 28.5999C59.1172 28.5999 58.4844 28.7678 57.9766 29.1038C57.4766 29.4397 57.1016 29.9397 56.8516 30.6038C56.6094 31.2678 56.4883 32.092 56.4883 33.0764C56.4883 34.0295 56.6133 34.8342 56.8633 35.4905C57.1133 36.1389 57.4844 36.6311 57.9766 36.967C58.4688 37.2952 59.0742 37.4592 59.793 37.4592C60.5039 37.4592 61.1406 37.3733 61.7031 37.2014C62.2656 37.0295 62.7969 36.8069 63.2969 36.5334V38.9241C62.8047 39.2053 62.2773 39.4124 61.7148 39.5452C61.1523 39.6858 60.4609 39.7561 59.6406 39.7561ZM69.0977 21.2874V30.0999C69.0977 30.4983 69.082 30.9358 69.0508 31.4124C69.0195 31.8811 68.9883 32.3225 68.957 32.7366H69.0156C69.2188 32.4631 69.4609 32.1428 69.7422 31.7756C70.0312 31.4084 70.3047 31.0881 70.5625 30.8147L74.5234 26.5491H77.6875L72.4961 32.1272L78.0273 39.5217H74.793L70.6445 33.8264L69.0977 35.1506V39.5217H66.3438V21.2874H69.0977ZM85.2109 34.2483V31.9163H91.2578V34.2483H85.2109ZM106.527 39.5217H103.703V24.7795H98.6875V22.3889H111.531V24.7795H106.527V39.5217ZM116.629 26.5491V39.5217H113.875V26.5491H116.629ZM115.27 21.5803C115.691 21.5803 116.055 21.6936 116.359 21.9202C116.672 22.1467 116.828 22.5374 116.828 23.092C116.828 23.6389 116.672 24.0295 116.359 24.2639C116.055 24.4905 115.691 24.6038 115.27 24.6038C114.832 24.6038 114.461 24.4905 114.156 24.2639C113.859 24.0295 113.711 23.6389 113.711 23.092C113.711 22.5374 113.859 22.1467 114.156 21.9202C114.461 21.6936 114.832 21.5803 115.27 21.5803ZM127.34 26.303C128.801 26.303 129.938 26.6819 130.75 27.4397C131.57 28.1897 131.98 29.3967 131.98 31.0608V39.5217H129.227V31.5764C129.227 30.5686 129.02 29.8147 128.605 29.3147C128.191 28.8069 127.551 28.553 126.684 28.553C125.426 28.553 124.551 28.9397 124.059 29.7131C123.574 30.4866 123.332 31.6077 123.332 33.0764V39.5217H120.578V26.5491H122.723L123.109 28.3069H123.262C123.543 27.8538 123.891 27.4827 124.305 27.1936C124.727 26.8967 125.195 26.6741 125.711 26.5256C126.234 26.3772 126.777 26.303 127.34 26.303ZM140.664 37.5295C141.023 37.5295 141.379 37.4983 141.73 37.4358C142.082 37.3655 142.402 37.2834 142.691 37.1897V39.2756C142.387 39.4084 141.992 39.5217 141.508 39.6155C141.023 39.7092 140.52 39.7561 139.996 39.7561C139.262 39.7561 138.602 39.635 138.016 39.3928C137.43 39.1428 136.965 38.717 136.621 38.1155C136.277 37.5139 136.105 36.6819 136.105 35.6194V28.6467H134.336V27.4163L136.234 26.4436L137.137 23.6663H138.871V26.5491H142.586V28.6467H138.871V35.5842C138.871 36.2405 139.035 36.7288 139.363 37.0491C139.691 37.3694 140.125 37.5295 140.664 37.5295ZM162.273 39.5217H150.672V37.4475L155.113 32.9475C155.973 32.0725 156.68 31.3186 157.234 30.6858C157.789 30.0452 158.199 29.4397 158.465 28.8694C158.738 28.2991 158.875 27.678 158.875 27.0061C158.875 26.178 158.637 25.553 158.16 25.1311C157.684 24.7014 157.055 24.4866 156.273 24.4866C155.531 24.4866 154.844 24.635 154.211 24.9319C153.586 25.2209 152.938 25.635 152.266 26.1741L150.754 24.3577C151.23 23.9514 151.738 23.5803 152.277 23.2444C152.824 22.9084 153.434 22.6428 154.105 22.4475C154.777 22.2444 155.543 22.1428 156.402 22.1428C157.488 22.1428 158.426 22.3381 159.215 22.7288C160.004 23.1116 160.609 23.6467 161.031 24.3342C161.461 25.0217 161.676 25.8225 161.676 26.7366C161.676 27.6584 161.492 28.51 161.125 29.2913C160.758 30.0725 160.234 30.8459 159.555 31.6116C158.875 32.3694 158.066 33.1936 157.129 34.0842L154.164 36.9788V37.1077H162.273V39.5217ZM176.008 30.9436C176.008 32.3264 175.898 33.5647 175.68 34.6584C175.469 35.7444 175.133 36.6663 174.672 37.4241C174.211 38.1819 173.609 38.76 172.867 39.1584C172.125 39.5569 171.227 39.7561 170.172 39.7561C168.852 39.7561 167.762 39.4084 166.902 38.7131C166.043 38.01 165.406 37.0022 164.992 35.6897C164.578 34.3694 164.371 32.7874 164.371 30.9436C164.371 29.0999 164.559 27.5217 164.934 26.2092C165.316 24.8889 165.934 23.8772 166.785 23.1741C167.637 22.4709 168.766 22.1194 170.172 22.1194C171.5 22.1194 172.594 22.4709 173.453 23.1741C174.32 23.8694 174.961 24.8772 175.375 26.1975C175.797 27.51 176.008 29.092 176.008 30.9436ZM167.148 30.9436C167.148 32.3889 167.242 33.5959 167.43 34.5647C167.625 35.5334 167.945 36.26 168.391 36.7444C168.836 37.2209 169.43 37.4592 170.172 37.4592C170.914 37.4592 171.508 37.2209 171.953 36.7444C172.398 36.2678 172.719 35.5452 172.914 34.5764C173.117 33.6077 173.219 32.3967 173.219 30.9436C173.219 29.5061 173.121 28.303 172.926 27.3342C172.73 26.3655 172.41 25.6389 171.965 25.1545C171.52 24.6624 170.922 24.4163 170.172 24.4163C169.422 24.4163 168.824 24.6624 168.379 25.1545C167.941 25.6389 167.625 26.3655 167.43 27.3342C167.242 28.303 167.148 29.5061 167.148 30.9436ZM189.742 30.9436C189.742 32.3264 189.633 33.5647 189.414 34.6584C189.203 35.7444 188.867 36.6663 188.406 37.4241C187.945 38.1819 187.344 38.76 186.602 39.1584C185.859 39.5569 184.961 39.7561 183.906 39.7561C182.586 39.7561 181.496 39.4084 180.637 38.7131C179.777 38.01 179.141 37.0022 178.727 35.6897C178.312 34.3694 178.105 32.7874 178.105 30.9436C178.105 29.0999 178.293 27.5217 178.668 26.2092C179.051 24.8889 179.668 23.8772 180.52 23.1741C181.371 22.4709 182.5 22.1194 183.906 22.1194C185.234 22.1194 186.328 22.4709 187.188 23.1741C188.055 23.8694 188.695 24.8772 189.109 26.1975C189.531 27.51 189.742 29.092 189.742 30.9436ZM180.883 30.9436C180.883 32.3889 180.977 33.5959 181.164 34.5647C181.359 35.5334 181.68 36.26 182.125 36.7444C182.57 37.2209 183.164 37.4592 183.906 37.4592C184.648 37.4592 185.242 37.2209 185.688 36.7444C186.133 36.2678 186.453 35.5452 186.648 34.5764C186.852 33.6077 186.953 32.3967 186.953 30.9436C186.953 29.5061 186.855 28.303 186.66 27.3342C186.465 26.3655 186.145 25.6389 185.699 25.1545C185.254 24.6624 184.656 24.4163 183.906 24.4163C183.156 24.4163 182.559 24.6624 182.113 25.1545C181.676 25.6389 181.359 26.3655 181.164 27.3342C180.977 28.303 180.883 29.5061 180.883 30.9436Z" fill="white"/>
<path d="M27.6016 73.303L26.9453 76.6545H30.1094V78.6116H26.5703L25.6211 83.5217H23.5352L24.4961 78.6116H21.5664L20.6406 83.5217H18.6016L19.5039 78.6116H16.5742V76.6545H19.8789L20.5469 73.303H17.4414V71.3459H20.8984L21.8359 66.4006H23.9219L22.9844 71.3459H25.9375L26.8867 66.4006H28.9141L27.9766 71.3459H30.9297V73.303H27.6016ZM21.9414 76.6545H24.8711L25.5391 73.303H22.5977L21.9414 76.6545ZM44.1719 73.6897C44.1719 74.7053 44.0977 75.7014 43.9492 76.678C43.8086 77.6545 43.5586 78.5686 43.1992 79.4202C42.8477 80.2717 42.3594 81.0256 41.7344 81.6819C41.1172 82.3303 40.3359 82.8381 39.3906 83.2053C38.4453 83.5725 37.3047 83.7561 35.9688 83.7561C35.6328 83.7561 35.2422 83.7366 34.7969 83.6975C34.3594 83.6663 34 83.6194 33.7188 83.5569V81.26C34.0156 81.3459 34.3477 81.4163 34.7148 81.4709C35.0898 81.5178 35.4609 81.5413 35.8281 81.5413C37.2734 81.5413 38.3984 81.2717 39.2031 80.7327C40.0156 80.1936 40.5898 79.4514 40.9258 78.5061C41.2695 77.5608 41.4648 76.4866 41.5117 75.2834H41.3711C41.1445 75.6584 40.8594 76.0022 40.5156 76.3147C40.1719 76.6194 39.7461 76.8655 39.2383 77.053C38.7305 77.2327 38.1133 77.3225 37.3867 77.3225C36.4023 77.3225 35.543 77.1155 34.8086 76.7014C34.082 76.2874 33.5156 75.6858 33.1094 74.8967C32.7109 74.0999 32.5117 73.1428 32.5117 72.0256C32.5117 70.8147 32.7422 69.7717 33.2031 68.8967C33.6641 68.0217 34.3164 67.3499 35.1602 66.8811C36.0039 66.4045 36.9961 66.1663 38.1367 66.1663C38.9961 66.1663 39.7891 66.3225 40.5156 66.635C41.25 66.9397 41.8906 67.4084 42.4375 68.0413C42.9844 68.6663 43.4102 69.4514 43.7148 70.3967C44.0195 71.3342 44.1719 72.4319 44.1719 73.6897ZM38.1719 68.4397C37.3047 68.4397 36.5977 68.7327 36.0508 69.3186C35.5039 69.8967 35.2305 70.7874 35.2305 71.9905C35.2305 72.967 35.4648 73.7405 35.9336 74.3108C36.4023 74.8811 37.1211 75.1663 38.0898 75.1663C38.7617 75.1663 39.3398 75.0295 39.8242 74.7561C40.3164 74.4749 40.6953 74.1194 40.9609 73.6897C41.2344 73.26 41.3711 72.8225 41.3711 72.3772C41.3711 71.9163 41.3047 71.4553 41.1719 70.9944C41.0469 70.5334 40.8516 70.1116 40.5859 69.7288C40.3203 69.3459 39.9844 69.0374 39.5781 68.803C39.1797 68.5608 38.7109 68.4397 38.1719 68.4397ZM57.2734 70.303C57.2734 71.0764 57.1172 71.7483 56.8047 72.3186C56.4922 72.8889 56.0625 73.3577 55.5156 73.7249C54.9766 74.0842 54.3516 74.342 53.6406 74.4983V74.5803C55.0078 74.7522 56.0391 75.1819 56.7344 75.8694C57.4375 76.5569 57.7891 77.467 57.7891 78.5999C57.7891 79.592 57.5508 80.4788 57.0742 81.26C56.5977 82.0334 55.8672 82.6428 54.8828 83.0881C53.8984 83.5334 52.6328 83.7561 51.0859 83.7561C50.1562 83.7561 49.293 83.6819 48.4961 83.5334C47.707 83.385 46.957 83.1467 46.2461 82.8186V80.3694C46.9727 80.7288 47.7461 81.0061 48.5664 81.2014C49.3867 81.3967 50.1641 81.4944 50.8984 81.4944C52.3281 81.4944 53.3477 81.2288 53.957 80.6975C54.5664 80.1584 54.8711 79.4163 54.8711 78.4709C54.8711 77.8616 54.7109 77.3616 54.3906 76.9709C54.0781 76.5803 53.5898 76.2874 52.9258 76.092C52.2695 75.8967 51.4219 75.7991 50.3828 75.7991H48.8711V73.5842H50.3945C51.3867 73.5842 52.1836 73.467 52.7852 73.2327C53.3867 72.9905 53.8203 72.6584 54.0859 72.2366C54.3594 71.8147 54.4961 71.3225 54.4961 70.76C54.4961 70.0256 54.2578 69.4553 53.7812 69.0491C53.3047 68.635 52.5977 68.428 51.6602 68.428C51.082 68.428 50.5547 68.4944 50.0781 68.6272C49.6094 68.76 49.1758 68.928 48.7773 69.1311C48.3789 69.3342 48 69.553 47.6406 69.7874L46.3164 67.8772C46.9648 67.3928 47.7383 66.9827 48.6367 66.6467C49.5352 66.3108 50.582 66.1428 51.7773 66.1428C53.5352 66.1428 54.8906 66.5217 55.8438 67.2795C56.7969 68.0295 57.2734 69.0374 57.2734 70.303ZM71.6406 73.6897C71.6406 74.7053 71.5664 75.7014 71.418 76.678C71.2773 77.6545 71.0273 78.5686 70.668 79.4202C70.3164 80.2717 69.8281 81.0256 69.2031 81.6819C68.5859 82.3303 67.8047 82.8381 66.8594 83.2053C65.9141 83.5725 64.7734 83.7561 63.4375 83.7561C63.1016 83.7561 62.7109 83.7366 62.2656 83.6975C61.8281 83.6663 61.4688 83.6194 61.1875 83.5569V81.26C61.4844 81.3459 61.8164 81.4163 62.1836 81.4709C62.5586 81.5178 62.9297 81.5413 63.2969 81.5413C64.7422 81.5413 65.8672 81.2717 66.6719 80.7327C67.4844 80.1936 68.0586 79.4514 68.3945 78.5061C68.7383 77.5608 68.9336 76.4866 68.9805 75.2834H68.8398C68.6133 75.6584 68.3281 76.0022 67.9844 76.3147C67.6406 76.6194 67.2148 76.8655 66.707 77.053C66.1992 77.2327 65.582 77.3225 64.8555 77.3225C63.8711 77.3225 63.0117 77.1155 62.2773 76.7014C61.5508 76.2874 60.9844 75.6858 60.5781 74.8967C60.1797 74.0999 59.9805 73.1428 59.9805 72.0256C59.9805 70.8147 60.2109 69.7717 60.6719 68.8967C61.1328 68.0217 61.7852 67.3499 62.6289 66.8811C63.4727 66.4045 64.4648 66.1663 65.6055 66.1663C66.4648 66.1663 67.2578 66.3225 67.9844 66.635C68.7188 66.9397 69.3594 67.4084 69.9062 68.0413C70.4531 68.6663 70.8789 69.4514 71.1836 70.3967C71.4883 71.3342 71.6406 72.4319 71.6406 73.6897ZM65.6406 68.4397C64.7734 68.4397 64.0664 68.7327 63.5195 69.3186C62.9727 69.8967 62.6992 70.7874 62.6992 71.9905C62.6992 72.967 62.9336 73.7405 63.4023 74.3108C63.8711 74.8811 64.5898 75.1663 65.5586 75.1663C66.2305 75.1663 66.8086 75.0295 67.293 74.7561C67.7852 74.4749 68.1641 74.1194 68.4297 73.6897C68.7031 73.26 68.8398 72.8225 68.8398 72.3772C68.8398 71.9163 68.7734 71.4553 68.6406 70.9944C68.5156 70.5334 68.3203 70.1116 68.0547 69.7288C67.7891 69.3459 67.4531 69.0374 67.0469 68.803C66.6484 68.5608 66.1797 68.4397 65.6406 68.4397ZM84.7422 70.303C84.7422 71.0764 84.5859 71.7483 84.2734 72.3186C83.9609 72.8889 83.5312 73.3577 82.9844 73.7249C82.4453 74.0842 81.8203 74.342 81.1094 74.4983V74.5803C82.4766 74.7522 83.5078 75.1819 84.2031 75.8694C84.9062 76.5569 85.2578 77.467 85.2578 78.5999C85.2578 79.592 85.0195 80.4788 84.543 81.26C84.0664 82.0334 83.3359 82.6428 82.3516 83.0881C81.3672 83.5334 80.1016 83.7561 78.5547 83.7561C77.625 83.7561 76.7617 83.6819 75.9648 83.5334C75.1758 83.385 74.4258 83.1467 73.7148 82.8186V80.3694C74.4414 80.7288 75.2148 81.0061 76.0352 81.2014C76.8555 81.3967 77.6328 81.4944 78.3672 81.4944C79.7969 81.4944 80.8164 81.2288 81.4258 80.6975C82.0352 80.1584 82.3398 79.4163 82.3398 78.4709C82.3398 77.8616 82.1797 77.3616 81.8594 76.9709C81.5469 76.5803 81.0586 76.2874 80.3945 76.092C79.7383 75.8967 78.8906 75.7991 77.8516 75.7991H76.3398V73.5842H77.8633C78.8555 73.5842 79.6523 73.467 80.2539 73.2327C80.8555 72.9905 81.2891 72.6584 81.5547 72.2366C81.8281 71.8147 81.9648 71.3225 81.9648 70.76C81.9648 70.0256 81.7266 69.4553 81.25 69.0491C80.7734 68.635 80.0664 68.428 79.1289 68.428C78.5508 68.428 78.0234 68.4944 77.5469 68.6272C77.0781 68.76 76.6445 68.928 76.2461 69.1311C75.8477 69.3342 75.4688 69.553 75.1094 69.7874L73.7852 67.8772C74.4336 67.3928 75.207 66.9827 76.1055 66.6467C77.0039 66.3108 78.0508 66.1428 79.2461 66.1428C81.0039 66.1428 82.3594 66.5217 83.3125 67.2795C84.2656 68.0295 84.7422 69.0374 84.7422 70.303ZM99.1094 73.6897C99.1094 74.7053 99.0352 75.7014 98.8867 76.678C98.7461 77.6545 98.4961 78.5686 98.1367 79.4202C97.7852 80.2717 97.2969 81.0256 96.6719 81.6819C96.0547 82.3303 95.2734 82.8381 94.3281 83.2053C93.3828 83.5725 92.2422 83.7561 90.9062 83.7561C90.5703 83.7561 90.1797 83.7366 89.7344 83.6975C89.2969 83.6663 88.9375 83.6194 88.6562 83.5569V81.26C88.9531 81.3459 89.2852 81.4163 89.6523 81.4709C90.0273 81.5178 90.3984 81.5413 90.7656 81.5413C92.2109 81.5413 93.3359 81.2717 94.1406 80.7327C94.9531 80.1936 95.5273 79.4514 95.8633 78.5061C96.207 77.5608 96.4023 76.4866 96.4492 75.2834H96.3086C96.082 75.6584 95.7969 76.0022 95.4531 76.3147C95.1094 76.6194 94.6836 76.8655 94.1758 77.053C93.668 77.2327 93.0508 77.3225 92.3242 77.3225C91.3398 77.3225 90.4805 77.1155 89.7461 76.7014C89.0195 76.2874 88.4531 75.6858 88.0469 74.8967C87.6484 74.0999 87.4492 73.1428 87.4492 72.0256C87.4492 70.8147 87.6797 69.7717 88.1406 68.8967C88.6016 68.0217 89.2539 67.3499 90.0977 66.8811C90.9414 66.4045 91.9336 66.1663 93.0742 66.1663C93.9336 66.1663 94.7266 66.3225 95.4531 66.635C96.1875 66.9397 96.8281 67.4084 97.375 68.0413C97.9219 68.6663 98.3477 69.4514 98.6523 70.3967C98.957 71.3342 99.1094 72.4319 99.1094 73.6897ZM93.1094 68.4397C92.2422 68.4397 91.5352 68.7327 90.9883 69.3186C90.4414 69.8967 90.168 70.7874 90.168 71.9905C90.168 72.967 90.4023 73.7405 90.8711 74.3108C91.3398 74.8811 92.0586 75.1663 93.0273 75.1663C93.6992 75.1663 94.2773 75.0295 94.7617 74.7561C95.2539 74.4749 95.6328 74.1194 95.8984 73.6897C96.1719 73.26 96.3086 72.8225 96.3086 72.3772C96.3086 71.9163 96.2422 71.4553 96.1094 70.9944C95.9844 70.5334 95.7891 70.1116 95.5234 69.7288C95.2578 69.3459 94.9219 69.0374 94.5156 68.803C94.1172 68.5608 93.6484 68.4397 93.1094 68.4397ZM112.211 70.303C112.211 71.0764 112.055 71.7483 111.742 72.3186C111.43 72.8889 111 73.3577 110.453 73.7249C109.914 74.0842 109.289 74.342 108.578 74.4983V74.5803C109.945 74.7522 110.977 75.1819 111.672 75.8694C112.375 76.5569 112.727 77.467 112.727 78.5999C112.727 79.592 112.488 80.4788 112.012 81.26C111.535 82.0334 110.805 82.6428 109.82 83.0881C108.836 83.5334 107.57 83.7561 106.023 83.7561C105.094 83.7561 104.23 83.6819 103.434 83.5334C102.645 83.385 101.895 83.1467 101.184 82.8186V80.3694C101.91 80.7288 102.684 81.0061 103.504 81.2014C104.324 81.3967 105.102 81.4944 105.836 81.4944C107.266 81.4944 108.285 81.2288 108.895 80.6975C109.504 80.1584 109.809 79.4163 109.809 78.4709C109.809 77.8616 109.648 77.3616 109.328 76.9709C109.016 76.5803 108.527 76.2874 107.863 76.092C107.207 75.8967 106.359 75.7991 105.32 75.7991H103.809V73.5842H105.332C106.324 73.5842 107.121 73.467 107.723 73.2327C108.324 72.9905 108.758 72.6584 109.023 72.2366C109.297 71.8147 109.434 71.3225 109.434 70.76C109.434 70.0256 109.195 69.4553 108.719 69.0491C108.242 68.635 107.535 68.428 106.598 68.428C106.02 68.428 105.492 68.4944 105.016 68.6272C104.547 68.76 104.113 68.928 103.715 69.1311C103.316 69.3342 102.938 69.553 102.578 69.7874L101.254 67.8772C101.902 67.3928 102.676 66.9827 103.574 66.6467C104.473 66.3108 105.52 66.1428 106.715 66.1428C108.473 66.1428 109.828 66.5217 110.781 67.2795C111.734 68.0295 112.211 69.0374 112.211 70.303Z" fill="white"/>
</svg>
