<svg width="683" height="662" viewBox="0 0 683 662" fill="none" xmlns="http://www.w3.org/2000/svg">
<rect width="683" height="661.522" rx="8" fill="#2B5FFC"/>
<path d="M23.2305 277.867C25.4414 277.867 27.0547 278.32 28.0703 279.227C29.0859 280.133 29.5938 281.402 29.5938 283.035C29.5938 283.777 29.4766 284.484 29.2422 285.156C29.0156 285.82 28.6406 286.41 28.1172 286.926C27.5938 287.434 26.9023 287.836 26.043 288.133C25.1914 288.43 24.1406 288.578 22.8906 288.578H21.0625V295H18.25V277.867H23.2305ZM23.043 280.199H21.0625V286.234H22.5977C23.4805 286.234 24.2305 286.133 24.8477 285.93C25.4648 285.719 25.9336 285.387 26.2539 284.934C26.5742 284.48 26.7344 283.883 26.7344 283.141C26.7344 282.148 26.4336 281.41 25.832 280.926C25.2383 280.441 24.3086 280.199 23.043 280.199ZM39.3086 281.781C39.5273 281.781 39.7656 281.793 40.0234 281.816C40.2812 281.84 40.5039 281.871 40.6914 281.91L40.4336 284.488C40.2695 284.441 40.0664 284.406 39.8242 284.383C39.5898 284.359 39.3789 284.348 39.1914 284.348C38.6992 284.348 38.2305 284.43 37.7852 284.594C37.3398 284.75 36.9453 284.992 36.6016 285.32C36.2578 285.641 35.9883 286.043 35.793 286.527C35.5977 287.012 35.5 287.574 35.5 288.215V295H32.7344V282.027H34.8906L35.2656 284.312H35.3945C35.6523 283.852 35.9727 283.43 36.3555 283.047C36.7383 282.664 37.1758 282.359 37.668 282.133C38.168 281.898 38.7148 281.781 39.3086 281.781ZM45.8477 282.027V295H43.0938V282.027H45.8477ZM44.4883 277.059C44.9102 277.059 45.2734 277.172 45.5781 277.398C45.8906 277.625 46.0469 278.016 46.0469 278.57C46.0469 279.117 45.8906 279.508 45.5781 279.742C45.2734 279.969 44.9102 280.082 44.4883 280.082C44.0508 280.082 43.6797 279.969 43.375 279.742C43.0781 279.508 42.9297 279.117 42.9297 278.57C42.9297 278.016 43.0781 277.625 43.375 277.398C43.6797 277.172 44.0508 277.059 44.4883 277.059ZM64.457 281.781C65.9102 281.781 67.0039 282.156 67.7383 282.906C68.4805 283.656 68.8516 284.859 68.8516 286.516V295H66.0977V287.008C66.0977 286.023 65.9062 285.281 65.5234 284.781C65.1406 284.281 64.5586 284.031 63.7773 284.031C62.6836 284.031 61.8945 284.383 61.4102 285.086C60.9336 285.781 60.6953 286.793 60.6953 288.121V295H57.9414V287.008C57.9414 286.352 57.8555 285.805 57.6836 285.367C57.5195 284.922 57.2656 284.59 56.9219 284.371C56.5781 284.145 56.1445 284.031 55.6211 284.031C54.8633 284.031 54.2578 284.203 53.8047 284.547C53.3594 284.891 53.0391 285.398 52.8438 286.07C52.6484 286.734 52.5508 287.551 52.5508 288.52V295H49.7969V282.027H51.9414L52.3281 283.773H52.4805C52.7461 283.32 53.0742 282.949 53.4648 282.66C53.8633 282.363 54.3047 282.145 54.7891 282.004C55.2734 281.855 55.7773 281.781 56.3008 281.781C57.2695 281.781 58.0859 281.953 58.75 282.297C59.4141 282.633 59.9102 283.148 60.2383 283.844H60.4492C60.8555 283.141 61.4219 282.621 62.1484 282.285C62.875 281.949 63.6445 281.781 64.457 281.781ZM77.7812 281.781C79.4219 281.781 80.6602 282.145 81.4961 282.871C82.3398 283.598 82.7617 284.73 82.7617 286.27V295H80.8047L80.2773 293.16H80.1836C79.8164 293.629 79.4375 294.016 79.0469 294.32C78.6562 294.625 78.2031 294.852 77.6875 295C77.1797 295.156 76.5586 295.234 75.8242 295.234C75.0508 295.234 74.3594 295.094 73.75 294.812C73.1406 294.523 72.6602 294.086 72.3086 293.5C71.957 292.914 71.7812 292.172 71.7812 291.273C71.7812 289.938 72.2773 288.934 73.2695 288.262C74.2695 287.59 75.7773 287.219 77.793 287.148L80.043 287.066V286.387C80.043 285.488 79.832 284.848 79.4102 284.465C78.9961 284.082 78.4102 283.891 77.6523 283.891C77.0039 283.891 76.375 283.984 75.7656 284.172C75.1562 284.359 74.5625 284.59 73.9844 284.863L73.0938 282.918C73.7266 282.582 74.4453 282.309 75.25 282.098C76.0625 281.887 76.9062 281.781 77.7812 281.781ZM80.0312 288.801L78.3555 288.859C76.9805 288.906 76.0156 289.141 75.4609 289.562C74.9062 289.984 74.6289 290.562 74.6289 291.297C74.6289 291.938 74.8203 292.406 75.2031 292.703C75.5859 292.992 76.0898 293.137 76.7148 293.137C77.668 293.137 78.457 292.867 79.082 292.328C79.7148 291.781 80.0312 290.98 80.0312 289.926V288.801ZM93.1914 281.781C93.4102 281.781 93.6484 281.793 93.9062 281.816C94.1641 281.84 94.3867 281.871 94.5742 281.91L94.3164 284.488C94.1523 284.441 93.9492 284.406 93.707 284.383C93.4727 284.359 93.2617 284.348 93.0742 284.348C92.582 284.348 92.1133 284.43 91.668 284.594C91.2227 284.75 90.8281 284.992 90.4844 285.32C90.1406 285.641 89.8711 286.043 89.6758 286.527C89.4805 287.012 89.3828 287.574 89.3828 288.215V295H86.6172V282.027H88.7734L89.1484 284.312H89.2773C89.5352 283.852 89.8555 283.43 90.2383 283.047C90.6211 282.664 91.0586 282.359 91.5508 282.133C92.0508 281.898 92.5977 281.781 93.1914 281.781ZM95.0195 282.027H98.0195L100.68 289.434C100.797 289.77 100.902 290.102 100.996 290.43C101.098 290.75 101.184 291.066 101.254 291.379C101.332 291.691 101.395 292.004 101.441 292.316H101.512C101.59 291.91 101.699 291.457 101.84 290.957C101.988 290.449 102.152 289.941 102.332 289.434L104.887 282.027H107.852L102.285 296.781C101.965 297.625 101.57 298.344 101.102 298.938C100.641 299.539 100.094 299.992 99.4609 300.297C98.8281 300.609 98.1055 300.766 97.293 300.766C96.9023 300.766 96.5625 300.742 96.2734 300.695C95.9844 300.656 95.7383 300.613 95.5352 300.566V298.363C95.6992 298.402 95.9062 298.438 96.1562 298.469C96.4062 298.5 96.6641 298.516 96.9297 298.516C97.4219 298.516 97.8477 298.418 98.207 298.223C98.5664 298.027 98.8711 297.75 99.1211 297.391C99.3711 297.039 99.5781 296.637 99.7422 296.184L100.199 294.965L95.0195 282.027ZM116.336 277.867H121.434C123.645 277.867 125.312 278.188 126.438 278.828C127.562 279.469 128.125 280.574 128.125 282.145C128.125 282.801 128.008 283.395 127.773 283.926C127.547 284.449 127.215 284.883 126.777 285.227C126.34 285.562 125.801 285.789 125.16 285.906V286.023C125.824 286.141 126.414 286.348 126.93 286.645C127.453 286.941 127.863 287.367 128.16 287.922C128.465 288.477 128.617 289.195 128.617 290.078C128.617 291.125 128.367 292.016 127.867 292.75C127.375 293.484 126.668 294.043 125.746 294.426C124.832 294.809 123.746 295 122.488 295H116.336V277.867ZM119.148 284.934H121.844C123.117 284.934 124 284.727 124.492 284.312C124.984 283.898 125.23 283.293 125.23 282.496C125.23 281.684 124.938 281.098 124.352 280.738C123.773 280.379 122.852 280.199 121.586 280.199H119.148V284.934ZM119.148 287.207V292.645H122.113C123.426 292.645 124.348 292.391 124.879 291.883C125.41 291.375 125.676 290.688 125.676 289.82C125.676 289.289 125.555 288.828 125.312 288.438C125.078 288.047 124.691 287.746 124.152 287.535C123.613 287.316 122.887 287.207 121.973 287.207H119.148ZM134.641 295H131.875V276.766H134.641V295ZM149.887 282.027V295H147.719L147.344 293.254H147.191C146.918 293.699 146.57 294.07 146.148 294.367C145.727 294.656 145.258 294.871 144.742 295.012C144.227 295.16 143.684 295.234 143.113 295.234C142.137 295.234 141.301 295.07 140.605 294.742C139.918 294.406 139.391 293.891 139.023 293.195C138.656 292.5 138.473 291.602 138.473 290.5V282.027H141.238V289.984C141.238 290.992 141.441 291.746 141.848 292.246C142.262 292.746 142.902 292.996 143.77 292.996C144.605 292.996 145.27 292.824 145.762 292.48C146.254 292.137 146.602 291.629 146.805 290.957C147.016 290.285 147.121 289.461 147.121 288.484V282.027H149.887ZM159.004 281.781C160.16 281.781 161.152 282.02 161.98 282.496C162.809 282.973 163.445 283.648 163.891 284.523C164.336 285.398 164.559 286.445 164.559 287.664V289.141H155.898C155.93 290.398 156.266 291.367 156.906 292.047C157.555 292.727 158.461 293.066 159.625 293.066C160.453 293.066 161.195 292.988 161.852 292.832C162.516 292.668 163.199 292.43 163.902 292.117V294.355C163.254 294.66 162.594 294.883 161.922 295.023C161.25 295.164 160.445 295.234 159.508 295.234C158.234 295.234 157.113 294.988 156.145 294.496C155.184 293.996 154.43 293.254 153.883 292.27C153.344 291.285 153.074 290.062 153.074 288.602C153.074 287.148 153.32 285.914 153.812 284.898C154.305 283.883 154.996 283.109 155.887 282.578C156.777 282.047 157.816 281.781 159.004 281.781ZM159.004 283.855C158.137 283.855 157.434 284.137 156.895 284.699C156.363 285.262 156.051 286.086 155.957 287.172H161.863C161.855 286.523 161.746 285.949 161.535 285.449C161.332 284.949 161.02 284.559 160.598 284.277C160.184 283.996 159.652 283.855 159.004 283.855Z" fill="white"/>
<path d="M27.6016 322.781L26.9453 326.133H30.1094V328.09H26.5703L25.6211 333H23.5352L24.4961 328.09H21.5664L20.6406 333H18.6016L19.5039 328.09H16.5742V326.133H19.8789L20.5469 322.781H17.4414V320.824H20.8984L21.8359 315.879H23.9219L22.9844 320.824H25.9375L26.8867 315.879H28.9141L27.9766 320.824H30.9297V322.781H27.6016ZM21.9414 326.133H24.8711L25.5391 322.781H22.5977L21.9414 326.133ZM44.1953 333H32.5938V330.926L37.0352 326.426C37.8945 325.551 38.6016 324.797 39.1562 324.164C39.7109 323.523 40.1211 322.918 40.3867 322.348C40.6602 321.777 40.7969 321.156 40.7969 320.484C40.7969 319.656 40.5586 319.031 40.082 318.609C39.6055 318.18 38.9766 317.965 38.1953 317.965C37.4531 317.965 36.7656 318.113 36.1328 318.41C35.5078 318.699 34.8594 319.113 34.1875 319.652L32.6758 317.836C33.1523 317.43 33.6602 317.059 34.1992 316.723C34.7461 316.387 35.3555 316.121 36.0273 315.926C36.6992 315.723 37.4648 315.621 38.3242 315.621C39.4102 315.621 40.3477 315.816 41.1367 316.207C41.9258 316.59 42.5312 317.125 42.9531 317.812C43.3828 318.5 43.5977 319.301 43.5977 320.215C43.5977 321.137 43.4141 321.988 43.0469 322.77C42.6797 323.551 42.1562 324.324 41.4766 325.09C40.7969 325.848 39.9883 326.672 39.0508 327.562L36.0859 330.457V330.586H44.1953V333ZM47.5 315.867H52.5977C54.8086 315.867 56.4766 316.188 57.6016 316.828C58.7266 317.469 59.2891 318.574 59.2891 320.145C59.2891 320.801 59.1719 321.395 58.9375 321.926C58.7109 322.449 58.3789 322.883 57.9414 323.227C57.5039 323.562 56.9648 323.789 56.3242 323.906V324.023C56.9883 324.141 57.5781 324.348 58.0938 324.645C58.6172 324.941 59.0273 325.367 59.3242 325.922C59.6289 326.477 59.7812 327.195 59.7812 328.078C59.7812 329.125 59.5312 330.016 59.0312 330.75C58.5391 331.484 57.832 332.043 56.9102 332.426C55.9961 332.809 54.9102 333 53.6523 333H47.5V315.867ZM50.3125 322.934H53.0078C54.2812 322.934 55.1641 322.727 55.6562 322.312C56.1484 321.898 56.3945 321.293 56.3945 320.496C56.3945 319.684 56.1016 319.098 55.5156 318.738C54.9375 318.379 54.0156 318.199 52.75 318.199H50.3125V322.934ZM50.3125 325.207V330.645H53.2773C54.5898 330.645 55.5117 330.391 56.043 329.883C56.5742 329.375 56.8398 328.688 56.8398 327.82C56.8398 327.289 56.7188 326.828 56.4766 326.438C56.2422 326.047 55.8555 325.746 55.3164 325.535C54.7773 325.316 54.0508 325.207 53.1367 325.207H50.3125ZM67.9727 322.289C69.0742 322.289 70.043 322.488 70.8789 322.887C71.7227 323.277 72.3789 323.855 72.8477 324.621C73.3164 325.379 73.5508 326.309 73.5508 327.41C73.5508 328.613 73.2969 329.652 72.7891 330.527C72.2812 331.395 71.5352 332.062 70.5508 332.531C69.5664 333 68.3672 333.234 66.9531 333.234C66.0547 333.234 65.2148 333.156 64.4336 333C63.6602 332.844 62.9922 332.609 62.4297 332.297V329.812C63.0156 330.141 63.7188 330.41 64.5391 330.621C65.3594 330.824 66.1445 330.926 66.8945 330.926C67.6914 330.926 68.375 330.809 68.9453 330.574C69.5156 330.34 69.9531 329.98 70.2578 329.496C70.5703 329.012 70.7266 328.398 70.7266 327.656C70.7266 326.672 70.4102 325.914 69.7773 325.383C69.1523 324.844 68.1719 324.574 66.8359 324.574C66.3672 324.574 65.8672 324.617 65.3359 324.703C64.8125 324.781 64.375 324.867 64.0234 324.961L62.8164 324.246L63.4609 315.867H72.3672V318.293H65.8867L65.5117 322.559C65.793 322.496 66.1289 322.438 66.5195 322.383C66.9102 322.32 67.3945 322.289 67.9727 322.289ZM79.8438 333H77.0547V315.867H86.7344V318.234H79.8438V323.578H86.2891V325.934H79.8438V333ZM92.6406 333H89.8516V315.867H99.5312V318.234H92.6406V323.578H99.0859V325.934H92.6406V333ZM109.949 318.012C109.129 318.012 108.395 318.16 107.746 318.457C107.105 318.754 106.562 319.184 106.117 319.746C105.672 320.301 105.332 320.977 105.098 321.773C104.863 322.562 104.746 323.453 104.746 324.445C104.746 325.773 104.934 326.918 105.309 327.879C105.684 328.832 106.254 329.566 107.02 330.082C107.785 330.59 108.754 330.844 109.926 330.844C110.652 330.844 111.359 330.773 112.047 330.633C112.734 330.492 113.445 330.301 114.18 330.059V332.449C113.484 332.723 112.781 332.922 112.07 333.047C111.359 333.172 110.539 333.234 109.609 333.234C107.859 333.234 106.406 332.871 105.25 332.145C104.102 331.418 103.242 330.395 102.672 329.074C102.109 327.754 101.828 326.207 101.828 324.434C101.828 323.137 102.008 321.949 102.367 320.871C102.727 319.793 103.25 318.863 103.938 318.082C104.625 317.293 105.473 316.688 106.48 316.266C107.496 315.836 108.656 315.621 109.961 315.621C110.82 315.621 111.664 315.719 112.492 315.914C113.328 316.102 114.102 316.371 114.812 316.723L113.828 319.043C113.234 318.762 112.613 318.52 111.965 318.316C111.316 318.113 110.645 318.012 109.949 318.012Z" fill="white"/>
</svg>
