<svg width="685" height="126" viewBox="0 0 685 126" fill="none" xmlns="http://www.w3.org/2000/svg">
<rect width="685" height="126" rx="8" fill="#9DB5FE"/>
<path d="M18.25 21.8672H23.3477C25.5586 21.8672 27.2266 22.1875 28.3516 22.8281C29.4766 23.4688 30.0391 24.5742 30.0391 26.1445C30.0391 26.8008 29.9219 27.3945 29.6875 27.9258C29.4609 28.4492 29.1289 28.8828 28.6914 29.2266C28.2539 29.5625 27.7148 29.7891 27.0742 29.9062V30.0234C27.7383 30.1406 28.3281 30.3477 28.8438 30.6445C29.3672 30.9414 29.7773 31.3672 30.0742 31.9219C30.3789 32.4766 30.5312 33.1953 30.5312 34.0781C30.5312 35.125 30.2812 36.0156 29.7812 36.75C29.2891 37.4844 28.582 38.043 27.6602 38.4258C26.7461 38.8086 25.6602 39 24.4023 39H18.25V21.8672ZM21.0625 28.9336H23.7578C25.0312 28.9336 25.9141 28.7266 26.4062 28.3125C26.8984 27.8984 27.1445 27.293 27.1445 26.4961C27.1445 25.6836 26.8516 25.0977 26.2656 24.7383C25.6875 24.3789 24.7656 24.1992 23.5 24.1992H21.0625V28.9336ZM21.0625 31.207V36.6445H24.0273C25.3398 36.6445 26.2617 36.3906 26.793 35.8828C27.3242 35.375 27.5898 34.6875 27.5898 33.8203C27.5898 33.2891 27.4688 32.8281 27.2266 32.4375C26.9922 32.0469 26.6055 31.7461 26.0664 31.5352C25.5273 31.3164 24.8008 31.207 23.8867 31.207H21.0625ZM36.5547 39H33.7891V20.7656H36.5547V39ZM51.8008 26.0273V39H49.6328L49.2578 37.2539H49.1055C48.832 37.6992 48.4844 38.0703 48.0625 38.3672C47.6406 38.6562 47.1719 38.8711 46.6562 39.0117C46.1406 39.1602 45.5977 39.2344 45.0273 39.2344C44.0508 39.2344 43.2148 39.0703 42.5195 38.7422C41.832 38.4062 41.3047 37.8906 40.9375 37.1953C40.5703 36.5 40.3867 35.6016 40.3867 34.5V26.0273H43.1523V33.9844C43.1523 34.9922 43.3555 35.7461 43.7617 36.2461C44.1758 36.7461 44.8164 36.9961 45.6836 36.9961C46.5195 36.9961 47.1836 36.8242 47.6758 36.4805C48.168 36.1367 48.5156 35.6289 48.7188 34.957C48.9297 34.2852 49.0352 33.4609 49.0352 32.4844V26.0273H51.8008ZM60.918 25.7812C62.0742 25.7812 63.0664 26.0195 63.8945 26.4961C64.7227 26.9727 65.3594 27.6484 65.8047 28.5234C66.25 29.3984 66.4727 30.4453 66.4727 31.6641V33.1406H57.8125C57.8438 34.3984 58.1797 35.3672 58.8203 36.0469C59.4688 36.7266 60.375 37.0664 61.5391 37.0664C62.3672 37.0664 63.1094 36.9883 63.7656 36.832C64.4297 36.668 65.1133 36.4297 65.8164 36.1172V38.3555C65.168 38.6602 64.5078 38.8828 63.8359 39.0234C63.1641 39.1641 62.3594 39.2344 61.4219 39.2344C60.1484 39.2344 59.0273 38.9883 58.0586 38.4961C57.0977 37.9961 56.3438 37.2539 55.7969 36.2695C55.2578 35.2852 54.9883 34.0625 54.9883 32.6016C54.9883 31.1484 55.2344 29.9141 55.7266 28.8984C56.2188 27.8828 56.9102 27.1094 57.8008 26.5781C58.6914 26.0469 59.7305 25.7812 60.918 25.7812ZM60.918 27.8555C60.0508 27.8555 59.3477 28.1367 58.8086 28.6992C58.2773 29.2617 57.9648 30.0859 57.8711 31.1719H63.7773C63.7695 30.5234 63.6602 29.9492 63.4492 29.4492C63.2461 28.9492 62.9336 28.5586 62.5117 28.2773C62.0977 27.9961 61.5664 27.8555 60.918 27.8555ZM74.6875 33.7266V31.3945H80.7344V33.7266H74.6875ZM96.0039 39H93.1797V24.2578H88.1641V21.8672H101.008V24.2578H96.0039V39ZM106.105 26.0273V39H103.352V26.0273H106.105ZM104.746 21.0586C105.168 21.0586 105.531 21.1719 105.836 21.3984C106.148 21.625 106.305 22.0156 106.305 22.5703C106.305 23.1172 106.148 23.5078 105.836 23.7422C105.531 23.9688 105.168 24.082 104.746 24.082C104.309 24.082 103.938 23.9688 103.633 23.7422C103.336 23.5078 103.188 23.1172 103.188 22.5703C103.188 22.0156 103.336 21.625 103.633 21.3984C103.938 21.1719 104.309 21.0586 104.746 21.0586ZM116.816 25.7812C118.277 25.7812 119.414 26.1602 120.227 26.918C121.047 27.668 121.457 28.875 121.457 30.5391V39H118.703V31.0547C118.703 30.0469 118.496 29.293 118.082 28.793C117.668 28.2852 117.027 28.0312 116.16 28.0312C114.902 28.0312 114.027 28.418 113.535 29.1914C113.051 29.9648 112.809 31.0859 112.809 32.5547V39H110.055V26.0273H112.199L112.586 27.7852H112.738C113.02 27.332 113.367 26.9609 113.781 26.6719C114.203 26.375 114.672 26.1523 115.188 26.0039C115.711 25.8555 116.254 25.7812 116.816 25.7812ZM130.141 37.0078C130.5 37.0078 130.855 36.9766 131.207 36.9141C131.559 36.8438 131.879 36.7617 132.168 36.668V38.7539C131.863 38.8867 131.469 39 130.984 39.0938C130.5 39.1875 129.996 39.2344 129.473 39.2344C128.738 39.2344 128.078 39.1133 127.492 38.8711C126.906 38.6211 126.441 38.1953 126.098 37.5938C125.754 36.9922 125.582 36.1602 125.582 35.0977V28.125H123.812V26.8945L125.711 25.9219L126.613 23.1445H128.348V26.0273H132.062V28.125H128.348V35.0625C128.348 35.7188 128.512 36.207 128.84 36.5273C129.168 36.8477 129.602 37.0078 130.141 37.0078ZM151.75 39H140.148V36.9258L144.59 32.4258C145.449 31.5508 146.156 30.7969 146.711 30.1641C147.266 29.5234 147.676 28.918 147.941 28.3477C148.215 27.7773 148.352 27.1562 148.352 26.4844C148.352 25.6562 148.113 25.0312 147.637 24.6094C147.16 24.1797 146.531 23.9648 145.75 23.9648C145.008 23.9648 144.32 24.1133 143.688 24.4102C143.062 24.6992 142.414 25.1133 141.742 25.6523L140.23 23.8359C140.707 23.4297 141.215 23.0586 141.754 22.7227C142.301 22.3867 142.91 22.1211 143.582 21.9258C144.254 21.7227 145.02 21.6211 145.879 21.6211C146.965 21.6211 147.902 21.8164 148.691 22.207C149.48 22.5898 150.086 23.125 150.508 23.8125C150.938 24.5 151.152 25.3008 151.152 26.2148C151.152 27.1367 150.969 27.9883 150.602 28.7695C150.234 29.5508 149.711 30.3242 149.031 31.0898C148.352 31.8477 147.543 32.6719 146.605 33.5625L143.641 36.457V36.5859H151.75V39ZM165.484 30.4219C165.484 31.8047 165.375 33.043 165.156 34.1367C164.945 35.2227 164.609 36.1445 164.148 36.9023C163.688 37.6602 163.086 38.2383 162.344 38.6367C161.602 39.0352 160.703 39.2344 159.648 39.2344C158.328 39.2344 157.238 38.8867 156.379 38.1914C155.52 37.4883 154.883 36.4805 154.469 35.168C154.055 33.8477 153.848 32.2656 153.848 30.4219C153.848 28.5781 154.035 27 154.41 25.6875C154.793 24.3672 155.41 23.3555 156.262 22.6523C157.113 21.9492 158.242 21.5977 159.648 21.5977C160.977 21.5977 162.07 21.9492 162.93 22.6523C163.797 23.3477 164.438 24.3555 164.852 25.6758C165.273 26.9883 165.484 28.5703 165.484 30.4219ZM156.625 30.4219C156.625 31.8672 156.719 33.0742 156.906 34.043C157.102 35.0117 157.422 35.7383 157.867 36.2227C158.312 36.6992 158.906 36.9375 159.648 36.9375C160.391 36.9375 160.984 36.6992 161.43 36.2227C161.875 35.7461 162.195 35.0234 162.391 34.0547C162.594 33.0859 162.695 31.875 162.695 30.4219C162.695 28.9844 162.598 27.7812 162.402 26.8125C162.207 25.8438 161.887 25.1172 161.441 24.6328C160.996 24.1406 160.398 23.8945 159.648 23.8945C158.898 23.8945 158.301 24.1406 157.855 24.6328C157.418 25.1172 157.102 25.8438 156.906 26.8125C156.719 27.7812 156.625 28.9844 156.625 30.4219ZM179.219 30.4219C179.219 31.8047 179.109 33.043 178.891 34.1367C178.68 35.2227 178.344 36.1445 177.883 36.9023C177.422 37.6602 176.82 38.2383 176.078 38.6367C175.336 39.0352 174.438 39.2344 173.383 39.2344C172.062 39.2344 170.973 38.8867 170.113 38.1914C169.254 37.4883 168.617 36.4805 168.203 35.168C167.789 33.8477 167.582 32.2656 167.582 30.4219C167.582 28.5781 167.77 27 168.145 25.6875C168.527 24.3672 169.145 23.3555 169.996 22.6523C170.848 21.9492 171.977 21.5977 173.383 21.5977C174.711 21.5977 175.805 21.9492 176.664 22.6523C177.531 23.3477 178.172 24.3555 178.586 25.6758C179.008 26.9883 179.219 28.5703 179.219 30.4219ZM170.359 30.4219C170.359 31.8672 170.453 33.0742 170.641 34.043C170.836 35.0117 171.156 35.7383 171.602 36.2227C172.047 36.6992 172.641 36.9375 173.383 36.9375C174.125 36.9375 174.719 36.6992 175.164 36.2227C175.609 35.7461 175.93 35.0234 176.125 34.0547C176.328 33.0859 176.43 31.875 176.43 30.4219C176.43 28.9844 176.332 27.7812 176.137 26.8125C175.941 25.8438 175.621 25.1172 175.176 24.6328C174.73 24.1406 174.133 23.8945 173.383 23.8945C172.633 23.8945 172.035 24.1406 171.59 24.6328C171.152 25.1172 170.836 25.8438 170.641 26.8125C170.453 27.7812 170.359 28.9844 170.359 30.4219Z" fill="white"/>
<path d="M27.6016 72.7812L26.9453 76.1328H30.1094V78.0898H26.5703L25.6211 83H23.5352L24.4961 78.0898H21.5664L20.6406 83H18.6016L19.5039 78.0898H16.5742V76.1328H19.8789L20.5469 72.7812H17.4414V70.8242H20.8984L21.8359 65.8789H23.9219L22.9844 70.8242H25.9375L26.8867 65.8789H28.9141L27.9766 70.8242H30.9297V72.7812H27.6016ZM21.9414 76.1328H24.8711L25.5391 72.7812H22.5977L21.9414 76.1328ZM44.1719 73.168C44.1719 74.1836 44.0977 75.1797 43.9492 76.1562C43.8086 77.1328 43.5586 78.0469 43.1992 78.8984C42.8477 79.75 42.3594 80.5039 41.7344 81.1602C41.1172 81.8086 40.3359 82.3164 39.3906 82.6836C38.4453 83.0508 37.3047 83.2344 35.9688 83.2344C35.6328 83.2344 35.2422 83.2148 34.7969 83.1758C34.3594 83.1445 34 83.0977 33.7188 83.0352V80.7383C34.0156 80.8242 34.3477 80.8945 34.7148 80.9492C35.0898 80.9961 35.4609 81.0195 35.8281 81.0195C37.2734 81.0195 38.3984 80.75 39.2031 80.2109C40.0156 79.6719 40.5898 78.9297 40.9258 77.9844C41.2695 77.0391 41.4648 75.9648 41.5117 74.7617H41.3711C41.1445 75.1367 40.8594 75.4805 40.5156 75.793C40.1719 76.0977 39.7461 76.3438 39.2383 76.5312C38.7305 76.7109 38.1133 76.8008 37.3867 76.8008C36.4023 76.8008 35.543 76.5938 34.8086 76.1797C34.082 75.7656 33.5156 75.1641 33.1094 74.375C32.7109 73.5781 32.5117 72.6211 32.5117 71.5039C32.5117 70.293 32.7422 69.25 33.2031 68.375C33.6641 67.5 34.3164 66.8281 35.1602 66.3594C36.0039 65.8828 36.9961 65.6445 38.1367 65.6445C38.9961 65.6445 39.7891 65.8008 40.5156 66.1133C41.25 66.418 41.8906 66.8867 42.4375 67.5195C42.9844 68.1445 43.4102 68.9297 43.7148 69.875C44.0195 70.8125 44.1719 71.9102 44.1719 73.168ZM38.1719 67.918C37.3047 67.918 36.5977 68.2109 36.0508 68.7969C35.5039 69.375 35.2305 70.2656 35.2305 71.4688C35.2305 72.4453 35.4648 73.2188 35.9336 73.7891C36.4023 74.3594 37.1211 74.6445 38.0898 74.6445C38.7617 74.6445 39.3398 74.5078 39.8242 74.2344C40.3164 73.9531 40.6953 73.5977 40.9609 73.168C41.2344 72.7383 41.3711 72.3008 41.3711 71.8555C41.3711 71.3945 41.3047 70.9336 41.1719 70.4727C41.0469 70.0117 40.8516 69.5898 40.5859 69.207C40.3203 68.8242 39.9844 68.5156 39.5781 68.2812C39.1797 68.0391 38.7109 67.918 38.1719 67.918ZM61.4102 74.2695C61.4102 76.1992 61.0508 77.8125 60.332 79.1094C59.6133 80.3984 58.5703 81.3711 57.2031 82.0273C55.8359 82.6758 54.1875 83 52.2578 83H47.5V65.8672H52.7734C54.5469 65.8672 56.0781 66.1875 57.3672 66.8281C58.6562 67.4609 59.6523 68.4023 60.3555 69.6523C61.0586 70.8945 61.4102 72.4336 61.4102 74.2695ZM58.4805 74.3516C58.4805 72.9453 58.2578 71.7891 57.8125 70.8828C57.375 69.9766 56.7266 69.3047 55.8672 68.8672C55.0156 68.4219 53.9648 68.1992 52.7148 68.1992H50.3125V80.6445H52.3047C54.375 80.6445 55.9219 80.1172 56.9453 79.0625C57.9688 78.0078 58.4805 76.4375 58.4805 74.3516ZM65.1016 65.8672H70.1992C72.4102 65.8672 74.0781 66.1875 75.2031 66.8281C76.3281 67.4688 76.8906 68.5742 76.8906 70.1445C76.8906 70.8008 76.7734 71.3945 76.5391 71.9258C76.3125 72.4492 75.9805 72.8828 75.543 73.2266C75.1055 73.5625 74.5664 73.7891 73.9258 73.9062V74.0234C74.5898 74.1406 75.1797 74.3477 75.6953 74.6445C76.2188 74.9414 76.6289 75.3672 76.9258 75.9219C77.2305 76.4766 77.3828 77.1953 77.3828 78.0781C77.3828 79.125 77.1328 80.0156 76.6328 80.75C76.1406 81.4844 75.4336 82.043 74.5117 82.4258C73.5977 82.8086 72.5117 83 71.2539 83H65.1016V65.8672ZM67.9141 72.9336H70.6094C71.8828 72.9336 72.7656 72.7266 73.2578 72.3125C73.75 71.8984 73.9961 71.293 73.9961 70.4961C73.9961 69.6836 73.7031 69.0977 73.1172 68.7383C72.5391 68.3789 71.6172 68.1992 70.3516 68.1992H67.9141V72.9336ZM67.9141 75.207V80.6445H70.8789C72.1914 80.6445 73.1133 80.3906 73.6445 79.8828C74.1758 79.375 74.4414 78.6875 74.4414 77.8203C74.4414 77.2891 74.3203 76.8281 74.0781 76.4375C73.8438 76.0469 73.457 75.7461 72.918 75.5352C72.3789 75.3164 71.6523 75.207 70.7383 75.207H67.9141ZM85.5742 72.2891C86.6758 72.2891 87.6445 72.4883 88.4805 72.8867C89.3242 73.2773 89.9805 73.8555 90.4492 74.6211C90.918 75.3789 91.1523 76.3086 91.1523 77.4102C91.1523 78.6133 90.8984 79.6523 90.3906 80.5273C89.8828 81.3945 89.1367 82.0625 88.1523 82.5312C87.168 83 85.9688 83.2344 84.5547 83.2344C83.6562 83.2344 82.8164 83.1562 82.0352 83C81.2617 82.8438 80.5938 82.6094 80.0312 82.2969V79.8125C80.6172 80.1406 81.3203 80.4102 82.1406 80.6211C82.9609 80.8242 83.7461 80.9258 84.4961 80.9258C85.293 80.9258 85.9766 80.8086 86.5469 80.5742C87.1172 80.3398 87.5547 79.9805 87.8594 79.4961C88.1719 79.0117 88.3281 78.3984 88.3281 77.6562C88.3281 76.6719 88.0117 75.9141 87.3789 75.3828C86.7539 74.8438 85.7734 74.5742 84.4375 74.5742C83.9688 74.5742 83.4688 74.6172 82.9375 74.7031C82.4141 74.7812 81.9766 74.8672 81.625 74.9609L80.418 74.2461L81.0625 65.8672H89.9688V68.293H83.4883L83.1133 72.5586C83.3945 72.4961 83.7305 72.4375 84.1211 72.3828C84.5117 72.3203 84.9961 72.2891 85.5742 72.2891ZM97.4453 83H94.6562V65.8672H104.336V68.2344H97.4453V73.5781H103.891V75.9336H97.4453V83ZM117.156 83H107.453V65.8672H117.156V68.2344H110.266V72.8867H116.723V75.2422H110.266V80.6211H117.156V83Z" fill="white"/>
</svg>
