<svg width="685" height="126" viewBox="0 0 685 126" fill="none" xmlns="http://www.w3.org/2000/svg">
<rect width="685" height="126" rx="8" fill="#BDCDFE"/>
<path d="M18.25 21.8672H23.3477C25.5586 21.8672 27.2266 22.1875 28.3516 22.8281C29.4766 23.4688 30.0391 24.5742 30.0391 26.1445C30.0391 26.8008 29.9219 27.3945 29.6875 27.9258C29.4609 28.4492 29.1289 28.8828 28.6914 29.2266C28.2539 29.5625 27.7148 29.7891 27.0742 29.9062V30.0234C27.7383 30.1406 28.3281 30.3477 28.8438 30.6445C29.3672 30.9414 29.7773 31.3672 30.0742 31.9219C30.3789 32.4766 30.5312 33.1953 30.5312 34.0781C30.5312 35.125 30.2812 36.0156 29.7812 36.75C29.2891 37.4844 28.582 38.043 27.6602 38.4258C26.7461 38.8086 25.6602 39 24.4023 39H18.25V21.8672ZM21.0625 28.9336H23.7578C25.0312 28.9336 25.9141 28.7266 26.4062 28.3125C26.8984 27.8984 27.1445 27.293 27.1445 26.4961C27.1445 25.6836 26.8516 25.0977 26.2656 24.7383C25.6875 24.3789 24.7656 24.1992 23.5 24.1992H21.0625V28.9336ZM21.0625 31.207V36.6445H24.0273C25.3398 36.6445 26.2617 36.3906 26.793 35.8828C27.3242 35.375 27.5898 34.6875 27.5898 33.8203C27.5898 33.2891 27.4688 32.8281 27.2266 32.4375C26.9922 32.0469 26.6055 31.7461 26.0664 31.5352C25.5273 31.3164 24.8008 31.207 23.8867 31.207H21.0625ZM36.5547 39H33.7891V20.7656H36.5547V39ZM51.8008 26.0273V39H49.6328L49.2578 37.2539H49.1055C48.832 37.6992 48.4844 38.0703 48.0625 38.3672C47.6406 38.6562 47.1719 38.8711 46.6562 39.0117C46.1406 39.1602 45.5977 39.2344 45.0273 39.2344C44.0508 39.2344 43.2148 39.0703 42.5195 38.7422C41.832 38.4062 41.3047 37.8906 40.9375 37.1953C40.5703 36.5 40.3867 35.6016 40.3867 34.5V26.0273H43.1523V33.9844C43.1523 34.9922 43.3555 35.7461 43.7617 36.2461C44.1758 36.7461 44.8164 36.9961 45.6836 36.9961C46.5195 36.9961 47.1836 36.8242 47.6758 36.4805C48.168 36.1367 48.5156 35.6289 48.7188 34.957C48.9297 34.2852 49.0352 33.4609 49.0352 32.4844V26.0273H51.8008ZM60.918 25.7812C62.0742 25.7812 63.0664 26.0195 63.8945 26.4961C64.7227 26.9727 65.3594 27.6484 65.8047 28.5234C66.25 29.3984 66.4727 30.4453 66.4727 31.6641V33.1406H57.8125C57.8438 34.3984 58.1797 35.3672 58.8203 36.0469C59.4688 36.7266 60.375 37.0664 61.5391 37.0664C62.3672 37.0664 63.1094 36.9883 63.7656 36.832C64.4297 36.668 65.1133 36.4297 65.8164 36.1172V38.3555C65.168 38.6602 64.5078 38.8828 63.8359 39.0234C63.1641 39.1641 62.3594 39.2344 61.4219 39.2344C60.1484 39.2344 59.0273 38.9883 58.0586 38.4961C57.0977 37.9961 56.3438 37.2539 55.7969 36.2695C55.2578 35.2852 54.9883 34.0625 54.9883 32.6016C54.9883 31.1484 55.2344 29.9141 55.7266 28.8984C56.2188 27.8828 56.9102 27.1094 57.8008 26.5781C58.6914 26.0469 59.7305 25.7812 60.918 25.7812ZM60.918 27.8555C60.0508 27.8555 59.3477 28.1367 58.8086 28.6992C58.2773 29.2617 57.9648 30.0859 57.8711 31.1719H63.7773C63.7695 30.5234 63.6602 29.9492 63.4492 29.4492C63.2461 28.9492 62.9336 28.5586 62.5117 28.2773C62.0977 27.9961 61.5664 27.8555 60.918 27.8555ZM74.6875 33.7266V31.3945H80.7344V33.7266H74.6875ZM96.0039 39H93.1797V24.2578H88.1641V21.8672H101.008V24.2578H96.0039V39ZM106.105 26.0273V39H103.352V26.0273H106.105ZM104.746 21.0586C105.168 21.0586 105.531 21.1719 105.836 21.3984C106.148 21.625 106.305 22.0156 106.305 22.5703C106.305 23.1172 106.148 23.5078 105.836 23.7422C105.531 23.9688 105.168 24.082 104.746 24.082C104.309 24.082 103.938 23.9688 103.633 23.7422C103.336 23.5078 103.188 23.1172 103.188 22.5703C103.188 22.0156 103.336 21.625 103.633 21.3984C103.938 21.1719 104.309 21.0586 104.746 21.0586ZM116.816 25.7812C118.277 25.7812 119.414 26.1602 120.227 26.918C121.047 27.668 121.457 28.875 121.457 30.5391V39H118.703V31.0547C118.703 30.0469 118.496 29.293 118.082 28.793C117.668 28.2852 117.027 28.0312 116.16 28.0312C114.902 28.0312 114.027 28.418 113.535 29.1914C113.051 29.9648 112.809 31.0859 112.809 32.5547V39H110.055V26.0273H112.199L112.586 27.7852H112.738C113.02 27.332 113.367 26.9609 113.781 26.6719C114.203 26.375 114.672 26.1523 115.188 26.0039C115.711 25.8555 116.254 25.7812 116.816 25.7812ZM130.141 37.0078C130.5 37.0078 130.855 36.9766 131.207 36.9141C131.559 36.8438 131.879 36.7617 132.168 36.668V38.7539C131.863 38.8867 131.469 39 130.984 39.0938C130.5 39.1875 129.996 39.2344 129.473 39.2344C128.738 39.2344 128.078 39.1133 127.492 38.8711C126.906 38.6211 126.441 38.1953 126.098 37.5938C125.754 36.9922 125.582 36.1602 125.582 35.0977V28.125H123.812V26.8945L125.711 25.9219L126.613 23.1445H128.348V26.0273H132.062V28.125H128.348V35.0625C128.348 35.7188 128.512 36.207 128.84 36.5273C129.168 36.8477 129.602 37.0078 130.141 37.0078ZM148.246 39H145.48V27.9727C145.48 27.6055 145.484 27.2383 145.492 26.8711C145.5 26.5039 145.508 26.1445 145.516 25.793C145.531 25.4414 145.551 25.1055 145.574 24.7852C145.41 24.9648 145.207 25.1602 144.965 25.3711C144.73 25.582 144.48 25.8008 144.215 26.0273L142.246 27.5977L140.863 25.8516L145.949 21.8672H148.246V39ZM165.484 30.4219C165.484 31.8047 165.375 33.043 165.156 34.1367C164.945 35.2227 164.609 36.1445 164.148 36.9023C163.688 37.6602 163.086 38.2383 162.344 38.6367C161.602 39.0352 160.703 39.2344 159.648 39.2344C158.328 39.2344 157.238 38.8867 156.379 38.1914C155.52 37.4883 154.883 36.4805 154.469 35.168C154.055 33.8477 153.848 32.2656 153.848 30.4219C153.848 28.5781 154.035 27 154.41 25.6875C154.793 24.3672 155.41 23.3555 156.262 22.6523C157.113 21.9492 158.242 21.5977 159.648 21.5977C160.977 21.5977 162.07 21.9492 162.93 22.6523C163.797 23.3477 164.438 24.3555 164.852 25.6758C165.273 26.9883 165.484 28.5703 165.484 30.4219ZM156.625 30.4219C156.625 31.8672 156.719 33.0742 156.906 34.043C157.102 35.0117 157.422 35.7383 157.867 36.2227C158.312 36.6992 158.906 36.9375 159.648 36.9375C160.391 36.9375 160.984 36.6992 161.43 36.2227C161.875 35.7461 162.195 35.0234 162.391 34.0547C162.594 33.0859 162.695 31.875 162.695 30.4219C162.695 28.9844 162.598 27.7812 162.402 26.8125C162.207 25.8438 161.887 25.1172 161.441 24.6328C160.996 24.1406 160.398 23.8945 159.648 23.8945C158.898 23.8945 158.301 24.1406 157.855 24.6328C157.418 25.1172 157.102 25.8438 156.906 26.8125C156.719 27.7812 156.625 28.9844 156.625 30.4219ZM179.219 30.4219C179.219 31.8047 179.109 33.043 178.891 34.1367C178.68 35.2227 178.344 36.1445 177.883 36.9023C177.422 37.6602 176.82 38.2383 176.078 38.6367C175.336 39.0352 174.438 39.2344 173.383 39.2344C172.062 39.2344 170.973 38.8867 170.113 38.1914C169.254 37.4883 168.617 36.4805 168.203 35.168C167.789 33.8477 167.582 32.2656 167.582 30.4219C167.582 28.5781 167.77 27 168.145 25.6875C168.527 24.3672 169.145 23.3555 169.996 22.6523C170.848 21.9492 171.977 21.5977 173.383 21.5977C174.711 21.5977 175.805 21.9492 176.664 22.6523C177.531 23.3477 178.172 24.3555 178.586 25.6758C179.008 26.9883 179.219 28.5703 179.219 30.4219ZM170.359 30.4219C170.359 31.8672 170.453 33.0742 170.641 34.043C170.836 35.0117 171.156 35.7383 171.602 36.2227C172.047 36.6992 172.641 36.9375 173.383 36.9375C174.125 36.9375 174.719 36.6992 175.164 36.2227C175.609 35.7461 175.93 35.0234 176.125 34.0547C176.328 33.0859 176.43 31.875 176.43 30.4219C176.43 28.9844 176.332 27.7812 176.137 26.8125C175.941 25.8438 175.621 25.1172 175.176 24.6328C174.73 24.1406 174.133 23.8945 173.383 23.8945C172.633 23.8945 172.035 24.1406 171.59 24.6328C171.152 25.1172 170.836 25.8438 170.641 26.8125C170.453 27.7812 170.359 28.9844 170.359 30.4219Z" fill="white"/>
<path d="M27.6016 72.7812L26.9453 76.1328H30.1094V78.0898H26.5703L25.6211 83H23.5352L24.4961 78.0898H21.5664L20.6406 83H18.6016L19.5039 78.0898H16.5742V76.1328H19.8789L20.5469 72.7812H17.4414V70.8242H20.8984L21.8359 65.8789H23.9219L22.9844 70.8242H25.9375L26.8867 65.8789H28.9141L27.9766 70.8242H30.9297V72.7812H27.6016ZM21.9414 76.1328H24.8711L25.5391 72.7812H22.5977L21.9414 76.1328ZM33.7656 65.8672H38.8633C41.0742 65.8672 42.7422 66.1875 43.8672 66.8281C44.9922 67.4688 45.5547 68.5742 45.5547 70.1445C45.5547 70.8008 45.4375 71.3945 45.2031 71.9258C44.9766 72.4492 44.6445 72.8828 44.207 73.2266C43.7695 73.5625 43.2305 73.7891 42.5898 73.9062V74.0234C43.2539 74.1406 43.8438 74.3477 44.3594 74.6445C44.8828 74.9414 45.293 75.3672 45.5898 75.9219C45.8945 76.4766 46.0469 77.1953 46.0469 78.0781C46.0469 79.125 45.7969 80.0156 45.2969 80.75C44.8047 81.4844 44.0977 82.043 43.1758 82.4258C42.2617 82.8086 41.1758 83 39.918 83H33.7656V65.8672ZM36.5781 72.9336H39.2734C40.5469 72.9336 41.4297 72.7266 41.9219 72.3125C42.4141 71.8984 42.6602 71.293 42.6602 70.4961C42.6602 69.6836 42.3672 69.0977 41.7812 68.7383C41.2031 68.3789 40.2812 68.1992 39.0156 68.1992H36.5781V72.9336ZM36.5781 75.207V80.6445H39.543C40.8555 80.6445 41.7773 80.3906 42.3086 79.8828C42.8398 79.375 43.1055 78.6875 43.1055 77.8203C43.1055 77.2891 42.9844 76.8281 42.7422 76.4375C42.5078 76.0469 42.1211 75.7461 41.582 75.5352C41.043 75.3164 40.3164 75.207 39.4023 75.207H36.5781ZM63.4961 74.2695C63.4961 76.1992 63.1367 77.8125 62.418 79.1094C61.6992 80.3984 60.6562 81.3711 59.2891 82.0273C57.9219 82.6758 56.2734 83 54.3438 83H49.5859V65.8672H54.8594C56.6328 65.8672 58.1641 66.1875 59.4531 66.8281C60.7422 67.4609 61.7383 68.4023 62.4414 69.6523C63.1445 70.8945 63.4961 72.4336 63.4961 74.2695ZM60.5664 74.3516C60.5664 72.9453 60.3438 71.7891 59.8984 70.8828C59.4609 69.9766 58.8125 69.3047 57.9531 68.8672C57.1016 68.4219 56.0508 68.1992 54.8008 68.1992H52.3984V80.6445H54.3906C56.4609 80.6445 58.0078 80.1172 59.0312 79.0625C60.0547 78.0078 60.5664 76.4375 60.5664 74.3516ZM74.4883 68.0117C73.668 68.0117 72.9336 68.1602 72.2852 68.457C71.6445 68.7539 71.1016 69.1836 70.6562 69.7461C70.2109 70.3008 69.8711 70.9766 69.6367 71.7734C69.4023 72.5625 69.2852 73.4531 69.2852 74.4453C69.2852 75.7734 69.4727 76.918 69.8477 77.8789C70.2227 78.832 70.793 79.5664 71.5586 80.082C72.3242 80.5898 73.293 80.8438 74.4648 80.8438C75.1914 80.8438 75.8984 80.7734 76.5859 80.6328C77.2734 80.4922 77.9844 80.3008 78.7188 80.0586V82.4492C78.0234 82.7227 77.3203 82.9219 76.6094 83.0469C75.8984 83.1719 75.0781 83.2344 74.1484 83.2344C72.3984 83.2344 70.9453 82.8711 69.7891 82.1445C68.6406 81.418 67.7812 80.3945 67.2109 79.0742C66.6484 77.7539 66.3672 76.207 66.3672 74.4336C66.3672 73.1367 66.5469 71.9492 66.9062 70.8711C67.2656 69.793 67.7891 68.8633 68.4766 68.082C69.1641 67.293 70.0117 66.6875 71.0195 66.2656C72.0352 65.8359 73.1953 65.6211 74.5 65.6211C75.3594 65.6211 76.2031 65.7188 77.0312 65.9141C77.8672 66.1016 78.6406 66.3711 79.3516 66.7227L78.3672 69.043C77.7734 68.7617 77.1523 68.5195 76.5039 68.3164C75.8555 68.1133 75.1836 68.0117 74.4883 68.0117ZM96.3086 74.2695C96.3086 76.1992 95.9492 77.8125 95.2305 79.1094C94.5117 80.3984 93.4688 81.3711 92.1016 82.0273C90.7344 82.6758 89.0859 83 87.1562 83H82.3984V65.8672H87.6719C89.4453 65.8672 90.9766 66.1875 92.2656 66.8281C93.5547 67.4609 94.5508 68.4023 95.2539 69.6523C95.957 70.8945 96.3086 72.4336 96.3086 74.2695ZM93.3789 74.3516C93.3789 72.9453 93.1562 71.7891 92.7109 70.8828C92.2734 69.9766 91.625 69.3047 90.7656 68.8672C89.9141 68.4219 88.8633 68.1992 87.6133 68.1992H85.2109V80.6445H87.2031C89.2734 80.6445 90.8203 80.1172 91.8438 79.0625C92.8672 78.0078 93.3789 76.4375 93.3789 74.3516ZM102.789 83H100V65.8672H109.68V68.2344H102.789V73.5781H109.234V75.9336H102.789V83ZM122.5 83H112.797V65.8672H122.5V68.2344H115.609V72.8867H122.066V75.2422H115.609V80.6211H122.5V83Z" fill="white"/>
</svg>
