<svg width="686" height="127" viewBox="0 0 686 127" fill="none" xmlns="http://www.w3.org/2000/svg">
<rect y="0.543457" width="686" height="126" rx="8" fill="#FFCDB3"/>
<path d="M33.4609 41.9536C33.4609 43.2739 33.293 44.4771 32.957 45.563C32.6289 46.6411 32.1328 47.5708 31.4688 48.3521C30.8047 49.1255 29.9727 49.7231 28.9727 50.145C27.9727 50.5669 26.8008 50.7778 25.457 50.7778C24.0898 50.7778 22.9023 50.5669 21.8945 50.145C20.8945 49.7231 20.0625 49.1216 19.3984 48.3403C18.7422 47.5591 18.25 46.6255 17.9219 45.5396C17.5938 44.4536 17.4297 43.2505 17.4297 41.9302C17.4297 40.1646 17.7188 38.6255 18.2969 37.313C18.8828 35.9927 19.7695 34.9692 20.957 34.2427C22.1523 33.5083 23.6602 33.1411 25.4805 33.1411C27.2617 33.1411 28.7422 33.5044 29.9219 34.231C31.1016 34.9575 31.9844 35.981 32.5703 37.3013C33.1641 38.6138 33.4609 40.1646 33.4609 41.9536ZM20.3828 41.9536C20.3828 43.2739 20.5625 44.4185 20.9219 45.3872C21.2812 46.3481 21.832 47.0903 22.5742 47.6138C23.3242 48.1294 24.2852 48.3872 25.457 48.3872C26.6367 48.3872 27.5977 48.1294 28.3398 47.6138C29.082 47.0903 29.6289 46.3481 29.9805 45.3872C30.332 44.4185 30.5078 43.2739 30.5078 41.9536C30.5078 39.9458 30.1055 38.3755 29.3008 37.2427C28.5039 36.1021 27.2305 35.5317 25.4805 35.5317C24.3086 35.5317 23.3438 35.7896 22.5859 36.3052C21.8359 36.8208 21.2812 37.5591 20.9219 38.52C20.5625 39.4731 20.3828 40.6177 20.3828 41.9536ZM43.4336 37.3247C43.6523 37.3247 43.8906 37.3364 44.1484 37.3599C44.4062 37.3833 44.6289 37.4146 44.8164 37.4536L44.5586 40.0317C44.3945 39.9849 44.1914 39.9497 43.9492 39.9263C43.7148 39.9028 43.5039 39.8911 43.3164 39.8911C42.8242 39.8911 42.3555 39.9731 41.9102 40.1372C41.4648 40.2935 41.0703 40.5356 40.7266 40.8638C40.3828 41.1841 40.1133 41.5864 39.918 42.0708C39.7227 42.5552 39.625 43.1177 39.625 43.7583V50.5435H36.8594V37.5708H39.0156L39.3906 39.856H39.5195C39.7773 39.395 40.0977 38.9731 40.4805 38.5903C40.8633 38.2075 41.3008 37.9028 41.793 37.6763C42.293 37.4419 42.8398 37.3247 43.4336 37.3247ZM52.3047 37.3247C53.9453 37.3247 55.1836 37.688 56.0195 38.4146C56.8633 39.1411 57.2852 40.2739 57.2852 41.813V50.5435H55.3281L54.8008 48.7036H54.707C54.3398 49.1724 53.9609 49.5591 53.5703 49.8638C53.1797 50.1685 52.7266 50.395 52.2109 50.5435C51.7031 50.6997 51.082 50.7778 50.3477 50.7778C49.5742 50.7778 48.8828 50.6372 48.2734 50.356C47.6641 50.0669 47.1836 49.6294 46.832 49.0435C46.4805 48.4575 46.3047 47.7153 46.3047 46.8169C46.3047 45.481 46.8008 44.4771 47.793 43.8052C48.793 43.1333 50.3008 42.7622 52.3164 42.6919L54.5664 42.6099V41.9302C54.5664 41.0317 54.3555 40.3911 53.9336 40.0083C53.5195 39.6255 52.9336 39.4341 52.1758 39.4341C51.5273 39.4341 50.8984 39.5278 50.2891 39.7153C49.6797 39.9028 49.0859 40.1333 48.5078 40.4067L47.6172 38.4614C48.25 38.1255 48.9688 37.8521 49.7734 37.6411C50.5859 37.4302 51.4297 37.3247 52.3047 37.3247ZM54.5547 44.3442L52.8789 44.4028C51.5039 44.4497 50.5391 44.6841 49.9844 45.106C49.4297 45.5278 49.1523 46.106 49.1523 46.8403C49.1523 47.481 49.3438 47.9497 49.7266 48.2466C50.1094 48.5356 50.6133 48.6802 51.2383 48.6802C52.1914 48.6802 52.9805 48.4106 53.6055 47.8716C54.2383 47.3247 54.5547 46.5239 54.5547 45.4692V44.3442ZM67.9023 37.3247C69.3633 37.3247 70.5 37.7036 71.3125 38.4614C72.1328 39.2114 72.543 40.4185 72.543 42.0825V50.5435H69.7891V42.5981C69.7891 41.5903 69.582 40.8364 69.168 40.3364C68.7539 39.8286 68.1133 39.5747 67.2461 39.5747C65.9883 39.5747 65.1133 39.9614 64.6211 40.7349C64.1367 41.5083 63.8945 42.6294 63.8945 44.0981V50.5435H61.1406V37.5708H63.2852L63.6719 39.3286H63.8242C64.1055 38.8755 64.4531 38.5044 64.8672 38.2153C65.2891 37.9185 65.7578 37.6958 66.2734 37.5474C66.7969 37.3989 67.3398 37.3247 67.9023 37.3247ZM80.1016 56.3091C78.3438 56.3091 76.9961 55.9927 76.0586 55.3599C75.1211 54.7271 74.6523 53.8403 74.6523 52.6997C74.6523 51.9028 74.9023 51.2271 75.4023 50.6724C75.9023 50.1255 76.6172 49.7466 77.5469 49.5356C77.1953 49.3794 76.8906 49.1372 76.6328 48.8091C76.3828 48.4731 76.2578 48.1021 76.2578 47.6958C76.2578 47.2114 76.3945 46.7974 76.668 46.4536C76.9414 46.1099 77.3516 45.7778 77.8984 45.4575C77.2188 45.1685 76.6719 44.6997 76.2578 44.0513C75.8516 43.395 75.6484 42.6255 75.6484 41.7427C75.6484 40.8052 75.8477 40.0083 76.2461 39.3521C76.6445 38.688 77.2266 38.1841 77.9922 37.8403C78.7578 37.4888 79.6836 37.313 80.7695 37.313C81.0039 37.313 81.2578 37.3286 81.5312 37.3599C81.8125 37.3833 82.0703 37.4146 82.3047 37.4536C82.5469 37.4849 82.7305 37.52 82.8555 37.5591H87.3438V39.0942L85.1406 39.5044C85.3516 39.8013 85.5195 40.1411 85.6445 40.5239C85.7695 40.8989 85.832 41.3091 85.832 41.7544C85.832 43.0981 85.3672 44.1567 84.4375 44.9302C83.5156 45.6958 82.2422 46.0786 80.6172 46.0786C80.2266 46.063 79.8477 46.0317 79.4805 45.9849C79.1992 46.1567 78.9844 46.3481 78.8359 46.5591C78.6875 46.7622 78.6133 46.9927 78.6133 47.2505C78.6133 47.4614 78.6875 47.6333 78.8359 47.7661C78.9844 47.8911 79.2031 47.9849 79.4922 48.0474C79.7891 48.1099 80.1484 48.1411 80.5703 48.1411H82.8086C84.2305 48.1411 85.3164 48.4419 86.0664 49.0435C86.8164 49.645 87.1914 50.5278 87.1914 51.6919C87.1914 53.1685 86.582 54.3052 85.3633 55.1021C84.1445 55.9067 82.3906 56.3091 80.1016 56.3091ZM80.207 54.3755C81.168 54.3755 81.9766 54.2817 82.6328 54.0942C83.2891 53.9067 83.7852 53.6372 84.1211 53.2856C84.457 52.9419 84.625 52.5317 84.625 52.0552C84.625 51.6333 84.5195 51.3091 84.3086 51.0825C84.0977 50.856 83.7812 50.6997 83.3594 50.6138C82.9375 50.5278 82.4141 50.4849 81.7891 50.4849H79.75C79.2422 50.4849 78.793 50.563 78.4023 50.7192C78.0117 50.8833 77.707 51.1177 77.4883 51.4224C77.2773 51.7271 77.1719 52.0942 77.1719 52.5239C77.1719 53.1177 77.4336 53.5747 77.957 53.895C78.4883 54.2153 79.2383 54.3755 80.207 54.3755ZM80.7461 44.2739C81.5508 44.2739 82.1484 44.0552 82.5391 43.6177C82.9297 43.1724 83.125 42.5474 83.125 41.7427C83.125 40.8677 82.9219 40.2114 82.5156 39.7739C82.1172 39.3364 81.5234 39.1177 80.7344 39.1177C79.9609 39.1177 79.3711 39.3403 78.9648 39.7856C78.5664 40.231 78.3672 40.8911 78.3672 41.7661C78.3672 42.5552 78.5664 43.1724 78.9648 43.6177C79.3711 44.0552 79.9648 44.2739 80.7461 44.2739ZM94.8789 37.3247C96.0352 37.3247 97.0273 37.563 97.8555 38.0396C98.6836 38.5161 99.3203 39.1919 99.7656 40.0669C100.211 40.9419 100.434 41.9888 100.434 43.2075V44.6841H91.7734C91.8047 45.9419 92.1406 46.9106 92.7812 47.5903C93.4297 48.27 94.3359 48.6099 95.5 48.6099C96.3281 48.6099 97.0703 48.5317 97.7266 48.3755C98.3906 48.2114 99.0742 47.9731 99.7773 47.6606V49.8989C99.1289 50.2036 98.4688 50.4263 97.7969 50.5669C97.125 50.7075 96.3203 50.7778 95.3828 50.7778C94.1094 50.7778 92.9883 50.5317 92.0195 50.0396C91.0586 49.5396 90.3047 48.7974 89.7578 47.813C89.2188 46.8286 88.9492 45.606 88.9492 44.145C88.9492 42.6919 89.1953 41.4575 89.6875 40.4419C90.1797 39.4263 90.8711 38.6528 91.7617 38.1216C92.6523 37.5903 93.6914 37.3247 94.8789 37.3247ZM94.8789 39.3989C94.0117 39.3989 93.3086 39.6802 92.7695 40.2427C92.2383 40.8052 91.9258 41.6294 91.832 42.7153H97.7383C97.7305 42.0669 97.6211 41.4927 97.4102 40.9927C97.207 40.4927 96.8945 40.1021 96.4727 39.8208C96.0586 39.5396 95.5273 39.3989 94.8789 39.3989ZM108.648 45.27V42.938H114.695V45.27H108.648ZM129.965 50.5435H127.141V35.8013H122.125V33.4106H134.969V35.8013H129.965V50.5435ZM140.066 37.5708V50.5435H137.312V37.5708H140.066ZM138.707 32.6021C139.129 32.6021 139.492 32.7153 139.797 32.9419C140.109 33.1685 140.266 33.5591 140.266 34.1138C140.266 34.6606 140.109 35.0513 139.797 35.2856C139.492 35.5122 139.129 35.6255 138.707 35.6255C138.27 35.6255 137.898 35.5122 137.594 35.2856C137.297 35.0513 137.148 34.6606 137.148 34.1138C137.148 33.5591 137.297 33.1685 137.594 32.9419C137.898 32.7153 138.27 32.6021 138.707 32.6021ZM150.777 37.3247C152.238 37.3247 153.375 37.7036 154.188 38.4614C155.008 39.2114 155.418 40.4185 155.418 42.0825V50.5435H152.664V42.5981C152.664 41.5903 152.457 40.8364 152.043 40.3364C151.629 39.8286 150.988 39.5747 150.121 39.5747C148.863 39.5747 147.988 39.9614 147.496 40.7349C147.012 41.5083 146.77 42.6294 146.77 44.0981V50.5435H144.016V37.5708H146.16L146.547 39.3286H146.699C146.98 38.8755 147.328 38.5044 147.742 38.2153C148.164 37.9185 148.633 37.6958 149.148 37.5474C149.672 37.3989 150.215 37.3247 150.777 37.3247ZM164.102 48.5513C164.461 48.5513 164.816 48.52 165.168 48.4575C165.52 48.3872 165.84 48.3052 166.129 48.2114V50.2974C165.824 50.4302 165.43 50.5435 164.945 50.6372C164.461 50.731 163.957 50.7778 163.434 50.7778C162.699 50.7778 162.039 50.6567 161.453 50.4146C160.867 50.1646 160.402 49.7388 160.059 49.1372C159.715 48.5356 159.543 47.7036 159.543 46.6411V39.6685H157.773V38.438L159.672 37.4653L160.574 34.688H162.309V37.5708H166.023V39.6685H162.309V46.606C162.309 47.2622 162.473 47.7505 162.801 48.0708C163.129 48.3911 163.562 48.5513 164.102 48.5513ZM182.207 50.5435H179.441V39.5161C179.441 39.1489 179.445 38.7817 179.453 38.4146C179.461 38.0474 179.469 37.688 179.477 37.3364C179.492 36.9849 179.512 36.6489 179.535 36.3286C179.371 36.5083 179.168 36.7036 178.926 36.9146C178.691 37.1255 178.441 37.3442 178.176 37.5708L176.207 39.1411L174.824 37.395L179.91 33.4106H182.207V50.5435ZM199.445 41.9653C199.445 43.3481 199.336 44.5864 199.117 45.6802C198.906 46.7661 198.57 47.688 198.109 48.4458C197.648 49.2036 197.047 49.7817 196.305 50.1802C195.562 50.5786 194.664 50.7778 193.609 50.7778C192.289 50.7778 191.199 50.4302 190.34 49.7349C189.48 49.0317 188.844 48.0239 188.43 46.7114C188.016 45.3911 187.809 43.8091 187.809 41.9653C187.809 40.1216 187.996 38.5435 188.371 37.231C188.754 35.9106 189.371 34.8989 190.223 34.1958C191.074 33.4927 192.203 33.1411 193.609 33.1411C194.938 33.1411 196.031 33.4927 196.891 34.1958C197.758 34.8911 198.398 35.8989 198.812 37.2192C199.234 38.5317 199.445 40.1138 199.445 41.9653ZM190.586 41.9653C190.586 43.4106 190.68 44.6177 190.867 45.5864C191.062 46.5552 191.383 47.2817 191.828 47.7661C192.273 48.2427 192.867 48.481 193.609 48.481C194.352 48.481 194.945 48.2427 195.391 47.7661C195.836 47.2896 196.156 46.5669 196.352 45.5981C196.555 44.6294 196.656 43.4185 196.656 41.9653C196.656 40.5278 196.559 39.3247 196.363 38.356C196.168 37.3872 195.848 36.6606 195.402 36.1763C194.957 35.6841 194.359 35.438 193.609 35.438C192.859 35.438 192.262 35.6841 191.816 36.1763C191.379 36.6606 191.062 37.3872 190.867 38.356C190.68 39.3247 190.586 40.5278 190.586 41.9653ZM213.18 41.9653C213.18 43.3481 213.07 44.5864 212.852 45.6802C212.641 46.7661 212.305 47.688 211.844 48.4458C211.383 49.2036 210.781 49.7817 210.039 50.1802C209.297 50.5786 208.398 50.7778 207.344 50.7778C206.023 50.7778 204.934 50.4302 204.074 49.7349C203.215 49.0317 202.578 48.0239 202.164 46.7114C201.75 45.3911 201.543 43.8091 201.543 41.9653C201.543 40.1216 201.73 38.5435 202.105 37.231C202.488 35.9106 203.105 34.8989 203.957 34.1958C204.809 33.4927 205.938 33.1411 207.344 33.1411C208.672 33.1411 209.766 33.4927 210.625 34.1958C211.492 34.8911 212.133 35.8989 212.547 37.2192C212.969 38.5317 213.18 40.1138 213.18 41.9653ZM204.32 41.9653C204.32 43.4106 204.414 44.6177 204.602 45.5864C204.797 46.5552 205.117 47.2817 205.562 47.7661C206.008 48.2427 206.602 48.481 207.344 48.481C208.086 48.481 208.68 48.2427 209.125 47.7661C209.57 47.2896 209.891 46.5669 210.086 45.5981C210.289 44.6294 210.391 43.4185 210.391 41.9653C210.391 40.5278 210.293 39.3247 210.098 38.356C209.902 37.3872 209.582 36.6606 209.137 36.1763C208.691 35.6841 208.094 35.438 207.344 35.438C206.594 35.438 205.996 35.6841 205.551 36.1763C205.113 36.6606 204.797 37.3872 204.602 38.356C204.414 39.3247 204.32 40.5278 204.32 41.9653Z" fill="#141414"/>
<path d="M27.6016 84.3247L26.9453 87.6763H30.1094V89.6333H26.5703L25.6211 94.5435H23.5352L24.4961 89.6333H21.5664L20.6406 94.5435H18.6016L19.5039 89.6333H16.5742V87.6763H19.8789L20.5469 84.3247H17.4414V82.3677H20.8984L21.8359 77.4224H23.9219L22.9844 82.3677H25.9375L26.8867 77.4224H28.9141L27.9766 82.3677H30.9297V84.3247H27.6016ZM21.9414 87.6763H24.8711L25.5391 84.3247H22.5977L21.9414 87.6763ZM36.5547 94.5435H33.7656V77.4106H43.4453V79.7778H36.5547V85.1216H43V87.4771H36.5547V94.5435ZM49.3516 94.5435H46.5625V77.4106H56.2422V79.7778H49.3516V85.1216H55.7969V87.4771H49.3516V94.5435ZM66.6602 79.5552C65.8398 79.5552 65.1055 79.7036 64.457 80.0005C63.8164 80.2974 63.2734 80.7271 62.8281 81.2896C62.3828 81.8442 62.043 82.52 61.8086 83.3169C61.5742 84.106 61.457 84.9966 61.457 85.9888C61.457 87.3169 61.6445 88.4614 62.0195 89.4224C62.3945 90.3755 62.9648 91.1099 63.7305 91.6255C64.4961 92.1333 65.4648 92.3872 66.6367 92.3872C67.3633 92.3872 68.0703 92.3169 68.7578 92.1763C69.4453 92.0356 70.1562 91.8442 70.8906 91.6021V93.9927C70.1953 94.2661 69.4922 94.4653 68.7812 94.5903C68.0703 94.7153 67.25 94.7778 66.3203 94.7778C64.5703 94.7778 63.1172 94.4146 61.9609 93.688C60.8125 92.9614 59.9531 91.938 59.3828 90.6177C58.8203 89.2974 58.5391 87.7505 58.5391 85.9771C58.5391 84.6802 58.7188 83.4927 59.0781 82.4146C59.4375 81.3364 59.9609 80.4067 60.6484 79.6255C61.3359 78.8364 62.1836 78.231 63.1914 77.8091C64.207 77.3794 65.3672 77.1646 66.6719 77.1646C67.5312 77.1646 68.375 77.2622 69.2031 77.4575C70.0391 77.645 70.8125 77.9146 71.5234 78.2661L70.5391 80.5864C69.9453 80.3052 69.3242 80.063 68.6758 79.8599C68.0273 79.6567 67.3555 79.5552 66.6602 79.5552ZM88.4805 85.813C88.4805 87.7427 88.1211 89.356 87.4023 90.6528C86.6836 91.9419 85.6406 92.9146 84.2734 93.5708C82.9062 94.2192 81.2578 94.5435 79.3281 94.5435H74.5703V77.4106H79.8438C81.6172 77.4106 83.1484 77.731 84.4375 78.3716C85.7266 79.0044 86.7227 79.9458 87.4258 81.1958C88.1289 82.438 88.4805 83.9771 88.4805 85.813ZM85.5508 85.895C85.5508 84.4888 85.3281 83.3325 84.8828 82.4263C84.4453 81.52 83.7969 80.8481 82.9375 80.4106C82.0859 79.9653 81.0352 79.7427 79.7852 79.7427H77.3828V92.188H79.375C81.4453 92.188 82.9922 91.6606 84.0156 90.606C85.0391 89.5513 85.5508 87.981 85.5508 85.895ZM92.1719 77.4106H97.2695C99.4805 77.4106 101.148 77.731 102.273 78.3716C103.398 79.0122 103.961 80.1177 103.961 81.688C103.961 82.3442 103.844 82.938 103.609 83.4692C103.383 83.9927 103.051 84.4263 102.613 84.77C102.176 85.106 101.637 85.3325 100.996 85.4497V85.5669C101.66 85.6841 102.25 85.8911 102.766 86.188C103.289 86.4849 103.699 86.9106 103.996 87.4653C104.301 88.02 104.453 88.7388 104.453 89.6216C104.453 90.6685 104.203 91.5591 103.703 92.2935C103.211 93.0278 102.504 93.5864 101.582 93.9692C100.668 94.3521 99.582 94.5435 98.3242 94.5435H92.1719V77.4106ZM94.9844 84.4771H97.6797C98.9531 84.4771 99.8359 84.27 100.328 83.856C100.82 83.4419 101.066 82.8364 101.066 82.0396C101.066 81.2271 100.773 80.6411 100.188 80.2817C99.6094 79.9224 98.6875 79.7427 97.4219 79.7427H94.9844V84.4771ZM94.9844 86.7505V92.188H97.9492C99.2617 92.188 100.184 91.9341 100.715 91.4263C101.246 90.9185 101.512 90.231 101.512 89.3638C101.512 88.8325 101.391 88.3716 101.148 87.981C100.914 87.5903 100.527 87.2896 99.9883 87.0786C99.4492 86.8599 98.7227 86.7505 97.8086 86.7505H94.9844ZM117.766 81.3247C117.766 82.0981 117.609 82.77 117.297 83.3403C116.984 83.9106 116.555 84.3794 116.008 84.7466C115.469 85.106 114.844 85.3638 114.133 85.52V85.6021C115.5 85.7739 116.531 86.2036 117.227 86.8911C117.93 87.5786 118.281 88.4888 118.281 89.6216C118.281 90.6138 118.043 91.5005 117.566 92.2817C117.09 93.0552 116.359 93.6646 115.375 94.1099C114.391 94.5552 113.125 94.7778 111.578 94.7778C110.648 94.7778 109.785 94.7036 108.988 94.5552C108.199 94.4067 107.449 94.1685 106.738 93.8403V91.3911C107.465 91.7505 108.238 92.0278 109.059 92.2231C109.879 92.4185 110.656 92.5161 111.391 92.5161C112.82 92.5161 113.84 92.2505 114.449 91.7192C115.059 91.1802 115.363 90.438 115.363 89.4927C115.363 88.8833 115.203 88.3833 114.883 87.9927C114.57 87.6021 114.082 87.3091 113.418 87.1138C112.762 86.9185 111.914 86.8208 110.875 86.8208H109.363V84.606H110.887C111.879 84.606 112.676 84.4888 113.277 84.2544C113.879 84.0122 114.312 83.6802 114.578 83.2583C114.852 82.8364 114.988 82.3442 114.988 81.7817C114.988 81.0474 114.75 80.4771 114.273 80.0708C113.797 79.6567 113.09 79.4497 112.152 79.4497C111.574 79.4497 111.047 79.5161 110.57 79.6489C110.102 79.7817 109.668 79.9497 109.27 80.1528C108.871 80.356 108.492 80.5747 108.133 80.8091L106.809 78.8989C107.457 78.4146 108.23 78.0044 109.129 77.6685C110.027 77.3325 111.074 77.1646 112.27 77.1646C114.027 77.1646 115.383 77.5435 116.336 78.3013C117.289 79.0513 117.766 80.0591 117.766 81.3247Z" fill="#141414"/>
</svg>
