<svg width="686" height="430" viewBox="0 0 686 430" fill="none" xmlns="http://www.w3.org/2000/svg">
<rect y="0.543457" width="686" height="429" rx="8" fill="#9A41FF"/>
<path d="M23.2305 184.911C25.4414 184.911 27.0547 185.364 28.0703 186.27C29.0859 187.176 29.5938 188.446 29.5938 190.079C29.5938 190.821 29.4766 191.528 29.2422 192.2C29.0156 192.864 28.6406 193.454 28.1172 193.969C27.5938 194.477 26.9023 194.879 26.043 195.176C25.1914 195.473 24.1406 195.622 22.8906 195.622H21.0625V202.043H18.25V184.911H23.2305ZM23.043 187.243H21.0625V193.278H22.5977C23.4805 193.278 24.2305 193.176 24.8477 192.973C25.4648 192.762 25.9336 192.43 26.2539 191.977C26.5742 191.524 26.7344 190.926 26.7344 190.184C26.7344 189.192 26.4336 188.454 25.832 187.969C25.2383 187.485 24.3086 187.243 23.043 187.243ZM44.043 189.071V202.043H41.875L41.5 200.297H41.3477C41.0742 200.743 40.7266 201.114 40.3047 201.411C39.8828 201.7 39.4141 201.915 38.8984 202.055C38.3828 202.204 37.8398 202.278 37.2695 202.278C36.293 202.278 35.457 202.114 34.7617 201.786C34.0742 201.45 33.5469 200.934 33.1797 200.239C32.8125 199.543 32.6289 198.645 32.6289 197.543V189.071H35.3945V197.028C35.3945 198.036 35.5977 198.79 36.0039 199.29C36.418 199.79 37.0586 200.04 37.9258 200.04C38.7617 200.04 39.4258 199.868 39.918 199.524C40.4102 199.18 40.7578 198.672 40.9609 198C41.1719 197.329 41.2773 196.504 41.2773 195.528V189.071H44.043ZM54.5664 188.825C54.7852 188.825 55.0234 188.836 55.2812 188.86C55.5391 188.883 55.7617 188.915 55.9492 188.954L55.6914 191.532C55.5273 191.485 55.3242 191.45 55.082 191.426C54.8477 191.403 54.6367 191.391 54.4492 191.391C53.957 191.391 53.4883 191.473 53.043 191.637C52.5977 191.793 52.2031 192.036 51.8594 192.364C51.5156 192.684 51.2461 193.086 51.0508 193.571C50.8555 194.055 50.7578 194.618 50.7578 195.258V202.043H47.9922V189.071H50.1484L50.5234 191.356H50.6523C50.9102 190.895 51.2305 190.473 51.6133 190.09C51.9961 189.708 52.4336 189.403 52.9258 189.176C53.4258 188.942 53.9727 188.825 54.5664 188.825ZM65.0078 188.825C66.5469 188.825 67.7812 189.387 68.7109 190.512C69.6484 191.637 70.1172 193.309 70.1172 195.528C70.1172 196.997 69.8984 198.235 69.4609 199.243C69.0312 200.243 68.4258 201 67.6445 201.516C66.8711 202.024 65.9688 202.278 64.9375 202.278C64.2812 202.278 63.7109 202.192 63.2266 202.02C62.7422 201.848 62.3281 201.625 61.9844 201.352C61.6406 201.071 61.3516 200.766 61.1172 200.438H60.9531C60.9922 200.75 61.0273 201.098 61.0586 201.481C61.0977 201.856 61.1172 202.2 61.1172 202.512V207.797H58.3516V189.071H60.6016L60.9883 190.864H61.1172C61.3594 190.497 61.6523 190.157 61.9961 189.844C62.3477 189.532 62.7695 189.286 63.2617 189.106C63.7617 188.918 64.3438 188.825 65.0078 188.825ZM64.2695 191.075C63.5117 191.075 62.9023 191.227 62.4414 191.532C61.9883 191.829 61.6562 192.278 61.4453 192.879C61.2422 193.481 61.1328 194.235 61.1172 195.141V195.528C61.1172 196.489 61.2148 197.305 61.4102 197.977C61.6133 198.641 61.9453 199.149 62.4062 199.5C62.875 199.844 63.5078 200.016 64.3047 200.016C64.9766 200.016 65.5312 199.833 65.9688 199.465C66.4141 199.098 66.7461 198.575 66.9648 197.895C67.1836 197.215 67.293 196.415 67.293 195.493C67.293 194.094 67.043 193.008 66.543 192.235C66.0508 191.461 65.293 191.075 64.2695 191.075ZM76.0703 202.043H73.3047V183.809H76.0703V202.043ZM85.1758 188.825C86.332 188.825 87.3242 189.063 88.1523 189.54C88.9805 190.016 89.6172 190.692 90.0625 191.567C90.5078 192.442 90.7305 193.489 90.7305 194.708V196.184H82.0703C82.1016 197.442 82.4375 198.411 83.0781 199.09C83.7266 199.77 84.6328 200.11 85.7969 200.11C86.625 200.11 87.3672 200.032 88.0234 199.875C88.6875 199.711 89.3711 199.473 90.0742 199.161V201.399C89.4258 201.704 88.7656 201.926 88.0938 202.067C87.4219 202.208 86.6172 202.278 85.6797 202.278C84.4062 202.278 83.2852 202.032 82.3164 201.54C81.3555 201.04 80.6016 200.297 80.0547 199.313C79.5156 198.329 79.2461 197.106 79.2461 195.645C79.2461 194.192 79.4922 192.958 79.9844 191.942C80.4766 190.926 81.168 190.153 82.0586 189.622C82.9492 189.09 83.9883 188.825 85.1758 188.825ZM85.1758 190.899C84.3086 190.899 83.6055 191.18 83.0664 191.743C82.5352 192.305 82.2227 193.129 82.1289 194.215H88.0352C88.0273 193.567 87.918 192.993 87.707 192.493C87.5039 191.993 87.1914 191.602 86.7695 191.321C86.3555 191.04 85.8242 190.899 85.1758 190.899Z" fill="#141414"/>
<path d="M27.6016 235.825L26.9453 239.176H30.1094V241.133H26.5703L25.6211 246.043H23.5352L24.4961 241.133H21.5664L20.6406 246.043H18.6016L19.5039 241.133H16.5742V239.176H19.8789L20.5469 235.825H17.4414V233.868H20.8984L21.8359 228.922H23.9219L22.9844 233.868H25.9375L26.8867 228.922H28.9141L27.9766 233.868H30.9297V235.825H27.6016ZM21.9414 239.176H24.8711L25.5391 235.825H22.5977L21.9414 239.176ZM44.1719 236.211C44.1719 237.227 44.0977 238.223 43.9492 239.2C43.8086 240.176 43.5586 241.09 43.1992 241.942C42.8477 242.793 42.3594 243.547 41.7344 244.204C41.1172 244.852 40.3359 245.36 39.3906 245.727C38.4453 246.094 37.3047 246.278 35.9688 246.278C35.6328 246.278 35.2422 246.258 34.7969 246.219C34.3594 246.188 34 246.141 33.7188 246.079V243.782C34.0156 243.868 34.3477 243.938 34.7148 243.993C35.0898 244.04 35.4609 244.063 35.8281 244.063C37.2734 244.063 38.3984 243.793 39.2031 243.254C40.0156 242.715 40.5898 241.973 40.9258 241.028C41.2695 240.083 41.4648 239.008 41.5117 237.805H41.3711C41.1445 238.18 40.8594 238.524 40.5156 238.836C40.1719 239.141 39.7461 239.387 39.2383 239.575C38.7305 239.754 38.1133 239.844 37.3867 239.844C36.4023 239.844 35.543 239.637 34.8086 239.223C34.082 238.809 33.5156 238.208 33.1094 237.418C32.7109 236.622 32.5117 235.665 32.5117 234.547C32.5117 233.336 32.7422 232.293 33.2031 231.418C33.6641 230.543 34.3164 229.872 35.1602 229.403C36.0039 228.926 36.9961 228.688 38.1367 228.688C38.9961 228.688 39.7891 228.844 40.5156 229.157C41.25 229.461 41.8906 229.93 42.4375 230.563C42.9844 231.188 43.4102 231.973 43.7148 232.918C44.0195 233.856 44.1719 234.954 44.1719 236.211ZM38.1719 230.961C37.3047 230.961 36.5977 231.254 36.0508 231.84C35.5039 232.418 35.2305 233.309 35.2305 234.512C35.2305 235.489 35.4648 236.262 35.9336 236.833C36.4023 237.403 37.1211 237.688 38.0898 237.688C38.7617 237.688 39.3398 237.551 39.8242 237.278C40.3164 236.997 40.6953 236.641 40.9609 236.211C41.2344 235.782 41.3711 235.344 41.3711 234.899C41.3711 234.438 41.3047 233.977 41.1719 233.516C41.0469 233.055 40.8516 232.633 40.5859 232.25C40.3203 231.868 39.9844 231.559 39.5781 231.325C39.1797 231.083 38.7109 230.961 38.1719 230.961ZM58.1172 246.043L56.4414 241.286H49.8906L48.2148 246.043H45.25L51.625 228.84H54.7422L61.1055 246.043H58.1172ZM55.7148 238.872L54.0859 234.184C54.0234 233.981 53.9336 233.696 53.8164 233.329C53.6992 232.954 53.582 232.575 53.4648 232.192C53.3477 231.801 53.25 231.473 53.1719 231.208C53.0938 231.528 52.9961 231.887 52.8789 232.286C52.7695 232.676 52.6602 233.043 52.5508 233.387C52.4492 233.731 52.3711 233.997 52.3164 234.184L50.6758 238.872H55.7148ZM74.418 242.282H72.0977V246.043H69.3789V242.282H61.5859V240.196L69.4141 228.864H72.0977V239.997H74.418V242.282ZM69.3789 239.997V235.743C69.3789 235.391 69.3828 235.036 69.3906 234.676C69.4062 234.309 69.4219 233.958 69.4375 233.622C69.4531 233.286 69.4688 232.977 69.4844 232.696C69.5 232.407 69.5117 232.168 69.5195 231.981H69.4258C69.2773 232.293 69.1133 232.614 68.9336 232.942C68.7539 233.262 68.5625 233.575 68.3594 233.879L64.1406 239.997H69.3789ZM84.0273 246.043H81.2617V235.016C81.2617 234.649 81.2656 234.282 81.2734 233.915C81.2812 233.547 81.2891 233.188 81.2969 232.836C81.3125 232.485 81.332 232.149 81.3555 231.829C81.1914 232.008 80.9883 232.204 80.7461 232.415C80.5117 232.625 80.2617 232.844 79.9961 233.071L78.0273 234.641L76.6445 232.895L81.7305 228.911H84.0273V246.043ZM93.625 246.043H90.8359V228.911H100.516V231.278H93.625V236.622H100.07V238.977H93.625V246.043ZM106.422 246.043H103.633V228.911H113.312V231.278H106.422V236.622H112.867V238.977H106.422V246.043Z" fill="#141414"/>
</svg>
