<svg width="686" height="127" viewBox="0 0 686 127" fill="none" xmlns="http://www.w3.org/2000/svg">
<rect y="0.543457" width="686" height="126" rx="8" fill="#E0C4FF"/>
<path d="M23.2305 33.4106C25.4414 33.4106 27.0547 33.8638 28.0703 34.77C29.0859 35.6763 29.5938 36.9458 29.5938 38.5786C29.5938 39.3208 29.4766 40.0278 29.2422 40.6997C29.0156 41.3638 28.6406 41.9536 28.1172 42.4692C27.5938 42.9771 26.9023 43.3794 26.043 43.6763C25.1914 43.9731 24.1406 44.1216 22.8906 44.1216H21.0625V50.5435H18.25V33.4106H23.2305ZM23.043 35.7427H21.0625V41.7778H22.5977C23.4805 41.7778 24.2305 41.6763 24.8477 41.4731C25.4648 41.2622 25.9336 40.9302 26.2539 40.4771C26.5742 40.0239 26.7344 39.4263 26.7344 38.6841C26.7344 37.6919 26.4336 36.9536 25.832 36.4692C25.2383 35.9849 24.3086 35.7427 23.043 35.7427ZM44.043 37.5708V50.5435H41.875L41.5 48.7974H41.3477C41.0742 49.2427 40.7266 49.6138 40.3047 49.9106C39.8828 50.1997 39.4141 50.4146 38.8984 50.5552C38.3828 50.7036 37.8398 50.7778 37.2695 50.7778C36.293 50.7778 35.457 50.6138 34.7617 50.2856C34.0742 49.9497 33.5469 49.4341 33.1797 48.7388C32.8125 48.0435 32.6289 47.145 32.6289 46.0435V37.5708H35.3945V45.5278C35.3945 46.5356 35.5977 47.2896 36.0039 47.7896C36.418 48.2896 37.0586 48.5396 37.9258 48.5396C38.7617 48.5396 39.4258 48.3677 39.918 48.0239C40.4102 47.6802 40.7578 47.1724 40.9609 46.5005C41.1719 45.8286 41.2773 45.0044 41.2773 44.0278V37.5708H44.043ZM54.5664 37.3247C54.7852 37.3247 55.0234 37.3364 55.2812 37.3599C55.5391 37.3833 55.7617 37.4146 55.9492 37.4536L55.6914 40.0317C55.5273 39.9849 55.3242 39.9497 55.082 39.9263C54.8477 39.9028 54.6367 39.8911 54.4492 39.8911C53.957 39.8911 53.4883 39.9731 53.043 40.1372C52.5977 40.2935 52.2031 40.5356 51.8594 40.8638C51.5156 41.1841 51.2461 41.5864 51.0508 42.0708C50.8555 42.5552 50.7578 43.1177 50.7578 43.7583V50.5435H47.9922V37.5708H50.1484L50.5234 39.856H50.6523C50.9102 39.395 51.2305 38.9731 51.6133 38.5903C51.9961 38.2075 52.4336 37.9028 52.9258 37.6763C53.4258 37.4419 53.9727 37.3247 54.5664 37.3247ZM65.0078 37.3247C66.5469 37.3247 67.7812 37.8872 68.7109 39.0122C69.6484 40.1372 70.1172 41.8091 70.1172 44.0278C70.1172 45.4966 69.8984 46.7349 69.4609 47.7427C69.0312 48.7427 68.4258 49.5005 67.6445 50.0161C66.8711 50.5239 65.9688 50.7778 64.9375 50.7778C64.2812 50.7778 63.7109 50.6919 63.2266 50.52C62.7422 50.3481 62.3281 50.1255 61.9844 49.8521C61.6406 49.5708 61.3516 49.2661 61.1172 48.938H60.9531C60.9922 49.2505 61.0273 49.5981 61.0586 49.981C61.0977 50.356 61.1172 50.6997 61.1172 51.0122V56.2974H58.3516V37.5708H60.6016L60.9883 39.3638H61.1172C61.3594 38.9966 61.6523 38.6567 61.9961 38.3442C62.3477 38.0317 62.7695 37.7856 63.2617 37.606C63.7617 37.4185 64.3438 37.3247 65.0078 37.3247ZM64.2695 39.5747C63.5117 39.5747 62.9023 39.7271 62.4414 40.0317C61.9883 40.3286 61.6562 40.7778 61.4453 41.3794C61.2422 41.981 61.1328 42.7349 61.1172 43.6411V44.0278C61.1172 44.9888 61.2148 45.8052 61.4102 46.4771C61.6133 47.1411 61.9453 47.6489 62.4062 48.0005C62.875 48.3442 63.5078 48.5161 64.3047 48.5161C64.9766 48.5161 65.5312 48.3325 65.9688 47.9653C66.4141 47.5981 66.7461 47.0747 66.9648 46.395C67.1836 45.7153 67.293 44.9146 67.293 43.9927C67.293 42.5942 67.043 41.5083 66.543 40.7349C66.0508 39.9614 65.293 39.5747 64.2695 39.5747ZM76.0703 50.5435H73.3047V32.3091H76.0703V50.5435ZM85.1758 37.3247C86.332 37.3247 87.3242 37.563 88.1523 38.0396C88.9805 38.5161 89.6172 39.1919 90.0625 40.0669C90.5078 40.9419 90.7305 41.9888 90.7305 43.2075V44.6841H82.0703C82.1016 45.9419 82.4375 46.9106 83.0781 47.5903C83.7266 48.27 84.6328 48.6099 85.7969 48.6099C86.625 48.6099 87.3672 48.5317 88.0234 48.3755C88.6875 48.2114 89.3711 47.9731 90.0742 47.6606V49.8989C89.4258 50.2036 88.7656 50.4263 88.0938 50.5669C87.4219 50.7075 86.6172 50.7778 85.6797 50.7778C84.4062 50.7778 83.2852 50.5317 82.3164 50.0396C81.3555 49.5396 80.6016 48.7974 80.0547 47.813C79.5156 46.8286 79.2461 45.606 79.2461 44.145C79.2461 42.6919 79.4922 41.4575 79.9844 40.4419C80.4766 39.4263 81.168 38.6528 82.0586 38.1216C82.9492 37.5903 83.9883 37.3247 85.1758 37.3247ZM85.1758 39.3989C84.3086 39.3989 83.6055 39.6802 83.0664 40.2427C82.5352 40.8052 82.2227 41.6294 82.1289 42.7153H88.0352C88.0273 42.0669 87.918 41.4927 87.707 40.9927C87.5039 40.4927 87.1914 40.1021 86.7695 39.8208C86.3555 39.5396 85.8242 39.3989 85.1758 39.3989ZM98.9453 45.27V42.938H104.992V45.27H98.9453ZM120.262 50.5435H117.438V35.8013H112.422V33.4106H125.266V35.8013H120.262V50.5435ZM130.363 37.5708V50.5435H127.609V37.5708H130.363ZM129.004 32.6021C129.426 32.6021 129.789 32.7153 130.094 32.9419C130.406 33.1685 130.562 33.5591 130.562 34.1138C130.562 34.6606 130.406 35.0513 130.094 35.2856C129.789 35.5122 129.426 35.6255 129.004 35.6255C128.566 35.6255 128.195 35.5122 127.891 35.2856C127.594 35.0513 127.445 34.6606 127.445 34.1138C127.445 33.5591 127.594 33.1685 127.891 32.9419C128.195 32.7153 128.566 32.6021 129.004 32.6021ZM141.074 37.3247C142.535 37.3247 143.672 37.7036 144.484 38.4614C145.305 39.2114 145.715 40.4185 145.715 42.0825V50.5435H142.961V42.5981C142.961 41.5903 142.754 40.8364 142.34 40.3364C141.926 39.8286 141.285 39.5747 140.418 39.5747C139.16 39.5747 138.285 39.9614 137.793 40.7349C137.309 41.5083 137.066 42.6294 137.066 44.0981V50.5435H134.312V37.5708H136.457L136.844 39.3286H136.996C137.277 38.8755 137.625 38.5044 138.039 38.2153C138.461 37.9185 138.93 37.6958 139.445 37.5474C139.969 37.3989 140.512 37.3247 141.074 37.3247ZM154.398 48.5513C154.758 48.5513 155.113 48.52 155.465 48.4575C155.816 48.3872 156.137 48.3052 156.426 48.2114V50.2974C156.121 50.4302 155.727 50.5435 155.242 50.6372C154.758 50.731 154.254 50.7778 153.73 50.7778C152.996 50.7778 152.336 50.6567 151.75 50.4146C151.164 50.1646 150.699 49.7388 150.355 49.1372C150.012 48.5356 149.84 47.7036 149.84 46.6411V39.6685H148.07V38.438L149.969 37.4653L150.871 34.688H152.605V37.5708H156.32V39.6685H152.605V46.606C152.605 47.2622 152.77 47.7505 153.098 48.0708C153.426 48.3911 153.859 48.5513 154.398 48.5513ZM172.504 50.5435H169.738V39.5161C169.738 39.1489 169.742 38.7817 169.75 38.4146C169.758 38.0474 169.766 37.688 169.773 37.3364C169.789 36.9849 169.809 36.6489 169.832 36.3286C169.668 36.5083 169.465 36.7036 169.223 36.9146C168.988 37.1255 168.738 37.3442 168.473 37.5708L166.504 39.1411L165.121 37.395L170.207 33.4106H172.504V50.5435ZM189.742 41.9653C189.742 43.3481 189.633 44.5864 189.414 45.6802C189.203 46.7661 188.867 47.688 188.406 48.4458C187.945 49.2036 187.344 49.7817 186.602 50.1802C185.859 50.5786 184.961 50.7778 183.906 50.7778C182.586 50.7778 181.496 50.4302 180.637 49.7349C179.777 49.0317 179.141 48.0239 178.727 46.7114C178.312 45.3911 178.105 43.8091 178.105 41.9653C178.105 40.1216 178.293 38.5435 178.668 37.231C179.051 35.9106 179.668 34.8989 180.52 34.1958C181.371 33.4927 182.5 33.1411 183.906 33.1411C185.234 33.1411 186.328 33.4927 187.188 34.1958C188.055 34.8911 188.695 35.8989 189.109 37.2192C189.531 38.5317 189.742 40.1138 189.742 41.9653ZM180.883 41.9653C180.883 43.4106 180.977 44.6177 181.164 45.5864C181.359 46.5552 181.68 47.2817 182.125 47.7661C182.57 48.2427 183.164 48.481 183.906 48.481C184.648 48.481 185.242 48.2427 185.688 47.7661C186.133 47.2896 186.453 46.5669 186.648 45.5981C186.852 44.6294 186.953 43.4185 186.953 41.9653C186.953 40.5278 186.855 39.3247 186.66 38.356C186.465 37.3872 186.145 36.6606 185.699 36.1763C185.254 35.6841 184.656 35.438 183.906 35.438C183.156 35.438 182.559 35.6841 182.113 36.1763C181.676 36.6606 181.359 37.3872 181.164 38.356C180.977 39.3247 180.883 40.5278 180.883 41.9653ZM203.477 41.9653C203.477 43.3481 203.367 44.5864 203.148 45.6802C202.938 46.7661 202.602 47.688 202.141 48.4458C201.68 49.2036 201.078 49.7817 200.336 50.1802C199.594 50.5786 198.695 50.7778 197.641 50.7778C196.32 50.7778 195.23 50.4302 194.371 49.7349C193.512 49.0317 192.875 48.0239 192.461 46.7114C192.047 45.3911 191.84 43.8091 191.84 41.9653C191.84 40.1216 192.027 38.5435 192.402 37.231C192.785 35.9106 193.402 34.8989 194.254 34.1958C195.105 33.4927 196.234 33.1411 197.641 33.1411C198.969 33.1411 200.062 33.4927 200.922 34.1958C201.789 34.8911 202.43 35.8989 202.844 37.2192C203.266 38.5317 203.477 40.1138 203.477 41.9653ZM194.617 41.9653C194.617 43.4106 194.711 44.6177 194.898 45.5864C195.094 46.5552 195.414 47.2817 195.859 47.7661C196.305 48.2427 196.898 48.481 197.641 48.481C198.383 48.481 198.977 48.2427 199.422 47.7661C199.867 47.2896 200.188 46.5669 200.383 45.5981C200.586 44.6294 200.688 43.4185 200.688 41.9653C200.688 40.5278 200.59 39.3247 200.395 38.356C200.199 37.3872 199.879 36.6606 199.434 36.1763C198.988 35.6841 198.391 35.438 197.641 35.438C196.891 35.438 196.293 35.6841 195.848 36.1763C195.41 36.6606 195.094 37.3872 194.898 38.356C194.711 39.3247 194.617 40.5278 194.617 41.9653Z" fill="#141414"/>
<path d="M27.6016 84.3247L26.9453 87.6763H30.1094V89.6333H26.5703L25.6211 94.5435H23.5352L24.4961 89.6333H21.5664L20.6406 94.5435H18.6016L19.5039 89.6333H16.5742V87.6763H19.8789L20.5469 84.3247H17.4414V82.3677H20.8984L21.8359 77.4224H23.9219L22.9844 82.3677H25.9375L26.8867 77.4224H28.9141L27.9766 82.3677H30.9297V84.3247H27.6016ZM21.9414 87.6763H24.8711L25.5391 84.3247H22.5977L21.9414 87.6763ZM43.4688 94.5435H33.7656V77.4106H43.4688V79.7778H36.5781V84.4302H43.0352V86.7856H36.5781V92.1646H43.4688V94.5435ZM57.6016 85.9653C57.6016 87.3481 57.4922 88.5864 57.2734 89.6802C57.0625 90.7661 56.7266 91.688 56.2656 92.4458C55.8047 93.2036 55.2031 93.7817 54.4609 94.1802C53.7188 94.5786 52.8203 94.7778 51.7656 94.7778C50.4453 94.7778 49.3555 94.4302 48.4961 93.7349C47.6367 93.0317 47 92.0239 46.5859 90.7114C46.1719 89.3911 45.9648 87.8091 45.9648 85.9653C45.9648 84.1216 46.1523 82.5435 46.5273 81.231C46.9102 79.9106 47.5273 78.8989 48.3789 78.1958C49.2305 77.4927 50.3594 77.1411 51.7656 77.1411C53.0938 77.1411 54.1875 77.4927 55.0469 78.1958C55.9141 78.8911 56.5547 79.8989 56.9688 81.2192C57.3906 82.5317 57.6016 84.1138 57.6016 85.9653ZM48.7422 85.9653C48.7422 87.4106 48.8359 88.6177 49.0234 89.5864C49.2188 90.5552 49.5391 91.2817 49.9844 91.7661C50.4297 92.2427 51.0234 92.481 51.7656 92.481C52.5078 92.481 53.1016 92.2427 53.5469 91.7661C53.9922 91.2896 54.3125 90.5669 54.5078 89.5981C54.7109 88.6294 54.8125 87.4185 54.8125 85.9653C54.8125 84.5278 54.7148 83.3247 54.5195 82.356C54.3242 81.3872 54.0039 80.6606 53.5586 80.1763C53.1133 79.6841 52.5156 79.438 51.7656 79.438C51.0156 79.438 50.418 79.6841 49.9727 80.1763C49.5352 80.6606 49.2188 81.3872 49.0234 82.356C48.8359 83.3247 48.7422 84.5278 48.7422 85.9653ZM68.207 79.5552C67.3867 79.5552 66.6523 79.7036 66.0039 80.0005C65.3633 80.2974 64.8203 80.7271 64.375 81.2896C63.9297 81.8442 63.5898 82.52 63.3555 83.3169C63.1211 84.106 63.0039 84.9966 63.0039 85.9888C63.0039 87.3169 63.1914 88.4614 63.5664 89.4224C63.9414 90.3755 64.5117 91.1099 65.2773 91.6255C66.043 92.1333 67.0117 92.3872 68.1836 92.3872C68.9102 92.3872 69.6172 92.3169 70.3047 92.1763C70.9922 92.0356 71.7031 91.8442 72.4375 91.6021V93.9927C71.7422 94.2661 71.0391 94.4653 70.3281 94.5903C69.6172 94.7153 68.7969 94.7778 67.8672 94.7778C66.1172 94.7778 64.6641 94.4146 63.5078 93.688C62.3594 92.9614 61.5 91.938 60.9297 90.6177C60.3672 89.2974 60.0859 87.7505 60.0859 85.9771C60.0859 84.6802 60.2656 83.4927 60.625 82.4146C60.9844 81.3364 61.5078 80.4067 62.1953 79.6255C62.8828 78.8364 63.7305 78.231 64.7383 77.8091C65.7539 77.3794 66.9141 77.1646 68.2188 77.1646C69.0781 77.1646 69.9219 77.2622 70.75 77.4575C71.5859 77.645 72.3594 77.9146 73.0703 78.2661L72.0859 80.5864C71.4922 80.3052 70.8711 80.063 70.2227 79.8599C69.5742 79.6567 68.9023 79.5552 68.207 79.5552ZM87.168 90.7817H84.8477V94.5435H82.1289V90.7817H74.3359V88.6958L82.1641 77.3638H84.8477V88.4966H87.168V90.7817ZM82.1289 88.4966V84.2427C82.1289 83.8911 82.1328 83.5356 82.1406 83.1763C82.1562 82.8091 82.1719 82.4575 82.1875 82.1216C82.2031 81.7856 82.2188 81.4771 82.2344 81.1958C82.25 80.9067 82.2617 80.6685 82.2695 80.481H82.1758C82.0273 80.7935 81.8633 81.1138 81.6836 81.4419C81.5039 81.7622 81.3125 82.0747 81.1094 82.3794L76.8906 88.4966H82.1289ZM92.6406 94.5435H89.8516V77.4106H99.5312V79.7778H92.6406V85.1216H99.0859V87.4771H92.6406V94.5435ZM105.438 94.5435H102.648V77.4106H112.328V79.7778H105.438V85.1216H111.883V87.4771H105.438V94.5435Z" fill="#141414"/>
</svg>
