<svg width="682" height="127" viewBox="0 0 682 127" fill="none" xmlns="http://www.w3.org/2000/svg">
<rect y="0.543457" width="682" height="126" rx="8" fill="#FFF4B0"/>
<path d="M23.1016 41.2271L27.168 33.4106H30.2031L24.5078 43.8872V50.5435H21.707V43.9927L16 33.4106H19.0586L23.1016 41.2271ZM37.3398 37.3247C38.4961 37.3247 39.4883 37.563 40.3164 38.0396C41.1445 38.5161 41.7812 39.1919 42.2266 40.0669C42.6719 40.9419 42.8945 41.9888 42.8945 43.2075V44.6841H34.2344C34.2656 45.9419 34.6016 46.9106 35.2422 47.5903C35.8906 48.27 36.7969 48.6099 37.9609 48.6099C38.7891 48.6099 39.5312 48.5317 40.1875 48.3755C40.8516 48.2114 41.5352 47.9731 42.2383 47.6606V49.8989C41.5898 50.2036 40.9297 50.4263 40.2578 50.5669C39.5859 50.7075 38.7812 50.7778 37.8438 50.7778C36.5703 50.7778 35.4492 50.5317 34.4805 50.0396C33.5195 49.5396 32.7656 48.7974 32.2188 47.813C31.6797 46.8286 31.4102 45.606 31.4102 44.145C31.4102 42.6919 31.6562 41.4575 32.1484 40.4419C32.6406 39.4263 33.332 38.6528 34.2227 38.1216C35.1133 37.5903 36.1523 37.3247 37.3398 37.3247ZM37.3398 39.3989C36.4727 39.3989 35.7695 39.6802 35.2305 40.2427C34.6992 40.8052 34.3867 41.6294 34.293 42.7153H40.1992C40.1914 42.0669 40.082 41.4927 39.8711 40.9927C39.668 40.4927 39.3555 40.1021 38.9336 39.8208C38.5195 39.5396 37.9883 39.3989 37.3398 39.3989ZM48.7656 50.5435H46V32.3091H48.7656V50.5435ZM55.4688 50.5435H52.7031V32.3091H55.4688V50.5435ZM70.8906 44.0278C70.8906 45.106 70.75 46.063 70.4688 46.8989C70.1875 47.7349 69.7773 48.4419 69.2383 49.02C68.6992 49.5903 68.0508 50.0278 67.293 50.3325C66.5352 50.6294 65.6797 50.7778 64.7266 50.7778C63.8359 50.7778 63.0195 50.6294 62.2773 50.3325C61.5352 50.0278 60.8906 49.5903 60.3438 49.02C59.8047 48.4419 59.3867 47.7349 59.0898 46.8989C58.793 46.063 58.6445 45.106 58.6445 44.0278C58.6445 42.5981 58.8906 41.3872 59.3828 40.395C59.8828 39.395 60.5938 38.6333 61.5156 38.1099C62.4375 37.5864 63.5352 37.3247 64.8086 37.3247C66.0039 37.3247 67.0586 37.5864 67.9727 38.1099C68.8867 38.6333 69.6016 39.395 70.1172 40.395C70.6328 41.395 70.8906 42.606 70.8906 44.0278ZM61.4805 44.0278C61.4805 44.9731 61.5938 45.7817 61.8203 46.4536C62.0547 47.1255 62.4141 47.6411 62.8984 48.0005C63.3828 48.3521 64.0078 48.5278 64.7734 48.5278C65.5391 48.5278 66.1641 48.3521 66.6484 48.0005C67.1328 47.6411 67.4883 47.1255 67.7148 46.4536C67.9414 45.7817 68.0547 44.9731 68.0547 44.0278C68.0547 43.0825 67.9414 42.2817 67.7148 41.6255C67.4883 40.9614 67.1328 40.4575 66.6484 40.1138C66.1641 39.7622 65.5352 39.5864 64.7617 39.5864C63.6211 39.5864 62.7891 39.9692 62.2656 40.7349C61.7422 41.5005 61.4805 42.5981 61.4805 44.0278ZM84.6602 50.5317L83.0195 44.4966C82.9414 44.1997 82.8477 43.8403 82.7383 43.4185C82.6289 42.9966 82.5195 42.563 82.4102 42.1177C82.3008 41.6646 82.1992 41.2466 82.1055 40.8638C82.0195 40.481 81.9531 40.1841 81.9062 39.9731H81.8125C81.7734 40.1841 81.7109 40.481 81.625 40.8638C81.5391 41.2466 81.4414 41.6646 81.332 42.1177C81.2227 42.5708 81.1133 43.0122 81.0039 43.4419C80.9023 43.8716 80.8086 44.2388 80.7227 44.5435L79 50.5317H75.9766L72.3438 37.5591H75.1328L76.8203 44.0044C76.9297 44.4419 77.0352 44.9146 77.1367 45.4224C77.2461 45.9302 77.3398 46.4146 77.418 46.8755C77.4961 47.3364 77.5547 47.7153 77.5938 48.0122H77.6875C77.7188 47.8013 77.7617 47.5356 77.8164 47.2153C77.8711 46.8872 77.9336 46.5474 78.0039 46.1958C78.0742 45.8364 78.1445 45.5005 78.2148 45.188C78.2852 44.8677 78.3516 44.6099 78.4141 44.4146L80.4062 37.5591H83.418L85.3281 44.4146C85.4141 44.7114 85.5078 45.0864 85.6094 45.5396C85.7109 45.9849 85.8008 46.4341 85.8789 46.8872C85.9648 47.3325 86.0195 47.7036 86.043 48.0005H86.1367C86.168 47.7349 86.2227 47.3755 86.3008 46.9224C86.3867 46.4614 86.4844 45.9731 86.5938 45.4575C86.7031 44.9341 86.8164 44.4497 86.9336 44.0044L88.6562 37.5591H91.3984L87.7422 50.5317H84.6602ZM98.7344 45.27V42.938H104.781V45.27H98.7344ZM120.051 50.5435H117.227V35.8013H112.211V33.4106H125.055V35.8013H120.051V50.5435ZM130.152 37.5708V50.5435H127.398V37.5708H130.152ZM128.793 32.6021C129.215 32.6021 129.578 32.7153 129.883 32.9419C130.195 33.1685 130.352 33.5591 130.352 34.1138C130.352 34.6606 130.195 35.0513 129.883 35.2856C129.578 35.5122 129.215 35.6255 128.793 35.6255C128.355 35.6255 127.984 35.5122 127.68 35.2856C127.383 35.0513 127.234 34.6606 127.234 34.1138C127.234 33.5591 127.383 33.1685 127.68 32.9419C127.984 32.7153 128.355 32.6021 128.793 32.6021ZM140.863 37.3247C142.324 37.3247 143.461 37.7036 144.273 38.4614C145.094 39.2114 145.504 40.4185 145.504 42.0825V50.5435H142.75V42.5981C142.75 41.5903 142.543 40.8364 142.129 40.3364C141.715 39.8286 141.074 39.5747 140.207 39.5747C138.949 39.5747 138.074 39.9614 137.582 40.7349C137.098 41.5083 136.855 42.6294 136.855 44.0981V50.5435H134.102V37.5708H136.246L136.633 39.3286H136.785C137.066 38.8755 137.414 38.5044 137.828 38.2153C138.25 37.9185 138.719 37.6958 139.234 37.5474C139.758 37.3989 140.301 37.3247 140.863 37.3247ZM154.188 48.5513C154.547 48.5513 154.902 48.52 155.254 48.4575C155.605 48.3872 155.926 48.3052 156.215 48.2114V50.2974C155.91 50.4302 155.516 50.5435 155.031 50.6372C154.547 50.731 154.043 50.7778 153.52 50.7778C152.785 50.7778 152.125 50.6567 151.539 50.4146C150.953 50.1646 150.488 49.7388 150.145 49.1372C149.801 48.5356 149.629 47.7036 149.629 46.6411V39.6685H147.859V38.438L149.758 37.4653L150.66 34.688H152.395V37.5708H156.109V39.6685H152.395V46.606C152.395 47.2622 152.559 47.7505 152.887 48.0708C153.215 48.3911 153.648 48.5513 154.188 48.5513ZM172.293 50.5435H169.527V39.5161C169.527 39.1489 169.531 38.7817 169.539 38.4146C169.547 38.0474 169.555 37.688 169.562 37.3364C169.578 36.9849 169.598 36.6489 169.621 36.3286C169.457 36.5083 169.254 36.7036 169.012 36.9146C168.777 37.1255 168.527 37.3442 168.262 37.5708L166.293 39.1411L164.91 37.395L169.996 33.4106H172.293V50.5435ZM189.531 41.9653C189.531 43.3481 189.422 44.5864 189.203 45.6802C188.992 46.7661 188.656 47.688 188.195 48.4458C187.734 49.2036 187.133 49.7817 186.391 50.1802C185.648 50.5786 184.75 50.7778 183.695 50.7778C182.375 50.7778 181.285 50.4302 180.426 49.7349C179.566 49.0317 178.93 48.0239 178.516 46.7114C178.102 45.3911 177.895 43.8091 177.895 41.9653C177.895 40.1216 178.082 38.5435 178.457 37.231C178.84 35.9106 179.457 34.8989 180.309 34.1958C181.16 33.4927 182.289 33.1411 183.695 33.1411C185.023 33.1411 186.117 33.4927 186.977 34.1958C187.844 34.8911 188.484 35.8989 188.898 37.2192C189.32 38.5317 189.531 40.1138 189.531 41.9653ZM180.672 41.9653C180.672 43.4106 180.766 44.6177 180.953 45.5864C181.148 46.5552 181.469 47.2817 181.914 47.7661C182.359 48.2427 182.953 48.481 183.695 48.481C184.438 48.481 185.031 48.2427 185.477 47.7661C185.922 47.2896 186.242 46.5669 186.438 45.5981C186.641 44.6294 186.742 43.4185 186.742 41.9653C186.742 40.5278 186.645 39.3247 186.449 38.356C186.254 37.3872 185.934 36.6606 185.488 36.1763C185.043 35.6841 184.445 35.438 183.695 35.438C182.945 35.438 182.348 35.6841 181.902 36.1763C181.465 36.6606 181.148 37.3872 180.953 38.356C180.766 39.3247 180.672 40.5278 180.672 41.9653ZM203.266 41.9653C203.266 43.3481 203.156 44.5864 202.938 45.6802C202.727 46.7661 202.391 47.688 201.93 48.4458C201.469 49.2036 200.867 49.7817 200.125 50.1802C199.383 50.5786 198.484 50.7778 197.43 50.7778C196.109 50.7778 195.02 50.4302 194.16 49.7349C193.301 49.0317 192.664 48.0239 192.25 46.7114C191.836 45.3911 191.629 43.8091 191.629 41.9653C191.629 40.1216 191.816 38.5435 192.191 37.231C192.574 35.9106 193.191 34.8989 194.043 34.1958C194.895 33.4927 196.023 33.1411 197.43 33.1411C198.758 33.1411 199.852 33.4927 200.711 34.1958C201.578 34.8911 202.219 35.8989 202.633 37.2192C203.055 38.5317 203.266 40.1138 203.266 41.9653ZM194.406 41.9653C194.406 43.4106 194.5 44.6177 194.688 45.5864C194.883 46.5552 195.203 47.2817 195.648 47.7661C196.094 48.2427 196.688 48.481 197.43 48.481C198.172 48.481 198.766 48.2427 199.211 47.7661C199.656 47.2896 199.977 46.5669 200.172 45.5981C200.375 44.6294 200.477 43.4185 200.477 41.9653C200.477 40.5278 200.379 39.3247 200.184 38.356C199.988 37.3872 199.668 36.6606 199.223 36.1763C198.777 35.6841 198.18 35.438 197.43 35.438C196.68 35.438 196.082 35.6841 195.637 36.1763C195.199 36.6606 194.883 37.3872 194.688 38.356C194.5 39.3247 194.406 40.5278 194.406 41.9653Z" fill="#141414"/>
<path d="M27.6016 84.3247L26.9453 87.6763H30.1094V89.6333H26.5703L25.6211 94.5435H23.5352L24.4961 89.6333H21.5664L20.6406 94.5435H18.6016L19.5039 89.6333H16.5742V87.6763H19.8789L20.5469 84.3247H17.4414V82.3677H20.8984L21.8359 77.4224H23.9219L22.9844 82.3677H25.9375L26.8867 77.4224H28.9141L27.9766 82.3677H30.9297V84.3247H27.6016ZM21.9414 87.6763H24.8711L25.5391 84.3247H22.5977L21.9414 87.6763ZM36.5547 94.5435H33.7656V77.4106H43.4453V79.7778H36.5547V85.1216H43V87.4771H36.5547V94.5435ZM49.3516 94.5435H46.5625V77.4106H56.2422V79.7778H49.3516V85.1216H55.7969V87.4771H49.3516V94.5435ZM62.1484 94.5435H59.3594V77.4106H69.0391V79.7778H62.1484V85.1216H68.5938V87.4771H62.1484V94.5435ZM83.207 90.7817H80.8867V94.5435H78.168V90.7817H70.375V88.6958L78.2031 77.3638H80.8867V88.4966H83.207V90.7817ZM78.168 88.4966V84.2427C78.168 83.8911 78.1719 83.5356 78.1797 83.1763C78.1953 82.8091 78.2109 82.4575 78.2266 82.1216C78.2422 81.7856 78.2578 81.4771 78.2734 81.1958C78.2891 80.9067 78.3008 80.6685 78.3086 80.481H78.2148C78.0664 80.7935 77.9023 81.1138 77.7227 81.4419C77.543 81.7622 77.3516 82.0747 77.1484 82.3794L72.9297 88.4966H78.168ZM85.8906 77.4106H90.9883C93.1992 77.4106 94.8672 77.731 95.9922 78.3716C97.1172 79.0122 97.6797 80.1177 97.6797 81.688C97.6797 82.3442 97.5625 82.938 97.3281 83.4692C97.1016 83.9927 96.7695 84.4263 96.332 84.77C95.8945 85.106 95.3555 85.3325 94.7148 85.4497V85.5669C95.3789 85.6841 95.9688 85.8911 96.4844 86.188C97.0078 86.4849 97.418 86.9106 97.7148 87.4653C98.0195 88.02 98.1719 88.7388 98.1719 89.6216C98.1719 90.6685 97.9219 91.5591 97.4219 92.2935C96.9297 93.0278 96.2227 93.5864 95.3008 93.9692C94.3867 94.3521 93.3008 94.5435 92.043 94.5435H85.8906V77.4106ZM88.7031 84.4771H91.3984C92.6719 84.4771 93.5547 84.27 94.0469 83.856C94.5391 83.4419 94.7852 82.8364 94.7852 82.0396C94.7852 81.2271 94.4922 80.6411 93.9062 80.2817C93.3281 79.9224 92.4062 79.7427 91.1406 79.7427H88.7031V84.4771ZM88.7031 86.7505V92.188H91.668C92.9805 92.188 93.9023 91.9341 94.4336 91.4263C94.9648 90.9185 95.2305 90.231 95.2305 89.3638C95.2305 88.8325 95.1094 88.3716 94.8672 87.981C94.6328 87.5903 94.2461 87.2896 93.707 87.0786C93.168 86.8599 92.4414 86.7505 91.5273 86.7505H88.7031ZM112.141 85.9653C112.141 87.3481 112.031 88.5864 111.812 89.6802C111.602 90.7661 111.266 91.688 110.805 92.4458C110.344 93.2036 109.742 93.7817 109 94.1802C108.258 94.5786 107.359 94.7778 106.305 94.7778C104.984 94.7778 103.895 94.4302 103.035 93.7349C102.176 93.0317 101.539 92.0239 101.125 90.7114C100.711 89.3911 100.504 87.8091 100.504 85.9653C100.504 84.1216 100.691 82.5435 101.066 81.231C101.449 79.9106 102.066 78.8989 102.918 78.1958C103.77 77.4927 104.898 77.1411 106.305 77.1411C107.633 77.1411 108.727 77.4927 109.586 78.1958C110.453 78.8911 111.094 79.8989 111.508 81.2192C111.93 82.5317 112.141 84.1138 112.141 85.9653ZM103.281 85.9653C103.281 87.4106 103.375 88.6177 103.562 89.5864C103.758 90.5552 104.078 91.2817 104.523 91.7661C104.969 92.2427 105.562 92.481 106.305 92.481C107.047 92.481 107.641 92.2427 108.086 91.7661C108.531 91.2896 108.852 90.5669 109.047 89.5981C109.25 88.6294 109.352 87.4185 109.352 85.9653C109.352 84.5278 109.254 83.3247 109.059 82.356C108.863 81.3872 108.543 80.6606 108.098 80.1763C107.652 79.6841 107.055 79.438 106.305 79.438C105.555 79.438 104.957 79.6841 104.512 80.1763C104.074 80.6606 103.758 81.3872 103.562 82.356C103.375 83.3247 103.281 84.5278 103.281 85.9653Z" fill="#141414"/>
</svg>
