<svg width="682" height="430" viewBox="0 0 682 430" fill="none" xmlns="http://www.w3.org/2000/svg">
<rect x="0.5" y="0.543457" width="681" height="428" rx="7.5" fill="white"/>
<rect x="0.5" y="0.543457" width="681" height="428" rx="7.5" stroke="#B6B6B6"/>
<path d="M38.5117 184.411L34.0352 201.543H30.9648L28.1055 191.278C28.0352 191.028 27.957 190.731 27.8711 190.387C27.7852 190.043 27.6992 189.692 27.6133 189.333C27.5352 188.973 27.4648 188.645 27.4023 188.348C27.3477 188.043 27.3086 187.809 27.2852 187.645C27.2695 187.809 27.2344 188.04 27.1797 188.336C27.125 188.633 27.0586 188.961 26.9805 189.321C26.9102 189.672 26.832 190.024 26.7461 190.375C26.6602 190.719 26.582 191.024 26.5117 191.29L23.6992 201.543H20.6406L16.1758 184.411H19L21.4727 194.454C21.5508 194.774 21.6289 195.122 21.707 195.497C21.793 195.864 21.8711 196.235 21.9414 196.61C22.0195 196.985 22.0898 197.352 22.1523 197.711C22.2148 198.063 22.2656 198.383 22.3047 198.672C22.3438 198.375 22.3945 198.047 22.457 197.688C22.5195 197.321 22.5859 196.95 22.6562 196.575C22.7344 196.192 22.8125 195.825 22.8906 195.473C22.9766 195.122 23.0625 194.805 23.1484 194.524L25.9375 184.411H28.6797L31.5273 194.559C31.6133 194.848 31.6953 195.172 31.7734 195.532C31.8594 195.891 31.9414 196.258 32.0195 196.633C32.0977 197.008 32.168 197.372 32.2305 197.723C32.293 198.075 32.3438 198.391 32.3828 198.672C32.4375 198.29 32.5078 197.852 32.5938 197.36C32.6797 196.868 32.7773 196.368 32.8867 195.86C32.9961 195.352 33.1055 194.883 33.2148 194.454L35.6758 184.411H38.5117ZM43.4102 183.309V187.891C43.4102 188.368 43.3945 188.833 43.3633 189.286C43.3398 189.739 43.3125 190.09 43.2812 190.34H43.4336C43.707 189.887 44.043 189.516 44.4414 189.227C44.8398 188.93 45.2852 188.708 45.7773 188.559C46.2773 188.411 46.8086 188.336 47.3711 188.336C48.3633 188.336 49.207 188.504 49.9023 188.84C50.5977 189.168 51.1289 189.68 51.4961 190.375C51.8711 191.071 52.0586 191.973 52.0586 193.083V201.543H49.3047V193.598C49.3047 192.59 49.0977 191.836 48.6836 191.336C48.2695 190.829 47.6289 190.575 46.7617 190.575C45.9258 190.575 45.2617 190.75 44.7695 191.102C44.2852 191.446 43.9375 191.958 43.7266 192.637C43.5156 193.309 43.4102 194.129 43.4102 195.098V201.543H40.6562V183.309H43.4102ZM58.668 188.571V201.543H55.9141V188.571H58.668ZM57.3086 183.602C57.7305 183.602 58.0938 183.715 58.3984 183.942C58.7109 184.168 58.8672 184.559 58.8672 185.114C58.8672 185.661 58.7109 186.051 58.3984 186.286C58.0938 186.512 57.7305 186.625 57.3086 186.625C56.8711 186.625 56.5 186.512 56.1953 186.286C55.8984 186.051 55.75 185.661 55.75 185.114C55.75 184.559 55.8984 184.168 56.1953 183.942C56.5 183.715 56.8711 183.602 57.3086 183.602ZM67.4453 199.551C67.8047 199.551 68.1602 199.52 68.5117 199.458C68.8633 199.387 69.1836 199.305 69.4727 199.211V201.297C69.168 201.43 68.7734 201.543 68.2891 201.637C67.8047 201.731 67.3008 201.778 66.7773 201.778C66.043 201.778 65.3828 201.657 64.7969 201.415C64.2109 201.165 63.7461 200.739 63.4023 200.137C63.0586 199.536 62.8867 198.704 62.8867 197.641V190.668H61.1172V189.438L63.0156 188.465L63.918 185.688H65.6523V188.571H69.3672V190.668H65.6523V197.606C65.6523 198.262 65.8164 198.75 66.1445 199.071C66.4727 199.391 66.9062 199.551 67.4453 199.551ZM77.2773 188.325C78.4336 188.325 79.4258 188.563 80.2539 189.04C81.082 189.516 81.7188 190.192 82.1641 191.067C82.6094 191.942 82.832 192.989 82.832 194.208V195.684H74.1719C74.2031 196.942 74.5391 197.911 75.1797 198.59C75.8281 199.27 76.7344 199.61 77.8984 199.61C78.7266 199.61 79.4688 199.532 80.125 199.375C80.7891 199.211 81.4727 198.973 82.1758 198.661V200.899C81.5273 201.204 80.8672 201.426 80.1953 201.567C79.5234 201.708 78.7188 201.778 77.7812 201.778C76.5078 201.778 75.3867 201.532 74.418 201.04C73.457 200.54 72.7031 199.797 72.1562 198.813C71.6172 197.829 71.3477 196.606 71.3477 195.145C71.3477 193.692 71.5938 192.458 72.0859 191.442C72.5781 190.426 73.2695 189.653 74.1602 189.122C75.0508 188.59 76.0898 188.325 77.2773 188.325ZM77.2773 190.399C76.4102 190.399 75.707 190.68 75.168 191.243C74.6367 191.805 74.3242 192.629 74.2305 193.715H80.1367C80.1289 193.067 80.0195 192.493 79.8086 191.993C79.6055 191.493 79.293 191.102 78.8711 190.821C78.457 190.54 77.9258 190.399 77.2773 190.399Z" fill="#141414"/>
<path d="M27.6016 235.325L26.9453 238.676H30.1094V240.633H26.5703L25.6211 245.543H23.5352L24.4961 240.633H21.5664L20.6406 245.543H18.6016L19.5039 240.633H16.5742V238.676H19.8789L20.5469 235.325H17.4414V233.368H20.8984L21.8359 228.422H23.9219L22.9844 233.368H25.9375L26.8867 228.422H28.9141L27.9766 233.368H30.9297V235.325H27.6016ZM21.9414 238.676H24.8711L25.5391 235.325H22.5977L21.9414 238.676ZM36.5547 245.543H33.7656V228.411H43.4453V230.778H36.5547V236.122H43V238.477H36.5547V245.543ZM49.3516 245.543H46.5625V228.411H56.2422V230.778H49.3516V236.122H55.7969V238.477H49.3516V245.543ZM62.1484 245.543H59.3594V228.411H69.0391V230.778H62.1484V236.122H68.5938V238.477H62.1484V245.543ZM74.9453 245.543H72.1562V228.411H81.8359V230.778H74.9453V236.122H81.3906V238.477H74.9453V245.543ZM87.7422 245.543H84.9531V228.411H94.6328V230.778H87.7422V236.122H94.1875V238.477H87.7422V245.543ZM100.539 245.543H97.75V228.411H107.43V230.778H100.539V236.122H106.984V238.477H100.539V245.543Z" fill="#141414"/>
</svg>
