<svg width="682" height="127" viewBox="0 0 682 127" fill="none" xmlns="http://www.w3.org/2000/svg">
<rect y="0.543457" width="682" height="126" rx="8" fill="#B0ECC8"/>
<path d="M25.1641 41.2388H31.5625V49.8403C30.6641 50.1372 29.7344 50.3677 28.7734 50.5317C27.8125 50.6958 26.7344 50.7778 25.5391 50.7778C23.7969 50.7778 22.3203 50.4341 21.1094 49.7466C19.9062 49.0513 18.9922 48.0474 18.3672 46.7349C17.7422 45.4146 17.4297 43.8247 17.4297 41.9653C17.4297 40.1763 17.7773 38.6255 18.4727 37.313C19.168 35.9927 20.1797 34.9731 21.5078 34.2544C22.8359 33.5278 24.4453 33.1646 26.3359 33.1646C27.2656 33.1646 28.1641 33.2583 29.0312 33.4458C29.9062 33.6255 30.707 33.8755 31.4336 34.1958L30.4492 36.5161C29.8711 36.2427 29.2227 36.0122 28.5039 35.8247C27.7852 35.6372 27.0391 35.5435 26.2656 35.5435C25.0391 35.5435 23.9805 35.8091 23.0898 36.3403C22.207 36.8716 21.5273 37.6216 21.0508 38.5903C20.5742 39.5513 20.3359 40.688 20.3359 42.0005C20.3359 43.2739 20.5273 44.3911 20.9102 45.3521C21.293 46.313 21.8906 47.063 22.7031 47.6021C23.5234 48.1333 24.582 48.3989 25.8789 48.3989C26.5273 48.3989 27.0781 48.3638 27.5312 48.2935C27.9844 48.2231 28.4023 48.145 28.7852 48.0591V43.6411H25.1641V41.2388ZM41.957 37.3247C42.1758 37.3247 42.4141 37.3364 42.6719 37.3599C42.9297 37.3833 43.1523 37.4146 43.3398 37.4536L43.082 40.0317C42.918 39.9849 42.7148 39.9497 42.4727 39.9263C42.2383 39.9028 42.0273 39.8911 41.8398 39.8911C41.3477 39.8911 40.8789 39.9731 40.4336 40.1372C39.9883 40.2935 39.5938 40.5356 39.25 40.8638C38.9062 41.1841 38.6367 41.5864 38.4414 42.0708C38.2461 42.5552 38.1484 43.1177 38.1484 43.7583V50.5435H35.3828V37.5708H37.5391L37.9141 39.856H38.043C38.3008 39.395 38.6211 38.9731 39.0039 38.5903C39.3867 38.2075 39.8242 37.9028 40.3164 37.6763C40.8164 37.4419 41.3633 37.3247 41.957 37.3247ZM50.9102 37.3247C52.0664 37.3247 53.0586 37.563 53.8867 38.0396C54.7148 38.5161 55.3516 39.1919 55.7969 40.0669C56.2422 40.9419 56.4648 41.9888 56.4648 43.2075V44.6841H47.8047C47.8359 45.9419 48.1719 46.9106 48.8125 47.5903C49.4609 48.27 50.3672 48.6099 51.5312 48.6099C52.3594 48.6099 53.1016 48.5317 53.7578 48.3755C54.4219 48.2114 55.1055 47.9731 55.8086 47.6606V49.8989C55.1602 50.2036 54.5 50.4263 53.8281 50.5669C53.1562 50.7075 52.3516 50.7778 51.4141 50.7778C50.1406 50.7778 49.0195 50.5317 48.0508 50.0396C47.0898 49.5396 46.3359 48.7974 45.7891 47.813C45.25 46.8286 44.9805 45.606 44.9805 44.145C44.9805 42.6919 45.2266 41.4575 45.7188 40.4419C46.2109 39.4263 46.9023 38.6528 47.793 38.1216C48.6836 37.5903 49.7227 37.3247 50.9102 37.3247ZM50.9102 39.3989C50.043 39.3989 49.3398 39.6802 48.8008 40.2427C48.2695 40.8052 47.957 41.6294 47.8633 42.7153H53.7695C53.7617 42.0669 53.6523 41.4927 53.4414 40.9927C53.2383 40.4927 52.9258 40.1021 52.5039 39.8208C52.0898 39.5396 51.5586 39.3989 50.9102 39.3989ZM64.7383 37.3247C65.8945 37.3247 66.8867 37.563 67.7148 38.0396C68.543 38.5161 69.1797 39.1919 69.625 40.0669C70.0703 40.9419 70.293 41.9888 70.293 43.2075V44.6841H61.6328C61.6641 45.9419 62 46.9106 62.6406 47.5903C63.2891 48.27 64.1953 48.6099 65.3594 48.6099C66.1875 48.6099 66.9297 48.5317 67.5859 48.3755C68.25 48.2114 68.9336 47.9731 69.6367 47.6606V49.8989C68.9883 50.2036 68.3281 50.4263 67.6562 50.5669C66.9844 50.7075 66.1797 50.7778 65.2422 50.7778C63.9688 50.7778 62.8477 50.5317 61.8789 50.0396C60.918 49.5396 60.1641 48.7974 59.6172 47.813C59.0781 46.8286 58.8086 45.606 58.8086 44.145C58.8086 42.6919 59.0547 41.4575 59.5469 40.4419C60.0391 39.4263 60.7305 38.6528 61.6211 38.1216C62.5117 37.5903 63.5508 37.3247 64.7383 37.3247ZM64.7383 39.3989C63.8711 39.3989 63.168 39.6802 62.6289 40.2427C62.0977 40.8052 61.7852 41.6294 61.6914 42.7153H67.5977C67.5898 42.0669 67.4805 41.4927 67.2695 40.9927C67.0664 40.4927 66.7539 40.1021 66.332 39.8208C65.918 39.5396 65.3867 39.3989 64.7383 39.3989ZM80.1602 37.3247C81.6211 37.3247 82.7578 37.7036 83.5703 38.4614C84.3906 39.2114 84.8008 40.4185 84.8008 42.0825V50.5435H82.0469V42.5981C82.0469 41.5903 81.8398 40.8364 81.4258 40.3364C81.0117 39.8286 80.3711 39.5747 79.5039 39.5747C78.2461 39.5747 77.3711 39.9614 76.8789 40.7349C76.3945 41.5083 76.1523 42.6294 76.1523 44.0981V50.5435H73.3984V37.5708H75.543L75.9297 39.3286H76.082C76.3633 38.8755 76.7109 38.5044 77.125 38.2153C77.5469 37.9185 78.0156 37.6958 78.5312 37.5474C79.0547 37.3989 79.5977 37.3247 80.1602 37.3247ZM93.7656 45.27V42.938H99.8125V45.27H93.7656ZM115.082 50.5435H112.258V35.8013H107.242V33.4106H120.086V35.8013H115.082V50.5435ZM125.184 37.5708V50.5435H122.43V37.5708H125.184ZM123.824 32.6021C124.246 32.6021 124.609 32.7153 124.914 32.9419C125.227 33.1685 125.383 33.5591 125.383 34.1138C125.383 34.6606 125.227 35.0513 124.914 35.2856C124.609 35.5122 124.246 35.6255 123.824 35.6255C123.387 35.6255 123.016 35.5122 122.711 35.2856C122.414 35.0513 122.266 34.6606 122.266 34.1138C122.266 33.5591 122.414 33.1685 122.711 32.9419C123.016 32.7153 123.387 32.6021 123.824 32.6021ZM135.895 37.3247C137.355 37.3247 138.492 37.7036 139.305 38.4614C140.125 39.2114 140.535 40.4185 140.535 42.0825V50.5435H137.781V42.5981C137.781 41.5903 137.574 40.8364 137.16 40.3364C136.746 39.8286 136.105 39.5747 135.238 39.5747C133.98 39.5747 133.105 39.9614 132.613 40.7349C132.129 41.5083 131.887 42.6294 131.887 44.0981V50.5435H129.133V37.5708H131.277L131.664 39.3286H131.816C132.098 38.8755 132.445 38.5044 132.859 38.2153C133.281 37.9185 133.75 37.6958 134.266 37.5474C134.789 37.3989 135.332 37.3247 135.895 37.3247ZM149.219 48.5513C149.578 48.5513 149.934 48.52 150.285 48.4575C150.637 48.3872 150.957 48.3052 151.246 48.2114V50.2974C150.941 50.4302 150.547 50.5435 150.062 50.6372C149.578 50.731 149.074 50.7778 148.551 50.7778C147.816 50.7778 147.156 50.6567 146.57 50.4146C145.984 50.1646 145.52 49.7388 145.176 49.1372C144.832 48.5356 144.66 47.7036 144.66 46.6411V39.6685H142.891V38.438L144.789 37.4653L145.691 34.688H147.426V37.5708H151.141V39.6685H147.426V46.606C147.426 47.2622 147.59 47.7505 147.918 48.0708C148.246 48.3911 148.68 48.5513 149.219 48.5513ZM167.324 50.5435H164.559V39.5161C164.559 39.1489 164.562 38.7817 164.57 38.4146C164.578 38.0474 164.586 37.688 164.594 37.3364C164.609 36.9849 164.629 36.6489 164.652 36.3286C164.488 36.5083 164.285 36.7036 164.043 36.9146C163.809 37.1255 163.559 37.3442 163.293 37.5708L161.324 39.1411L159.941 37.395L165.027 33.4106H167.324V50.5435ZM184.562 41.9653C184.562 43.3481 184.453 44.5864 184.234 45.6802C184.023 46.7661 183.688 47.688 183.227 48.4458C182.766 49.2036 182.164 49.7817 181.422 50.1802C180.68 50.5786 179.781 50.7778 178.727 50.7778C177.406 50.7778 176.316 50.4302 175.457 49.7349C174.598 49.0317 173.961 48.0239 173.547 46.7114C173.133 45.3911 172.926 43.8091 172.926 41.9653C172.926 40.1216 173.113 38.5435 173.488 37.231C173.871 35.9106 174.488 34.8989 175.34 34.1958C176.191 33.4927 177.32 33.1411 178.727 33.1411C180.055 33.1411 181.148 33.4927 182.008 34.1958C182.875 34.8911 183.516 35.8989 183.93 37.2192C184.352 38.5317 184.562 40.1138 184.562 41.9653ZM175.703 41.9653C175.703 43.4106 175.797 44.6177 175.984 45.5864C176.18 46.5552 176.5 47.2817 176.945 47.7661C177.391 48.2427 177.984 48.481 178.727 48.481C179.469 48.481 180.062 48.2427 180.508 47.7661C180.953 47.2896 181.273 46.5669 181.469 45.5981C181.672 44.6294 181.773 43.4185 181.773 41.9653C181.773 40.5278 181.676 39.3247 181.48 38.356C181.285 37.3872 180.965 36.6606 180.52 36.1763C180.074 35.6841 179.477 35.438 178.727 35.438C177.977 35.438 177.379 35.6841 176.934 36.1763C176.496 36.6606 176.18 37.3872 175.984 38.356C175.797 39.3247 175.703 40.5278 175.703 41.9653ZM198.297 41.9653C198.297 43.3481 198.188 44.5864 197.969 45.6802C197.758 46.7661 197.422 47.688 196.961 48.4458C196.5 49.2036 195.898 49.7817 195.156 50.1802C194.414 50.5786 193.516 50.7778 192.461 50.7778C191.141 50.7778 190.051 50.4302 189.191 49.7349C188.332 49.0317 187.695 48.0239 187.281 46.7114C186.867 45.3911 186.66 43.8091 186.66 41.9653C186.66 40.1216 186.848 38.5435 187.223 37.231C187.605 35.9106 188.223 34.8989 189.074 34.1958C189.926 33.4927 191.055 33.1411 192.461 33.1411C193.789 33.1411 194.883 33.4927 195.742 34.1958C196.609 34.8911 197.25 35.8989 197.664 37.2192C198.086 38.5317 198.297 40.1138 198.297 41.9653ZM189.438 41.9653C189.438 43.4106 189.531 44.6177 189.719 45.5864C189.914 46.5552 190.234 47.2817 190.68 47.7661C191.125 48.2427 191.719 48.481 192.461 48.481C193.203 48.481 193.797 48.2427 194.242 47.7661C194.688 47.2896 195.008 46.5669 195.203 45.5981C195.406 44.6294 195.508 43.4185 195.508 41.9653C195.508 40.5278 195.41 39.3247 195.215 38.356C195.02 37.3872 194.699 36.6606 194.254 36.1763C193.809 35.6841 193.211 35.438 192.461 35.438C191.711 35.438 191.113 35.6841 190.668 36.1763C190.23 36.6606 189.914 37.3872 189.719 38.356C189.531 39.3247 189.438 40.5278 189.438 41.9653Z" fill="#141414"/>
<path d="M27.6016 84.3247L26.9453 87.6763H30.1094V89.6333H26.5703L25.6211 94.5435H23.5352L24.4961 89.6333H21.5664L20.6406 94.5435H18.6016L19.5039 89.6333H16.5742V87.6763H19.8789L20.5469 84.3247H17.4414V82.3677H20.8984L21.8359 77.4224H23.9219L22.9844 82.3677H25.9375L26.8867 77.4224H28.9141L27.9766 82.3677H30.9297V84.3247H27.6016ZM21.9414 87.6763H24.8711L25.5391 84.3247H22.5977L21.9414 87.6763ZM33.7656 77.4106H38.8633C41.0742 77.4106 42.7422 77.731 43.8672 78.3716C44.9922 79.0122 45.5547 80.1177 45.5547 81.688C45.5547 82.3442 45.4375 82.938 45.2031 83.4692C44.9766 83.9927 44.6445 84.4263 44.207 84.77C43.7695 85.106 43.2305 85.3325 42.5898 85.4497V85.5669C43.2539 85.6841 43.8438 85.8911 44.3594 86.188C44.8828 86.4849 45.293 86.9106 45.5898 87.4653C45.8945 88.02 46.0469 88.7388 46.0469 89.6216C46.0469 90.6685 45.7969 91.5591 45.2969 92.2935C44.8047 93.0278 44.0977 93.5864 43.1758 93.9692C42.2617 94.3521 41.1758 94.5435 39.918 94.5435H33.7656V77.4106ZM36.5781 84.4771H39.2734C40.5469 84.4771 41.4297 84.27 41.9219 83.856C42.4141 83.4419 42.6602 82.8364 42.6602 82.0396C42.6602 81.2271 42.3672 80.6411 41.7812 80.2817C41.2031 79.9224 40.2812 79.7427 39.0156 79.7427H36.5781V84.4771ZM36.5781 86.7505V92.188H39.543C40.8555 92.188 41.7773 91.9341 42.3086 91.4263C42.8398 90.9185 43.1055 90.231 43.1055 89.3638C43.1055 88.8325 42.9844 88.3716 42.7422 87.981C42.5078 87.5903 42.1211 87.2896 41.582 87.0786C41.043 86.8599 40.3164 86.7505 39.4023 86.7505H36.5781ZM60.0156 85.9653C60.0156 87.3481 59.9062 88.5864 59.6875 89.6802C59.4766 90.7661 59.1406 91.688 58.6797 92.4458C58.2188 93.2036 57.6172 93.7817 56.875 94.1802C56.1328 94.5786 55.2344 94.7778 54.1797 94.7778C52.8594 94.7778 51.7695 94.4302 50.9102 93.7349C50.0508 93.0317 49.4141 92.0239 49 90.7114C48.5859 89.3911 48.3789 87.8091 48.3789 85.9653C48.3789 84.1216 48.5664 82.5435 48.9414 81.231C49.3242 79.9106 49.9414 78.8989 50.793 78.1958C51.6445 77.4927 52.7734 77.1411 54.1797 77.1411C55.5078 77.1411 56.6016 77.4927 57.4609 78.1958C58.3281 78.8911 58.9688 79.8989 59.3828 81.2192C59.8047 82.5317 60.0156 84.1138 60.0156 85.9653ZM51.1562 85.9653C51.1562 87.4106 51.25 88.6177 51.4375 89.5864C51.6328 90.5552 51.9531 91.2817 52.3984 91.7661C52.8438 92.2427 53.4375 92.481 54.1797 92.481C54.9219 92.481 55.5156 92.2427 55.9609 91.7661C56.4062 91.2896 56.7266 90.5669 56.9219 89.5981C57.125 88.6294 57.2266 87.4185 57.2266 85.9653C57.2266 84.5278 57.1289 83.3247 56.9336 82.356C56.7383 81.3872 56.418 80.6606 55.9727 80.1763C55.5273 79.6841 54.9297 79.438 54.1797 79.438C53.4297 79.438 52.832 79.6841 52.3867 80.1763C51.9492 80.6606 51.6328 81.3872 51.4375 82.356C51.25 83.3247 51.1562 84.5278 51.1562 85.9653ZM73.0234 94.5435H63.3203V77.4106H73.0234V79.7778H66.1328V84.4302H72.5898V86.7856H66.1328V92.1646H73.0234V94.5435ZM84.0273 79.5552C83.207 79.5552 82.4727 79.7036 81.8242 80.0005C81.1836 80.2974 80.6406 80.7271 80.1953 81.2896C79.75 81.8442 79.4102 82.52 79.1758 83.3169C78.9414 84.106 78.8242 84.9966 78.8242 85.9888C78.8242 87.3169 79.0117 88.4614 79.3867 89.4224C79.7617 90.3755 80.332 91.1099 81.0977 91.6255C81.8633 92.1333 82.832 92.3872 84.0039 92.3872C84.7305 92.3872 85.4375 92.3169 86.125 92.1763C86.8125 92.0356 87.5234 91.8442 88.2578 91.6021V93.9927C87.5625 94.2661 86.8594 94.4653 86.1484 94.5903C85.4375 94.7153 84.6172 94.7778 83.6875 94.7778C81.9375 94.7778 80.4844 94.4146 79.3281 93.688C78.1797 92.9614 77.3203 91.938 76.75 90.6177C76.1875 89.2974 75.9062 87.7505 75.9062 85.9771C75.9062 84.6802 76.0859 83.4927 76.4453 82.4146C76.8047 81.3364 77.3281 80.4067 78.0156 79.6255C78.7031 78.8364 79.5508 78.231 80.5586 77.8091C81.5742 77.3794 82.7344 77.1646 84.0391 77.1646C84.8984 77.1646 85.7422 77.2622 86.5703 77.4575C87.4062 77.645 88.1797 77.9146 88.8906 78.2661L87.9062 80.5864C87.3125 80.3052 86.6914 80.063 86.043 79.8599C85.3945 79.6567 84.7227 79.5552 84.0273 79.5552ZM99.2383 79.5552C98.418 79.5552 97.6836 79.7036 97.0352 80.0005C96.3945 80.2974 95.8516 80.7271 95.4062 81.2896C94.9609 81.8442 94.6211 82.52 94.3867 83.3169C94.1523 84.106 94.0352 84.9966 94.0352 85.9888C94.0352 87.3169 94.2227 88.4614 94.5977 89.4224C94.9727 90.3755 95.543 91.1099 96.3086 91.6255C97.0742 92.1333 98.043 92.3872 99.2148 92.3872C99.9414 92.3872 100.648 92.3169 101.336 92.1763C102.023 92.0356 102.734 91.8442 103.469 91.6021V93.9927C102.773 94.2661 102.07 94.4653 101.359 94.5903C100.648 94.7153 99.8281 94.7778 98.8984 94.7778C97.1484 94.7778 95.6953 94.4146 94.5391 93.688C93.3906 92.9614 92.5312 91.938 91.9609 90.6177C91.3984 89.2974 91.1172 87.7505 91.1172 85.9771C91.1172 84.6802 91.2969 83.4927 91.6562 82.4146C92.0156 81.3364 92.5391 80.4067 93.2266 79.6255C93.9141 78.8364 94.7617 78.231 95.7695 77.8091C96.7852 77.3794 97.9453 77.1646 99.25 77.1646C100.109 77.1646 100.953 77.2622 101.781 77.4575C102.617 77.645 103.391 77.9146 104.102 78.2661L103.117 80.5864C102.523 80.3052 101.902 80.063 101.254 79.8599C100.605 79.6567 99.9336 79.5552 99.2383 79.5552ZM111.754 77.1763C112.746 77.1763 113.641 77.3325 114.438 77.645C115.234 77.9497 115.867 78.4067 116.336 79.0161C116.805 79.6255 117.039 80.3794 117.039 81.2778C117.039 81.9731 116.895 82.5786 116.605 83.0942C116.324 83.6099 115.941 84.063 115.457 84.4536C114.973 84.8364 114.43 85.1763 113.828 85.4731C114.5 85.8013 115.117 86.1802 115.68 86.6099C116.25 87.0317 116.707 87.5278 117.051 88.0981C117.402 88.6685 117.578 89.3364 117.578 90.1021C117.578 91.063 117.332 91.895 116.84 92.5981C116.355 93.2935 115.68 93.8325 114.812 94.2153C113.945 94.5903 112.934 94.7778 111.777 94.7778C110.535 94.7778 109.477 94.5942 108.602 94.2271C107.727 93.8599 107.062 93.3364 106.609 92.6567C106.156 91.9692 105.93 91.1489 105.93 90.1958C105.93 89.4067 106.086 88.7231 106.398 88.145C106.711 87.5669 107.129 87.0669 107.652 86.645C108.184 86.2231 108.766 85.8677 109.398 85.5786C108.859 85.2583 108.367 84.8989 107.922 84.5005C107.477 84.0942 107.121 83.6294 106.855 83.106C106.598 82.5747 106.469 81.9614 106.469 81.2661C106.469 80.3755 106.707 79.6294 107.184 79.0278C107.66 78.4185 108.297 77.9575 109.094 77.645C109.898 77.3325 110.785 77.1763 111.754 77.1763ZM108.555 90.0903C108.555 90.8403 108.82 91.4575 109.352 91.9419C109.883 92.4263 110.676 92.6685 111.73 92.6685C112.777 92.6685 113.574 92.4302 114.121 91.9536C114.668 91.4771 114.941 90.8481 114.941 90.0669C114.941 89.5669 114.801 89.1255 114.52 88.7427C114.246 88.3599 113.875 88.02 113.406 87.7231C112.945 87.4185 112.434 87.1372 111.871 86.8794L111.496 86.7271C110.887 86.9849 110.363 87.2778 109.926 87.606C109.488 87.9263 109.148 88.2896 108.906 88.6958C108.672 89.1021 108.555 89.5669 108.555 90.0903ZM111.73 79.2974C110.973 79.2974 110.348 79.4849 109.855 79.8599C109.371 80.2271 109.129 80.7583 109.129 81.4536C109.129 81.9458 109.246 82.3677 109.48 82.7192C109.723 83.0708 110.047 83.3755 110.453 83.6333C110.859 83.8833 111.309 84.1177 111.801 84.3364C112.277 84.1255 112.707 83.895 113.09 83.645C113.48 83.3872 113.789 83.0825 114.016 82.731C114.25 82.3716 114.367 81.9419 114.367 81.4419C114.367 80.7544 114.121 80.2271 113.629 79.8599C113.145 79.4849 112.512 79.2974 111.73 79.2974Z" fill="#141414"/>
</svg>
