<svg width="682" height="430" viewBox="0 0 682 430" fill="none" xmlns="http://www.w3.org/2000/svg">
<rect y="0.543457" width="682" height="429" rx="8" fill="#00C14F"/>
<path d="M25.1641 192.739H31.5625V201.34C30.6641 201.637 29.7344 201.868 28.7734 202.032C27.8125 202.196 26.7344 202.278 25.5391 202.278C23.7969 202.278 22.3203 201.934 21.1094 201.247C19.9062 200.551 18.9922 199.547 18.3672 198.235C17.7422 196.915 17.4297 195.325 17.4297 193.465C17.4297 191.676 17.7773 190.125 18.4727 188.813C19.168 187.493 20.1797 186.473 21.5078 185.754C22.8359 185.028 24.4453 184.665 26.3359 184.665C27.2656 184.665 28.1641 184.758 29.0312 184.946C29.9062 185.125 30.707 185.375 31.4336 185.696L30.4492 188.016C29.8711 187.743 29.2227 187.512 28.5039 187.325C27.7852 187.137 27.0391 187.043 26.2656 187.043C25.0391 187.043 23.9805 187.309 23.0898 187.84C22.207 188.372 21.5273 189.122 21.0508 190.09C20.5742 191.051 20.3359 192.188 20.3359 193.5C20.3359 194.774 20.5273 195.891 20.9102 196.852C21.293 197.813 21.8906 198.563 22.7031 199.102C23.5234 199.633 24.582 199.899 25.8789 199.899C26.5273 199.899 27.0781 199.864 27.5312 199.793C27.9844 199.723 28.4023 199.645 28.7852 199.559V195.141H25.1641V192.739ZM41.957 188.825C42.1758 188.825 42.4141 188.836 42.6719 188.86C42.9297 188.883 43.1523 188.915 43.3398 188.954L43.082 191.532C42.918 191.485 42.7148 191.45 42.4727 191.426C42.2383 191.403 42.0273 191.391 41.8398 191.391C41.3477 191.391 40.8789 191.473 40.4336 191.637C39.9883 191.793 39.5938 192.036 39.25 192.364C38.9062 192.684 38.6367 193.086 38.4414 193.571C38.2461 194.055 38.1484 194.618 38.1484 195.258V202.043H35.3828V189.071H37.5391L37.9141 191.356H38.043C38.3008 190.895 38.6211 190.473 39.0039 190.09C39.3867 189.708 39.8242 189.403 40.3164 189.176C40.8164 188.942 41.3633 188.825 41.957 188.825ZM50.9102 188.825C52.0664 188.825 53.0586 189.063 53.8867 189.54C54.7148 190.016 55.3516 190.692 55.7969 191.567C56.2422 192.442 56.4648 193.489 56.4648 194.708V196.184H47.8047C47.8359 197.442 48.1719 198.411 48.8125 199.09C49.4609 199.77 50.3672 200.11 51.5312 200.11C52.3594 200.11 53.1016 200.032 53.7578 199.875C54.4219 199.711 55.1055 199.473 55.8086 199.161V201.399C55.1602 201.704 54.5 201.926 53.8281 202.067C53.1562 202.208 52.3516 202.278 51.4141 202.278C50.1406 202.278 49.0195 202.032 48.0508 201.54C47.0898 201.04 46.3359 200.297 45.7891 199.313C45.25 198.329 44.9805 197.106 44.9805 195.645C44.9805 194.192 45.2266 192.958 45.7188 191.942C46.2109 190.926 46.9023 190.153 47.793 189.622C48.6836 189.09 49.7227 188.825 50.9102 188.825ZM50.9102 190.899C50.043 190.899 49.3398 191.18 48.8008 191.743C48.2695 192.305 47.957 193.129 47.8633 194.215H53.7695C53.7617 193.567 53.6523 192.993 53.4414 192.493C53.2383 191.993 52.9258 191.602 52.5039 191.321C52.0898 191.04 51.5586 190.899 50.9102 190.899ZM64.7383 188.825C65.8945 188.825 66.8867 189.063 67.7148 189.54C68.543 190.016 69.1797 190.692 69.625 191.567C70.0703 192.442 70.293 193.489 70.293 194.708V196.184H61.6328C61.6641 197.442 62 198.411 62.6406 199.09C63.2891 199.77 64.1953 200.11 65.3594 200.11C66.1875 200.11 66.9297 200.032 67.5859 199.875C68.25 199.711 68.9336 199.473 69.6367 199.161V201.399C68.9883 201.704 68.3281 201.926 67.6562 202.067C66.9844 202.208 66.1797 202.278 65.2422 202.278C63.9688 202.278 62.8477 202.032 61.8789 201.54C60.918 201.04 60.1641 200.297 59.6172 199.313C59.0781 198.329 58.8086 197.106 58.8086 195.645C58.8086 194.192 59.0547 192.958 59.5469 191.942C60.0391 190.926 60.7305 190.153 61.6211 189.622C62.5117 189.09 63.5508 188.825 64.7383 188.825ZM64.7383 190.899C63.8711 190.899 63.168 191.18 62.6289 191.743C62.0977 192.305 61.7852 193.129 61.6914 194.215H67.5977C67.5898 193.567 67.4805 192.993 67.2695 192.493C67.0664 191.993 66.7539 191.602 66.332 191.321C65.918 191.04 65.3867 190.899 64.7383 190.899ZM80.1602 188.825C81.6211 188.825 82.7578 189.204 83.5703 189.961C84.3906 190.711 84.8008 191.918 84.8008 193.583V202.043H82.0469V194.098C82.0469 193.09 81.8398 192.336 81.4258 191.836C81.0117 191.329 80.3711 191.075 79.5039 191.075C78.2461 191.075 77.3711 191.461 76.8789 192.235C76.3945 193.008 76.1523 194.129 76.1523 195.598V202.043H73.3984V189.071H75.543L75.9297 190.829H76.082C76.3633 190.375 76.7109 190.004 77.125 189.715C77.5469 189.418 78.0156 189.196 78.5312 189.047C79.0547 188.899 79.5977 188.825 80.1602 188.825Z" fill="#141414"/>
<path d="M27.6016 235.825L26.9453 239.176H30.1094V241.133H26.5703L25.6211 246.043H23.5352L24.4961 241.133H21.5664L20.6406 246.043H18.6016L19.5039 241.133H16.5742V239.176H19.8789L20.5469 235.825H17.4414V233.868H20.8984L21.8359 228.922H23.9219L22.9844 233.868H25.9375L26.8867 228.922H28.9141L27.9766 233.868H30.9297V235.825H27.6016ZM21.9414 239.176H24.8711L25.5391 235.825H22.5977L21.9414 239.176ZM44.1953 237.465C44.1953 238.848 44.0859 240.086 43.8672 241.18C43.6562 242.266 43.3203 243.188 42.8594 243.946C42.3984 244.704 41.7969 245.282 41.0547 245.68C40.3125 246.079 39.4141 246.278 38.3594 246.278C37.0391 246.278 35.9492 245.93 35.0898 245.235C34.2305 244.532 33.5938 243.524 33.1797 242.211C32.7656 240.891 32.5586 239.309 32.5586 237.465C32.5586 235.622 32.7461 234.043 33.1211 232.731C33.5039 231.411 34.1211 230.399 34.9727 229.696C35.8242 228.993 36.9531 228.641 38.3594 228.641C39.6875 228.641 40.7812 228.993 41.6406 229.696C42.5078 230.391 43.1484 231.399 43.5625 232.719C43.9844 234.032 44.1953 235.614 44.1953 237.465ZM35.3359 237.465C35.3359 238.911 35.4297 240.118 35.6172 241.086C35.8125 242.055 36.1328 242.782 36.5781 243.266C37.0234 243.743 37.6172 243.981 38.3594 243.981C39.1016 243.981 39.6953 243.743 40.1406 243.266C40.5859 242.79 40.9062 242.067 41.1016 241.098C41.3047 240.129 41.4062 238.918 41.4062 237.465C41.4062 236.028 41.3086 234.825 41.1133 233.856C40.918 232.887 40.5977 232.161 40.1523 231.676C39.707 231.184 39.1094 230.938 38.3594 230.938C37.6094 230.938 37.0117 231.184 36.5664 231.676C36.1289 232.161 35.8125 232.887 35.6172 233.856C35.4297 234.825 35.3359 236.028 35.3359 237.465ZM57.9297 237.465C57.9297 238.848 57.8203 240.086 57.6016 241.18C57.3906 242.266 57.0547 243.188 56.5938 243.946C56.1328 244.704 55.5312 245.282 54.7891 245.68C54.0469 246.079 53.1484 246.278 52.0938 246.278C50.7734 246.278 49.6836 245.93 48.8242 245.235C47.9648 244.532 47.3281 243.524 46.9141 242.211C46.5 240.891 46.293 239.309 46.293 237.465C46.293 235.622 46.4805 234.043 46.8555 232.731C47.2383 231.411 47.8555 230.399 48.707 229.696C49.5586 228.993 50.6875 228.641 52.0938 228.641C53.4219 228.641 54.5156 228.993 55.375 229.696C56.2422 230.391 56.8828 231.399 57.2969 232.719C57.7188 234.032 57.9297 235.614 57.9297 237.465ZM49.0703 237.465C49.0703 238.911 49.1641 240.118 49.3516 241.086C49.5469 242.055 49.8672 242.782 50.3125 243.266C50.7578 243.743 51.3516 243.981 52.0938 243.981C52.8359 243.981 53.4297 243.743 53.875 243.266C54.3203 242.79 54.6406 242.067 54.8359 241.098C55.0391 240.129 55.1406 238.918 55.1406 237.465C55.1406 236.028 55.043 234.825 54.8477 233.856C54.6523 232.887 54.332 232.161 53.8867 231.676C53.4414 231.184 52.8438 230.938 52.0938 230.938C51.3438 230.938 50.7461 231.184 50.3008 231.676C49.8633 232.161 49.5469 232.887 49.3516 233.856C49.1641 234.825 49.0703 236.028 49.0703 237.465ZM68.5352 231.055C67.7148 231.055 66.9805 231.204 66.332 231.5C65.6914 231.797 65.1484 232.227 64.7031 232.79C64.2578 233.344 63.918 234.02 63.6836 234.817C63.4492 235.606 63.332 236.497 63.332 237.489C63.332 238.817 63.5195 239.961 63.8945 240.922C64.2695 241.875 64.8398 242.61 65.6055 243.125C66.3711 243.633 67.3398 243.887 68.5117 243.887C69.2383 243.887 69.9453 243.817 70.6328 243.676C71.3203 243.536 72.0312 243.344 72.7656 243.102V245.493C72.0703 245.766 71.3672 245.965 70.6562 246.09C69.9453 246.215 69.125 246.278 68.1953 246.278C66.4453 246.278 64.9922 245.915 63.8359 245.188C62.6875 244.461 61.8281 243.438 61.2578 242.118C60.6953 240.797 60.4141 239.25 60.4141 237.477C60.4141 236.18 60.5938 234.993 60.9531 233.915C61.3125 232.836 61.8359 231.907 62.5234 231.125C63.2109 230.336 64.0586 229.731 65.0664 229.309C66.082 228.879 67.2422 228.665 68.5469 228.665C69.4062 228.665 70.25 228.762 71.0781 228.958C71.9141 229.145 72.6875 229.415 73.3984 229.766L72.4141 232.086C71.8203 231.805 71.1992 231.563 70.5508 231.36C69.9023 231.157 69.2305 231.055 68.5352 231.055ZM83.3711 246.043H80.6055V235.016C80.6055 234.649 80.6094 234.282 80.6172 233.915C80.625 233.547 80.6328 233.188 80.6406 232.836C80.6562 232.485 80.6758 232.149 80.6992 231.829C80.5352 232.008 80.332 232.204 80.0898 232.415C79.8555 232.625 79.6055 232.844 79.3398 233.071L77.3711 234.641L75.9883 232.895L81.0742 228.911H83.3711V246.043ZM101.23 242.282H98.9102V246.043H96.1914V242.282H88.3984V240.196L96.2266 228.864H98.9102V239.997H101.23V242.282ZM96.1914 239.997V235.743C96.1914 235.391 96.1953 235.036 96.2031 234.676C96.2188 234.309 96.2344 233.958 96.25 233.622C96.2656 233.286 96.2812 232.977 96.2969 232.696C96.3125 232.407 96.3242 232.168 96.332 231.981H96.2383C96.0898 232.293 95.9258 232.614 95.7461 232.942C95.5664 233.262 95.375 233.575 95.1719 233.879L90.9531 239.997H96.1914ZM106.703 246.043H103.914V228.911H113.594V231.278H106.703V236.622H113.148V238.977H106.703V246.043Z" fill="#141414"/>
</svg>
