<svg width="686" height="458" viewBox="0 0 686 458" fill="none" xmlns="http://www.w3.org/2000/svg">
<rect y="0.543457" width="686" height="457" rx="8" fill="#FF5E09"/>
<path d="M33.4609 207.454C33.4609 208.774 33.293 209.977 32.957 211.063C32.6289 212.141 32.1328 213.071 31.4688 213.852C30.8047 214.625 29.9727 215.223 28.9727 215.645C27.9727 216.067 26.8008 216.278 25.457 216.278C24.0898 216.278 22.9023 216.067 21.8945 215.645C20.8945 215.223 20.0625 214.622 19.3984 213.84C18.7422 213.059 18.25 212.125 17.9219 211.04C17.5938 209.954 17.4297 208.75 17.4297 207.43C17.4297 205.665 17.7188 204.125 18.2969 202.813C18.8828 201.493 19.7695 200.469 20.957 199.743C22.1523 199.008 23.6602 198.641 25.4805 198.641C27.2617 198.641 28.7422 199.004 29.9219 199.731C31.1016 200.458 31.9844 201.481 32.5703 202.801C33.1641 204.114 33.4609 205.665 33.4609 207.454ZM20.3828 207.454C20.3828 208.774 20.5625 209.918 20.9219 210.887C21.2812 211.848 21.832 212.59 22.5742 213.114C23.3242 213.629 24.2852 213.887 25.457 213.887C26.6367 213.887 27.5977 213.629 28.3398 213.114C29.082 212.59 29.6289 211.848 29.9805 210.887C30.332 209.918 30.5078 208.774 30.5078 207.454C30.5078 205.446 30.1055 203.875 29.3008 202.743C28.5039 201.602 27.2305 201.032 25.4805 201.032C24.3086 201.032 23.3438 201.29 22.5859 201.805C21.8359 202.321 21.2812 203.059 20.9219 204.02C20.5625 204.973 20.3828 206.118 20.3828 207.454ZM43.4336 202.825C43.6523 202.825 43.8906 202.836 44.1484 202.86C44.4062 202.883 44.6289 202.915 44.8164 202.954L44.5586 205.532C44.3945 205.485 44.1914 205.45 43.9492 205.426C43.7148 205.403 43.5039 205.391 43.3164 205.391C42.8242 205.391 42.3555 205.473 41.9102 205.637C41.4648 205.793 41.0703 206.036 40.7266 206.364C40.3828 206.684 40.1133 207.086 39.918 207.571C39.7227 208.055 39.625 208.618 39.625 209.258V216.043H36.8594V203.071H39.0156L39.3906 205.356H39.5195C39.7773 204.895 40.0977 204.473 40.4805 204.09C40.8633 203.708 41.3008 203.403 41.793 203.176C42.293 202.942 42.8398 202.825 43.4336 202.825ZM52.3047 202.825C53.9453 202.825 55.1836 203.188 56.0195 203.915C56.8633 204.641 57.2852 205.774 57.2852 207.313V216.043H55.3281L54.8008 214.204H54.707C54.3398 214.672 53.9609 215.059 53.5703 215.364C53.1797 215.668 52.7266 215.895 52.2109 216.043C51.7031 216.2 51.082 216.278 50.3477 216.278C49.5742 216.278 48.8828 216.137 48.2734 215.856C47.6641 215.567 47.1836 215.129 46.832 214.543C46.4805 213.958 46.3047 213.215 46.3047 212.317C46.3047 210.981 46.8008 209.977 47.793 209.305C48.793 208.633 50.3008 208.262 52.3164 208.192L54.5664 208.11V207.43C54.5664 206.532 54.3555 205.891 53.9336 205.508C53.5195 205.125 52.9336 204.934 52.1758 204.934C51.5273 204.934 50.8984 205.028 50.2891 205.215C49.6797 205.403 49.0859 205.633 48.5078 205.907L47.6172 203.961C48.25 203.625 48.9688 203.352 49.7734 203.141C50.5859 202.93 51.4297 202.825 52.3047 202.825ZM54.5547 209.844L52.8789 209.903C51.5039 209.95 50.5391 210.184 49.9844 210.606C49.4297 211.028 49.1523 211.606 49.1523 212.34C49.1523 212.981 49.3438 213.45 49.7266 213.747C50.1094 214.036 50.6133 214.18 51.2383 214.18C52.1914 214.18 52.9805 213.911 53.6055 213.372C54.2383 212.825 54.5547 212.024 54.5547 210.969V209.844ZM67.9023 202.825C69.3633 202.825 70.5 203.204 71.3125 203.961C72.1328 204.711 72.543 205.918 72.543 207.583V216.043H69.7891V208.098C69.7891 207.09 69.582 206.336 69.168 205.836C68.7539 205.329 68.1133 205.075 67.2461 205.075C65.9883 205.075 65.1133 205.461 64.6211 206.235C64.1367 207.008 63.8945 208.129 63.8945 209.598V216.043H61.1406V203.071H63.2852L63.6719 204.829H63.8242C64.1055 204.375 64.4531 204.004 64.8672 203.715C65.2891 203.418 65.7578 203.196 66.2734 203.047C66.7969 202.899 67.3398 202.825 67.9023 202.825ZM80.1016 221.809C78.3438 221.809 76.9961 221.493 76.0586 220.86C75.1211 220.227 74.6523 219.34 74.6523 218.2C74.6523 217.403 74.9023 216.727 75.4023 216.172C75.9023 215.625 76.6172 215.247 77.5469 215.036C77.1953 214.879 76.8906 214.637 76.6328 214.309C76.3828 213.973 76.2578 213.602 76.2578 213.196C76.2578 212.711 76.3945 212.297 76.668 211.954C76.9414 211.61 77.3516 211.278 77.8984 210.958C77.2188 210.668 76.6719 210.2 76.2578 209.551C75.8516 208.895 75.6484 208.125 75.6484 207.243C75.6484 206.305 75.8477 205.508 76.2461 204.852C76.6445 204.188 77.2266 203.684 77.9922 203.34C78.7578 202.989 79.6836 202.813 80.7695 202.813C81.0039 202.813 81.2578 202.829 81.5312 202.86C81.8125 202.883 82.0703 202.915 82.3047 202.954C82.5469 202.985 82.7305 203.02 82.8555 203.059H87.3438V204.594L85.1406 205.004C85.3516 205.301 85.5195 205.641 85.6445 206.024C85.7695 206.399 85.832 206.809 85.832 207.254C85.832 208.598 85.3672 209.657 84.4375 210.43C83.5156 211.196 82.2422 211.579 80.6172 211.579C80.2266 211.563 79.8477 211.532 79.4805 211.485C79.1992 211.657 78.9844 211.848 78.8359 212.059C78.6875 212.262 78.6133 212.493 78.6133 212.75C78.6133 212.961 78.6875 213.133 78.8359 213.266C78.9844 213.391 79.2031 213.485 79.4922 213.547C79.7891 213.61 80.1484 213.641 80.5703 213.641H82.8086C84.2305 213.641 85.3164 213.942 86.0664 214.543C86.8164 215.145 87.1914 216.028 87.1914 217.192C87.1914 218.668 86.582 219.805 85.3633 220.602C84.1445 221.407 82.3906 221.809 80.1016 221.809ZM80.207 219.875C81.168 219.875 81.9766 219.782 82.6328 219.594C83.2891 219.407 83.7852 219.137 84.1211 218.786C84.457 218.442 84.625 218.032 84.625 217.555C84.625 217.133 84.5195 216.809 84.3086 216.583C84.0977 216.356 83.7812 216.2 83.3594 216.114C82.9375 216.028 82.4141 215.985 81.7891 215.985H79.75C79.2422 215.985 78.793 216.063 78.4023 216.219C78.0117 216.383 77.707 216.618 77.4883 216.922C77.2773 217.227 77.1719 217.594 77.1719 218.024C77.1719 218.618 77.4336 219.075 77.957 219.395C78.4883 219.715 79.2383 219.875 80.207 219.875ZM80.7461 209.774C81.5508 209.774 82.1484 209.555 82.5391 209.118C82.9297 208.672 83.125 208.047 83.125 207.243C83.125 206.368 82.9219 205.711 82.5156 205.274C82.1172 204.836 81.5234 204.618 80.7344 204.618C79.9609 204.618 79.3711 204.84 78.9648 205.286C78.5664 205.731 78.3672 206.391 78.3672 207.266C78.3672 208.055 78.5664 208.672 78.9648 209.118C79.3711 209.555 79.9648 209.774 80.7461 209.774ZM94.8789 202.825C96.0352 202.825 97.0273 203.063 97.8555 203.54C98.6836 204.016 99.3203 204.692 99.7656 205.567C100.211 206.442 100.434 207.489 100.434 208.708V210.184H91.7734C91.8047 211.442 92.1406 212.411 92.7812 213.09C93.4297 213.77 94.3359 214.11 95.5 214.11C96.3281 214.11 97.0703 214.032 97.7266 213.875C98.3906 213.711 99.0742 213.473 99.7773 213.161V215.399C99.1289 215.704 98.4688 215.926 97.7969 216.067C97.125 216.208 96.3203 216.278 95.3828 216.278C94.1094 216.278 92.9883 216.032 92.0195 215.54C91.0586 215.04 90.3047 214.297 89.7578 213.313C89.2188 212.329 88.9492 211.106 88.9492 209.645C88.9492 208.192 89.1953 206.958 89.6875 205.942C90.1797 204.926 90.8711 204.153 91.7617 203.622C92.6523 203.09 93.6914 202.825 94.8789 202.825ZM94.8789 204.899C94.0117 204.899 93.3086 205.18 92.7695 205.743C92.2383 206.305 91.9258 207.129 91.832 208.215H97.7383C97.7305 207.567 97.6211 206.993 97.4102 206.493C97.207 205.993 96.8945 205.602 96.4727 205.321C96.0586 205.04 95.5273 204.899 94.8789 204.899Z" fill="#141414"/>
<path d="M27.6016 249.825L26.9453 253.176H30.1094V255.133H26.5703L25.6211 260.043H23.5352L24.4961 255.133H21.5664L20.6406 260.043H18.6016L19.5039 255.133H16.5742V253.176H19.8789L20.5469 249.825H17.4414V247.868H20.8984L21.8359 242.922H23.9219L22.9844 247.868H25.9375L26.8867 242.922H28.9141L27.9766 247.868H30.9297V249.825H27.6016ZM21.9414 253.176H24.8711L25.5391 249.825H22.5977L21.9414 253.176ZM36.5547 260.043H33.7656V242.911H43.4453V245.278H36.5547V250.622H43V252.977H36.5547V260.043ZM49.3516 260.043H46.5625V242.911H56.2422V245.278H49.3516V250.622H55.7969V252.977H49.3516V260.043ZM64.0117 249.333C65.1133 249.333 66.082 249.532 66.918 249.93C67.7617 250.321 68.418 250.899 68.8867 251.665C69.3555 252.422 69.5898 253.352 69.5898 254.454C69.5898 255.657 69.3359 256.696 68.8281 257.571C68.3203 258.438 67.5742 259.106 66.5898 259.575C65.6055 260.043 64.4062 260.278 62.9922 260.278C62.0938 260.278 61.2539 260.2 60.4727 260.043C59.6992 259.887 59.0312 259.653 58.4688 259.34V256.856C59.0547 257.184 59.7578 257.454 60.5781 257.665C61.3984 257.868 62.1836 257.969 62.9336 257.969C63.7305 257.969 64.4141 257.852 64.9844 257.618C65.5547 257.383 65.9922 257.024 66.2969 256.54C66.6094 256.055 66.7656 255.442 66.7656 254.7C66.7656 253.715 66.4492 252.958 65.8164 252.426C65.1914 251.887 64.2109 251.618 62.875 251.618C62.4062 251.618 61.9062 251.661 61.375 251.747C60.8516 251.825 60.4141 251.911 60.0625 252.004L58.8555 251.29L59.5 242.911H68.4062V245.336H61.9258L61.5508 249.602C61.832 249.54 62.168 249.481 62.5586 249.426C62.9492 249.364 63.4336 249.333 64.0117 249.333ZM82.7969 260.043H73.0938V242.911H82.7969V245.278H75.9062V249.93H82.3633V252.286H75.9062V257.665H82.7969V260.043ZM96.9297 251.465C96.9297 252.848 96.8203 254.086 96.6016 255.18C96.3906 256.266 96.0547 257.188 95.5938 257.946C95.1328 258.704 94.5312 259.282 93.7891 259.68C93.0469 260.079 92.1484 260.278 91.0938 260.278C89.7734 260.278 88.6836 259.93 87.8242 259.235C86.9648 258.532 86.3281 257.524 85.9141 256.211C85.5 254.891 85.293 253.309 85.293 251.465C85.293 249.622 85.4805 248.043 85.8555 246.731C86.2383 245.411 86.8555 244.399 87.707 243.696C88.5586 242.993 89.6875 242.641 91.0938 242.641C92.4219 242.641 93.5156 242.993 94.375 243.696C95.2422 244.391 95.8828 245.399 96.2969 246.719C96.7188 248.032 96.9297 249.614 96.9297 251.465ZM88.0703 251.465C88.0703 252.911 88.1641 254.118 88.3516 255.086C88.5469 256.055 88.8672 256.782 89.3125 257.266C89.7578 257.743 90.3516 257.981 91.0938 257.981C91.8359 257.981 92.4297 257.743 92.875 257.266C93.3203 256.79 93.6406 256.067 93.8359 255.098C94.0391 254.129 94.1406 252.918 94.1406 251.465C94.1406 250.028 94.043 248.825 93.8477 247.856C93.6523 246.887 93.332 246.161 92.8867 245.676C92.4414 245.184 91.8438 244.938 91.0938 244.938C90.3438 244.938 89.7461 245.184 89.3008 245.676C88.8633 246.161 88.5469 246.887 88.3516 247.856C88.1641 248.825 88.0703 250.028 88.0703 251.465ZM110.641 250.211C110.641 251.227 110.566 252.223 110.418 253.2C110.277 254.176 110.027 255.09 109.668 255.942C109.316 256.793 108.828 257.547 108.203 258.204C107.586 258.852 106.805 259.36 105.859 259.727C104.914 260.094 103.773 260.278 102.438 260.278C102.102 260.278 101.711 260.258 101.266 260.219C100.828 260.188 100.469 260.141 100.188 260.079V257.782C100.484 257.868 100.816 257.938 101.184 257.993C101.559 258.04 101.93 258.063 102.297 258.063C103.742 258.063 104.867 257.793 105.672 257.254C106.484 256.715 107.059 255.973 107.395 255.028C107.738 254.083 107.934 253.008 107.98 251.805H107.84C107.613 252.18 107.328 252.524 106.984 252.836C106.641 253.141 106.215 253.387 105.707 253.575C105.199 253.754 104.582 253.844 103.855 253.844C102.871 253.844 102.012 253.637 101.277 253.223C100.551 252.809 99.9844 252.208 99.5781 251.418C99.1797 250.622 98.9805 249.665 98.9805 248.547C98.9805 247.336 99.2109 246.293 99.6719 245.418C100.133 244.543 100.785 243.872 101.629 243.403C102.473 242.926 103.465 242.688 104.605 242.688C105.465 242.688 106.258 242.844 106.984 243.157C107.719 243.461 108.359 243.93 108.906 244.563C109.453 245.188 109.879 245.973 110.184 246.918C110.488 247.856 110.641 248.954 110.641 250.211ZM104.641 244.961C103.773 244.961 103.066 245.254 102.52 245.84C101.973 246.418 101.699 247.309 101.699 248.512C101.699 249.489 101.934 250.262 102.402 250.833C102.871 251.403 103.59 251.688 104.559 251.688C105.23 251.688 105.809 251.551 106.293 251.278C106.785 250.997 107.164 250.641 107.43 250.211C107.703 249.782 107.84 249.344 107.84 248.899C107.84 248.438 107.773 247.977 107.641 247.516C107.516 247.055 107.32 246.633 107.055 246.25C106.789 245.868 106.453 245.559 106.047 245.325C105.648 245.083 105.18 244.961 104.641 244.961Z" fill="#141414"/>
</svg>
