<svg width="682" height="458" viewBox="0 0 682 458" fill="none" xmlns="http://www.w3.org/2000/svg">
<rect y="0.543457" width="682" height="457" rx="8" fill="#FFDA01"/>
<path d="M23.1016 206.727L27.168 198.911H30.2031L24.5078 209.387V216.043H21.707V209.493L16 198.911H19.0586L23.1016 206.727ZM37.3398 202.825C38.4961 202.825 39.4883 203.063 40.3164 203.54C41.1445 204.016 41.7812 204.692 42.2266 205.567C42.6719 206.442 42.8945 207.489 42.8945 208.708V210.184H34.2344C34.2656 211.442 34.6016 212.411 35.2422 213.09C35.8906 213.77 36.7969 214.11 37.9609 214.11C38.7891 214.11 39.5312 214.032 40.1875 213.875C40.8516 213.711 41.5352 213.473 42.2383 213.161V215.399C41.5898 215.704 40.9297 215.926 40.2578 216.067C39.5859 216.208 38.7812 216.278 37.8438 216.278C36.5703 216.278 35.4492 216.032 34.4805 215.54C33.5195 215.04 32.7656 214.297 32.2188 213.313C31.6797 212.329 31.4102 211.106 31.4102 209.645C31.4102 208.192 31.6562 206.958 32.1484 205.942C32.6406 204.926 33.332 204.153 34.2227 203.622C35.1133 203.09 36.1523 202.825 37.3398 202.825ZM37.3398 204.899C36.4727 204.899 35.7695 205.18 35.2305 205.743C34.6992 206.305 34.3867 207.129 34.293 208.215H40.1992C40.1914 207.567 40.082 206.993 39.8711 206.493C39.668 205.993 39.3555 205.602 38.9336 205.321C38.5195 205.04 37.9883 204.899 37.3398 204.899ZM48.7656 216.043H46V197.809H48.7656V216.043ZM55.4688 216.043H52.7031V197.809H55.4688V216.043ZM70.8906 209.528C70.8906 210.606 70.75 211.563 70.4688 212.399C70.1875 213.235 69.7773 213.942 69.2383 214.52C68.6992 215.09 68.0508 215.528 67.293 215.833C66.5352 216.129 65.6797 216.278 64.7266 216.278C63.8359 216.278 63.0195 216.129 62.2773 215.833C61.5352 215.528 60.8906 215.09 60.3438 214.52C59.8047 213.942 59.3867 213.235 59.0898 212.399C58.793 211.563 58.6445 210.606 58.6445 209.528C58.6445 208.098 58.8906 206.887 59.3828 205.895C59.8828 204.895 60.5938 204.133 61.5156 203.61C62.4375 203.086 63.5352 202.825 64.8086 202.825C66.0039 202.825 67.0586 203.086 67.9727 203.61C68.8867 204.133 69.6016 204.895 70.1172 205.895C70.6328 206.895 70.8906 208.106 70.8906 209.528ZM61.4805 209.528C61.4805 210.473 61.5938 211.282 61.8203 211.954C62.0547 212.625 62.4141 213.141 62.8984 213.5C63.3828 213.852 64.0078 214.028 64.7734 214.028C65.5391 214.028 66.1641 213.852 66.6484 213.5C67.1328 213.141 67.4883 212.625 67.7148 211.954C67.9414 211.282 68.0547 210.473 68.0547 209.528C68.0547 208.583 67.9414 207.782 67.7148 207.125C67.4883 206.461 67.1328 205.958 66.6484 205.614C66.1641 205.262 65.5352 205.086 64.7617 205.086C63.6211 205.086 62.7891 205.469 62.2656 206.235C61.7422 207 61.4805 208.098 61.4805 209.528ZM84.6602 216.032L83.0195 209.997C82.9414 209.7 82.8477 209.34 82.7383 208.918C82.6289 208.497 82.5195 208.063 82.4102 207.618C82.3008 207.165 82.1992 206.747 82.1055 206.364C82.0195 205.981 81.9531 205.684 81.9062 205.473H81.8125C81.7734 205.684 81.7109 205.981 81.625 206.364C81.5391 206.747 81.4414 207.165 81.332 207.618C81.2227 208.071 81.1133 208.512 81.0039 208.942C80.9023 209.372 80.8086 209.739 80.7227 210.043L79 216.032H75.9766L72.3438 203.059H75.1328L76.8203 209.504C76.9297 209.942 77.0352 210.415 77.1367 210.922C77.2461 211.43 77.3398 211.915 77.418 212.375C77.4961 212.836 77.5547 213.215 77.5938 213.512H77.6875C77.7188 213.301 77.7617 213.036 77.8164 212.715C77.8711 212.387 77.9336 212.047 78.0039 211.696C78.0742 211.336 78.1445 211 78.2148 210.688C78.2852 210.368 78.3516 210.11 78.4141 209.915L80.4062 203.059H83.418L85.3281 209.915C85.4141 210.211 85.5078 210.586 85.6094 211.04C85.7109 211.485 85.8008 211.934 85.8789 212.387C85.9648 212.833 86.0195 213.204 86.043 213.5H86.1367C86.168 213.235 86.2227 212.875 86.3008 212.422C86.3867 211.961 86.4844 211.473 86.5938 210.958C86.7031 210.434 86.8164 209.95 86.9336 209.504L88.6562 203.059H91.3984L87.7422 216.032H84.6602Z" fill="#141414"/>
<path d="M27.6016 249.825L26.9453 253.176H30.1094V255.133H26.5703L25.6211 260.043H23.5352L24.4961 255.133H21.5664L20.6406 260.043H18.6016L19.5039 255.133H16.5742V253.176H19.8789L20.5469 249.825H17.4414V247.868H20.8984L21.8359 242.922H23.9219L22.9844 247.868H25.9375L26.8867 242.922H28.9141L27.9766 247.868H30.9297V249.825H27.6016ZM21.9414 253.176H24.8711L25.5391 249.825H22.5977L21.9414 253.176ZM36.5547 260.043H33.7656V242.911H43.4453V245.278H36.5547V250.622H43V252.977H36.5547V260.043ZM49.3516 260.043H46.5625V242.911H56.2422V245.278H49.3516V250.622H55.7969V252.977H49.3516V260.043ZM73.2695 251.313C73.2695 253.243 72.9102 254.856 72.1914 256.153C71.4727 257.442 70.4297 258.415 69.0625 259.071C67.6953 259.719 66.0469 260.043 64.1172 260.043H59.3594V242.911H64.6328C66.4062 242.911 67.9375 243.231 69.2266 243.872C70.5156 244.504 71.5117 245.446 72.2148 246.696C72.918 247.938 73.2695 249.477 73.2695 251.313ZM70.3398 251.395C70.3398 249.989 70.1172 248.833 69.6719 247.926C69.2344 247.02 68.5859 246.348 67.7266 245.911C66.875 245.465 65.8242 245.243 64.5742 245.243H62.1719V257.688H64.1641C66.2344 257.688 67.7812 257.161 68.8047 256.106C69.8281 255.051 70.3398 253.481 70.3398 251.395ZM87.5781 260.043L85.9023 255.286H79.3516L77.6758 260.043H74.7109L81.0859 242.84H84.2031L90.5664 260.043H87.5781ZM85.1758 252.872L83.5469 248.184C83.4844 247.981 83.3945 247.696 83.2773 247.329C83.1602 246.954 83.043 246.575 82.9258 246.192C82.8086 245.801 82.7109 245.473 82.6328 245.208C82.5547 245.528 82.457 245.887 82.3398 246.286C82.2305 246.676 82.1211 247.043 82.0117 247.387C81.9102 247.731 81.832 247.997 81.7773 248.184L80.1367 252.872H85.1758ZM103.258 251.465C103.258 252.848 103.148 254.086 102.93 255.18C102.719 256.266 102.383 257.188 101.922 257.946C101.461 258.704 100.859 259.282 100.117 259.68C99.375 260.079 98.4766 260.278 97.4219 260.278C96.1016 260.278 95.0117 259.93 94.1523 259.235C93.293 258.532 92.6562 257.524 92.2422 256.211C91.8281 254.891 91.6211 253.309 91.6211 251.465C91.6211 249.622 91.8086 248.043 92.1836 246.731C92.5664 245.411 93.1836 244.399 94.0352 243.696C94.8867 242.993 96.0156 242.641 97.4219 242.641C98.75 242.641 99.8438 242.993 100.703 243.696C101.57 244.391 102.211 245.399 102.625 246.719C103.047 248.032 103.258 249.614 103.258 251.465ZM94.3984 251.465C94.3984 252.911 94.4922 254.118 94.6797 255.086C94.875 256.055 95.1953 256.782 95.6406 257.266C96.0859 257.743 96.6797 257.981 97.4219 257.981C98.1641 257.981 98.7578 257.743 99.2031 257.266C99.6484 256.79 99.9688 256.067 100.164 255.098C100.367 254.129 100.469 252.918 100.469 251.465C100.469 250.028 100.371 248.825 100.176 247.856C99.9805 246.887 99.6602 246.161 99.2148 245.676C98.7695 245.184 98.1719 244.938 97.4219 244.938C96.6719 244.938 96.0742 245.184 95.6289 245.676C95.1914 246.161 94.875 246.887 94.6797 247.856C94.4922 248.825 94.3984 250.028 94.3984 251.465ZM113.488 260.043H110.723V249.016C110.723 248.649 110.727 248.282 110.734 247.915C110.742 247.547 110.75 247.188 110.758 246.836C110.773 246.485 110.793 246.149 110.816 245.829C110.652 246.008 110.449 246.204 110.207 246.415C109.973 246.625 109.723 246.844 109.457 247.071L107.488 248.641L106.105 246.895L111.191 242.911H113.488V260.043Z" fill="#141414"/>
</svg>
