<svg width="467" height="313" viewBox="0 0 467 313" fill="none" xmlns="http://www.w3.org/2000/svg">
<path d="M43.2908 95.6303C50.9903 82.3049 70.2255 82.3049 77.925 95.6303L95.7583 126.494C103.462 139.827 93.8403 156.5 78.4412 156.5H42.7746C27.3755 156.5 17.7535 139.827 25.4575 126.494L43.2908 95.6303Z" fill="#FF5E09"/>
<path d="M43.2908 179.15C50.9903 192.475 70.2255 192.475 77.925 179.15L95.7583 148.286C103.462 134.953 93.8403 118.28 78.4412 118.28H42.7746C27.3755 118.28 17.7535 134.953 25.4575 148.286L43.2908 179.15Z" fill="#FF5E09"/>
<path d="M130.056 95.6303C137.755 82.3049 156.991 82.3049 164.69 95.6303L182.523 126.494C190.227 139.827 180.605 156.5 165.206 156.5H129.54C114.141 156.5 104.518 139.827 112.223 126.494L130.056 95.6303Z" fill="#FFDA01"/>
<path d="M130.056 179.15C137.755 192.475 156.991 192.475 164.69 179.15L182.523 148.286C190.227 134.953 180.605 118.28 165.206 118.28H129.54C114.141 118.28 104.518 134.953 112.223 148.286L130.056 179.15Z" fill="#FFDA01"/>
<path d="M216.183 95.6303C223.882 82.3049 243.118 82.3049 250.817 95.6303L268.65 126.494C276.354 139.827 266.732 156.5 251.333 156.5H215.667C200.268 156.5 190.646 139.827 198.35 126.494L216.183 95.6303Z" fill="#2B5FFC"/>
<path d="M216.183 179.15C223.882 192.475 243.118 192.475 250.817 179.15L268.65 148.286C276.354 134.953 266.732 118.28 251.333 118.28H215.667C200.268 118.28 190.646 134.953 198.35 148.286L216.183 179.15Z" fill="#2B5FFC"/>
<path d="M302.948 95.6303C310.647 82.3049 329.883 82.3049 337.582 95.6303L355.415 126.494C363.119 139.827 353.497 156.5 338.098 156.5H302.432C287.033 156.5 277.411 139.827 285.115 126.494L302.948 95.6303Z" fill="#00C14F"/>
<path d="M302.948 179.15C310.647 192.475 329.883 192.475 337.582 179.15L355.415 148.286C363.119 134.953 353.497 118.28 338.098 118.28H302.432C287.033 118.28 277.411 134.953 285.115 148.286L302.948 179.15Z" fill="#00C14F"/>
<path d="M389.075 95.6303C396.775 82.3049 416.01 82.3049 423.709 95.6303L441.542 126.494C449.247 139.827 439.624 156.5 424.225 156.5H388.559C373.16 156.5 363.538 139.827 371.242 126.494L389.075 95.6303Z" fill="#9A41FF"/>
<path d="M389.075 179.15C396.775 192.475 416.01 192.475 423.709 179.15L441.542 148.286C449.247 134.953 439.624 118.28 424.225 118.28H388.559C373.16 118.28 363.538 134.953 371.242 148.286L389.075 179.15Z" fill="#9A41FF"/>
<ellipse cx="103.033" cy="32.8299" rx="32.8559" ry="32.8299" fill="#2B5FFC"/>
<ellipse cx="103.033" cy="241.95" rx="32.8559" ry="32.8299" fill="#2B5FFC"/>
<ellipse cx="275.288" cy="32.8299" rx="32.8559" ry="32.8299" fill="#FF5E09"/>
<ellipse cx="275.288" cy="241.95" rx="32.8559" ry="32.8299" fill="#FF5E09"/>
<ellipse cx="189.161" cy="32.8299" rx="32.8559" ry="32.8299" fill="#9A41FF"/>
<ellipse cx="189.161" cy="241.95" rx="32.8559" ry="32.8299" fill="#9A41FF"/>
<ellipse cx="361.415" cy="32.8299" rx="32.8559" ry="32.8299" fill="#FFDA01"/>
<ellipse cx="361.415" cy="241.95" rx="32.8559" ry="32.8299" fill="#FFDA01"/>
</svg>
