<svg width="441" height="261" viewBox="0 0 441 261" fill="none" xmlns="http://www.w3.org/2000/svg">
<rect width="441" height="261" rx="8" fill="#EAEFFF"/>
<rect x="34.5" y="76" width="372" height="109" rx="54.5" fill="#FF5E09"/>
<path d="M134.09 131.903C134.09 135.682 133.402 138.841 132.025 141.381C130.648 143.905 128.652 145.81 126.035 147.095C123.435 148.365 120.275 149 116.558 149H107.447V115.449H117.567C120.979 115.449 123.916 116.076 126.38 117.331C128.843 118.57 130.74 120.414 132.071 122.861C133.417 125.294 134.09 128.308 134.09 131.903ZM129.983 132.041C129.983 129.027 129.478 126.541 128.468 124.583C127.474 122.624 126.005 121.171 124.062 120.222C122.134 119.258 119.77 118.777 116.971 118.777H111.348V145.649H116.099C120.719 145.649 124.184 144.51 126.494 142.23C128.82 139.951 129.983 136.554 129.983 132.041ZM150.659 123.389C152.801 123.389 154.637 123.863 156.167 124.812C157.697 125.761 158.867 127.092 159.678 128.805C160.489 130.503 160.895 132.492 160.895 134.772V137.136H143.522C143.568 140.088 144.303 142.337 145.725 143.882C147.148 145.428 149.152 146.2 151.738 146.2C153.329 146.2 154.737 146.055 155.961 145.764C157.184 145.474 158.454 145.045 159.77 144.479V147.83C158.5 148.396 157.238 148.809 155.983 149.069C154.744 149.329 153.276 149.459 151.577 149.459C149.16 149.459 147.049 148.969 145.243 147.99C143.453 146.996 142.061 145.542 141.067 143.63C140.072 141.718 139.575 139.377 139.575 136.608C139.575 133.9 140.026 131.559 140.929 129.585C141.847 127.596 143.132 126.067 144.785 124.996C146.452 123.925 148.41 123.389 150.659 123.389ZM150.613 126.51C148.579 126.51 146.957 127.176 145.748 128.507C144.54 129.838 143.821 131.697 143.591 134.083H156.901C156.886 132.584 156.649 131.268 156.19 130.136C155.746 128.989 155.066 128.101 154.148 127.474C153.23 126.832 152.052 126.51 150.613 126.51ZM183.637 142.115C183.637 143.722 183.231 145.076 182.42 146.177C181.625 147.264 180.477 148.082 178.978 148.633C177.494 149.184 175.719 149.459 173.654 149.459C171.895 149.459 170.372 149.321 169.087 149.046C167.802 148.771 166.678 148.38 165.714 147.876V144.364C166.739 144.869 167.963 145.328 169.386 145.741C170.808 146.154 172.262 146.361 173.746 146.361C175.918 146.361 177.494 146.009 178.473 145.305C179.452 144.601 179.942 143.645 179.942 142.437C179.942 141.748 179.743 141.144 179.345 140.624C178.963 140.088 178.313 139.576 177.395 139.086C176.477 138.581 175.207 138.031 173.585 137.434C171.979 136.822 170.587 136.218 169.408 135.621C168.246 135.009 167.343 134.267 166.701 133.395C166.073 132.523 165.76 131.391 165.76 129.998C165.76 127.872 166.616 126.243 168.33 125.11C170.059 123.963 172.323 123.389 175.123 123.389C176.637 123.389 178.053 123.542 179.368 123.848C180.699 124.139 181.939 124.537 183.086 125.042L181.801 128.094C180.76 127.65 179.651 127.275 178.473 126.969C177.295 126.663 176.094 126.51 174.87 126.51C173.111 126.51 171.757 126.801 170.808 127.382C169.875 127.964 169.408 128.759 169.408 129.769C169.408 130.549 169.623 131.192 170.051 131.697C170.495 132.202 171.198 132.676 172.162 133.119C173.126 133.563 174.396 134.083 175.972 134.68C177.548 135.261 178.909 135.866 180.057 136.493C181.204 137.105 182.084 137.855 182.696 138.742C183.323 139.614 183.637 140.738 183.637 142.115ZM193.574 123.848V149H189.764V123.848H193.574ZM191.715 114.439C192.342 114.439 192.877 114.646 193.321 115.059C193.78 115.457 194.01 116.084 194.01 116.941C194.01 117.782 193.78 118.409 193.321 118.822C192.877 119.235 192.342 119.442 191.715 119.442C191.057 119.442 190.506 119.235 190.062 118.822C189.634 118.409 189.42 117.782 189.42 116.941C189.42 116.084 189.634 115.457 190.062 115.059C190.506 114.646 191.057 114.439 191.715 114.439ZM208.674 160.291C205.369 160.291 202.822 159.671 201.032 158.432C199.242 157.208 198.347 155.487 198.347 153.268C198.347 151.693 198.844 150.346 199.839 149.229C200.848 148.113 202.24 147.371 204.015 147.003C203.357 146.697 202.791 146.239 202.317 145.627C201.858 145.015 201.629 144.311 201.629 143.515C201.629 142.597 201.881 141.794 202.386 141.106C202.906 140.402 203.694 139.729 204.75 139.086C203.434 138.551 202.363 137.648 201.537 136.378C200.726 135.093 200.32 133.601 200.32 131.903C200.32 130.098 200.695 128.56 201.445 127.29C202.195 126.005 203.281 125.026 204.704 124.353C206.126 123.68 207.848 123.343 209.867 123.343C210.311 123.343 210.754 123.366 211.198 123.412C211.657 123.443 212.093 123.496 212.506 123.573C212.919 123.634 213.279 123.71 213.585 123.802H222.214V126.258L217.578 126.832C218.037 127.428 218.419 128.147 218.725 128.989C219.031 129.83 219.184 130.763 219.184 131.788C219.184 134.298 218.335 136.294 216.637 137.778C214.939 139.247 212.606 139.981 209.638 139.981C208.934 139.981 208.215 139.92 207.48 139.798C206.731 140.211 206.157 140.67 205.759 141.174C205.377 141.679 205.186 142.261 205.186 142.919C205.186 143.408 205.331 143.798 205.622 144.089C205.928 144.38 206.364 144.594 206.93 144.732C207.496 144.854 208.177 144.915 208.972 144.915H213.401C216.14 144.915 218.236 145.489 219.689 146.636C221.158 147.784 221.892 149.459 221.892 151.662C221.892 154.446 220.76 156.581 218.496 158.065C216.232 159.549 212.958 160.291 208.674 160.291ZM208.789 157.307C210.869 157.307 212.59 157.093 213.952 156.665C215.329 156.252 216.354 155.647 217.027 154.852C217.716 154.072 218.06 153.138 218.06 152.052C218.06 151.042 217.83 150.277 217.371 149.757C216.912 149.252 216.239 148.916 215.352 148.748C214.465 148.564 213.378 148.472 212.093 148.472H207.733C206.601 148.472 205.614 148.648 204.772 149C203.931 149.352 203.281 149.872 202.822 150.561C202.378 151.249 202.156 152.106 202.156 153.131C202.156 154.492 202.73 155.525 203.877 156.229C205.025 156.948 206.662 157.307 208.789 157.307ZM209.775 137.204C211.596 137.204 212.965 136.745 213.883 135.827C214.801 134.909 215.26 133.571 215.26 131.811C215.26 129.93 214.793 128.522 213.86 127.589C212.927 126.64 211.55 126.166 209.729 126.166C207.985 126.166 206.639 126.656 205.69 127.635C204.757 128.599 204.291 130.014 204.291 131.88C204.291 133.594 204.765 134.909 205.713 135.827C206.662 136.745 208.016 137.204 209.775 137.204ZM239.081 123.389C242.064 123.389 244.321 124.124 245.851 125.592C247.381 127.046 248.146 129.386 248.146 132.615V149H244.382V132.867C244.382 130.771 243.9 129.203 242.936 128.163C241.988 127.122 240.527 126.602 238.553 126.602C235.769 126.602 233.81 127.39 232.678 128.966C231.546 130.542 230.98 132.829 230.98 135.827V149H227.17V123.848H230.246L230.819 127.474H231.026C231.561 126.587 232.242 125.845 233.068 125.248C233.894 124.636 234.82 124.177 235.845 123.871C236.87 123.55 237.949 123.389 239.081 123.389Z" fill="#141414"/>
<path d="M302.393 127.621L308.288 121.658L304.449 117.751L301.434 120.767L297.595 116.929L300.543 113.913L297.458 110.829L291.495 116.792L302.393 127.621ZM324.874 150.171L330.837 144.208L327.753 141.124L324.737 144.071L320.899 140.233L323.846 137.217L319.939 133.379L314.045 139.273L324.874 150.171ZM299.291 154.027C298.556 154.762 297.56 155.174 296.521 155.174H290.408C288.245 155.174 286.492 153.421 286.492 151.258V145.145C286.492 144.106 286.904 143.11 287.639 142.375L298.486 131.528L286.52 119.561C284.99 118.032 284.99 115.552 286.52 114.022L294.689 105.853C296.218 104.324 298.698 104.324 300.228 105.853L312.263 117.889L322.613 107.47C323.161 106.922 323.778 106.511 324.463 106.237C325.149 105.963 325.857 105.825 326.588 105.825C327.319 105.825 328.027 105.963 328.713 106.237C329.398 106.511 330.015 106.922 330.563 107.47L334.196 111.172C334.744 111.72 335.155 112.337 335.43 113.022C335.704 113.708 335.841 114.416 335.841 115.147C335.841 115.878 335.704 116.575 335.43 117.237C335.155 117.9 334.744 118.505 334.196 119.054L323.846 129.472L335.813 141.439C337.342 142.968 337.342 145.448 335.813 146.977L327.644 155.147C326.114 156.676 323.634 156.676 322.105 155.147L310.138 143.18L299.291 154.027ZM291.975 149.691H295.813L322.681 122.892L318.774 118.985L291.975 145.853V149.691Z" fill="#141414"/>
</svg>
