<svg width="441" height="255" viewBox="0 0 441 255" fill="none" xmlns="http://www.w3.org/2000/svg">
<rect width="441" height="255" rx="8" fill="#EAEFFF"/>
<path d="M178.724 47.3484C182.483 50.5376 184.363 55.1841 184.363 61.309V89.2089H168.291V64.5615C168.291 59.5771 165.439 57.2116 161.511 57.2116C157.033 57.2116 153.929 60.1473 153.929 65.1317V89.2089H137.941V64.5615C137.941 59.915 134.921 57.2116 130.929 57.2116C126.684 57.2116 123.579 59.9784 123.579 65.1317V89.2089H107.591V43.8214H123.262V50.1152C125.797 45.2998 131.583 42.4485 137.37 42.533C143.157 42.6175 147.234 45.0675 149.536 49.7139C153.126 44.8985 159.167 42.533 165.376 42.533C170.593 42.533 175.091 44.1593 178.766 47.3484H178.724Z" fill="#141414"/>
<path d="M215.114 90.4972C207.68 90.4972 201.724 88.2162 197.078 83.5698C192.516 78.9233 190.214 73.2842 190.214 66.5257C190.214 59.7672 192.494 54.1281 197.078 49.4605C201.724 44.814 207.68 42.533 215.114 42.533C222.549 42.533 228.505 44.814 233.151 49.4605C237.798 54.1069 240.079 59.7461 240.079 66.5257C240.079 73.3053 237.798 78.9233 233.151 83.5698C228.505 88.2162 222.549 90.4972 215.114 90.4972ZM224.09 66.4412C224.09 61.4568 220.247 57.5496 215.114 57.5496C209.982 57.5496 206.223 61.4568 206.223 66.4412C206.223 71.6579 210.13 75.5018 215.114 75.5018C220.099 75.5018 224.09 71.6579 224.09 66.4412Z" fill="#141414"/>
<path d="M237.481 145.262L244.176 134.237C249.308 137.743 254.039 139.539 258.284 139.539C260.967 139.539 262.36 138.799 262.36 137.427C262.36 136.772 261.706 136.202 260.312 135.716C259.002 135.23 250.85 132.865 249.055 131.956C243.099 129.422 240.163 125.177 240.163 119.305C240.163 114.891 241.958 111.301 245.549 108.619C249.139 105.915 253.87 104.542 259.826 104.542C266.268 104.542 272.139 106.422 277.377 110.181L270.851 120.868C266.859 118.503 263.1 117.278 259.678 117.278C257.313 117.278 256.088 117.933 256.088 119.158C256.088 120.383 257.482 121.27 260.333 121.924C264.325 122.832 267.831 124.036 270.935 125.599C276.49 128.45 278.602 131.956 278.602 137.194C278.602 141.756 276.807 145.516 273.216 148.367C269.626 151.218 264.726 152.612 258.453 152.612C250.533 152.612 243.521 150.162 237.481 145.262Z" fill="#141414"/>
<path d="M317.674 105.915H332.775V151.282H317.674V148.092C313.999 150.944 309.754 152.422 304.939 152.422C298.497 152.422 293.196 150.141 289.035 145.558C284.874 140.911 282.826 135.188 282.826 128.429C282.826 121.671 284.938 116.032 289.099 111.533C293.259 107.056 298.56 104.753 304.939 104.753C309.923 104.753 314.168 106.232 317.674 109.231V105.894V105.915ZM314.654 135.146C316.449 133.266 317.336 131.069 317.336 128.535C317.336 126.001 316.449 123.888 314.654 122.093C312.859 120.298 310.662 119.39 308.043 119.39C302.827 119.39 298.814 123.551 298.814 128.535C298.814 131.069 299.701 133.266 301.496 135.146C303.291 136.941 305.488 137.828 308.022 137.828C310.557 137.828 312.838 136.941 314.633 135.146H314.654Z" fill="#141414"/>
<path d="M179.716 212.298H163.644V166.932H179.716V212.298Z" fill="#141414"/>
<path d="M192.431 206.659C187.953 202.181 185.736 196.458 185.736 189.53C185.736 182.603 187.932 176.879 192.431 172.486C196.908 168.009 202.801 165.791 210.066 165.791C219.613 165.791 227.934 170.269 231.926 179.329L219.19 185.94C217.078 182.434 214.121 180.639 210.468 180.639C205.251 180.639 201.576 184.398 201.576 189.53C201.576 194.663 205.251 198.591 210.383 198.591C214.227 198.591 217.649 196.479 219.042 193.29L231.862 200.872C227.871 208.623 219.782 213.27 209.918 213.27C202.822 213.27 196.951 211.073 192.452 206.659H192.431Z" fill="#141414"/>
<path d="M311.465 41.5615H271.59C258.316 41.5615 247.555 52.3223 247.555 65.5964C247.555 78.8705 258.316 89.6313 271.59 89.6313H311.465C324.739 89.6313 335.5 78.8705 335.5 65.5964C335.5 52.3223 324.739 41.5615 311.465 41.5615Z" fill="#2B5FFC"/>
<path d="M311.465 165.369H265.402C252.128 165.369 241.367 176.129 241.367 189.404C241.367 202.678 252.128 213.438 265.402 213.438H311.465C324.739 213.438 335.5 202.678 335.5 189.404C335.5 176.129 324.739 165.369 311.465 165.369Z" fill="#00C14F"/>
<path d="M129.366 165.369H129.345C116.176 165.369 105.5 176.044 105.5 189.213V189.594C105.5 202.763 116.176 213.438 129.345 213.438H129.366C142.535 213.438 153.211 202.763 153.211 189.594V189.213C153.211 176.044 142.535 165.369 129.366 165.369Z" fill="#FF5E09"/>
<path d="M205.969 103.423H129.535C116.261 103.423 105.5 114.184 105.5 127.458C105.5 140.732 116.261 151.493 129.535 151.493H205.969C219.243 151.493 230.004 140.732 230.004 127.458C230.004 114.184 219.243 103.423 205.969 103.423Z" fill="#FFDA01"/>
</svg>
