<svg width="254" height="40" viewBox="0 0 254 40" fill="none" xmlns="http://www.w3.org/2000/svg">
<rect y="12.6667" width="36" height="7.33333" rx="3.66667" fill="white"/>
<rect y="22.6666" width="17.3333" height="7.33333" rx="3.66667" fill="white"/>
<rect x="18.6666" y="22.6666" width="17.3333" height="7.33333" rx="3.66667" fill="white"/>
<rect y="32.6666" width="36" height="7.33333" rx="3.66667" fill="white"/>
<path d="M88.2205 14.6021C90.4184 16.4706 91.5173 19.2042 91.5173 22.8201V39.2388H82.1248V24.7405C82.1248 21.8166 80.4592 20.4152 78.1754 20.4152C75.5483 20.4152 73.7453 22.1453 73.7453 25.0692V39.2388H64.4043V24.7405C64.4043 22.0069 62.6357 20.4152 60.3004 20.4152C57.8278 20.4152 56.0077 22.0415 56.0077 25.0692V39.2388H46.6666V12.526H55.8188V16.2284C57.2955 13.391 60.6782 11.7128 64.0609 11.7647C67.4436 11.8166 69.8303 13.2526 71.1697 15.9862C73.2645 13.1488 76.7846 11.7647 80.4077 11.7647C83.4641 11.7647 86.0741 12.7163 88.2205 14.6021Z" fill="white"/>
<path d="M109.496 40C105.151 40 101.683 38.6505 98.9697 35.917C96.3082 33.1834 94.9689 29.8616 94.9689 25.8823C94.9689 21.9031 96.3082 18.5813 98.9697 15.8477C101.683 13.1142 105.168 11.7647 109.496 11.7647C113.823 11.7647 117.308 13.1142 120.021 15.8477C122.734 18.5813 124.074 21.9031 124.074 25.8823C124.074 29.8616 122.734 33.1834 120.021 35.917C117.308 38.6505 113.823 40 109.496 40ZM114.733 25.8304C114.733 22.9066 112.5 20.5882 109.496 20.5882C106.491 20.5882 104.293 22.8893 104.293 25.8304C104.293 28.91 106.576 31.1592 109.496 31.1592C112.415 31.1592 114.733 28.91 114.733 25.8304Z" fill="white"/>
<path d="M125.705 35.6748L129.62 29.1869C132.625 31.2457 135.389 32.3011 137.862 32.3011C139.442 32.3011 140.249 31.8686 140.249 31.0554C140.249 30.6748 139.871 30.3288 139.064 30.052C138.308 29.7579 133.535 28.3738 132.488 27.8374C129.002 26.3495 127.285 23.8582 127.285 20.398C127.285 17.8028 128.332 15.6921 130.427 14.1004C132.522 12.5087 135.286 11.6956 138.772 11.6956C142.533 11.6956 145.967 12.8028 149.023 15.0174L145.211 21.3149C142.876 19.9309 140.678 19.2042 138.686 19.2042C137.313 19.2042 136.591 19.5848 136.591 20.3115C136.591 21.0381 137.398 21.5572 139.064 21.9378C141.399 22.4741 143.443 23.1835 145.263 24.1004C148.508 25.7786 149.744 27.8547 149.744 30.917C149.744 33.5987 148.697 35.8132 146.602 37.4914C144.507 39.1696 141.64 39.9828 137.982 39.9828C133.363 39.9828 129.259 38.5468 125.739 35.6575L125.705 35.6748Z" fill="white"/>
<path d="M177.269 23.6678V39.2215H168.976V36.9723C167.018 38.8409 164.494 39.8097 161.352 39.8097C155.445 39.8097 152.251 36.2111 152.251 31.3668C152.251 24.9308 158.106 22.8201 164.597 22.6817C165.971 22.6817 167.31 22.6817 168.598 22.6298C168.272 20.7613 166.795 19.8443 164.254 19.8443C161.489 19.8443 158.673 20.519 155.857 21.8166L153.092 14.8616C157.282 12.8893 161.197 11.8858 164.82 11.8858C173.114 11.8858 177.252 15.8305 177.252 23.7024L177.269 23.6678ZM168.649 28.9101C168.22 28.9101 167.465 28.9101 166.452 28.962C165.456 28.962 164.837 28.962 164.546 29.0139C162.159 29.1177 160.974 29.7751 160.974 31.0381C160.974 32.1973 161.781 32.7682 163.361 32.7682C165.833 32.7682 168.272 31.2284 168.649 28.9274V28.9101Z" fill="white"/>
<path d="M191.487 39.2388H182.095V12.526H191.487V39.2215V39.2388Z" fill="white"/>
<path d="M198.922 35.917C196.295 33.2699 195.007 29.9135 195.007 25.8305C195.007 21.7474 196.295 18.391 198.922 15.7959C201.549 13.1488 204.966 11.8512 209.225 11.8512C214.805 11.8512 219.665 14.4983 222 19.827L214.565 23.7198C213.329 21.6609 211.612 20.6056 209.465 20.6056C206.409 20.6056 204.262 22.8201 204.262 25.8478C204.262 28.8755 206.409 31.1765 209.414 31.1765C211.646 31.1765 213.655 29.9308 214.462 28.0623L221.949 32.526C219.613 37.0935 214.891 39.827 209.122 39.827C204.984 39.827 201.549 38.5295 198.922 35.9343V35.917Z" fill="white"/>
</svg>
