<svg width="441" height="261" viewBox="0 0 441 261" fill="none" xmlns="http://www.w3.org/2000/svg">
<rect width="441" height="261" rx="8" fill="#EAEFFF"/>
<path d="M163.942 91.7627C163.942 93.4131 163.737 94.917 163.327 96.2744C162.917 97.6221 162.292 98.7842 161.452 99.7607C160.622 100.737 159.567 101.489 158.288 102.017C157.009 102.534 155.495 102.793 153.747 102.793C151.999 102.793 150.485 102.534 149.206 102.017C147.927 101.489 146.867 100.737 146.027 99.7607C145.197 98.7842 144.577 97.6172 144.167 96.2598C143.757 94.9023 143.552 93.3936 143.552 91.7334C143.552 89.5166 143.913 87.5879 144.636 85.9473C145.368 84.2969 146.491 83.0176 148.005 82.1094C149.519 81.2012 151.442 80.7471 153.776 80.7471C156.101 80.7471 158.01 81.2012 159.504 82.1094C161.008 83.0176 162.121 84.2969 162.844 85.9473C163.576 87.5977 163.942 89.5361 163.942 91.7627ZM148.312 91.7627C148.312 93.2568 148.498 94.5459 148.869 95.6299C149.25 96.7041 149.841 97.5342 150.642 98.1201C151.442 98.6963 152.478 98.9844 153.747 98.9844C155.036 98.9844 156.081 98.6963 156.882 98.1201C157.683 97.5342 158.264 96.7041 158.625 95.6299C158.996 94.5459 159.182 93.2568 159.182 91.7627C159.182 89.5166 158.762 87.749 157.922 86.46C157.082 85.1709 155.7 84.5264 153.776 84.5264C152.497 84.5264 151.452 84.8193 150.642 85.4053C149.841 85.9814 149.25 86.8115 148.869 87.8955C148.498 88.9697 148.312 90.2588 148.312 91.7627ZM177.141 85.8154C178.986 85.8154 180.476 86.5332 181.608 87.9688C182.751 89.4043 183.322 91.5088 183.322 94.2822C183.322 96.1377 183.054 97.7002 182.517 98.9697C181.979 100.229 181.237 101.182 180.29 101.826C179.343 102.471 178.254 102.793 177.023 102.793C176.232 102.793 175.554 102.695 174.987 102.5C174.421 102.295 173.938 102.036 173.537 101.724C173.137 101.401 172.79 101.06 172.497 100.698H172.263C172.341 101.089 172.399 101.489 172.438 101.899C172.478 102.31 172.497 102.71 172.497 103.101V109.707H168.029V86.123H171.662L172.292 88.2471H172.497C172.79 87.8076 173.146 87.4023 173.566 87.0312C173.986 86.6602 174.489 86.3672 175.075 86.1523C175.671 85.9277 176.359 85.8154 177.141 85.8154ZM175.705 89.3896C174.924 89.3896 174.304 89.5508 173.845 89.873C173.386 90.1953 173.049 90.6787 172.834 91.3232C172.629 91.9678 172.517 92.7832 172.497 93.7695V94.2529C172.497 95.3076 172.595 96.2012 172.79 96.9336C172.995 97.666 173.332 98.2227 173.801 98.6035C174.279 98.9844 174.934 99.1748 175.764 99.1748C176.447 99.1748 177.009 98.9844 177.448 98.6035C177.888 98.2227 178.215 97.666 178.43 96.9336C178.654 96.1914 178.767 95.2881 178.767 94.2236C178.767 92.6221 178.518 91.416 178.02 90.6055C177.521 89.7949 176.75 89.3896 175.705 89.3896ZM193.767 85.8154C195.28 85.8154 196.584 86.1084 197.678 86.6943C198.771 87.2705 199.616 88.1104 200.212 89.2139C200.808 90.3174 201.105 91.665 201.105 93.2568V95.4248H190.544C190.593 96.6846 190.969 97.6758 191.672 98.3984C192.385 99.1113 193.371 99.4678 194.631 99.4678C195.676 99.4678 196.633 99.3604 197.502 99.1455C198.371 98.9307 199.265 98.6084 200.183 98.1787V101.636C199.372 102.036 198.522 102.329 197.634 102.515C196.755 102.7 195.686 102.793 194.426 102.793C192.785 102.793 191.33 102.49 190.061 101.885C188.801 101.279 187.81 100.356 187.087 99.1162C186.374 97.876 186.018 96.3135 186.018 94.4287C186.018 92.5146 186.34 90.9229 186.984 89.6533C187.639 88.374 188.547 87.417 189.709 86.7822C190.871 86.1377 192.224 85.8154 193.767 85.8154ZM193.796 88.9941C192.927 88.9941 192.204 89.2725 191.628 89.8291C191.062 90.3857 190.734 91.2598 190.646 92.4512H196.916C196.906 91.7871 196.784 91.1963 196.55 90.6787C196.325 90.1611 195.983 89.751 195.524 89.4482C195.075 89.1455 194.499 88.9941 193.796 88.9941ZM214.04 85.8154C215.788 85.8154 217.194 86.2939 218.259 87.251C219.323 88.1982 219.855 89.7217 219.855 91.8213V102.5H215.388V92.9346C215.388 91.7627 215.173 90.8789 214.743 90.2832C214.323 89.6875 213.659 89.3896 212.751 89.3896C211.384 89.3896 210.451 89.8535 209.953 90.7812C209.455 91.709 209.206 93.0469 209.206 94.7949V102.5H204.738V86.123H208.151L208.752 88.2178H209.001C209.353 87.6514 209.787 87.1924 210.305 86.8408C210.832 86.4893 211.413 86.2305 212.048 86.0645C212.692 85.8984 213.356 85.8154 214.04 85.8154ZM245.241 96.5527C245.241 97.8223 244.934 98.9258 244.318 99.8633C243.703 100.801 242.805 101.523 241.623 102.031C240.451 102.539 239.025 102.793 237.346 102.793C236.604 102.793 235.876 102.744 235.163 102.646C234.46 102.549 233.781 102.407 233.127 102.222C232.482 102.026 231.867 101.787 231.281 101.504V97.2852C232.297 97.7344 233.352 98.1396 234.445 98.501C235.539 98.8623 236.623 99.043 237.697 99.043C238.439 99.043 239.035 98.9453 239.484 98.75C239.943 98.5547 240.275 98.2861 240.48 97.9443C240.686 97.6025 240.788 97.2119 240.788 96.7725C240.788 96.2354 240.607 95.7764 240.246 95.3955C239.885 95.0146 239.387 94.6582 238.752 94.3262C238.127 93.9941 237.419 93.6377 236.628 93.2568C236.13 93.0225 235.588 92.7393 235.002 92.4072C234.416 92.0654 233.859 91.6504 233.332 91.1621C232.805 90.6738 232.37 90.083 232.028 89.3896C231.696 88.6865 231.53 87.8467 231.53 86.8701C231.53 85.5908 231.823 84.4971 232.409 83.5889C232.995 82.6807 233.83 81.9873 234.914 81.5088C236.008 81.0205 237.297 80.7764 238.781 80.7764C239.895 80.7764 240.954 80.9082 241.96 81.1719C242.976 81.4258 244.035 81.7969 245.139 82.2852L243.674 85.8154C242.688 85.415 241.804 85.1074 241.022 84.8926C240.241 84.668 239.445 84.5557 238.635 84.5557C238.068 84.5557 237.585 84.6484 237.185 84.834C236.784 85.0098 236.481 85.2637 236.276 85.5957C236.071 85.918 235.969 86.2939 235.969 86.7236C235.969 87.2314 236.115 87.6611 236.408 88.0127C236.711 88.3545 237.16 88.6865 237.756 89.0088C238.361 89.3311 239.113 89.707 240.012 90.1367C241.105 90.6543 242.038 91.1963 242.81 91.7627C243.591 92.3193 244.191 92.9785 244.611 93.7402C245.031 94.4922 245.241 95.4297 245.241 96.5527ZM255.48 85.7861C257.678 85.7861 259.362 86.2646 260.534 87.2217C261.706 88.1787 262.292 89.6338 262.292 91.5869V102.5H259.172L258.308 100.273H258.19C257.722 100.859 257.243 101.338 256.755 101.709C256.267 102.08 255.705 102.354 255.07 102.529C254.436 102.705 253.664 102.793 252.756 102.793C251.789 102.793 250.92 102.607 250.148 102.236C249.387 101.865 248.786 101.299 248.347 100.537C247.907 99.7656 247.688 98.7891 247.688 97.6074C247.688 95.8691 248.298 94.5898 249.519 93.7695C250.739 92.9395 252.57 92.4805 255.012 92.3926L257.854 92.3047V91.5869C257.854 90.7275 257.629 90.0977 257.18 89.6973C256.73 89.2969 256.105 89.0967 255.305 89.0967C254.514 89.0967 253.737 89.209 252.976 89.4336C252.214 89.6582 251.452 89.9414 250.69 90.2832L249.211 87.2656C250.08 86.8066 251.052 86.4453 252.126 86.1816C253.21 85.918 254.328 85.7861 255.48 85.7861ZM257.854 94.9121L256.125 94.9707C254.68 95.0098 253.674 95.2686 253.107 95.7471C252.551 96.2256 252.272 96.8555 252.272 97.6367C252.272 98.3203 252.473 98.8086 252.873 99.1016C253.273 99.3848 253.796 99.5264 254.44 99.5264C255.397 99.5264 256.203 99.2432 256.857 98.6768C257.521 98.1104 257.854 97.3047 257.854 96.2598V94.9121ZM276.208 85.8154C277.956 85.8154 279.362 86.2939 280.427 87.251C281.491 88.1982 282.023 89.7217 282.023 91.8213V102.5H277.556V92.9346C277.556 91.7627 277.341 90.8789 276.911 90.2832C276.491 89.6875 275.827 89.3896 274.919 89.3896C273.552 89.3896 272.619 89.8535 272.121 90.7812C271.623 91.709 271.374 93.0469 271.374 94.7949V102.5H266.906V86.123H270.319L270.92 88.2178H271.169C271.521 87.6514 271.955 87.1924 272.473 86.8408C273 86.4893 273.581 86.2305 274.216 86.0645C274.86 85.8984 275.524 85.8154 276.208 85.8154ZM298.049 97.6367C298.049 98.75 297.785 99.6924 297.258 100.464C296.74 101.226 295.964 101.807 294.929 102.207C293.894 102.598 292.604 102.793 291.062 102.793C289.919 102.793 288.938 102.72 288.117 102.573C287.307 102.427 286.486 102.183 285.656 101.841V98.1494C286.545 98.5498 287.497 98.8818 288.513 99.1455C289.538 99.3994 290.437 99.5264 291.208 99.5264C292.077 99.5264 292.697 99.3994 293.068 99.1455C293.449 98.8818 293.64 98.54 293.64 98.1201C293.64 97.8467 293.562 97.6025 293.405 97.3877C293.259 97.1631 292.937 96.9141 292.438 96.6406C291.94 96.3574 291.159 95.9912 290.095 95.542C289.069 95.1123 288.225 94.6777 287.561 94.2383C286.906 93.7988 286.418 93.2812 286.096 92.6855C285.783 92.0801 285.627 91.3135 285.627 90.3857C285.627 88.8721 286.213 87.7344 287.385 86.9727C288.566 86.2012 290.144 85.8154 292.116 85.8154C293.132 85.8154 294.099 85.918 295.017 86.123C295.944 86.3281 296.896 86.6553 297.873 87.1045L296.525 90.3271C295.715 89.9756 294.948 89.6875 294.226 89.4629C293.513 89.2383 292.785 89.126 292.043 89.126C291.389 89.126 290.896 89.2139 290.563 89.3896C290.231 89.5654 290.065 89.834 290.065 90.1953C290.065 90.459 290.148 90.6934 290.314 90.8984C290.49 91.1035 290.822 91.333 291.311 91.5869C291.809 91.8311 292.536 92.1484 293.493 92.5391C294.421 92.9199 295.227 93.3203 295.91 93.7402C296.594 94.1504 297.121 94.6631 297.492 95.2783C297.863 95.8838 298.049 96.6699 298.049 97.6367Z" fill="#141414"/>
<path d="M176.344 137.91C176.344 139.23 176.176 140.434 175.84 141.52C175.512 142.598 175.016 143.527 174.352 144.309C173.688 145.082 172.855 145.68 171.855 146.102C170.855 146.523 169.684 146.734 168.34 146.734C166.973 146.734 165.785 146.523 164.777 146.102C163.777 145.68 162.945 145.078 162.281 144.297C161.625 143.516 161.133 142.582 160.805 141.496C160.477 140.41 160.312 139.207 160.312 137.887C160.312 136.121 160.602 134.582 161.18 133.27C161.766 131.949 162.652 130.926 163.84 130.199C165.035 129.465 166.543 129.098 168.363 129.098C170.145 129.098 171.625 129.461 172.805 130.188C173.984 130.914 174.867 131.938 175.453 133.258C176.047 134.57 176.344 136.121 176.344 137.91ZM163.266 137.91C163.266 139.23 163.445 140.375 163.805 141.344C164.164 142.305 164.715 143.047 165.457 143.57C166.207 144.086 167.168 144.344 168.34 144.344C169.52 144.344 170.48 144.086 171.223 143.57C171.965 143.047 172.512 142.305 172.863 141.344C173.215 140.375 173.391 139.23 173.391 137.91C173.391 135.902 172.988 134.332 172.184 133.199C171.387 132.059 170.113 131.488 168.363 131.488C167.191 131.488 166.227 131.746 165.469 132.262C164.719 132.777 164.164 133.516 163.805 134.477C163.445 135.43 163.266 136.574 163.266 137.91ZM186.398 133.281C187.938 133.281 189.172 133.844 190.102 134.969C191.039 136.094 191.508 137.766 191.508 139.984C191.508 141.453 191.289 142.691 190.852 143.699C190.422 144.699 189.816 145.457 189.035 145.973C188.262 146.48 187.359 146.734 186.328 146.734C185.672 146.734 185.102 146.648 184.617 146.477C184.133 146.305 183.719 146.082 183.375 145.809C183.031 145.527 182.742 145.223 182.508 144.895H182.344C182.383 145.207 182.418 145.555 182.449 145.938C182.488 146.312 182.508 146.656 182.508 146.969V152.254H179.742V133.527H181.992L182.379 135.32H182.508C182.75 134.953 183.043 134.613 183.387 134.301C183.738 133.988 184.16 133.742 184.652 133.562C185.152 133.375 185.734 133.281 186.398 133.281ZM185.66 135.531C184.902 135.531 184.293 135.684 183.832 135.988C183.379 136.285 183.047 136.734 182.836 137.336C182.633 137.938 182.523 138.691 182.508 139.598V139.984C182.508 140.945 182.605 141.762 182.801 142.434C183.004 143.098 183.336 143.605 183.797 143.957C184.266 144.301 184.898 144.473 185.695 144.473C186.367 144.473 186.922 144.289 187.359 143.922C187.805 143.555 188.137 143.031 188.355 142.352C188.574 141.672 188.684 140.871 188.684 139.949C188.684 138.551 188.434 137.465 187.934 136.691C187.441 135.918 186.684 135.531 185.66 135.531ZM199.863 133.281C201.02 133.281 202.012 133.52 202.84 133.996C203.668 134.473 204.305 135.148 204.75 136.023C205.195 136.898 205.418 137.945 205.418 139.164V140.641H196.758C196.789 141.898 197.125 142.867 197.766 143.547C198.414 144.227 199.32 144.566 200.484 144.566C201.312 144.566 202.055 144.488 202.711 144.332C203.375 144.168 204.059 143.93 204.762 143.617V145.855C204.113 146.16 203.453 146.383 202.781 146.523C202.109 146.664 201.305 146.734 200.367 146.734C199.094 146.734 197.973 146.488 197.004 145.996C196.043 145.496 195.289 144.754 194.742 143.77C194.203 142.785 193.934 141.562 193.934 140.102C193.934 138.648 194.18 137.414 194.672 136.398C195.164 135.383 195.855 134.609 196.746 134.078C197.637 133.547 198.676 133.281 199.863 133.281ZM199.863 135.355C198.996 135.355 198.293 135.637 197.754 136.199C197.223 136.762 196.91 137.586 196.816 138.672H202.723C202.715 138.023 202.605 137.449 202.395 136.949C202.191 136.449 201.879 136.059 201.457 135.777C201.043 135.496 200.512 135.355 199.863 135.355ZM215.285 133.281C216.746 133.281 217.883 133.66 218.695 134.418C219.516 135.168 219.926 136.375 219.926 138.039V146.5H217.172V138.555C217.172 137.547 216.965 136.793 216.551 136.293C216.137 135.785 215.496 135.531 214.629 135.531C213.371 135.531 212.496 135.918 212.004 136.691C211.52 137.465 211.277 138.586 211.277 140.055V146.5H208.523V133.527H210.668L211.055 135.285H211.207C211.488 134.832 211.836 134.461 212.25 134.172C212.672 133.875 213.141 133.652 213.656 133.504C214.18 133.355 214.723 133.281 215.285 133.281ZM240.188 141.836C240.188 142.852 239.938 143.727 239.438 144.461C238.945 145.195 238.234 145.758 237.305 146.148C236.383 146.539 235.281 146.734 234 146.734C233.375 146.734 232.777 146.699 232.207 146.629C231.637 146.559 231.098 146.457 230.59 146.324C230.09 146.184 229.633 146.016 229.219 145.82V143.172C229.914 143.477 230.691 143.754 231.551 144.004C232.41 144.246 233.285 144.367 234.176 144.367C234.902 144.367 235.504 144.273 235.98 144.086C236.465 143.891 236.824 143.617 237.059 143.266C237.293 142.906 237.41 142.488 237.41 142.012C237.41 141.504 237.273 141.074 237 140.723C236.727 140.371 236.312 140.051 235.758 139.762C235.211 139.465 234.523 139.148 233.695 138.812C233.133 138.586 232.594 138.328 232.078 138.039C231.57 137.75 231.117 137.41 230.719 137.02C230.32 136.629 230.004 136.168 229.77 135.637C229.543 135.098 229.43 134.465 229.43 133.738C229.43 132.77 229.66 131.941 230.121 131.254C230.59 130.566 231.246 130.039 232.09 129.672C232.941 129.305 233.934 129.121 235.066 129.121C235.965 129.121 236.809 129.215 237.598 129.402C238.395 129.59 239.176 129.855 239.941 130.199L239.051 132.461C238.348 132.172 237.664 131.941 237 131.77C236.344 131.598 235.672 131.512 234.984 131.512C234.391 131.512 233.887 131.602 233.473 131.781C233.059 131.961 232.742 132.215 232.523 132.543C232.312 132.863 232.207 133.246 232.207 133.691C232.207 134.191 232.328 134.613 232.57 134.957C232.82 135.293 233.203 135.602 233.719 135.883C234.242 136.164 234.914 136.477 235.734 136.82C236.68 137.211 237.48 137.621 238.137 138.051C238.801 138.48 239.309 138.996 239.66 139.598C240.012 140.191 240.188 140.938 240.188 141.836ZM248.297 133.281C249.938 133.281 251.176 133.645 252.012 134.371C252.855 135.098 253.277 136.23 253.277 137.77V146.5H251.32L250.793 144.66H250.699C250.332 145.129 249.953 145.516 249.562 145.82C249.172 146.125 248.719 146.352 248.203 146.5C247.695 146.656 247.074 146.734 246.34 146.734C245.566 146.734 244.875 146.594 244.266 146.312C243.656 146.023 243.176 145.586 242.824 145C242.473 144.414 242.297 143.672 242.297 142.773C242.297 141.438 242.793 140.434 243.785 139.762C244.785 139.09 246.293 138.719 248.309 138.648L250.559 138.566V137.887C250.559 136.988 250.348 136.348 249.926 135.965C249.512 135.582 248.926 135.391 248.168 135.391C247.52 135.391 246.891 135.484 246.281 135.672C245.672 135.859 245.078 136.09 244.5 136.363L243.609 134.418C244.242 134.082 244.961 133.809 245.766 133.598C246.578 133.387 247.422 133.281 248.297 133.281ZM250.547 140.301L248.871 140.359C247.496 140.406 246.531 140.641 245.977 141.062C245.422 141.484 245.145 142.062 245.145 142.797C245.145 143.438 245.336 143.906 245.719 144.203C246.102 144.492 246.605 144.637 247.23 144.637C248.184 144.637 248.973 144.367 249.598 143.828C250.23 143.281 250.547 142.48 250.547 141.426V140.301ZM263.895 133.281C265.355 133.281 266.492 133.66 267.305 134.418C268.125 135.168 268.535 136.375 268.535 138.039V146.5H265.781V138.555C265.781 137.547 265.574 136.793 265.16 136.293C264.746 135.785 264.105 135.531 263.238 135.531C261.98 135.531 261.105 135.918 260.613 136.691C260.129 137.465 259.887 138.586 259.887 140.055V146.5H257.133V133.527H259.277L259.664 135.285H259.816C260.098 134.832 260.445 134.461 260.859 134.172C261.281 133.875 261.75 133.652 262.266 133.504C262.789 133.355 263.332 133.281 263.895 133.281ZM281.109 142.797C281.109 143.648 280.902 144.367 280.488 144.953C280.074 145.539 279.469 145.984 278.672 146.289C277.883 146.586 276.914 146.734 275.766 146.734C274.859 146.734 274.078 146.668 273.422 146.535C272.773 146.41 272.16 146.215 271.582 145.949V143.57C272.199 143.859 272.891 144.109 273.656 144.32C274.43 144.531 275.16 144.637 275.848 144.637C276.754 144.637 277.406 144.496 277.805 144.215C278.203 143.926 278.402 143.543 278.402 143.066C278.402 142.785 278.32 142.535 278.156 142.316C278 142.09 277.703 141.859 277.266 141.625C276.836 141.383 276.203 141.094 275.367 140.758C274.547 140.43 273.855 140.102 273.293 139.773C272.73 139.445 272.305 139.051 272.016 138.59C271.727 138.121 271.582 137.523 271.582 136.797C271.582 135.648 272.035 134.777 272.941 134.184C273.855 133.582 275.062 133.281 276.562 133.281C277.359 133.281 278.109 133.363 278.812 133.527C279.523 133.684 280.219 133.914 280.898 134.219L280.031 136.293C279.445 136.035 278.855 135.824 278.262 135.66C277.676 135.488 277.078 135.402 276.469 135.402C275.758 135.402 275.215 135.512 274.84 135.73C274.473 135.949 274.289 136.262 274.289 136.668C274.289 136.973 274.379 137.23 274.559 137.441C274.738 137.652 275.047 137.863 275.484 138.074C275.93 138.285 276.547 138.547 277.336 138.859C278.109 139.156 278.777 139.469 279.34 139.797C279.91 140.117 280.348 140.512 280.652 140.98C280.957 141.449 281.109 142.055 281.109 142.797Z" fill="#434343"/>
<mask id="path-4-outside-1_1412_10456" maskUnits="userSpaceOnUse" x="170" y="169.5" width="101" height="22" fill="black">
<rect fill="white" x="170" y="169.5" width="101" height="22"/>
<path d="M184.641 178.342C184.641 179.442 184.501 180.445 184.221 181.35C183.941 182.248 183.524 183.023 182.971 183.674C182.424 184.318 181.743 184.816 180.93 185.168C180.116 185.52 179.172 185.695 178.098 185.695C176.991 185.695 176.024 185.52 175.197 185.168C174.377 184.816 173.693 184.315 173.146 183.664C172.606 183.013 172.199 182.235 171.926 181.33C171.659 180.425 171.525 179.423 171.525 178.322C171.525 176.864 171.766 175.585 172.248 174.484C172.73 173.384 173.459 172.528 174.436 171.916C175.419 171.304 176.649 170.998 178.127 170.998C179.54 170.998 180.728 171.301 181.691 171.906C182.661 172.512 183.394 173.365 183.889 174.465C184.39 175.559 184.641 176.851 184.641 178.342ZM173.273 178.342C173.273 179.553 173.446 180.601 173.791 181.486C174.136 182.372 174.663 183.055 175.373 183.537C176.089 184.019 176.997 184.26 178.098 184.26C179.204 184.26 180.109 184.019 180.812 183.537C181.522 183.055 182.046 182.372 182.385 181.486C182.723 180.601 182.893 179.553 182.893 178.342C182.893 176.499 182.505 175.061 181.73 174.025C180.962 172.984 179.761 172.463 178.127 172.463C177.02 172.463 176.109 172.701 175.393 173.176C174.676 173.651 174.143 174.328 173.791 175.207C173.446 176.079 173.273 177.124 173.273 178.342ZM192.609 174.602C193.944 174.602 195.008 175.061 195.803 175.979C196.597 176.896 196.994 178.277 196.994 180.119C196.994 181.337 196.812 182.359 196.447 183.186C196.083 184.012 195.568 184.637 194.904 185.061C194.247 185.484 193.469 185.695 192.57 185.695C192.004 185.695 191.506 185.62 191.076 185.471C190.646 185.321 190.279 185.119 189.973 184.865C189.667 184.611 189.413 184.335 189.211 184.035H189.094C189.113 184.289 189.136 184.595 189.162 184.953C189.195 185.311 189.211 185.624 189.211 185.891V190.285H187.58V174.797H188.918L189.133 176.379H189.211C189.419 176.053 189.673 175.757 189.973 175.49C190.272 175.217 190.637 175.002 191.066 174.846C191.503 174.683 192.017 174.602 192.609 174.602ZM192.326 175.969C191.584 175.969 190.985 176.112 190.529 176.398C190.08 176.685 189.751 177.115 189.543 177.688C189.335 178.254 189.224 178.967 189.211 179.826V180.139C189.211 181.044 189.309 181.809 189.504 182.434C189.706 183.059 190.035 183.534 190.49 183.859C190.952 184.185 191.571 184.348 192.346 184.348C193.01 184.348 193.563 184.169 194.006 183.811C194.449 183.452 194.777 182.954 194.992 182.316C195.214 181.672 195.324 180.933 195.324 180.1C195.324 178.837 195.077 177.834 194.582 177.092C194.094 176.343 193.342 175.969 192.326 175.969ZM203.947 174.602C204.859 174.602 205.64 174.803 206.291 175.207C206.942 175.611 207.44 176.177 207.785 176.906C208.13 177.629 208.303 178.475 208.303 179.445V180.451H200.91C200.93 181.708 201.242 182.665 201.848 183.322C202.453 183.98 203.306 184.309 204.406 184.309C205.083 184.309 205.682 184.247 206.203 184.123C206.724 183.999 207.264 183.817 207.824 183.576V185.002C207.284 185.243 206.747 185.419 206.213 185.529C205.686 185.64 205.061 185.695 204.338 185.695C203.309 185.695 202.411 185.487 201.643 185.07C200.881 184.647 200.288 184.029 199.865 183.215C199.442 182.401 199.23 181.405 199.23 180.227C199.23 179.074 199.423 178.078 199.807 177.238C200.197 176.392 200.744 175.741 201.447 175.285C202.157 174.829 202.99 174.602 203.947 174.602ZM203.928 175.93C203.062 175.93 202.372 176.213 201.857 176.779C201.343 177.346 201.037 178.137 200.939 179.152H206.604C206.597 178.514 206.496 177.954 206.301 177.473C206.112 176.984 205.822 176.607 205.432 176.34C205.041 176.066 204.54 175.93 203.928 175.93ZM216.125 174.602C217.395 174.602 218.355 174.914 219.006 175.539C219.657 176.158 219.982 177.154 219.982 178.527V185.5H218.381V178.635C218.381 177.743 218.176 177.076 217.766 176.633C217.362 176.19 216.74 175.969 215.9 175.969C214.715 175.969 213.882 176.304 213.4 176.975C212.919 177.645 212.678 178.618 212.678 179.895V185.5H211.057V174.797H212.365L212.609 176.34H212.697C212.925 175.962 213.215 175.646 213.566 175.393C213.918 175.132 214.312 174.937 214.748 174.807C215.184 174.67 215.643 174.602 216.125 174.602ZM236.818 181.701C236.818 182.548 236.607 183.27 236.184 183.869C235.767 184.462 235.181 184.914 234.426 185.227C233.671 185.539 232.782 185.695 231.76 185.695C231.219 185.695 230.708 185.669 230.227 185.617C229.745 185.565 229.302 185.49 228.898 185.393C228.495 185.295 228.14 185.174 227.834 185.031V183.439C228.322 183.641 228.918 183.83 229.621 184.006C230.324 184.175 231.06 184.26 231.828 184.26C232.544 184.26 233.15 184.165 233.645 183.977C234.139 183.781 234.514 183.505 234.768 183.146C235.028 182.782 235.158 182.346 235.158 181.838C235.158 181.35 235.051 180.943 234.836 180.617C234.621 180.285 234.263 179.986 233.762 179.719C233.267 179.445 232.59 179.156 231.73 178.85C231.125 178.635 230.591 178.4 230.129 178.146C229.667 177.886 229.279 177.593 228.967 177.268C228.654 176.942 228.417 176.564 228.254 176.135C228.098 175.705 228.02 175.214 228.02 174.66C228.02 173.898 228.212 173.247 228.596 172.707C228.986 172.16 229.523 171.743 230.207 171.457C230.897 171.164 231.688 171.018 232.58 171.018C233.342 171.018 234.045 171.089 234.689 171.232C235.34 171.376 235.936 171.568 236.477 171.809L235.959 173.234C235.445 173.02 234.898 172.84 234.318 172.697C233.745 172.554 233.153 172.482 232.541 172.482C231.929 172.482 231.411 172.574 230.988 172.756C230.572 172.932 230.253 173.182 230.031 173.508C229.81 173.833 229.699 174.221 229.699 174.67C229.699 175.171 229.803 175.588 230.012 175.92C230.227 176.252 230.565 176.548 231.027 176.809C231.496 177.062 232.115 177.329 232.883 177.609C233.723 177.915 234.436 178.241 235.021 178.586C235.607 178.924 236.053 179.341 236.359 179.836C236.665 180.324 236.818 180.946 236.818 181.701ZM243.498 174.621C244.774 174.621 245.721 174.908 246.34 175.48C246.958 176.053 247.268 176.968 247.268 178.225V185.5H246.086L245.773 183.918H245.695C245.396 184.309 245.083 184.637 244.758 184.904C244.432 185.165 244.055 185.363 243.625 185.5C243.202 185.63 242.681 185.695 242.062 185.695C241.411 185.695 240.832 185.581 240.324 185.354C239.823 185.126 239.426 184.781 239.133 184.318C238.846 183.856 238.703 183.27 238.703 182.561C238.703 181.493 239.126 180.673 239.973 180.1C240.819 179.527 242.108 179.214 243.84 179.162L245.686 179.084V178.43C245.686 177.505 245.487 176.857 245.09 176.486C244.693 176.115 244.133 175.93 243.41 175.93C242.85 175.93 242.316 176.011 241.809 176.174C241.301 176.337 240.819 176.529 240.363 176.75L239.865 175.52C240.347 175.272 240.9 175.061 241.525 174.885C242.15 174.709 242.808 174.621 243.498 174.621ZM245.666 180.227L244.035 180.295C242.701 180.347 241.76 180.565 241.213 180.949C240.666 181.333 240.393 181.877 240.393 182.58C240.393 183.192 240.578 183.645 240.949 183.938C241.32 184.23 241.812 184.377 242.424 184.377C243.374 184.377 244.152 184.113 244.758 183.586C245.363 183.059 245.666 182.268 245.666 181.213V180.227ZM255.676 174.602C256.945 174.602 257.906 174.914 258.557 175.539C259.208 176.158 259.533 177.154 259.533 178.527V185.5H257.932V178.635C257.932 177.743 257.727 177.076 257.316 176.633C256.913 176.19 256.291 175.969 255.451 175.969C254.266 175.969 253.433 176.304 252.951 176.975C252.469 177.645 252.229 178.618 252.229 179.895V185.5H250.607V174.797H251.916L252.16 176.34H252.248C252.476 175.962 252.766 175.646 253.117 175.393C253.469 175.132 253.863 174.937 254.299 174.807C254.735 174.67 255.194 174.602 255.676 174.602ZM269.797 182.57C269.797 183.254 269.624 183.83 269.279 184.299C268.941 184.761 268.452 185.109 267.814 185.344C267.183 185.578 266.428 185.695 265.549 185.695C264.8 185.695 264.152 185.637 263.605 185.52C263.059 185.402 262.58 185.236 262.17 185.021V183.527C262.606 183.742 263.127 183.938 263.732 184.113C264.338 184.289 264.956 184.377 265.588 184.377C266.512 184.377 267.183 184.227 267.6 183.928C268.016 183.628 268.225 183.221 268.225 182.707C268.225 182.414 268.14 182.157 267.971 181.936C267.808 181.708 267.531 181.49 267.141 181.281C266.75 181.066 266.21 180.832 265.52 180.578C264.836 180.318 264.243 180.061 263.742 179.807C263.247 179.546 262.863 179.23 262.59 178.859C262.323 178.488 262.189 178.007 262.189 177.414C262.189 176.509 262.554 175.816 263.283 175.334C264.019 174.846 264.982 174.602 266.174 174.602C266.818 174.602 267.421 174.667 267.98 174.797C268.547 174.921 269.074 175.09 269.562 175.305L269.016 176.604C268.573 176.415 268.101 176.255 267.6 176.125C267.098 175.995 266.587 175.93 266.066 175.93C265.318 175.93 264.742 176.053 264.338 176.301C263.941 176.548 263.742 176.887 263.742 177.316C263.742 177.648 263.833 177.922 264.016 178.137C264.204 178.352 264.504 178.553 264.914 178.742C265.324 178.931 265.865 179.152 266.535 179.406C267.206 179.654 267.785 179.911 268.273 180.178C268.762 180.438 269.136 180.757 269.396 181.135C269.663 181.506 269.797 181.984 269.797 182.57Z"/>
</mask>
<path d="M184.221 181.35L185.175 181.647L185.176 181.645L184.221 181.35ZM182.971 183.674L182.209 183.026L182.208 183.027L182.971 183.674ZM180.93 185.168L181.326 186.086L180.93 185.168ZM175.197 185.168L174.803 186.087L174.806 186.088L175.197 185.168ZM173.146 183.664L172.377 184.303L172.381 184.307L173.146 183.664ZM171.926 181.33L170.967 181.613L170.969 181.619L171.926 181.33ZM174.436 171.916L173.907 171.067L173.905 171.069L174.436 171.916ZM181.691 171.906L181.159 172.753L181.162 172.755L181.691 171.906ZM183.889 174.465L182.977 174.875L182.98 174.881L183.889 174.465ZM175.373 183.537L174.811 184.364L174.815 184.367L175.373 183.537ZM180.812 183.537L180.251 182.71L180.247 182.712L180.812 183.537ZM181.73 174.025L180.926 174.619L180.93 174.625L181.73 174.025ZM175.393 173.176L174.84 172.343L175.393 173.176ZM173.791 175.207L172.863 174.836L172.861 174.839L173.791 175.207ZM183.641 178.342C183.641 179.358 183.511 180.259 183.265 181.054L185.176 181.645C185.49 180.63 185.641 179.526 185.641 178.342H183.641ZM183.266 181.052C183.022 181.835 182.667 182.488 182.209 183.026L183.733 184.321C184.382 183.558 184.86 182.661 185.175 181.647L183.266 181.052ZM182.208 183.027C181.766 183.548 181.213 183.956 180.533 184.25L181.326 186.086C182.274 185.676 183.082 185.088 183.733 184.321L182.208 183.027ZM180.533 184.25C179.868 184.537 179.064 184.695 178.098 184.695V186.695C179.28 186.695 180.364 186.502 181.326 186.086L180.533 184.25ZM178.098 184.695C177.095 184.695 176.267 184.536 175.589 184.248L174.806 186.088C175.782 186.503 176.887 186.695 178.098 186.695V184.695ZM175.591 184.249C174.907 183.956 174.353 183.546 173.912 183.021L172.381 184.307C173.033 185.084 173.847 185.677 174.803 186.087L175.591 184.249ZM173.916 183.025C173.47 182.489 173.122 181.833 172.883 181.041L170.969 181.619C171.276 182.637 171.742 183.538 172.377 184.303L173.916 183.025ZM172.885 181.047C172.649 180.248 172.525 179.342 172.525 178.322H170.525C170.525 179.503 170.669 180.602 170.967 181.613L172.885 181.047ZM172.525 178.322C172.525 176.973 172.748 175.835 173.164 174.885L171.332 174.083C170.784 175.334 170.525 176.755 170.525 178.322H172.525ZM173.164 174.885C173.569 173.961 174.168 173.264 174.967 172.763L173.905 171.069C172.75 171.792 171.891 172.807 171.332 174.083L173.164 174.885ZM174.964 172.765C175.75 172.276 176.785 171.998 178.127 171.998V169.998C176.513 169.998 175.087 170.333 173.907 171.067L174.964 172.765ZM178.127 171.998C179.397 171.998 180.39 172.269 181.159 172.753L182.223 171.06C181.066 170.332 179.683 169.998 178.127 169.998V171.998ZM181.162 172.755C181.954 173.249 182.558 173.945 182.977 174.875L184.801 174.055C184.229 172.784 183.369 171.774 182.221 171.058L181.162 172.755ZM182.98 174.881C183.408 175.817 183.641 176.961 183.641 178.342H185.641C185.641 176.741 185.372 175.3 184.798 174.048L182.98 174.881ZM172.273 178.342C172.273 179.644 172.459 180.821 172.859 181.849L174.723 181.123C174.433 180.38 174.273 179.461 174.273 178.342H172.273ZM172.859 181.849C173.27 182.902 173.916 183.757 174.811 184.364L175.935 182.71C175.411 182.354 175.003 181.841 174.723 181.123L172.859 181.849ZM174.815 184.367C175.736 184.987 176.853 185.26 178.098 185.26V183.26C177.142 183.26 176.442 183.051 175.931 182.707L174.815 184.367ZM178.098 185.26C179.346 185.26 180.465 184.988 181.378 184.362L180.247 182.712C179.754 183.05 179.062 183.26 178.098 183.26V185.26ZM181.374 184.364C182.271 183.756 182.915 182.899 183.319 181.843L181.451 181.129C181.177 181.844 180.773 182.355 180.251 182.71L181.374 184.364ZM183.319 181.843C183.711 180.817 183.893 179.642 183.893 178.342H181.893C181.893 179.463 181.735 180.385 181.451 181.129L183.319 181.843ZM183.893 178.342C183.893 176.372 183.48 174.694 182.531 173.426L180.93 174.625C181.53 175.427 181.893 176.626 181.893 178.342H183.893ZM182.535 173.432C181.53 172.068 179.986 171.463 178.127 171.463V173.463C179.536 173.463 180.395 173.899 180.926 174.619L182.535 173.432ZM178.127 171.463C176.88 171.463 175.761 171.731 174.84 172.343L175.946 174.009C176.457 173.67 177.161 173.463 178.127 173.463V171.463ZM174.84 172.343C173.937 172.941 173.282 173.788 172.863 174.836L174.719 175.578C175.004 174.868 175.416 174.361 175.946 174.009L174.84 172.343ZM172.861 174.839C172.458 175.858 172.273 177.034 172.273 178.342H174.273C174.273 177.215 174.434 176.301 174.721 175.575L172.861 174.839ZM195.803 175.979L196.559 175.324L195.803 175.979ZM194.904 185.061L194.367 184.217L194.363 184.22L194.904 185.061ZM189.211 184.035L190.04 183.476L189.743 183.035H189.211V184.035ZM189.094 184.035V183.035H188.014L188.097 184.112L189.094 184.035ZM189.162 184.953L188.165 185.026L188.165 185.035L188.166 185.044L189.162 184.953ZM189.211 190.285V191.285H190.211V190.285H189.211ZM187.58 190.285H186.58V191.285H187.58V190.285ZM187.58 174.797V173.797H186.58V174.797H187.58ZM188.918 174.797L189.909 174.662L189.791 173.797H188.918V174.797ZM189.133 176.379L188.142 176.513L188.259 177.379H189.133V176.379ZM189.211 176.379V177.379H189.758L190.053 176.918L189.211 176.379ZM189.973 175.49L190.638 176.237L190.647 176.229L189.973 175.49ZM191.066 174.846L191.408 175.786L191.416 175.783L191.066 174.846ZM190.529 176.398L189.997 175.552L189.992 175.555L190.529 176.398ZM189.543 177.688L190.482 178.033L190.483 178.029L189.543 177.688ZM189.211 179.826L188.211 179.811L188.211 179.819V179.826H189.211ZM189.504 182.434L188.549 182.732L188.552 182.741L189.504 182.434ZM190.49 183.859L189.909 184.673L189.914 184.677L190.49 183.859ZM194.992 182.316L194.046 181.992L194.044 181.997L194.992 182.316ZM194.582 177.092L193.744 177.638L193.75 177.646L194.582 177.092ZM192.609 175.602C193.686 175.602 194.462 175.958 195.047 176.633L196.559 175.324C195.554 174.163 194.202 173.602 192.609 173.602V175.602ZM195.047 176.633C195.62 177.295 195.994 178.397 195.994 180.119H197.994C197.994 178.156 197.574 176.498 196.559 175.324L195.047 176.633ZM195.994 180.119C195.994 181.243 195.825 182.118 195.532 182.782L197.362 183.589C197.799 182.599 197.994 181.43 197.994 180.119H195.994ZM195.532 182.782C195.235 183.456 194.841 183.915 194.367 184.217L195.442 185.904C196.296 185.36 196.93 184.569 197.362 183.589L195.532 182.782ZM194.363 184.22C193.89 184.524 193.306 184.695 192.57 184.695V186.695C193.631 186.695 194.604 186.443 195.445 185.901L194.363 184.22ZM192.57 184.695C192.09 184.695 191.707 184.632 191.405 184.526L190.747 186.415C191.305 186.609 191.918 186.695 192.57 186.695V184.695ZM191.405 184.526C191.072 184.41 190.813 184.263 190.611 184.096L189.334 185.635C189.744 185.975 190.221 186.232 190.747 186.415L191.405 184.526ZM190.611 184.096C190.371 183.896 190.184 183.689 190.04 183.476L188.382 184.594C188.642 184.98 188.962 185.326 189.334 185.635L190.611 184.096ZM189.211 183.035H189.094V185.035H189.211V183.035ZM188.097 184.112C188.116 184.364 188.139 184.668 188.165 185.026L190.159 184.881C190.133 184.522 190.11 184.214 190.091 183.958L188.097 184.112ZM188.166 185.044C188.197 185.381 188.211 185.662 188.211 185.891H190.211C190.211 185.585 190.192 185.241 190.158 184.863L188.166 185.044ZM188.211 185.891V190.285H190.211V185.891H188.211ZM189.211 189.285H187.58V191.285H189.211V189.285ZM188.58 190.285V174.797H186.58V190.285H188.58ZM187.58 175.797H188.918V173.797H187.58V175.797ZM187.927 174.931L188.142 176.513L190.124 176.244L189.909 174.662L187.927 174.931ZM189.133 177.379H189.211V175.379H189.133V177.379ZM190.053 176.918C190.21 176.672 190.404 176.445 190.638 176.237L189.307 174.744C188.942 175.069 188.628 175.435 188.369 175.84L190.053 176.918ZM190.647 176.229C190.838 176.054 191.086 175.903 191.408 175.785L190.725 173.906C190.188 174.101 189.706 174.38 189.298 174.752L190.647 176.229ZM191.416 175.783C191.715 175.671 192.105 175.602 192.609 175.602V173.602C191.929 173.602 191.291 173.695 190.717 173.909L191.416 175.783ZM192.326 174.969C191.464 174.969 190.662 175.134 189.997 175.552L191.061 177.245C191.308 177.09 191.704 176.969 192.326 176.969V174.969ZM189.992 175.555C189.331 175.977 188.875 176.597 188.603 177.346L190.483 178.029C190.627 177.632 190.829 177.393 191.067 177.242L189.992 175.555ZM188.604 177.342C188.345 178.049 188.225 178.883 188.211 179.811L190.211 179.841C190.223 179.051 190.325 178.459 190.481 178.033L188.604 177.342ZM188.211 179.826V180.139H190.211V179.826H188.211ZM188.211 180.139C188.211 181.109 188.315 181.981 188.549 182.732L190.458 182.135C190.302 181.636 190.211 180.978 190.211 180.139H188.211ZM188.552 182.741C188.808 183.534 189.25 184.202 189.909 184.673L191.071 183.046C190.819 182.865 190.603 182.584 190.456 182.126L188.552 182.741ZM189.914 184.677C190.597 185.158 191.439 185.348 192.346 185.348V183.348C191.703 183.348 191.308 183.212 191.066 183.042L189.914 184.677ZM192.346 185.348C193.199 185.348 193.985 185.113 194.635 184.588L193.377 183.033C193.141 183.224 192.821 183.348 192.346 183.348V185.348ZM194.635 184.588C195.25 184.09 195.676 183.42 195.94 182.636L194.044 181.997C193.879 182.489 193.647 182.815 193.377 183.033L194.635 184.588ZM195.938 182.641C196.202 181.872 196.324 181.02 196.324 180.1H194.324C194.324 180.846 194.225 181.472 194.046 181.992L195.938 182.641ZM196.324 180.1C196.324 178.718 196.055 177.499 195.414 176.537L193.75 177.646C194.098 178.169 194.324 178.955 194.324 180.1H196.324ZM195.42 176.546C194.719 175.471 193.626 174.969 192.326 174.969V176.969C193.058 176.969 193.468 177.215 193.744 177.638L195.42 176.546ZM206.291 175.207L206.818 174.357L206.291 175.207ZM207.785 176.906L206.881 177.334L206.883 177.337L207.785 176.906ZM208.303 180.451V181.451H209.303V180.451H208.303ZM200.91 180.451V179.451H199.894L199.91 180.467L200.91 180.451ZM207.824 183.576H208.824V182.057L207.429 182.658L207.824 183.576ZM207.824 185.002L208.231 185.915L208.824 185.651V185.002H207.824ZM206.213 185.529L206.01 184.55L206.007 184.551L206.213 185.529ZM201.643 185.07L201.157 185.945L201.166 185.949L201.643 185.07ZM199.807 177.238L198.899 176.819L198.897 176.822L199.807 177.238ZM201.447 175.285L200.907 174.444L200.903 174.446L201.447 175.285ZM200.939 179.152L199.944 179.057L199.839 180.152H200.939V179.152ZM206.604 179.152V180.152H207.614L207.603 179.142L206.604 179.152ZM206.301 177.473L205.368 177.833L205.371 177.841L205.374 177.848L206.301 177.473ZM205.432 176.34L204.858 177.159L204.867 177.165L205.432 176.34ZM203.947 175.602C204.708 175.602 205.299 175.769 205.764 176.057L206.818 174.357C205.981 173.838 205.009 173.602 203.947 173.602V175.602ZM205.764 176.057C206.243 176.354 206.614 176.769 206.881 177.334L208.689 176.479C208.266 175.585 207.642 174.868 206.818 174.357L205.764 176.057ZM206.883 177.337C207.151 177.9 207.303 178.593 207.303 179.445H209.303C209.303 178.357 209.109 177.358 208.688 176.475L206.883 177.337ZM207.303 179.445V180.451H209.303V179.445H207.303ZM208.303 179.451H200.91V181.451H208.303V179.451ZM199.91 180.467C199.932 181.869 200.283 183.1 201.112 184L202.583 182.645C202.201 182.23 201.927 181.546 201.91 180.436L199.91 180.467ZM201.112 184C201.949 184.909 203.096 185.309 204.406 185.309V183.309C203.516 183.309 202.957 183.051 202.583 182.645L201.112 184ZM204.406 185.309C205.142 185.309 205.821 185.242 206.434 185.096L205.972 183.15C205.544 183.252 205.025 183.309 204.406 183.309V185.309ZM206.434 185.096C207.018 184.957 207.614 184.755 208.219 184.495L207.429 182.658C206.915 182.879 206.43 183.041 205.972 183.15L206.434 185.096ZM206.824 183.576V185.002H208.824V183.576H206.824ZM207.417 184.089C206.937 184.303 206.468 184.455 206.01 184.55L206.416 186.508C207.026 186.382 207.631 186.183 208.231 185.915L207.417 184.089ZM206.007 184.551C205.566 184.643 205.013 184.695 204.338 184.695V186.695C205.108 186.695 205.805 186.637 206.418 186.508L206.007 184.551ZM204.338 184.695C203.446 184.695 202.717 184.516 202.119 184.191L201.166 185.949C202.104 186.458 203.172 186.695 204.338 186.695V184.695ZM202.128 184.196C201.547 183.873 201.09 183.403 200.752 182.753L198.978 183.676C199.487 184.654 200.215 185.421 201.157 185.944L202.128 184.196ZM200.752 182.753C200.421 182.117 200.23 181.289 200.23 180.227H198.23C198.23 181.521 198.463 182.685 198.978 183.676L200.752 182.753ZM200.23 180.227C200.23 179.183 200.404 178.335 200.716 177.654L198.897 176.822C198.441 177.821 198.23 178.965 198.23 180.227H200.23ZM200.715 177.657C201.035 176.963 201.464 176.466 201.991 176.124L200.903 174.446C200.024 175.016 199.359 175.821 198.899 176.819L200.715 177.657ZM201.988 176.127C202.515 175.788 203.155 175.602 203.947 175.602V173.602C202.825 173.602 201.799 173.871 200.907 174.444L201.988 176.127ZM203.928 174.93C202.821 174.93 201.847 175.303 201.117 176.107L202.598 177.452C202.897 177.122 203.303 176.93 203.928 176.93V174.93ZM201.117 176.107C200.416 176.879 200.056 177.897 199.944 179.057L201.935 179.248C202.019 178.376 202.27 177.812 202.598 177.452L201.117 176.107ZM200.939 180.152H206.604V178.152H200.939V180.152ZM207.603 179.142C207.596 178.406 207.479 177.718 207.228 177.097L205.374 177.848C205.513 178.191 205.598 178.622 205.604 179.163L207.603 179.142ZM207.233 177.112C206.98 176.456 206.571 175.907 205.996 175.514L204.867 177.165C205.073 177.306 205.244 177.513 205.368 177.833L207.233 177.112ZM206.005 175.521C205.404 175.1 204.687 174.93 203.928 174.93V176.93C204.393 176.93 204.678 177.033 204.858 177.159L206.005 175.521ZM219.006 175.539L218.313 176.26L218.317 176.264L219.006 175.539ZM219.982 185.5V186.5H220.982V185.5H219.982ZM218.381 185.5H217.381V186.5H218.381V185.5ZM217.766 176.633L217.027 177.307L217.032 177.312L217.766 176.633ZM212.678 185.5V186.5H213.678V185.5H212.678ZM211.057 185.5H210.057V186.5H211.057V185.5ZM211.057 174.797V173.797H210.057V174.797H211.057ZM212.365 174.797L213.353 174.641L213.219 173.797H212.365V174.797ZM212.609 176.34L211.622 176.496L211.755 177.34H212.609V176.34ZM212.697 176.34V177.34H213.262L213.553 176.857L212.697 176.34ZM213.566 175.393L214.152 176.203L214.162 176.196L213.566 175.393ZM214.748 174.807L215.034 175.765L215.047 175.761L214.748 174.807ZM216.125 175.602C217.242 175.602 217.913 175.876 218.313 176.26L219.698 174.818C218.797 173.952 217.547 173.602 216.125 173.602V175.602ZM218.317 176.264C218.685 176.614 218.982 177.284 218.982 178.527H220.982C220.982 177.023 220.629 175.701 219.695 174.814L218.317 176.264ZM218.982 178.527V185.5H220.982V178.527H218.982ZM219.982 184.5H218.381V186.5H219.982V184.5ZM219.381 185.5V178.635H217.381V185.5H219.381ZM219.381 178.635C219.381 177.609 219.147 176.652 218.499 175.953L217.032 177.312C217.205 177.499 217.381 177.876 217.381 178.635H219.381ZM218.505 175.959C217.845 175.236 216.905 174.969 215.9 174.969V176.969C216.575 176.969 216.879 177.144 217.027 177.307L218.505 175.959ZM215.9 174.969C214.542 174.969 213.331 175.358 212.588 176.391L214.213 177.558C214.434 177.25 214.889 176.969 215.9 176.969V174.969ZM212.588 176.391C211.934 177.302 211.678 178.516 211.678 179.895H213.678C213.678 178.721 213.903 177.989 214.213 177.558L212.588 176.391ZM211.678 179.895V185.5H213.678V179.895H211.678ZM212.678 184.5H211.057V186.5H212.678V184.5ZM212.057 185.5V174.797H210.057V185.5H212.057ZM211.057 175.797H212.365V173.797H211.057V175.797ZM211.378 174.953L211.622 176.496L213.597 176.184L213.353 174.641L211.378 174.953ZM212.609 177.34H212.697V175.34H212.609V177.34ZM213.553 176.857C213.713 176.592 213.911 176.377 214.152 176.203L212.981 174.582C212.518 174.916 212.137 175.332 211.841 175.823L213.553 176.857ZM214.162 176.196C214.416 176.008 214.705 175.863 215.034 175.765L214.462 173.848C213.919 174.01 213.42 174.257 212.971 174.589L214.162 176.196ZM215.047 175.761C215.381 175.656 215.739 175.602 216.125 175.602V173.602C215.547 173.602 214.987 173.684 214.449 173.852L215.047 175.761ZM236.184 183.869L235.367 183.292L235.366 183.294L236.184 183.869ZM227.834 185.031H226.834V185.667L227.41 185.937L227.834 185.031ZM227.834 183.439L228.216 182.515L226.834 181.944V183.439H227.834ZM229.621 184.006L229.379 184.976L229.387 184.978L229.621 184.006ZM233.645 183.977L234.001 184.911L234.012 184.907L233.645 183.977ZM234.768 183.146L233.954 182.565L233.952 182.568L234.768 183.146ZM234.836 180.617L233.996 181.16L234.001 181.168L234.836 180.617ZM233.762 179.719L233.278 180.594L233.285 180.598L233.292 180.601L233.762 179.719ZM231.73 178.85L232.066 177.908L232.065 177.907L231.73 178.85ZM230.129 178.146L229.638 179.018L229.647 179.023L230.129 178.146ZM228.254 176.135L227.314 176.477L227.319 176.489L228.254 176.135ZM228.596 172.707L227.782 172.126L227.781 172.128L228.596 172.707ZM230.207 171.457L230.594 172.379L230.598 172.378L230.207 171.457ZM234.689 171.232L234.473 172.209L234.475 172.209L234.689 171.232ZM236.477 171.809L237.417 172.15L237.734 171.274L236.884 170.895L236.477 171.809ZM235.959 173.234L235.574 174.157L236.541 174.561L236.899 173.576L235.959 173.234ZM234.318 172.697L234.076 173.667L234.078 173.668L234.318 172.697ZM230.988 172.756L231.377 173.677L231.384 173.674L230.988 172.756ZM230.012 175.92L229.165 176.451L229.172 176.463L230.012 175.92ZM231.027 176.809L230.536 177.68L230.544 177.684L230.551 177.688L231.027 176.809ZM232.883 177.609L232.54 178.549L232.54 178.549L232.883 177.609ZM235.021 178.586L234.514 179.448L234.521 179.452L235.021 178.586ZM236.359 179.836L235.509 180.362L235.512 180.367L236.359 179.836ZM235.818 181.701C235.818 182.374 235.653 182.887 235.367 183.292L237 184.446C237.56 183.653 237.818 182.721 237.818 181.701H235.818ZM235.366 183.294C235.072 183.712 234.646 184.053 234.043 184.303L234.808 186.151C235.716 185.775 236.462 185.211 237.002 184.444L235.366 183.294ZM234.043 184.303C233.436 184.554 232.682 184.695 231.76 184.695V186.695C232.881 186.695 233.905 186.524 234.808 186.151L234.043 184.303ZM231.76 184.695C231.251 184.695 230.776 184.671 230.334 184.623L230.119 186.611C230.64 186.668 231.188 186.695 231.76 186.695V184.695ZM230.334 184.623C229.888 184.575 229.489 184.507 229.134 184.421L228.663 186.365C229.115 186.474 229.601 186.555 230.119 186.611L230.334 184.623ZM229.134 184.421C228.781 184.335 228.491 184.235 228.258 184.126L227.41 185.937C227.788 186.114 228.209 186.255 228.663 186.365L229.134 184.421ZM228.834 185.031V183.439H226.834V185.031H228.834ZM227.452 184.364C227.999 184.59 228.644 184.792 229.379 184.976L229.864 183.036C229.192 182.868 228.646 182.693 228.216 182.515L227.452 184.364ZM229.387 184.978C230.171 185.167 230.986 185.26 231.828 185.26V183.26C231.134 183.26 230.477 183.183 229.855 183.034L229.387 184.978ZM231.828 185.26C232.626 185.26 233.36 185.155 234.001 184.911L233.288 183.042C232.939 183.175 232.463 183.26 231.828 183.26V185.26ZM234.012 184.907C234.648 184.655 235.195 184.272 235.583 183.725L233.952 182.568C233.832 182.737 233.63 182.907 233.277 183.046L234.012 184.907ZM235.581 183.728C235.979 183.171 236.158 182.525 236.158 181.838H234.158C234.158 182.166 234.077 182.392 233.954 182.565L235.581 183.728ZM236.158 181.838C236.158 181.203 236.018 180.592 235.671 180.066L234.001 181.168C234.084 181.293 234.158 181.496 234.158 181.838H236.158ZM235.676 180.074C235.337 179.55 234.822 179.15 234.232 178.836L233.292 180.601C233.704 180.821 233.905 181.02 233.996 181.16L235.676 180.074ZM234.245 178.844C233.683 178.533 232.949 178.222 232.066 177.908L231.395 179.792C232.23 180.089 232.851 180.358 233.278 180.594L234.245 178.844ZM232.065 177.907C231.5 177.707 231.017 177.493 230.61 177.27L229.647 179.023C230.166 179.308 230.75 179.563 231.396 179.792L232.065 177.907ZM230.62 177.275C230.228 177.055 229.922 176.819 229.688 176.575L228.245 177.96C228.636 178.367 229.105 178.718 229.638 179.018L230.62 177.275ZM229.688 176.575C229.471 176.349 229.305 176.087 229.189 175.781L227.319 176.489C227.528 177.042 227.838 177.536 228.245 177.96L229.688 176.575ZM229.194 175.793C229.085 175.493 229.02 175.121 229.02 174.66H227.02C227.02 175.306 227.111 175.917 227.314 176.477L229.194 175.793ZM229.02 174.66C229.02 174.074 229.164 173.633 229.411 173.286L227.781 172.128C227.259 172.862 227.02 173.723 227.02 174.66H229.02ZM229.409 173.288C229.681 172.908 230.063 172.602 230.594 172.379L229.821 170.535C228.984 170.885 228.291 171.412 227.782 172.126L229.409 173.288ZM230.598 172.378C231.143 172.146 231.797 172.018 232.58 172.018V170.018C231.579 170.018 230.651 170.182 229.816 170.537L230.598 172.378ZM232.58 172.018C233.28 172.018 233.909 172.083 234.473 172.209L234.906 170.256C234.181 170.095 233.404 170.018 232.58 170.018V172.018ZM234.475 172.209C235.068 172.34 235.598 172.512 236.069 172.722L236.884 170.895C236.274 170.624 235.613 170.412 234.904 170.256L234.475 172.209ZM235.537 171.467L235.019 172.893L236.899 173.576L237.417 172.15L235.537 171.467ZM236.344 172.312C235.78 172.076 235.184 171.881 234.558 171.726L234.078 173.668C234.612 173.8 235.11 173.963 235.574 174.157L236.344 172.312ZM234.561 171.727C233.906 171.563 233.232 171.482 232.541 171.482V173.482C233.074 173.482 233.585 173.545 234.076 173.667L234.561 171.727ZM232.541 171.482C231.835 171.482 231.175 171.587 230.593 171.837L231.384 173.674C231.648 173.56 232.023 173.482 232.541 173.482V171.482ZM230.6 171.834C230.032 172.074 229.55 172.438 229.204 172.946L230.858 174.07C230.956 173.927 231.111 173.789 231.377 173.677L230.6 171.834ZM229.204 172.946C228.855 173.459 228.699 174.049 228.699 174.67H230.699C230.699 174.392 230.765 174.207 230.858 174.07L229.204 172.946ZM228.699 174.67C228.699 175.307 228.832 175.921 229.165 176.451L230.859 175.388C230.775 175.254 230.699 175.035 230.699 174.67H228.699ZM229.172 176.463C229.5 176.97 229.979 177.366 230.536 177.68L231.518 175.937C231.151 175.73 230.953 175.534 230.851 175.377L229.172 176.463ZM230.551 177.688C231.079 177.974 231.748 178.26 232.54 178.549L233.225 176.67C232.481 176.399 231.913 176.151 231.504 175.929L230.551 177.688ZM232.54 178.549C233.34 178.84 233.994 179.141 234.514 179.448L235.529 177.724C234.877 177.34 234.106 176.991 233.225 176.67L232.54 178.549ZM234.521 179.452C234.988 179.721 235.303 180.029 235.509 180.362L237.21 179.31C236.804 178.653 236.227 178.128 235.522 177.72L234.521 179.452ZM235.512 180.367C235.692 180.654 235.818 181.077 235.818 181.701H237.818C237.818 180.815 237.639 179.995 237.207 179.305L235.512 180.367ZM246.34 175.48L245.66 176.214L246.34 175.48ZM247.268 185.5V186.5H248.268V185.5H247.268ZM246.086 185.5L245.105 185.694L245.264 186.5H246.086V185.5ZM245.773 183.918L246.754 183.724L246.595 182.918H245.773V183.918ZM245.695 183.918V182.918H245.202L244.902 183.31L245.695 183.918ZM244.758 184.904L245.383 185.685L245.392 185.678L244.758 184.904ZM243.625 185.5L243.919 186.456L243.928 186.453L243.625 185.5ZM240.324 185.354L239.91 186.264L239.915 186.266L240.324 185.354ZM239.133 184.318L238.283 184.845L238.288 184.854L239.133 184.318ZM239.973 180.1L239.412 179.271L239.973 180.1ZM243.84 179.162L243.87 180.162L243.882 180.161L243.84 179.162ZM245.686 179.084L245.728 180.083L246.686 180.043V179.084H245.686ZM240.363 176.75L239.436 177.125L239.838 178.117L240.8 177.65L240.363 176.75ZM239.865 175.52L239.408 174.63L238.595 175.047L238.938 175.895L239.865 175.52ZM245.666 180.227H246.666V179.184L245.624 179.227L245.666 180.227ZM244.035 180.295L244.074 181.294L244.077 181.294L244.035 180.295ZM243.498 175.621C244.648 175.621 245.302 175.882 245.66 176.214L247.019 174.747C246.141 173.933 244.9 173.621 243.498 173.621V175.621ZM245.66 176.214C245.992 176.521 246.268 177.11 246.268 178.225H248.268C248.268 176.827 247.925 175.585 247.019 174.747L245.66 176.214ZM246.268 178.225V185.5H248.268V178.225H246.268ZM247.268 184.5H246.086V186.5H247.268V184.5ZM247.067 185.306L246.754 183.724L244.792 184.112L245.105 185.694L247.067 185.306ZM245.773 182.918H245.695V184.918H245.773V182.918ZM244.902 183.31C244.641 183.649 244.381 183.92 244.124 184.131L245.392 185.678C245.786 185.355 246.15 184.968 246.489 184.526L244.902 183.31ZM244.133 184.123C243.911 184.301 243.644 184.444 243.322 184.547L243.928 186.453C244.465 186.282 244.954 186.028 245.383 185.685L244.133 184.123ZM243.331 184.544C243.032 184.636 242.618 184.695 242.062 184.695V186.695C242.744 186.695 243.371 186.624 243.919 186.456L243.331 184.544ZM242.062 184.695C241.529 184.695 241.093 184.602 240.734 184.441L239.915 186.266C240.571 186.56 241.294 186.695 242.062 186.695V184.695ZM240.738 184.443C240.413 184.295 240.166 184.08 239.977 183.783L238.288 184.854C238.686 185.481 239.233 185.956 239.91 186.264L240.738 184.443ZM239.983 183.792C239.82 183.529 239.703 183.14 239.703 182.561H237.703C237.703 183.401 237.873 184.183 238.283 184.845L239.983 183.792ZM239.703 182.561C239.703 181.807 239.976 181.305 240.533 180.928L239.412 179.271C238.277 180.04 237.703 181.179 237.703 182.561H239.703ZM240.533 180.928C241.148 180.512 242.211 180.212 243.87 180.162L243.81 178.163C242.005 178.217 240.49 178.542 239.412 179.271L240.533 180.928ZM243.882 180.161L245.728 180.083L245.643 178.085L243.798 178.163L243.882 180.161ZM246.686 179.084V178.43H244.686V179.084H246.686ZM246.686 178.43C246.686 177.412 246.476 176.413 245.773 175.756L244.407 177.217C244.498 177.302 244.686 177.598 244.686 178.43H246.686ZM245.773 175.756C245.136 175.161 244.301 174.93 243.41 174.93V176.93C243.965 176.93 244.249 177.07 244.407 177.217L245.773 175.756ZM243.41 174.93C242.752 174.93 242.115 175.026 241.503 175.222L242.114 177.126C242.518 176.997 242.949 176.93 243.41 176.93V174.93ZM241.503 175.222C240.953 175.398 240.427 175.607 239.926 175.85L240.8 177.65C241.211 177.45 241.649 177.275 242.114 177.126L241.503 175.222ZM241.29 176.375L240.792 175.144L238.938 175.895L239.436 177.125L241.29 176.375ZM240.322 176.409C240.734 176.198 241.223 176.009 241.796 175.847L241.255 173.922C240.578 174.113 239.96 174.347 239.408 174.63L240.322 176.409ZM241.796 175.847C242.328 175.698 242.894 175.621 243.498 175.621V173.621C242.722 173.621 241.973 173.72 241.255 173.922L241.796 175.847ZM245.624 179.227L243.993 179.296L244.077 181.294L245.708 181.226L245.624 179.227ZM243.996 179.296C242.627 179.349 241.435 179.571 240.638 180.131L241.788 181.768C242.084 181.559 242.774 181.345 244.074 181.294L243.996 179.296ZM240.638 180.131C239.809 180.714 239.393 181.571 239.393 182.58H241.393C241.393 182.183 241.523 181.953 241.788 181.768L240.638 180.131ZM239.393 182.58C239.393 183.4 239.651 184.186 240.33 184.722L241.569 183.153C241.506 183.103 241.393 182.984 241.393 182.58H239.393ZM240.33 184.722C240.923 185.191 241.654 185.377 242.424 185.377V183.377C241.97 183.377 241.717 183.27 241.569 183.153L240.33 184.722ZM242.424 185.377C243.569 185.377 244.595 185.054 245.415 184.34L244.101 182.832C243.71 183.172 243.18 183.377 242.424 183.377V185.377ZM245.415 184.34C246.302 183.568 246.666 182.46 246.666 181.213H244.666C244.666 182.075 244.425 182.55 244.101 182.832L245.415 184.34ZM246.666 181.213V180.227H244.666V181.213H246.666ZM258.557 175.539L257.864 176.26L257.868 176.264L258.557 175.539ZM259.533 185.5V186.5H260.533V185.5H259.533ZM257.932 185.5H256.932V186.5H257.932V185.5ZM257.316 176.633L256.577 177.307L256.583 177.312L257.316 176.633ZM252.229 185.5V186.5H253.229V185.5H252.229ZM250.607 185.5H249.607V186.5H250.607V185.5ZM250.607 174.797V173.797H249.607V174.797H250.607ZM251.916 174.797L252.904 174.641L252.77 173.797H251.916V174.797ZM252.16 176.34L251.172 176.496L251.306 177.34H252.16V176.34ZM252.248 176.34V177.34H252.813L253.104 176.857L252.248 176.34ZM253.117 175.393L253.703 176.203L253.712 176.196L253.117 175.393ZM254.299 174.807L254.585 175.765L254.598 175.761L254.299 174.807ZM255.676 175.602C256.793 175.602 257.464 175.876 257.864 176.26L259.249 174.818C258.348 173.952 257.098 173.602 255.676 173.602V175.602ZM257.868 176.264C258.236 176.614 258.533 177.284 258.533 178.527H260.533C260.533 177.023 260.18 175.701 259.245 174.814L257.868 176.264ZM258.533 178.527V185.5H260.533V178.527H258.533ZM259.533 184.5H257.932V186.5H259.533V184.5ZM258.932 185.5V178.635H256.932V185.5H258.932ZM258.932 178.635C258.932 177.609 258.698 176.652 258.05 175.953L256.583 177.312C256.755 177.499 256.932 177.876 256.932 178.635H258.932ZM258.055 175.959C257.396 175.236 256.456 174.969 255.451 174.969V176.969C256.126 176.969 256.43 177.144 256.577 177.307L258.055 175.959ZM255.451 174.969C254.093 174.969 252.881 175.358 252.139 176.391L253.763 177.558C253.985 177.25 254.439 176.969 255.451 176.969V174.969ZM252.139 176.391C251.485 177.302 251.229 178.516 251.229 179.895H253.229C253.229 178.721 253.454 177.989 253.763 177.558L252.139 176.391ZM251.229 179.895V185.5H253.229V179.895H251.229ZM252.229 184.5H250.607V186.5H252.229V184.5ZM251.607 185.5V174.797H249.607V185.5H251.607ZM250.607 175.797H251.916V173.797H250.607V175.797ZM250.928 174.953L251.172 176.496L253.148 176.184L252.904 174.641L250.928 174.953ZM252.16 177.34H252.248V175.34H252.16V177.34ZM253.104 176.857C253.264 176.592 253.462 176.377 253.703 176.203L252.532 174.582C252.069 174.916 251.688 175.332 251.392 175.823L253.104 176.857ZM253.712 176.196C253.967 176.008 254.255 175.863 254.585 175.765L254.013 173.848C253.47 174.01 252.971 174.257 252.522 174.589L253.712 176.196ZM254.598 175.761C254.932 175.656 255.29 175.602 255.676 175.602V173.602C255.098 173.602 254.538 173.684 254 173.852L254.598 175.761ZM269.279 184.299L268.474 183.706L268.473 183.708L269.279 184.299ZM267.814 185.344L267.47 184.405L267.467 184.406L267.814 185.344ZM262.17 185.021H261.17V185.627L261.706 185.907L262.17 185.021ZM262.17 183.527L262.612 182.63L261.17 181.92V183.527H262.17ZM267.971 181.936L267.157 182.517L267.166 182.53L267.176 182.543L267.971 181.936ZM267.141 181.281L266.659 182.158L266.67 182.164L267.141 181.281ZM265.52 180.578L265.164 181.513L265.174 181.517L265.52 180.578ZM263.742 179.807L263.276 180.692L263.283 180.695L263.29 180.699L263.742 179.807ZM262.59 178.859L261.778 179.443L261.785 179.453L262.59 178.859ZM263.283 175.334L263.834 176.168L263.836 176.167L263.283 175.334ZM267.98 174.797L267.754 175.771L267.767 175.774L267.98 174.797ZM269.562 175.305L270.484 175.693L270.866 174.786L269.965 174.389L269.562 175.305ZM269.016 176.604L268.623 177.523L269.547 177.917L269.937 176.992L269.016 176.604ZM264.338 176.301L263.815 175.448L263.809 175.452L264.338 176.301ZM264.016 178.137L263.253 178.784L263.259 178.79L263.264 178.797L264.016 178.137ZM266.535 179.406L266.181 180.341L266.189 180.344L266.535 179.406ZM268.273 180.178L267.794 181.055L267.803 181.06L268.273 180.178ZM269.396 181.135L268.573 181.702L268.579 181.711L268.585 181.719L269.396 181.135ZM268.797 182.57C268.797 183.079 268.672 183.438 268.474 183.706L270.085 184.892C270.577 184.223 270.797 183.429 270.797 182.57H268.797ZM268.473 183.708C268.271 183.984 267.958 184.226 267.47 184.405L268.159 186.282C268.947 185.993 269.611 185.539 270.086 184.89L268.473 183.708ZM267.467 184.406C266.975 184.589 266.343 184.695 265.549 184.695V186.695C266.512 186.695 267.391 186.567 268.162 186.281L267.467 184.406ZM265.549 184.695C264.849 184.695 264.274 184.64 263.815 184.542L263.396 186.497C264.03 186.633 264.752 186.695 265.549 186.695V184.695ZM263.815 184.542C263.339 184.44 262.949 184.301 262.634 184.136L261.706 185.907C262.211 186.172 262.778 186.365 263.396 186.497L263.815 184.542ZM263.17 185.021V183.527H261.17V185.021H263.17ZM261.728 184.424C262.229 184.671 262.808 184.886 263.454 185.074L264.011 183.153C263.446 182.989 262.983 182.813 262.612 182.63L261.728 184.424ZM263.454 185.074C264.15 185.276 264.862 185.377 265.588 185.377V183.377C265.051 183.377 264.526 183.302 264.011 183.153L263.454 185.074ZM265.588 185.377C266.575 185.377 267.507 185.226 268.183 184.74L267.016 183.116C266.859 183.229 266.45 183.377 265.588 183.377V185.377ZM268.183 184.74C268.862 184.252 269.225 183.542 269.225 182.707H267.225C267.225 182.9 267.171 183.005 267.016 183.116L268.183 184.74ZM269.225 182.707C269.225 182.207 269.075 181.733 268.765 181.328L267.176 182.543C267.205 182.581 267.225 182.622 267.225 182.707H269.225ZM268.784 181.354C268.495 180.949 268.067 180.642 267.611 180.399L266.67 182.164C266.995 182.337 267.121 182.467 267.157 182.517L268.784 181.354ZM267.623 180.405C267.169 180.156 266.576 179.901 265.865 179.64L265.174 181.517C265.843 181.763 266.331 181.977 266.659 182.157L267.623 180.405ZM265.876 179.644C265.215 179.392 264.656 179.149 264.194 178.915L263.29 180.699C263.83 180.972 264.456 181.243 265.164 181.513L265.876 179.644ZM264.208 178.922C263.819 178.717 263.562 178.492 263.395 178.266L261.785 179.453C262.165 179.968 262.676 180.376 263.276 180.692L264.208 178.922ZM263.402 178.275C263.289 178.119 263.189 177.859 263.189 177.414H261.189C261.189 178.154 261.357 178.858 261.778 179.443L263.402 178.275ZM263.189 177.414C263.189 176.831 263.397 176.457 263.834 176.168L262.732 174.5C261.711 175.174 261.189 176.188 261.189 177.414H263.189ZM263.836 176.167C264.36 175.82 265.112 175.602 266.174 175.602V173.602C264.853 173.602 263.678 173.872 262.73 174.501L263.836 176.167ZM266.174 175.602C266.751 175.602 267.277 175.66 267.754 175.771L268.207 173.823C267.564 173.673 266.886 173.602 266.174 173.602V175.602ZM267.767 175.774C268.274 175.885 268.737 176.034 269.16 176.22L269.965 174.389C269.411 174.146 268.82 173.957 268.194 173.82L267.767 175.774ZM268.641 174.917L268.094 176.215L269.937 176.992L270.484 175.693L268.641 174.917ZM269.408 175.684C268.916 175.474 268.397 175.299 267.851 175.157L267.348 177.093C267.805 177.212 268.23 177.355 268.623 177.523L269.408 175.684ZM267.851 175.157C267.267 175.005 266.672 174.93 266.066 174.93V176.93C266.503 176.93 266.929 176.984 267.348 177.093L267.851 175.157ZM266.066 174.93C265.231 174.93 264.443 175.064 263.815 175.448L264.86 177.153C265.04 177.043 265.404 176.93 266.066 176.93V174.93ZM263.809 175.452C263.15 175.863 262.742 176.506 262.742 177.316H264.742C264.742 177.286 264.746 177.269 264.748 177.261C264.749 177.254 264.751 177.25 264.754 177.246C264.757 177.241 264.779 177.204 264.867 177.15L263.809 175.452ZM262.742 177.316C262.742 177.841 262.891 178.357 263.253 178.784L264.778 177.49C264.776 177.487 264.742 177.456 264.742 177.316H262.742ZM263.264 178.797C263.584 179.16 264.024 179.433 264.496 179.651L265.332 177.834C264.984 177.673 264.825 177.543 264.767 177.477L263.264 178.797ZM264.496 179.651C264.936 179.853 265.5 180.084 266.181 180.341L266.889 178.471C266.229 178.221 265.713 178.009 265.332 177.834L264.496 179.651ZM266.189 180.344C266.826 180.579 267.359 180.817 267.794 181.055L268.753 179.3C268.212 179.004 267.586 178.728 266.881 178.468L266.189 180.344ZM267.803 181.06C268.179 181.261 268.42 181.481 268.573 181.702L270.22 180.567C269.852 180.033 269.344 179.616 268.744 179.295L267.803 181.06ZM268.585 181.719C268.699 181.877 268.797 182.135 268.797 182.57H270.797C270.797 181.834 270.628 181.134 270.208 180.551L268.585 181.719Z" fill="#141414" mask="url(#path-4-outside-1_1412_10456)"/>
</svg>
